<svg width="1280" height="720" viewBox="0 0 1280 720" fill="none" xmlns="http://www.w3.org/2000/svg">
<path d="M737.5 600.5H653.5L654.5 430.5H737.5V600.5ZM626 600H541.5L542 430.5H625L626 600ZM553.5 442V588H614V442H553.5ZM666 442V588H725.5V442H666ZM738.5 380H654.5L655.5 209.5H738.5V380ZM626.5 379.5H542.5V209H626.5V379.5ZM554.5 368H614.5V220.5H554.5V368ZM666.5 368H727V221H666.5V368ZM740 180.5H655.5V121.5H740V180.5ZM627 180H542.5V121.5H627V180ZM668 169.5H727.5V133.5H668V169.5ZM554.5 168H614.5V133.5H554.5V168Z" fill="#51FF00"/>
</svg>
