<svg width="1280" height="720" viewBox="0 0 1280 720" fill="none" xmlns="http://www.w3.org/2000/svg">
<path d="M628 89.5L750.5 91H767L764 658L512 659.5L513 88.5L628 89.5ZM653.5 600.5H737.5V430.5H654.5L653.5 600.5ZM541.5 600H626L625 430.5H542L541.5 600ZM614 588H553.5V442H614V588ZM725.5 588H666V442H725.5V588ZM529 391C521.82 391 516 396.82 516 404C516 411.18 521.82 417 529 417C534.015 417 538.365 414.16 540.533 410.001L549.5 410.5L558.5 410L561 408.5L562 406L562.5 400.5L558.5 402L558 404H555L547 403.5L542 402.5L541.942 402.785C541.33 396.175 535.77 391 529 391ZM654.5 380H738.5V209.5H655.5L654.5 380ZM542.5 379.5H626.5V209H542.5V379.5ZM614.5 368H554.5V220.5H614.5V368ZM727 368H666.5V221H727V368ZM655.5 180.5H740V121.5H655.5V180.5ZM542.5 180H627V121.5H542.5V180ZM727.5 169.5H668V133.5H727.5V169.5ZM614.5 168H554.5V133.5H614.5V168Z" fill="#3300FF"/>
</svg>
