<svg width="1280" height="720" viewBox="0 0 1280 720" fill="none" xmlns="http://www.w3.org/2000/svg">
<path d="M808 372H810.5L811.5 372.5L812 373.5L828 373L830.5 372.5H832L832.5 373.5L833 374L834 373.5L835.5 372.5L837 373L838 373.5L845 373L847 373.5L848.5 374V375H919L972.5 378V481.5L944 482V485.5L948 533H921.5V541.5H913L910 538V533H703L697.5 574.5H688L687.5 572.5L687.26 541.5H680.5L680 524L680.5 375H693V376.5L693.877 375H740L742.5 374L752 373.5H759L761.5 374L767 373.5H789L790 374L794 373.5L795.5 371.5L796 371L799 370.5L803.5 371L805 372.5L806 371L807.5 370.5L808 372ZM948 386L948.5 387V467L949.5 467.5L951 468L953.5 470.5L954.5 472V386H948ZM933.5 386L934 386.5V462L941 464.5V386.5L941.5 386H933.5ZM919 385.5L919.5 386.5V457L926.5 459.5V386.5L927 385.5H919ZM718 385.5L717.5 454H724.5L724 385.5H718ZM732 386L731.5 454H739.5V386H732ZM876 386L876.5 386.5V454H883V386H876ZM890.5 386V454H895.5V386H890.5ZM705.5 385.5V453.702H710.5V385.5H705.5ZM746 453.5H753.5V446.5L752 439.5L750.5 430.5H749L746 401.5V453.5ZM864 386L864.5 386.5V453.5H868.5V386H864ZM851 386L852.5 393.5L853 398.5L854.5 408V386H851Z" fill="#FF00D9"/>
</svg>
