<svg width="1280" height="720" viewBox="0 0 1280 720" fill="none" xmlns="http://www.w3.org/2000/svg">
<path d="M53 707.5L31.5 720H0V700.5L67.5 665L53 707.5ZM141 655L65.5 700L89.5 653.5L114 640H138.5L141 655ZM1193.5 38.5V685H1193L1192 684.5H1190L1189 684L1180 678.5L1174.5 679L1174 678.5L1142 660L1140.5 633.5L1141 632L1142 631L1143 630.5L1177 649V678.5H1178V18L1187.5 12V18L1189 17.5L1190 19L1199.5 14L1221.5 0H1259.5L1193.5 38.5ZM1132.5 634L1135 656L1086 626H1120.5L1132.5 634ZM203.5 618.5L159 644.5L159.5 634.5L204 609L203.5 618.5ZM258 586L210.5 614.5L213.5 603.5L254.5 580L258 586ZM296 563.5L269.5 580L267 573L280 565.5L285.5 562.5L292 546.5L292.5 546L292 545.5L297.5 542.5L296 563.5ZM314 553L299.5 562L301 540.5L315 533L314 553ZM333.5 525L335 525.5H336L336.5 541.5H333.5L317.5 551L318 531.5L332 524L333.5 525ZM948.5 536.5L948 543.5L943.5 541.5H921.5V533H948L948.5 536.5ZM647 533.5V541.5H629V543H624.5V535.5L628.5 535H630L633.5 534.5L638 534L641.5 533L647 533.5ZM680.5 541.5L650 541V524H680L680.5 541.5ZM910 538L913 541.5L702 541L703 533H910V538ZM647 530.5H646V524H647V530.5Z" fill="#FFC054"/>
</svg>
