<svg width="1280" height="720" viewBox="0 0 1280 720" fill="none" xmlns="http://www.w3.org/2000/svg">
<path d="M250 430.5L251 431.5L292 545.5L292.5 546L292 546.5L286 561.5L285.5 562.5L284.5 563L283.5 563.5L150.5 639.5L148.5 640H43.5L42 639.669V457.5L45.5 456.5V466L42.5 466.5V511H72L74 510.5V510H80L83 509.686V458L83.5 457L84 456H103L105.5 456.5L106 457L106.5 458L119 491.5L141 486V442.5L141.5 442L143 441H183.5L184.5 442L197.5 477.5L220.5 471.5V469L222 467V465L221.5 464.5H213.5V463V461.5H212.5L213 460.5V459L212 458.5H208V431L206.5 430.5H250Z" fill="#AE00FF"/>
</svg>
