<svg width="1280" height="720" viewBox="0 0 1280 720" fill="none" xmlns="http://www.w3.org/2000/svg">
<path d="M332.167 524H332V523.875L332.167 524ZM341 524H340.5L341 522L341.126 521.977L341 524ZM944 376.5L919 375H848.5V374L847 373.5L845 373L838 373.5L837 373L835.5 372.5L834 373.5L833 374L832.5 373.5L832 372.5H830.5L828 373L812 373.5L811.5 372.5L810.5 372H808L807.5 370.5L806 371L805 372.5L803.5 371L799 370.5L796 371L795.5 371.5L794 373.5L790 374L789 373.5H767L761.5 374L759 373.5H752.5L742.5 374L740 375H693.866L693 376.5V375H680.5L680 524H650V498L648.5 497L647 498V524H646V483.5L645.5 482.5L644.5 482L643 481.5L641 481L637.5 480.5L631.5 480H629L626.5 479L620 212.5L621 212H622L623 212.5L624.5 213L625 211.5L625.5 213H629.5L632.5 212L633.5 212.5H635V211L635.5 212.5L638 213L642 212.5L643 212L644 212.5H646L646.5 211.5L647 212.5H652.5L653.5 211.5L655 212L660.5 212.5L661.5 212H663.5L664.5 211H665L667 211.5V235.5H727.5V180L730.5 179L731.5 178.5L732 177L734 176V173H734.5L734 167.5V166.5H735.5L737 166L738 165.5L738.5 163.5H740L740.5 162.5L741 161.314V134L740.5 131L739.5 126.5H738.5L738 125L737 123V121.5L735.5 120H734L733 118.5V117.5L730.5 116.5L728.5 115.5L727.5 116.5L727 115.5L725.5 113.5L723.5 113L722 112.5L720.5 113.5L719.5 114L718.5 113.5L719 112L718 111L715 110H714L712.5 110.5L711.5 111.5L711 115.5L710.5 113.5L709.5 111V109.5L708.5 108.5L706.5 108H705L703.5 107.5L701.5 109.5V111L701 111.5L700.5 112.5L699.5 113.5L698.5 110.5V108.5L697.5 107L695.5 106.5H694L692.5 106L691 107L690 108.5L690.5 109L689.5 110.5L688.5 112.5L687.5 115V112L685.5 108L686 107L685.5 106L684 105L681.5 105.5L680 105L679 105.5L678 106.5L677.5 107.5L678 108.5L677.5 109L676 111.5L675.5 116L674.5 111.5L673.5 109L673 107.5V106.5L672 106L670.5 104.5L669 105H667L665.5 105.5L665 107L665.5 108L664.5 108.5L663.5 110.5L663 112.5L662.5 117.5L662 113L661.5 111L661 109.5L660 108V107L658.5 106.5L658 105H657L655.5 105.5L654.5 105L653 105.5L652 107.5L652.5 108.5L651 110L650 113V116L649 113L648.5 111L647.5 109.5V108L646 107L645.5 106H644.5L643.5 106.5H641.5L640 107L639.5 108V108.5L640 109L638.5 110.5L638 112L637.5 115.5L637 113L636.5 112L635.5 109.5H635L635.5 108.5L635 107.5L633 106L631 106.5L629.5 106L628.5 106.5L627.5 107.5L627 108.5L627.5 109.5L626.5 110.5L626 111.5L625.5 113L625 116.5L624.5 112L623 109L622.5 108.5L623 107.5L622.5 106.5L621.5 105.5L620.5 105L619 105.5L618 105H617L616 105.5L614.5 107L615 108V108.5L613 111.5L612.5 117.5L612 114L611 110L610 107.5V107L609.5 106L608 104.5H607.5V105H605L604.5 104.5L603.5 105L602 106V107.5L602.5 108L601 109.5L600.5 110.5L600 112.5L599.5 117L599 113.5L598 109.5L597 108V107H596.5V106L595.5 105.5V105L595 104.5L594 105H590.5L590 105.5L589.5 106.5L589 107V108L588 110L587 115L586.5 113L585.5 111L585 109.5V109L584.5 107.5L583 107L582.5 105.5L581.5 106.5H578.5L576.5 107V108.5L577 109H576.5L574.5 113L573.5 111.5L573 111L573.5 110L572.5 109L571.5 108.5L570.5 107.5L570 108H567.5L566.5 108.5L565.5 109.5V110.5L565 111V111.5L564 113L563.5 111.5L561.5 110.5L561 109.5H560.5L560 110.5H557L556 111.5V113L555 114.5L554.5 113.5H553.5L552.5 112.5L551.5 113.5H549.5L548.5 114L548 114.5L549 115.5L547.5 116.5H547V115.5H545.5V116.5H544L542.5 117L542 119H541.5V120H540L538.5 120.5V122.5L538 123.5L537.5 124L535.5 128L535 129.5H533V128.5L532 128H529L528 128.5L527.5 129.5H520V128.5L518 128L517 128.5V129.5H510L509.5 135H452V129.5H446.5L445.5 128.5L444 128H440.5V129.5H434L433 128.5L430.5 128H428V129.5H420.5L420 129L419 128.5L417.5 128H415V129.5H408L406 128.5L404.5 128H401V129.5H392.5V129L391.5 128.5L389.5 128H385V129.5H376L375 128.5L373.5 128H369V129.5H361L360 128.5L358.5 128H354V129.5H344.5V134.5H344V134H343V134.5H342V134L341.5 133.5L340.5 133L339 132.5L337 132L335 132.5L334 133L333.5 134L333 136L333.5 137.5L335 139L337.5 139.5L340 139L341 138L341.5 137H343V137.5H344V137H344.5L344 178L343.5 225L343 266.5V272L332 271.5V64H945L944 376.5ZM335.5 509L332 509.424V446.647L334 446.5L335.5 509ZM343 470.5L342 508L341.917 509.316L339 508.5L337.5 446.5L343 445.889V470.5ZM941 386.5V464.5L934 462V386.5L933.5 386H941.5L941 386.5ZM926.5 386.5V459.5L919.5 457V386.5L919 385.5H927L926.5 386.5ZM724.5 454H717.5L718 385.5H724L724.5 454ZM739.5 454H731.5L732 386H739.5V454ZM883 454H876.5V386.5L876 386H883V454ZM895.5 454H890.5V386H895.5V454ZM710.5 453.702H705.5V385.5H710.5V453.702ZM749 430.5H750.5L752 439.5L753.5 446.5V453.5H746V401.5L749 430.5ZM868.5 453.5H864.5V386.5L864 386H868.5V453.5ZM340 359L340.5 361.5L343 397.182V439.5L337 438.5L334.5 358.5H339L340 359ZM333.5 438.5L332 438.619V358.5H333L333.5 438.5ZM854.5 408L853 398.5L852.5 393.5L851 386H854.5V408ZM343 356.75L342.5 356L341.5 355.5L340 355H332V339.97L343 339.75V356.75ZM739.5 258.5H731.5V300H766L766.5 299.5V293H817.5V302.5H853V261H822V195.5H739.5V258.5ZM834.077 164L833.5 165V235.5H895V163.5L834.077 164ZM509.5 137L509 152.5V166H453V161L452.5 140.5L452 137H509.5ZM663.5 145L665.5 145.5L668 146H670L672.5 145.5L675 144.5L677 145.5L679 146H684.5L685 145.5L686 145L687.5 145.5L689 146.5H696.5L698.5 146L699 147L700.5 148L702.5 148.5H706.5L707 148L708 148.5L709 149.5L710.5 150L711.5 149.5L713 150H714L715 150.5L718.5 152L718 152.5L717.5 153.5H715L713.5 154L712.5 154.5V154L711 153.5H709.5L707.5 154L706.5 154.5V155.5L707 156L705 158L704.5 162.5L704 160.5H702V159.5L700.5 159L700 158L699 157.5H697.5V157L696 156.5L695.5 157V157.5H694.5L694 157V156L693 155H691V154.5L690 154H689.5L689 154.5L688.5 155.5H687.5V156H686.5L685.5 155L686 154.5V153.5L685 152.5H682.5L682 152H681L680.5 153H680L679 154V154.5L679.5 155L678 156.5V156L677.5 155L677 153.5H676.5V151.5L675 150.5H672.5V150H671V151H670L669 152.5L670 153L669 153.5L668.5 154.5L667.5 156L667 155L666.5 153.5L666 152.5L665.5 152V150.5L664 149L661.5 149.5L660.5 148.5L660 149L659.5 150H658.5L658 150.5L658.5 151.5H659L658 152.5L657 154L656.5 155.5L656 158L655.5 155L655 153.5L654 151.5V150.5L653.5 149L651.5 148.5H649V148H648L647.5 149H646.5V150.5L647 151H646.5L645.5 152L645 153L644.5 154.5L644 155.5L643.5 157.5L643 154.5L642 151.5L641 151V149.5L640.5 148.5L639 148H636.5L636 147.5L635 148L634 149V150.5L633 152L632.5 153L632 154.5L631 160V156L630.5 154.5L630 152.5L629.5 151.5L628.5 151L629 150V149.5L627 148.5V148L626.5 147.5H626V148.5H623.5L622 149L621.5 150L622 151L621 152L620 153.5L619 158.5L618 154L617.5 153L616.5 152L617 151L614.5 148.5L614 149.5H610.5L609.5 150.5V152L608.5 153L608 154.5L607.5 157L606.5 155L605.5 153.5L606 153V151.5L605 151L603.5 150L603 149.5L602.5 150.5H600.5L599.5 151L598.5 152V153L597 155.5V158L596.5 155.5L596 155V153.5L594 152.5L593.5 151.5L593 152V152.5H592L589.5 153L589 154V155L588.5 155.5L587.5 155H586L585 153.5L584.5 154.5H582.5L581 156V157L580.5 157.5L579.5 157L579 156.5H578V157.5H576.5L576 157L575 158V159H574V160H572L570.5 161V160L570 158L569 156V154.5L568 154L565 153L564 153.5L563 154.5L562 153L560.5 151.5L561 150.5V150L562.5 150.5L564.5 150L566 149.5L567 148.5L568 148L569 148.5L569.5 148L571 148.5H572.5L574 148L576 147L576.5 146.5H578.5L581.5 147.5L583.5 146.5H586L587.5 145L589.5 145.5L590.5 146H593.5L594.5 146.5L597 145.5L597.5 146L598.5 145H600L603 145.5L604.5 146H607L608 145.5H610L612 145V144.5L614.5 145.5L617.5 146.5H621L623 145.5L624.5 145L626 146L628.5 146.5H632.5L634.5 145.5L635.5 146.5L637 145.5L638 146L639.5 147L640.5 146.5H644L645 146L646.5 146.5H648L651 145L652 146L653.5 146.5H656.5L657.5 146H658.5L661.5 145L663 144L663.5 145Z" fill="#FF0000"/>
</svg>
