<svg width="1280" height="720" viewBox="0 0 1280 720" fill="none" xmlns="http://www.w3.org/2000/svg">
<path d="M343 272L347.5 272.5L354 273.5L357.5 274L360 274.5L361.5 275L362.5 276L363 277.5L362.5 279L367 336L368 336.5V339.5H355.5L330.5 340L330 353L331.5 353.5V355H340L341.5 355.5L342.5 356L343.5 357.5L350 440L353 441V445L350 445.5L355 513L359 514.5V519.5H357.5L355.5 520L359 570.5L358 573L357 575H356.5L356 574.5V570.5L352 520L341 522L340.5 524L340 529.5L339.5 534.5L341 576L340.5 576.5L339.5 577L338.5 576.5L338 575.5L336 525.5H335L333.5 525L331.5 523.5L318.5 525.5L316 594L315 594.5H314L313 594L315 526H314.5L302.5 522L297.5 585L296 585.5L294.5 585L299 520.5L296.5 519.5L296 518.5V514.5L300 513.5L304.5 445.5L302 444.5V441L303 440.5L305 440L306.5 420L308 400.5L310 375.5L311 358.5L312 356.5L313 355.5L315 355H322L323 353L323.5 352.5H324.5L325 339.5H324.5L291 339L286 338.5L292 276H291.5L292 273.5L292.5 273L295 272.5L299.5 272L308 271.5H332L343 272ZM303 513.5L315 512L317 448L308 446L303 513.5ZM337.5 446.5L339 508.5L351.5 512L346.5 445.5L337.5 446.5ZM320.5 447.5L319 511L335.5 509L334 446.5L320.5 447.5ZM315 358.5L314 359.5L308.5 440.5L317.5 440L320 358.5H315ZM334.5 358.5L337 438.5L346 440L340.5 361.5L340 359L339 358.5H334.5ZM331.5 358.5V362.5L328 362H324L323 363L321 439.5L333.5 438.5L333 358.5H331.5Z" fill="#FF007B"/>
</svg>
