<svg width="1280" height="720" viewBox="0 0 1280 720" fill="none" xmlns="http://www.w3.org/2000/svg">
<path d="M332 64V271.259L322.5 271L304.285 271.259L299.5 271.5L295 272L292.5 272.5L291.5 273L291 276.5H291.5L286 338.5L291 339L324 339.5L324.997 339.559L324.5 352.5H323.5L323 353L322 355H315L313 355.5L312 356.5L311 358.5L310 375.5L308 400.5L306.5 420L305 440L303 440.5L302 441V444.5L304.5 445.5L300 513.5L296 514.5V518.5L296.5 519.5L299 520.5L297.46 542.564L292 545.5L251 431.5L250 430.5H203L77.5 451.5L66.5 452V453.5H64L45.5 456.5L42 457.5V639.789L43.5 640H76.5L67.5 665L0 700.5V0H265.5L332 64ZM114 640L89.5 653.5L96.5 640H114ZM314.5 526H315L314.786 533.252L301.02 540.651L302.5 522L314.5 526ZM332 523.875V524L318.285 531.371L318.5 525.5L331.5 523.5L332 523.875ZM317 448L315 512L303 513.5L308 446L317 448ZM332.039 509.419L319 511L320.5 447.5L332.21 446.632L332.039 509.419ZM317.5 440L308.5 440.5L314 359.5L315 358.5H320L317.5 440ZM332.231 438.601L321 439.5L323 363L324 362H328L331.5 362.5V358.5H332.45L332.231 438.601ZM332.5 340L332.459 355H331.5V353.5L330 353L330.5 340L331.992 339.97L332.5 340Z" fill="black"/>
</svg>
