<svg width="1280" height="720" viewBox="0 0 1280 720" fill="none" xmlns="http://www.w3.org/2000/svg">
<path d="M502 402.5H494.5L492 403L485.5 402.5L477 403L471.5 402.5L465.5 403.5L462 403H456L439 402.5L433.5 402L430.5 401L427 400L424.5 399.5L423.5 400V401L424 402L424.5 403L425 404L425.5 406L426.5 410.5L427.5 416.5L428 421.5V425.5L428.5 429L429 435.5V439.5L428 444.5V447L428.5 449L428 451V455.5V460L428.5 469.5V478.5V483.5L432.5 483L438 482L442.5 481.5L456.5 480L462.5 479.5L476 479L496 478L513.5 478.5H518L519 478L519.5 477L519 476L518.5 475.5L517 474.5L516 473L515.5 471.5V470L516 467.5L515 465.5L514.5 464L515 461.5L515.5 457L514.5 452.5L513.5 451.5L513 450L513.5 448.5L514 446.5L513.5 443.5L513 442V431.5V420L514 413L514.5 409.5L515.5 406L516.5 404L517 402L516.5 400.5L515 400L514 400.5L511.5 401.5L509 402L502 402.5Z" fill="#00FFDD"/>
</svg>
