<svg width="1280" height="720" viewBox="0 0 1280 720" fill="none" xmlns="http://www.w3.org/2000/svg">
<path d="M1199.5 14L1190 19L1189 17.5977L1187.5 18V12L1178 18V678.5H1177V649L1143 630.5C1141.67 613.333 1139 578.9 1139 578.5C1139 578.1 1139.33 576.333 1139.5 575.5L1147.5 521.5V517.5L1085.5 497.5L1087 496.5L1087.5 495.5L1089.5 496.5L1090.5 495L1091 493.5L1092 494L1093 493.5L1093.5 492.5L1094 490.5V487L1093.5 484L1093 482L1093.5 480.5V473L1093 471.5L1092.5 470.5L1091 468L1089.5 466L1088 465L1090.5 462.5L1091.5 460.5L1092 459L1092.5 455.5L1092 452.5L1091.5 450.5L1090 448L1088.5 447L1086 445.5L1084 445L1082.5 444.5L1080.5 444H1075.5L1072.5 445L1070 446.5L1067.5 449L1067 450.5V452.5L1066 453L1064.5 454L1064 456L1064.5 457.5L1065 458.5L1066 459.5L1070 461.5L1072 463.5L1065.5 470L1064 472L1063 474L1063.5 475L1064.5 476H1065.5L1066.5 475.5L1065.5 483.5V485L1066 488H1065L1063 488.5L1062 489L1060.5 490.5L1033 481.5H972.5V378L944 376.5L945 64L1011 0H1221.5L1199.5 14ZM954.5 386V472L953.5 470.5L951 468L949.5 467.5L948.5 467V387L948 386H954.5ZM1051 137V152.5H1050L1049.5 152L1048.5 152.5L1047 153.5L1044.5 155L1043 157L1042 159.5V162.5L1042.21 163.198L1041.5 164L1041 165.5L1041.5 167L1042.21 168L1043 169L1043.5 169.5L1042.21 170H989L987 171.126V199L978.5 203L978 204V207.5L978.5 208H987V266L978.306 268.5V273.301H987V333L979 333.5L978 334V338.5L987 338.37V362L987.5 362.5H1047.5L1048 337.5H1051L1050.5 362.711L1051.5 363.289H1122L1122.5 363V333.5L1133.5 332.5L1141 332V326L1122.5 325.669V252L1140.83 248V241.696H1122.5V171L1133 166.5L1140 164L1141 163V158L1140 157.5L1122.5 157V135H1053.5L1051 137ZM1042.5 359.5H992V338.5H1026L1042.5 338V359.5ZM1116 359.5H1057V336.5L1073.5 336L1116 333.5V359.5ZM1042.5 302.5L1041.5 302L1040 303L1040.5 304H1041.5L1043 308.5V310L1041.5 310.5L1040.5 312L1039.5 314H1037L1034 314.5L1032.5 316L1031 317L1029.5 319L1028.5 318H1026.5L1025 318.5V320L1025.5 322L1026.5 323.5L1027 324.5L1027.5 326L1028 328L1027.5 329.5L992 332.5V273.5H1042.5V302.5ZM1116 326L1081 325.5L1075 326L1076.5 325L1077 323.5V322L1078.5 321L1079.5 319.5L1080.5 317L1081 314V309L1080.5 306.5L1080 304.5L1077 300.5L1076 299.5H1075V297L1076 294.5L1076.5 293.5L1077 291V288.5L1076.5 286L1075.5 284.5V283.5L1074 282.5V280.5L1073.5 279L1072.5 277.5L1071.5 276.5L1069.5 277L1068 277.5L1067.5 278L1064.5 278.5L1064 279L1062 278.5L1059.5 279L1058.5 279.5L1057 281.5L1056.5 267L1095 258H1116.5L1116 326ZM1051 302.5H1050V300.5L1049 299.5H1047.5V269L1050.5 268L1051 302.5ZM1042.5 221.5L1035 222L1034 223L1033.5 225V238.5H1032L1031.5 239.5V240.5H1030L1022 243V256.5L992 264.5V208H1028L1032.5 206H1042.5V221.5ZM1116.5 241.5H1076.5L1057 247L1056.5 197L1104.26 177.5H1116.5V241.5ZM1051 220.5L1047.5 221V200.5L1051 199V220.5ZM1034 175.5V177L1031.5 178L992 196.5V174H1035.5L1034 175.5ZM1116.5 157.5H1080L1079 156L1078.5 155H1078L1080.5 152.5L1082 149.5L1082.5 147V143L1081 140H1116L1116.5 157.5ZM1066.5 141.5L1065 146L1062.5 146.5L1060.5 147L1059.5 147.5L1058 148.5L1056.5 150V140H1068L1066.5 141.5Z" fill="#000DFF"/>
</svg>
