<svg width="1280" height="720" viewBox="0 0 1280 720" fill="none" xmlns="http://www.w3.org/2000/svg">
<path d="M987 338.5H978V334L979 333.5L987 333V338.5ZM1051 337.5L1027.5 338.5H992V332.5L1016 330.5L1027.5 329.5L1051 327.5V337.5ZM1141 326V332L1122.5 333.5H1116L1074 336L1057 336.5L1056.5 327.5L1080 325.5H1122.5L1141 326ZM987 273.285H978.318V268.5L987 266V273.285ZM1051 268L1047.5 269L1044.5 269.5H992V264.5L1051 248.5V268ZM1056.5 267V258H1095L1056.5 267ZM1141 248L1138.5 248.5L1122.5 252L1118.5 253H1057V247L1076.5 241.5H1141V248ZM987 208H978.5L978 207.5V204L978.5 203L987 199V208ZM1028 208H992V206H1032.5L1028 208ZM1051 199L1047.5 200.5L1044.5 201.5H992V196.5L1034 177L1051 169V199ZM1056.5 197V177.5H1104L1056.5 197ZM1140 157.5L1141 158V163L1140 164L1133 166.5L1118.5 172.5H1056.5V166.5L1076 157.5L1123 157L1140 157.5Z" fill="#00E1FF"/>
</svg>
