<svg width="1280" height="720" viewBox="0 0 1280 720" fill="none" xmlns="http://www.w3.org/2000/svg">
<path d="M503 374.5L508 375.5L510.5 376.5L513.5 378L515.5 379.5L517 381.5L518.5 385L520 390L522 398L525 410.5L527.5 420.5L530 432L530.5 434.5V435L530 436L529.5 436.5L526.5 438L530.5 437.5L535 437H537L552 436.5L553.5 436L555.5 436.5L558 437L561 437.5L562.5 438.5L563.5 439L565 440L567 442L568 443.5L569 445.5L570 448.5L570.5 451.5L571 462L571.5 553.5L570.5 555V555.5L571 557L570.5 558L568.5 559L567 559.5L564.5 560L558.5 561L540 564L499 570V568L498.5 567.5L498 565.5L497.5 564.5L497 564L496 562.5V561L495.5 559.5L494.5 558.5L494 557L493 556.5V555L492 553.5L491 553V551.5L490 550.5H489L488.5 549.5L487.5 548L486.5 547L485.5 545.5L484 544.5L482.5 543L480.5 542L479 541L477 540L474.5 539L472.5 538L468 536.5L465 536L460.5 535L456.5 534.5L450 534L443 533.5H439L428 534L421.5 534.5L417 535L412 535.5L406.5 536.5L401.5 537.5L395.5 539L390 541L387 542L383 544L379 546.5L377.5 547.5L374 549.5L369 543L367 540L366.5 537.5V477L367 464.5L368 461L369 458L371 454.5L374 450.5L375.5 449L377 448L378.5 447.5L378 446L377.5 426.28V392.5L378 389.5L378.5 387.5L380.5 381.5L381.5 380L382.5 379L384 378L385 377.5L387.5 376.5L392.5 375.5L402 374.5L411.5 374H422.5L448.5 373.5H495L503 374.5ZM423.5 400V401L425 404L425.5 406L426.5 410.5L427.5 416.5L428 421.5V425.5L428.5 429L429 435.5V439.5L428 444.5V447L428.5 449L428 451V460L428.5 469.5V483.5L432.5 483L438 482L442.5 481.5L456.5 480L462.5 479.5L476 479L496 478L513.5 478.5H518L519 478L519.5 477L519 476L518.5 475.5L517 474.5L516 473L515.5 471.5V470L516 467.5L515 465.5L514.5 464L515 461.5L515.5 457L514.5 452.5L513.5 451.5L513 450L513.5 448.5L514 446.5L513.5 443.5L513 442V420L514.5 409.5L515.5 406L516.5 404L517 402L516.5 400.5L515 400L514 400.5L511.5 401.5L509 402L502 402.5H494.5L492 403L485.5 402.5L477 403L471.5 402.5L465.5 403.5L462 403H456L439 402.5L433.5 402L430.5 401L427 400L424.5 399.5L423.5 400Z" fill="#00A2FF"/>
</svg>
