<svg width="1280" height="720" viewBox="0 0 1280 720" fill="none" xmlns="http://www.w3.org/2000/svg">
<path d="M1147.5 521.5V517.5L1119.5 508.5L1105.5 504L1098 501.5L1088.5 498.5L1085.5 497.5V498L1084.5 498.5L1083.5 499L1081 499.5L1078.5 499L1075.5 498.5L1074 498L1073 497.5L1072.5 497L1072 496L1072.5 495H1072L1071.5 495.5H1068.5H1065L1063.5 495L1061.5 494L1060.5 493.5L1060 492.5V491.5L1060.5 490.5L1033.1 481.5H972.5L944 482V485.5L951.5 572L1021.5 620H1025.5L1024 603L1027.5 576H1033L1035.5 620H1128L1131 619.5L1129 603.5L1133.5 576H1139V578.5L1147.5 521.5Z" fill="#E6FF00"/>
</svg>
