<svg width="1280" height="720" viewBox="0 0 1280 720" fill="none" xmlns="http://www.w3.org/2000/svg">
<path d="M646 530.242V483.5L645.5 482.5L644.5 482L643 481.5L641 481L637.5 480.5L631.5 480H629V483L634 483.5L638.5 484L642 485L634.5 486L621 486.5L611 486L604 485L610.5 483.5L617 483V482.5V480H612L608 480.5L605 481L603 481.5L601 482L600 482.5L599 483.5V530L599.5 531L600.5 532L601.5 532.5L603 533L604.5 533.5L606.5 534L609.5 534.5L614 535L620.5 535.235V502.5L622 501.5L623.5 502L624 535.5L629 535L638 534L641.5 533L644 532L645.5 531L646 530.242Z" fill="#FFA200"/>
</svg>
