<?xml version="1.0" encoding="UTF-8"?>
<svg id="Layer_1" xmlns="http://www.w3.org/2000/svg" version="1.1" viewBox="0 0 1280 720">
  <!-- Generator: Adobe Illustrator 30.0.0, SVG Export Plug-In . SVG Version: 2.1.1 Build 123)  -->
  <defs>
    <style>
      .st0 {
        fill: #efd82e;
      }
    </style>
  </defs>
  <path class="st0" d="M205.07,204.69l12.74-.59-.2,71.46-12.94-2.59.4-68.28ZM1139.82-9.18v315.69l-62.04,6.43-59.28.92-4.14,11.95-42.74.46-2.3-4.6v-7.35l-255.96,1.38v-7.35l-183.35,1.84-1.84,17.92-43.2-.46-5.97-17.92h-56.06l-138.32-2.3-49.17-6.89v-5.05l33.55,1.84,1.84-4.14-.92-5.97-34.46-7.81v-91.45s-10.11-5.06-17.92-.46l-12.87,1.84-.46-195.3,935.61-3.22ZM280.32,272.26v-53.85l-14.73-.16v4.43l9.82.48.48,44.66-10.61.16.48,4.12,14.56.16ZM324.06,278.59l-.32-45.93-9.03.79.16,3.64,4.91.16v40.23l-5.07.32.63,3.33,7.44-.16h.01s1.27-2.38,1.27-2.38ZM537.33,283.85v-34.74l1.77-1.23-.14-2.72-3.41-2.18-1.77,2.04.27,41.96,3.13,2.04,1.91-2.45-.54-1.77h0l-1.23-.95ZM693.25,244.95l-2.37-2.01-2.49,3.32.83,1.78v36.12l-1.3,2.25,2.72,2.37,2.25-1.54v-1.91l.36-40.38ZM817.54,243.95l-2.37-2.01-2.49,3.32.83,1.78v36.12l-1.3,2.25,2.72,2.37,2.25-1.54v-1.91l.36-40.38ZM844.9,243.95l-2.37-2.01-2.49,3.32.83,1.78v36.12l-1.3,2.25,2.72,2.37,2.25-1.54v-1.91l.36-40.38ZM969.43,243.71l-2.37-2.01-2.49,3.32.83,1.78v36.12l-1.3,2.25,2.72,2.37,2.25-1.54v-1.91l.36-40.38Z"/>
</svg>