<?xml version="1.0" encoding="UTF-8"?>
<svg id="Layer_1" xmlns="http://www.w3.org/2000/svg" version="1.1" viewBox="0 0 1280 720">
  <!-- Generator: Adobe Illustrator 30.0.0, SVG Export Plug-In . SVG Version: 2.1.1 Build 123)  -->
  <defs>
    <style>
      .st0 {
        fill: #ed2fb3;
      }
    </style>
  </defs>
  <path class="st0" d="M970.48,725.29l-.02-.02-.59-4.13h9.44l-1.18-248.41-577.38,1.56-18.74,8.1-3.24,4.4-.23,14.34,1.62,1.16v8.33l1.39,1.85v3.47l-2.31,2.08-.46,32.39,8.1.46,3.7-1.62.46-40.25h-9.02l-.23-5.09,12.03-.23,1.62,1.62v45.58l-.23,4.16-15.96,13.88.59,90.28,3.54,15.93v5.9l-4.13,1.77v83.79l-22.42,31.86,5.31-1.18,24.19-35.4,575.3,1.18,3.54-4.72,4.13,5.31,77.89-4.13.59-35.99-77.3,1.77ZM525.17,546.82h-3.33v-50.39h3.33v50.39ZM648.75,678.82h-48.35v-2.78h.05v-4.18h2.93v3.18h33.43l8-4.18h3.93v5.18h.01v2.78ZM648.75,633.12h-48.35v-2.78h.05v-2.18h3.93v2.18h40.43v-2.18h3.93v2.18h.01v2.78ZM648.75,588.42h-48.35v-2.78h.05v-2.18h3.93v2.18h40.43v-2.18h3.93v2.18h.01v2.78ZM648.75,543.28h-48.35v-2.78h.05v-2.18h3.93v2.18h40.43v-2.18h3.93v2.18h.01v2.78ZM648.75,498.58h-48.35v-2.78h.05v-2.18h3.93v2.18h40.43v-2.18h3.93v2.18h.01v2.78ZM834.79,544.82h-3.33v-50.39h3.33v50.39ZM864.65,544.82h-3.33v-50.39h3.33v50.39ZM204.65,608.07l-.4-43.85,12.87-5.63.4,50.68-12.87-1.2ZM270.45,542.59l5.93.68-.34,28.65-18.65-.68c-3.05.51-2.71,6.44-2.71,6.44l7.63.17-23.05,13.9-3.64.63-.4-42.23h-.01s36.93-17.73,36.93-17.73l1.19,8.31-2.88,1.86ZM240.62,598.36l35.6-21.53v31.19l-.17,35.43-20.51-.68s-2.54,5.09-.51,6.27h8.48l-27.12,21.19-.17-13.22-5.76-2.88-24.75-2.54-.51-8.64-3.9-2.37-6.27.17,9.15-9.49.34-6.1s7.8-.51,12.54,1.02c0,0-1.02,4.24,9.32,3.73,0,0,8.64-1.36,8.98-5.59v-25.45s5.26-.51,5.26-.51ZM205.36,668.7l13.22,2.03-.67,52.21-12.72-.85.17-53.39ZM275.88,647l.17,76.62-39.84-1.36v-45.59l3.39-.68,36.28-28.99Z"/>
</svg>