<?xml version="1.0" encoding="UTF-8"?>
<svg id="Layer_2" xmlns="http://www.w3.org/2000/svg" version="1.1" viewBox="0 0 1280 720">
  <!-- Generator: Adobe Illustrator 30.0.0, SVG Export Plug-In . SVG Version: 2.1.1 Build 123)  -->
  <defs>
    <style>
      .st0 {
        fill: #2f9aea;
      }
    </style>
  </defs>
  <path class="st0" d="M1188.6,561.29l98.89.53-2.63-362.43-108.36,2.1-4.73-2.63-1.05-19.99,5.26-3.68-3.68-1.05-1.05-178.85-31.43-4.47v315.7l-62.04,6.43-59.28.92-4.14,11.95-42.74.46-2.3-4.6v-7.35l-255.96,1.38v-7.35l-183.35,1.84-1.84,17.92-43.2-.46-5.97-17.92-194.38-2.3-49.17-6.89.44,151.85,52.01-11.71,1.51-3.18,8.53-1.34s1.17-12.21,13.38-10.87l5.35,2.17,7.36-.84s-3.68-4.85,1.17-12.37c0,0,11.37-7.69,16.05,4.35l3.85.5s5.02-6.52,12.38-6.19c7.36.33,8.03,9.03,8.03,9.03l-1,4.01s9.7-5.18,14.72,6.69c0,0,7.53-.67,9.7,2.01,2.17,2.68-7.53,6.19-7.53,6.19l187.3-.67.17-40.8,3.18-5.35v-12.71l7.36-.17.5,13.55,2.51,2.51-.17-11.54,3.68-2.01-.17-5.85-.17-10.37h9.03l.33,16.56,3.18,1.51,5.02-8.7-.33-24.58,1.67-.84-.17-5.02,5.02-.17.17,5.18,1.34,1.34v23.08l5.18,10.2.17,54.52,211.21-1.51-.33-12.38h-4.35v3.34l-6.69-.33,1.17-64.72-25.75,3.51-1.34.33.17,6.19-7.19.17v-6.19s-3.51-.84-1-5.69l2.17-1,39.13-4.18s4.52,2.51.33,6.52l-.67,56.19,3.51-.17.67-8.7-.17-12.71s3.34-1.17,7.53-1,7.36,1.84,7.36,1.84l13.21,1.34.17,2.68-2.34,1-11.2-.5.5,26.59s3.68,3.18,1.67,7.19l243.82.33,110.3,18.46.53,13.15-8.42,1.58-1.58,89.42ZM656.27,384.54l-1.05,34.47s-.52,9.45-3.67,9.1-2.8,0-3.5-10.32c-.7-10.32,1.57-18.37,1.57-23.62s-6.47-4.55-6.47-4.55l1.22-15.22,4.55-30.62c4.9-.35,7.87,5.6,7.87,5.6l.17,20.29s4.37,1.4,4.9,7.35c.52,5.95-5.6,7.52-5.6,7.52ZM683.22,385.06v9.45l-1.57,4.37.7,13.65s1.22,12.6-2.27,17.84c-3.5,5.25-6.47-2.45-6.47-5.25s-.7-15.57,1.05-20.64c1.75-5.07-.87-8.92-.87-8.92l-.17-3.32-2.8-.35.52-7.7s-3.67-5.07-2.1-11.37c0,0,1.75-4.02,6.3-5.6,0,0,4.37-22.57,10.15-27.29l-.87,30.44s5.95,7.87-1.57,14.7ZM205.26,294.59l12.27.71-.29,161.02-12.55,2.85.57-164.59Z"/>
</svg>