<svg width="1280" height="720" viewBox="0 0 1280 720" fill="none" xmlns="http://www.w3.org/2000/svg">
<path d="M706.5 378V459.5L699.5 460.5V378H706.5ZM687 378L685.5 460L683.5 459.5V378H687ZM679.5 459L672 458V378.174L680 378L679.5 459ZM695.5 378V459H693L690.5 458.5L691.5 378H695.5ZM726.5 378V457H724.5L716 458.5V378H726.5ZM663.835 378.174L664 457H662L660 456.5L657.5 455.5L654 454.5L652 454V378.174H663.835ZM743 378V456H731.812V378H743ZM647 378.174V453.5L643.5 452.5L639.5 451.5H636L635.792 378.174H647ZM627.5 378.174L628 451.5H625.5L622.5 452L621 452.5L619 452L619.782 378.174H627.5ZM615.5 378.174V450.747L612.5 449.5V378.174H615.5ZM607.403 378.174V449.317H603.235L603.663 378.174H607.403ZM600 378.174V446.5L592.5 443.5L592.743 378.174H600ZM567.828 378.174L568 436H566L564.5 437L562 439L561 439.5H559.5L557.5 440.5L556 442L555.804 378.174H567.828ZM504 378V436L502 436.5L498.5 438L493.5 441.5L494 378H504ZM583.674 378.174L583.5 440L581.5 439.5L579 438.5L576.5 438H573V378.174H583.674ZM569.5 48L570 47L940.5 353L939.5 354V355L940 356.5L941.5 358.5L939 359.5L937 361L935 363L933.5 365.5V368.5L934 371.5L935 373L938.5 376.5L936 377L932 378L925 379L922.5 380L920 381.5L917.5 383.5L916 385.5L915 388L914.5 390.5V393L914 395.5L913 397.5V399L914 401L915.5 401.5L916.5 401L917.5 400L918 399L919 398H919.5L920 401V403.5L921 406.5L922.5 408L924.5 409.5L927.5 411V416L929 416.5V418.5L928.5 421L923.5 430L922.5 429H921.5L921 430L920.5 432L915.5 430L909 428.5H905L901 426L899 423L895.5 423.5L894 424.5L893 425.5L892 426L891.5 425L890.5 423.5L887 423L877 420L871.5 419L867.5 418.5L865.5 419L865 420L866 426L863.5 427.5L859.5 428.5L856 429.5L849.5 432L847 433L843.5 432.5L838.5 432L835 432.5L831.5 433.5L826.5 436L822.5 437L818 439.5L816 439L815 438L813.5 436L809 435L800.5 433L794 432.5H787L787.5 373V372.5L790.5 371H791.5L792.5 371.5L794 372H795L796 371.5L797.5 370L798 368L797.5 366L797 365L796 364L795 363.5H793L792 364H789.5L788.5 363.5L787.5 362.5V338.5L787 335.5L786 334L784.5 333.5H778L755 336L753.5 336.5L752.5 337.5L752 339L752.5 362L611 362.5L608.5 354L607 347L606 341L605.5 334V329L604.5 326L603 314L601 297L599 282.5L597.5 269L595.5 252L594 241.5L591.5 226L589.5 214.5L587.5 203.5L586 197.5L585.5 194.5L584.5 192.5L585 190L584.5 189.5L585 188L586.5 187L587.5 186L588.5 184.5H590.5L593.5 182V179.5L592 178.5L590.5 178L587.5 178.5L587 179.5L584.5 179L584 183H581.5L580.5 180L579.5 179L572.5 178.5H568.5L566.5 179.5L566 184.5L565 182.5L563.5 181L562 180H561L560 180.5L559.5 181V183.5H559L558.5 181L558 180.5L556.5 181L555.5 180.5H554L553.5 180L554 178.5H552L550.5 180L549.5 181.5L549 180.5V178L548 177.5L547 178L546 179L545.5 180.5L544.5 179.5H544L543.5 180L543 181.5V183.5L542.5 185L541.5 184.5L541 183.5H540V182.5L539.5 182L538.5 182.5L537 184V185L537.5 186V190.5L537 187.5C536.667 187.167 535.9 186.5 535.5 186.5C535.1 186.5 534 186.167 533.5 186L531 186.5L532.5 184L531 183H530L529 184.5L528.5 185.5L528 184.5L527 184H525L523.5 184.5V183L520.5 181.5H517.5L516 182.5L514.5 185V183.5L514 183L512 182L510 180.5L508.5 179H507L504.5 181H503.5L502.5 182L503 184L502 186L499 185.5L498 184.5L496 185L494.5 187.5H493L490 189.5L488 188L485 185.5L488.5 190.5L487.5 192.5L487 194.5L483 196L480.5 197L481.5 200.5L483.5 203.5V205H485.5L488 205.5L490.5 204.5L486 212L483.5 216L481 220.5L479 224.5L477 228L472.5 237L471 239.5L469.5 243L470.5 47.5H471L472 47L472.5 46.5L569.5 48ZM942.5 420V422L941 424L940 427L939 429.5L938 431.5L939 433L942 434L945.5 436H947.5L948 434L946.5 431.5V421L960 424V436L957.5 435H954L950 436L945.5 437.5H941L939 436L937.5 435L934 434.5L936 433V429.5L935 427.5V424L933.5 421V417.5L942.5 420ZM548 378L547.5 437L545.5 436L543 435.5L541 434.5H539.5V378H548ZM535.825 378.174L535.5 433L533 432L533.5 378.174H535.825ZM528 431L525 430L524 429.5V378.174L528.5 378L528 431ZM520 378.174V429H513.5L514 378L520 378.174ZM811.5 358L810.5 360L809.5 364.5V367.5L810 369L810.5 371.5H813.5L814.5 370L815 368L815.5 364.5V361L815 358.5L814.5 357.5L813.5 357H812.5L811.5 358ZM479.5 336.5L481.5 337L482.5 337.5L483.5 339.5V340L482.5 337.5L479.5 336.5L436 333.5H439.5L479.5 336.5ZM817 315.5L816.5 316L816 317.5L815.5 320L813 318.5V323H811V326.5H813V331.5L815.5 329.5L816 332L816.5 333.5L817.5 334.5H862L863 333L864 331L864.5 328.5L865 323.5L864.5 320L864 317.5L863 316L861.5 315H818L817 315.5ZM645 205L646 301.5L720 301L719 204.5L645 205Z" fill="black"/>
</svg>
