<svg width="1280" height="720" viewBox="0 0 1280 720" fill="none" xmlns="http://www.w3.org/2000/svg">
<path d="M786 334L787 335.5L787.5 338.5V362.5L788.5 363.5L789.5 364H792L793 363.5H795L796 364L797 365L797.5 366L798 368L797.5 370L796 371.5L795 372H794L792.5 371.5L791.5 371H790.5L787.5 372.5V373L787 432.5V621H780L779.5 620.5L776 613.366V564.5L772 558H761V570H755L753 565V558L693.5 557.5V565L695 568.5V569.5H693.5L691.5 564L691 557.5H674.5V560H675L674.5 561L673.5 562H672.5L672 561L672.5 557.5H626L622.5 561L621 559.5L622 558.5L622.5 557.5L483 557V564L479 568.5L473 569V557H468V565.5L468.5 566V571.5L490.5 565.5H513L534.5 572L532 579.5L502.5 588L477.5 589L457 581.5L456.5 581V580L461.5 573H464V566.5L464.5 566V557L448 556.5L446.5 421L463.5 414.5L464.5 414L465 412.5L464.5 410.5L464 409.5L463 408.5L461.5 407.5L459.5 407L433.5 407.5L433 394L433.5 337L434 335.5L435 334L436 333.5L479.5 336.5L482.5 337.5L483.5 340V362L611 362.5L752.5 362L752 339L752.5 337.5L753.5 336.5L755 336L778 333.5H784.5L786 334ZM699.5 378V460.5L706.5 459.5V378H699.5ZM683.5 378V459.5L685.5 460L687 378H683.5ZM672 378.174V458L679.5 459L680 378L672 378.174ZM691.5 378L690.5 458.5L693 459H695.5V378H691.5ZM716 378V458.5L724.5 457H726.5V378H716ZM652 378.174V454L654 454.5L657.5 455.5L660 456.5L662 457H664L663.835 378.174H652ZM731.812 378V456H743V378H731.812ZM635.792 378.174L636 451.5H639.5L643.5 452.5L647 453.5V378.174H635.792ZM619.782 378.174L619 452L621 452.5L622.5 452L625.5 451.5H628L627.5 378.174H619.782ZM612.5 378.174V449.5L615.5 450.747V378.174H612.5ZM603.663 378.174L603.235 449.317H607.403V378.174H603.663ZM592.743 378.174L592.5 443.5L600 446.5V378.174H592.743ZM555.804 378.174L556 442L557.5 440.5L559.5 439.5H561L562 439L564.5 437L566 436H568L567.828 378.174H555.804ZM494 378L493.5 441.5L498.5 438L502 436.5L504 436V378H494ZM573 378.174V438H576.5L579 438.5L581.5 439.5L583.5 440L583.674 378.174H573ZM539.5 378V434.5H541L543 435.5L545.5 436L547.5 437L548 378H539.5ZM533.5 378.174L533 432L535.5 433L535.825 378.174H533.5ZM524 378.174V429.5L525 430L528 431L528.5 378L524 378.174ZM513.5 429H520V378.174L514 378L513.5 429Z" fill="#11FF00"/>
</svg>
