<svg width="1280" height="720" viewBox="0 0 1280 720" fill="none" xmlns="http://www.w3.org/2000/svg">
<path d="M380.5 409.5V403.5C380.1 401.1 371.333 400.833 367 401C352.6 399.8 347.333 390.833 346.5 386.5V386V384L346 383.742V275.5L347 274.5V272.5L346.5 271.5C346.5 260.3 347.833 255.167 348.5 254C364.1 255.6 368.333 253 368.5 251.5C367.7 244.3 363.833 235.833 362 232.5C379.6 232.5 388 230.5 390 229.5L391 228L390.5 227C389.833 226.333 386.8 223.7 380 218.5C373.2 213.3 362.833 210 358.5 209L360.5 208L362.5 206.5L364 206C385 206 408.5 204.5 408.5 197.5C408.5 191.9 385.167 186.167 373.5 184C375.5 183.464 376 181.777 376 181C376 176 349 171 332 171C318.4 171 308.667 173.333 305.5 174.5L304 176.5L304.5 178L305.5 179C293.5 178.5 269.5 179.4 269.5 187C269.5 194.6 301.5 200.167 317.5 202L321 204.5L323.5 207C312.5 207 289 216.5 289 222.5C289 227.3 309.667 229.833 320 230.5C317 235 313 246 313 249.5C313 252.3 327 253.333 334 253.5L334.5 256.5L335 259L335.5 265L336 271.5L335.5 272V274.5L336.5 275L337 384H336.5V386.5H337.5C336.7 398.5 318.5 402.833 309.5 403.5L303 404C301.4 404 300.667 405.667 300.5 406.5V412C300.5 414 318.167 414.833 327 415C354.6 415 373.5 411.667 379.5 410L380.5 409.5Z" fill="#FF6600"/>
</svg>
