<svg width="1280" height="720" viewBox="0 0 1280 720" fill="none" xmlns="http://www.w3.org/2000/svg">
<path d="M130.5 0V200L131 202L133 203L247.5 233H256.5L257.5 232.5L258 17L257.5 16L256.5 15L238.5 0H442.5L470.5 47.5L469.5 243L468.5 245.5L467.5 250L467 255L466.5 262.5L466 264.5V268.5L465.5 278L465 284L462 310.5V311L458 316L453 322L451.5 324.5L450.5 326L448.5 327.5L437 333.5H436L435 334L434 335.5L433.5 337V353.5L432.5 357.5L431.5 361L431 366.5V373L430.5 376.5L430 379.5V382L430.5 385.5L429.5 390.5V393.5L430 397V406L430.5 407.5H380.5V403.5C380.1 401.1 371.333 400.833 367 401C352.6 399.8 347.333 390.833 346.5 386.5V384L346 383.742V275.5L347 274.5V272.5L346.5 271.5C346.5 260.3 347.833 255.167 348.5 254C364.1 255.6 368.333 253 368.5 251.5C367.7 244.3 363.833 235.833 362 232.5C379.6 232.5 388 230.5 390 229.5L391 228L390.5 227C389.833 226.333 386.8 223.7 380 218.5C373.2 213.3 362.833 210 358.5 209L360.5 208L362.5 206.5L364 206C385 206 408.5 204.5 408.5 197.5C408.5 191.9 385.167 186.167 373.5 184C375.5 183.464 376 181.777 376 181C376 176 349 171 332 171C318.4 171 308.667 173.333 305.5 174.5L304 176.5L304.5 178L305.5 179C293.5 178.5 269.5 179.4 269.5 187C269.5 194.6 301.5 200.167 317.5 202L321 204.5L323.5 207C312.5 207 289 216.5 289 222.5C289 227.3 309.667 229.833 320 230.5C317 235 313 246 313 249.5C313 252.3 327 253.333 334 253.5L334.5 256.5L335 259L335.5 265L336 271.5L335.5 272V274.5L336.5 275L337 384H336.5V386.5H337.5C336.7 398.5 318.5 402.833 309.5 403.5L303 404C301.4 404 300.667 405.667 300.5 406.5V412L297 411L247 420.5L248 416L247 411.5L245 407L242.5 404L239 401.5L234.5 400.5L229 401.5L223.5 404L220.5 405.5L222.5 407.5L221.5 408L220 408.5L218 409.5L216 411L213 413L211.5 415.5L210 416L209.5 411.5V409L207 404.5L205 399.5L201 392L195.5 384.5V380.5L196.5 373.5L195.5 367.5L196 363.5L192.5 352L190 348L188.5 344.5L189 342L191.5 339L194.5 336V333.5L193.5 332.5L195.5 330L197.5 326L194.5 327L192.5 322L192 314.5L191.5 310.5L189 308L184.5 304.5L179.5 301L170 296.5L164 295L159 293.5L148 296L145.5 295L140.5 294.5L137 295.5L139.5 298H135L131 298.5H127L121 301H116L112 301.5H109L107 303L104.5 304L103 305.5L102.5 306.5L103.5 307.5L102.5 309L102 311L102.5 312L102 313.5L101 315.5L100 316.5V320.5L101.5 321.5L101 322.5L102.5 323.5L100 326L101 328V330L102.5 332L104.5 333.5H101.5L99 332.5L95 331.5L92.5 330L90 329L87 328.5H85L78.5 329L70 330L62 332L58.5 332.5L52 333.5L45.5 335.5L41.5 337L38 340.5L33 343L29.5 344.5L27.5 347L24 352L20 358L15 365L10 372.5L6.5 379L3 383.5L0 390V159L76 181L89.5 181.5L90.5 181L91 179.5L93.5 0H130.5Z" fill="#FF00B7"/>
</svg>
