<svg width="1280" height="720" viewBox="0 0 1280 720" fill="none" xmlns="http://www.w3.org/2000/svg">
<path d="M1088.5 455V454H1089L1252 492.5L1254 493H1280V591L1276 589L1273 587L1269.5 584.5L1267 582.5L1263 580.5L1258 577.5L1256 576.5L1253 573.5L1250 571.5L1245.5 569.5L1243 568L1238.5 565.5L1235.5 564L1233 561.5L1230 559.5L1227.5 557.5L1225.5 555L1222 551.5L1217 548L1213 544.5L1211.5 543L1207 541L1204.5 538.5L1195.5 533.5L1189.5 531L1185.5 529L1181.5 527.5L1176 526L1173 525L1169 521.5L1166 519.5L1155 514L1150.5 509.5L1148 507.5L1146 506L1144.5 504.5L1141.5 502.5L1137 500L1135 498.5L1132 496L1127 492.5L1121.5 488L1120.5 487.5H1118L1116 488.5L1114 490L1112.5 492L1111.5 495.5L1109.5 501.5L1108.5 505L1108 506.5L1107 506L1104.5 505L1103 503.5L1099 501.5L1096.5 499L1094 497.5L1086 491.5L1081.5 488.5L1078 486L1074 483.5L1071 481.5L1068.5 480L1066.5 479L1063 477.5L1062 477L1053.5 468.5L1046 462.5L1038 455.5L1031.5 450L1025.5 444L1020.5 438.5L1088.5 455ZM1010 436.5L1009.5 437.5L1009 439.5L1008 441L1008.5 443L1008 444.5L1007 446L1006.5 448V452.5L1005.5 454L1004.5 457L1004 459L1003.5 461.5L1003 463L1002.5 464H1002L1001 463.5L999.5 463H998.5V457.5L999 455.5L997.5 449.5L997 448.5L997.5 444.5L997 441.5L997.5 439.5V433.5L1010 436.5ZM1280 376.5V454.5L1239 447.5L1253 408.5L1253.5 406.5V404L1252 402L1250 402.5L1248 401.5H1245L1194.5 395.5L1192 395L1190 394.5L1189 395L1188 396L1187.5 397L1173 437L1162 435L1173 408.5L1173.5 406.5V405L1173 404L1171.5 403L1170 402.5L1168 401.5L1162.5 401L1141.5 399V397.5L1141 396.5L1139 395.5L1136.5 395L1108.5 393H1103.5L1102.5 394L1102 396.5H1100.5L1100 396L1098.5 395L1096.5 394.5L1072 393L1070 393.5L1069.5 394L1059 417.5L1053.5 417L1064 387L1066 382V381.5L1065.5 380.5L1064 379.5L1061 378.5L1059 378L1038.5 377L1036.5 380.5L1034.5 386L1033.5 387L1023.5 385.5H1017.5L1016 386L1007 409.5L999.5 408L998.5 407.5L997 406.5L992 404.5L993.5 403.5L995 403L996 401.5L996.5 400.5V397.5L995.5 396.5L995 395.5L993 393.5L994 388.5H990.5V393.5L989 393H985.5L987.5 389.5L985 388.5L983 392H982L980.5 391.5L978.5 392L977 392.5L975.5 393.5L974.5 394.5L972.5 391.5L970 389.5L969.5 388L969 386L969.5 385L970.5 383.5L973 381L973.5 379V377L973 375.5L971.5 372.5L968 369L969.5 367.5L972 366L971.5 365.5L1280 376.5ZM990.5 431.5L984 436H982.5L979 438L976 439.5L975 438L974.5 437L972.5 436.5L968 435.5H960V424L990.5 431.5Z" fill="#FF0000"/>
</svg>
