<svg width="1280" height="720" viewBox="0 0 1280 720" fill="none" xmlns="http://www.w3.org/2000/svg">
<path d="M759.5 0L988.5 189H989.5L1037.5 167L1090.5 143L1144 118L1183 101.5L1187 97.5L1186.5 96.5L1185.5 95.5L1068.5 0H1280V376.5L972 365.5L970 364H968.5L969 362L967.5 361L965 360H964.5L963.5 365H963L960.5 362H959.5L957.5 363L955 360L953 358L951.5 357L950 356.5L949 355.5L947.5 353.5L946.5 351H940.5L940 352L940.5 353L570 47V46L569 45L564 40.5L553 0H759.5ZM948 0L1047 80.5H1049L1088 55L1128 87.5L984.5 165H984L783 0H948Z" fill="#0015FF"/>
</svg>
