<svg width="1280" height="720" viewBox="0 0 1280 720" fill="none" xmlns="http://www.w3.org/2000/svg">
<path d="M1007 409.5L1001 424.5L1001.5 425L1088 443.5L1088.5 443H1090.5L1229 472L1239 447.5L1280 454.5V493H1254L1089 454H1088.5V455L1020.5 438.5L1016 433.5L1015 433H1014L1013 432.5L1012.5 432H1011.5L1011 433L1010.5 435L1010 436.5L947 421V415.5L947.5 414.5L948 414H949.5L955 415L992 423L995.5 423.5H999L999.5 421L999 415L999.5 414L1000.5 414.5H1002L1002.5 414V412.5L1002 410.5L1000.5 409L999 408L1007 409.5ZM937 411.5L939 412.5H941.5L943 413.5V416.5L942.5 417.5L943 419L942.5 420L933.5 417.5V414.5L934 412V411.5L935.5 411L937 411.5ZM929 411.5V416.5L927.5 416V411H928.5L929 411.5Z" fill="#0059FF"/>
</svg>
