<svg width="1280" height="720" viewBox="0 0 1280 720" fill="none" xmlns="http://www.w3.org/2000/svg">
<path d="M461.5 407.5L463 408.5L464 409.5L464.5 410.5L465 412.5L464.5 414L446.5 421L449 712.5H460.5C463.167 712.667 467.6 714.4 464 720H0V465L0.5 464C2 463.667 5.2 463 6 463C6.8 463 11.6667 463.333 14 463.5H26L43.5 461L48 460.5L74 457.5L80.5 459L86.5 462L98 462.5L113.5 462L126.5 461L133 460H135V459L138.5 457.5L142 454.5H145L150.5 453L158 452.5L160.5 452L162.5 449.5L164.5 448.5L168 446.5H184.5L191.5 445.5H196.5L200.5 444.5L204.5 441H207.5L221 440L230.5 439L234 438L237.5 435L241.5 430L244 427L245.5 423L247 420.5L297 411L300.5 412C300.5 414 318.167 414.833 327 415C354.6 415 373.5 411.667 379.5 410L380.5 409.5V407.5H433.5L459.5 407L461.5 407.5Z" fill="#00EAFF"/>
</svg>
