<svg width="1280" height="720" viewBox="0 0 1280 720" fill="none" xmlns="http://www.w3.org/2000/svg">
<path d="M446 640H461.5V660L460.5 661L256.5 660H233.5L232 639H311.5L446 640ZM199 660H0V638.5H199V660ZM231 660H202L202.5 639H229.5L231 660ZM1029.5 638C1029.83 638.5 1030.5 640.9 1030.5 646.5C1030.5 652.1 1028.17 657.167 1027 659L951.5 659.5H814V639L870.5 638.5L936 638H1029.5ZM1280 638.5V659.5L1273.5 657.5H1134L1099 658.5C1096.6 647.3 1099.67 640.167 1101.5 638L1275 637.16L1280 638.5ZM1039 642.5L1040.5 643.5L1039 644.5V647H1041.5C1043.1 651.8 1042.17 656.667 1041.5 658.5H1034.5C1038.1 652.1 1038.67 642.5 1038.5 638.5L1039 642.5ZM1091 649.5C1090.6 652.3 1091.5 656.333 1092 658L1082.5 658.5L1080.5 654.5C1083.7 653.7 1088.83 650.833 1091 649.5ZM1056.5 652L1055.5 653V654.5L1056.5 656H1057.5L1058.5 655.5L1059.5 653.5L1060.5 654.5L1060 656L1061 655.5V658H1049.5L1050 657L1051.5 656L1052 655L1051.5 653V651.5H1055L1056.5 652ZM1066.5 654.5C1067.3 652.5 1072.17 653.333 1074.5 654C1074.5 655.6 1075.17 657.333 1075.5 658H1069C1069 655.6 1067.33 654.667 1066.5 654.5ZM1091.5 640L1091 642C1088.2 642.4 1088.83 643.833 1089.5 644.5C1088.64 647.7 1084.81 648.5 1083 648.5H1079L1078.5 643V638H1091L1091.5 640ZM1068 643L1067 642.5H1061L1062.5 643.5V645.5L1060.5 647.5H1053.5L1053.23 646.5L1052 645L1050.5 645.5V644L1052 641.5L1054.5 639.5V638H1070L1068 643ZM1280 493.5V515L1095.5 514H910.5L813 515V493L924 492L1280 493.5ZM166 510.5L0 510V488.5H171.5L166 510.5ZM220 510H219C219 496.4 218 489.667 217.5 488H220V510ZM462 509.5L222.5 510V488.5L341 488H462V509.5Z" fill="black"/>
</svg>
