<svg width="1280" height="720" viewBox="0 0 1280 720" fill="none" xmlns="http://www.w3.org/2000/svg">
<path d="M812.5 679.5L813.5 676L814 659.5V639H813V515V493L813.5 209.5L462 207.5V488V509.5L461.5 640V660L460.5 661V690H463.5H472.5L478.5 691H487V682V672.5V666.5V624H485.5L486 622.5V621.5L485.5 608L486 607.5L485.5 606.225V581.5L486 578.5L485.5 577L487.5 576.5L488 475H486L485 473.5L486 473L485.5 471.5L485 434L486 432.5L485.5 431L486.5 429L486 428.5L485.5 427H488V325H485.5V324L486.5 323L486 321.5L485.5 320L486.5 319.5L485.5 318.5V283L487 279L486.134 278V276.5L488 277V233L632.5 234L633 233L634.5 232.5L636 233H640.5H642.5L645 234.5H788V277.5L790 278L790.5 281V285V318.5V320.5L789.5 323.5L790.5 324.5L789.5 326H788V427L789 427.5V433L790 434.5V467L789.5 469.5V474.5H787.5V575L789.5 576.5V579V580.5V608.5V617V619L788.5 621.5L789.5 622V623L787 623.5V685.5L787.5 687L797 686.5L801.5 689V678L806.5 680H810L812.5 679.5Z" fill="#FF0000"/>
</svg>
