<svg width="1280" height="720" viewBox="0 0 1280 720" fill="none" xmlns="http://www.w3.org/2000/svg">
<path d="M636 233H642.5L645 234.5H788V427L787.5 474.5V575L787 623.5V685.5L648.5 675.5L650 689.5H640V683.5H626.5L487 691V624L487.5 576.5L488 475V233L632 234L633 233L634.5 232.5L636 233ZM501 643.5H621V558H501V643.5ZM656.5 642.5L775 642V558L656 557L656.5 642.5ZM553.5 635H509V565.5H553.5V635ZM613.5 635H568V565H613.5V635ZM708.5 634.5H663.5V564.5H708.5V634.5ZM766.5 634H722V564.5H766.5V634ZM561.5 260C554 261.333 539.2 268.9 540 288.5L538 291C530 291.667 514 297.8 514 317C514 336.2 513.667 460.667 513.5 520.5H608.5L609.5 317C609 309.667 603.6 294.3 586 291.5L583.5 288.5C583.667 280.667 579.5 264 561.5 260ZM715 260C707.5 261.333 692.7 268.9 693.5 288.5L691.5 291C683.5 291.667 667.5 297.8 667.5 317C667.5 336.2 667.167 460.667 667 520.5H762L763 317C762.5 309.667 757.1 294.3 739.5 291.5L737 288.5C737.167 280.667 733 264 715 260ZM573 255.5C583.333 259.5 605.9 273.7 613.5 298.5V255.5H573ZM728 256C737.667 260.833 758.8 275.8 766 297V256H728ZM664.5 256V294C667.833 284.667 680.5 264 704.5 256H664.5ZM511 292C519 270.8 539 258.833 548 255.5H511V292ZM762.5 282.5C760.167 278 752.8 267.3 742 260.5H762.5V282.5ZM610 282C607.333 277.167 599.4 266 589 260H610V282ZM689 260C684.333 262.667 673.5 270.6 667.5 281V260H689ZM535.5 259C530.5 262 519.2 270.5 514 280.5V259H535.5Z" fill="#4000FF"/>
</svg>
