<svg width="1280" height="720" viewBox="0 0 1280 720" fill="none" xmlns="http://www.w3.org/2000/svg">
<path d="M621 643.5H501V558H621V643.5ZM775 558V642L656.5 642.5L656 557L775 558ZM509 635H553.5V565.5H509V635ZM568 635H613.5V565H568V635ZM663.5 634.5H708.5V564.5H663.5V634.5ZM722 634H766.5V564.5H722V634ZM613.5 298.5C605.9 273.7 583.333 259.5 573 255.5H613.5V298.5ZM766 297C758.8 275.8 737.667 260.833 728 256H766V297ZM704.5 256C680.5 264 667.833 284.667 664.5 294V256H704.5ZM548 255.5C539 258.833 519 270.8 511 292V255.5H548ZM742 260.5C752.8 267.3 760.167 278 762.5 282.5V260.5H742ZM589 260C599.4 266 607.333 277.167 610 282V260H589ZM667.5 281C673.5 270.6 684.333 262.667 689 260H667.5V281ZM514 280.5C519.2 270.5 530.5 262 535.5 259H514V280.5Z" fill="#9DFF00"/>
</svg>
