<svg width="1280" height="720" viewBox="0 0 1280 720" fill="none" xmlns="http://www.w3.org/2000/svg">
<path d="M854.5 424L843.5 420L841 420.5L841.5 423L843 430L843.5 434L844 436.5L846 451V453L844 460.33H830.5L804 459.5L797.5 460.33L796 461.83L793.5 462.5V489.5H759.289L759 490H758V216H854.5V424ZM309.5 274.5V410.5L308.5 411V413.5L309.5 417.5L311 422L311.5 424.5L312 426.5V429H308L304 429.5L299 431L290 433.5L284 435L277.5 436.5V266L309.5 274.5ZM381 348H375V392L380.5 392.5V419.5H363.5L358 418.5L348.5 417L342 416L336 415H335V278H381V348ZM914 359.5L913 359L911.5 358L909.5 354H900.5L898 358.5L896 359L895 362L892.5 362.5L892 364.5L889 366L890 368.5L888.5 369.5L889 371.5L886 373L887.5 376L886.5 378L887.5 380.5L885.5 383L887.5 386L886.5 388L888 390.5V391L886 393.5L889 396V398.5L891 400.5L890 402L891.5 403.5V404H882V352H914V359.5ZM919 309.5H900L888.5 310L882 310.5V207.5L919 184V309.5ZM962 309.5H956L940.5 310V300.5L941 291.5L942 282.5L943 274.5L944.5 265.5L946.5 257.5L948.5 250.5L950.5 245L952.5 240.5L954 237.5L956 234L956.5 233H962V309.5Z" fill="#00E5FF"/>
</svg>
