<svg width="1280" height="720" viewBox="0 0 1280 720" fill="none" xmlns="http://www.w3.org/2000/svg">
<path d="M861.5 404H858V408.5H858.5V425L854.5 424V216H758V490.5H752V208.5H861.5V404ZM381 278H335V415L329 414V272.5H381V278ZM312 270.5V411L309.5 410.5V274.5L277.5 266V261L312 270.5ZM882 404H879V352H882V404ZM919 184L882 207.5V310.5H879V201.5L919 174.5V184ZM966.5 226.5L970.5 230.5L973.5 235L972.5 310L970 309.5H962V233H956.5L958.5 230.5L960.367 228.5L962.5 226.5L964.5 225.5L966.5 226.5Z" fill="#FF9D7A"/>
</svg>
