<svg width="1280" height="720" viewBox="0 0 1280 720" fill="none" xmlns="http://www.w3.org/2000/svg">
<path d="M772 162H870V404H861.5V208.5H752V491.21H717.5L714.5 488.5L713 487.5V487L711.5 486.5L709.5 485.5H711.5L713 484.5L711 485L709.5 484.5L707.5 483L710 481.5L710.5 480.5L707 482L704 480.5V480H702.5L701 479V478.5L701.5 477.5H703L701.5 476.5H702.5L703 475.5L703.5 473.5L699.5 477H698V476.5L700.5 473.5L697.5 475H696L697.5 474L694 474.5H690L696 470.5V470L693 471.5L689.5 473H686C686.5 473 687.6 472.9 688 472.5L691.5 469L688 471L687.5 470.5L689 467.5V465.5L687 467.5L686 470L684.5 472V470L685 468L685.5 466.5L687.5 463.5L684.5 466L682.5 469L682 469.5H681L678.5 468.5V464.5L677.5 462.5L675.5 461L673.5 460L675.5 462V464.5L670 461.5H669L671 459.5L672 458H676.5L682.5 461L687.5 461.5L691.5 461L684.5 459.5L680 458.5L678 458L672.5 457.5L679.5 454L681.5 451.5L683 449L683.5 443.5V441L683 438.5L682 436.5L681.5 437.5L682 438.5L682.5 441L681 446L680 448.806L678 452L675 455L672.5 457.093V456L673 455L674.5 453.5L676 451.5L677.5 447.5V445.5H676.5L674.5 446.5L672.5 448.5L671 451L669.5 453L669 450H668.5L666.5 451.5V452H665L668 448L669 445L670 440L669 440.5L668 445L667 446.5L665 439.5L664 439H652.5L653.5 435L652 436.5L650 437L651 432.5L650.5 428V426.5L651.5 425.5L650.5 425L651.5 423.5H650L649.5 427.5L648.5 426V430.5L648 429.5V425L647 425.5V423.5L649 422L651 419V418H650L647 421.5L647.5 419.5L646 420.5L644.5 418.5L643.5 419L639.5 420L643 417V411.5L641.5 409H640.5V412.5L640 419L637.5 422L637 422.5L636 425L635.5 422L636 418L637.5 415L638.5 413.5V407.5L637 409L636 412L635 418V422L633.5 420.5L633 416.5L632 413L630.5 410.5L628.5 407L630 412.5L629 414.5L628.5 419L626.5 416.5L625.5 413L624 411.5L622 407.5V409.5L625 414L625.5 416.5V418.5L622.5 417L624 420L625.5 422L621.5 418.5L622 420L626.5 424.5V426L625.5 427L623.5 425.5H621V429.5L618 421.5L617 418.5L616 416.5L615.5 417L615 419L615.5 421.5L616 424.5L619 428.5L616.5 428H614.5L613 424.5L610.5 419.5L609.5 422L610 426L610.5 427H608.5L605.5 428L602 429.5L602.5 430L600 431L600.5 431.5L600 432H603.5L605.5 431.5L603.5 433H599.5L600 433.5L603 434L603.5 435L599 436L600 436.5L598.5 437.5L599.5 439H590V438L588 437H587V436L583 432H582V430.5L581.5 429.5L581 429V426.5L582 415L582.5 408.5V404.5L584 402L588.5 388.5L589 388H620.5V332.5H580V387.748H583.795L572 391L567.5 391.5L565 392.5L563 392H550.5L549 391.5L545.5 391H544L529.5 387H533V331.5H492.5V379.5H487.5L488.5 375L486.5 368.5L485.5 367.5L480 375L478 372.5L478.5 370L477 367.5L475.5 364.5L479 362.5L482 359L483 355.5L482 351L479.5 346L477 346.5H472.5L467.5 350.5L463 346.5L459 342.5L461.5 340.5L454.5 333.5L447.5 337.5L451 341.5L445.5 344.5L449 346.5L454.5 350.5L451 352L444.5 350.5L436.5 348H381L380.5 60.5L772 162ZM664.5 462.5L666.5 464L669.5 469L663.5 467L666 469L669 471L669.5 473L665 472L663.5 469L662.5 466L661 462L664.5 462.5ZM476 384H477.5L482 385.5L485.5 388L491 390.5L482.5 389.5L479 388.5L473.5 388L474.5 390.5L471.5 390L470.5 391.5L470 395V399.5L473 403H476L478 401L479 403L479.5 407.5L480 409.5L481.5 413V416.5L482 420L482.5 424L483.5 427L484.5 429L484 430L482 432.5L481.5 434.5V436L480 436.5L478.5 437.5L478 438.5L480 439.5L483.5 440L484.5 440.5L477.5 444L476 445.5L475.5 446.5V448L476.5 450L477.5 450.5H498.5V462L495.5 461.5L495 461L493.5 460L489 459.5L475 460L475.5 453.5L474.5 452L474 451.5V448L473.5 446L472 444L470 442L467.5 440.5L465 440L462.5 441L461 442.5L460.5 443.5V447.5L460 451.5H458.5V448H457.5V423.5L461 422L463 418L462.5 414L459.5 411L457.5 409.5V405L458.5 404L460 404.5L459.5 406L460 408L463.5 411.5L468.5 413.5L472.5 412.5L474 409.5L472.5 405.5L466 403.5L460.5 404L457.5 403V400.5L463.5 398.5L465.5 397L466 394L464.5 391.5L467.5 387.5L468.5 385.5L473.5 386L471 382V379L476 384ZM468 442L470 444L471.5 446L472.5 448.5L473 451.5H461L461.5 450.5V449L462 446.5V443L463.5 442L465 441.5H466L468 442ZM430.5 396L431 398.5L432.5 401.5L435 403.5L439 405H440L439.5 406L438 408L437.5 409.5L438 412L440 414H443L446 413L448.5 411V416.5L449.5 419L451.5 421.5L455 423.5L455.5 424L455 448H452.5L451 445.5L449.5 444L447.5 443H444L443 443.5L441.5 444L438.5 447V448H421L421.5 447.5L422 446.5L422.5 445L423 444V441L420.5 422.5L420 421.5L419 421L416.5 418.5L413.5 414.5L412 411.5L411 408.5L410.5 404.5L410 399.5V396L409.5 394.5L408.5 393.5V392.5L430.5 392V396ZM448.5 445.5L449.5 446.5L450.5 448H440.5L441.5 446.5L443 445L444.5 444.5H447L448.5 445.5ZM638.5 432L637 436V437L636.5 439.5L634.5 438L635.5 435.5V433.5L636 432.5H637V431.5L638.5 430V432ZM630 427.5L630.5 428.5L633.5 435L631 436.5L629.5 435L627 433V429L627.5 427V425L630 427.5ZM639 428.5L637 431L635 432.5L634.5 431.5L636 429.5L638.5 425L640 424.5L639 428.5ZM634 424.5L634.5 430L633.5 431L631.5 427L631 425.5L632 423L633 421L634 424.5ZM403 393.5L402.5 394L401.5 397L401 402.5L400.5 407.5L400 410L399 413.5H396.5V413H396L395 413.5L394.5 414.5L393.5 415L392 415.5L389 417.5L387.5 418L385 419L384 419.5H380.5V392.5H403V393.5ZM450 394V397.5L452 401L452.5 402H451L454.5 405V408H451V407.222L451.5 405L450.5 403.5L448 403L446 402.5L447.5 399L446 396L444.5 394.5L447.5 393.5L448.5 391L450 394ZM526.5 388.5H522.5L520 389L510 391.5L498.5 391H497L499 390L500.5 389V388L501 386.5H530L526.5 388.5ZM536 333V387.5L576 388V333H536ZM447.5 373.5V377.5H450.5L455 375.5L456.5 375V378L457.5 377L458.5 374.5L461 376L463.5 375L464 375.5V377.5L457.5 378L455.5 380H452L448.5 381L447 384.5L447.5 387.5H446.5L446 385.5L445 384L441.5 383L438.5 382L442 381L444 379L446.5 378.5L445 375L444.5 373V370.5L447.5 373.5ZM626 333V387.5H665.5V333H626ZM455.5 360L453 362.5L452 365L452.5 366L448.5 368L448 370L445 369L443 368.5V367L449 362L451.5 364.5L452 363L451 361.5L451.5 360L455 359L455.5 360ZM439 360H440.5L442 359V360L440.5 361.5H439.5V360.5H438L436.5 361.5V358.5H438.5L439 360ZM580 271V326H620V271H580ZM626 271V326H665.5V271H626ZM491.5 270V325L531.5 325.5V270H491.5ZM535.5 270.5V325.5H575.5V270.5H535.5ZM491 208.5V263.5H531V208.5H491ZM535.5 208V263.5H575.5V208H535.5ZM579.5 208V263.5H619.5L620 208H579.5ZM624.5 208V263.5H664.5V208H624.5Z" fill="black"/>
</svg>
