<svg width="1280" height="720" viewBox="0 0 1280 720" fill="none" xmlns="http://www.w3.org/2000/svg">
<path d="M224 64V448.5L212 451L198 453L185 455.5L179 456.5L170 455L167.5 455.5V459.5L154.5 463L144.5 465L134 467.5L132.5 459L131.5 452L131 443.5L130.5 438L130 435.5L129 434.5L127 433.5L141.5 433L170 431L181 430L187 429L191.5 428.5L193 428V335L181.5 334L171 333.5L157 333L132.5 332.5H50L42.5 333V389.5L41 402H14L11.5 400L6.5 398L2.5 398.5L0 399.5V121.5L222.5 63.5L224 64ZM381 272.5H329V414L324.5 413L321.5 412.5V246H381V272.5ZM380.5 74L381 223H257V87.5L345 64.5L380.5 74Z" fill="#FF0000"/>
</svg>
