<svg width="1280" height="720" viewBox="0 0 1280 720" fill="none" xmlns="http://www.w3.org/2000/svg">
<path d="M972 76L973.5 77L975 77.5L976 82V83L975.5 108L974.5 158.5L974 196.5L973.5 224.5L972 223.5L970.5 223L965 222.5L959.5 223L956.5 224L954 225.5L952 227.5L949.5 230.5L945.5 237L942.5 243.5L940 251.5L937.5 261L936.5 267L935 274L934 283.5L933.5 288L932.5 301.239V310.5L924 309.5H919V174.5L879 201.5V310.5H877.5L876.5 311L876 313L874 351.5L879 352V404H870V162L971 74.5L972 76ZM925 353.5L924.5 355.5L924 356.5L921.5 357L919.5 358L918 359L916.5 360.5L915.5 361L916 361.5L917.5 360.5H924L924.5 361.5L925 360.5H927L929.5 361.5L931.5 360.5V362.5L934 367H933.5V370.5L932.5 371.5V373.5L933 377.5L934 382L935 385.5L936 388L937 390L939 393L940.5 394.5H923L923.5 394L922 391L924 388.5L922.5 386.5L925 383.5L922.5 380.5L924.5 378.5L922 376.5L924 373.5L921 372L922 369.5L920 369V368L921 366L917.5 364.5L917 362.5L915.5 362L914.5 360.5L914 359.5V352H916V355L918 351.5H926L925 353.5ZM972.5 372.5L971.5 375L969.5 378.5L968.5 379H967L967.5 375.5L968 371.5L966.5 370V367.5H956V366.5L957.5 364L959 364.5L961.5 363.5L963.644 364.5L966.5 364L967.5 368.5L968 370L969.5 367L970.5 368.5L971.5 366.5L971 363.5L971.5 363H972L972.5 372.5ZM943 364.5L944 363.5L948.5 365L949.5 367.5H935.5L938 362.5L943 364.5ZM962.5 357V360.5L956 359.5L957 356L962.5 357ZM951.5 353H954V355.5L952.5 356L950.5 357L948.5 356L945.5 355L944 352H947.5L950 351.5L951.5 353ZM969.5 354.5L970.5 355V353H972.5L973 356.5H971L969.5 355L965.5 356.5L964.5 356L967.5 354L968.5 353.5L968 352.5L964.5 353.5H963L964.5 351.5H968L969.5 354.5ZM933 356H928.5L931 353.5L933 356ZM1181.5 0L1178 2.5H1176.5L1176 3.5H1170.5V2.5H1169L1071.5 69V40.5L1071 26.5L1070.5 17.5L1069.5 9L1066 14L1060.5 19L1059.5 18.5L1056.5 21L1055 21.5L1053 23.5L1050.5 25.5L1046 29L1043 31.5L1039.5 34.5L1037 37L1032.5 40L1031 42L1030.5 44.5L1029 42.5L1026.5 45L1024 47L1023 49L1022.5 48.5L1019.5 50.5L1019 53L1017.5 52L1016.5 53L1015.5 75L1014.5 95.5L1014 72.5V52.5L1014.5 50.5L1015.5 45L1016.5 41.5L1017 39.5L1063.5 0H1181.5Z" fill="#0DFF00"/>
</svg>
