<?xml version="1.0" encoding="UTF-8"?>
<svg id="Layer_1" xmlns="http://www.w3.org/2000/svg" version="1.1" viewBox="0 0 1280 720">
  <!-- Generator: Adobe Illustrator 29.6.1, SVG Export Plug-In . SVG Version: 2.1.1 Build 9)  -->
  <defs>
    <style>
      .st0 {
        fill: #606060;
      }
    </style>
  </defs>
  <path class="st0" d="M575.88,454.08l-2.1,1.61-1.63-.24-1.9,1.33-1.72.24-1.54.82-1.45.91-1.21,1.33h-1.21l-.82,1.42-.33,1.51-.82-.06-.18,1.03-1.06-.39-1,.54-1.12.82h-.6l-.39-1.09-.97,1-1.69.24-1.09-.03-1.57.45-.33,1.15-1.93-.94-1.42.24-1.51,1-2.6.39-2.3.36-2.17-.39-1.6.24-1.45.57-.66.3-1.36-.63-1.39.69-.91.6-1.33-.48-1.27.27-1.03-.21-.72,1.42-1.87-.33-1.3.72-1.27-.66v.82l-1.48-.12-.36.51h-2.2l-2.23.69-1.84.12-1.15-.72-2.36.94-2.23-1.06-.42.91-1.3-.63-2.42.72-1.9.72-1.27-.94-2.33,1.09-1.09-.6-2.3.45-1.9.69-1,.42-2.23.45-2.08.66-1.3-.39-1.63.66-1.57.66-1.49.04h-.93l-.32-1.05-.72.28v.77l-1.53-.16-1.57-.44v1.25l-2.21-.16-.68-.52-.85.44-1.37.12-1.37.32-.36.77-.97-.04-1.85.16-1.41.89-1.05-.4-1.61.64-.89.48-1.21-.44-.52.93-1.29-.2-.93.6-.68-.32-2.3.93-.77.36-.89-.36-.93.6h-1.89l-1.09,1.13-.85.44-1.25-.52v.85l-3.79,1.09-3.46,1.13-2.62,1.17-1.93,1.53-1.33.32-2.05,1.65-1.53,1.57-2.98,2.66-27.54,4.27s-1.69-20.9-2.66-39.87-1.81-39.5-1.81-48.56-.36-37.09,0-57.02.04-25.01-.16-39.38-.56-31.89-.68-33.22-.12-51.46,0-59.92l3.14.48.66-17.09,2.36.42.54.54,2.42.3.66-.36,12.2,1.75,1.39,1.39,3.2.42s1.99-3.5.3-5.26l-3.02-.54-.85.85-12.5-1.93.03-.79s1.12-.63.42-1.24l-3.47-1.39-1.45.63-.54.76.36,1.24-4.62-.6-1.04-.71-2.87-.3-.63.39-1.42-.88-.57.36-1.63-.88v.76l-1.39-1.06h-.72l-1.39.24-1.69-1.03-2.54.27-1.54-.82-1.15-.03v.6l-1.3-.88-1.78-.06-.45.27-1.09-.66-.76.48-1.69-1.12-1.51.03-.45.63-1.03-.97-1.18-.27-.91.88-.91-1.42-1.21.85-1.51-.51-1.06-.69-1.21.09-1.06-.36-1.39.18-.45-.6-1.42-.06-.94-.36-.72,1.06-2.05-1.72-.66.69-.76-.91h-1.03l-.33.6-1.12-1-1.57-.09-1.45.63-1.21-1.39-.94.03v.88l-1.09-.09-.76-1.51-1.24-.15v1.09l-1.12-.63-.66-.66-.94.06-.39.48-.97-.79h-1l-.21.54-1.06-.79-.85-.36-.85.69-1.03-1.18-.63.03-.18.91-1.3-1.15-2.05-.09-1.39-.24-.36.82-.48-1.06-1.09-.33v1.3l-.79-1.36-2.02-.21-.94-.3-1.36-.54-1.23.33-1.01-.68-1.69.06-1.15-.93-1.19.2h-1.65l-1.39-.64-1.33.44-1.27-.99-1.55-.08-.36.77-1.39-.81-.95.5-.77-1.15-1.27-.02-.28.44-1.41.24-1.11-1.35-1.13.16.91,1.47-2.23-1.21-1.03-.58-1.39.1-.3.89-.95-1.33-1.21-.42-.77.02-.79.99-.87-.97-1.53-.3-.99.14v.7l-1.27-1.05-1.23-.26-.81.38-1.89-1.07-1.29.26-.99-.12-1.39-.83-1.31.08-1.65-.42-1.59-.5-1.51.1-.51.65-36.33-5.98-3.65-.48-2.84-.63-1.51-.72-1.93-.69-2.54.09-1.96-.88-2.57-.15-1.24-.76-.72.27-1.51-1.03v1l-1.75-.91-1.99-.51-.9.56-2.54-1.53-1.79.58-.95.1-1.05-.89-.64.32-.52-.83-2.26.32-.87-1.05-1.23.62-2.34-.2-.99-1.37-.5.04-.18.68-1.19-1.01-3.83.24-1.25-.99h-.81l-1.19.22-2.11-1.61-1.99.26-1.53.38-1.53-.97-2.03-.44-.28.81-1.81-.72h-1.47l-1.23-.58-.56.68-1.23-.91-3.32-.3-1.65-.1-1.87-1.19-2.52-.62-1.27.32-1.39-.7-1.73-.2-1.33-.02-1.31-.85-1.59-.02-1.79-.2-2.11-.91-1.09-.1-.44,1.05-1.05-1.13-1.63.02-2.01.02-2.34-.14-1.57-.26-1.77-.46-1.23-.02-1.13-.44-1.59-.91-1.23-.54-.26,1.23-1.17-.74-.89.08-1.69-1.21-1.21-.22-.34.62-1.27-.54-1.37-.42-.44.08-1.09-.5-.83.08-.1.56-1.31-1.01-1.67.52-1.59-1.05-1.73-.3-1.35-.32.1,1.19h-1.01l-.1-1.21-1.59-.44-.46.93-1.53-1.43-.44.95-1.11-1.15-1.51-.26-.24,1.57-1.11-1.33-1.71-.93-.42,1.37-1.37-1.43-1.27-.38-.44,1.59-.64-1.51-2.17-.32-.52.85-1.37-1.79-.74.02v1.17l-1.47-.64-.48-.99-.77-.1-.7,1.31-1.43-1.35-1.03-.14-.89-.06-1.37-.79-.36,1.17-2.07-1.37-2.32-.5-.68-.18-.32,1.19-1.53-.5-1.49-.91-1.45.14-1.23-.66-1.25-.48h-1.15l-1.51.34-.85-.93-1.39-.42-.52.5-1.49-1.13-1.25-.1-.93.87-.83-.56-1.81-.68-.66,1.15-.79-1.01-1.41-.89-.79-.06-.42,1.61-1.81-1.45-1.01.64-1.01-1.01-2.19-.68-1.75-.44-1.25.66-.64-.93-1.21-.4-1.25-.24.22,1.41h-.77l-1.31-1.53-1.07-.36-.77-.06.14,1.23-1.39-1.59-1.55-.46-1.55.24-.2,1.01-1.03-1.21-1.47-.56-1.31-.28-1.49-.12-1.85-.62-2.09-.16-1.41.3-.85-.5-.99-.32-1.51-.77-.56.32-1.25-.4-.89.08-1.43-.77-1.59.24-.93.06-.97-.89-1.01-.36-.81.72-2.13-.99v1.11l-.83-.79-1.07-1.09-1.87-.02-.85.74-1.29-1.05-1.43-.12-1.97.04-.19-.02v-16.42l575.43,109.93.45,231.05ZM225.83,174.74l.81,1.69.64,1.29.4,1.77.32,4.27,41.96,7.33v-6.52l.56-2.01-37.53-6.2-2.42-.64-2.5-.97h-2.26ZM495.55,251.29s.85-.97,0-1.39-1.99,1.69-1.99,1.69l-20.48,26.7-1.09,1.03-.79.48-.54.48h-1.03l-.79-.79-.79.79v1.33l.79.66,1.93.3-.06,1.21-.54.91.6.91-.48,1.21.36,1.39-.36,1.69.06,2.84s-.97.72-.12,1.99l-.54,1.03.24,3.81-.18,1.83.38.66-.68,1.81.87,1.05-.06,2.15.02,3.38.34,4.23-.24,2.13.48.7.14,5.13.4,1.47-.6.42.22.83v1.59s.1,1.97.1,1.97l-.08.83-.34.83.34,1.33-.06.99.16,1.47.06,2.15-.12,3,.06,2.05.04.66-.1.79.48.68-.81,1.31.12.95.36.74.08,1.79-.06,4.21.04,3.48-.12,2.64-.06,1.61.18,1.51-.06,3.14.1,1.93-.06,3.93-.18,2.07-.6,1.2-.86.42v.38l.42.65.82-.14.59-.71.57-.82.18,2.9-.54,2.84v1.84l1.09-3.2-.06,7.61-.88,3.41-.63,1.3.24,2.87.12,2.78,1.33,2.66,1.21.72h.91l.66-2.84.06-4.47.24,5.56.54,1.75.54,1.09,1.03,1.09h1.03l1.03-.36.3,1.03v1.21l1.15-.6,1.75.6.91.91,2.3.42.54.97.97-1.63,1.27,1.63,1.69-.42-1.27,1.99.97.24,1.57-1.03h1.15l1.15,1.69.85-1.45,2.78-.24.79,1.39,1.69-1.27,1.09.12.72-1.09,1.15-.48.54-1.03.85-1.21.48,1.21.6-1.75,1.45.72.6.79,1.15-1.15,2.3.18.6-1.03,1.63-.18.79-1.15.72-1.69,1.33-.42.6,1.21,2.11-.54-.54-1.09.54-1.57,1.09.6.54.72.54-.79,1.15.24-.6-2.05-.06-2.23-.3-2.78-.06-2.05-.27-3.32-.12-2.99.27-5.47-.24-4.05-.48-3.32.03-3.93-.45-6.61-.24-5.07-.15-1.72-.15-6.25-.63-2.78-.21-2.66-.21-4.32.36-2.75.24-1.99.15-8,.06-6.28-.15-6.64-.21-8.76-.21-5.62-.06-4.14-.42-.6.21-1.48,1.15-.03.66-.36-.12-1.12-.39-.36.82-.57.48-1.03-.91-1-.94-.39-.79-.79h-1.27l-.6.45-2.23-.24-19.11-33.03ZM494.57,251.31l-20.57,26.85v1.81h.85l.66.21,1.54.88.85-1.03h.91l1.18.79,1.03.91,1.15-1.15,1.09.12,1.48,1.24,1-.36s.94-1.45,2.99.48c0,0,1.81-1.12,3.41.45,0,0,1.21-1.69,3.56.39,0,0,1.33-2.02,3.56.51,0,0,1.72-1.45,3.93.51,0,0,1.84-1.66,3.84.42,0,0,1.63-1.06,3.41.21h1.6l1.63-.21-18.72-33.04h-.36Z"/>
</svg>