<?xml version="1.0" encoding="UTF-8"?>
<svg id="Layer_1" xmlns="http://www.w3.org/2000/svg" version="1.1" viewBox="0 0 1280 720">
  <!-- Generator: Adobe Illustrator 29.6.1, SVG Export Plug-In . SVG Version: 2.1.1 Build 9)  -->
  <defs>
    <style>
      .st0 {
        fill: #606060;
      }
    </style>
  </defs>
  <path class="st0" d="M1280,55.84v536.76l-301.58-51.7,4.67-220.51-5.88-.89-271.17,11.52-.64.81,1.17,40.07-3.26-.2-1.09-.48-1.97-.97-1.69-.44-2.46-.16-2.17-1.37-3.06-.89-2.05-.77-.78-.44-.48-10.6s-.06-1.66-2.05-1.84l-46.49.24-.56.89-3.62,33.66s-.32,2.82,1.19,3.18c0,0,11.6,1.15,20.05,1.03l-1.51,1.63-1.39.42-1.27,1.27-1.09.6-.42,1.27-1.81,1.33h-1.03l-.12,1.45-1.69-.12-.06.66-2.23,1.63v1.33l.3,1.27v1.09l.85,1.33,1.99,2.72,2.17,2.17,1.87,2.3-.24,3.56-.36,1.85-.56,1.09-.36,1.73-.68,1.57-.93,1.57-.04,1.49-.52,1.85-.08.64-3.7-.28-.12-2.01s-.24-.64-1.29-.68-3.38.04-3.38.04l-.16-.68-1.81-.24s-5.36-11.5,2.9-23.36c0,0,1.45-2.48-1.37-.62s-8.98,7.41-9.87,15.38c0,0-.6,3.83.68,8.78l-4.87.4s-.49,0-.49.61v2.02l-8.44,1.39s-1.09.36-.39,3.44c0,0-2.54.27-1.21,3.26l-1.99.12v.82l1.01.48v1.05l-1.01.4-2.21.56-2.94.4v1.77l1.33.32-.24,1.21.81,1.45.32.64-1.53.28-.68.44-.81-.72-2.21.32-.81.72-1.11.15-1.39-.06-1.27.54-1.48.63-.48.36-1.51-.45-1.06.51-1-.03-1.42.85-1.57.51h-2.08l-2.72.72h-1.75l-1.75.94-1.75-.06-1.12.69-1.75.06v1.18l-1.25-.64-.45-231.05L1280,55.84ZM1200.58,578.99s0-2.47,4.58-7.3,4.68-5.1,5.68-6.13,5.38-5.83,5.04-8.67-.79-4.56-1.03-5.41-.94-3.93.36-6.52l15.4,2.2h.6s.21-.42.21-.42l.63-30.05s-.06-.82-2.17-1.15l-24.1-2.75h-.88l-.18.3.09,29.96,8.43,1.12s-.63,1.9-.48,4.26,1.27,5.16,1.27,5.16c0,0,1.03,4.29-2.05,7.55s-8.06,8.34-8.06,8.34c0,0-4.77,5.02-4.8,9.26l1.45.25ZM1150.25,570.36l-1.73-68.73.2-.52,4.47-9.7-.77-2.82-15.87-1.45v-15.34l-2.62-.72-.72.4-3.95-1.09-1.89.28-2.7-.28-2.86-1.13v-9.63l.72.72.63-.45.06-1.03.72-.82-1.3-1.21,1.15-1.42,1.09.27.18-1.27-1.48-.72h-.63l-.06-1.72h1.24v-.88l-.48-.88,1-1.54v-1.69l-.79-1.72-1.21-1.27h-1.09l-2.2-2.23-2.45-2.02-1.63-1.54-1.18-.69-1.06.42-.6-.88.27-1.27-1.78-.24-.18,1.33-2.02-1.57-2.42-.3-1.12.42-1.18.09-1.39-.51-.48,1.03-1.75-1.18-1.84-.88-1.93.54-.48.97-1.33-.06-.79,1.06-.85.79-2.08-.3-.36.85.15,1.75-.36,1.93-1.51-.21-.39.94-1.93-1.27-.21.36.72,1.87-.03,1.24-.36,1.33-.03,1.39-.94-.85-.63-.18-.57.82-.69,1.81.21,2.54.63.36.06,2.36.57,1.84h.69l-1.06.94,1.81,1.21,1.6.3.33.63.12,8.7-1.75-.24-1.45.33-2.11-.72-1.54-.09-1.48.45-2.17-.48-2.54-.51-2.33-.48-1.51.18-1.9-.42-2.11.12-10.03,6.58v7.7l-3.76-.65v-2.17l-1.49-1.13,1.01-.72.68-.56.32-.64.08-1.41-.04-27.54-.16-14.21s-.2-4.59-3.02-6.64-5.28-3.1-8.42-3.42l-.2-10.63.48-1.57s18.87-.87,32.21-2.26c0,0,5.82-.89,8.44-2.09,0,0,1.73-.32,1.01-3.58s-7.13-37.45-7.13-37.45l-2.9-17.21s-16.91-1.03-40.83,0-43.13,2.96-43.13,2.96l-2.23.66-.66.79-2.66,53.15v1.03l.6.72s8.18,2.48,18.39,2.96,19.57.66,19.57.66v11.11s-11.11.72-10.69,10.09.79,36.54.79,36.54c0,0-.66,4.95,3.2,7.37,0,0-2.11.3-1.69,2.11l-12.81-1.93-21.68,13.17v3.08l.3.79-.3.72v.79l10.03,9-3.02,40.7,161.95,27.76ZM1142.43,512.18l-61.31,38.78,10.02,9.26,51.69,8.86-.4-56.9ZM1128.72,509.95l-52.01,34.13-.79.72v.72l.24.79,2.3,2.11,56.54-35.94s2.48-1.69,0-1.99-6.28-.54-6.28-.54ZM1123.34,509.4l-75.44-8.28h-.66v1.03s2.17,14.62,4.41,21.08l20.05,18.54s1.15,1.03,2.6,0,49.05-32.38,49.05-32.38ZM1045.36,501.13l-21.08-2.66,25.79,23.21s-3.68-13.09-4.71-20.55ZM1057.08,535.53l-2.84.12,5.56,15.64,10.45-6.83-13.71-12.44.54,3.5ZM1075.92,550.14l-2.42-2.3s-1.21-.85-2.54,0-11.24,6.99-11.24,6.99l6.69,1.15,9.5-5.84ZM1054.72,553.98l3.63-2.25-5.5-15.84h-1.27l-1.99-7.79h1.69l-.06-1.33-31.35-28.87-22.95-2.54,1.09,8.7,51.45,49.02,5.27.9ZM998.31,508.71l3.62,36.22,41.96,7.19-45.58-43.41ZM994.44,504.84l-2.91,38.3,7.14,1.38-3.57-38.11-.66-1.57ZM991.6,497.93l.15-3.13-2.02-.24-.8.89,2.67,2.48ZM1085.86,559.32l-7-6.45h-.72l-6.47,4.01,14.2,2.43ZM936.99,160.69l-188.94,40.83v.67l.76,44.46.16,46.39.18,28.67.85.36h1.15l186.93-10.99.72-.44-.28-148.27s-.11-1.98-1.52-1.67Z"/>
</svg>