<?xml version="1.0" encoding="UTF-8"?>
<svg id="Layer_1" xmlns="http://www.w3.org/2000/svg" version="1.1" viewBox="0 0 1280 720">
  <!-- Generator: Adobe Illustrator 29.6.1, SVG Export Plug-In . SVG Version: 2.1.1 Build 9)  -->
  <defs>
    <style>
      .st0 {
        fill: #606060;
      }
    </style>
  </defs>
  <path class="st0" d="M1280,55.84l-704.57,167.19L0,113.1V0h1280v55.84ZM978.75,53.5c-6.23,1.32-10.65,5.32-9.89,8.93.77,3.61,6.43,5.47,12.66,4.15,6.23-1.32,10.65-5.32,9.89-8.93-.77-3.61-6.43-5.47-12.66-4.15ZM699.84,139.15c-4.15.27-7.35,2.93-7.15,5.94.2,3.01,3.72,5.23,7.87,4.96,4.15-.27,7.35-2.93,7.15-5.94s-3.72-5.23-7.87-4.96ZM542.64,187.72c-3.52,0-6.37,1.95-6.37,4.35,0,2.4,2.85,4.35,6.37,4.35,3.52,0,6.37-1.95,6.37-4.35s-2.85-4.35-6.37-4.35ZM202.42,109.81c-5.86-1.61-11.23-.67-12,2.11-.76,2.78,3.37,6.34,9.23,7.95,5.86,1.61,11.23.67,12-2.11.76-2.78-3.37-6.34-9.23-7.95ZM318.61,0h-21.49c1.89,1.46,4.52,2.76,7.54,3.59,6.75,1.86,12.95.73,13.85-2.53.11-.41.16-.63.1-1.06Z"/>
</svg>