<svg width="1280" height="720" viewBox="0 0 1280 720" fill="none" xmlns="http://www.w3.org/2000/svg">
<path d="M74.5 493L75 497L77 501L77.5 503L77 504.5L76.5 507L77 509L79 514.5L80 518L82.5 525L86 534.5L84.5 537L84 539.5V542L85 545.5L86 547.5V549L84 552.5L83 555L82.5 557.5V560.5L83.5 582.776V589L84 592.5L85 595V603.5L0 644V608L76.5 576.5L73.5 490.5L74.5 493ZM1277.5 550L1276.5 565L1226 545L1225.5 544L1226 541.5L1229.5 533L1277.5 550ZM1235.5 535L1230 533V527L1229 523.5L1228 519.5L1224.5 510L1220.5 497.5L1217 487L1214.5 482L1216 0H1239L1235.5 535ZM598.5 514.5H590L581 513H578V510L579 509L578.5 507.5L577.5 506L578 497L578.5 495H598L598.5 514.5ZM689 513.5L607.5 514.5L608 494.5H688.5L689 513.5ZM716 513.5H697.5L698 494H715L716 513.5ZM108 0L205 60L206 61.5L206.5 391H203.5L199.5 392L196 393V68.5L195.5 67.5L194.5 66.5L85 2.5H81.5L79.5 4L85 429.5L83 431.5L81 434L79.5 437.5L78 440.5L76.5 444L73.5 450L72.5 453L64 0H108Z" fill="#6FFF00"/>
</svg>
