<svg width="1280" height="720" viewBox="0 0 1280 720" fill="none" xmlns="http://www.w3.org/2000/svg">
<path d="M766.5 244L762.5 245.5L754.5 247.5L749 249H743L737 250.5L732 252.5L727.5 255L723 258L719 261L715.5 264.5L714 268L712.5 271L711.5 275.5L711 283.5V300.5L711.5 312L711 321.5V330L711.5 338.5V346L712 351.5V373L712.5 385L711 388.5L708.5 393L706.5 398L703.5 407L702.5 411L702 416.5L702.5 420.5L703 425.5L703.5 429L704 432L704.5 436V440L704 445.5L704.5 451L706 456L706.5 458L707 460.5L708.5 464.5L710 468L712 471V473L712.5 476L713 477V478.5L714 479.5V481L714.5 482L715 482.5V494H698L699 419L698 418V417L699 416.5L700 415.5L699.5 413L699 412.5L698.5 360H701.5L702.5 359.5L703 357.5L702 356.5L698.5 355H665L664.5 354.5L664 353.5L664.5 352L665 349.5L664 346.5L662.5 345L660.5 344.5V341H650L651 339.5L652.5 338L655.5 336L657 335.5L655.5 333.5L654 332.5L655 330.5L658 326L662 322.5L663.5 320L665 319L664.5 318V317L665.5 315.5L666 316L668 314L669.5 311.5L668 310L661.5 315.5L658 319L655.5 322L654 321.5L652.5 322L652 320.5H650V318L653.5 310.5L657.5 304L661.5 298.5L663.5 295L665.5 293.5L666 294L668 293L667 291.5L666 291V290L667.5 287L666 286L665 286.5L663 289L661 292L658.5 289.5L657.5 291L658 292.5L658.5 294.5V296.5L657.5 298.5L655.5 301L655 299L654.5 296.5L654 293.5L653.5 292.5L652 292L650.5 293.5L651 295L651.5 299.5L651 300.5L651.5 303L650 306.5L648 309H647V305L646 304V297L647 293.5L646.5 292.5L645.5 292L643.5 293.5L642.5 292L641.5 291.5L642.5 285.5L643.5 281.5L645.5 279L646 281.5L648 277L646.5 276L645.5 275.5L645.275 273.483L653.5 273L665.5 272L678 271L682.5 270L684 269L682.5 266.5L680 263L676.5 256.5L674.5 252L672 244.5L668.5 234.5L666.5 226.5L665.5 219.5V214.5L666 210.5V209.5L665.5 208L663.5 207L662 206.5H658L648 207L640 208L638.413 208.198L636.5 201.5H642.5L645 202L647.5 203.5L651.5 204.5L656 203.5L657.5 203H661.5L665.5 201.5L668.5 198.5L671.5 196.5L674 193.5L676 192H679L682.5 190.5L684.5 188L686 183.5L688.5 180.5L689.5 178.5V174.5L688.5 171L690.5 169.5L690 168.5L690.5 166.5L692.5 164.5L694.5 161L695 156L693.5 153V147.5L691.5 144L688.5 142L687 139.5L685.5 136L682 133L681.5 131L682 127.5L681.5 125.5L679 124L676.5 123L674 120.5L670.5 119L668 118L662 119L660.5 117H657L654 115.5L650.5 113.5H647.5L645 114L643.5 115H638.5L635 116L632 119L629.5 120L627 121.5L623 125H621L618 126L616 128L615 131L614 133L611.5 134.5L609.5 139.5V143L609 145V147L608.5 149L606 153.5L605 155.5L604.5 157.5V160.5L605 162.5L606 165L605 168L605.5 169.5L607 172.5L609.5 177L611 179.5L615.5 185.5V187.5L616.5 189.5L618 191.5L619.5 192.5L622 193L625.5 196.5L628.5 198.5H630L634.5 197.5L635.5 200L634.5 200.5L633.5 201.5L633 203L635 208.5H636L632 209L625.5 210L618.5 211L614.5 212L612.5 213.5L612 214.5L612.5 219.299V233.5L611.5 244L608.5 258L606.5 264L605 268L603 271.5L600.5 274.5L602 275.5L605 276.5L611.5 276L622.5 275L631.5 274.5H640V271.5L640.5 282.5L639.5 283L638 281.5L634.5 279.5L634 281V282L636.5 284L638.5 286.5L640.5 291L641.5 293.5L642 295.5L641.5 298L641 298.5L639 297.5H637.5V298.5L638.5 300.5L640 304L641 307.5L641.5 310L641 314L639.5 312.5L636.5 308.5L633.5 305L632 303L631.5 301L630.5 299L629 298L627.5 295.5L627 290.5L625 289.5L624.5 292L622 290L620.5 291.5L623 294L625 297L626.5 299.5L626 300.5H624.5L621.5 300V301.5L622 303L623 303.5L626.5 305L629.5 307.5L632 310V311L633.5 312L635 314L636.5 317.5V321L635 318.5L633 316L631 311.5L629.5 310.5L628.5 311.5L629 313.5L631 318L634 323L636.5 325L638 326.5L638.5 327.5L638 328.5H636.5L633 327.5L631 326L629 323.5L627.5 321.5V316.5L628.5 314.5L627 313.5L624.5 316L623 314L621.5 311L621 309.5H619.5L618 308.5L616.5 309.5L619.5 313L622 317L623.5 319.5L624 321.5L623 323.5L621.5 323L615.5 320L614.5 321.5L616 323L619 325.5L618 327.5L619 328.5H620.5L622 327.5L625.5 329V330L625 330.5L626 332.5L628.5 332L631 332.5L633.5 334L635 335.5L637 340.5L636.5 341L628.5 341.5L628 345H626.5L625.5 346L624.5 347.5L624 349.5L624.5 353L625.5 354.5V355.5H595L593 356.5L591 358L590 359V360.5H595L596 411H593L592.5 411.5L593.5 436H596L598 495H578.5L578 491V468.5L577 460.5V450.5L576 447L575 445.5L580 440.5L580.5 438.5L582 437L582.5 435.5L583.5 435L585 434.5L585.5 434L586 431.5L587.5 426L587 421L586.5 417L585.5 413L582.5 405L580.5 400.5L579 398L578 396L577.5 378L577 357.5L576.5 352L575.5 324L575 314V304.5L574.5 291L574 283V279.5L572.5 275.5L571.5 272L570 268L569 266L567.5 264.5L564 262L561.5 260L559.5 258.5L553.5 256.5L550.5 255H546.5L543.5 254L538 254.5L535 253.5L533 2.5L649 0H764L766.5 244ZM688.5 494.5H608L610 411.5L686 410.5L688.5 494.5ZM1150.5 394L1137.5 390.5L1124 387.5L1111.5 386.5V383L1106 381.5L1083.5 380H1069L1050.5 383L1046.5 381.5L1025.5 380H1006L1004 377.5L1002.5 0H1152L1150.5 394ZM424.5 244L423 244.5L416.5 247L414.5 248.5L408.5 250L401 252L393.5 254.5L390 255.5L384 256.5L380 257.5L374.5 258.5L369 260L365.5 261.5L362.5 263L359 265L350 274L349 276.5L348 281.5L347.5 289V344.5L347 355.801V376.5L338 377.5L327 379.5L316 383L303.5 385L295 386.5L285.5 389L279.5 389.5L273 390L262.5 391.5V12L424 5L424.5 244ZM969 372H965.5L961.5 371L959 370L955.5 369.5L951 369L949.5 368L947.5 367L945 366.5V364.5L944 351L942.5 279V274.5L941.5 270.5L940.5 267L939 264L937 260.5L934.5 258.5L930.5 255.5L928 253.5H927L925.5 252L923 250L919 248.5L916 247L913.5 246.5H908.5L903 245.5L895.5 244L889.5 243.5L885.5 242.5L882.5 242L878.5 241L874 0H965L969 372ZM656 348.5L655.5 352.5L656.5 354L656 355H634.5V354.5L633.5 353.5L634.5 352.5V348H655L656 348.5Z" fill="black"/>
</svg>
