<svg width="1280" height="720" viewBox="0 0 1280 720" fill="none" xmlns="http://www.w3.org/2000/svg">
<path d="M653.5 273L645 273.5V271L640 271.5V274.5H631.5L622.5 275L611.5 276L605 276.5L602 275.5L600.5 274.5L603 271.5L605 268L606.5 264L608.5 258L610 251L611.5 244L612.5 233.5V225.5V219.298L612 214.5L612.5 213.5L614.5 212L618.5 211L625.5 210L632 209L640 208L648 207L658 206.5H662L663.5 207L664.5 207.5L665.5 208L666 209.5V210.5L665.5 214.5V219.5L666.5 226.5L668.5 234.5L672 244.5L674.5 252L676.5 256.5L680 263L682.5 266.5L684 269L682.5 270L678 271L665.5 272L653.5 273Z" fill="#B3A3FF"/>
</svg>
