<svg width="1280" height="720" viewBox="0 0 1280 720" fill="none" xmlns="http://www.w3.org/2000/svg">
<path d="M1214.5 482L1210 477L1207.5 475.5L1207 473.5L1205 471.5L1203 467L1201 461L1198.5 457L1197 453.5L1196 448L1194.5 442L1192 435.5L1191.5 432L1190.5 428L1187 422L1184 418L1182 413L1178.5 408L1174.5 404.5L1171 402L1169 400L1166 398.5L1157 396L1150.5 394L1152 0H1216L1214.5 482ZM1002.5 0L1004 377.5H1002L1000.5 376.5L998 375.5H988L986 374.5L978.5 373L975 372H969L965 0H1002.5Z" fill="#FF0000"/>
</svg>
