<svg width="1280" height="720" viewBox="0 0 1280 720" fill="none" xmlns="http://www.w3.org/2000/svg">
<path d="M699 419L697.5 531L695.5 531.5L694.5 531H692.5L691.5 530L690.5 530.5L690 532L687.5 419.5L689 418V417L688 416V414L688.5 413.5L687.5 410.5L607.5 411.5V416L607 417.5L610 418V419L607 419.5L608 420.5L605.5 532.5L605 533.5H603.5L602 534.5L600.5 532.5H599L596 420L597 419V418L596 416.5V414V411L595 360.5H590V359L591 358L593 356.5L595 355.5L665 355H698.5L702 356.5L703 357.5L702.5 359.5L701.5 360H698.5L699 412.5L699.5 413L700 415.5L699 416.5L698 417V418L699 419Z" fill="#FF0088"/>
</svg>
