<?xml version="1.0" encoding="UTF-8"?>
<svg id="Layer_2" xmlns="http://www.w3.org/2000/svg" version="1.1" viewBox="0 0 1280 720">
  <!-- Generator: Adobe Illustrator 29.6.1, SVG Export Plug-In . SVG Version: 2.1.1 Build 9)  -->
  <defs>
    <style>
      .st0 {
        fill: #f22582;
      }
    </style>
  </defs>
  <path class="st0" d="M1285.53-5.52L116.2-7.08,18.27,97.24l574.79,70.25s-7.26-5.87-3.11-16.59c4.15-10.71,19.7-2.76,21.77,4.84l4.84.35,27.65,10.02,2.42,3.11v3.46l21.77,3.46-.69-21.43,2.54-.2-.49-80s-31.51-.37-42.09-11.32v-14.89s4.43-8.49,28.18-9.35c23.75-.86,33.97,0,33.97,0,0,0,22.65,1.6,28.31,10.83v14.52s-2.95,7.02-25.11,8.98l-16.49.74.12,80.25,2.22.49.12,22.77,115.57,13.54,4.43-4.18h4.18l5.66,5.66,41.37,5.11,98.16-20.62,338.44-71.04-1.27-111.5ZM867.84,123.89c-28.97,1.02-52.68-4.3-52.95-11.89-.27-7.58,23.01-14.56,51.98-15.57,28.97-1.02,52.68,4.3,52.95,11.89.27,7.58-23.01,14.56-51.98,15.57Z"/>
</svg>