<?xml version="1.0" encoding="UTF-8"?>
<svg id="Layer_2" xmlns="http://www.w3.org/2000/svg" version="1.1" viewBox="0 0 1280 720">
  <!-- Generator: Adobe Illustrator 29.6.1, SVG Export Plug-In . SVG Version: 2.1.1 Build 9)  -->
  <defs>
    <style>
      .st0 {
        fill: #15a5d1;
      }
    </style>
  </defs>
  <path class="st0" d="M893.96,410.41l-.02-1.76-.09-53.27,2.74-2.02,10-.19-.29,27.87-2.24,1.33,2.1.97.29,21.98-4.32.8-3.77,1.38-4.4,2.89ZM898.61,347.34l4.65-2.89,3.48-1.76-.35-89.18-147.42-1.25c-3.24-.23-4.52,3.39-4.52,3.39l-.13,251.93c3.11-1.2,5.65,1.2,5.65,1.2l7.49,7.65,1.28-243.54,124.96-.64.13,76.6v3.14s4.77-4.65,4.77-4.65ZM900.08,575.72l6.94-7.3-.14-154.75-3.25-.24-9.67.5v2.14s.38,222.29.38,222.29l2.07,1.28,4.94.16,5.1.16.28-64.34-1.56-1-5.1,1.12ZM758.23,542.4l1.12,1.43-.16,3.35-.48,1.75,7.81,10.04.32-24.75-8.29-11.11-.32,19.29ZM758.71,588.15l3.51,6.38-2.87.32,2.23,6.22,2.39,5.74-.16,3.83,2.71,4.94v-45.11l-8.29-12.59.48,30.28Z"/>
</svg>