<?xml version="1.0" encoding="UTF-8"?>
<svg id="Layer_2" xmlns="http://www.w3.org/2000/svg" version="1.1" viewBox="0 0 1280 720">
  <!-- Generator: Adobe Illustrator 29.6.1, SVG Export Plug-In . SVG Version: 2.1.1 Build 9)  -->
  <defs>
    <style>
      .st0 {
        fill: #15a5d1;
      }
    </style>
  </defs>
  <path class="st0" d="M905.19,574.6l1.56,1-.28,64.34-5.1-.16-4.94-.16-2.07-1.28-46.76-.68c-1.02-25.26-10.97-40.57-10.97-40.57l-69.14-80.68-7.49-7.65s-2.54-2.41-5.65-1.2l.13-251.93s1.27-3.62,4.52-3.39l147.42,1.25.35,89.18-3.48,1.76-4.65,2.89-4.77,4.65-2.36,2.69,2.38.71,2.74-2.02,10-.19-.29,27.87-2.24,1.33,2.1.97.29,21.98-4.32.8-3.77,1.38-4.4,2.89-5.29,3.98,5.29-.46,9.67-.5,3.25.24.14,154.75-6.94,7.3,5.1-1.12ZM766.84,534.23l-8.29-11.11-.32,19.29,1.12,1.43-.16,3.35-.48,1.75,7.81,10.04,52.42,78.68h10.29c.59-22.92-7.93-35.26-7.93-35.26l-54.45-68.16ZM766.52,570.46l-8.29-12.59.48,30.28,3.51,6.38-2.87.32,2.23,6.22,2.39,5.74-.16,3.83,2.71,4.94,3.93,11.22,3.23,11.17,37.32.88-40.26-61.71-4.23-6.67Z"/>
</svg>