<?xml version="1.0" encoding="UTF-8"?>
<svg id="Layer_1" xmlns="http://www.w3.org/2000/svg" version="1.1" viewBox="0 0 1280 720">
  <!-- Generator: Adobe Illustrator 29.6.1, SVG Export Plug-In . SVG Version: 2.1.1 Build 9)  -->
  <defs>
    <style>
      .st0 {
        fill: #a3f233;
      }
    </style>
  </defs>
  <g id="Layer_2">
    <path class="st0" d="M906.69,319.54l13.08,7.61,8-.2,6.64,1.95-8.98-11.13-6.44-.98-8.78-8-.2-3.12h7.42l7.61-3.9,6.25,1.17,2.73,1.17,7.61-4.1,10.54,2.93,3.9,4.68,15.22-1.95-3.9-6.05,1.56-.39,4.68,3.71s10.73-1.17,17.96,3.71l3.12-2.54,3.9,3.9-4.88,3.9.2,2.15,3.12-1.56,15.44.02-.45-220.85-647.32-1.99v65.35l2.12-2.89.74-1.06.25-16.37,139.21.24,1.64,184.39-140.95,1.23.5-155.37s-2.71.48-3.49-3.32v267.71l9.06-9.42,2.37-.83,3.2,1.78v-19.8l1.54-.83h59.27l.44,83.63-3.73,1.32-27.88-.44.66,3.29-.44,2.63s8.34,3.51,8.34,10.32,1.76,10.1,1.76,10.1h-3.29l-1.1,2.2s7.69,4.58,14.59.64,27.92-8.87,27.92-8.87l23.32,1.81s8.37-4.43,13.79-2.96c5.42,1.48,12.64,2.3,12.64,2.3l18.06-9.03s3.28-1.15,4.76,4.27c1.48,5.42.82,8.21,2.46,9.03s-1.15,5.42-1.15,5.42c0,0,11.33,0,13.63,1.97,0,0,4.6-.99,9.69-.99s12.15.33,12.15.33l3.28.99,5.09.16,3.61,1.81,4.11.16s10.02-1.64,12.15.99c0,0,3.12-1.31,4.76-3.12s9.2-.33,9.2-.33l6.4-.49,13.63-2.13,7.55.82,8.05-1.81,5.42,2.63,15.76.82,2.79,2.96,14.62,2.46,5.09-.49,3.45,3.78,7.06,1.15,3.45-1.97,11.17,4.27,6.57,5.75,9.2,6.73,2.96,4.27,6.08,6.24.82,4.6,10.02,13.47-.66-52.71s-1.24-8.99,5.91-10.87l.13-251.93s.5-3.51,4.52-3.39l147.42,1.25.29,66.03v-.02ZM442.37,396.15l-61,.17.17-69.17h60.83v69h0ZM550.67,482.85l-2.4.8-91.64-.27-2.93-.53.27-127.87,2.93-1.6,91.64.27,2.4,1.6-.27,127.61h0ZM572.78,340.85h-59.67l-.53-83.65,60.47.8-.27,82.85ZM515.5,250.27l-1.6-1.86-.27-110.03h120.68v111.09l-118.82.8h.01ZM624.73,265.19l-.27,37.56-37.3-.27.27-37.56,37.3.27ZM575.71,317.67l60.21-.53-.27,78.32-59.94.8v-78.59ZM576.24,482.31v-77.79l59.67-.27.8,78.32-60.47-.27h0ZM640.62,218.65l-.24-78.9,59.78-.24.97,78.9-60.5.24h-.01ZM733.31,485.35l-76.96-.48.48-111.09,76.48.73v110.84h0ZM742.03,356.36l-96.81-.48.73-128.51,96.32.24-.24,128.75ZM705.48,218.41l-.73-77.93,60.75-.24.24,78.17h-60.26ZM784.62,240.44l-.24-111.57,84.22-1.21.24,111.81-84.22.97ZM882.15,137.09l.97-4.36,101.65.73.24,101.16-102.86.73v-98.26ZM925.71,341.25l-7.33-.72,2.16,4.74-3.3,1.15-6.47-2.73-4.02-1.01-.14-20.83,13.22,7.18,4.6,7.04,8.33,4.89-2.59,1.44-4.45-1.15h0ZM948.27,360.36l.57,8.76-1.01,2.44-7.9-3.02-5.46.57-5.75-1.87-7.9,3.16h-9.77l8.33,9.77,5.6,1.44,3.3,6.03,2.59,2.87,4.17,8.19,5.75,7.9-2.16.57-2.59-2.87-3.45-9.63-8.76-8.33-9.48.43-8.05-5.75.29-27.87,3.3-.57,2.59-2.16,2.73.72-.72,2.44,2.59,1.15,2.59-1.29,2.59-.57,9.05,2.3,4.74,4.89,4.6.43,6.32,8.76-3.45-9.91,4.74,1.01h.01ZM970.97,366.97l-2.01,4.02-5.6.86-11.78.29,1.01-4.6-.86-7.18,3.59-2.01-1.29,3.88.43,4.6,2.44-5.17,6.03-1.58,3.74,4.89,3.45-.43.86,2.44h-.01ZM1012.5,320.49l-16.24,7.26-4.45,5.03-4.89-1.44-7.47,2.59-.57-4.02,4.31-4.02.57,2.73,6.61,1.29,1.87-4.31,13.22-9.34,6.75-1.58.3,5.82h0ZM994.68,345.56l12.93-8.48,4.89.11v3.19l-6.9.72-9.34,5.17-1.58-.72h0ZM912.63,407.78l-6.18-2.44-.29-21.98,5.75,4.17,5.6,3.16,4.74,7.33,8.19,7.47-.86,4.17-6.9-2.59-4.17-2.16-.14,2.3-5.75.57h.01ZM972.69,437.38v-5.75l-2.01-1.72,5.89-8.05,4.6-1.58,2.44-2.44,20.55.86.57-1.87,4.89-5.17-2.01-4.17-4.6-2.16-9.91-2.16-6.32,3.3-1.72-1.87-6.32-.86.86-2.3,8.33-4.45,17.24.43-3.88-3.88-7.76,2.01-2.73-.72-5.46,1.29-11.35-2.59,11.06-13.51,6.9-2.87-2.01-4.74-9.63.14-5.89-3.02,3.16-6.61,2.87-4.89,5.03,3.59,4.89-5.75,22.14.89v91.88l-10.35-3.54-13.94,4.45-10.06,6.75-2.44,1.01,5.32-6.9,2.44-6.9-8.19-2.01,13.22-9.91,14.37-3.88-2.73-3.3-2.87,2.3-13.08.43-11.49,10.2-.02.04ZM985.34,454.33l18.82-4.02,8.34,1.31v8.29l-7.05-2.55-10.49,1.44-12.79,6.18-5.89,6.18,8.05-12.36,1.01-4.45v-.02ZM957.75,458.21l-2.59,7.62,2.59,3.88-3.88-.57-4.6-4.31.86-14.51,7.62,7.9h0ZM953.15,448.87l-4.74-5.6v-6.47l4.17,4.6.57,7.47ZM964.65,418.27l3.45.14-.29,9.34-2.59-.57-.57-8.91ZM928.87,487.09l-.72,2.01,12.21,4.31,10.63,7.9-.43,13.79-13.79-5.17-6.75,2.01-1.15,3.02-5.32,4.74.29,5.03,4.6,4.02-6.03.86.29,5.32,7.9,7.18,7.04,3.59,1.58,5.03-7.04-1.29-2.01,2.59,7.62,3.02-7.9.86,3.88,3.3-1.29,4.6-3.3-1.01.29,2.44,3.74,7.62-6.03-1.87-10.06-6.18-5.32,1.01-4.74,2.59-.14-154.75,4.02,2.16,9.05-1.29,9.48,4.6.86,2.44-4.89,1.87,4.17,2.59,12.36,6.47,1.15,5.89-10.06-3.59-10.78,1.44,4.6,2.16,9.48,3.16,7.9,5.46,1.87,17.96-10.92-5.03-9.77-1.29-6.9,2.01-.72,2.16,11.49,1.01-3.16,3.16,7.18,7.47,7.76-.86,6.32-2.16.43,7.62-8.62-3.74-8.48-.29-2.3,3.3,6.61,2.01,13.94,9.2.43,4.6-13.36-6.32-7.18-.72v-.02ZM946.97,526.61l4.17,1.01-.14,11.49-4.31-7.62-5.6-4.17,5.89-.72h-.01ZM949.42,594l.86,13.51c-11.93,1.58-16.24,8.33-16.24,8.33l-27.3-.29v-39.94l9.48,1.01,4.31-1.15,5.03,2.3s-2.16,3.74-.29,7.33,14.22,4.89,14.22,4.89l9.91,4.02h.02ZM996.41,474.26l.27,3.2-21.88.93,1.33-2.67,4.27-3.07,12.28-.27,1.2.93,2.54.93v.02ZM1017.89,477.6l-19.62.27-.53-4.14,9.74-.13,6.94.4,3.47,3.6h0Z"/>
  </g>
</svg>