<?xml version="1.0" encoding="UTF-8"?>
<svg id="Layer_1" xmlns="http://www.w3.org/2000/svg" version="1.1" viewBox="0 0 1280 720">
  <!-- Generator: Adobe Illustrator 29.6.1, SVG Export Plug-In . SVG Version: 2.1.1 Build 9)  -->
  <defs>
    <style>
      .st0 {
        fill: #f431b9;
      }
    </style>
  </defs>
  <g id="Layer_2">
    <path class="st0" d="M364.72,89.69v65.35l-154.85-52.27c-1.41-4.73-4.14-9.21-9.44-8.49-10.73,1.48-8.76,7.48-8.76,7.48l-5.02-.3,5.71-11.32-1.77-1.48-5.12-.98-4.12,2.55-2.18-.12L169.09,2.59l-.09-.74.12.76,195.59,87.08h.01ZM362.22,177.17l.89,252.48-.02.02,1.63-.08V161.89l-1.43.99-1.07,14.29h0ZM320.59,145.73l-49.67-15.72-1.43,10.9-.54,7.5.07,11.06,52.23,14.64.24-9.79-3.75-16.44,2.86-2.14h0ZM208.29,110.58l1.5,2.38,1.59-.23s-.06-5.11-1.51-9.97l-2.18-.74.6,8.55h0ZM173.35,89.37l4.04,3.89-.28-2.73-8.25-80.3,4.3,75.75.19,3.4h0ZM170.71,83.99L166.21,1.3l-.04-.81-2.09-.6-.02.44-3.72,66.44v18.25l10.47.6-.09-1.64h-.01ZM154.79,77.85l2.54,3.14.25-4.51,2.15-39.17-4.59,37.69-.35,2.85h0ZM151.5,60.19l-2.4,11.15-1.04,4.86,4.04-.6.3-2.27,6.44-49.2-7.33,36.06h-.01ZM158.23,12.17l2.12-13.47.42-2.69-57.75.6.21,1.02,10.68,52.4.33,1.64.94-.87,1.01-.93,2.99,3.14,4.49-5.39-.6-2.69-2.54-.15-2.39-3.29,2.99-4.04h3.44l3.44,4.64-.45-3.59-3.14-3.74,1.8-1.95-.75-2.39-1.05-2.09-.45-3.14-2.69-1.8,1.5-3.14,7.03-7.18,2.39-.6-2.69,9.58v5.69l5.24-3.44,3.29,2.54.45,5.98-5.69-4.34-3.44,2.39v4.94l5.24-2.69,5.84-.45,1.65-3.44-.3-2.09,2.84,4.49-2.54,4.64,1.65.9-1.05,5.84-2.99-1.65-6.13,3.74.9,1.8,4.34.15,2.84,2.09-6.28-.75-1.8,3.14-4.49,4.49,7.48-2.24,3.14,3.44-.3,5.69-4.94-4.49-5.25.89-6.27,1.06,23.04,10.32.41-.98,1.09-2.61,7.78-34.41,2.99-20.5-.02-.02ZM86.49,26.62v3.63l5.08-3.34-8.42-6.39,3.48-2.03,2.32,1.6,1.6,3.34.58-7.12-5.95-4.79,7.55,1.6-1.16-3.34-4.21-4.65,3.19-6.39,6.24,7.26,5.37,1.16,1.74,2.32-5.95,2.18,2.18,6.68-7.26-.44-.73,6.68,5.52-5.23,2.32,1.02-2.9,6.1-3.19,1.02v3.05l2.76,1.02-2.9,2.32.7,4.35.61,3.78.97-2.82.48-1.39.58-3.34,1.6-4.07,2.76,1.16-.15,2.32-2.18-.15v4.21h3.05l-.87,2.18-2.03.58-.06.41-.96,6.99,14.09,2.03-.24-1.22L102.05-2.37l-.61-3.1-18.01-.15-.21,3.17-1.83,28.05,1.6-3.19,3.48,4.21h.02ZM69.06,23.57l5.66,6.24.41-3.28,3.37-27.07-3.92-.58-5.38,24.06-.14.63h0ZM67.37,21.84L71.82-.97,30.64-.41l-1.51.02,37.9,23.96.34-1.74h0ZM88.56,598.32l-26.13,12.18-.51,18.77,5.58-1.78,3.3-2.03,17.25-7.61,20.04-11.67,4.57-1.27,11.92-7.87-4.82-12.69-31.21,13.95v.02ZM168.92,421.31l-.06,30.59,32.52-8.32,3.4,3.4,3.03,5.29,2.65-1.13-.48-34.57-41.05,4.74h0ZM206.42,116.28s1.65,3.54-4.96-.71-11.57-1.89-11.57-1.89c7.32,6.38,8.26,13.7,8.26,13.7l-4.72-3.68c4.16,21.93-.38,43.86-.38,43.86-3.78,18.91-23.07,16.64-23.07,16.64l-1.13,10.21,4.54,59.37,1.51,16.26h-5.67l-.29,137.98,40.93-4.09.4-91.68,1.39-109.97,2.39-69.8-2.39-16.51-1.88-2.99-5.02.72,1.65,2.6v-.02Z"/>
  </g>
</svg>