<?xml version="1.0" encoding="UTF-8"?>
<svg id="Layer_2" xmlns="http://www.w3.org/2000/svg" version="1.1" viewBox="0 0 1280 720">
  <!-- Generator: Adobe Illustrator 29.6.1, SVG Export Plug-In . SVG Version: 2.1.1 Build 9)  -->
  <defs>
    <style>
      .st0 {
        fill: #31bff7;
      }
    </style>
  </defs>
  <path class="st0" d="M1130.75,514.47v-16.17l7.39-.8-1.6-5.19-.4-4.79-71.01-18.23,1.32-147.72,148.6-11.43.96,24.42,45.93,1,.6,80.67-3.79,1.6-42.53,1,.6,12.78,25.16,13.38s6.59,4.99,7.59,16.97c1,11.98,2,23.16,1.8,40.74-.2,17.57-1.2,29.55-1.2,29.55l39.47,10.93,1.88-555.94-146.37,9.46-133.09,95,.45,215.55v5.3s0,7.96,0,7.96l.63-.12,6.39,2.8,1.4,2h5.99l-4.59,3-6.59.4-1.6,2,.6,2.6,4.19.8,1.8,2.4-8.22.85v3.19c2.63.36,6.24,1.79,6.62,6.94l-3.39,5.19v3.59l-3.23.68v91.88l4.82,2.28-4.82.65v8.29c3.71,3.28,5.62,9.63,5.62,9.63l-.2-4.39,4.79,1.4,8.19-2.2,6.59,3.79c2.4,4.79,1.8,9.78,1.8,9.78l29.75.8,1.8,1.4,5.79-.4,28.36,7.39,18.17,8.39-4.35,18.62,9.78,2.32-.03-1.37,2.2-.6ZM1075.68,181.75l114.75-47.48,14.07.44.44,163.55-15.83,2.2-114.31,9.67.88-128.38Z"/>
</svg>