<?xml version="1.0" encoding="UTF-8"?>
<svg id="Layer_2" xmlns="http://www.w3.org/2000/svg" version="1.1" viewBox="0 0 1280 720">
  <!-- Generator: Adobe Illustrator 29.6.1, SVG Export Plug-In . SVG Version: 2.1.1 Build 9)  -->
  <defs>
    <style>
      .st0 {
        fill: #e47bef;
      }
    </style>
  </defs>
  <path class="st0" d="M964.06,672.89l.33-186.21-7.21-2.62.66-5.25,60.06-1.22,2.85,2.45-.37,2.09,2.96.74.07,4.73,2.18-.09-.09-4.83,18.36-.28-.51,9.15,28.31,9.44h28.31l-4.22,18.85,15.45,10.46,4.44-.18,7.61-35.16,7.53,3.34-.47,16.06-1.22.57.19,4.05,12.71,3.11,13.94.38.28,6.31,7.93,5.03,23.22,4.26,29.99,2.13,25.54-.39,6.19-2.9,1.11-4.65,39.47,10.93-4.8,181.2-234.47-.7-75.72-65.6-.7,17.1-6.98.35-2.9-2.63Z"/>
</svg>