<svg width="1280" height="720" viewBox="0 0 1280 720" fill="none" xmlns="http://www.w3.org/2000/svg">
<path d="M50 112.5L49 127.5L152 163L153 455H123.5L119.5 469.5L106.5 471L104 480.5L71.5 481.5V468.5L68.5 466.5L35 467.5L32 461.5H0V115L15 122L15.5 103.5L0 95.5V87L50 112.5ZM187 476.5L156 478L157.5 455H156L155 371L187 370.5V476.5ZM318.5 378V457.25L317.5 452L316 450H309.5L308.5 451L309.5 456V458L315.5 458.5L316.5 459V460.5L309.5 461V464.5L311 466H318.5V468H309L291 469L286.5 469.5L286 470L286.5 471L288 472.5L288.5 477L264.5 477.5V375H268.5V374L318.5 378ZM356.5 413L354.5 417L350.5 419H349.5V416.5L349 414L347 411.5V364.5H350L356.5 363.5V413Z" fill="#FF0000"/>
</svg>
