<svg width="1280" height="720" viewBox="0 0 1280 720" fill="none" xmlns="http://www.w3.org/2000/svg">
<path d="M291.5 356.5L320 358.5V359.5H318.5V378L268.5 374V369L264.5 368.5V355L291.5 356.5ZM1280 142L1262 144L1178 156.5L1111 166.5L1049 176L974 187.5L884.5 202V200L872.5 189.5L867.5 190.5V182.5L854.5 175L806.5 157.5L738.5 145L668 138.5L603.5 137.5L539 141L470 150L428 161.5C412.833 166.667 378.1 180.9 360.5 196.5V203.5L356.5 203V363.5L350 364.5H347L331 361V220L329.5 218.5L187 195V370.5L155 371V167.5L340 201V196.5L152.5 163L49 127.5L50 112.5L0 87V0H1280V142ZM69 131.5L70.5 133L169.5 153L172.5 153.5L174 154L262 172.5H263L267 173.5L344.5 190.5L345.5 188.5L267.5 171.5H265L263 170.5L174.5 152L69 130V131.5ZM0.5 54.5L80 78.5L195.5 114.5L200.5 116.5L286.5 143.5L297 146.5L329 157L374 171.5L376 170L297 144L198.5 113L80.5 76L0.5 50V54.5ZM303.558 164.045C301.431 163.641 299.549 164.148 299.354 165.177C299.158 166.206 300.723 167.368 302.85 167.771C304.976 168.175 306.858 167.668 307.054 166.639C307.249 165.61 305.684 164.449 303.558 164.045ZM864 166L867.5 167.5L1279.5 32.5V27.5L864 166ZM950.955 160.402C950.79 159.31 948.885 158.693 946.701 159.023C944.517 159.354 942.88 160.506 943.045 161.599C943.21 162.691 945.115 163.308 947.299 162.978C949.483 162.647 951.12 161.494 950.955 160.402ZM1132.27 154.929C1131.91 153.311 1128.12 152.775 1123.81 153.73C1119.5 154.686 1116.29 156.773 1116.65 158.391C1117.01 160.008 1120.8 160.545 1125.11 159.589C1129.42 158.633 1132.63 156.546 1132.27 154.929ZM98 0.5L420.5 153.5L424 152.5L108.5 0.5H98ZM1050.85 133.983C1049.74 128.534 1035.54 126.817 1019.12 130.15C1002.7 133.484 990.294 140.604 991.4 146.054C992.507 151.504 1006.71 153.219 1023.13 149.886C1039.54 146.553 1051.95 139.433 1050.85 133.983ZM213.796 138.79C207.927 137.609 202.85 138.233 202.457 140.186C202.158 141.672 204.66 143.499 208.461 144.808L210 147.5L211 148.5L213 149.5L215.5 149L216.606 146.418C220.508 146.642 223.418 145.924 223.712 144.465C224.105 142.512 219.665 139.972 213.796 138.79ZM1088 0.5L809 148L813.5 149L1098.5 0.5H1088ZM342.98 139.064C340.654 138.623 338.596 139.169 338.384 140.284C338.172 141.4 339.886 142.663 342.213 143.104C344.539 143.546 346.598 143 346.81 141.885C347.021 140.769 345.307 139.506 342.98 139.064ZM316 0.5L483.5 138L488.5 137L324 0.5H316ZM900.786 133.948C900.501 132.691 898.408 132.093 896.111 132.614C893.814 133.135 892.184 134.577 892.469 135.835C892.754 137.092 894.847 137.689 897.144 137.168C899.44 136.647 901.071 135.206 900.786 133.948ZM872.5 0.5L736 134.5L741 135L881 0.5H872.5ZM504 0.5L563.5 128.5H569L511.5 0.5H504ZM684 0.5L650.5 127.5L656.5 128L692 0.5H684ZM279.625 104.354C263.832 100.678 249.96 102.288 248.642 107.95C247.323 113.613 259.058 121.184 274.851 124.86C290.643 128.537 304.515 126.927 305.834 121.265C307.152 115.602 295.418 108.031 279.625 104.354ZM408.062 115.501C405.736 115.059 403.624 115.889 403.346 117.354C403.068 118.818 404.728 120.364 407.055 120.806C409.381 121.248 411.493 120.418 411.771 118.953C412.049 117.488 410.389 115.943 408.062 115.501ZM822.906 111.593C822.582 110.161 820.456 109.422 818.159 109.943C815.862 110.464 814.263 112.047 814.588 113.479C814.913 114.91 817.038 115.649 819.335 115.128C821.632 114.607 823.23 113.024 822.906 111.593ZM498.811 98.4707C496.457 98.2108 494.416 99.2016 494.252 100.684C494.089 102.165 495.864 103.577 498.218 103.837C500.572 104.097 502.612 103.107 502.776 101.625C502.94 100.143 501.165 98.7306 498.811 98.4707ZM723.289 97.3916C723.093 95.799 720.878 94.7613 718.341 95.0732C715.804 95.3853 713.906 96.9288 714.102 98.5215C714.297 100.114 716.513 101.153 719.05 100.841C721.587 100.529 723.485 98.9844 723.289 97.3916ZM606.31 91.4355C604.095 91.4627 602.313 92.6023 602.33 93.9814C602.347 95.3606 604.156 96.4569 606.371 96.4297C608.586 96.4024 610.368 95.262 610.351 93.8828C610.333 92.5038 608.524 91.4084 606.31 91.4355ZM908.309 65.9404C906.605 57.5505 890.236 53.7927 871.748 57.5469C853.26 61.3011 839.653 71.146 841.356 79.5361C843.06 87.9261 859.43 91.6838 877.918 87.9297C896.406 84.1754 910.012 74.3305 908.309 65.9404ZM466.403 41.7295C449.243 38.5783 433.941 43.5983 432.225 52.9424C430.509 62.2866 443.029 72.4162 460.189 75.5674C477.349 78.7185 492.651 73.6983 494.367 64.3545C496.083 55.0104 483.563 44.8808 466.403 41.7295ZM140.569 60.3105C136.948 59.3476 133.693 59.7706 133.298 61.2559C132.903 62.7413 135.518 64.7264 139.139 65.6895C142.76 66.6525 146.015 66.2286 146.41 64.7432C146.805 63.2578 144.19 61.2736 140.569 60.3105ZM1131.48 38.6406C1130.89 36.8015 1126.73 36.4978 1122.2 37.9629C1117.67 39.4281 1114.48 42.1071 1115.08 43.9463C1115.67 45.7855 1119.83 46.0883 1124.36 44.623C1128.89 43.1578 1132.08 40.4797 1131.48 38.6406Z" fill="#4400FF"/>
</svg>
