<?xml version="1.0" encoding="UTF-8"?>
<svg id="Layer_1" xmlns="http://www.w3.org/2000/svg" version="1.1" viewBox="0 0 1280 720">
  <!-- Generator: Adobe Illustrator 29.6.1, SVG Export Plug-In . SVG Version: 2.1.1 Build 9)  -->
  <defs>
    <style>
      .st0 {
        fill: #e219f7;
      }
    </style>
  </defs>
  <g id="Layer_2">
    <path class="st0" d="M240.68,460.9c.05-1.33-1.06-4.46-1.06-4.46,0,0,4-1.84,5.19-1.98,1.2-.14.78.64.09,3.17s-4.23,3.26-4.23,3.26h0ZM231.57,439.33l2.07-3.59-2.11-.51.05,4.09h-.01ZM235.48,474.87s.92-3.17,2.25-6.16,1.1-5.65,1.1-5.65c0,0-6.9,3.77-9.52,5.15-2.62,1.38-2.62,3.59-2.62,3.59l2.3.64,6.48,2.44h0ZM236.36,438.37s-1.01-1.47-1.52-1.66l-2.48,4.55s.37,3.17.09,4.78l3.91-7.68h0ZM211.04,405.77l1.83,6.9,1.06-9.75,1.11-7.2s-.89-.17-.89-1.7.13-1.79-.21-2.47-.26-1.15-.26-1.15l-2.6-.17s-1.49-.13-2,.6c0,0,3.32.43,3.71,3.71.38,3.28.17,6.13.17,6.13,0,0-.6,3.07-1.92,5.11h0ZM228.14,402.69l1.61,2.53,1.91-2.17-3.52-.36ZM220.79,404.11c-2.51-2.26-2.68-7.62-2.68-7.62l-1.75.72-1.36,7.75-.85,10.65.43,2.9,2.98.21-.17-3.88.51-1.66.72-.38,4.73.64,2.73-2.68s-2.77-4.39-5.28-6.64h0ZM222.75,463.01l1.61,2.02.83-.69.37-2.76-.05-2.02s-1.98,1.24-2.76,3.45ZM228.12,413.9s.23-2.43-.91-2.79l-1.32,2.65,2.23.14h0ZM240.08,436.12l-5.2,11.08c4-1.01,9.24,1.2,9.24,1.2l1.66-1.15c-2.99-2.94-5.7-11.13-5.7-11.13h0ZM230.35,406.44s.91,2.86,0,5.02,1.53,1.81,1.53,1.81l5.44-5.23s.63-3.55,2.3-5.85c0,0-2.65-2.58-2.58-7.18,0,0-2.58,7.66-6.69,11.43h0ZM227.94,467.52l10.9-5.56c.37-2.21-.92-4.83-.92-4.83-.74.87-4.37,1.61-4.37,1.61l-3.4,3.63c-.09.92-1.79,2.16-3.4,4.37s1.2.78,1.2.78h-.01ZM207.42,391.03l-.43-.55-2.47-.55-2.85-.09s-.22,1.97-1.75,3.07l3.19,7.75s-1.02-4.94.68-7.45,3.62-2.17,3.62-2.17h.01ZM226.49,394.24s5.13,2.57,5.82,8.06c0,0,2.57-4.94,3.42-7.47.86-2.53,1.61-3.52,1.58-5.4s0-4.24-.43-4.77-.79-2.24-.26-3.32c0,0-1.74.16-2.2,1.25l.82-1.88.33-1.68-3.26.76-2.01.79.82,1.68.53,1.02,2.14.1-1.97,1.74-1.84,2.4-1.35.69-.03.49.63.23-1.12,2.99-1.61,2.3v.02ZM223.02,470.82s.05-2.66-.6-3.85c-.65-1.19-.49-2.93-1.25-4.18s-9.99-11.7-19.43-16.5l-.27,4.26,1.09,2.01,2.61,3.26-.33.54-2.33-2.71s1.52,6.3.27,10.58c0,0-4.13-5.37-5.27-9.2,0,0,2.17,10.53-5.21,20.52,0,0,15.14-8.03,30.72-4.72h0ZM181.32,479.35c-1.68-.16-3.91,2.63-3.91,2.63l.16,2.71,5.18-3.51-1.44-1.83h.01ZM238.17,494.47l-.56,3.67-.4,6.94.88,2.15.96,3.75,2.39,4.71,2.79,4.71,3.43,5.02.8-5.9,1.75-6.38.24-.88-1.04-.72-1.6-.88-2.15-2.71-2.87-4.79,1.75-.08-6.38-8.61h0ZM256.67,395.73l-15.73,11.39-2.07,2.49,2.97.37-2.22,1.96-3.87,2.59,1.17.53,8.26.64s1.27-5.83,6.14-5.3,5.77,1.01,5.77,1.01l6.51-5.51s-5.88-4.02-4.13-10.59l-2.81.42h.01ZM285.68,385.45l-4.03,2.95,6.75-.16-2.73-2.79h.01ZM282.04,382.13l-.75.36h-.84l-.65-.88-5.94,1.72-1.49,1.46-3.41,2.79c1.49-.65,2.5.19,2.5.19l-.88,1.92.84.65,3.12-1.2,4.48-.13,1.3-1.1,4.41-3.28c-.19-1.75-2.69-2.5-2.69-2.5h0ZM269.64,377.82s-3.99-.03-4.28.49c0,0,4.74,2.5,5.52,3.6,0,0-.16-3.18-1.23-4.09h0ZM260.49,381.23s5.78,3.96,6.95,5.81c0,0,3.47-2.66,3.54-3.64,0,0-4.54-2.89-8.76-3.86l-1.72,1.69h-.01ZM498.07,506.68l-.58-10.62c0-8.73,1.15-20.25,1.15-20.25,0,0-4.45-.58-5.93.33-1.48.91-5.76,2.88-8.56,1.89s-7-.25-10.54,1.48-7.49,1.15-10.45.25c-2.96-.91-7.08.49-7.08.49.43,1.32-.04,5.21-.04,5.21l-.72,5.76v6.87l1.31,12.5.81,11.31-.25,14.45,3.86-.55,3.35-.85,29.58-4.83s-2.29.17-4.58-.85c-2.29-1.02-2.8-4.45-2.8-4.45l-1.19-6.91s-.89-4.28-.81-6.27c.08-1.99-.42-7.29-.42-7.29l-11.99,1.57.3-20.89s10.72-.97,11.48-.97.64.93.64.93l-.13,13.6c.3.72,1.82,8.43,1.61,12.76-.21,4.32.97,6.44,1.44,11.61s3.3,5.86,6.42,5.61c3.13-.25,5.52,1.23,5.52,1.23l-.99-10.29-.41-12.84h0ZM178.38,445.77l1.7-.14-.37-3.36-1.24-.69-.09,4.18h0ZM265.69,534.27l-2.15-4.47s-1.44-4.63-3.03-5.5c-1.6-.88-8.37-9.49-8.37-9.49,0,0-3.19,7.18-2.31,16.19l3.59,7.34,3.67,7.98,8.21-3.19,2.55-1.2.48,1.04-3.19,1.75-6.78,2.95.96,1.91,11.01-2.95-1.12-4.55-3.51-7.82h-.01ZM445.25,480.54l.24-3.48-4.08-4.08c-2.52,7.67-.96,17.03-.12,18.59s1.44,12.11,1.44,12.11l.72-10.31,1.8-12.83ZM177.57,480.86s3.83-3.99,8.38-3.67c0,0-3.27-2.39-5.18-7.74-1.91-5.34-1.75-10.53-2.87-12.68l-.32,24.09h-.01ZM251.3,548.3l-.65-2.6-1.3-2.52s-3.09-8.53-5.12-13-5.2-9.18-7.31-12.59c-2.11-3.41-3.9-10.48-3.9-10.48l-4.63,6.01s-.16,7.47-1.14,14.13c-.97,6.66-5.28,9.58-5.28,9.58l-.81,1.46-.97-1.46-2.44-3.9c-2.68-7.96,1.3-14.3,1.3-14.3-5.12-5.77-1.71-10.97,2.84-13.89s10.07-1.3,10.07-1.3l.97-3.66.16-3.57-.24-4.71v-4.47l-.16-5.69-.81-3.25-1.38-.24-.97-.81c-1.22.57-3.01.08-3.01.08-2.92-.97-3.41-4.71-3.41-4.71-16.57-5.04-33.31,5.85-33.31,5.85,10.07,6.34,6.99,18.69,6.99,18.69,1.79,6.82.49,14.3.49,14.3l-1.62-6.5-2.27-6.34-2.27-4.06-4.87-3.9-1.95-2.92-2.27-2.27-4.06.49-.33,17.39.65,21.61-.49,10.56.16,15.27.81,23.24.81,11.05,49.24-8.94-1.06-1.66c0-4.39.41-8.12,5.2-13.08,4.79-4.95,19.17-9.42,19.17-9.42l-.49-1.95c-1.46-.32-.32-1.54-.32-1.54l-.02.02ZM194.55,383.6l-.92-2.56-4.16,2.71,5.07-.14h0ZM903.38,416.6l-4.95-.1-4.03-1.11-7.08-1.63-2.53-.34-3.47-.73-2.23.09-3.73-.81-2.02.34-1.54-.56-6.26-.77-6-1.84-4.42-.13-3.73-1.37-5.53-.9.09-6.3,3.95-.43c.17-2.36-.81-2.49-.81-2.49l-15.14-2.53s-14.84-1.54-17.84-2.57-6.3-.04-6.3-.04l-3.09-6.35-.26-1.5-2.02-4.72s-3.08-7.16-3.93-8.81.8-1.7,1-2.51c.2-.8-1.15-3.46-1.15-3.46,0,0-1.7-4.51-2.96-5.51-1.25-1-3.81-4.21-4.81-5.91s-3.86-2.25-3.86-2.25l.1-10.17s.3-8.62,0-10.92,0-8.02,0-8.02l.3-8.57-.2-3.76-.2-2.2s.6-2.96-.3-5.96c-.9-3.01.3-2.61.1-4.31s-2.61-3.91-5.11-6.26c-2.51-2.35-7.11-.95-7.11-.95l-3.96.4-.05-.8-1.95-.05c-9.92-3.56-20.29-.55-20.29-.55-15.08-4.81-26.65-.65-26.65-.65-3.71-1.65-9.67-2.15-9.67-2.15l-.1-12.93c1.15-.9-.2-1.6-.2-1.6l.15-14.78c6.26-2.4,5.26-7.77,5.26-7.77,1-.3,2.2-2.71,2.2-2.71l1.3-2.2c2.2-2.2,3.66,1,3.66,1,0,0,1.15,2.71,1.2,3.86s1.5,3.21,1.5,3.21c0,0-2.71.55-4.21,1s-1.8,3.16-1.8,3.16c0,0-2.3,15.78-2.96,18.39-.65,2.61,1.4,2.71,1.4,2.71,11.02,1.6,19.24-.75,20.74-1.4s1.4-.95.2-7.01-4.11-15.33-4.66-16.33-4.81-.7-4.81-.7l-1-.75s-1.7-3.46-2.56-3.81-1.3-3.06-3.66-4.81-4.51,1.2-4.51,1.2l-1.5,2.45-.75,1s-.65-6.16-6.11-6.16-6.81,5.21-6.81,5.21c-1.2,9.17,4.91,10.47,4.91,10.47l.55,29.31c-8.62.15-11.77,2.25-11.77,2.25-14.83-6.31-25.2-.8-25.2-.8-12.47-6.46-27.45-1.55-27.45-1.55-14.03-5.26-28.11,1.05-28.11,1.05-14.03-6.96-30.21-.3-30.21-.3-5.56-3.76-20.64-2.86-20.64-2.86l.4-8.92.75-26.7c2.4-.2,3.16-1.65,3.16-1.65l-1.3,5.16-2.3,13.83-.05,3.56,1.1.4s23.7.35,24.35-.2c.65-.55-.15-4.71-.15-4.71l-3.41-15.53s-.95-3.81-1.95-5.16-4.51-.8-4.51-.8c-.1-.45-1.2-.75-1.2-.75.3-.75.2-1.8.2-1.8l-1.4-3.46-1.05-1.1s-.9-5.21-3.21-5.41-3.26,2.66-3.26,2.66c-2.71-3.06-6.16-2.86-6.16-2.86-7.92.8-8.27,7.46-8.27,7.46-.5,9.22,6.81,10.27,6.81,10.27l-1.3,36.17c-2.56.25-7.46,2.23-7.46,2.23-16.54-8.4-30.72-.96-30.72-.96l-2.01.61c-12.52-3.41-14.88-1.4-17.33-.44-2.45.96-2.71,2.89-4.03,3.41-1.31.53-1.84,7.61-1.84,7.61,0,0-1.23-.09-.53,2.19s-.26,5.43-.26,5.43c-1.05,4.2.79,4.55.79,4.55.44,3.24,2.01,6.39,2.01,6.39,0,0,.79,3.41,2.1,4.03s1.05,3.15,1.05,3.15l.44,44.29v58.03l-1.49-.53-74.84,6.39c-2.8.09-2.71,3.41-2.71,3.41l5.29,3.76-.06,28.91c-3.97,8.88-5.48,23.43-1.13,39.86,4.35,16.44,3.4,32.87,3.4,32.87l-116.38,20.4-4.68.9c3.57-3.24,1.37-8.5,1.37-8.5-2.25-7.23-9.72-7.65-9.72-7.65-10.91-1.9-29.69.77-29.69.77l-.3-.89-1.48-4.45-3.38-7.41-3.32-7.76-4.98-9.72-2.67-3.73.59-.53,3.79,1.13,5.93.77.53-1.01-8.95-2.13-1.01-.65-2.31.3-5.39-5.93-.53-1.96-.89-2.37-3.67-3.85-5.51-3.56-.65-1.3-1.24-4.56.12-2.96,23-2.37-.12-1.01-22.88,1.84.24-1.6.53-3.56,1.01-.47,8.12-.53,9.6,1.6,6.22,3.32,8,5.22,5.39,5.27,5.39,7.82-4.27,2.67-5.93,5.57-2.25,4.45.47,3.85,2.13-2.79,5.22-5.63,5.04-6.46c.3,1.07,3.14,4.86,3.14,4.86-.12.59-.12,2.55-.12,2.55-2.02,1.3-4.33,5.99-4.27,9.6.06,3.62,3.44,7.05,4.33,7.41.89.36,1.48,2.02,1.48,2.02,0-1.36,2.84-3.5,2.84-3.5l1.54-2.25,2.84-3.02,1.78-2.37s.06.53.41,3.97c.36,3.44,2.43,7.59,3.02,8.36.59.77.95,1.48,1.84,1.72.89.24,1.84,2.55,1.84,2.55l1.72-3.44,1.42,3.67,3.56,6.58v-8.18c0-3.32-1.42-6.76-1.42-6.76,1.42-5.81-.24-10.85-.24-10.85-3.56-8-9.9-7.76-9.9-7.76.3-5.93-5.99-4.39-5.99-4.39-1.9-1.66-4.39,0-4.39,0,.47-5.87-5.16-2.67-5.16-2.67-2.19-3.73-6.87-10.13-6.87-10.13-17.01-18.53-37.06-13.48-37.06-13.48,0,0,.66-2.73,1.7-5.1,1.03-2.36,5.39-11.08,5.39-11.08,0,0,5.32-1.77,6.21-1.77s1.48,1.4,1.48,1.4c.59-1.03.74-2.36.74-2.36,0,0,1.92-.74,3.77-1.48,1.85-.74,3.92-.15,5.32.81s1.7.07,4.36.52,11.82,6.94,12.12,7.54c.3.59,8.42,7.17,11.89,9.75,3.47,2.59,5.84,6.28,5.84,6.28l-.15-1.77c-.74-3.92-6.8-9.09-9.83-12.49s-10.86-9.75-10.86-9.75c3.62.66,8.79,3.1,9.68,4.14.89,1.03,2.81.81,2.81.81,2.29.66,8.87,4.21,8.87,4.21,0-2.81-15-11.67-15-11.67-2.51-1.7-7.76-3.47-11.38-5.02s-8.13-.22-8.13-.22c.22-1.18-.59-.66-3.4.52s-2.59,3.25-2.59,3.25l-2.66,1.77s.15-2.81.15-4.51,1.33-.15,2.36-.15,2.88-1.63,4.95-4.36c2.07-2.73,2.36-4.51,2.14-4.95s-7.24-.44-7.24-.44l2.51-4.8,2.73-8.05c9.09-3.32,15.44-8.57,15.44-8.57l1.63,1.99c.74,4.36,5.76,7.31,5.76,7.31,1.99,1.26,4.29,4.36,4.29,4.36,0-1.99,1.33-1.92,3.62-3.84,2.29-1.92,2.44-6.21,2.44-6.21,1.03.3,6.06,5.02,6.06,5.02l13.08,12.86s-3.77-8.64-6.43-11.23-4.06-1.11-5.91-3.69c-1.85-2.59-6.5-4.21-6.5-4.21l-.59-1.63,5.84,1.63,9.97,8.2,7.17,7.54s-.59-3.69-3.84-7.39c-3.25-3.69-10.42-7.61-10.42-7.61-1.48-1.26-8.94-3.62-8.94-3.62-2.22-1.18-11.08-1.11-12.63-1.99s-2.07,1.4-2.07,1.4c-1.63-1.11-4.29-.89-4.29-.89-5.47-3.4-11.67-.59-11.67-.59-1.77-3.84-5.84-2.88-5.84-2.88-.52-.52-2.96-.74-2.96-.74l2.88-2.22s1.85-1.63,3.03-1.63.74,2.44.74,2.44l1.11-1.85s3.92-2.14,6.72-5.61c2.81-3.47,2.07-7.02,2.07-7.02,0,0,2.59-2.51,2.66-2.81s1.77-1.18,2.36,1.18,2.44,1.63,3.55,2.59,6.58,5.47,8.87,5.54,6.28,2.29,6.28,2.29c3.1-7.09.52-9.46.52-9.46,2.07,0,5.39,2.59,5.39,2.59-1.03-2.73.59-2.51,1.4-6.13s-6.28-9.6-6.28-9.6c2.88.22,4.8,2.44,5.69,3.69.89,1.26,10.05,8.57,12.12,8.57s5.39,2.66,6.94,2.73,3.32.89,5.91.81c2.59-.07,3.18,2.29,3.18,2.29,0,0,.89-.66.44-4.88s-2.96-6.8-6.43-9.31-8.27-4.36-9.31-5.32c-1.03-.96-2.81-.96-2.81-.96l-6.28.59-4.65.22-3.99-1.63s5.69-.89,7.68-1.63,3.69-.22,3.69-.22c-.44-.81-2.96-1.7-2.96-1.7,0,0,11.38-.66,13.52-.22,2.14.44,12.19.07,15.52-.37,3.32-.44,5.02-1.4,5.02-1.4-3.03-1.92-7.46-2.22-12.63-3.55s-12.49-.44-12.49-.44c0,0-3.03-.81-6.5-1.18s-6.43,1.26-6.43,1.26c0,0-3.92.59-8.87,2.07-4.95,1.48-7.76,3.77-7.76,4.8s-.89,1.55-.89,1.55l-8.13,2.29c-1.18-.66-1.85.52-1.85.52l-4.58,1.85,4.21-6.5,7.46-3.99,7.09-3.18s.3.66,1.63,1.18c1.33.52,1.11-1.7,1.11-1.7,0,0,5.47-1.03,4.06-2.29s-5.47-1.77-6.8-1.77-2.36,2.07-2.36,2.07l-3.47,2.81c-2.51-.07-5.84,1.48-5.84,1.48l-2.96.66-2.14-1.48c-2.51,2.88.37,5.17.37,5.17-.15,1.92-3.99,7.39-3.99,7.39-.22-1.63-1.7-4.14-1.7-4.14,0,0,.89-.52,1.03-1.77s1.48-.74,1.48-.74c0,0,.59-1.63-.52-1.92-1.11-.3-4.65,2.07-4.65,2.07-1.4-1.4-5.25-2.44-5.25-2.44-1.26-.52.59-1.48-.66-3.32s-7.09-1.48-7.09-1.48c-5.02-1.92-13.52,1.11-13.52,1.11l-4.88,1.11c5.91-4.21,10.49-4.65,10.49-4.65,4.88,2.36,6.94.44,8.5,1.03,1.55.59,9.53.89,11.38.66,1.85-.22,3.1.74,3.1.74-.66-1.26,1.48-2.44-1.18-5.02-2.66-2.59-12.04-.81-12.04-.81l3.92-1.33s5.17-.22,10.34-1.7c5.17-1.48,11.6-.3,11.6-.3,0,0-3.1-1.18-8.64-1.11s-13.52,2.22-13.52,2.22l-4.43.66-1.48.22-2.81,1.63c-9.31.44-15.96,4.29-15.96,4.29,0,0-.59-.81-1.11-1.99s-1.33-.37-1.33-.37l-4.43.66c1.48-9.09-3.32-14.78-3.32-14.78l-4.51-6.06,9.38-.3c2.14,0,1.85-2.81.3-2.96s-1.4,1.26-1.4,1.26c0,0-8.72-.3-9.75.66s-.74,2.22,4.14,7.83,3.32,14.26,3.32,14.26l-7.51,2.12.3,2.42.3,2.12,4.41.85-1.15,1.53-3.65-2.12-4.28-2.08c-1.44-1.44-3.44-.47-3.44-.47-3.44.17-9.49,2.38-9.49,2.38-5.63.57-9.45,4.58-9.45,4.58-3.06-6.88-9.26-17.57-9.26-17.57.29-1.62,4.39,0,4.39,0-1.24,2.67,4.97,5.35,4.97,5.35l.95-.67,3.25,1.81c2.39-.19-.1-3.82-.1-3.82-4.3-4.49-8.31-3.34-8.31-3.34-1.15-.48-4.39-.67-4.39-.67,1.15-4.68,6.11-3.82,6.11-3.82.1,1.91,6.78.86,6.78.86l8.31-.76c-1.04-1.91-7.73-1.14-8.96-.98.71-.1,3.05-.57,4.18-2.26,1.34-2.01-2.48-2.2-2.48-2.2-10.03.86-10.6,4.77-10.6,4.77-7.16,4.01-4.39,7.35-4.39,7.35-1.53-.1-2.48,1.53-2.48,1.53-.67,5.92,2.96,7.35,2.96,7.35l1.34,2.1,1.15-.86,1.24-2.86,4.39,9.84-5.54,6.88c-3.99.87-6.05,1.94-7.05,2.66l4.48.54,8.38-.6-.35.6.75.3s-3.39,2.09-4.84,1.89c-1.45-.2-5.23.8-6.88,3.89-1.65,3.09-.75,6.98-.75,6.98.2-1.15,1.65-1.79,2.44-1.4.8.4,2.09-1.3,3.54-1.4s3.74-1.7,3.74-1.7l-.9,2.09-.35,1.55s1.35-1.6,2.04-3.44,2.04-1.5,3.74-1.5,3.64-.8,3.64-.8l4.69,11.02,5.58,14.66c-9.22,3.29-13.26,13.06-13.26,13.06l-.4-.6.65-1.25,2.29-5.78,2.29-1.1.9-1.25-1.89-.2.2-1.2-.75-2.64-1.89-.85-1.5-1.25-3.04-.4-5.04.2-3.14,3.39-1.4,2.89-4.09.6.24-35.56.32-16.14-.27-18.3-1.13-14.35-.32-22.4-.4-33.69-.16-30.62-.32-23.45-.81-22.24-.16-20.07-.24-11.69-.24-15.8.64-20.15-.24-13.46-.08-8.62v-5l.89,2.58.4,3.47-.08,2.9,1.85,1.13,4.67.56,1.53-.48-.08-2.01-1.37-3.14.08-3.63-.08-1.61,1.45-1.13,5.32-.16,2.26-.4-.32-2.42c.16-1.29-1.37-4.03-1.37-4.03-.24-3.3-2.18-5.48-2.18-5.48.08-1.13-.64-2.01-1.45-3.79s-2.26-3.71-2.26-3.71l.89-.16c-.24-3.06-1.69-5.16-3.38-8.3s-3.63-5-3.63-5c0-2.1-1.85-4.03-2.82-5.08s-.56-2.98-1.29-4.03c-.73-1.05-3.01-2.42-3.01-2.42l471.17-26.45,260.3,141.64.48,235.98.05.02ZM427.77,278.15l-1.68-106.85-113.32-12.46.24,116.19,114.75,3.11h.01ZM852.71,288.85l-.16-73.15-51.75-5.27-.48,77.62,52.39.8h0ZM197.79,387.12c1.06.48,1.93.53,1.93,1.4s1.98-.87,1.98-.87c0,0,5.7-4.93,10.29-5.12s6.38-.05,6.38-.05l.1-.92s-4.01-.82-5.85.43c0,0,4.54-5.51,8.99-4.54l1.11-2.17-4.45.24s-.1-.97-2.17.14-4.25.39-5.75,2.03c-1.5,1.64-4.35,3.58-6.23,3.96-1.88.39-3.38,1.98-3.38,1.98,0,0,.53.05.53,1.64s-.63,1.74-.63,1.74l-2.08-.87-.19-.58s-1.64,1.06-.58,1.55h0ZM443.45,517.23c.48,7.2-.6,21.95-.6,21.95l4.44-.84s-.96-9.35-1.92-11.87-1.92-9.23-1.92-9.23h0ZM197,352.68c-.12.02-.21.03-.21.03,0,0,.08,0,.21-.03ZM204.45,432.35l-.64,1.1s7.91,1.52,8.73,2.9l-.41-5.65s-5.42,1.98-7.68,1.66h0ZM183.35,427.75l-4.46.83.05,3.54s1.06-.09,1.75.64c.69.74.6-.87,1.15-1.2.55-.32,1.43-.55,1.7.32s1.61,1.29,1.61,1.29c0,0,3.72-.37,4.46.32s4.6-.41,4.6-.41l-.55-1.06s-10.02.92-10.3-4.28h0ZM205.23,378.09l5.46-3.87,3.82-.92,3.04.1,2.08.77,3.62.58-5.12-2.8-5.7-1.79s-5.12-.19-8.51,2.71c-3.38,2.9-6.09,5.41-6.09,5.41l-2.9,2.08,1.45,2.9,7.35-5.12,1.5-.05h0ZM202.66,436.55l-.92,8.32s11.91,6.46,18.48,14.67c0,0-3.72-7.24-4.18-9.17l-1.52-.6-.18-1.15-1.75-2.57-.46-1.43-.32-1.88-1.33-1.38-1.33-2.11s-3.63-3.72-6.48-2.69h0ZM213.04,419.31l-.89-2.68-2.68-9.54-1.62-1.28-2-.89-1.45-1.58,6.43,16.27,2.21-.3h0ZM194.65,437.76l.07-2.41-2.77.33,2.7,2.08h0ZM192.32,442.65l1.13-2.26c-.47-.84-4.92-2.04-4.92-2.04,1.06.58,3.79,4.3,3.79,4.3h0ZM194.29,439.15s-2.44-3.24-4.15-3.24-3.13.55-3.13.55c0,0,1.53,1.02,3.86,1.24s3.43,1.46,3.43,1.46h0ZM179.01,484.85c4.87-1.99,9.73,1.52,9.73,1.52l-4.79-4.55c-1.99,1.12-4.95,3.03-4.95,3.03h0Z"/>
  </g>
</svg>