<?xml version="1.0" encoding="UTF-8"?>
<svg id="Layer_1" xmlns="http://www.w3.org/2000/svg" version="1.1" viewBox="0 0 1280 720">
  <!-- Generator: Adobe Illustrator 29.6.1, SVG Export Plug-In . SVG Version: 2.1.1 Build 9)  -->
  <defs>
    <style>
      .st0 {
        fill: #80f41c;
      }
    </style>
  </defs>
  <g id="Layer_2">
    <path class="st0" d="M111.95-22.99l24.19,48.26s-5.32,2.43-8.22,6.25l-28.59-4.4s-.58-5.44-2.89-6.02l-3.93-.35s-1.97,0-1.04,8.91c.93,8.91,2.55,10.18,2.55,10.18l4.98.35s1.27-.58,1.16-5.56l22.57,3.24-.58,1.27,4.86,3.47,6.13,3.59.93-1.04,1.39-5.32,4.28,1.16,1.16,7.29s-1.04,5.09-.35,9.37l-3.36,4.51s-2.08,0-2.78,2.43,1.39,3.7,1.39,3.7c0,0,1.5,1.5,2.31,0s3.01-3.36,3.01-3.36l-.08,1.56s-2.27.92-1.3,3.65l-3.23,1.01-.38.71,2.52,6.38.96,1.38,1.76,2.1.21,1.97.04,4.57-3.19-.42s-.13-4.19-1.64-4.66-3.48-.25-3.48-.25c0,0-.96,2.89-.34,9.06s1.76,5.45,1.76,5.45l3.44.25s.46,0,.63-4.4l2.73.63.08,21.94.1,19.85.5,12.31-.1,13.2.6,9.53.2,15.98v13.3l.4,12.51.2,10.92v6.25l.1,16.18.1,10.72.2,11.81.2,8.14.4,16.78v24.12l.1,29.68.2,14.49-.5,28.79.1,10.03.69,20.35.5,12.91.79,14,.4,10.23.4,8.24s-2.28,4.27.6,13.2l.4,3.28.5,11.12-.79,6.85-.1,6.35.1,1.19s-.79,3.77-.6,6.85c.19,3.08.6,3.47.6,5.56s-.1,6.16.5,7.05-.79,11.12-.79,11.12c0,0,0,2.88.1,5.26s-.3,6.16.2,8.74.6,5.66-.2,9.53.99,7.25.99,7.25l.5,4.07.1,2.98-.2,2.68.79,6.25-.69,4.67.69,3.57.1,3.77.2,5.46.4,8.64v5.86l-21.24,4.17-20.05,3.57-10.23,2.58s-3.18.69-3.38,4.67l-7.15,13.4-11.22,20.65-13.5,24.42-7.05,13.3-5.16,17.77-7.25,3.87-5.26,6.75-17.87,29.39-.2-29.68-.17-45.34-2.23-30.82-1.11-69.06-3.34-64.6-1.11-42.33,81.31-49.38-2.6-335.63L-4.04-15.76-.33-30.98l112.28,8h0Z"/>
  </g>
</svg>