<?xml version="1.0" encoding="UTF-8"?>
<svg id="Layer_1" xmlns="http://www.w3.org/2000/svg" version="1.1" viewBox="0 0 1280 720">
  <!-- Generator: Adobe Illustrator 29.6.1, SVG Export Plug-In . SVG Version: 2.1.1 Build 9)  -->
  <defs>
    <style>
      .st0 {
        fill: #167ef9;
      }
    </style>
  </defs>
  <g id="Layer_2">
    <path class="st0" d="M902.9,180.63l.48,235.98c18.25.59,16.09,2.6,21.86,3.02,6.09.44,11.63,2.11,11.63,2.11,1.44-.11,8.64.89,8.64.89,7.09-.22,21.38,2.88,21.38,2.88v-13.74c-.11-1.99.78-2.11.78-2.11-2.33-2.77-.55-3.99,0-4.76.55-.78-2.77-1-2.77-1l-.22-4.32c.11-1.22,2.66-1,2.66-1l1.55.33,29.69-3.43c3.21-1.66,7.42,0,7.42,0l57.5,6.54c2.99-.66,7.31.11,7.31.11l4.11.04c.09-1.76,2.13-1.62,2.13-1.62.6-1.67,2.55-1.86,2.55-1.86,2.32-1.72,1.34-3.29.37-4.87s.65-1.48.65-1.48c0,0,0-10.9-.23-15.58s0-12.06,0-12.06c0,0-.74-.14-.83-.93-.09-.79,2.04-.46,2.04-.46.42-1.02,3.2-1.72,3.2-1.72l.23-1.58c-1.16-.7-.32-1.81-.32-1.81-3.8-.23-6.96-4.27-6.45-5.84.51-1.58,6.68-.7,6.68-.7.14-.88.88-.65.88-.65l.19-1.99s-14.55-.32-18.69.37c-4.14.69-9.78.46-8.75-.46,1.04-.92,8.29-6.45,13.93-18.76,0,0,3.11-8.75,3.8-17.73l-72.17,1.27-3.91-.46v-40.06l.12-42.13.81-.35,55.71-7.02,30.27-3.8,3.11.81.46,35.22-.23,30.96-.23,16.57s4.03-.58,4.03,2.19v2.76l10.59.12s.81-.46.69,1.5c0,0,1.61,14.5,6.68,25.55,5.06,11.05,11.51,15.08,11.51,15.08l-1.61.46s-26.17-3.1-32.02-2.01l-.05,2.18c.51.09.32.7.32.7,0,0,4.08.19,5.8.83,1.72.65.83,1.39.83,1.39-2.13,4.08-5.03,4.47-5.9,4.41s-1.74-.06-1.08.61-.7,1.25-.7,1.25l-.12,1.13s2.04,1.22,2.68,2.24,1.95.23,2.41.96-1.22,1.19-1.22,1.19c.17,1.37-1.51,10.41-1.51,10.41,0,0-2.36,13.7-2.73,15.53-.38,1.83.32.9.73,1.28s.09,1.11-.96,2.33c-1.05,1.22-.47,3.4,1.02,3.93,1.48.52,1.96,2.4,1.96,2.4,2.34.29,2.2,1.61,2.2,1.61,1.83.22,4.39.95,4.39.95l.8,2.34s.07-3-.07-4.32c-.15-1.32,1.32-.95,1.32-.95l13.83.37s-3.29-11.27-3.59-12.73c-.29-1.46,3.07-.88,3.07-.88l.29-.8h1.24l-2.05-2.05.07-.51,2.56,1.46c-1.32-2.34-3-4.46-3-4.46-4.61,2.93-7.46-1.98-9.51-4.17-2.05-2.2-3.51-5.93-1.39-6.8,2.12-.88,2.49.37,4.02.37s2.63.95,4.46,1.24c1.83.29,3.29,1.46,3.29,1.46-1.76-2.19-.22-2.12-.22-2.12-.8-.66-.66-2.41-.66-2.41-1.68-.88-.66-2.63-.66-2.63-1.39-.95-1.24-2.63-1.24-2.63,0,0-1.83-1.46-1.68-2.05.15-.59-.29-1.98-.29-1.98,2.63.66,2.78,3.73,2.78,3.73,1.39.88,1.9,2.34,1.9,2.34,1.24.88,1.39,3.29,1.39,3.29,1.02,1.24.66,4.1.73,4.76s.88-.44.88-.44c-.66-3.29.8-5.56.8-5.56l1.24.22c-1.24-1.39-1.83-4.02-1.83-4.02,2.63-1.76,3.37,1.02,3.37,1.02,1.46-1.9,2.12-1.24,2.12-1.24,2.93-2.05,4.46-1.39,4.46-1.39-1.46,1.39.44,2.12-.66,2.63s-.95,1.39-.95,1.39l3.15-.73c2.63-1.24,3.51-.51,3.51-.51-2.56,1.68-1.02,2.71-1.02,2.71l1.17-.73,3.44,2.49c2.93.88,1.98,4.98,1.98,4.98-1.98,6.88-8.34,5.93-8.34,5.93l-4.46,6.66c-.07,1.54.37.8.88.66.51-.15,3,.95,3,.95l.88.07c.22,1.76-2.85,12.66-2.85,12.66l3.59.15,10.76,2.63.15,5.85,49.24,4.9s41.85,3.51,44.7,3.8c2.85.29,2.05,1.24,2.05,1.24l.22,4.68c-.07.8-3.59.59-3.59.59l-.51.59c5.12,3.22.22,6.07.22,6.07,1.32.88,1.46,2.34,1.46,2.34l-.73,69.52-1.22,32.8,48.72,11.75.8-451.1-379.28,82.78h-.02ZM1241.59,335.56l-116.42-1.91-4.41-.44-.29-95.99,120.54-12.35,3.67.59.59,108.92-3.67,1.18h0ZM1153.73,512.54l-25.22-4.77-31.18-5.79-1.36-9.37s3.07-9.03-1.7-20.62-16.5-19.52-25.23-24.13-20.49-6.58-20.49-6.58c-2.39-1.81-12.26-3.54-12.26-3.54l-5.68-1.07-5.27-1.65-7.82-1.65-6.34-.58-6.58-1.32.25-23.13,58.44,7.61,116.98,14,.29.83,14.15,1.51,1.6.68.78.58c-1.6.63-2.24,2.19-2.24,2.19-.58,2.24,1.99,4.28,1.99,4.28-1.36.24-1.02,2.14-1.02,2.14l.85,77.19-42.94-6.82h0ZM1197.04,523.09l.46,6.39-29-6.59-14.76-4.75-13.91-4.22,57.2,9.16h.01ZM998.49,418.31c1.65,6.67,1.56,10.45,1.56,10.45v2.06l-8.48-.74-3.21-.25-7-2.06-4.86-.74-2.88-.58-1.81-.19.05-15.94s-.37-.68-.84-.68c0,0,1.83-1.62,1.25-2.93-.57-1.31-1.57-2.19-1.52-2.4s26.56,2.96,26.56,2.96c0,0-.49,4.36,1.15,11.03h.03ZM998.17,407.36l2.06.33-.16,13.17s0-1.48-.91-4.69-.99-8.81-.99-8.81h0ZM1228.39,432.29c-1.74.43-1.46,2.29-1.46,2.29l-.36,42.87.72,46.03-23.2-3.03.06-17.25-.4-34.64s-.36-25.19-.36-26.22-1.54-2.06-1.54-2.06c0,0,2.17-.71,2.21-2.85s-2.37-3.76-2.37-3.76l3.2-.71.44-.63,3.8-.99.16-.63,18.43-4.27c-3.64,3.05.67,5.85.67,5.85h0ZM1227.36,527.44l.13,8.9-23.46-5.47-.07-6.66,18.06,2.37c3.1,2.64,3.43.46,3.43.46l1.91.4h0Z"/>
  </g>
</svg>