<?xml version="1.0" encoding="UTF-8"?>
<svg id="Layer_1" xmlns="http://www.w3.org/2000/svg" version="1.1" viewBox="0 0 1280 720">
  <!-- Generator: Adobe Illustrator 29.6.1, SVG Export Plug-In . SVG Version: 2.1.1 Build 9)  -->
  <defs>
    <style>
      .st0 {
        fill: #606060;
      }
    </style>
  </defs>
  <path class="st0" d="M674.48,369.43v63.32l5.17.81,1.08,5.95,6.49.42-.2-70.37-12.54-.13h0ZM295.74,534.66l.08,12.28-4.77.47.15-12.05,4.54-.7ZM286.82,535.83l-.15,12.12-15.33,1.8v-12.2l15.48-1.72h0ZM249.99,552.88l16.81-2.5v-12.2l-10.87,1.09c-1.02,11.65-5.94,13.61-5.94,13.61h0ZM407.31,520.01l3.79,22.5,10.48,1.49-3.37-24.58-10.9.59h0ZM390.66,539.61l7.46,1.06,1.27-20.8-6.13.14-2.6,19.6h0ZM381.16,517.77l-.75-2.39-.74-7.02v-17.18l-.75-3.14h-1.5l-.44,27.04-.13,22.57,9.01,1.28,2.77-18.92-5.23-1.04-2.24-1.2h0ZM366.41,391.51l4.74,13.01-3.29-21.96,5.68,18.38.6-19.58.59-7.02-7.9-23.49-.42,40.66h0ZM364.9,538.28l4.99-.55,1.56-49.39h-6.04l-.51,49.94h0ZM674.48,321.12V94.42l-226.06-54.61-75.35,17.97L111.79.57.13.11v611.71l66.16-9.65.15-55.61-.6-94.19.45-84.55V33.87c.6-1.96,1.36-.15,3.01-.45s1.66,1.81,5.12.9c3.47-.9,4.67,3.77,7.23,2.26,2.56-1.51,1.96,1.36,4.07.45,2.11-.9,3.92,1.51,6.18.9,2.26-.6,1.21,4.52,4.67,1.81,3.47-2.71,3.01.15,3.77.3.75.15,1.66.9,3.32,0,1.66-.9,2.11,1.66,4.07,1.05,1.96-.6,3.16,1.81,5.43,1.05,2.26-.75,3.16,3.01,4.67,1.81,1.51-1.21,2.71.75,3.32.15.6-.6,1.96.6,2.86,1.36.9.75,3.84.62,5.97.27,2.13-.36,2.13,4.98.36,10.32s-.71,20.99-.71,20.99l170.02,29.52v-9.96s-1.6-15.04-.03-17.4,4.56.47,6.3,0c1.73-.47,4.09,2.52,5.98,1.57,1.89-.94,3.78,2.52,4.56.79s3.78.63,8.5.47c4.72-.16,4.72,4.41,7.87,2.83s4.72,1.89,8.03,1.26,3.31,2.83,5.19,1.73c1.89-1.1,3.62.63,6.61.63s3.31,2.36,5.51,1.42,2.83,2.36,5.19,1.26c2.36-1.1,4.88,1.57,4.88,1.57l4.09.94c1.1-2.2,3.31-.31,3.31-.31,2.99,0,5.67.47,4.56,4.72-1.1,4.25-5.78,3.06-5.78,3.06l-6.46-2.04-1.36,8.5.68,62.59v136.41l-.44,42.83,8.64,20.85,5.98-17.78-3.29,18.38,4.33,10.76.75-3.14.6-18.53.45,13.75,4.93-17.78-1.05,28.09.9-3.44,1.94-27.04-.3,21.37,3.88-13.9-.15,9.26,3.14-15.84-2.09,17.33,13.9-46.76-.6,6.13,2.24-6.57c-1.64,15.54-10.76,53.64-10.76,53.64l2.84-6.28-5.68,25.7,7.02-7.77-5.08,8.96,7.62-3.14c-1.34,2.24-7.02,5.53-7.02,5.53,0,0-4.03,1.79-5.08,8.22-1.05,6.42-5.68,18.38-5.68,18.38,14.04-.75,19.57.75,19.57.75l1.64.9-.15,18.97c18.23-15.09,24.5,1.2,24.5,1.2-10.76-11.36-15.24-2.39-15.24-2.39l3.44,1.49c15.39-3.59,21.07,16.14,21.07,16.14-8.82-16.29-17.78-14.04-17.78-14.04,5.83,3.29,13.9,14.64,13.9,14.64,0,0-5.98-5.53-8.37-6.87-2.39-1.34-3.14-4.63-7.47-6.42s-8.07,4.78-8.07,4.78c8.52-3.59,13.45,10.31,13.45,10.31l3.59,2.69-2.69-.3c5.08,21.81,1.34,30.03,1.34,30.03,0-10.24-1.37-17.76-2.86-22.91-.09,8-.42,32.88-1.17,37.26-.9,5.23-5.38,4.78-5.38,4.78l4.23,25.92,11.99,1.7c.46-5.21,1.07-6.59,1.07-6.59,3.37-1.23,28.49-5.51,28.49-5.51,0,0,.61-.92.61-3.52s.46-5.05,1.68-7.81c1.23-2.76,9.04-19.3,9.04-19.3,0,0,5.51-13.94,15.16-25.42,9.65-11.49,22.82-13.63,24.81-13.63s5.67-1.84,5.67-1.84c0,0,2.3-2.14,5.51-2.76,3.22-.61,12.56-2.91,15.93-3.83,3.37-.92,7.2-.46,10.57-1.38s6.59.15,9.04-.92c2.45-1.07,6.59.61,9.04-.77s8.58.31,11.49-1.38c2.91-1.68,7.81-2.45,7.81-2.45,5.36-3.22,7.81-1.07,7.81-1.07,3.22-1.53,5.67-.15,5.67-.15,4.44-1.68,6.43.15,6.43.15,3.68-.92,7.05-.15,10.26-.15s14.09-.15,23.43-4.59c9.34-4.44,17.21-2.64,17.21-2.64l.77-6.58c1.16-1.55,8.21-1.54,8.21-1.54v-63.32l-5.11-.12.39-47.19,4.73-.99v-.02h0ZM609.83,377.23l-5.04.76-85.43,1.26.25-179.17,1.76-1.01,88.45,11.84v166.32h0ZM402.92,541.35l1.42.2-1.22-5.55-.2,5.35ZM427.18,472.8l.83.64c-1.39-3.81-2.62-5.57-2.62-5.57l-4.18-1.34,1.64,6.42,4.33-.15h0Z"/>
</svg>