<?xml version="1.0" encoding="UTF-8"?>
<svg id="Layer_1" xmlns="http://www.w3.org/2000/svg" version="1.1" viewBox="0 0 1280 720">
  <!-- Generator: Adobe Illustrator 29.6.1, SVG Export Plug-In . SVG Version: 2.1.1 Build 9)  -->
  <defs>
    <style>
      .st0 {
        fill: #606060;
      }
    </style>
  </defs>
  <path class="st0" d="M1256.66,472.47l8.58.42.13-100.16-8.85-.14.14,99.88ZM1278.79,372.45l-11.06.14v100.3l10.92.97v-12.32h1.11v-78.02l-.97-.28v-10.79ZM1224.3,372.41l1.08-2.16v-46.54l-.27-14.07-.54-2.44,22.19-.27,33.28-1.35-.07-80.83c-3.76,5.01-11.14,10.59-26.11,16.05-18.76,6.84-31.66,3.32-43.2-2.15-11.53-5.47-23.46-16.81-26.39-33.42s2.54-29.32,9.77-40.27,17.01-17.01,28.15-22.48,22.09-4.3,35.57-2.35c10.8,1.56,19.21,9.14,22.14,12.1l-.13-152.12-63.23.76-542.05,93.55v226.7l33.36-1.25.41-5.36,3.71.82.21,4.12,40.62,1.24-.62,2.68v46.39h-18.76l-.2,59.84,6.23-.64h11.9l12.72-.27,7.03,1.35,5.14.54.27-37.07.27-24.35.81-9.47,1.35-5.14s2.98-7.31,10.28-7.03c7.31.27,118.78-.81,118.78-.81l216.72-1.89,67.91-.27s5.41-.27,5.14,7.58c-.27,7.85-.54,74.68-.54,74.68l.27,48.7,19.75-4.33s-.81-5.68.81-5.68,23.81-.81,28.95,1.08c5.14,1.89,1.62,4.87,1.62,4.87l5.14.54-.27-100.11-29.22.54h.02,0ZM790.57,259.27l-1.43.1-34.63,2.04-2.45-.31.1-43.42,3.68-.41,32.28-2.86,2.45.82v44.03h0ZM1077.89,137.09s5.4-21.36,34.86-24.3,46.64,55.48-6.38,65.05c0,0-16.69,1.47-26.76-13.75,0,0-7.36-9.57-1.72-27ZM971.79,154.19s12.61-1.96,13.31,16.12-28.31,19.76-28.73.56c0,0-1.26-14.71,15.42-16.68ZM807.22,176.92l30.34-3.27,1.84.82.1,45.67-30.45,2.55-1.94-1.12.1-44.65h.01ZM842.98,286.75l-.31,2.15-3.06.31-10.83.1-23.29,1.33-3.27-.82v-52.62l32.9-2.35h7.15l.72,1.33-.1,9.6.1,40.97h-.01ZM910.27,309.32c-15.98,9.11-41.48,7.01-48.07-25.51,0,0-5.75-32.79,28.45-44,0,0,18.08-5.05,31.53,13.31,13.45,18.36,4.06,47.09-11.91,56.2h0ZM942.28,224.05l-22.25,1.9-40.99,3.07-7.03.59-6.59-.44-.15-43.92-.29-34.55.29-5.42,6.29-1.02,33.96-4.25,5.27-.29,5.56-.88,15.08-1.9,10.1-1.17,1.76,2.05v56.07l.15,29.13-1.17,1.02h.01ZM991.07,250.66l-31.39,2.44-6.22-.81v-49.51l36.17-3.04,1.86.66.22,49.26-.64,1.02v-.02h0ZM1060.87,225.77l-51.95,3.79-3.79-1.08.27-65.21,53.57-5.68,1.89,1.35v66.83h.01ZM1171.26,290.43l-81.44,2.98h-11.09l-4.6-.81v-93.35l94.7-8.12,2.71,1.08.27,94.7-.54,3.52h-.01ZM689.49,369.98l-.2,70.01,6.05-2.37,8.12-3.25,1.89.82h.01s-.41-65.21-.41-65.21h-15.46ZM674.48,369.43v63.32l5.17.81,1.08,5.95,6.49.42-.2-70.37-12.54-.13ZM715.88,369.77l.2,61.61,10.1-.79,5.42-.82.33-.03-.58-60.38-15.47.41Z"/>
</svg>