<?xml version="1.0" encoding="UTF-8"?>
<svg id="Layer_3" xmlns="http://www.w3.org/2000/svg" version="1.1" viewBox="0 0 1280 720">
  <!-- Generator: Adobe Illustrator 29.6.1, SVG Export Plug-In . SVG Version: 2.1.1 Build 9)  -->
  <defs>
    <style>
      .st0 {
        fill: #fc42ea;
      }
    </style>
  </defs>
  <path class="st0" d="M212.52,109.16l-.22,271.72,84.8-.9v23.17l-83.9,2.25-.9,81.88h-26.99l.45-78.05-1.57-2.25-53.98,1.35v-25.87l55.11-.67.9-276.44-56.01-9.67-.56-18.62,170.02,29.52-.31,16.99-86.82-14.4ZM185.27,504.54c8.64.19,11.91,1.54,11.91,1.54l14.98.38v-11.52h-26.99l.1,9.6ZM246.94,511.42s8.8,2.93,8.8,14.67.18,13.19.18,13.19l10.87-1.09-.3-28.91-19.56,2.15ZM271.39,509.07l-.05,28.48,15.49-1.72-.96-27.74-14.47.98ZM291.2,535.36l4.54-.7.29-27.93-4.89.78.06,27.85Z"/>
</svg>