<?xml version="1.0" encoding="UTF-8"?>
<svg id="Layer_2" xmlns="http://www.w3.org/2000/svg" version="1.1" viewBox="0 0 1280 720">
  <!-- Generator: Adobe Illustrator 29.8.1, SVG Export Plug-In . SVG Version: 2.1.1 Build 2)  -->
  <defs>
    <style>
      .st0 {
        fill: #b4f75e;
      }
    </style>
  </defs>
  <path class="st0" d="M518.68,128.8l.5,294.5-5.61-.22-.67-12.12-3.59-3.14-2.69.45-1.79-12.79-3.37,2.24-4.26,1.79h-3.37l-1.79-20.64-1.12-4.94-2.92-1.57-6.28,5.16-9.87,1.35h-21.31l-5.83-1.57-1.57,2.02,2.47,8.3h-5.16l-14.81,3.37-10.1.67-10.77,2.69-20.19,4.04-7.18,1.35-7.23-1.27-.72-268.73,149.25-.94ZM1012.88,132.08l-247.34-1.41-.32,290.21h4.65l.43-7.51,1.5-7.94,1.07-7.51,1.07-4.07,1.72-2.36,6.01,4.29,4.29,1.93,2.57-.21.21-10.08,1.5-9.22,2.14-4.93,1.5-.86,7.72,5.79,6.86,2.36,11.58-.21,7.51-.21,4.5-2.14,4.5-1.93.86,1.93-2.14,7.51,30.24,3.65,26.17,6.01,20.16,2.14-.43-185.52,101.97,1.72-.52-81.41ZM1220.43,401.26l-51.38-5.38,4.78-1.2h35.85l-2.69-7.47-.6-5.97,2.99-5.97,4.18-2.39-1.19-4.78s-32.56-3.88-43.32-29.87c-10.75-25.99-5.68-60.94,34.06-74.98,0,0,39.73-11.95,61.54,23.3,0,0,22.7,38.54-11.95,70.2l-20.91,11.35-7.47,5.38s11.35,3.29,4.78,20.91l53.18,1.19,3.77-324.52-159.1-3.75,4.87,387.42,27.08,8.07,2.99,2.69,121.29-1.19-2.09-64.53-60.64,1.49Z"/>
</svg>