<?xml version="1.0" encoding="UTF-8"?>
<svg id="Layer_1" xmlns="http://www.w3.org/2000/svg" version="1.1" viewBox="0 0 1280 720">
  <!-- Generator: Adobe Illustrator 29.8.2, SVG Export Plug-In . SVG Version: 2.1.1 Build 3)  -->
  <defs>
    <style>
      .st0 {
        fill: #bf3708;
      }
    </style>
  </defs>
  <path class="st0" d="M404.17,187.83l.82,93.26-147.93-8.95-.36,166.57-.13,7.13.68,2.28.23,25.62-3.62.06.08-34.46-.08-20.52-11.72-7.3-.48-19.42-2.71-2.84-.88-35.21-224.48-1.98-.22-204.23,233.9,30.59,7.77-10.83,149.13,20.23ZM588.12,304.62l42.01-29.64.97-59.9-28.89-4.84-55.24,15.89-.39,126.45,83.82.6.56-43.18-47.81-2.06.47-2.84,4.5-.48ZM669.09,191.82l-.19,5.04-1.36,1.36-.78,5.81-.97,142.11,2.41.37-.19,8.15,129.52.37.18-25.01,102.83-2.97.19,18.71,2.59-.18-.37,11.86,379.28,1.85.77-335.34-613.91,167.87ZM257.94,492.83l-5.38.26.26,14.33,5.12,8.51v-23.1ZM253.08,535.83l-.52,22.41,2.64,4.35,3.66-.69-.23-18.52-5.55-7.55Z"/>
</svg>