<?xml version="1.0" encoding="UTF-8"?>
<svg id="Layer_1" xmlns="http://www.w3.org/2000/svg" version="1.1" viewBox="0 0 1280 720">
  <!-- Generator: Adobe Illustrator 29.8.2, SVG Export Plug-In . SVG Version: 2.1.1 Build 3)  -->
  <defs>
    <style>
      .st0 {
        fill: #f28555;
      }
    </style>
  </defs>
  <path class="st0" d="M16.54,423.15h0s0,0,0,0h0ZM240.56,414.39l-5.04.08-49.05.23-.13-1.88h-8.14c-5.08,4.05-7.69.74-7.69.74l-27.83.68c-8.9,5.7-30.72,1.21-30.72,1.21l-12.4.38-.23,3.88-4.33.91-39.47,2.51-36.96,3.19-2.03-3.17-9.19,5.97v6.89h9.16l2.3,138.72-7.81,1.38,5.16,2.47v3.13l3.65,5.47.78,5.21,231.94-34.14.52-15.38v-7.04l-1.56-3.91-.52-5.73-9.9-10.69s-3.91-8.08-3.65-15.38c.26-7.3,6.78-4.43,6.78-4.43l8.6,11.73-.26-14.33c-19.02,3.65-26.32-2.34-30.49-9.38-4.17-7.04-5.21-28.67-5.21-28.67l3.65-.78s4.16,4.95,5.99,13.03c1.83,8.08,4.17,8.34,7.04,8.34s20.33-1.82,20.33-1.82v-54.99l-11.73-7.3-1.56,2.87ZM1283.15,466.2h0s0,.01,0,.01h0ZM1203.11,459.17c2.73,2.38-.52,5.52-.52,5.52-8.52,5.36-64.39-.95-64.39-.95,0,0-25.88-1.58-28.41-7.26-2.53-5.68,10.12-6.39,10.12-6.39l-61.14-5.19-4.85,4.32-38.82-4.1-4.32-5.96-22.05-1.67-.78,3.21-4.42,1.58-17.68-.32-8.84-1.26-1.46-6.91-99.68-9.63-.18,2.66-8.52-1.58-.38-2.38-101.35-10.19-1.48,3.1h-41.66l-3.47-2.21-.26-5.34-9.45-.74-63.2,5.13v4.73l4.1.63-.95,34.4,205.79,40.4.32,10.42-11.36,2.53-2.21,100.69,48.29,19.25,5.37-2.84-.32-13.57-12.31-5.37,1.58-133.51,4.42-7.58-4.1-1.58v-12.63l130.67,17.36-5.05,181.49,8.52,2.84-1.26,20.52,148.35,51.76,98.16,3.47,16.41-25.25,3.07-27.18,4.72-4.72,7.67-190.53,7.08-2.95.27-9.18-80.04-7.04ZM562.74,405.01l-1-4.98-11.12-.33.21-1.66-24.34-1.38h-.02s1.72,1.38,1.72,1.38l-2.32,1.83s7.97-.17,8.3,4.81c.33,4.98-7.8,5.31-7.8,5.31,0,0,1.33,2.99,0,5.15,0,0,7.14.17,7.64,4.32.5,4.15-3.82,4.98-7.47,5.64l1.66,2.66-1.66,1.99s7.31.17,7.97,4.32l27.56,4.15-1.16-10.29-1.83-1.33v-2.66l1.33-.83-.33-9.96-1.66-2.16v-4.32l4.32-1.66ZM516.58,415.13l-2.14-2.14,1.6-2.54s-8.01-1.07-8.28-4h0s-.53,21.36-.53,21.36l7.61,1.07-.53-1.87,1.87-1.47s-7.47-.67-7.74-5.87c-.27-5.2,8.14-4.54,8.14-4.54ZM490.01,403.74l-.17-13.22h0s-8.67.62-8.67.62c-4.08,8.46-1.33,25.5-1.33,25.5,2.75-10.1,10.17-12.9,10.17-12.9ZM476.89,391.34h0l-3.16-.82-8.16-.92c6.32,2.55,5.71,3.57,5.61,6.22-.1,2.65-6.32,3.16-6.32,3.16l2.75,1.84-2.75,2.14s7.85-.41,6.83,4.08c-1.02,4.49-7.14,4.39-7.14,4.39l2.24,2.04-1.63,1.73s6.32-.31,6.32,4.08-6.43,4.59-6.43,4.59l.82,1.02,11.83.31.31-4.28c-3.16-14.69-1.12-29.58-1.12-29.58ZM449.74,407.25c.41-4.49,7.04-4.08,7.04-4.08l-1.53-2.04,1.53-2.45s-6.53-.21-6.63-4.08,5.92-4.18,5.92-4.18l-.64-1.46h-.01s-15.16-.01-15.16-.01l-.22,4.76h3.25l-.43,33.18,10.75-1.39,2.96-1.63s-6.93.41-6.83-4.18c.1-4.59,7.14-3.98,7.14-3.98l-2.14-2.24,2.14-1.94s-7.55.21-7.14-4.28ZM490.17,407.91c-9.02,3.98-8.43,16.59-8.43,16.59l8.77-.39-.33-16.2h-.01Z"/>
</svg>