<?xml version="1.0" encoding="UTF-8"?>
<svg id="Layer_2" xmlns="http://www.w3.org/2000/svg" version="1.1" viewBox="0 0 1280 720">
  <!-- Generator: Adobe Illustrator 29.8.2, SVG Export Plug-In . SVG Version: 2.1.1 Build 3)  -->
  <defs>
    <style>
      .st0 {
        fill: #b3ea3b;
      }
    </style>
  </defs>
  <path class="st0" d="M435.84,242.16l.94,184.28-13.33,1.94.22-180.37-10.3-1.1v181.91h-7.45l-1.52-234.4,3.76.94v6.82l14.38,3.63-12.69,6.58v3.29l4.41.69-.94,22.04,22.51,3.75ZM470.59,211.73l-21.42-3.22.46,6.45,13.13,1.84,7.83-5.07ZM507.41,356.44l.89-140.37-3.86-1.19-5.3.99-16.35-2.3-21.04,8.98,28.82,3.59-.73,144.36s5.51-1,11.52,6.68c5.74,7.34,5.85,18.94,5.85,19.96l.17-37.66c-3.01-2.67.03-3.05.03-3.05ZM507.22,397.14v.08s0-.03,0-.08ZM490.01,374.18v29.56s5.68-1.34,9.02,8.68c3.34,10.02,3.34,18.37,3.34,18.37,0,0,3.17-27.89,2-34.9-1.17-7.01-6.35-25.22-14.36-21.71ZM490.18,407.91l.33,16.2,8.18,1s-1.84-19.54-8.52-17.2Z"/>
</svg>