<?xml version="1.0" encoding="UTF-8"?>
<svg id="Layer_1" xmlns="http://www.w3.org/2000/svg" version="1.1" viewBox="0 0 1280 720">
  <!-- Generator: Adobe Illustrator 29.8.2, SVG Export Plug-In . SVG Version: 2.1.1 Build 3)  -->
  <defs>
    <style>
      .st0 {
        fill: #3d9be8;
      }
    </style>
  </defs>
  <path class="st0" d="M408.16,202.19v-6.82l-3.76-.94-.24-6.59-149.13-20.23-7.76,10.82L13.37,147.84l.22,204.23,224.48,1.98.88,35.21-6.6,1.98.66,11.66h-11.22c4.84-9.24,1.32-14.74,1.32-14.74l.61-.49,4.01-3.25-4.62.66,3.74-5.94-8.14,3.3v-4.62l-5.72,2.86-1.1,3.52-3.52-3.74-5.06-2.2.44,2.64,3.96,3.52-6.38-.88,7.48,3.96-5.06.66c0,6.82,2.2,13.42,2.2,13.42-9.03-.22-19.15,2.64-19.15,2.64l-.44,8.58h-8.14s1.76-.22,1.54-5.28c-.22-5.06-19.81-7.7-19.81-7.7,2.42-1.32,2.42-6.82,2.42-6.82-.44-4.18-8.8-4.4-8.8-4.4-8.8-17.6-33.01-10.56-33.01-10.56v-9.02l-22.01.44v14.74l12.32.66c-5.06,6.16-3.96,13.86-3.96,13.86-5.94,10.35,5.06,16.73,5.06,16.73h-28.83l-.78-30.19,2.02-.72c.58-11.12-7.07-12.71-7.07-12.71l-28.73-.14c-6.64,1.88-6.21,10.25-6.21,10.25l-3.47.14.14,19.93-24.8,1.84,2.3,19.29-9.19,5.97v6.89h9.18l2.3,138.72-7.81,1.38-13.78,26.64L-3.42,62.61l15.71,37.49,222.42,35.02,7.99-15.16,176.96,31.42v11.03l-3.51,1.92.71,22.58.94,10.11.24,7.29-9.88-2.12ZM490.24,343.91h.01s-.01,0-.01,0h0ZM454.97,247.57l.27-24.91-40.96-6.3-.94,22.04,22.51,3.75.94,184.28,6.1.47.43-33.18h-3.25l.22-4.76h15.16l-.43-2.6s-6.06.65-5.85-4.33c.21-4.98,6.71-4.11,6.71-4.11,0,0-3.03-2.17,0-4.11,0,0-6.28-.65-6.28-4.55s4.98-4.55,7.15-4.55c0,0-4.76-1.3-.22-3.25,0,0-8.66-1.08-9.31-6.28l3.46-.65-.87-31.62s2.82-2.82,8.88-2.6c6.06.22,8.88,1.95,8.88,1.95l.87,22.3,21.8-.66-.46-94.19-34.81-2.14ZM571.25,380.14l2.64-2.51-.19-24.64-27.12-.41.38-126.43-6.98-.97-.19-27.91-5.46-.4-1.11,7.95-21.66-2.97v-.02s-6.52,3.86-6.52,3.86l-.59,9.2,3.86,1.19-.89,140.37,4.45-.3.3-37.98s3.86-4.15,12.46-3.26c8.6.89,8.9,4.75,8.9,4.75l-.3,35.59h-.01s-.78,2.16-.78,2.16h4.36c.69,3.68-9.87,6.89-9.87,6.89,2.76,2.52-.23,5.28-.23,5.28,0,0,7.12-.23,7.35,4.13s-7.58,5.28-7.58,5.28c.92,2.53,0,5.97,0,5.97,0,0,7.81-.23,7.35,4.59s-7.58,5.51-7.58,5.51l.23,1.61,24.34,1.38.69-11.02h2.53v6.89l1.84-.69v-29.62l2.76-.92.23-5.05,3.9-.23.23,5.51,3.67.23v23.42c3.67-2.52,6.43,2.53,6.43,2.53l.43-6.65-2.96.45.69-2.76ZM517.29,369.36l-2.3-2.76,2.07-2.76s-6.5-.9-9.68-4.35h0l.03,35.12.69,8.04s.92-3.67,7.81-3.44l-.69-2.07,1.38-2.3s-7.35-.46-8.04-5.28,8.73-4.36,8.73-4.36l-2.76-2.53,2.3-3.44s-7.58-.23-8.04-5.51c-.46-5.28,8.5-4.36,8.5-4.36Z"/>
</svg>