<?xml version="1.0" encoding="UTF-8"?>
<svg id="Layer_1" xmlns="http://www.w3.org/2000/svg" version="1.1" viewBox="0 0 1280 720">
  <!-- Generator: Adobe Illustrator 29.8.2, SVG Export Plug-In . SVG Version: 2.1.1 Build 3)  -->
  <defs>
    <style>
      .st0 {
        fill: #3aedce;
      }
    </style>
  </defs>
  <path class="st0" d="M602.21,210.24l-55.24,15.89-6.98-.97-.2-27.91L1117.8-5.83l164.42,3.23.78,26.55-613.91,167.87-.19,5.04-1.36,1.36-.78,5.81-11.05-2.71-18.99,5.43-.97,64.16-5.62,4.07.97-59.9-28.89-4.84ZM454.96,247.57l34.82,2.14.8-23.57-35.35-3.48-.27,24.91ZM1282.19,359.28h0s.04,0,.04,0h-.04ZM1283.12,466.19l-80.04-7.04-6.3-2.41-9.63-.74.74-34.09-.19-5.56-1.85-4.82-5-13.9v-12.23h-8.71l.37,10.93-2.96,7.78-2.96-7.04v-9.26l-.93-3.34-6.48-.37-.56,2.41v8.71l-5.37,11.86-2.96,9.45-.56,34.65-7.41.19.74-28.72-.56-9.63-6.3-17.23-.93-11.49-7.04.37v8.89l-2.22,5.74-4.45,11.49-1.11,7.41-.56,31.87-61.14-5.19,3.71-6.67.37-10.38-2.41-13.53-3.52-11.49,17.05.93v-27.05l-18.34-.19-.37,20.57-40.02-1.11-5.37,15.01-2.59,11.3.19,10.38,3.34,6.48-22.05-1.67v-16.86l4.45-2.41,2.41-2.96v-7.23l-1.3-2.22v-3.34l-5.56-7.41h-2.59l-2.78-4.45-6.11-2.78-7.6.37-1.3-1.11-6.48,1.3-.19,2.78-4.08-1.67.93,2.78-2.41,1.11-4.63,4.82-2.96,10.19,1.3,2.78-.74,5.93,6.48,1.3v15.38l-99.68-9.63-.19-25.57c-2.41-9.26-12.23-15.74-16.86-16.3s-3.15,2.59-3.15,2.59c7.79.92,10.75,6.48,10.75,6.48l1.3,3.52-3.71,4.45-3.89,4.26,1.3,4.45,5.93-.37.74,9.45-1.3,5.74-101.35-10.19-.93-5.19-1.85-1.11-2.22,2.41-1.85-3.34-4.45-1.67-4.45.93,1.3-1.67-2.78-2.96,2.41-1.3,1.67-2.41-1.3-2.22-3.34-1.85.37-2.22,1.3-3.34-2.59-2.78,1.48-3.71-.19-3.34-5.19-2.41-.19-5.19-1.67-2.04-2.96.37-.93,3.71.56,3.34-1.85.37-3.71,2.22.56,2.59v2.96l-2.96,1.3-3.15,3.34,3.52,10.01,2.96,1.48v4.26l2.96,5.56h-13.53v-2.59l-3.15.37-.74,1.67-9.45-.74-.56-4.82-5.56-3.71-6.11-.56-1.67-2.22-20.57-2.04-24.83.93-1.3,1.85-12.23.56-14.27.19-28.9,1.48.37-16.68,2.41-.74,1.48-3.15,2.59,3.34-2.59,4.45,4.08.93.93,1.3,3.52-.37,4.63.19,2.96-1.48-3.89-1.48,4.45-1.67v-3.34l.93-3.89-1.11-3.52-1.48-1.67-2.59.74-4.26.19-2.59-1.11-4.63,1.11-3.34,3.52-1.11,1.85-.19-24.64,56.7.19.56-43.17,33.91-2.41.93,38.54,2.41.37-.19,8.15,129.51.37.19-25.01,102.83-2.96.19,18.71,2.59-.19-.37,11.86,379.23,1.85.93,106.9ZM744.93,370.11l-9.28-.2v12.94l9.28.41v-13.15ZM1268.14,668.86l-4.72,4.72,18.88,6.49.59-204.68-7.08,2.95-7.67,190.52Z"/>
</svg>