<?xml version="1.0" encoding="UTF-8"?>
<svg id="Layer_1" xmlns="http://www.w3.org/2000/svg" version="1.1" viewBox="0 0 1280 720">
  <!-- Generator: Adobe Illustrator 29.8.2, SVG Export Plug-In . SVG Version: 2.1.1 Build 3)  -->
  <defs>
    <style>
      .st0 {
        fill: #ea3b8b;
      }
    </style>
  </defs>
  <path class="st0" d="M452.1,78.32l-3.59,3.31.28,24.26-20.4-4.96-3.03,2.2-.55,57.88-4.13,1.38v-11.02l-176.96-31.43-7.99,15.16L13.29,100.1-2.42,62.61-1.04-2.16l448.45,1.1,3.86,3.86-2.2,3.58,13.78,4.41.45,11.52,1.56,1.29.19,43.7-.27,14.88-12.68-3.86ZM496.2-1.89l-1.38,73.04,1.93,2.76.28,11.85-1.65,3.58,38.31,10.2-.28,10.47s13.78,2.48,13.78,8.54l-1.1,56.78,17.09,3.31v5.79l-6.89-.28-20.67,8.54-.28,4.13,5.46.4L1118.8-5.83,496.2-1.89ZM468.5,24.57l-.33,52.86,1.66,5.5,19.85,6.01-1.84-4.17.17-13.34,2-1.5V4.72l-10.84,10.84-8.17-2.5.17,11.51h-2.67ZM468.83,21.23l-.16-8.17-3.51-.67.17,8.51,3.5.33ZM431.63,109.26h0s0-.01,0-.01h-.01ZM431.64,109.26l-.59,51,6.5,1.38-.2-21.27s.39-3.74,10.83-2.95l-.79-24.62-15.75-3.54ZM455.87,136.22l7.68,2.36,3.54,1.58.39-8.86s1.97-4.53,13.39-3.74c11.42.79,12.8,6.89,12.8,6.89l-.59,13.59,5.91-.59.2-23.63-43.32-9.26v21.66ZM455.86,114.56h0s0,0,0,0h0ZM469.25,91.7l1.58,7.29-1.18,11.42,35.45,8.27.79,28.56h0s6.11.99,8.47,2.57l-.2-34.86s1.97-5.51,12.6-4.73l-.59-4.73-56.92-13.79ZM462.96,105.7l-.4-11.03,1.58-4.53-9.26-2.56.4,19.7,9.25,2.16-1.57-3.74ZM464.73,103.73l3.15,1.97v-10.24l-3.55-.79.4,9.06Z"/>
</svg>