<?xml version="1.0" encoding="UTF-8"?>
<svg id="Layer_1" xmlns="http://www.w3.org/2000/svg" version="1.1" viewBox="0 0 1280 720">
  <!-- Generator: Adobe Illustrator 29.8.2, SVG Export Plug-In . SVG Version: 2.1.1 Build 3)  -->
  <defs>
    <style>
      .st0 {
        fill: #f255ee;
      }
    </style>
  </defs>
  <path class="st0" d="M835.18,503.21l-371.42,82.02h-4.56l-201.95-137.08-.69-2.29.13-7.13v-.02s196.94-13.19,196.94-13.19l3.53,1.62s-6.39,1.88-6.39,5.39,6.14,3.76,6.14,3.76l-3.13,4.13,1.88,2.63-9.27,5.14.5,3.13,12.65,1,7.14.13-2.7,2.9,1.66,4.36,15.14,4.77,32.57-2.9s-1.04,2.49-3.11,2.7-7.68,3.53-7.68,3.53l.41,4.15s20.75,5.81,34.02-.62v-5.6l-9.96-1.87s-2.07-2.9,1.45-3.53l-2.49-4.15s7.05-1.87,7.05-6.64-7.26-4.98-7.26-4.98l1.45-2.28-2.07-2.49s8.27,0,9.32-5.7l27.56,4.15,67.03,14.14,205.79,40.4.32,10.42ZM471.3,430.91c1.19,3.65-6.11,5.52-6.11,5.52l2.46,3.72-1.73,2.46,9.77,5.52-.27.8,9.84-.27s-5.98-3.19-7.44-9.3c-1.46-6.11-.11-14.14-.11-14.14l-11.83-.31h-.01s-1.08,2.48-1.08,2.48c0,0,5.32-.13,6.51,3.52ZM490.56,445.62c-5.42-2.21-9.36-14.03-9.36-14.03-1.6,14.4,9.36,14.03,9.36,14.03ZM481.75,424.49h0s0,0,0,0c0,0,0,0,0,0ZM493.1,443.79s5.05-6.31,5.93-9.08-.33-9.6-.33-9.6l-8.18-1-8.77.39c2.02,11.85,11.35,19.29,11.35,19.29ZM515.24,444.05l-1.76-1.87,1.76-2.2s-7.14-.99-7.36-5.71c0,0-.11-3.62,7.8-3.95l-.85-1.45-7.61-1.07h0s-2.2,17.45-7.69,21.52h8.02s-.66-4.06,7.69-5.27Z"/>
</svg>