<svg width="1280" height="720" viewBox="0 0 1280 720" fill="none" xmlns="http://www.w3.org/2000/svg">
<path d="M526 128.5V232L509 230.5V139.5L343.5 111.5L342.5 215L332.5 214L334 92.5L526 128.5ZM1086 170L1141 165V198.5L1130 199.5V183L904 200V217L893.5 218H885V186.5L928 183.5V85.5L1086 63.5V170ZM67 46V189.5L45 187.5L44.5 61.5L0 53.5V32.5L67 46ZM1068 72.5L944.5 90.5L942.5 91L942 92.5L939 165V173.25L939.5 176.5L942.5 179.5L945 181L1076 171V167.5L1073.5 164.5L1076 161V75L1072 73L1070 72.5H1068ZM609.5 51.5L817 0H975L609 79.5L312.5 0H437.5L609.5 51.5Z" fill="#00D5FF"/>
</svg>
