<svg width="1280" height="720" viewBox="0 0 1280 720" fill="none" xmlns="http://www.w3.org/2000/svg">
<path d="M334 252L335 423L336 435L346 434L345.5 459V463L346 507.5L347.5 509L348.5 507.5V463L371.5 466.5L368 509.5L359.5 513L353 517L347.5 521.5L344.5 527.5L343.5 533L344 553L347.5 570.5L331.5 573L326.5 573.5C323.5 573.667 315.9 574.2 309.5 575C303.1 575.8 301.167 578 301 579L237 591.5L173 605V616.5L217.5 634L0 679V460L54 456L56 529L57 544L58.5 545.5L59 543.5L57.5 455H70L67 235.5L334 252ZM499.5 490.5C497.9 494.9 498.5 498.667 499 500L473 503.5L470.5 504.5L468 506.5L466.5 509L452 548L444 549C443.833 548.167 442.1 542.9 436.5 528.5C430.9 514.1 418.5 507.833 413 506.5L416 475L496.5 465.5L499.5 490.5ZM58.5 542L58 543.5L57.5 542.5L55 456H56L58.5 542ZM609 270V519L583.5 524L576 503L569.5 490.5L562 482.5L553.5 478L547.5 476H542.5L540 452L562 449.5L561.5 447L526 443.5V442.5L527.5 441.5L526 439.5L523.5 435.5L522.5 432V428L523.5 429L526.5 436L527 438V440L528 441L528.5 439.5V435.5L528 432L526.5 428.5L524.5 424L523 421.5L522.5 420L526.5 419L528 418L529 417L525.5 407.5L524.5 366L527 365.5L528 367.5L531 365.5V367.5H534L534.5 365L538.5 360.5L541 361.5L542 359V356.5L538.5 357L537 355L532.5 359L534 354.5L538.5 353L537 351L539.5 348.5L542 347L545.5 345L547.5 343L550 342V333L547.5 332L542.5 333L541 335.5L544 338L541.5 341.5V338L538 339L539.5 336.5L542.5 330.5L542 329.5L539 331.5L536.5 330.5L536 334.5L534.5 336.5L534 334.5L535 332.5L533.5 327L531.5 326.5L530 325.5L529 324H531.5L531 321.5H528L529 317L527 318.5L526.5 317L527 314H524.5V265L609 270ZM347.5 459.5V463L348 507L347.5 508L347 507.5L346 463V459L347 434H348.5L347.5 459.5ZM405.5 476L403.5 505C391.9 504.2 381.333 506.333 377.5 507.5L381 471.5L405.5 476ZM533.5 476C523.9 475.2 511.833 479.333 507 481.5L505.5 463.5L532 460L533.5 476ZM413 452.5L399.184 453.98C399.12 454.008 399.058 454.015 399 454L399.184 453.98C399.846 453.697 400.728 451.237 400.5 448.5C400.1 443.7 396.667 442.5 395 442.5L367 444.5C360 445 358 449 358 452.5C358 455.3 359.667 457.333 360.5 458L348.5 459L349.5 433.5L412 429.5L413 452.5ZM512 435.5L512.5 445V449L508.5 449.5L508 445.5L506.5 443.5V439L507 437L509 432V429.5L510.5 426L512 435.5ZM500.5 424L499.5 425L499 428V430.5L496 437.5L496.5 439.5L498.5 436.5L498 441L499 443L500.5 444L465 447.5L464.5 426L500.5 423.5V424ZM518.5 427.5L521 434.5L522.5 442.5V443.5L520.5 445C520.833 443 521.2 438.2 520 435C518.8 431.8 517.833 428.667 517.5 427.5L518 426.5L518.5 427.5ZM505 427L500 439V436.5L501 430L502.5 425L503.5 421.5H505V427ZM312.5 0L609 79.5V239.5L526 232V128.5L334 92.5L332.5 213.5L67 189.5V46L0 32.5V0H312.5Z" fill="#FF0000"/>
</svg>
