<svg width="1280" height="720" viewBox="0 0 1280 720" fill="none" xmlns="http://www.w3.org/2000/svg">
<path d="M1280 672.5L1135 646.5V643L1136 640.5L1134.5 638L1138.5 640.5L1139.5 643H1142L1143 644L1145 647.5L1147 646V642L1145 638L1142 636L1137.5 635H1135L1133.5 633L1145.5 628L1149 627L1155 625L1161.5 623L1168 622L1172.5 620.5L1178.5 621.5L1174 618.5L1172 619.5L1169.5 618.5L1166.5 620.5L1161.5 620L1161 618.5H1165.5L1168 615.5L1164.5 616L1161.5 617.5L1158 616L1155 618.5L1149 617L1146 624.5L1144 624L1141.5 623L1136.5 625L1135 624.5H1130L1128 627.5L1126.5 630.5L1122.5 630L1139 611.5L1140.5 608.5L1143 607L1145.5 604L1147.5 602L1153.5 603L1163 606L1164.5 603H1167.5V602L1161 600.5L1156 599H1151.5L1154.5 595L1158 593.5L1161 590.5L1167.5 588.5L1170 585V588L1171.5 589.5L1172.5 587L1170 584L1178 581L1186 577.5H1192.5L1184 576L1181 579L1177 578L1176 580H1173L1171.5 582L1168.5 581.5L1166 584L1163.5 586L1160 585L1156 586.5V583.5L1159.5 581.5L1159 578L1157.5 577.5L1152.5 579.5V581L1148.5 584L1145 588L1145.5 589.5V591L1144 592.5L1143.5 591.5L1139.5 596.5L1137.5 598H1136L1134.5 599L1133 603H1129L1133 594.5L1140.5 583.5L1147.5 576.5L1149 577.5L1154.5 575.5L1157 576L1161 577.5L1166 582L1168.5 580L1163 571.5L1161 572.5L1157 569.5L1154.5 571L1151.5 570.5L1150.75 572.5H1145.5L1144 577.5L1143 578V575.5L1139.5 578H1137.5L1134 580L1133 579L1134.5 576L1133 573V568.5L1136.5 565.5L1136 563.5L1137 562V559.5L1135.5 555L1138 553V550.5L1136.5 548.5L1135 546L1136 545L1133.5 541C1132.33 540.5 1129.9 539.5 1129.5 539.5C1129.1 539.5 1131 541.833 1132 543L1131.5 543.5L1126.5 546.5L1126 548.5L1117 558.5V559.5L1111 571.5H1110L1107.5 564L1108 561.5L1106 560.5V556.5L1103.5 555L1102 553.5H1098L1098.5 552L1097.5 551L1095 551.5L1093.5 551L1091 552L1090.5 550.5H1088.5L1090.5 553L1094 553.5L1094.5 556L1100 559L1100.5 561L1102.81 562V564L1106.5 567L1105.5 569L1106.5 571L1105.5 576L1103.5 579V576L1101 574L1099 570L1094 569.5L1091 565L1087.5 564.5L1084.5 559.5L1082 561L1080 558.5L1079.5 556.5L1077.5 553.5H1073L1070 549H1067.5L1067 547.5H1064L1060.5 548.5L1058.5 547.5L1056.5 550L1059.5 549H1063L1063.5 552L1068 554.5L1068.5 559H1071L1074.5 561L1075.5 564L1076.5 569L1079 568L1081.5 570L1083 573L1087 576.5L1085.5 579.5L1087.5 583.5L1081.5 582L1079.5 584L1077 582L1073.5 577.5L1069.5 575L1064 574L1056 573.5L1049.5 576L1065 579L1069 581V585L1071.5 588.5L1073 594L1075.5 596.5L1076 599.5L1079.5 602.688L1079 604.5L1075.5 604L1074.5 599.5L1068.5 594.5L1065 595L1061 591L1059.5 590.5V589.5L1055.5 587H1054.5L1053.5 587.5L1050.5 584L1047.5 583H1044.5V581.5L1042.5 577.5L1040 575.5L1036.5 576L1034 572.5L1031 572L1029 572.5L1025.5 569.5L1022.5 570L1022 568.5L1020.5 568L1015.5 570.5L1016 572L1021 571L1022 572L1021.5 574.5L1025 576L1027.5 578L1033 580.5L1034 583L1035.5 584V585.5L1043.5 588.5V590L1045 591.5L1048 593V594.5L1052 596.5V598L1053 599L1053.5 603L1063 607L1063.5 608.5L1067 611.5V614.5L1072.5 617L1075.5 620L1079 622.5L1079.5 624.5L1083 627.5L1090.5 638L1086.5 636H1085.5L1084.5 635L1083.5 632.5L1084.5 631.5L1082.5 629L1079 627L1077 623L1074.5 622L1072 620L1070.5 618.5H1066L1062.5 618H1060L1058.5 616L1058 613.5L1056.5 612H1053.5L1052.5 611V608.5L1051 608L1049 607.5L1047 605V607L1049.5 608.5V611L1050.5 611.5V613.5L1053 614.5L1053.5 617L1056.5 618.5V622L1058 624L1064.5 626L1072 630L1068 632L1063.5 629L1061.5 629.5L1059 627.5L1057 628L1054.5 630L1053 630.5L1051 629.5L1049.5 630.5L1051.5 631.5L1056.5 630H1058L1061.5 631L1062.5 632L1059 633.5L907 605.5L905.5 598L905 592.5L906 585.5L907.5 579L918.5 548.5L954 536.5V527L929.5 524L932.5 518L933 514.5L932.5 512L931.5 510.5V510L931 509.5H930L925.5 509L921.5 510L916.5 512.5L910 516L904 519.5L901 521L840.5 514.5L839.5 513.5L839 512.5L837 511.5L835.5 511L833 510L830 510.5L819.5 512L755 505L745 473L744 471.5L743 471H741.5L679 482.5L677 483.5L676.5 485V486.5L681.5 505L609 519V270L887 255.5L886.5 431L1102.5 445L1129.5 448.5L1142 447.5L1142.5 242L1280 235.5V672.5ZM1280 188L1141 198.5V165L1086 170V63.5L928 85.5V183.5L885 186.5V218L609 239.5V79.5L975.5 0H1280V188Z" fill="black"/>
</svg>
