<?xml version="1.0" encoding="UTF-8"?>
<svg id="Layer_2" xmlns="http://www.w3.org/2000/svg" version="1.1" viewBox="0 0 1280 720">
  <!-- Generator: Adobe Illustrator 29.8.1, SVG Export Plug-In . SVG Version: 2.1.1 Build 2)  -->
  <defs>
    <style>
      .st0 {
        fill: #f94eb4;
      }
    </style>
  </defs>
  <path class="st0" d="M866.51,522.38l-5.37-4.3-6.33-5.88-6.56-5.2-9.5-5.88-4.98-2.71-6.79-4.07-7.01.23-4.52-1.58-2.26,11.31.9,8.6,2.04,6.11-8.82.9-4.75,1.81-5.2,1.13-2.94-.68.23-342.94-409.45-1.36-.68,323.04,2.71.9-1.58,4.75-45.02-.45-7.92.45-3.17-3.62,50.9-4.07.68-118.76-64.25-.23-.9,3.62,1.43-263.43,554.46.49,1.63,398.14-6.96,3.71ZM812.95,582.1l-7.01-.23-1.58-2.71-3.62-2.04,7.01-.45-2.49-4.75,2.26-3.85,2.26-3.85,5.66-.9-7.01-1.81s-9.5-1.81-14.93-6.56l-.45,32.58,4.52,4.75-.23,2.71-163.55,1.13,5.88,22.62,61.3.23.9,2.04.23,2.26,73.52-.45s-.45-17.19,29.18-19.68c0,0,2.26-9.73,8.14-9.95,5.88-.23,8.82-.9,8.82-.9,0,0-.45-5.88,2.71-8.14l-4.3.23-7.24-2.26ZM845.17,574.99l-6.73,2.8-7.85-.45-6.39-1.01-4.37,1.12s18.5,2.24,24.89,9.53l7.4,5.27,4.82.9-1.68-23.09-10.09,4.93ZM873.67,583.37l1.42-5.4-2.56.28-6.53,5.68-.57,7.95,4.54-.28,7.38-7.1-3.69-1.14ZM580.14,595.83l-6.24,22.52,55.45.08-6.72-22.84-42.48.24ZM398.45,595.11l9.36,28.56,60.49,1.2.96-3.6,2.88-2.16,96.25-.24,6-23.04-175.94-.72ZM380.69,595.83l-.48-4.56,5.28-4.08-.24-14.16-13.92-41.04-.24,46.08,3.36,16.32,6.48,24.72h17.28l-6.72-22.8-10.8-.48ZM384.53,530.54l-6.48-.72,7.2,20.88-.72-20.16ZM359.56,541.58l5.04,18.48-.24-21.84-4.8,3.36ZM350.2,573.98v16.32l-2.64,2.64-7.44,25.2,32.64.72-15.84-64.81-6.72,19.92ZM341.38,550.72l-21.3,73.94,9.45.61,4.55-7.11,7.49-30.96-.2-36.48ZM332.12,530.21l-15.03.05.04,74.42,15.38-56.53-.39-17.94ZM352.23,530.41l-.39,3.15,5.92-3.35-5.52.2Z"/>
</svg>