<?xml version="1.0" encoding="UTF-8"?>
<svg id="Layer_1" xmlns="http://www.w3.org/2000/svg" version="1.1" viewBox="0 0 1280 720">
  <!-- Generator: Adobe Illustrator 29.8.1, SVG Export Plug-In . SVG Version: 2.1.1 Build 2)  -->
  <defs>
    <style>
      .st0 {
        fill: #a3ea28;
      }
    </style>
  </defs>
  <path class="st0" d="M1282.19-9.62l.09-.02-18.97-.14-.04-4.28-21.36-.38.1,4.5-269.44-2.02-72.85,84.1-1.96,21.51-25.91,26.89,1.63,398.14,5.77-.77,5.29-2.88,5.53-.96,7.69-.72,4.33,2.64-.96,6.49,9.14-.96,2.64-16.83-24.76-9.14.24-3.13,19.95-.24,1.68-2.16,2.4-15.87,2.64-14.18,6.73-.24,8.17-53.13-32.46-.72-.24-3.85,4.33-.24,1.68-2.64h2.88l1.36-.69,1.67-4.91.78-.89.11-5.92.78-.22.22-7.26,1-1,.33-4.69-1-.67.33-7.15,1-.67,1-14.18-1.23-1.34.22-6.48,1.34-1.56-3.46-.11,1-8.37,29.25-4.13-1.06-11.11-9.75-.73-24.11-.21-.21-4.3,6.71-2.31-.1-2.83,2.2-1.47-2.41-2.1,1.78-2.83-1.47-.73.1-2.94,1.78-1.68.1-8.18v-5.35l-.94-1.36.1-6.6,2.41-.94-.21-2.94,12.89-7.23,11.74-.31,2.57.09s-2.97-16.23,3.43-21.94c6.4-5.71,12.34-5.03,15.09,0,2.74,5.03-1.6,21.03-1.6,21.03l10.97-1.14.69,6.17,21.49-.69,2.97-28.35,13.49-.23.91,2.06-7.77,60.58h7.31v4.57l-9.6,3.66-5.26,36.8.69,51.89-7.54.69-.69,3.89,22.17.69.23,4.8h-22.63l-4.8,29.03-5.94,42.06,22.17.91,1.37,21.72,9.14,5.26-1.37,3.2-36.35-.69-4.57,31.55s39.09-7.77,58.52.46c0,0,55.78,13.94,72.92,24l115.89,42.52,69.95,26.97-2.06-643.94ZM1247.36,499.3h-.02s-16.58,1.13-16.58,1.13l-110.45-18.55-3.65-2.25h-6.8l-76.38-11.36-.26-297.3,75.82-41.57,7.03.72-.18-4.33,114.92-60.96,17.16,1.23-.61,433.24ZM973.72,411.64l-9.26,66.16-1.33-10.06-2.38-.79-1.59-5.29-27.79-1.33,7.41-47.9,34.94-.79ZM926.61,508.24l33.35,1.59-5.03,28.05-4.5-2.65-9.26-.79-9,1.32-1.59,26.47-1.85-2.91-3.44-1.59v-10.59l-8.47,6.62,6.61-45.79,3.18.27ZM901.47,525.97l8.47,1.32-5.03,28.32-3.44.8,2.11-3.97-1.32-7.94-2.65-6.88-5.03-6.62,2.12-2.91,4.77-2.12ZM976.08,326.23l-2.61,5.22.2,4.62,2.41,2.61-2.01,7.82-.4,8.43-1.4,6.22.4,4.42-2.81,27.49-4.42-1.2-.4-2.61-4.41-.2v-6.82l-2.81-2.21,1.8-6.42h2.61l.61-8.83-2.61-.2.2-13.05,3.41-.6-.8-2.41-.41-5.82,1.41-3.41-4.82-.4-.4-8.83h-6.82l2.21-12.65,9.03-.8,11.64-3.41,1.4,9.03,2.01,2.01-2.21,2ZM982.7,316.2l-.4-3.81,6.02-1.41-1.6,12.04-3.61-1.2-.41-5.62Z"/>
</svg>