<svg width="1280" height="720" viewBox="0 0 1280 720" fill="none" xmlns="http://www.w3.org/2000/svg">
<path d="M973 183V477L577.5 478V481H577V400L575.5 398.5H541.5L540.5 399.5V478H370.5L361 477.5L347.5 477L338 477.5C341.167 475.333 347.5 467.4 347.5 453C347.5 435 338.5 423.5 327 421C315.5 418.5 295 418.5 286 429H283V426.5L203 425.5V182L973 183ZM218 434.5C215.6 436.1 215 439.5 215 441V478H203V434.5H218ZM257 434.5C259.8 434.5 261.5 435.167 262 435.5C243.6 447.5 239.333 468.833 239.5 478H219V441.188C219 438.537 220 436.625 220.5 436L229 434.5H257ZM661 452C661.5 454 662.5 463 674.5 463C684.1 463 687.167 455.667 687.5 452H661ZM399.5 449H386C386.5 451 387.5 459.5 399.5 459.5C409.1 459.5 412.167 452.167 412.5 448.5L399.5 449ZM1280 142H1259V163.5H1280V445.5L1269.5 443H1189.5V74.5H1280V142ZM755 392H753V393H752.5L753 405.5L756 406L763 405.5V393L761 392L760.5 392.5L759 391.5L758 392.5V393H756.5V391.5H755V392Z" fill="black"/>
</svg>
