<svg width="1280" height="720" viewBox="0 0 1280 720" fill="none" xmlns="http://www.w3.org/2000/svg">
<path d="M1107.5 507L1108 514.5L1108.5 520L1108 523L1107.5 517.5L1106.5 514.5L1106 511V507L1107 505.5L1107.5 507ZM1099 504L1100.5 505.5L1100 519L1095 517.5V512.5L1094 506L1095.5 503.5L1099 504ZM1128.5 318.5L1121.5 319L1117 320V443H1108.5V428.5L1107.5 426L1095.5 414L1088 412L1075.5 411L1064 412L1053 414.5L1045 420.5L1039 424L1032.5 428.5L1029 433L1027 442.5L1026.69 444H1023L1019.5 444.5L1018 447H1014.5L1010.5 443H999.5L1004.5 456L1009.5 458L1021 462L1024.5 473.5L1025 479.5L1024 494.5H1023.5L974 477H973V183.5L1127 107.5L1128.5 318.5ZM1189.5 443H1178.5L1179 318L1147.5 317L1146.5 293H1153V288H1146.5V277L1147.5 268.5L1146 94.5L1185 74.5H1189.5V443Z" fill="#FF0000"/>
</svg>
