<svg width="1280" height="720" viewBox="0 0 1280 720" fill="none" xmlns="http://www.w3.org/2000/svg">
<path d="M1280 74.5H1185L1146 94.5V92.5C1145.17 92 1142.2 91 1137 91C1131.8 91 1128.17 92.3333 1127 93V105L973 181L203 182V177L0 89V10L2.5 12.5L115 11.5L116.5 8.5L104.5 0H1280V74.5ZM344.132 163.063C341.479 163.099 339.334 163.631 339.342 164.253C339.35 164.875 341.508 165.351 344.161 165.316C346.815 165.281 348.959 164.748 348.951 164.126C348.943 163.504 346.785 163.028 344.132 163.063ZM455 159C443.954 159 435 160.343 435 162C435 163.657 443.954 165 455 165C466.046 165 475 163.657 475 162C475 160.343 466.046 159 455 159ZM752.5 157C741.178 157 732 158.343 732 160C732 161.657 741.178 163 752.5 163C763.822 163 773 161.657 773 160C773 158.343 763.822 157 752.5 157ZM788 161C785.239 161 783 161.448 783 162C783 162.552 785.239 163 788 163C790.761 163 793 162.552 793 162C793 161.448 790.761 161 788 161ZM337.805 159.063C335.152 159.099 333.007 159.631 333.015 160.253C333.023 160.875 335.181 161.351 337.834 161.316C340.487 161.281 342.632 160.748 342.624 160.126C342.615 159.504 340.458 159.028 337.805 159.063ZM565.65 159.183C563.183 159.215 561.189 159.656 561.195 160.166C561.202 160.676 563.207 161.063 565.675 161.03C568.142 160.998 570.137 160.558 570.131 160.048C570.124 159.538 568.118 159.15 565.65 159.183ZM792.5 156C790.015 156 788 156.672 788 157.5C788 158.328 790.015 159 792.5 159C794.985 159 797 158.328 797 157.5C797 156.672 794.985 156 792.5 156ZM814.5 151.5C819.5 154 838 157 878.5 157C910.9 157 932 156 938.5 155.5L961.5 138L960.5 137H831L814.5 151.5ZM197 137L224 154.5H311L313 152.5L289.5 136L197 135V137ZM730.5 147L794.5 147.5L800.5 140.5L734.5 140L730.5 147ZM602 141C593.163 141 586 142.119 586 143.5C586 144.881 593.163 146 602 146C610.837 146 618 144.881 618 143.5C618 142.119 610.837 141 602 141ZM593.5 133.5L595.5 136L597.5 137L598.5 138.5L599.5 139H605L605.5 138.5L606.5 137L609.5 136L611 133.5L601.5 132.5L593.5 133.5ZM292.332 124.477C289.44 124.592 287.128 125.5 287.168 126.504C287.208 127.508 289.585 128.228 292.477 128.113C295.368 127.998 297.68 127.091 297.641 126.087C297.601 125.083 295.224 124.361 292.332 124.477ZM780 119C766.745 119 756 121.015 756 123.5C756 125.985 766.745 128 780 128C793.255 128 804 125.985 804 123.5C804 121.015 793.255 119 780 119ZM820.5 125C817.462 125 815 125.672 815 126.5C815 127.328 817.462 128 820.5 128C823.538 128 826 127.328 826 126.5C826 125.672 823.538 125 820.5 125ZM421 118C407.745 118 397 120.015 397 122.5C397 124.985 407.745 127 421 127C434.255 127 445 124.985 445 122.5C445 120.015 434.255 118 421 118ZM220.5 122L223.5 123V123.5L225.5 124L227 123.5V123L230 122.5L225.5 121.5L220.5 122ZM556.915 120.565C553.636 120.495 550.962 121.205 550.94 122.152C550.92 123.1 553.562 123.925 556.841 123.996C560.12 124.067 562.795 123.356 562.815 122.409C562.836 121.462 560.194 120.636 556.915 120.565ZM283.241 117.326C280.349 117.441 278.041 118.435 278.085 119.545C278.13 120.654 280.51 121.46 283.401 121.345C286.293 121.229 288.602 120.237 288.558 119.127C288.513 118.017 286.133 117.211 283.241 117.326ZM827 118C823.686 118 821 118.672 821 119.5C821 120.328 823.686 121 827 121C830.314 121 833 120.328 833 119.5C833 118.672 830.314 118 827 118ZM770.856 49.5518C766.727 49.2399 763.294 50.1062 763.189 51.4863C763.085 52.8667 766.349 54.2388 770.479 54.5508C774.61 54.8626 778.042 53.9966 778.146 52.6162C778.25 51.2359 774.987 49.8637 770.856 49.5518ZM830.5 41C813.103 41 799 43.9101 799 47.5C799 51.0899 813.103 54 830.5 54C847.897 54 862 51.0899 862 47.5C862 43.9101 847.897 41 830.5 41ZM306.061 47.2559C302.253 47.4077 299.212 48.6911 299.269 50.123C299.326 51.5552 302.459 52.5941 306.268 52.4424C310.076 52.2906 313.117 51.0063 313.061 49.5742C313.003 48.142 309.869 47.1041 306.061 47.2559ZM359.5 39C342.103 39 328 41.6863 328 45C328 48.3137 342.103 51 359.5 51C376.897 51 391 48.3137 391 45C391 41.6863 376.897 39 359.5 39ZM589.5 45L593 47L593.5 48H598V46.5L602 45L595 44L589.5 45ZM775.118 39.4082C770.825 39.3155 767.322 40.3149 767.293 41.6406C767.264 42.9664 770.722 44.1163 775.015 44.209C779.307 44.3016 782.81 43.3022 782.839 41.9766C782.867 40.6508 779.411 39.501 775.118 39.4082ZM303.023 37.5732C302.836 36.1524 299.621 35.4025 295.843 35.8984C292.064 36.3945 289.151 37.949 289.338 39.3701C289.525 40.7912 292.74 41.541 296.519 41.0449C300.297 40.5488 303.21 38.9943 303.023 37.5732Z" fill="#00FF2B"/>
</svg>
