<svg width="1280" height="720" viewBox="0 0 1280 720" fill="none" xmlns="http://www.w3.org/2000/svg">
<path d="M347.5 454C347.5 466.4 341.166 474.833 338 477.5L347.5 477L361 477.5L369.5 478H371.5L376 479L380.5 480.5L385.5 483C387.5 484 393 484.5 393 499.5C393 511.5 386 519.833 382.5 522.5L381.5 523.5L382.5 524L384 525.5V539C384 543.8 382.333 546 381.5 546.5L364.5 555L351 557L338.5 557.5H317.5H304V561L303.5 571.5L302.5 576.5L301 578L297 580.5L291.5 584.5L287 587.5L284 589L282 589.5L269 591.5L267.5 592L265 593H263.5L263 592H261L242.5 593.5H229L182 593H143L129 592.5V595L128.5 596.5H125.5L124.5 595V592L119.5 591L116 589.5L114.5 588L114 586.5L113.5 581.5V569C113.5 565 114.833 563.667 115.5 563.5C108.667 560.333 95 549.8 95 533C95 516.2 104 509.667 108.5 508.5L116.5 506.5L127.5 504.5L142.5 501.5L152 499.5L158 499L165 498.5L188 498H203L204 494L205 492L206.5 489.5L208.5 488.5L215 486.5L215.5 497.5H219V485.5L239.5 479V478C239 473.333 240.4 460.6 250 447C259.6 433.4 276 429.333 283 429H286C289.5 425 294.5 422.5 302.5 420.5C310.5 418.5 328.5 420 335 424.5C341.5 429 347.5 438.5 347.5 454Z" fill="#00DDFF"/>
</svg>
