<svg width="1280" height="720" viewBox="0 0 1280 720" fill="none" xmlns="http://www.w3.org/2000/svg">
<path d="M828.5 79.5L832.5 81.5L836 380.5L835.5 382.5L834.5 385V392.5H833.5L832 391.5L830 390.5L827.5 391.5L824 393.5L822 396.5V400.5L824.5 401L825 400L832 400.5L834.5 402L835 414H830V412.5H828.5L825 414V417H826V421L824 421.5L823 423.5V427.5L824 428.5L826 429L827.5 434V435.5L824.5 433L824 436L822 439V446.5L820.5 448.5V453L823 454L822 483L825 484H828.5L832.5 483L831.5 476V472L830 466V463L831.5 457L831 453.5L832.5 451.5V449L831.5 446.5L828.5 443.5V441.5L829 440L830 439L833 443.5L834 442.5L831.5 438.5L829 429.5V428.5L831 426.5L830 422.5L828.5 421V418.5L830 417.5L830.5 417V415.5H834.5L835 427L837 429.5L838.5 601H836L833.5 601.5L836.5 606.5L833.5 605L832 608.5H829L828 609L720 610L719 612L717.5 613L715.5 612V610.5L718.5 607.5L714 606L713 547.5L714 546.5L715.5 542V538L713 539.5L712.5 536.5L707.5 75L828.5 74V79.5ZM861.5 573L854 581L853 469L860 463.5L861.5 573ZM643 479V483L641 486.5L639.5 489L641.5 492L645 495L646.5 496.5L649 496L654 499L656.5 497.5L654.5 490.5L660.5 491.5L659 498L655 501.5L652 504L654 509L658 506L665 507L670 504L673.5 506V510L676.5 511L680 506L684.5 513.5L686.5 517L685 520H680L678.5 525.5L671 516C670 517.333 668.2 520 669 520C669.8 520 672.333 525.667 673.5 528.5V536L668 542H676L673.5 546.5L668 548.5V552.5L674.5 551.5V556L676.5 559.5L678.5 567.5L676.5 569.5L653.5 570L653 564.5L651.5 557.5L650 554.5L648.5 552.5L645.5 550.5L647 549.5L650 548L651 545L649.5 541.5L646 539.5L641.5 538H637.5L633 532.5L628.5 532L624 530L618 528.5L614 527L610 524L608.5 525.5L606.5 523.5L603 522L601 523.5L599 525.5V520.5L601.5 516L604.5 510L607 504.5L610.5 498L613.5 495L616.5 491.5L615.5 499.5L613.5 504L615.5 506L619 501.5L619.5 497.5V489.5L623.5 486.5L625 485.5L626.5 483.5L629.5 481L622 489.5V494.5L623 496.5H625.5L626.5 497.5L627 499.5L629.5 496L632 494V499.5L630.5 504L633.5 507L636 506L637.5 499L640 496.5L637.5 494.5L634.5 492V489.5L636 484L637 480.5L640 477L643 479ZM591 508L593.5 510.5L596 510L595.5 515.5V526L594 521L590 520L588 519L588.5 514L587 510H582.5V508L586 505H589.5L591 508ZM621.5 459.5V460.5L620.5 464L621 465.5L623 466.5V469H619.5L616.5 467.5L614 469.5L618 475.5L615 476L612.5 473H610.5L609 475.5L605 477.5L604 479L608 480L610.5 482.5L612 484.5L616 486L614 489.5L608 497L603.5 497.5L600.5 496L598 497L598.5 490.5L602.5 462.5L603.5 459.182L608 460L612 459.5L616.5 459L621.5 459.5ZM582.5 471L583 473.5L584.5 475L587.5 479.5L589 478.5L588 474L588.5 472.5L591 474.5L592.5 477L593.5 479H596L598 478.5L597 486.5L596 497L592.5 495.5H591L587.5 496.5L584.5 496L583 493.5V492L585.5 490L586 488L583 485L580.5 485.5L579.5 484.5V470.5L580 469H581.5L582.5 471ZM690.5 492L688 489H684.5L682.5 489.5H681L678 483.5L675 481L671.5 479.5L670.5 476.5L672 474L670.5 472H667L665.5 474L667 477.5L665.5 478.5L660.5 476L661.5 471.5L658.5 469L655.5 464L653 462.5L655 458H689L690.5 492ZM602.48 459.638L600.491 466.597L599.496 474.066L599.3 475.533L596.565 470.748L596.559 470.736L596.553 470.724L594.952 467.522L595.036 467.314L596.036 464.814L596.106 464.638L596.276 464.553L599.15 463.115L601.576 459.235L602.48 459.638ZM599.924 463.765L599.85 463.885L599.724 463.947L596.893 465.362L596.047 467.477L597.438 470.259L598.699 472.465L599.504 466.434L599.509 466.397L599.52 466.362L600.546 462.769L599.924 463.765ZM859.5 449L853.5 455H852.5V428.5L854.5 427V402.5L856 401L859 400.5L859.5 449ZM589.5 450.5L584 451L581.5 449L585.5 448L589.5 450.5ZM589 422L593 424L596.5 426.5L600.5 430.5L602.5 436L604 440H602L599.5 441V444.5L598 445.5V447L601 449L600.5 451L597.5 449.5L593.5 450L591.5 446.5L589.5 445.5V439.5L588.5 437.5L587 435.5L585.5 434L582.5 432.5H579.5V428L581.5 425.5L582 422L586 421.5L589 422ZM688.5 340L690 448L688.5 449L645.5 449.5L644 446.5L643.673 443.5L642 442L640.5 444L640 447L638 449.5H634L632.5 448L632 445V441.5L629.5 440L628.5 438L625.5 438.5L623 441L621 440.5L619.5 438.5L616.5 440L617 438L613.5 438.5L611 440.5L609 443.5L607.5 443L605.5 436L603.5 432.5L602.5 430L600.5 427.5L596.5 424L594 422L590 420L584 419.5L580 420.5L579 419L578 339.5L686 338L688.5 340ZM859 396H856L854.5 394.5V384L852 382.5L851.5 340.5L854 339.5H858L859 396ZM688.5 326L687.5 327.5L579 330L577 220.5L579.5 219.5L668 218.68V224H683V218.541L686 218.514V224H687.5V218.5L688.5 326ZM857 214L858 325.5L851 327.5L850 213.5L857 214ZM794 299H794.5V271.5L794 271V299ZM737.5 296L736.5 297L734.5 297.5V298.5H744.5V292.5L737.5 292V296ZM746.5 292.5V297.5L747.5 298.5H754L753.5 294.5L751.5 293L749 292L746 290L746.5 292.5ZM797 294.5L799.5 295L801 296L802.5 296.5L803 297H808V292L806.5 291L805.212 289L804.5 287.5V286.5H797V294.5ZM784.708 287V289.5L782.5 293L786 292.5L787 294H788L790 292.5L791.5 292V289L791 287L788.5 285.5H786L784.708 287ZM752.5 286.5L748 287.5L751 289L752.5 290.5L756.5 293.5L756 289.5L755 286.5L754 286L752.5 286.5ZM676.5 277.5L672.5 280L668 282.713L667.5 285H670L672.5 286.5L674 283.5L678 278L680.571 277.786L679.5 278L678 279L675.5 281.5L675 284L674.5 288L674 293L682 288L685.5 286V283.5L684 282V279L682.2 277.65L684 277.5L685 278L687.5 281.5L687 277L685.5 276L682 275.5L676.5 277.5ZM758.5 287.5L758 290L758.5 292.5L761.5 290.5V286H759.5L758.5 287.5ZM734.5 290.5L736.5 290H744L741.5 288L738.5 287L735.5 286.5L734.5 286V290.5ZM744.5 285L745.5 285.5L747.5 285L748 284L746 283.5V282.713H743L744.5 285ZM750 284V285.5H751.5L754 285L751.5 283.5L750 284ZM730.5 282L733.5 283.5L736 284L739 285H742.5L741.5 281.5L740 280L737.5 279H732L730 278.5L730.5 282ZM797 284H805L804 266.5H796.786L797 284ZM789 278.5L788.5 280L789 282L790 283.185L791 283.5L792.5 282.713V279L791 277.5H790L789 278.5ZM806.5 283.5H814V266.5H806.5V283.5ZM668 271L667.5 280L669.5 276L671 271.5L670 268L667.5 267L668 271ZM672 271L672.5 277.5L680.5 273V271.5L678 269.5L672 268V271ZM816.5 273.5H824.5L824 256.5H816.5V273.5ZM684 271.5L687 270.5V267H679.5L684 271.5ZM667.5 265H674L673.5 259.5V257.5L667 257L667.5 265ZM676 265H683.5V257H676.5L676 265ZM686 261.5V265H687.5L687 259L685 256L686 261.5ZM735.5 251L734.5 251.5L732.5 252L732 254L731 255.5L729.5 256.5L726.5 257V264H734V261.5L735.5 260L737 259L738 258.5L738.5 257L739 256L741.5 254.5H744V247H737.5L735.5 251ZM742 258L740.5 259L740 261H739L737 262L736.5 264H744.5V257H742.5L742 258ZM746.5 264H754V257H746.5V264ZM756.5 264H764V257H756.5V264ZM777 247V254H779.229L781 256L782 257L782.5 258.5H783.5L785.5 260L786.5 261.5L787 264H794V257L792.5 256.5L790.5 255.5L789 253.5L788.5 251.5H787L786 250.5L784 246.5L777 247ZM806 248L805.5 250L804.5 251L803 251.5L802 253.5V254.5L801 255.5L799 256.5L797 257L796.786 264H804L804.5 262L805.5 260.5L806 259.5L807.5 258H808.5L809 256.5L809.5 255.5L811.5 254.5L814 254V246.5H806.5L806 248ZM811 258V259.5L808 261L806.5 262V264H814V256.5H812.5L811 258ZM667.5 254.5H684L683.5 247H667.5V254.5ZM686 254.5H687V247H686V254.5ZM746.5 254.5L774 254V246.5H746.5V254.5ZM726 254H729L734.5 247H726V254ZM787 248L787.5 249L789 250H790.5L791 252L791.5 253L794 254V246.5H786.5L787 248ZM796.786 246.5L797 254L799 253L800 251.5L800.5 250L801.5 249.5L803 249L804.5 246L796.786 246.5ZM816.5 253.5H826V246.5H816.5V253.5ZM667.5 245H673.5V237.5H667.5V245ZM676 245H687L686.5 237H676V245ZM756.5 244H764V237L756.5 236.5V244ZM796.5 244H804V236H796.5V244ZM806.5 244H824V236H806L806.5 244ZM726.5 243H734V237H726.5V243ZM737 237L736.5 243L754 242.5V236.5L737 237ZM686 234.5L687.5 235V226.5H686V234.5ZM670.5 234.5H683V227L670.5 226.5V234.5ZM726.5 224L729.5 224.5L731 226V228L733.5 228.5L735.5 230L736 231.5L736.5 233.5L737.5 234.5H744.5V226.5L741.5 225.5L739 224L738.5 221.5L736.5 220.5L734.5 219L734 217.5V216.5H726L726.5 224ZM746.5 233L747.5 234H759L758.5 226H746.5V233ZM761.5 234H766L765.5 226.5L761 226L761.5 234ZM792 226L791 227.5L790 228.5V230.5H787.5L786.5 232L786 232.5L786.5 234H794V225.5L792 226ZM786 217.5L785 219L783.5 221L782 221.5V223L780.5 224.5L779 225.5L777.5 226L777 233.5H784L784.5 231.5L786 229.5L787 228.5H788V227L789 226L791 224.5L793 223.5H794V216H786.5L786 217.5ZM796 233.5H804L802 230.5L800.5 230H799.5V228.5L799 227L798 226L796 225.5V233.5ZM796 223H797L799 223.5L800 225L802 226.5V228H803.5L804.5 228.5L805 230L806 231.5V233.5H814V226L811.5 225.5L808.5 223.5L807.5 221L806.5 220.5L805 219L804.5 218L803.5 215.5H796V223ZM816 233.5H826V226H816V233.5ZM737 217.5L738 219L739 219.5H740.5V222L741.5 223.5L744 224V216H737V217.5ZM746.5 224L766 223.5V216.5L746.5 216V224ZM776.5 223L778 223.5L780 221.5V219.5L781.5 219L783 218L784.5 216H776L776.5 223ZM806 217L807 217.5L807.5 218L808.5 218.5L810 219V221L810.5 222L812 223L813 223.5H814L813.5 215.5H806V217ZM816 223H825.5L825 215.5H816V223ZM726.5 214L733.5 213.5V206H726.5V214ZM736.5 213.5H753.5V205.5H736.5V213.5ZM756.5 213.5H763.5V205.5H756L756.5 213.5ZM776 213H783.5L784 205.5H776V213ZM786.5 213H793.5V205.5H786.5V213ZM796 213H803.5V205.5H796V213ZM806 206V213H824V205L806 206ZM687.5 204L685.5 208L577 210L575.5 105L576 102.5L578 101L685.5 99.5L687.5 204ZM667 208H671V206H667V208ZM675 208H685.5L685 206H675V208ZM850.5 89.5L855 92L856 204.5L849 204L848.5 89L850.5 89.5ZM667 196V203.5H682.5V195.5L667 196ZM685 203H686.5L686 195H685V203ZM735.5 187.5L734 189.5L732 191V192.5L728 195.5H726V203H733.5L734.5 199.5L737.5 197.5L738.5 195.5L743.5 193V185H736L735.5 187.5ZM741.5 196.5L740.5 197.5V199.5L738.5 200L736.5 201.5L736 203H743.5V195.5L741.5 196.5ZM746 203H765V195.5H746V203ZM776.5 203H784L783 200H780V197.5L778.5 196.5L776.5 195.5V203ZM776 192.5H778.5L781.5 194V196.5L783 197.5L786 200V203H794.5L793.5 195H791.5L790 194L788.5 192.5L787.5 190.5L786 189.5L784 188.5L783.5 187.5L783 185.5L776.5 185L776 192.5ZM806 186.5L804 189.5L801.5 191L799.5 193L798 195H796.5V203H804V198.5L808 196.5V195.5L811 192.5L813.5 192V184.5H806V186.5ZM811 195.5L809.5 198.5H808L806 201.5V203H813.5V194.5L811 195.5ZM816 203H825V194.5H816V203ZM669.5 193H682V185.5H669.5V193ZM685 185V193H686.5V184.5L685 185ZM726 193L727.5 192.5L729.5 191L730 189L732 188.5L734 185.5H726V193ZM746 192.5L759 193V185H746V192.5ZM761 192.5H765V185.5H761V192.5ZM786 186.5L787.5 188.5L790 189V190.5L791.5 192L793.5 192.5V184.5H785.5L786 186.5ZM796 192.5L798 192L799.5 190V188.5L802.5 187.5L803.5 185.5V184.5H796V192.5ZM816 192.5L825 192V184.5H816V192.5ZM666 183H672V175.5H666V183ZM675 182.5L686 183H686.5V175.5H674.5L675 182.5ZM726 177.5V182.5H733.5V176.5L726 177.5ZM736.5 182.5H752.5V176.5H736.5V182.5ZM756 182.5H762.5V176.5H756V182.5ZM776.5 181H783V175H776.5V181ZM786 181H793V175H786V181ZM795.5 181H803V175H795.5V181ZM805.5 181H823V175H805.5V181Z" fill="#4800FF"/>
</svg>
