<svg width="1280" height="720" viewBox="0 0 1280 720" fill="none" xmlns="http://www.w3.org/2000/svg">
<path d="M847.5 56H849L851 57.5L853.5 60L854.5 62L856 60.5L856.5 59L859 60.5H874.5L877 59L879.5 58L882 61V63H878.5L877.5 62H872.5V64L875 65H877.5V66L880.5 67L883 68.5V72.5L879.5 74L877 76L876 77H878.5L883 76.5L888.5 495.5V496.5H887L886.5 497.5L887 500H885.5L884 501L883 502L885.5 504.5L884 505.5L885.5 507.5L884 508V511L883 512V514L881.5 515L881 516.5L884 517V518.5L882.5 519.5L881.5 520.5L883 522.5L885.5 523L887 520.5L888.5 519L889.5 517V545.5L888.5 546V550L890 552V605L888.5 607H886.5L887 611L885 610H882V607L880.5 605.5L880 602.5L879 599L880 597V590.5L884.5 599.5L885 583.5L888.5 580V578.5L886.5 574.5L885 576.5L882 577.5L880 575.5V577.5L881 580V582L880 584.5L878 587.5L877 584.5L873.5 408V396L870 143L869 142V114H870V88.5H871.5L872.5 88V85.5L870.5 83.5L869 81V72.5L844 56L832 58V63.5L830.5 65H829V67L830.5 69L832.5 70L830 71.5L829 74L550.5 76V117H552V146.5H550.5L553 411.5C550.667 411 545.8 409.8 545 409C544.2 408.2 544.667 411 545 412.5L543 413.5L539.5 410L536.5 63.5L538 62L536.5 61L534.5 60L533 58L618 57L619 58.5L620 59H625V60L622.5 62L621 63.5V65L625 62L628.5 59L630.5 57L845 55L847.5 56ZM883 584.5V594.5L880 589.5V587.5L882 583.5L883 584.5ZM553.5 532L553 547.5L552.5 549.5H551.5V546L550 545L547.5 543L546 542.5L544 543.5H543L541 542.5V534.5H543.5L546 535.5H548L549.5 534.5L550 533L549.5 531.5L548.5 531L543.5 526L540.5 526.5L540 508L549.5 505L553.5 532ZM542 417L547.5 420.5V426L549.5 427L545 431L544.5 433.5L546 434.5L551 430.5H554V435.5H551L549.5 436L548.5 437.5V439L551.5 441V442.5L549.5 443.5L546 446L547.5 447.5L549.5 449L548.5 451.5V454L551.5 456L553 455L554 453.5V525L551.5 504.5L548.5 487.5L547.5 477L546 471.5L544.5 467L542.5 464.5V463L544.5 462.5H547.5L550.5 461L551.5 459.5L550.5 458L549.5 456L547.5 454L546 453.5L543 454L540 455L539.5 416.5L540.5 416L542 417ZM542.5 468.5L543.5 471.5L544.5 475.5L549 503L541.5 505.5L541 503L540 502V492.5H541L542.5 494.5H544.5L546 495V493.5L545 493L544 491.5L545 489.5L542 488.5L540 485.5L540.5 467H541.5L542.5 468.5ZM553.5 416.5L554 423.5L550.5 424.5L553 421L552.5 419.5L552 418.5L550.5 418L549.5 418.5H547L545 416L544 414.5V413.5L545.5 413H546.5L553.5 416.5ZM883 67L878.5 65H883V67Z" fill="black"/>
</svg>
