<svg width="1280" height="720" viewBox="0 0 1280 720" fill="none" xmlns="http://www.w3.org/2000/svg">
<path d="M714 606L711.5 609.5H701L700.5 605.5L698.5 605H697V606L698 608V610.5H694.5L695 608.5L694.5 607L692 609.5H689L685.5 608L682 609.5L681 608H678.5L676.5 607L676 605.5L677.5 604.5L677 601L675.5 601.5V599.5L675 597H674L673 596.5L672.5 597.5L670 598L669.5 601.5V603L668.5 603.5V606H666.5V608.5L665 609.5H662L660.5 608.5H658L658.5 605.5L658 604L656.5 603.5L655.5 602V600.5L654.5 599.5V584L654 575.5L653.5 570L676.5 569.5V571.5L673 577L669.5 585L666.5 590.5L666 592.5H664.5V595.5L665.5 599.5L668 598L671.5 594.5V593L675 589.5L678.5 586.5L680.5 586L681 586.5V588.5L682 589.5L684 588.5L685.5 587L683.5 586L684.5 583.5L685.5 582L688.5 580.5H690L691 581L690 583L688.5 584L687 586.5L691 587V588.5L692 590L694.5 588.5L695 590V592.5L694 594L695 596.5L695.5 599L696.5 601.5L699.5 600.5L700 598.5V595.5L700.5 594L701.5 592.5L703.5 590.5L705.5 592H707V589.5L706 588L704 587L701.5 585L701 583.5L703 582.5L705.5 582L704.5 577H701L700 575.5L699.5 574.5V572.5L700.5 569.5V567L698.5 564.5L695 561.5L694 560L693.5 556V549.5L694.5 548.5L697 549.5L699.5 551L700 552.5L699.5 553.5L700.5 554.5H706V558.5L707.5 560H710L710.5 558.5L711.5 553.5L710 553L710.5 551L711.5 550L712.5 548.5L713 547.5L714 606ZM639 570C640 571.833 642.8 574.4 646 570H650.5L651.5 580L652 602.5L649 599L643 602.5L640.5 605L636.5 601.5L633.5 599.5L632 601.5L629.5 600.5L628.5 601.5L627 600.5L626.5 599L627 598L625.5 594L623.5 592L621 590.5L620 588.5L621 587L624 587.5L626.5 590.5L627.5 591.5L628.5 589.5V587.5L630.5 587L634.5 589.5L635.5 591.5L636.5 590.5L637 589L639 586.5L640.5 588.5L642.5 588V584L633 574L634.5 573L632 571L634.5 570H639ZM869 72.5V81L870.5 83.5L872.5 85.5V88L871.5 88.5H870V114H869V142L870 143L877 584.5L876 583L874.5 581.5L873 582.5L871 584.5L869 588.5L867.5 590.5L866 591L865.5 593L864 593.5V596.5L862 593.5L861 595L859 593.5V598L857 597.5L854.5 596.5L851.5 596L852 595.5L852.5 594.5V592.5L851 592L849.5 592.5L847.5 594L848.5 596V598L847 599L846 598L844.5 595.5L842 597V598.5L844 600.5V602.5L841.5 603.5L840 602.5L838.5 601V578.5L838 578V557.5L836.5 413.5H837L837.5 428H842V402.5H838.5L841 400H842V397.5L840.5 397L837.5 396.5V392L840 391.5L842 389V384L838.5 381.5L836 381L834 241L833.5 170L832.5 96.5V81.5L828.5 79.5V74L830 71.5L832.5 70L830.5 69L829 67V65H830.5L832 63.5V58L844 56L869 72.5ZM615.5 583L616.5 585L616 587L613.5 589.5L611.5 588.5L608.5 585.5L607 582L606.5 579L609 578.5L615.5 583ZM853 469L854 581L861.5 573L860 463.5L853 469ZM710.5 544.5V547.5L709 549L707 550L706 549.5L704 549L703 546L703.5 544.5H704.5L706 546H707L708 545.5L709 544.5L709.5 543L710.5 544.5ZM581 547H574.5L570 548.5L568 547L571 543.5H581.5L581 547ZM559 451.5L560.5 453L561 455L559.5 457L556 459L554.5 462L559.5 460H560.5L559.5 463.5L559 467L558.5 473.5L557.5 526L560 526.5L560.5 494.5V470.5L561.5 465.5L563 461L565 465L567 468L569 469.5V475.5L575.5 459L578 460L579 462L578 465L576 468L567 483.5L572 479L579.5 470V485L576 489H569L568.5 486L567.5 484.5L563.5 483.5L561.5 484.5L560.5 486L563 487.5V490L564.5 491L565.5 493L567 496.5V501L565.5 503L564.5 506L565 510L563.5 512L562 511.5L561.5 514L563 516L565 517L564.5 520.5H566.5L571.5 521L573 522L575 524L574.5 527V529L573.5 532L571.5 534H568.5L567 533.5L561.5 528L558.5 526.5L556.5 527V529L560 532.5L564.5 538L567 543L566.5 544L565 545L558.5 544L553 547.5L553.5 535L556.5 544.5L558 543L554 524.5V453.5L555 452L557 451L559 451.5ZM712.5 536.5L710 534L709.5 536L710.5 538L710 539.5H708L705.5 538V536L707 534L706 532.5L703.5 529.5L702 528L700.5 529.5L699 528.5L697 526.5L696.5 524.5L698 522.5L699 520.5L697 517.5L694.5 516L693.5 515.5L693.415 508.448L691 507L689 458.5H686L655 458L654.5 455.5L649 451V452.5L645.5 455.5L646 452.5L645 449.5L688.5 449L690 448L688.5 340L686 338L578 339.5L579 419L575 416.5L573.5 418.5L571.5 419.5L570.5 416.5L569 414L567.5 413.5L564.5 414L559.5 409L558 411L558.5 414L554.5 412.5L553 411.5L550.5 146.5H552V117H550.5V76.5L707.5 75L712.5 536.5ZM571 457.5H574L574.5 460.5L571 464L565.5 459L569.5 456L571 457.5ZM600.5 451V454L599.5 454.5L599 456.5L597.5 459L592.5 452.5L593.5 456.5L590 457.5V456L589 454.5L587.5 454L586.5 456L585.5 453L584 451L597.5 449.5L600.5 451ZM616.5 453L620 454L621 455.5L617.5 456.5L613.5 458.5L612.5 456.5V453L611.5 450H615L616.5 453ZM634.5 458.5H632.5L631.5 455.5L633 454H634.5V458.5ZM626.5 456L624.5 458L623 457V455L624.5 453.5H626.5V456ZM568 453.5L565 456.5L564.5 454L568 451.5V453.5ZM856 401L854.5 402.205V427L852.5 428.667V455H853.5L859.5 449L859 400.5L856 401ZM630 454L628.5 452.5L630 451H631.5L630 454ZM639 451V454H636V452L634 449.5H638L639 451ZM579 441.5V445L576.5 445.5L575 445L572 444.5H569.5L568.5 443L569 441.5L570.5 440L572 439.5V440.5L574.5 443V441.5L575.5 440L576.5 439L579 441.5ZM561.5 437.5L560.5 440L557.5 443.5L554.5 442.5L556.5 440.5L558.5 437.5L560.5 436.5L561.5 437.5ZM568 435.5L568.5 437V438.5H565.5V435L566.5 434.5L568 435.5ZM851.5 340.5L852 382.5L854.5 384V394.5L856 396H859L858 339.5H854L851.5 340.5ZM579.5 219.5L577.009 220.496L579 330L687.5 327.5L688.5 326L687.5 218.5H686L579.5 219.5ZM851 327.5L858 325.5L857 214L850 213.5L851 327.5ZM578 101L576 102.5L575.5 104.5L577 210L685.5 208L687.5 203.5L685.5 99.54L578 101ZM849 204L856 204.5L855 92L850.5 89.5L848.5 89L849 204Z" fill="#FF0000"/>
</svg>
