<svg width="1280" height="720" viewBox="0 0 1280 720" fill="none" xmlns="http://www.w3.org/2000/svg">
<path d="M712 125V187L711.5 227.5L711 252.5V392L710.5 417L710 509L709.5 538.5L709 595.5V616L708 617L682 619L682.5 409L681.5 387L682.5 384H694L695.5 383.5L696 359.5L694.5 358H682.5V299L683.5 299.5L682.5 297.5L683.5 294.5L685 292L684 289.5L682 287.5L682.5 286V284.5L683.5 283.5L687.5 284.5L691 288.5L693 292.5L694 290L692 286.5L690 285L687.5 283H682V277L683 274L682.5 270.5L681 268.5L682 267.5L688 272.5V271L685.5 267.5L683.5 266.5L682 265.277L682.5 262H683.5L687.5 268V263.5L684.5 259.5L685 259L687.5 258L684.5 257.5L683.5 255.5L683 253L684.5 254.5L687.5 255.5L688 256.5L689.5 253.5H691L695 255.5L693 252L696 251L692.5 250.5L689 248.5L691 246.5L687.5 247L687 245.5L689 243.5H687L684.5 241.5L683 236.5L687 238.5L683.5 234.786L682.5 234.547L683 233L685 230L689.5 228L687 227L686 225.5L685.5 224L688 221.5V220.5L690.5 221L692 220.5L689 217L688.5 216.5L689.5 215.5L689 213L686.5 209L690.5 211.5L688 208.317L685.5 207L684 206.5L684.5 205H684L683 203V179L683.5 176L685 177.5L683.5 174.226L684 173L685 172.5L687 174.226L689.5 175L694.231 173L691.5 172L693.5 170L694 169L691 168L687 169L685.5 170V172L684 172.5L683.5 168H682.5V160L681.5 157L681 125L709.5 124.5L712 125ZM977.5 128.5L1002.5 129L1006 250V333L1009 440.5V467L1009.5 484L1010 506.5L1011 545.5L1011.5 575.5L1012.5 617H1008.5L1002 618L993.5 617H983L981 615L978.5 614V610L977.5 607.5L971.5 139.5L969 138.5L963 138L972.5 133V128.5L975 126.5L977.5 128.5ZM1078.5 130.5L1079.5 133V137L1080.5 141.5V145L1079.5 151V158.5L1080.5 182.5L1077 175.5L1072.5 170L1068 167L1063.5 165L1055 164V130L1078.5 130.5ZM629 147.5L628.5 149L625.5 149.5L624.5 148.5L625.5 146.5L627.5 146L629 147.5ZM633.5 145V146.5H630L629.5 145H632L632.5 144L633.5 145ZM633.5 124.5V140L627.5 139.5L626 136L622.5 133L624 131.5L621.5 130.5V129L624.5 128L628.5 127H630V124.5L628.5 123H631.5L633.5 124.5ZM617.5 129L619.5 130.5L616 131.5L614.5 132.5L617 134L614.5 135L612 134L611 131.5L610 130.5L612 129.5V128L617.5 129ZM628.5 125.5L626.5 126.5L620.5 128.5L623.5 126.5L627 125L628.5 125.5ZM614.5 123L616 125H614.5L612 126L611 127.5L609.5 127L609 125L609.5 122.5L614.5 123Z" fill="#1500FF"/>
</svg>
