<svg width="1280" height="720" viewBox="0 0 1280 720" fill="none" xmlns="http://www.w3.org/2000/svg">
<path d="M1015 59.5L1016.5 60L1019 61L1021 63L1022 65L1022.5 67V70L1021.5 72.5L1020.5 74.5L1018.5 77.5L1018 78.5L1019 80H1020.5L1024 83.5L1025.5 85.5L1031 89.5L1043.5 97L1052.5 101.5L1059.5 103.5L1069.5 106L1075.5 108L1080.5 109L1084.5 110H1089.5L1094.5 109.5L1095 110.5L1092 114L1090.5 117L1088.5 121.5L1086 125L1082.5 126.5L1080.5 127.5L1078.5 130.5L977.5 128.5L975 126.5L972.5 128.5V133L963 138H959L955 140L951 141.5L949 140L945 138L940.5 136L941 135L934.5 128.5L934 127L935 125.5L961 110L966.5 108.5L969.5 107.5L975 106.5L978 105L982.5 102L992 92.5L997 87L1000.5 82.5L1001 80V74.5L1000 71L999.5 69L1001 66L1002 63.5L1005 61.5L1007 60L1009.5 59.5H1015ZM665.5 54L668 55.5L669.5 57L671.5 59.5L672.5 62.5V65L672 67L671 68.5L669.5 69.5L668 70.7529L666.5 71.5L665.5 72L668 73.5L671 77.5L673 80.5L675.5 82.5L678.5 85.5L683 89L688 93L693.5 96L697.5 97.5L702 99L706 100.5L712 102.5L718 103H723.5L728.5 105V106.5L725.5 113.5L721.5 120L716.5 127L712 134V125L709.5 124.5L681 125L633.5 124.5L631.5 123.5L611.5 123H609.5V120L606 123L603.5 123.5V128H602L600.5 125L601 122.5L600 120.5L603.5 115H598.5L596.5 112V106.5L595.5 105V102.5L596.5 100.5L598 101L599 102H606L613 100.5L622.5 98.5L625.772 97.2725L626 97.5L629 99.5L632 102.5L636.5 102L641.5 101L645.5 101.5L650 102.5H653.5V101H650L647.5 99.5L645.5 98L642.5 96H639L636 95L634 94H632L638 89.5L641 86.5L644.5 84.5L646 82.5L649.5 79L652.5 74L654 73.5V72L653 71L651 68L650.5 66V62.5L651.5 61L652 59L654 56L655.5 55.5L657 54.5L661 53.5H663L665.5 54ZM624.833 96.333L624 96V95.5L624.833 96.333Z" fill="#FF0000"/>
</svg>
