<svg width="1280" height="720" viewBox="0 0 1280 720" fill="none" xmlns="http://www.w3.org/2000/svg">
<path d="M834.5 114.5C881.7 114.5 924.833 128.833 940.5 136L949 140L951 141.5L955 140L959 138H963L969 138.5L971.5 139.5L972 180.5L972.5 209.5L973 254L973.5 292L974 332L975 404.5V421L975.5 457.5L976 492.5V501L976.5 530L977 568L977.5 603V607.5H961.5L958 604L957.5 537.5H956L957 598.5L720.5 597.5L721 410L720.5 409.5H718.5L718 605H709V563L709.5 540.5L710 516V503.5L710.5 436V417L711 394V255L711.5 232L712 187.5V134.5L719.5 136L721.5 134.5L723 137L720.732 138.5V141H719V153H720.732V157L719 158V390.67L721.5 390V139C733.5 132.5 775.5 114.5 834.5 114.5ZM890 543L843.5 580.5H886.5L911.5 560V559L891.5 543H890ZM917 564.5L897.5 580.5H938V579.5L918 564L917 564.5ZM837 500.5L738 579L780.5 579.5L858.5 517L838 500.5H837ZM863.5 521.5L791 579.5H833.5L885.5 538.5L864.5 521.5H863.5ZM865 479L843.5 496L938.5 571.5L939 571V537.5L938 536.5L866 479H865ZM736.5 570L751.5 558V557.5L736.5 544.5V570ZM736.5 539L757 554L777.5 537V536L736.5 502V539ZM736.5 495L783 533L805 515.5L736.5 460.5V495ZM870 475.5L938 529.5L938.5 529L938 496L892.5 458.5L891 458L870 475.5ZM737 453.5L809 512.5L830.5 495.5V494.5L737 419V453.5ZM952 223.5L956 510H957.5L953 223.5H952ZM816 473L837 490.5L936 411.5V410.5L915 393.5L816 473ZM896.5 453.5L896 454.5L937.5 488V453.5L917 437.5L896.5 453.5ZM788.5 452L810.5 469.5L909 390V389L888.5 372L788.5 452ZM862 352L763 430.5L784 448L882.5 369.5V368L863.5 352H862ZM921 434L937 446V421L921 434ZM751.5 398.5L752.5 399L753 400L755 400.5V403H750L746 402.5L743 405V409.5H737V410L757.5 426.5L758.5 426L857 349V348L837 331.5L751.5 398.5ZM843 327L936 401L936.5 400.5L936 368.5L863.5 310.5L843 327ZM736.5 389L738.5 390L743 390.5V396L753.5 388L736.5 374V389ZM736.5 367L757.5 384H758.5L778.5 368V367L736.5 333V367ZM736.5 326L783 363.5H784L805 347L804.732 346L736.5 293V326ZM868.5 307L935.5 360L935 327.5L889.5 290.5L868.5 307ZM736.5 285.5L809.5 342.5H811L831 327.5L830 326.5L736.5 252V285.5ZM815 305L836.5 322.5L933.5 247V244L914 228.5L815 305ZM894.5 287L935 319.5V287L915.5 270.5L894.5 287ZM789 284.5L811 302L909 225.5L887.5 208.5L789 284.5ZM861.5 189L763 264V265L783.5 281H785L882.5 205V204L862.5 189H861.5ZM920 266.5L935 278.5V254.5L920 266.5ZM737.5 242.5V244.5L758.5 261H759.5L857 185V184.333L835 167L737.5 242.5ZM736.5 234L737 235L753 221.5L736.5 208V234ZM861.5 146.5L841.5 162V163L857.5 175.5L870.5 185.5L889 200L904.5 212L916.5 221.5L927 229.5L934 235V202.5L862.5 146.5H861.5ZM736.5 202L757 218H758.5L778 202.5V202L736.5 168.5V202ZM737 144V162L783 198.5L803.5 182.5V181.5L750 139L737 144ZM950.5 147.5L951.5 197.5L952.5 197L952 147.5H950.5ZM882.5 130L867.5 142L866.5 143L881.5 155L891.5 162.5L900 169L910.5 177.5L919 184L928 191L934 195.5V164L895.5 133.5L895 132.5L884.5 130H882.5ZM785 130.5L776 132.5L769.5 134L764 135.5L758 137L757 138L808.5 178.5L828.5 163L787.5 130L785 130.5ZM834.5 126L814.5 141L835.5 158L872 129.5V128.5L859 127L847 126L835.5 125.5L834.5 126ZM909.5 137L933.5 156V146.5L933 145.5L931 144L927.5 142.5L920 139.5L913 137L908 135.5L909.5 137ZM814 126L804 127L797.5 127.5L798 128.5L809.5 137.5L825.5 125.5L814 126Z" fill="#33FF00"/>
</svg>
