<svg width="1280" height="720" viewBox="0 0 1280 720" fill="none" xmlns="http://www.w3.org/2000/svg">
<path d="M936 410.5V411.5L908.104 433.759L903.5 433.5L893.5 432.5H886L879.5 435.5H868L864.29 434.221L915 393.5L936 410.5ZM937 435.387L921.7 434.524L921 434L937 421V435.387ZM909 389V390L857.228 431.785L853.5 430.5V416.5L863 396.5L863.445 392.043L888.5 372L909 389ZM936 368.5L936.5 400.5L936 401L843 327L863.5 310.5L936 368.5ZM882.5 368V369.5L864.245 384.048L865 376.5L857 367L860.5 355L859.657 353.856L862 352H863.5L882.5 368ZM935 327.5L935.5 360L868.5 307L889.5 290.5L935 327.5ZM857 348V349L856.415 349.456L853.5 345.5L831.5 343L826.223 339.944L837 331.5L857 348ZM792.81 336.738L771.5 337.5L774.412 322.449L792.81 336.738ZM830 326.5L831 327.5L817.908 337.317L801.955 336.608L775.396 315.871L777.5 301.5L778.36 285.354L830 326.5ZM933.5 244V247L836.5 322.5L815 305L914 228.5L933.5 244ZM935 287V319.5L894.5 287L915.5 270.5L935 287ZM909 225.5L811 302L789 284.5L887.5 208.5L909 225.5ZM771.615 279.979L769.5 296L764.5 295L762.5 287H758L757 284L759.5 282.5L753 277.5L753.684 265.692L771.615 279.979ZM721.5 293H719V158L720.732 157V153H719V144.5H721.5V293ZM882.5 204V205L785 281H783.5L778.789 277.323L779.5 264V251.437L861.5 189H862.5L882.5 204ZM742.901 257.101L740.5 278.5L736.5 280.277V252L742.901 257.101ZM935 278.5L920 266.5L935 254.5V278.5ZM773 269.5L772.604 272.495L763 265V264L773 256.386V269.5ZM764.5 231L770.5 237.5L773 243V250.477L759.5 261H758.5L754.154 257.585L755 243V228.948L756.63 227.686L764.5 231ZM743.764 249.421L737.5 244.5V242.5L745.211 236.528L743.764 249.421ZM857 184.333V185L779.5 245.41V243.5L776.5 218.5L775.772 212.862L835 167L857 184.333ZM745.542 215.397L745.5 216L737.855 224.093L740.5 224.5L744.805 228.414L737 235L736.5 234V208L745.542 215.397ZM934 202.5V235L927 229.5L916.5 221.5L904.5 212L889 200L870.5 185.5L857.5 175.5L841.5 163V162L861.5 146.5H862.5L934 202.5ZM771 225L769.5 227L765.5 225L762.511 223.132L769.896 217.413L771 225ZM766.277 192.537L768.791 209.818L758.5 218H757L755.607 216.913L756.733 184.833L766.277 192.537ZM741.847 172.815L742 174.5L747 194.5L745.961 209.384L736.5 202V168.5L741.847 172.815ZM778 202V202.5L774.767 205.069L774.5 203L774.032 198.797L778 202ZM1210 1.5L1205.5 7L1209 10.5H1205.5L1204 14.5L1207 15.5V19H1201.5L1194 14.5L1192 9L1189 5L1184.5 7L1188 11.5L1187 16.5H1189L1192 19L1199.5 21.5L1205.5 24.5L1210 26L1213 21.5L1218.5 29.5L1218 23L1215 19L1219 14.5L1225 19L1226.5 23V31.5L1220 35.5L1219 38L1221.5 40L1227 39L1229 41.5L1218 45L1215 44L1213.5 34.5H1211L1204 35.5L1198.5 39L1183.5 45L1179.5 41H1175L1171 38L1167.5 41.5L1172.5 47H1167.5L1164.5 43L1160.5 41L1163 38L1167.5 35.5L1168.5 33L1173.5 28.5L1176.5 26H1182L1186 27.5L1190 26L1183.5 24.5L1182 23L1184.5 17.5L1180.5 19L1172.5 14.5L1167.5 10.5H1165.5V12.5H1158.5L1156 14.5L1153 16.5L1154 19H1158.5L1171 21H1156L1154 23L1146.5 24.5L1140.5 26L1139.5 24.5L1137 26L1127 27.5L1126 26L1123 27.5L1118.5 31L1117.5 33L1121.5 34.5L1126 33L1128.5 28.5L1136 30.2754L1139.5 33L1140.5 37L1143 39V26L1147.5 27.5V33L1155 31L1156 34.5H1160.5L1167.5 33L1159.5 39H1154L1149 44L1143 47L1139.5 49H1136L1134.5 51L1128.5 52.5L1121 59L1121.5 56L1124 52.5L1119.5 49L1121.5 45L1122.5 41L1118.5 41.5L1115.5 44H1106.5L1103.5 45L1099.5 49L1097.5 52.5V57.5L1096 62.5L1094.5 66.5L1092 71L1093 76L1096 81L1097.5 85L1101 81L1102 82.5L1106.5 78.5L1108 82.5L1114 72L1118.5 76V69L1123 60L1127 55L1133 56L1136 53.5L1139.5 55V58.5L1136 61.5L1134.5 65L1137 69L1141.5 71L1143 76L1145.5 78.5L1143 82.5L1131 86L1123 89L1115.5 95L1105 104L1099.5 124.5L1103.5 131.5L1099.5 139.5L1103.5 146.5L1106.5 139.5L1103.5 135.5L1106.5 131.5L1121.5 106.5L1141.5 99.5H1154L1159.5 95H1167.5L1178 106.5H1198.5L1204 110.5H1223L1229 99.5L1237 95L1248.5 99.5V114H1216V135.5L1209 146.5V131.5L1204 117.5H1198.5L1194 124.5L1185.5 135.5H1178L1167.5 131.5L1162.5 135.5L1159.5 146.5H1150.5L1141.5 151.5L1133 158V166.5H1121.5L1115.5 177L1106.5 199L1093.5 184.5L1090 204.5L1080.5 183L1079.5 154V149.5L1080.5 145.5V141L1079.5 135.5L1078 131.5V129.5L999.218 81V62.5L998.5 51L957 66.5V0H1213.5L1210 1.5ZM803.5 181.5V182.5L783 198.5L773.129 190.668L771 171.5L769.5 166L771 162L769.5 160.5L771 157V155.682L803.5 181.5ZM934 164V195.5L928 191L919 184L910.5 177.5L900 169L891.5 162.5L881.5 155L866.98 143.384L896 141.5H905.599L934 164ZM761.5 158L763 163V170L765.076 184.278L756.979 177.853L757.5 163L755.5 159.5V155L759.5 154L761.5 158ZM780.5 149L808.82 147.16L828.5 163L808.5 178.5L771.906 149.723L774.5 147.5L778 146L780.5 149ZM741.163 165.304L737 162V158H740.5L741.163 165.304ZM835.5 158L821.123 146.361L853.061 144.288L835.5 158ZM927.5 142.5L931 144L933 145.5L933.5 146.5V156L915.185 141.5H925L927.5 142.5ZM1091.5 47L1088 52.5L1086.5 53.5L1085.5 56.5V60L1078.5 63.5L1075.5 66L1074 68L1072 72L1071 75L1069 77.5V86L1071 89.5L1074 94.5L1076.5 99L1080.5 105L1084 108L1086.5 109.5L1088 106.5V58.5L1089.5 53.5L1094 44.5L1091.5 47ZM1068 49L1066 54.5L1064.5 58.5L1059.5 61.5L1055 65.5L1051.5 70L1048 75L1044.5 79.5L1043.5 84V87L1044.5 90.5V94L1048 93L1051.5 87L1058 77L1067 61.5L1069.5 57L1072 54.5V50.5L1071 47.5L1068 49ZM1038 57.5V60L1034.5 61.5L1032 63.5L1027.5 67.5L1025 71.5L1022 76L1034.5 66L1038 63.5L1042.5 61.5L1046 58.5L1047.67 56.5L1049.5 54L1046 52.5L1038 57.5ZM1091 20L1086.5 22.5H1079.5L1078 25.5L1080.5 28.5L1078 30L1073.5 31.5H1070L1067 33L1064 35H1060.5L1057.5 36L1054.5 38L1052.5 40.5V42.5L1057.5 43.5H1062.5L1085.5 28.5H1094.5L1098.5 30V26.5L1102 25.5V22.5L1100 21H1097.5L1096 18.5L1091 20ZM1239.5 3.5L1243.5 5L1251.5 3.5L1249.93 5.07129L1250.5 5L1249.67 5.33301L1247 8L1242.5 10.5L1238 12.5L1237 14.5L1235.5 16.5L1239.5 17.5L1240.5 15.5L1242.5 13.5H1247L1248.5 15.5L1246 17.5L1242.5 19L1240.5 21.5L1238 24.5H1235.5L1233.5 21.5V19L1235.5 13.5L1240.5 9L1249.67 5.33301L1249.93 5.07129L1242.5 6L1240.5 5L1237 3.5L1235.5 6L1233.5 9H1231L1229 5L1226.5 1.5L1223 0H1242.5L1239.5 3.5Z" fill="#FF00BF"/>
</svg>
