<svg width="1280" height="720" viewBox="0 0 1280 720" fill="none" xmlns="http://www.w3.org/2000/svg">
<path d="M553.5 273L600.5 274.5L639 276.5L671.5 286L682 276.5V284.5H677L679.5 291.5L678.5 295.5L682.5 299V357L681.5 386.5L682.5 408.5V448L682 576V618.5L683 632.5L682 635.5L681.5 641.5L675 662.5L665.5 681L650 701.5L640 713.5L634.5 720H240L241.5 716.5L264.5 682L293.5 660L291 646L297 614L315 624.5L318 614L331 618.5L333.5 624.5L349 600.5L345.5 583L369 545L402 516L426 495.5V481.5L438.5 470L423.5 459.5L405.5 446.5L397 425L391 418L414.5 357.5L420.5 328L434 299.5L450 279.5L466.5 269H488.5L553.5 273ZM1055 130V164L1063.5 165L1068 167L1072.5 170L1077 175.5L1080 181.5L1085 189.5L1089 197L1089.5 202.5L1096 215L1102 220L1106.5 218.5L1113 220L1119.5 225L1125 234.5L1118.5 230.5L1113 225H1109.5L1107 232V236.5L1100.5 241.5L1096 244L1102 247.5L1100.5 251.5V266L1105.5 255L1113 249.5H1116L1121 246.5L1125 251.5V257L1119.5 262L1116 268H1109.5L1105.5 271.5L1107 279.5L1113 282L1119.5 275L1122.5 282L1119.5 289.5V295L1109.5 298.5L1116 305.5L1105.5 311L1107 318.5L1113 327.5L1116 317H1121L1122.5 323.5L1116 327.5L1126.5 335.5L1116 339.5L1125 351L1130.5 360.5L1134.5 368L1126.5 364.5V368L1125 372.5H1130.5L1133.5 377L1125 388.5L1133.5 393L1132 396L1129 398.5L1126.5 403H1122.5V414.5L1121 420L1125 423L1130.5 420L1133.5 425L1139 423L1141.5 431.5L1148.5 418L1151.5 425L1154.5 435L1148.5 441L1139 435L1132 426.5L1121 431.5L1122.5 455L1130.5 459L1135.5 465L1147 457.5L1153 462V470.5H1148.5L1144.5 480.5L1139 478.5L1134.5 482.5L1129 484L1133.5 492H1136L1134.5 498.5L1125 499.5L1126.5 502.5L1133.5 503.5V521.5L1132 525.5L1136 529.5L1148.5 539L1142.5 546L1146 552.5L1138 549.5L1136 552.5L1144.5 560.5L1147 557L1153 560.5V564H1147L1144.5 569H1142.5L1141.5 564L1137 562H1132V567L1126.5 565L1121 562L1122.5 557L1129 562L1128 546L1114 552.5L1115.5 562L1111 567L1113 574H1122.5L1126.5 569H1132L1129 579.5H1126.5L1122.5 587L1141.5 593V587L1134.5 579.5L1144.5 574L1148.5 582.5L1154.5 598.5L1148.5 608.5L1134.5 604.5L1129 612L1144.5 621.5L1154.5 628.5V636L1144.5 651.5L1129 645.5L1122.5 662L1129 665.5L1138.5 662L1148.5 665.5L1157.5 674.5L1144.5 677L1148.5 690L1157.5 695L1154.5 706.5L1148.5 718L1096.5 683L1012.5 617L1011 544.5L1009 466.5V441L1006 331.5V251.5L1004 165L1002.5 129L1055 130ZM681.5 238.5L682 242.5L681 243L680 246H678.5L677.5 249L675 249.5L676 244.5L678.5 241L678 237H680L681.5 238.5ZM682.5 233.5L680.5 234.5V232L682.5 230V233.5ZM676.5 198L679 200.5L681 204L678.5 204.5L676 207L675.5 204L678.5 202L675.5 200.5L674.5 196.5L676.5 198ZM680 173.5L681 177L683 179V203L680 200.5L679.5 198L677 195.5L676 195L675 192.5L676 182L674.5 181L677 172.5L680 173.5ZM681 169.5L677 170.5L676.5 167.5H674.5L673.5 165H676.5L681 169.5ZM681 125L681.5 157L682.5 160V166L678 163L674 160L672.5 161L671 157L667.5 154L664 152.5L666 152L672.5 154L668 149.5L664 148L661 149.5L657.5 148.5L655.5 147L651 146L650.5 148.5L656.5 150.5L650.5 152L650 146L652.5 142.5H645.5L643 144L639.5 142.5H635.5L633.5 140V124L681 125Z" fill="black"/>
</svg>
