<svg width="1280" height="720" viewBox="0 0 1280 720" fill="none" xmlns="http://www.w3.org/2000/svg">
<path d="M393 232.5L391.5 231L390.5 231.5L389.5 232.5L388.5 234L387.5 236L386.5 238.5H386L385 239L384 239.5H383H381.5L380.5 240H378L377.5 239L376.5 239.5L376 240L375.5 239H374L373 239.5H371.5L370 239H369L368 239.5H367L366.5 238.5L364.5 238H362.5L361 237.5L359 236.5L357.5 235.5L356.5 235L355 234L354.5 234.5L354 235.5V237V238.5V240.5V243L353.5 245.5L352 249.5V254V256.5L350 255.5L348.5 254.5L349.5 253L350.5 251.5L351 250L352 248.5L352.5 246.5L353 244.5L353.5 242.5V241.5L353 240.5L352.5 239.5L351.5 238L352 237L351.5 236.5L350.5 237L349.5 238L348 239L346 241L344.5 242.5H343.5L343 243.5L341.5 245L339.5 245.5L337.5 246.5L336.5 247.5L335.5 245.5V244.5L336 243.5V243H335L332.5 243.5H331.5L329.5 242.5L328.5 241.5L327 242.5L326.5 241.5H325L322 241L317.5 239L316.5 238.5L315.5 238H315L314 238.5L313.5 240L314 241L313.5 242.5V243.5V245V246.5L313 248L312.5 249L312 250.5V252L311 252.5V254L311.5 257V259.5H310L308 258.5L305.5 257.5H303H301L299 258V259L299.5 260.5L300.5 262L301 262.5L303 264.5L304 265.5L306 266.5L307 267.5L309.5 268.5L311.5 269.5H313L315 270L316.5 271L318.5 272L321.5 273L327.5 272.5H333.5H337H339L340.5 271L341.5 270L343 269L344.5 268L345.5 265.5L346.5 263.5L347 261.5L348 262.5L349.5 263.5L351.5 265L353 265.5L355 266L356.5 267L359 268L361 269L363 269.5V268H364V270H366.5L367 269.5L367.5 268H369H370V269H372.5L373.5 268.5L374.5 269L375 270V271H375.5H377L378 270.5L379.5 270L381 269.5L382 268.5L383.5 268L384.5 266.5L386 265L387.5 264L388 263L388.5 261L389.5 259.5L390 257.5V256V253.5L390.5 251.5L391 250.5L392 249.5L392.5 248L393 246.5L393.5 244L394.5 242.5L395 241V238.5L394.5 236.5L394 234.5L393 232.5Z" fill="#FFAA00"/>
</svg>
