<svg width="1280" height="720" viewBox="0 0 1280 720" fill="none" xmlns="http://www.w3.org/2000/svg">
<path d="M1036 52.5V74L1037 103.5V116.5L1038 140.5L1038.5 163.5L1039 178.5L1040 203L1041.5 239L1055.5 239.5H1073L1120.5 239H1121.5L1122 240.5L1122.5 247L1123 254.5L1124 262.5L1125 275L1126.5 291L1127 303L1128.5 318.5L1129.5 337.5L1131 354L1132.5 373.5L1133.5 385.5L1134 394L1135 403.5L1136.5 423.5L1139.5 455.5L1142 487.5L1143.5 509.5L1144.5 522L1145 530.5L1142.5 529L1133.5 529.5L1132 530.5H1130L1129 529.5L1127 529L1125.5 528.5L1124 530H1121.5L1120 531L1119 530L1117 529L1115.5 531H1113L1111 530.5L1109.5 529L1108.5 528.5L1108 530L1107 529L1104.5 529.5L1103.5 529L1101.5 501L1099 477.5L1096.5 446L1092 393.5L1090.5 368L1088 336.5L1086 307L1085 283H1051L954 284H668.5L668 290V298L984.5 297.5L985 312.5L668.5 314.5V315.5L839 315L913 314.5H947V324L857 324.5L812.5 325H696.5L668.5 324.5V366.5L669 409.5V506L670 529.5H668.5L668 530.5L667.5 529.5L667 529L665.5 529.5L665 528.5H664.5L664 529H663L661.5 530.5L662.5 528.5H661.5L660 529L659.5 530L659 528.5L658 527.5H657.5L656.5 528L656 529L655.5 529.5V528.5L654.5 528H653L652 528.5L651.5 529.5L652.5 530.5L651 530L650 528.5L648.5 528H647L645 530L644.5 529L643.5 529.5V531H642.5L643 529.5V528.5L642 528H641L640 528.5L639.5 529.5H639V528.5H637.5L636 530L635 528.5L634 528L633 528.5V529.5L631.5 529L631 520.5L629.5 490.5L629 475L628.554 460.723L628 461L626 464V470H625.5V467.5L624 465H621L621.5 330H455.5L456 320.5H622.3L622.1 316.5H490.5L242.5 316L242 320.5L240.5 345.5L238.5 383L236.5 412V416H235.5L236 417L235.5 417.5L235 419V420.5L236 422.5L235.5 427.5L234 455L232.5 475.5H227L208.5 476H206.5L212.5 393.5L217 324.5H232L232.889 314.283L165.5 314L164 313.5L166.5 274L167.5 273H584V148.5H494L353.5 149L354 141L455 139.5H645.5L694 138.5H922.5L923 147.5H944.5L945.5 160.5L947 190.5L948 207.5L949.5 239H957.5V223L957 201.5L956 175.5L955.5 161.5L955 151L954 122.5L953.5 103V102H834L789 102.5L665 103H518L450 103.5H384.5L329.5 104H262.5L263 100.5V96L263.5 69V55.5L264.5 55H449L526.5 54.5H642L695.5 54H876.5L966.5 53L1033.5 52H1035.5L1036 52.5ZM995 320H989.5L998 456H996.5L995 455.5L992.5 455L990 455.5L987 454.5L984.5 454H982.5L979 453.5L977 452.5L975 453.5H973L971 418L970 398L971 397V396L969.5 397L970.5 395.5V394.5L970 393.5L968 352.5L966.5 319H989L994.5 317L995 320ZM346 334H286L286.5 324L346.5 323.5L346 334ZM372.5 179.5L371.5 203L370.5 224.5L370 239H369L368 239.5L368.5 221.5L369.5 192L370.5 163H373.5L372.5 179.5Z" fill="black"/>
</svg>
