<svg width="1280" height="720" viewBox="0 0 1280 720" fill="none" xmlns="http://www.w3.org/2000/svg">
<path d="M622.5 513L622 517L621 517.5L620.5 518V518.5L621 519.5L620.5 524.5L619.5 531L666.5 531.5L667 531L687 531.5H892L963.5 531H1018L1072 531.5L1122 531H1153L1159.5 532.5L1178 536.5L1189.5 539L1198.5 541L1215 545L1235.5 549.5L1261.5 555.5L1280 560V694.5L973.5 696L817 698.5L794.5 701.5L617 698.5L414.5 700.5L295 698L119.5 696.5H31.5L30 693V671L30.5 667L31.5 663.5V662L35 660L42.5 656.5L57.5 650.5L80 641L104 632L128 622L154.5 611L191.5 595.5L218 584.5L256 569.5L291.5 554.5L324.5 541L351.5 530L370.5 522.5L382.5 518L393 514L396 512.5L418 513.5L433.5 513L450 512.5L477.5 513H536L536.5 514H537.5L538 514.5L536.5 515.5V517H539V517.5L537.5 518.5L538 519.5L539 520L539.5 521L538.5 521.5V523.5L540.5 524L541 525V526L542 527V527.5L543 528L545.5 528.5L549 529H562L574 528.5L581 527.5L583 527L584 526L584.5 525V524L586 523.5L587 522L586.5 520.5L586 519.5L587 517.5L586 516.5L587.5 515L587 514L586 513L588 512.5L622.5 513ZM387.5 546.5L385 548L374 554L353 566L316 586L276 608.5L230 633.5L1017.5 636H1279.5V587.5L1251 579L1195.5 563.5L1166 556L1147.5 551.5L1141 549.5L1136 548L1132 547L1126 546H389.5L387.5 546.5Z" fill="#FFFB00"/>
</svg>
