<svg width="1280" height="720" viewBox="0 0 1280 720" fill="none" xmlns="http://www.w3.org/2000/svg">
<path d="M145 479L146 480V505.5L145.5 506.5L146.5 507.5V509L147.5 510L148 511L149 512.5L149.5 513.5V517L148.5 520V521.5L148 522L146.5 522.5L109.5 524.5L85.5 526.5L76.5 527H75L74.5 526V523.5L75.5 519.5L76 517L77 514.5L77.5 512.5L76.5 513V511.5L78 510L78.5 508L79 506.5L80 499.5L81 492L81.5 485V484L82 483L82.5 482.5L83.5 482L85 481.5H90.5L99 481L109 480H116L132 479.5L142 479H145ZM252 475V477L254 486L254.5 488.5L255 490.5L255.5 494V495.5L256 498L257 499L260.5 501L264.5 503.5L267.5 505L270 506.5V514L269 515L268 515.5L264 516L209.5 519.5H204.5L203.5 519L202 516.5L197.5 512L196.5 510L196 508.5L195.5 506V498.5L195 498L194.5 487.5V484.5L195 483.5L195.5 481V479L196 477.5L197 476.5H201L208.5 476L227.5 475.5H232.5L239.5 475H252Z" fill="#00FFF7"/>
</svg>
