<svg width="1280" height="720" viewBox="0 0 1280 720" fill="none" xmlns="http://www.w3.org/2000/svg">
<path d="M1086 307.5L1087.5 327.5L1090.5 368.5L1092.5 399.5L1094 417L1097 453L1099.5 480.5L1101.5 501L1103.5 528.5L1077 522L1072 445L1068.5 395.5L1064.5 341L1060.5 289.5L1051 293L1032 298.5L1007.5 305.5L985 312.5L984.5 297.5H990L993.5 296V293.5H1003.5L1006.5 292V290L1038.5 289.5H1063L1083.5 283H1085L1086 307.5ZM976 315L966.5 319L973 453.5L971 453H968L966 452H963.5L960.5 451L959.5 452L957.5 451H955L952.5 450.5L951.5 450L947.5 449.5L946.5 424.5L946 409L944.5 375L943.5 348.5L942.5 325L947 324V314.5L976 315ZM955 150.5L957.5 203V239H949.5L943.5 126L923 148L922.5 138.5L943 116V112.5L953.5 102L955 150.5Z" fill="#0037FF"/>
</svg>
