<svg width="1280" height="720" viewBox="0 0 1280 720" fill="none" xmlns="http://www.w3.org/2000/svg">
<path d="M346 336L292.5 335.5L286 334H346V336ZM233 316L193 315.5L230 324.5H217L165.5 314H233V316ZM422.5 316.5H622L622.5 320.5H370L346.5 320V323.5L286.5 324L258.5 316H337L422.5 316.5ZM1063 289.5H1060.5L1061 293V296L1055.5 295.5L1050.5 297L1047 298.5V300.5H1039.5L1035 302H1032V304.5L1025 305L1020.5 306.5H1018V308.5H1011.5L1007.5 310H1005V312.5H998L994.5 313.5V316.772L989 319H966.5L976 315L947 314.5H898.5L862 315H805L668.5 315.5V314.5L748 314L811 313.5L873.5 313L985 312.5L1051 293L1060 289.5H1033.5L1006.5 290L929.5 290.5H741.5L683 290H668L668.5 284H964.5L990.5 283.5L1042 283H1083.5L1063 289.5ZM953.5 102.5L943 112.5V116L922.5 138.5H690L648.5 139.5H466L425 140L354 141L353.5 149H398.5L438.5 148.5H584V151.5L527 152.5L483.5 153H382L381.5 152H373.5V163H370.5L369.5 192L262.5 104H347.5L479 103H618L839.5 102L953.5 102.5ZM944.5 148H923L943.5 126L944.5 148Z" fill="#5EFF00"/>
</svg>
