<svg width="1280" height="720" viewBox="0 0 1280 720" fill="none" xmlns="http://www.w3.org/2000/svg">
<path d="M865.5 485L870 485.5L873.5 486.5L876 487.5L877 488L878 489L881.5 503L882.5 506.5L883.5 512L884 516L883.5 518L882.5 520L879 523.5L876.5 524.5L873 525H853.5L849.5 524.5L846 524L842 523.5L838.5 523L835.5 521.5L834 520L833 518.5L832 516.5L831.5 513.5V510.5L832 506L833 500L833.5 495.5L834.5 491L835.5 488L837 486.5L839 486L842.5 485.5L847 485L855 484.5H862L865.5 485ZM760.5 431L762 432.5L763 431.5L765 432L768.5 435.5L769 436.5L769.5 435.5L768 434L767.5 433H769L772 433.5L773 434L774.5 433.5H780L781.5 432.5H784V435.5L786.5 435L790 434L792.5 433.5H794L795.5 434.5V435.5L795 436.5L794 440.5L794.5 442L798 441.5H807L808 442L808.5 443L808 444V453L810 453.5L815 454.5L817 455L818.5 456L820 457.5L821 459.5L822 462.5L823 464.5V465.5L822.5 466.5L822 467H820L808.5 466.5V468.5L807.5 469H798.5V464.5H808.5L810 464L810.5 463.5L809 463L807 462.5L798.5 462H790.5L785.5 462.5L784.5 463L785 463.5L787 464L791.5 464.5H796.5V469L768 468.5V467.5L767.5 469H785.5L789.5 469.5L792 470L793.5 470.5L794.5 471.5V472.5L795 474.5L795.5 481.5L796 491.5V496.5L795.5 498V499L795 500.5L794.5 501H791L732.5 501.5L731 501L730 500L729 498.5L728.5 497.5L726 494.5L724 493L714.5 483.125V468H699.5L691.5 463L690 461.5L689 457.5V448.5L688.5 445V443.5L689 441.5V440.5L690 439.5L691.5 439L693 439.5H695L697 440L698.5 441L699 440.5H701.5L703 441L704 443L708.5 446H713L716.5 445.5L720.5 446L722 446.5V449L723 450L723.5 451L725.5 452L727 452.5L729 453.5L730.5 454V455L732.5 455.5L734 456L735.5 457H743L742.5 452L741.5 445.5L741 442L740.5 440V438.5L741.5 438L743 437.5L744.5 438L744 436L744.5 434.5L745 432.5L746.5 431.5L748 431H750.5L752 431.5H754L755 432L756.5 431L759 430L760.5 431ZM947.5 449.5L951.5 450L952.5 450.5L955 451H957.5L959.5 452L960.5 451L963.5 452H966L968 453H971L973 453.5H975L977 452.5L979 453.5L982.5 454H984.5L987 454.5L990 455.5L992.5 455L995 455.5L996.5 456H998L999 456.5H1002.5L1003.5 457L1005.5 456.5H1008.5L1011.5 458L1012 458.5L1012.5 459.5V462.5L1012 465.5L1011.5 467V468L1012 468.5L1014.5 469L1015.5 469.5L1016 470L1016.5 471L1017.5 470.5L1019 471L1020 471.5V473H1017L1018 478.5L1018.5 483.5L1019.5 491L1020 496.5L1019.5 498.5L1019 499.5L1018 500L1016 500.5H957.5L953.5 499.5L951 499L950 498L947 497.5L933 493.5L932.5 489L932 486.5L931.5 485L930.5 483L928 480.5L926.5 479.5L924.5 478.5L922.5 478L920 477.5L917 477H912L907.5 476.5L904 476H900.5L897.5 476.5L895 477L892 478L890 478.5L890.5 461.5V459.5L891 458.5L891.5 458L892.5 457.5L898.5 457H937.5L939 457.5L939.5 458H940V457L940.5 456.5H941L942.5 452L943.5 450L944 449.5L945 449L947.5 449.5ZM824.5 489.5L826 490H827.5L829.5 491L830 491.5L830.5 499H828L824 498.5H822V488L824.5 489.5ZM807 481.5L815 485.5L816.5 486L817 498H815L809 497L807 496.5L806 496L805.5 495.5L805 493.5V486.5L804.5 480.5L807 481.5ZM843 469L854.5 469.5L853.5 470L850 471L849.5 470H847L845.5 471L845 470.5L843 470L842.5 471.5V473H839.5L838.5 473.5L837 474.5H835.5L834.5 474L834 474.5V475L833.5 476V476.5L834 477.5L835 479H804.5V473L805 472L807 470L810 469.5L814.5 469L822.5 468.5H840.5L843 469ZM858.5 471.5L857 470.5V469.5H859.5L858.5 471.5ZM767.5 463.5L768 465.5L767 461L767.5 463.5Z" fill="#FF00AA"/>
</svg>
