<?xml version="1.0" encoding="UTF-8"?>
<svg id="Layer_1" xmlns="http://www.w3.org/2000/svg" version="1.1" viewBox="0 0 1280 720">
  <!-- Generator: Adobe Illustrator 29.6.1, SVG Export Plug-In . SVG Version: 2.1.1 Build 9)  -->
  <defs>
    <style>
      .st0 {
        fill: #606060;
      }
    </style>
  </defs>
  <path class="st0" d="M0,142.22l552.27,48.32,4.27,239.71-1.75,4.05-28.39,2.17v2.23l5.8,2.11.06,7.01-6.77.77-6,.77-4.47.68-5.72.2-9.26.56-10.03.44-9.34.68-10.59,1.33-6.77.93-8.01.4-10.23.6-10.39.77-11.6.85-4.11.24-5.03.56-5.32.6-2.58-.52-3.1-.97-2.9-.28-3.54.56-3.02.32-7.89.32-8.46.32-8.01.6-9.14,1.09-7.97.72-7.77,1.01-6.89.89-8.86,1.33-4.95,1.05-4.39.4-5.32.93-4.71,1.13-3.22.85-2.05.4h-4.43l-1.21.36-1.69,1.61-1.93,2.78-1.61,2.17.08.48h.64l-4.19,2.38-.77.36h-4.59l-.93.36-.32.89-.08,4.19-2.46,2.74-2.46,2.7-4.23,5.96-4.67,6.28-2.21,4.23-2.7,6.16-1.85,4.35-3.62,6.36-2.86,6.32-2.05,4.03-41.68,4.23s-1.05-7.73-7.05-13.89-13.45-7.57-13.45-7.57l-6.24-1.49-2.26-.28-10.95-.6-1.49-.36-2.86.44-2.01-.4-3.46-.16-2.86.44-.68.68-.97.28-7.25.44-1.17-.68-.93.16-.56.12v.81l-2.94-.16-2.82.6-.89.81-3.5.44-.89.6-3.1,1.09-2.82.28-5.32,1.53-3.3,1.29-4.31,1.61-3.7,1.65-4.47,2.66-5.6,3.3-2.62,2.05-.68.12-2.58,2.17s-6.12,7.13-6,14.26l.02,1.07-40.55,4.47v-9.46s4.27-4.03,4.63-8.3.48-8.7.48-8.7c0,0,3.58-5.03,3.54-12.48s-3.26-11.96-3.26-11.96c0,0-2.38-3.22-8.05-3.22l-1.33-30.93s-.89-3.91-5.36-3.74-34.87,1.85-34.87,1.85l-1.69-34.95-.93-20.68-1.25-24.77-.36-11.11-1.13-23.11-.48-18.6-.4-11.92-.48-12.32-.4-11.23-.46-17.11v-140.1ZM402.98,218.19l-63.06-4.05-56.54-3.56-57.99-3.5s-38.05-2.48-39.74-2.6-1.93.97-1.93.97l.6,24.58.85,47.05.85,44.82,1.45,43.97,1.81,54.12c-1.99-.12-2.36,1.09-2.36,1.09v2.54l2.17.12.18,1.39s-.54.66.24,1.69.6,2.05.6,4.17,1.57,1.87,1.57,1.87l21.62-1.69,49.95-3.02,41.74-2.36,39.87-2.48,37.81-2.36,38.96-2.42,34.19-2.11c2.6-.3.97-2.3.97-2.3,0,0-1.03-2.17-.24-2.42s.72-1.39.72-1.39l-.12-1.75,2.3-.3c.66-.91,0-2.54,0-2.54h-2.66l-.74-45.5s-2.94-130.55-2.94-135.06-5.15-4.19-5.15-4.19l-44.98-2.8Z"/>
</svg>