<?xml version="1.0" encoding="UTF-8"?>
<svg id="Layer_1" xmlns="http://www.w3.org/2000/svg" version="1.1" viewBox="0 0 1280 720">
  <!-- Generator: Adobe Illustrator 29.6.1, SVG Export Plug-In . SVG Version: 2.1.1 Build 9)  -->
  <defs>
    <style>
      .st0 {
        fill: #606060;
      }
    </style>
  </defs>
  <path class="st0" d="M1280,0v55.52l-17.63,4.29-67.35,16.07-68.07,15.77v1.87l-.16,65.56-.32,73.61-1.13,74.09-1.61,97.61-1.93,69.58-5.6.89-.48,5.96,5.07.89c-.44,2.58.48,3.3.48,3.3,0,0-1.45-.04.56,2.82s1.61,7.99,1.7,9.78,1.51,1.78,1.51,1.78l115.73,16.91-154.51,42.24-.32-27.79,11.11-2.26-.04-5.8-15.02-2.66,1.41-8.74,2.86-16.35,1.81-15.18-.48-1.09-2.94-4.71-39.5-4.19-3.3,3.26-.89,3.3s-6.36,28.75-6.85,31.13.85,4.99.85,4.99l-7.25-1.41s-.44-13.25-.28-15.79-3.14-2.17-3.14-2.17c1.45-.64,2.58-2.66,2.54-3.79s-1.89-.4-1.89-.4c0,0-4.07,2.01-5.52,1.97s-.52-1.37-.52-1.37c0,0,.44.16,3.54-2.21s2.46-5.64,2.46-5.64l-9.14,4.47-2.7-.16-.52-1.57s2.01-2.86,1.89-4.99-2.09-3.91-2.09-3.91l-1.89,4.51-1.73.24-2.94-1.33v-.48c-1.53-.4-2.05,2.21-2.05,2.21,1.29,5.68,4.43,9.18,4.43,9.18l-.36.2c-1.93-1.33-4.39-2.26-4.39-2.26l-.52,1.05c-2.94-1.77-9.87-3.02-9.87-3.02-2.54-.4-2.58.52-2.58.52,1.13,3.66,7.93,4.99,7.93,4.99l.04.72-4.99,1.21-.28,12.2-20.36-3.87c-1.81,1.45-4.29,2.11-4.29,2.11-1.27-1.57-5.98-1.57-5.98-1.57l-.12-21.56,6.16-.36-.06-4.47c-1.93-2.36-6.58-1.39-6.58-1.39l-.6-22.11,6.4-.36c2.72-4.89-1.21-4.65-1.21-4.65-.12-1.39-4.89-1.09-4.89-1.09l.24-20.57c6.58-.09,6.49-4.02,6.49-4.02l-.66-.54h-4.56l-.09-3.38,8.64.06,17.31-.33s13.6-1.04,19.48-2.08,5.56-3.3,5.56-3.3l-3.62-27.3-7.99-42.36c-.36-1.85-1.49-1.81-1.49-1.81l-2.7-.04-18.72.2-24.93.2-17.44.85.16-.4c2.62-14.9-12.93-14.26-12.93-14.26l-47.96.4-33.22.89-30.72.85-43.29.44-29.15.24-32.98.6-29.11.16s-24.24.68-27.1.89-2.82,9.26-2.82,9.26l-.17,46.57-.79,1.95-5.26,1.01-.85-1.81-1.21-.72-6.95-.54c-4.5-2.36-7.4-.85-7.4-.85-3.05,2.2-7.46,3.71-7.46,3.71-1.36-1.78-3.99-2.63-3.99-2.63.66-.39.42-1.51.42-1.51l-3.05-.03-.06-4.05s24.4.12,25.85-.06,1.93-.97,1.93-.97c0,0-.18-4.29-2.54-16.91s-3.26-24.95-3.26-24.95c-23.44-1.09-46.39-.77-46.39-.77l-1.81,10.43s-5.07,28.31-5.36,30.16.68,2.09.68,2.09c13.85.72,28.35.85,28.35.85l.08,4.03-3.06.08c-.85.4-.08,1.53-.08,1.53,0,0-4.59,2.17-4.59,7.45s5.96,7.25,5.96,7.25l-7.29,9.26c-12.7-1.99-18.75-1.06-18.75-1.06l-.09,3.81-1.81-.94s-.88-4.32-4.23-3.78-6.58,3.78-6.58,3.78c-5.59,5.8-11.7,17.07-11.7,17.07l-4.27-239.71L1138.63,0h141.37ZM936.94,416.65l-.72,21.91.36,15.38-.36,9.26v11.52l-.4,10.95-.64,8.21v1.69l-.56,2.17-.81.81-1.37-.4-3.62,1.37,6.36.56h3.46l.56-1.37,1.45.32,2.82-1.13,3.46-.24s11.52,1.21,12.48,2.42v-18.77s-5.4,0-5.96-1.53-.81-3.06,0-4.91,5.56-.89,5.56-.89l-.08-19.65s-5.15-.08-6.04-2.82.48-5.23.48-5.23l5.56-.32.48-20.46s-7.01.28-7.49-4.51l5.32-.28v-3.14s-11.68.48-20.3-.93ZM688.57,272.28l6.93.97,44.94-5.15,6.77-1.77v-90.68l-4.35-1.29-54.28,13.21v84.72ZM795.84,260.69l7.25.81,69.74-7.73,3.06-.64,1.13-1.93v-108.24l-6.28-.97-75.87,19.65.97,99.06Z"/>
</svg>