<?xml version="1.0" encoding="UTF-8"?>
<svg id="Layer_1" xmlns="http://www.w3.org/2000/svg" version="1.1" viewBox="0 0 1280 720">
  <!-- Generator: Adobe Illustrator 29.6.1, SVG Export Plug-In . SVG Version: 2.1.1 Build 9)  -->
  <defs>
    <style>
      .st0 {
        fill: #606060;
      }
    </style>
  </defs>
  <path class="st0" d="M1138.63,0l-586.37,190.54L0,142.22V0h1138.63ZM510.75,46.5s-3.74-5.8-19.69-5.8-14.5,5.8-14.5,5.8l-.03,4.59s.48-1.49,1.89-1.85c0,0-1.93,3.18.04,4.35,0,0-31.41,1.69-32.38,13.77l1.57,30.68s1.33,11.11,44.46,13.29c43.13,2.17,49.89-10.99,49.89-10.99l-.97-29.6s-.12-7.73-9.66-10.87-22.59-5.8-22.59-5.8c0,0,1.45,0,1.69-2.42s.28-5.15.28-5.15Z"/>
</svg>