<svg width="1280" height="720" viewBox="0 0 1280 720" fill="none" xmlns="http://www.w3.org/2000/svg">
<path d="M498.5 490.5V466.5H569.5V470L570 470.5H573.5L574 470V466.5H639L658 467L665.5 467.5V489H658L649.5 488.5H646H640.5H625L586.5 490H545.5L524.5 490.5H511.5H498.5Z" fill="#00FF5E"/>
<path d="M1015 506.5V475L1059.5 474V504.5L1015 506.5Z" fill="#00FF5E"/>
<path d="M1124.5 499.5V473L1174 472.5L1173.5 497L1124.5 499.5Z" fill="#00FF5E"/>
<path d="M1183.5 472.5H1180.5L1180 496.5H1183.5V472.5Z" fill="#00FF5E"/>
<path d="M1194.5 472H1190V496L1194.5 495.5V472Z" fill="#00FF5E"/>
</svg>
