<svg width="1280" height="720" viewBox="0 0 1280 720" fill="none" xmlns="http://www.w3.org/2000/svg">
<path d="M1017 259L1015 474.5H1013.5L889.5 471L890.5 361.5L890 361L825 370.5L772.5 378L721 385.5V467H710.5L711 390L720 388V386L719.5 385.5V357.5L921.5 316L922.5 316.5L923.5 316L924 315.5V280.5L1015 257.5H1017V259ZM384.5 296V303.5L377.5 302.5V316L351 342L352.5 343L358 343.5H360L360.5 344H361L364.5 341L368.5 337.5L373.5 333L377.5 329L381 326L383.5 323.5V333L385 333.5V363.5H383L352 382.5V464.5L343 463.5V466.5L342.5 467L342 466V463.5L334.5 463L335 347.5L350.5 331V330L376.5 302.5H377L383.5 295.5H384L384.5 296ZM855.5 17.5L853 298L658 348.5V467L639 466.5V353L651 349.5V337.5L640 335.5V330L818.5 275L819.5 120.5L694.5 192.5H693V189L689 187L681.5 191.5V195.5L686 196.5V197.5L609 241V324.5L600 323.5V159.5L605 155.5H606L606.5 156L606 193.5H606.5L668.5 149.5L738.5 99.5L825.5 37L854 17H854.5L855.5 17.5ZM342.5 383V386L343.5 386.5H345V387L338 391V438.5L339 439.5L347 438L346.5 387V386L347 385.5H347.5V386.5H349.5V382H344L342.5 383ZM1128 107.5L1127 133L1126.5 134H1125.5L1124 133L1104 120.5L1103.5 120V119L1104 118.5L1111.5 116L1110.5 115.5L1107 116.5L1106 116L1105.5 117H1104.5V115.5L1125.5 107L1127 106.5L1128 107.5ZM965.998 35.1494L965.5 77L964 77.5L926.5 57L953.5 41L954.5 40.5L964 34.5L965.5 34L965.998 35.1494Z" fill="black"/>
</svg>
