<svg width="1280" height="720" viewBox="0 0 1280 720" fill="none" xmlns="http://www.w3.org/2000/svg">
<path d="M859.5 20L861 19.5L964 77.5L965.5 77L966 35.5H967L983 46L1013.5 65L1042.5 83L1045 84.5L1045.5 85.5L1047 85L1048.5 86L1050.5 87.5L1053 89L1054 90L1054.5 91.5L1053.5 92.5L1054.5 94.5H1055.5V93L1057 93.5L1057.5 92.5H1058.5L1060 94H1061.5V95L1060.5 95.5L1061 96.5H1062L1062.5 101L1064 100L1064.5 99L1065.5 98L1065 95.5L1066.5 97L1076 103L1088.5 111L1104 120.5L1125.5 134H1126.5L1127 133L1128 107.5L1127 106.5L1149.5 116L1150.5 116.5V117L1149.5 137H1147V136L1146.5 135.5H1146L1145 136.5L1144.5 138V140.5L1145 142L1146 143H1148V142L1148.5 141.5H1149.5L1149 157V176.175L1148.5 200.5L1147.5 223.5V247.723L1148 248.5V282.5L1147.5 299.951L1158.5 303.5L1194.5 315L1195.5 316L1195 339.5V414L1194 414.5L1191.5 414L1190 414.5L1189 415.5V416.5L1188 418L1187 419L1185.5 419.5L1183.5 421L1185 421.5V423L1183.5 423.5L1182 424.5V426L1182.5 426.5V427L1181.5 427.5V429H1183.5L1182 429.5L1181.5 431L1182 432L1183.5 432.5L1184 433.5L1184.5 434L1185.5 433.5L1187.5 433L1184.5 435H1183.5L1184 436L1185 436.5L1187 435.5V436.5H1189.5L1190 435.5L1194.5 432.5V472H1190L1190.5 462L1190 461L1187 460H1176L1174.5 460.5L1174 461.5V472.5L1124.5 473L1125.5 364.5V364L1125 363.5L1060.5 351.5H1060L1059.5 352V474L1015 474.5L1017 257.5H1015L1012 258.5V240.5L1012.5 214V191L1012 190.5L1012.5 172L1012 171.5L1010 171L982.5 158.5L981 157.5H979.5L978 267L924 280.5V313L853 298L855.5 17.5L859.5 20ZM1183.5 472.5H1180.5V463L1181 462.5H1183.5V472.5ZM719.5 357.5V386L666.5 381.5H666L665.5 467.5L658 467V350L719.5 357.5ZM639 353V466.5H574L573 466H570L569 466.5H498.5V372L484 371L465 369.5L435.5 367L408 365L385 363.5V333.5L383.5 333V323.5L639 353ZM614 394.5L621 395V391L614 390.5V394.5ZM552 373.5V378.5L552.5 379L562 380L564.5 378.5V374.5L554.5 373L552 373.5ZM1153 366.5V372L1157 373H1159L1166 372V367L1162 366H1159.5L1153 366.5ZM1037 343.5V350L1045 352L1047 351.5L1054 350.5V344.5L1046 343L1037 343.5ZM619 326.5L640 330V335.5L651 337.5V349.5L377.5 316V302.5L384.5 303.5V296L384 295.5L619 326.5ZM1045 266.5L1091 281.5L1127.5 293.5L1140.46 297.682L1018.5 257.5L1045 266.5ZM1060.5 194V199L1066.5 201.5L1073 199.5H1073.5V194.5L1067.5 192L1060.5 194ZM644 167L606.5 193.5H606L606.5 156L606 155.5L644 167ZM1128.5 131L1128 173L1141 180.5L1142 181L1142.5 180.5L1143 139.5L1129 130.5L1128.5 131ZM955 145.5V151L963.5 155L969.5 151.5L970 146L962 142.5L955 145.5Z" fill="#FF0000"/>
</svg>
