<?xml version="1.0" encoding="UTF-8"?>
<svg id="Layer_1" xmlns="http://www.w3.org/2000/svg" version="1.1" viewBox="0 0 1280 720">
  <!-- Generator: Adobe Illustrator 29.8.2, SVG Export Plug-In . SVG Version: 2.1.1 Build 3)  -->
  <defs>
    <style>
      .st0 {
        fill: #6bc2f7;
      }
    </style>
  </defs>
  <path class="st0" d="M277.9,534.47l-81.41,45.11-12.1,5.13-1.47-72.61L-3.37,585.44l-1.47,138.25,13.86.32-.17-5.25,3.57-2.78,11.7-.59,18.24-12.09-1.98.4v-6.34l4.56-1.19h9.52l3.77,1.78-.79,2.78-34.3,22.4-8.13,1.03,185.53,4.31,77.74-70.04h-.01s-.37-123.96-.37-123.96ZM54.05,604.76h0s-32.52,15.86-32.52,15.86l-14.08.2-.2-5.35,2.18-1.59,12.89-.4,15.66-7.34.4-5.15,14.08-1.19c4.96.99,1.59,4.96,1.59,4.96ZM132.75,558.36h.01l10.9-.4,9.12-4.16.4-4.16,10.31-.59c4.96.99,1.19,4.36,1.19,4.36l-19.83,9.71-11.9.79-.2-5.55ZM149.8,609.13h.01s-10.71.39-10.71.39l-.4-5.35,10.31-.2,9.12-5.35v-4.96s7.53-.79,10.11-.79,2.58,3.17,2.58,3.17l-21.02,13.09ZM246.96,579.42l-4.28.19-.87-2.82-1.65.87.58,3.11-1.94,3.3h-2.82l-1.46-2.24-1.56.1-.78,2.43-1.85-.49-.39-4.18,1.26-3.6v.03l1.36.29.39,1.94h1.36l3.6-5.54,1.46-.78.97,2.14,1.46.29.49-2.33,3.4-2.04,1.85,3.89-.58,5.44ZM392.89,429.95l-70.46,27.3-.19,5.03,5.42-.19.19,12h9.49l.97,5.61-11.03,5.61v25.75l4.65-2.9v6.19l-4.84-1.55-.19,101.05,61.75-56.72,82.47-.19,29.23-40.85,44.89-.39h0s10.67-.36,10.67-.36l-.55-29.09h29.64l-.55-7.13-39-.38v-.02s-15.49.19-15.49.19v-9.87l16.17-21.56-.6.31-3.92.25-3.16-.63,1.26-2.15h6.57l1.24.35,2.18-2.9,41.23-.19-.97-12.18-197.07-.39ZM346.45,468.28l-6.45,4.42-7.84-.25v-3.29l6.83-.13.13-2.78,7.46-.25-.13,2.28ZM357.2,496.47l-3.41.76-.13-4.68,2.02-1.01.13,1.9,4.3-2.78.76,6.19-3.67-.38ZM368.44,458.8l-8.22,1.39-.13-3.67,5.81-.76.38-1.9,6.57.13,1.01,1.39-5.43,3.41h0ZM429.25,445.71c-1.58.11-4.42-.53-4.52-2,0,0,1.05-3.58,4.52-3.26,3.47.32,1.58,5.15,0,5.26ZM444.71,477.26s-3.68,4.1-5.68-.74c0,0-.11-3.37,3.26-3.68,3.37-.32,2.42,4.42,2.42,4.42ZM485.23,447.93h-24.14l.13-2.78,24.52-.13-.51,2.91ZM545.41,484.87l-.02,3.08-5.92-.22-.13-2.65,6.07-.21ZM590.93,442.52h0v.02s0-.02,0-.02ZM797.6,442.01l-76.09-.17.69-12.19,74.89-.72.51,13.08ZM865.97,513.14l-104.81.83-.55-29.09-6.59.55v-6.04l110.03-1.37,1.92,35.12Z"/>
</svg>