<?xml version="1.0" encoding="UTF-8"?>
<svg id="Layer_1" xmlns="http://www.w3.org/2000/svg" version="1.1" viewBox="0 0 1280 720">
  <!-- Generator: Adobe Illustrator 29.8.2, SVG Export Plug-In . SVG Version: 2.1.1 Build 3)  -->
  <defs>
    <style>
      .st0 {
        fill: #55f9e2;
      }
    </style>
  </defs>
  <path class="st0" d="M1255.8,56.66h.01s-241.3,107.95-241.3,107.95l13.3,16.25-1.68,287.82-.04,9.84,1.27,11.81,1.05,11.81,1.48,3.37.21,5.91,102.49-.84v-28.68h9.7l-1.27-2.11-8.86-4.43,1.48-211.95,13.08-2.53.42-8.44,103.76-15.4,6.96,1.48-.63,107.34,1.9-5.27v10.97l1.9-5.69,1.48,13.71,2.53-1.69-1.9,6.96-3.16,6.12,5.48-5.06,1.69-5.27,2.53,4.43v3.37l3.59-4.22,1.05-11.81,4.01-5.27,2.32-5.91.21,14.34-3.8,5.48-1.69,5.69,2.53-2.74,1.05-2.74,3.37-1.05,2.32-304.54-28.84.99ZM1046.88,327.41l.83,2.35,3.74-2.35,1.52,2.08,2.63-1.66-.14,5.12-1.8-.97-3.18,1.38-.83-2.08-1.94,1.11-1.94.97-2.35-3.18,3.46-2.77ZM1052.97,357.98l-4.29-.14-2.91.55-1.8-2.91,1.25-2.63,8.72.28,1.66,1.25.14,2.63-2.77.97ZM1113,360.46h0s-3.87.42-3.87.42l-3.6-.14-5.4-.14-.69-4.29,13.56-.28v4.43ZM1112.04,332.81h0s-1.8-1.66-1.8-1.66l-.83,1.66-3.04.14-2.21-2.08-1.52,2.08-2.63-.83-.83-3.18,1.8-2.77,2.77,1.52,3.18-1.52,3.04,2.35,2.35-1.66,1.8,4.01-2.08,1.94ZM1196.49,232.19l-2.74-1.69-1.9,1.9h-6.54l-2.74,1.05-1.9-1.9,1.05-5.06,3.59.21,3.37.84,2.74-1.69h3.59l3.59.63v4.01h0s-2.11,1.7-2.11,1.7ZM342.14,169.28l1.68,174.2-34.29,1.74-37.27,1.47-2.6-212.02,3.57-2.27,68.91,36.88Z"/>
</svg>