<?xml version="1.0" encoding="UTF-8"?>
<svg id="Layer_1" xmlns="http://www.w3.org/2000/svg" version="1.1" viewBox="0 0 1280 720">
  <!-- Generator: Adobe Illustrator 29.8.2, SVG Export Plug-In . SVG Version: 2.1.1 Build 3)  -->
  <defs>
    <style>
      .st0 {
        fill: #f9943a;
      }
    </style>
  </defs>
  <path class="st0" d="M1014.52,164.57v.03s-313.28-2.71-313.28-2.71l-1.23-5.92h-91.44l-1.23,5.92-260.55,1.03-4.65,6.36.18,71.49,89.67-.9.18-14.95,6.3-.9c-3.78-7.02,7.02-3.42,7.02-3.42,0,0,8.28,3.96,9.72,7.92,1.44,3.96-4.32,4.32-4.32,4.32v7.02l99.94.36,1.8-11.16-5.04-.36-11.52-4.68,6.48-1.08,18.91-.18,17.65,1.44-6.84,3.96-10.44.9,4.5,11.16,21.61.18,1.44,9-246.69.18v55.1h16.03l.72-17.11,10.44-.36-.72,16.75,4.5.54.36-16.75,12.42-.54.18,16.75,9.18.54,1.08-21.43,7.02-.9,3.96,1.98-.18,20.53,5.22-.18v-18.55l4.86-4.14,6.84,1.62,2.34,20.17,11.52,1.08-2.52-1.8-1.08-6.48,1.44-4.5-2.52-3.78,43.58-.18,1.44,5.58-1.62,1.62,2.7,6.12-1.62,2.34,55.46.54.36-3.6,3.78-.36v-3.24l14.59-.36c-4.14-1.08-3.42-15.13-3.42-15.13,0,0,2.16,1.26,7.56-1.62s14.95-2.88,14.95-2.88c0,0,.18,7.92.18,13.14s-2.7,6.84-2.7,6.84l11.52.36.36,3.24h3.24l.36,3.24h3.96l.57,8.44-245.23.87v30.38l-34.29,1.74.87,70.31,3.7.44,96.59-.49-3.18-7.58-.24-2.93,5.38-8.07c-16.14-23.96,2.69-47.68,2.69-47.68,31.05-33.26,59.42-6.11,59.42-6.11l9.54-12.47,6.11,5.14-11,11c7.09,9.29,12.47,23.72,6.85,40.35s-23.47,24.45-23.47,24.45v2.69l131.55.73,2.45-5.62,36.68.24,2.69-5.14h8.8v-11.74l12.72-.49,3.18,1.96.24,10.51,8.56-.24,5.14,4.65,35.46-1.22,9.05,8.56-.98-24.45,3.18-.49v-4.4s-7.58-7.09-5.38-10.27,6.11.73,6.11.73c-1.71-8.07,3.67-3.42,3.67-3.42l.98,9.29-1.71,2.93,2.93,5.38,2.2.24-.24-9.78,3.18-3.91,1.96,8.8,4.16-5.62,4.89-.98-6.85,13.69v20.05h11.98l10.51,3.67,29.83.73,15.16,4.16.49,6.11h-8.26l.52,13.08,33.03-.75,1.05-199.65,132.83-1.31-2.29,208.63,30.04,10.73s24.43-.2,28.94.25c4.51.45,4.92,8.75,4.92,8.75l1.68-287.82-13.3-16.25ZM351.37,386.56l-.19-18.74h11.36l.57,18.55-11.74.19ZM716.01,250.29h0s-.42-8.2-.42-8.2l4.88-3.18,72.07.85.42,7.84-7,2.33-69.95.36ZM792.96,311.82h0s-76.53,1.07-76.53,1.07v-7l3.82-1.7,20.99-.64,2.12-2.54s-8.06,1.48-10.39-19.29l39.85-1.06s-2.12,18.23-9.75,19.93l1.06,3.18,29.25.21-.42,7.84Z"/>
</svg>