<?xml version="1.0" encoding="UTF-8"?>
<svg id="Layer_1" xmlns="http://www.w3.org/2000/svg" version="1.1" viewBox="0 0 1280 720">
  <!-- Generator: Adobe Illustrator 29.8.2, SVG Export Plug-In . SVG Version: 2.1.1 Build 3)  -->
  <defs>
    <style>
      .st0 {
        fill: #f75785;
      }
    </style>
  </defs>
  <path class="st0" d="M356.3,155.28l-9.51,7.64-4.65,6.36h0s-68.91-36.89-68.91-36.89l-3.57,2.27,2.6,212.02,37.27-1.47.87,70.31-59.13,16.11-3.34-4.59.88-2.85,1.54-10.76-.66-14.06-2.64-1.32-20.2.88-2.42,2.2.44,19.55,1.76,8.35-6.98,7.1-41.17,10.81-.39-6.05,1.98-.88-2.42-209.51L-1.55,188.33-3.07,13.34l5.1-4.49c4.69-1.43,6.53,2.45,6.53,2.45l44.43,43.47,2.65,4.28-.2,4.69-3.47.41-.2,2.04,2.86,1.02-5.71,5.3v7.96l-5.3,1.22-.2,3.67,5.1,2.86c-4.89,2.86-10.4,8.16-10.4,8.16l-25.5,29.38-6.32,6.53c3.67,6.53,55.28,12.25,70.18,14.08,14.9,1.83,17.14-.41,17.14-.41l-29.17-55.49,5.3.41-1.22-7.96-2.04-4.08.82-11.02-4.28-3.06,1.63-7.14.2-3.88-7.14-1.22L13.96,11.18l170.06,85.62c-3.67.81-3.67,4.69-3.67,4.69l-35.5,27.95s-3.06-3.26-4.69.61,1.84,5.3,1.84,5.3l-3.26,1.43c-3.26-18.56-13.87-14.89-13.87-14.89-7.96,1.84-6.53,15.51-6.53,15.51,2.45,15.51,7.55,17.14,7.55,17.14l7.34-.61c6.52-2.25,5.3-13.67,5.3-13.67,0,0,5.71,2.25,7.34.41,1.63-1.84-1.43-5.51-1.43-5.51,3.06-.61,2.24-4.08,2.24-4.08l36.52-27.34,4.28,1.02,33.46,28.56.61,4.69-4.28,1.43-1.02,12.24c-6.94,1.02-2.45,4.49-2.45,4.49l-25.71,32.03c25.3,11.42,57.33,9.79,57.33,9.79l-17.14-38.97,3.06-2.04-3.26-2.86,2.24-11.02-2.86-4.08c1.02-7.34-2.86-7.14-2.86-7.14l-34.68-28.97-2.24-3.67,11.41,5.37,83.43,1.03,73.78,49.64ZM61.8,473.16l24.15-5.88.08-4.79-24.34,5.73.11,4.94ZM100.96,460.24v2.8l8.82-1.96-1.66-3.09-7.16,2.25ZM150.47,446.74l-1.53,4.88,7.83-1.63-.37-5.09-5.93,1.84Z"/>
</svg>