<?xml version="1.0" encoding="UTF-8"?>
<svg id="Layer_1" xmlns="http://www.w3.org/2000/svg" version="1.1" viewBox="0 0 1280 720">
  <!-- Generator: Adobe Illustrator 29.8.2, SVG Export Plug-In . SVG Version: 2.1.1 Build 3)  -->
  <defs>
    <style>
      .st0 {
        fill: #f969de;
      }
    </style>
  </defs>
  <path class="st0" d="M1281.69-2.75L5.69-1.92l8.27,13.1,185.13,93.43,83.43,1.03,73.78,49.64-9.51,7.64,260.55-1.03,1.23-5.92h91.44l1.23,5.92,313.27,2.71,89.47-40.91,128.41-57.43,23.42-9.61,28.84-.99-2.96-58.41ZM324.43,55.72c-13.45-.78-24.16-4.89-23.91-9.17.25-4.28,11.36-7.11,24.81-6.33,13.45.78,24.16,4.89,23.91,9.17-.25,4.28-11.36,7.11-24.81,6.33ZM413.48,134.53c-9.73,0-17.62-1.93-17.62-4.31s7.89-4.31,17.62-4.31,17.62,1.93,17.62,4.31-7.89,4.31-17.62,4.31ZM738.46,136.01c-9.39,0-17.01-1.93-17.01-4.31s7.61-4.31,17.01-4.31,17.01,1.93,17.01,4.31-7.61,4.31-17.01,4.31ZM783.32,54.43c-14.29,0-25.88-3.09-25.88-6.9s11.59-6.9,25.88-6.9,25.88,3.09,25.88,6.9-11.59,6.9-25.88,6.9ZM971.87,105.94l-86.27.49,22.18-23.41h91.69l.25,2.22-27.85,20.7ZM1051.94,134.12c-9.91.7-18.07-.5-18.23-2.67-.15-2.17,7.76-4.5,17.67-5.2s18.07.5,18.23,2.67c.15,2.17-7.76,4.5-17.67,5.2ZM1230.15,50.69c-15.41,2.02-28.22,1.29-28.6-1.61-.38-2.91,11.81-6.9,27.22-8.91,15.41-2.02,28.22-1.29,28.6,1.61.38,2.9-11.81,6.9-27.22,8.91Z"/>
</svg>