<?xml version="1.0" encoding="UTF-8"?>
<svg id="Layer_2" xmlns="http://www.w3.org/2000/svg" version="1.1" viewBox="0 0 1280 720">
  <!-- Generator: Adobe Illustrator 29.8.2, SVG Export Plug-In . SVG Version: 2.1.1 Build 3)  -->
  <defs>
    <style>
      .st0 {
        fill: #bff46c;
      }
    </style>
  </defs>
  <path class="st0" d="M1152.22,510.76l59.82,19.82s-53.95-1.84-45.51,11.74l-167.36-3.67s-10.64-1.84-6.97,19.45l-.73,16.15-2.2,15.78-2.2,33.76-2.57,49.18-132.12,3.3,1.47-24.96,2.94-50.65,4.04-40.74-.73-14.31s-2.57-10.28-11.38-8.44l-84.04,4.77-65.33,2.2-75.6.73-20.19.37s-11.74-4.77-13.21,7.71c-1.47,12.48-1.1,51.38-1.1,51.38l-2.2,74.5-69,.73-.37,44.41-78.17-1.1-2.57-118.18,63.41-88.62,55.58-.76,205.24-1.37,104.82-.82,286.25-2.38ZM1283.16,574.42h-9.02l-1.2,30.06-6.61,44.49-1.2,22.84,21.04-1.2-3.01-96.18ZM721.51,441.84l-130.58.7-41.23.19-19.75,26.33v9.87l54.5.19.82-8.24c.82-8.24,8.8-6.6,8.8-6.6l23.53.44,49.91-.22,78.5-3.3c7.92-.44,7.04,8.14,7.04,8.14l.98,10.05,110.03-1.37-1.29-9.34c0-7.26,6.6-6.16,6.6-6.16l122.91-2.86-23.31-8.36-30.34-10.77-141.02,1.47-76.09-.17ZM591.66,422.95l2.67-7.95-131.55-.73-1.26,1.84-36.09-.53-14.73-.09-100.29.05-59.13,16.11.53,4.48-1.84,1.58-25.03,1.84-5.27-3.42-41.17,10.81-.48,6.3-1.65,6.55-18.6.65-.98-10.44-7.83,1.63-7.18,13.05-28.39,1.96-3.59-5.55-8.81,1.96.33,15.01-14.69,1.63-.65-12.4-24.15,5.87v5.55s5.22,6.2.98,9.46c-4.24,3.26-31.98,3.59-31.98,3.59-.33,7.18-32.96,7.83-32.96,7.83l-1.21,85.85,186.29-73.34,9.6-3.79,2.9-6.32-.79-7.38h-118.29l86.41-24.5,118.29-.26,1.58,2.9,110.28-42.79,199.03.37-.26-7.38ZM720.53,427.86l1.67,1.79,83.15-.72-.49-6.11-15.16-4.16-29.83-.73,3.33,2.73-26.5-.54-3.4-3.26-14.02-.39.16,4.2,1.09,7.2Z"/>
</svg>