<?xml version="1.0" encoding="UTF-8"?>
<svg id="Layer_1" xmlns="http://www.w3.org/2000/svg" version="1.1" viewBox="0 0 1280 720">
  <!-- Generator: Adobe Illustrator 29.8.2, SVG Export Plug-In . SVG Version: 2.1.1 Build 3)  -->
  <defs>
    <style>
      .st0 {
        fill: #f99d30;
      }
    </style>
  </defs>
  <path class="st0" d="M927.15,387.67l-6.65-.36-6.65,2.16-3.06,4.32-15.29.18-.72,36.69h-5.76v-35.61c-1.62-8.45-13.13-10.07-20.32-8.27-7.19,1.8-9.89,7.73-9.89,7.73l-.75,35.15-5.51.17v-1.72l-.17-31.33-19.79.34.17,32.02h-2.58l-.52-32.19h-19.45l.17,17.04-4.48-.17v-17.04l-18.25-.69-.17-10.33h-23.06v13.94l21.34-.17.17,28.57-94.15-.52-3.61-3.27h-8.43v2.07h-38.9l-.69-2.24-12.22.34-1.03,1.2-39.93.34-1.03-1.38-12.39-.17-1.2,2.07h-39.42v-1.89l-6.71-.86-7.4,5.85-99.14.86c7.41-5.68,5.34-19.11,5.34-19.11l-4.82-.86,8.61-8.78-4.13-3.61-16.18,12.22c-19.1-1.2-23.58,2.07-23.58,2.07v6.02l-2.07,1.03-.52-6.37,2.24-3.61-1.38-5.16-6.02-4.3-8.26.17-7.57-.17-3.44-4.3-.34-6.54.69-1.38,3.44-4.82-2.24-2.24c-.34-9.12-2.58-9.12-2.58-9.12,0,0-5.29-1.78-4.72,11.42l-5.66,4.15-5.47,1.7-3.39,5.28,1.7,3.77,8.3.75,1.89-2.26,4.15-2.45,3.02,4.71.19,1.32s-7.35.75-7.73,2.45-.75,29.98-.75,29.98l-43.93,16.21-2.26-214.75-.57-111.62,1.7-1.51-1.13-82.21,24.7,35.26,561.86,3.39-.94,65.05-6.6,1.32-552.63-3.58,1.89,161.77,25.37-.34h-.03s0,.02,0,.02l561.43,1.13,9.17-.54.72,85.61Z"/>
</svg>