<?xml version="1.0" encoding="UTF-8"?>
<svg id="Layer_1" xmlns="http://www.w3.org/2000/svg" version="1.1" viewBox="0 0 1280 720">
  <!-- Generator: Adobe Illustrator 29.8.2, SVG Export Plug-In . SVG Version: 2.1.1 Build 3)  -->
  <defs>
    <style>
      .st0 {
        fill: #d1f731;
      }
    </style>
  </defs>
  <path class="st0" d="M-1.75,528.22h0s-.03.01-.03.01h.03ZM691.07,724.08l-53.47-202.69-283.56,3.46-.8,20.75,216.52-3.46c10.91-1.33,17.29,1.6,17.29,1.6,0,0,3.19,41.5,2.39,47.35s-11.97,7.45-11.97,7.45l-218.12,4.26c4.26,4.26,5.06,8.25,2.13,12.24-2.93,3.99-24.74,9.32-31.92,4.26-7.18-5.06.27-9.58.27-9.58v-6.92l-193.38,2.66,84.59-48.41,14.36-6.92,17.82-3.46,83.52-1.06-.27-20.22-338.22,2.84-3.83,195.32,696.65.53Z"/>
</svg>