<?xml version="1.0" encoding="UTF-8"?>
<svg id="Layer_1" xmlns="http://www.w3.org/2000/svg" version="1.1" viewBox="0 0 1280 720">
  <!-- Generator: Adobe Illustrator 29.8.2, SVG Export Plug-In . SVG Version: 2.1.1 Build 3)  -->
  <defs>
    <style>
      .st0 {
        fill: #f93a91;
      }
    </style>
  </defs>
  <path class="st0" d="M348.38,432.47l3.1,1.84s-10.77,3-14.97,22.92h-32.9l.85-8.55h-.01l43.93-16.21ZM395.2,434.32l-5.8,1.56-.89-2.12c-36.36,12.93-33.87,23.47-33.87,23.47h0s155.95-1.8,155.95-1.8l.83-15.42,7.42-10.35-99.14.86c-8.74,5.91-24.5,3.8-24.5,3.8ZM926.58,444.68l-15-1.68-8.42-7.81-6.89-2.14-1.47-2.39h-5.76l-3.95,4.53-9.8,1.99-13.32-.61-3.06-2.91-.85-4-5.51.17s-11.2,5.2-19.79-.69h-2.58s-.5,2.53-8.31,2.98c0,0-4.74,3.83-17.45,1.22l-2.91-1.84s-16.45,1.45-15.57-3.41l-94.15-.52.04.02,12.99,10.81-.46,2.6,3.06,3.06.04,10.32,144.29.78,75.38,30.57-.55-41.05Z"/>
</svg>