<?xml version="1.0" encoding="UTF-8"?>
<svg id="Layer_2" xmlns="http://www.w3.org/2000/svg" version="1.1" viewBox="0 0 1280 720">
  <!-- Generator: Adobe Illustrator 30.0.0, SVG Export Plug-In . SVG Version: 2.1.1 Build 123)  -->
  <defs>
    <style>
      .st0 {
        fill: #d1f731;
      }
    </style>
  </defs>
  <path class="st0" d="M637.58,521.4l53.47,202.69-696.65-.53,3.83-195.33,338.25-2.84.27,20.22-83.52,1.06-17.82,3.46-14.36,6.92-84.59,48.41,193.38-2.66v6.92s-7.45,4.52-.27,9.58c7.18,5.05,28.99-.27,31.92-4.26,2.93-3.99,2.13-7.98-2.13-12.24l218.12-4.26s11.17-1.6,11.97-7.45c.8-5.85-2.39-47.35-2.39-47.35,0,0-6.38-2.93-17.29-1.6l-216.52,3.46.8-20.75,283.56-3.46ZM351.48,434.31l-3.1-1.84-43.93,16.21-.85,8.55h32.9c4.21-19.91,14.97-22.92,14.97-22.92ZM510.59,455.41l.83-15.42,7.42-10.35-99.14.86c-8.74,5.91-24.5,3.8-24.5,3.8l-5.8,1.56-.89-2.12c-36.36,12.94-33.87,23.47-33.87,23.47l155.95-1.81ZM926.6,444.67l-15-1.68-8.42-7.81-6.89-2.14-1.47-2.39h-5.76l-3.95,4.53-9.8,1.99-13.32-.61-3.06-2.91-.85-4-5.51.17s-11.2,5.2-19.79-.69h-2.58s-.5,2.53-8.31,2.98c0,0-4.74,3.83-17.45,1.22l-2.91-1.84s-16.45,1.45-15.57-3.41l-94.15-.52,12.99,10.81-.46,2.6,3.06,3.06.04,10.32,144.29.78,75.38,30.57-.55-41.05Z"/>
</svg>