<svg width="1280" height="720" viewBox="0 0 1280 720" fill="none" xmlns="http://www.w3.org/2000/svg">
<path d="M141 479L114.5 480L72.5 479L57.5 651.5L59.5 652.5L42.5 654.5L51 555.5L58 474.5L65.5 372L149 361L141 479ZM318 409L315 493.5V469.5H314L315 452C315 450.833 314.2 448.4 311 448L311.5 429C311.833 416.167 305.6 386.9 278 372.5C265.333 380.667 239.8 405.2 239 438L238.5 454L238 455.5C236.667 455.667 234 456.9 234 460.5V476L232.5 477.5L223 651L224.5 652.5L208.5 654L214.5 547.5L216.5 504L221.5 415L224.5 351.5L319.5 339L318 409ZM1108 222L1108.5 235L1106 236.5V241.5L1105 243.5L1105.5 248L1105 249.5L1107.5 279L1112.5 329.5L1117.5 373.5L1121 410.5L1123 447.5L1140 603L1138 602.5L1122 600L1119 570.5L1103.5 423L1098.5 373C1096.1 349 1090.17 331.333 1087.5 325.5C1084.34 336.736 1085.06 354.444 1086.07 364.691L1086.5 368.5C1086.36 367.4 1086.21 366.118 1086.07 364.691L1079.5 306.5L1077 271L1076 261L1070 197.5L1108 222ZM1249 283L1249.5 289.5L1249 291.5V293.5L1247.5 295.5L1248 303L1246.5 305.5L1280 560V587.5H1276L1269.5 590.5L1227 266L1249 283Z" fill="#FF7700"/>
</svg>
