<svg width="1280" height="720" viewBox="0 0 1280 720" fill="none" xmlns="http://www.w3.org/2000/svg">
<path d="M338 191L336 268.5L335 311.5L333.5 368.5L326 668.5H314.5V667L307.5 665.5V655L308.5 654.5L309 640.5H299L304 520.5H277L244 522.5L244.5 505L247.5 436.5L239.015 437.498C240.061 404.95 265.398 380.625 278 372.5C305.6 386.9 311.833 416.167 311.5 429L311 448C314.2 448.4 315 450.833 315 452L314 469.5H315V493.5L318 409L319.5 339L224.5 351.5L221.5 415L216.5 504L214.5 547.5L208.5 654L224.5 652.5L209.5 654.5L208.5 661L208 661.5H207L206.5 666.5H197L191 667L175.5 666.5L181.5 578L191 418.5L193.5 359.5L205.5 107.5L341 74.5L338 191ZM172 144L169 216L167 260L165 301.5L163 334.5L144 667.5L126.5 665.5V661H127L127.5 653H128.5L129 641.5H121.5V647L102.5 648.5V645L114.5 480L141 479L145.5 425.5L149 361L65.5 372L59.125 459.125L56.0312 497.281L51.6992 547.399L47.5 595L44.6504 629.451L42.5 654.5L42.5791 654.49L42 661.5H40.5V665.5H31L24.5 667H11.5L31 459L41 333L54 143.5L172 115.5V144ZM714 150.5L731 631L717.5 635L706 634V614.5L706.5 613L710.5 615V614.5L709.5 613V612L710.5 611.5L713.5 612L717.5 613L714.5 611.5L715 608L712 611.5L711.5 609.5L713.5 609L713 607L713.5 605.5L711 602.5H709.5L708.5 600.5L709.5 600L708 598.5L708.5 596.5L710.5 599.5V597L711.5 595L714 596L713 594.5H715.5L713.5 592.5L716 593L715 591L712.5 591.5V590L714 590.5L719 590L715 589L716 588L712.5 588.5L712 589L711.5 588.5L710.5 590L708.5 588.5V587.5H707L706.5 586.5H709.5L707.5 585.5V584.5L705 585H704V578.5L706.5 579L704.5 577.5L705 576L704.5 574.5L706.5 575L704.5 571.5L704.448 569H704.5L704.373 565.412L704 547.5L704.5 546.5L707 547L705.5 545.5H709.5L706.5 544L707 542.5L704.5 544L703.566 542.6L703.562 542.469L705.5 541.5L703.5 540L701 470H704.5L705 469.5L701.5 361L643.5 350.5L645.5 501.5L644.712 501H643.5L642.5 501.5H640.5L632 115.5L714 150.5ZM909.5 620.5L903 621H895.5V618L903.5 617L909 616L909.5 620.5ZM909 610.5L907 611.5L903 611L900.5 613.5L898 610.5L901.5 609.5L904.5 607L906 605L908 604L909 610.5ZM1051 601.5L1047.5 603.5H1045.5L1045 599.5H1047.5L1051 601.5ZM1058.5 595.5L1060 596.5L1058 599V602L1054.5 601.5L1056.5 599.5V594.5L1058.5 595.5ZM1087.5 325.5C1093.9 339.5 1097.83 363.333 1099 373.5V376.5L1122 598.5L1109.5 597L1086 361.5C1084 346.7 1086.17 331.333 1087.5 325.5ZM1149.5 267.5L1186 590.5L1186.5 592H1183V594H1173.5L1161 485L1164 484.5L1155.5 413L1142.5 409L1126 254L1149.5 267.5ZM1060 590.5L1059 592.5L1055 591.5L1054 589L1060 587V590.5ZM1046.5 581L1054 580L1061.5 581L1062.5 583L1057 584.5H1056L1050.5 587.5L1046.5 585.5L1043.5 582.5V578.5L1046.5 581ZM897.5 541H904.5V544.5L902 548L896 552L893.5 551L892.5 547V544.5L895.5 542L894 540L884 547H880V543.5L881.5 540L895 539.5L897.5 541ZM1062.5 540V546L1060.5 548L1051 543.5L1041 544.5V542H1045L1048 540H1050.5L1053.5 543.5L1056.5 545.5V542L1059 539L1062.5 540ZM1038.5 514.5H1042.5L1044 517L1044.5 516L1044 519.5H1047L1048 518L1048.5 520.5L1049.5 519.5V518L1053 520.5H1055.5V522L1054 523H1048.5V522L1046 523H1038.5L1038 519.666L1037.15 513.149L1038.5 514.5ZM888.5 509V511L891 512L893 510.5L896.5 514.5L893.5 516L891 515L887.5 516.5L883 517L881.5 516V513L883 514L883.5 512.5L887 512L884 509L886 507L888.5 509ZM902.5 511.5V513.5L898.5 514.5V513.5L897.5 511L900 513V508.5L902.5 511.5ZM881 173L901 494L900 494.5L899 494V495L900 496H901V498.5L900 501L895.5 499.5L896.5 497L894 498L891 498.5L890 500V501H887L886 500H884.5L883 498.5L882 499.5H881L880.979 499.103L881 499L879.5 470.5H883L881 426L877.5 370.5L836 362L844 511.5L842.5 513L840.5 489L841 487.5V479.5L838.5 438.5L836 380L832.5 343V308.5L824 169.5L823 144.5L881 173ZM1027.5 194.5L1054.5 509L1053 509.5L1051.5 508L1049.5 508.5L1048.5 506.5L1046.5 509.5V506.5L1045.5 509.5H1042L1038.5 508V509H1036.5L1034 473.5H1037.5L1029.5 380.5L1003 373.5L986.5 169.5L1027.5 194.5ZM234.841 457.486C234.209 458.647 234 460.063 234 461V460.5C234 459.212 234.342 458.228 234.841 457.486ZM238.5 454.5L238 455.5L238.5 454L238.75 446L238.5 454.5ZM1142 369.5L1152 373L1144.5 303L1135.5 298.5L1142 369.5ZM1007.5 321L1025 328L1017.5 239L1001 230L1007.5 321ZM848.5 308L871 315.5L865.5 220L842.5 210L848.5 308ZM91 198.5L84.5 309L127.5 302L133.5 190L91 198.5ZM662.5 294.5L693.5 302.5L689.5 198L659.5 187.5L662.5 294.5ZM247.5 166L243.5 284L292.5 276.5L296 156L247.5 166Z" fill="#33FF00"/>
</svg>
