<svg width="1280" height="720" viewBox="0 0 1280 720" fill="none" xmlns="http://www.w3.org/2000/svg">
<path d="M523 83.5L525 644.5H510.5V640.5L512 639V635L511.5 633.5H509.5V632L506 631.5L501 630.5L498 630H492.5L490.5 629H488L487.5 627.5L486.5 627L485.5 628V626L484 625H482.5L482 626.5L481 625.5L480.5 627L482 628.5V630.5L477.5 634L475 632.5L473.5 635L470 632.5L469 632V630.5L472 629.5H473.5L476 630H478.5V631L479.5 630.5V630H481V628.5L478.5 628H477.5L475 627.5L471.5 628L471 628.5H469.5L472 626L474.5 624.5L474 624L472 624.5L470 626L469 627V624.5L470 622.5H468.5L468 624L466.5 623.5H466V628L465.5 629.5L465 630.5V633.5H463L462.5 634.5V635.5H464L460.5 636V637.5H459L457.5 638L457 639L456 640L455 638.5L453.5 638L450.5 637.5L453.5 633.5L454 632L455.5 632.5L455 631L450.5 630.5V628.5L452.5 628V627L451.5 626.5L450 626L447 628V631.5L446 631L444.5 630.5L444 632L443 633L442.5 635V636.5L441 634.5L440 633.5V631L442.5 630H445L446 630.5V627.5L445 627L442 628H441.5V625L443 623.5V622.5L439 622L437 623L436.5 620.5L434.5 622.5L434 625.5C432.667 625.333 429.9 625 429.5 625C429.1 625 429 626 429 626.5L433 627L428 628L434 629.5H436L437 631L434.5 631.5L432 632.5C430.667 632.833 427.9 633.4 427.5 633C427.1 632.6 426.333 629.833 426 628.5H424.5L422 630V632.5L420.5 634.5L417 632L415.694 631.5L419 452.5L397 452L393 654L390 653.5L388 654L387.5 655L387 655.5L388.5 655H390.5L392.5 655.5V664L380.5 665.5L383 663L381.5 662L379 664H378L377 663H375.5L374 663.5L374.5 665L376.5 665.5V666.5L376 667.5L360.5 669L326 668.5L340.898 74.5244L205.5 107.5L204 139L200.5 217.5L197 295.5L194.5 340.5L191 418L186 501.5L181 587L175.5 666.5L170.5 667.5H144L165 300.5L170.5 179.5L172 143.5V115.5L54 143.5L44.5 285.5L33 434L23 555.5L11.5 667L5.5 667.5L0.5 668V458L6.5 396.5L12 324L14 285L17 247.5L19.5 211.5L22 178L24 144L26 112L373 21L523 83.5ZM620 570.5V572L619 573L618.5 575L620 573.5V574L622.5 573.5V575.5L620.5 577V578.5H624L625 578L626.5 578.5L628.5 578V579.5L629.5 580L628.5 581L627 582H626.5L626 581H624.5L623 580.5L622 580H620.5L621 581.5V583L620.5 584L620 584.5L618.5 583.5L617.5 584V584.5L616.5 585.5V586L618.5 585.5L619 586L617 588L617.5 588.5L619.5 587L618.5 589L620 588V589L621 589.5V591H621.5L622 592.5L623 591L623.5 590.5H624.5L626 591L626.5 591.5H627.5L628 591H629V592L628 592.5L627.5 593.5L628 594V595H623.5L622 597L621.5 595L620 594.5H619V595.5L620 597H618.5L617.5 597.5V598.5L615.5 600V601.5L615 603L617 601L618 602V603.5L620 604.5H620.5L623 605L621.5 606.5V608H623L624 607L625.5 609L628.5 607.5L629.5 606L630.5 607.5L631 608.5H631.5V610.5L632.5 610L633.5 609V608H634L635 609.5L636 608.5L637.5 607.5L638 608.5L638.5 609H637.5L636.5 609.5L634.5 611.5L635.5 612.5L637 612L637.5 611.5L638.5 613L639.5 613.5H640L638.5 615.5L637.5 617H635.5L634.5 618L632.5 617.5L631 617H629.5V618H627L626.5 619L625 618L623 618.5H622V619.5H618L616 621L614.5 622.5L615 623.5L615.5 623H616.5V626H618V627H620V626.5L620.5 628.5H621.5L622 629L622.5 631H623L624 630L625 630.5V632.5L626.5 631L627.5 632V635H626.5L625.5 635.5H624.5L624 636L623.5 635L622.5 634.5L622 635.5V636H621V636.5H620V637H619L618.5 638H619.5V639L618.5 639.5H620L620.5 639L621 639.5V640.5H622.5L623.5 643.5L625 643L625.5 641.5L629 645L629.5 644L628.5 642H633L636 642.5V641H637L637.5 642.5L639 642H641.5L641 640.5H642.429L642 639L642.5 640.5H642.429L643 642.5H644L645 641.5L645.5 643V645L647 644.5L647.5 642.5L648.5 645L647 646H644.5L642 645.5H640L639.5 647V644.5L637.5 644V646L635.5 647H631.5L630 647.5H629L628.5 647L628 646H626.5V647L627 648H624L623 649L622.5 647.5H622L621.5 646H621L525 644.5L523 68L492.5 55L610 27L620 570.5ZM722 85.5L722.5 112.5L718 113.5L805.5 95.5L882.5 138.5L971.5 124.5L973.661 125.972L1054.5 112L1106.5 152.5L1107.5 153.5L1110 173.5L1112 198.5L1114 220L1111 186L1212.5 171L1242.5 201.5L1249.5 264.5L1257 325L1267 401L1280 495V560L1249 324L1246.5 305.5L1248 303L1247.5 295.5L1249 293.5V291.5L1249.5 289.5L1249 283L1227 266.5L1269.5 590.5L1266 592L1240.5 591.5L1207 591L1186 590.5L1149.5 267.5L1126.29 254.169L1128 272.5L1135.5 344L1141 395.5L1146 443.5L1149 473L1155 523.5L1165 595L1160.5 596L1161 600L1158 601L1155 601.5L1148 602.5L1140 603L1137.5 579L1134.5 554L1130 512L1126.5 480.5L1123 447L1121 410.5L1117.5 374L1112.5 330L1109 296.5L1105 249.5L1105.5 248L1105 243.5L1106 241.5V236.5L1108.5 235V234L1108 222L1070 197.5L1074.5 244.5L1077 271.5L1079.5 306.5L1082 327.5L1086.5 368L1091.5 424L1095 462L1101.5 524.5L1109.5 596L1110.5 597.5L1112 610L1104.5 611L1094.5 612L1094 611L1091.5 609.5L1089.5 611H1087L1086 609.5L1084.5 608L1087 607L1084.5 604.5H1081.5V601.5H1083.5L1082 599.5L1084 600L1083.5 597L1085.5 596H1088.5L1090.5 597L1092 598L1093.5 599.5L1094.5 598L1095.5 600L1097 599L1099 598.5V600H1100.5L1100 598L1097 596L1099 594L1100 595.5L1100.5 597L1101.5 598V594L1101 592V588.5L1105 590.5L1106.5 590L1106 586.5L1104.5 586L1102.5 585.5L1102 586.5L1100 585L1098 586C1097.33 585.667 1095.9 585 1095.5 585C1095.1 585 1096.67 584 1097.5 583.5L1099 584L1099.5 582L1098 581L1100 578.5L1099 576.5L1100.5 578L1102.5 579L1104.5 578.5L1101 577V575.5L1105.5 576L1103.5 574L1105 573L1104 572.5H1099L1092.5 570.5L1089.5 569.5L1094 569L1099 569.5L1102.5 569L1101 567L1104.5 565.5L1100.5 564.5L1098 565L1097 564H1095.5L1092.5 565L1091.5 564.5L1088.5 563.5L1084 563L1080.5 564L1078.5 565.5H1076.5L1073.5 564L1072 563L1072.5 561L1075 562.5L1076 561.5L1076.5 562.5L1078.5 562H1080.5L1078 560V558.5L1080 557.5L1080.5 560.5L1082 559L1083 560L1084.5 559L1085.5 558.5L1087 559L1088.5 561L1089.5 559L1090.5 561.5V560L1094 561L1093 559.5L1094.5 559L1095.5 559.5L1096.5 558L1099.5 558.5L1100 557L1096.5 555.5L1094 552.5H1089.5L1089 550H1092.5L1089 548L1086 549L1082.5 547.5V546.5L1085.5 544L1089.5 543L1092 541.5L1086 542L1084 540.5L1085.5 539L1087.5 540.5L1089 538.5L1091.5 539L1092.5 537L1091 534.5H1083L1082.5 535.5L1080 533.5L1078 534.5L1076 532.5H1078.5V529.5L1081 532L1080 530L1082 528L1087 529L1084 528L1087 526L1089 525L1084.5 524.5L1084 523.5L1087.5 523L1082 521.5L1080 520L1081 517.5L1084 516L1079 515H1078L1074.5 516L1072.5 514H1069L1067.5 513L1065 513.5L1062 514L1061.5 516L1060.5 513.5L1061.5 513L1060 510.5L1061.5 509H1059L1056.5 510.5L1054.5 509L1027.5 194.5L986.5 169.5L986 165L1021.5 604L1036.5 602L1037 603H1039V601.5H1040V605L1025.5 608H1015.5V613.5L1016 618.5L1016.5 623L1016 627H1015V624L1013 624.5L1013.5 623.5L1011.5 623V624L1010.5 624.5V626.5L1008 623.5L1006.5 624L1008.5 627H1004.5L1004 624.5L1008 622L1006 621.5L1002.5 623.5V621H1001.5V624.5L1001 620.5L997 618L996.5 619.5L998 625L997.5 626.5L996.5 625H994.5L993.5 626.5L993 625.5L991 624.5L989 622.5L988 623L989.5 625L989 626L983 625.5L981 625V623.5H979V624.5H977.5V623.5L980 621.5L980.5 620L978.5 619.5L975.5 624.5L975 621L970 619V620.5C970 620.9 971.667 622.333 972.5 623V624.5L970 623.5L969 625H965.5V623.5L966.5 621.5L964 622.5L963 626L962.5 625L959.5 623H958V624L960.5 626H926L923.5 625L919.5 625.5L916.5 626L916 624.5L914 624L912.5 623.5V622.5L913.5 622L915.5 622.5H917.5L917 622H914.5V620.5L913 621L911.5 620.5H909.5L909 616.5L910 615L911 615.5L911.5 614H913.5V612.5L915 612L917.5 613L916 611L914 611.5C913.333 611.167 911.9 610.5 911.5 610.5C911.1 610.5 910.667 610.833 910.5 611L909 610.5L908 605.5L907.5 604L908.5 605L909 604.5L910.5 605L911 603.5L912.5 604.5H913.5L914 603V604H915.5L916 602.5L917 602L916.5 601L914.5 602L912.5 601.5L910 599.5L909.5 597.5L911 599L912 597H913V594C913 593.6 913.333 593.5 913.5 593.5L915 594.5V596.5L917.5 598.5L918.5 597L916.5 596.5L916 595.5H918.5V594H916.5L916 593L916.5 592H918.5V590.5L917 589V587.5L920 587L916.5 585.5L914.5 584.5L914 585.5L913.5 587.5H911L909.5 588.5V587.5H907.5V585.5H908L908.5 584L910.5 586L911 587L912.5 586.5V584.5L910.5 583V582.5L911.5 583L914 584H914.5L915 583.5L913.5 582L914 581H916L917.5 582L916 582.5L915.5 584.5L916.5 584H924.5L923.5 582.5H920.5L921.5 581.5L920.5 580L919 578.5L916.5 580L916 579H914.5V580L913.5 580.5L910 577.5L910.5 579.5L910 580.5L907.5 578.5L908 576.5L909 577L910 576L909.5 575L910.5 574.5L912 576L912.5 575.5H915L912.5 574V572.5L915.5 573L914 572L914.5 571L912.5 570.5L912 569.5L914.5 568V565L913 564L914 563L913.5 561.5L915 562.5V564H917.5V563.5L916.5 563V562L914.5 560.5L913 559.5L911.5 557.5H910L909 556.5V556L911.5 555.5L911 555L910 555.5L909.5 554L908.5 553.5L909 552.5L910.5 553.5L911 552.5L910 551.5L911 550.5L908 549.5V548.5L910 548L911 547.5L910.5 545.5H911.5L913 546V544L910 544.5L909.5 546L908.5 544.5H907L908.5 542.5H909.5L910 542H913.5L915.5 543L914.5 541.5L912.5 541V539.5L911 538.5V537.5H912.5L910.5 533.5H913.5L912.5 532.5H909L906 530.5V529L904 530.5L903 528.5V523.5H907.5L908 525L909.5 524L911.5 524.5V523.5H913L911 521.5L913.5 521L910.5 520L909 519H911V517.5L910 516.5L912.5 516L911.5 514.5V514L909.5 514.5L907 515L906.5 514H902.5V508.5L903 510H904L903.5 508.5L904.5 508V507H905.5L906 507.5L907 507L907.5 506.5L909 505.5H908V504.5L907 503.5L905.5 503L906.5 502L905.5 501H903L902.5 500.5L903 500H904.5V499.5L903 499L901 498.5V495.5H902L904 496L907 495L905.5 494L904 494.5L902 494H901L881 173L823.154 144.576L824 169.5L826 203L828 237.5L830 273L832.5 308.5V343L836 380L837 415L839 451C840 462.833 841.8 486.7 841 487.5C840.2 488.3 841.667 504.833 842.5 513H842L841 513.5L839.5 514L839 515.5H842V518L843.5 517.5L844 540L842.5 539.5L841.5 539L840.5 541L837.5 540L833.5 541V543.5L836 543L836.5 545.5L833.5 545L833 547L829 549.5L828.438 538.646L828.5 540.5L829 549.5L828.5 549H827.5L826.5 550.5L826 552L827.5 551.5V552.5L829.5 552V553.168L831.333 552.454L832.5 554.272L834.25 553.363L831.917 552L836 552.454V554.728L834.833 554.272L834.25 555.637H831.917L829.5 556.766V560.5L829 562L830 563.5L831 564.5L833 564L834.5 565L835 564L835.5 562.5L837 565.5L837.5 567L836 566L835 567H833L832.5 566.5L829.5 566H828L825.5 570L829 569.5V571L828 571.5V573H829.5L829 574.5L830.5 574L830 577L829.5 577.5L830.5 578.5L833 577L833.5 579L834 579.5L833 580.5L831 581.5L830.5 581H830L828 582L827 584L827.5 583.5L829 583L829.5 584L830.5 584.5L831 583V583.5H832.5L833 585.5L831 586.5L830.5 587V589H831V590.5H831.294L832.04 590.134V592.178H833.08L833.6 591.155L835.68 590.645L836.2 591.667L836.72 591.155H838.28V589.622L839.32 589.111V588.089H841.4L840.88 589.111H841.92L842.44 586.556H844V586.045L842.96 585.533L843.48 584H844.52L845.56 585.022L847.12 585.533H847.64V587.066L846.08 587.578H844L842.96 588.6V589.622L844 590.134V591.667L844.52 593.711L845.56 592.688L846.6 593.2L845.56 594.733H844L843.48 594.223H841.92L840.88 594.733L841.4 595.756H842.44L841.4 596.777L840.88 598.822H841.4V597.8L841.92 598.312L842.44 598.822L842.96 598.312H843.48V599.333H844.52L845.56 597.8L846.08 596.267V598.822L845.56 599.845H847.12L847.64 601.378H848.68L849.2 600.866L849.72 601.889L850.24 600.866L850.76 600.355V599.333L851.8 600.355V601.378L853.36 600.866V599.333L854.92 601.378L855.44 599.845L855.96 599.333L856.48 599.845V602.911L857 603.934L855.96 604.444L857 605.978L856.48 606.489L855.44 607L854.4 606.489H850.76V605.467L851.8 605.978H852.84V605.467L853.36 604.955H854.4V603.934H852.84L851.8 603.422L852.84 602.911H853.36V602.4H851.8L850.76 602.911H848.68L848.16 601.889H846.6L845.04 602.4V602.911H844L843.48 602.4V601.889L845.56 601.378L846.08 600.866L845.04 600.355H843.48L842.44 600.866L841.92 601.378L842.44 601.889L841.92 602.4L841.4 602.911L840.88 603.422L840.36 603.934H839.32L837.76 603.422L836.72 604.444L836.2 604.955H835.16V603.422H834.64V602.4H833.08V603.934H831.52L832.04 604.955H832.56L831.52 605.467L831 606.489V604.5H830.5L826.5 611.5H827L828 610.5V611.5H831.5V613.5H833V614.5L834 616.5H834.5L833.5 618.5L834.5 619L835 618H836L836.5 619.5L837 619V617L838 619L838.5 620.5H841.5L842.5 620V618.5L843.5 619L844 620V620.5H845L844.5 621L842.5 622L841.5 623V621.5H839L838.5 622.5L838 621.5H836L835 623L834 625H833V624.5H832L831.5 625L831 628.5L831.5 627H832.5V628.5L833.5 628V628.5L835.5 627L837 625.5H837.5L838 628V628.5L836.5 629L835.5 630.5H833.5V632L832.5 633V635L731 631L714 150.5L632.109 115.546L640.5 501.5L631.5 502.5L627 503.5L629.5 504.5L626.5 507.5L628 506.5L629.5 507.5V508.5L631 507.5L631.5 509H632V508L634 507.5V510.5L633 513L632 515L634.5 514L633.5 516L634 517L634.5 516.5H637.5V515L640 517L639 513.5L640.5 513L641 520L639 519.5L635 521.5L635.5 523L638 522H640.5V525H639L637.5 525.5L636.5 526L634 526.5L632.5 525.5L627 526V528H620V529.5L627 529V531L626 533.5H628L627 535L628.5 534.5V537H627C626.5 537.167 625.4 537.5 625 537.5H623L622 538.5L620 539L621 540.5H623.5V543.5L625 542V544H626.5V545L623.5 547.5L624 548L626.5 546.5V547.5L625.5 549L625 550V551L626.5 550.5L628.5 549V550.5L629.5 549L630.5 550.5H632V547.5L634 550L635.5 548.5L640 551L641.5 551.5V562.5L640 563V561H638.5V559.5L637 558.5L635.5 559.5L635 559L632.5 558.5L634 557L633 556L631.5 557L630.5 556L632 554L629.5 555C628.833 555.333 627.4 556.2 627 557C626.6 557.8 626.5 556.333 626.5 555.5L625.5 555L624 555.5L620 557L622 558L621 561H623.5L622 563L625 562.5L624 565L626.5 563.5H628L628.5 564.5L629 563.5L629.5 564.5L632 563.5L635.5 563V564.5L637.5 565.5L639.5 567.5C639.333 567.667 638.9 568 638.5 568C638.1 568 637.333 567.333 637 567L635 567.5V568.5L634 567.5V567L634.5 565.5L630.5 566V568.5H628.5V567L627 566.5V568.5C626.167 568.333 624.4 568 624 568C623.6 568 622.5 567.667 622 567.5L621 570.5H620L610.5 27.5L722 85.5ZM816 303L818 340L819 375.5L821.5 412.5L823.5 449L827.5 523L827.673 523.865L815.13 281.556L816 303ZM810 194L812.351 227.851L809.184 166.682L810 194Z" fill="black"/>
</svg>
