<svg width="1280" height="720" viewBox="0 0 1280 720" fill="none" xmlns="http://www.w3.org/2000/svg">
<path d="M1029.5 380.5L1037.5 473.5H1034L1036.5 509.5L1033.5 508.5L1033 507L1030 508L1033 511L1034.5 511.5L1035.5 513L1037 512L1038.5 523.5H1040V525.5L1038.5 526L1038 525.5H1037L1035 526.5L1032.5 525.5L1033 523L1031 523.5H1029.5L1027 524.5L1026.5 526.5L1027.5 527.5H1029.5V529.5L1031.5 531L1032 532.5L1033 534L1034.5 536L1033 538.5L1034.5 537.5L1037 539L1034.5 541H1032L1031 542L1032.5 542.5L1033 544.5L1036 542.5L1040 541.5V545L1036.5 547L1034.5 549L1033 548H1030.5V551.5L1031.5 553.5L1035 551.5L1033 555L1028 556L1026 558.5L1029.5 557V559L1033.5 557L1037 558.5L1038.5 560.5L1039 562L1039.5 563L1038 567L1036.5 566L1034.5 567.5L1036 569L1034.5 570H1033.5L1031.5 571.5L1031 574L1032 577H1029.5L1030.5 578.5L1031 580.5L1035.5 579.5L1036 581L1038 582L1039 580.5L1040.5 583L1043 585.5L1046 588L1045.5 589.5L1039 593.5L1035 594.5L1032 595.5L1034 598L1029.5 599L1032 600L1035.5 599.5L1038 599L1039 597H1043L1042.5 600.5L1039.5 602H1039V603H1037L1036 602L1021.5 604L1003 373.5L1029.5 380.5ZM1155.5 413L1164 484.5L1161 485L1173.5 594L1165 595L1155 523.5L1150 481.5L1147.5 458.5L1142.5 409L1155.5 413ZM701.5 361L705 469.5L704.5 470H701L704.5 569H698V567.5L699.5 565L699 562L691.5 561.5L692 563.5L689.5 562L688.5 559.5L687 557L687.5 560.5L686 561.5L685 557.5V562L686.5 565L684 567L681.5 565L678 562L677.5 557L669 554.5L665.5 552.5L659 552L656.5 557L653 556.5V558.5L655.5 559.5V561.5L649.5 563.5L645.5 564.5L648 559.5L652 558.5V556.5L650.5 553.5L644.5 551.5L646.5 555.5V559.5L645.5 564L641.5 563V554.5H645.5L643.5 551.5L644 550L650.5 552.5L655.5 555L654 551.5L649.5 550.5L655 545.5L649 544L650.5 542L661.5 544H666.5L676.5 545L681 546.5L684 548L687 546.5L685 551.5L688 547L688.5 549L687.5 550.5L688 552.5L693 547.5L693.5 546.5L695.5 547L697 549.5L697.5 547H699L701 549L700.5 547H703L702 540.5L700.5 541.5L700 539.5L695 540.5L692 539.5L688.5 538.5L685.5 536.5L682 534L683 538L682 537L674.5 534.5L671.5 536.5H666.5L659.5 535.5H653.5L651 532.5L646.5 534.5H640.5V531.5H650.5L656.5 530.5H662L667.5 534L669 532.5L676.5 527.5L678 529.5L681 529L681.5 531.5L685 530.5L688 529.5L693.5 528.5V527.5L688.5 528.5L685 525.5L687 523L688.5 524L695 523L694 521L689.5 523L687 522L684 522.5L681.5 522L681 520.5L671 521C670 520.667 667.9 520 667.5 520C667.1 520 666.667 521.667 666.5 522.5L662 524.5L656.5 525L653.5 524.5L644.5 525V522L651.5 521L655.5 517.5L658 520.5L660 516L662 518L666 515.5H669L671.5 516.5L674 514.5L676.5 515L678 513.5L679.5 515.5L681 513.5L682 515V512.5L684 513L685 510H686L687.5 512L688 511L690 510.5L692 509L689.5 507L691 506.5L692 504H690L690.5 502.5L688.5 503.5L688 502.5L687 504.5H684V503L682 504L681 503L679.5 505L670.5 503L669 500.5L666.5 503L664 503.5L663.5 501.5L662.5 502L662 504.5L659.5 502.5H657.5L653 500.5L655.5 503H652L650.5 501.5L648 502.5L645.5 501.5L643.5 350.5L701.5 361ZM877.5 370.5L883 470.5H879.5L881 499L880.5 501.5L880 503L881.5 501.5L883 502L884.202 500.5H886L887 502L885.5 503.5H882.5L880 504.5L876.5 503H871.5L871 501.5L866 499.5L863.5 501H861L858.5 502.5L857 500.5L854 501H852V502.5L850 502L849 501L848.5 502.5H846.5L844 503.5L846 505H847.5L848.5 503.5H850V507L848.5 508H850.5V510.5L851.5 511L852.5 512.5H853.5L853 509L856.5 510.5L857 510L858.5 512H861.5L863 509.5L867 509H873L874.5 511L873 513.5L870.5 514L869 515.5L865 514L859.5 513L856.5 511.5L855.5 513.5L851.5 513L852 515.5L849 518L848.5 519.5L849.5 521L850.5 519L851 521H854.5L855.5 523.5L856.5 520.5H857.5L859 525L860 524.5L861 525.5V527.5L857.5 526L855 525.5L852 525L852.5 528L853.5 529L854.5 530.5V533L856.5 531.5L857.5 533L858.5 532L860 533L860.5 534V536.5L857.5 538.5L852.5 539.5H858.5L860 541.5L852 542.5L851.5 543V546L851 547.5L853 548.185H854.5V550.5L854 551V552.5L851.5 552C850.833 551.5 849.5 550.4 849.5 550V548.5L848 549L846.5 546.5L847.5 545.5L848.5 547L851 546V543L849 541.5L846.5 540.5L844.5 541L844 540L843.5 517.5L844.5 518H846L847 517L848 517.5L850 516H851L851.5 514.5L850.5 513L847.5 512.5L844 511.5L836 362L877.5 370.5ZM1144.5 303L1152 373L1142 369.5L1135.5 298.5L1144.5 303ZM1017.5 239L1025 328L1007.5 321L1001 230L1017.5 239ZM865.5 220L871 315.5L848.5 308L842.5 210L865.5 220ZM127.5 302L84.5 309L91 198.5L133.5 190L127.5 302ZM689.5 198L693.5 302.5L662.5 294.5L659.5 187.5L689.5 198ZM292.5 276.5L243.5 284L247.5 166L296 156L292.5 276.5Z" fill="#00B3FF"/>
</svg>
