<?xml version="1.0" encoding="UTF-8"?>
<svg id="Layer_2" xmlns="http://www.w3.org/2000/svg" version="1.1" viewBox="0 0 1280 720">
  <!-- Generator: Adobe Illustrator 29.8.1, SVG Export Plug-In . SVG Version: 2.1.1 Build 2)  -->
  <defs>
    <style>
      .st0 {
        fill: #f45bbd;
      }
    </style>
  </defs>
  <path class="st0" d="M837.38,434.58v7.36l-6.52.63-30.91,7.78s-7.33,6.87,3.32,9.73c0,0-5.15,4.12.8,8.36,0,0-2.52,1.95-1.37,6.07,0,0-5.27.34-5.38,4.47-.11,4.12,4.35,4.58,4.35,4.58l-12.48,5.04.57,5.61,32.88,2.9s12.25,9.92,13.06,19.51l-.12,7.62-10.86,6.47v1.73l-63.76,35v25.29l3.35.81-.47,73.86-260.04-49.96,1.33-13.1s-1.11-8.66-11.99-11.77l-9.99-47.74s-.53-4.53-4.01-5.59l5.06-46.92s-2.85-4.01-8.86-1.69l-.21-3.16s-6.85-3.69-8.33.53l-2.42,20.35-4.11,26.04-13.71-1.16-.84-65.9,1.05-1.69-.63-14.34-1.9-1.05-14.13.63-2.32,1.48-16.13.11-.11,16.87-.63,65.05-9.59.63-7.8,1.58-9.7-95.73.63-2.11-1.69-17.71s-10.86,0-14.55,1.69l1.16,18.87,1.48,1.05,9.59,95.73s-16.87,3.16-19.51,12.55c0,0-6.01,32.9-11.18,48.18l-9.81,9.17s-4.74,3.8-2,11.18c0,0,1.16,31.21,3.16,40.38,2,9.17,5.06,13.07,5.06,13.07l-35.43,14.66.12-692.57h241.58l.21,10.79s-6.1-1.47-7.15,1.05l-10.52-2.52,4.63,6.31-2.1,3.58-7.57-.63-13.25-5.47-40.81,7.78s-1.47,4,1.05,4.42l-.63,3.37s-3.16,1.42-2.52,7.31l-17.04,2.58v38.07l-8.2,1.68.42,5.26,30.29,7.78,5.05,4.63-28.19,2.94-.42,72.15-6.94,1.26v5.47l26.08,4s9.26,4.21,16.41,14.3l-29.87,2.1v9.47l3.37.63v19.14l-4.42.63-.21,9.68,2.52.42.21,19.98-14.51.21.21,5.89,20.4.21s23.14,8.83,33.87,30.92c0,0-.84,7.78,4.21,5.26l.84-34.71,72.99-2.1s13.46,4.84,25.66,29.24v6.1s2.94,3.58,4.63-.42v-35.76l12.2-.21s4.42-4.84-1.89-5.89c-6.31-1.05-27.13-2.73-27.13-2.73l-.42-28.19s-4-1.89-7.15-1.68l-.94-22.32-27.56,2.31-.24,1.7-10.69.97-1.46,1.09v5.46l-1.58,2.55-.36,3.28-1.46.12-.24-9.47h2.67l.36-7.77-38.01-7.41v-12.02l78.81-5.59s12.02,8.86,20.16,27.69v5.46s-.12,2.79,2.67,2.79,2.67-5.95,2.67-5.95l-.24-32.42,11.17-.73s4.13-2.43.73-5.83l-31.94-8.14.12-31.09-5.95-6.19-.61-2.79-6.44.24-.85,3.52-5.59,4.74v32.42l-1.09.24-.12-18.94-5.71-5.83-.12-2.67-1.09-.36-.36-7.29-4.01-3.52v-3.04l-6.44-.12v3.4l-3.76,3.28-.12,37.16h-1.46l.24-60.59-33.88-10.32,75.77-10.56s14.45,19.55,16.27,26.96l-.24,6.8s2.79,3.89,5.59-.36v-36.06l23.51-2.66,22.81,9.83-.13,28.1-23.31,1.89.13,93.24,65.02-4.54-.25-71.82,16.88,6.43v39.02l61.72,16.95v44.77l-42.54,1.6-1.6,59.53-4.1-.04s.36-5.18-4.1-5.54c-4.46-.36-3.01,6.38-5.42,6.62-2.41.24-19.75.12-19.75.12,0,0-3.25-.24-4.22,9.76-.96,10-10.12,79.01-10.12,79.01l.36,1.45-20.48.12s-1.32-14.45-9.64-20.96c-8.31-6.5-24.45-8.07-24.45-8.07l-78.87-2.65,4.16-11.18-1.29-1.43,1.29-5.02-3.44-.14-2.87,6.6-4.88-.86-1.58,1.86-.43-1.58-2.15.43-.72,6.45-1.72-6.45-5.02-3.73-1.72-3.01-2.72.43h-1.86v5.45h-1.58l-.43-42.01h-64.81l.14,79.01-14.77,1.15-1.15,3.3,1,3.01,43.05,2.35,41.42,1.26v19.34l-30.49-.63-35.74,4.84-.21,8.41,3.99.21.21,17.87-5.05.63-.21,9.04,4.42.21-.42,12.61-19.76,3.78.42,5.05,30.07,3.15s16.61,6.31,22.71,18.71c0,0-1.05,6.94,3.99,4.84l.84-19.97,78.21,7.36s9.67,6.1,11.56,8.2c0,0-13.25.84-20.6,4.84s-21.03,8.41-21.45,14.3c-.42,5.89,3.36,10.3,14.51,13.88s34.48,5.47,34.48,5.47c0,0,31.75,2.52,50.67-1.26,18.92-3.78,52.35-11.51,64.97-19.29l.42-4.68s.84-3.99-10.51-3.57c-11.35.42-54.03-4.63-59.5-5.47s-34.48-5.26-37.21-4.84c-2.73.42,2.73-15.14,2.73-15.14,0,0,9.67-2.94,9.25-5.47-.42-2.52-26.28-5.05-26.28-5.05,0,0,1.68-7.78,6.1-7.99,4.42-.21,44.78-2.52,59.29-11.35s7.36-42.26,7.36-42.26l95.45,5.89-.42,7.78h3.15l52.14-6.52-.21-7.36s17.24,14.09,17.66,26.91ZM890.79,432.72l100.78,5.84s-5.41-20.98-14.92-23.36l-133.43-6.27v33.95l29.41,2.6.43-6.7,17.73-6.06ZM977.94,511.87l-135.38-12.33-.22,20.98,18.6-8.43,128.24,13.19s-4.33-12.33-11.25-13.41ZM989.85,536.39l-8.27,8.27,5.32,1.65.47,4.85,4.37.35.24-12.41-1.3-.47-.83-2.25ZM428.08,469.75l-1.39,63.7h4.53l-.7-65.44-2.44,1.74ZM914.52,376.95v-72.57l-70.98.23-.23-58.05-38.78-5.44.23,93.2-53.74.68-6.58,57.6,92.75,2.04s.91-3.63,3.17-3.63,2.49,4.08,2.49,4.08l7.48-.23-.23-40.59s.23-13.15,14.06-19.05v-11.79l-2.95-2.04v-7.94l20.64-.23v8.16l-2.95,2.72.23,11.57s12.25,4.76,13.83,17.69c1.59,12.93.68,33.33.68,33.33l40.14.45s1.13,7.94-12.25,10.2l-1.59.91,72.11,2.95-.23-22.45-77.33-1.81ZM716.41-1.04l4.92,3.51-.7,4.92-3.51,1.4v8.43l50.56,28.79.7,5.15-4.68.7.23,11,54.31,29.26-.23,6.09h-4.45l.47,15.92,56.88,26.22-.24,6.11-4.09.41v22.1l60.89,23.32-.79,5.54-4.75.53.26,31.65,63.84,17.15-.26,5.8h-4.75v50.38l67.79,1.32-.26,6.07-5.54.53.53,52.76,151.15,4.22v63.57l88.1,4.75,3.38-442.84L716.41-1.04Z"/>
</svg>