<svg width="1280" height="720" viewBox="0 0 1280 720" fill="none" xmlns="http://www.w3.org/2000/svg">
<path d="M746.5 471L747.5 472L750.5 471L752.5 472H756L759.5 472.5H762L765 473.5H766.5V474.5L764.5 476.5L763 477.5L761 480L758.5 482.5L756.509 487.974L757 488L756 489.5L757 492.5L755.989 513.002L750.5 514.5L749 515L738 519V518L740 517L739.5 516L741.5 514L723.5 521.5L754.715 538.842L753.5 563.5L750 564L747 565H745L740.5 568L738 570.5L650.5 564L649.5 563L650.5 551L653 547L654.499 487.026L654 487L652 485.5V482.5L648 480L649 469L655.5 467.5L746.5 471ZM617.5 466L618 465.5L622 468.5V478L620.5 479.5L618.5 480.5L617.5 484L615 545L616 546L616.5 548.5L617.5 549.5V560L616 561L506.5 550.5L507.5 538L509 536L511 478L509.5 477.5L509 474.5L507.032 472.532L506.5 472.5L505.5 471.5V462L511.5 460L617.5 466ZM672 542L728 546V544.5L728.5 544V543.5L726.5 541.5L729 542H730L731.5 541L733.5 540L736 539.5L711.5 526.5L672 542ZM528 530L528.5 531L597.5 536L562.5 515.5L528 530ZM660.5 536L699.5 520L662 499.5L660.5 536ZM573.5 511L608.5 532L609 496L573.5 511ZM516.5 525.5L552 510L517.5 490L516.5 525.5ZM755.693 519H753.5L753 518H754.5L755.764 517.578L755.693 519ZM712 516L749 500H738.5L733.5 500.5L731 501L728.5 499H732.5L734.5 498L674 495L712 516ZM563 506L597.5 490L530 486H528.5L563 506Z" fill="#5EFF00"/>
</svg>
