<svg width="1280" height="720" viewBox="0 0 1280 720" fill="none" xmlns="http://www.w3.org/2000/svg">
<path d="M578 0L485.5 11L461.5 563H465.5H470L472.5 562H474L476 561.5H479.5L480 558L498 554V553.5V551.5V549.5L498.5 548.5L514 127.5L642.5 118V117L643.5 116.5L645.5 116H648.5L650.5 117L741.5 110.5L742.5 108.5L744.5 103L747 101V98L749 96.5H752L753 92.5L756 91L760.5 87L761.5 92.5L763 96.5H765.5L767.5 94.5L765.5 91L766.5 89L765.5 87V83L764.5 81.5L765.5 79L766.5 77.5L767.5 75L768.5 72.5L496.5 94.5L493 95.5L496.5 18.5L652.5 0H578Z" fill="black"/>
</svg>
