<svg width="1280" height="720" viewBox="0 0 1280 720" fill="none" xmlns="http://www.w3.org/2000/svg">
<path d="M753 577L739 575.5L745.5 572L749 570.5L750 569L751.5 568.5L753.5 567.5L753 577ZM771 267L768.5 353L766.5 441.5V473.5H765L762 472.5H759.5L756 472H752.5L750.5 471L747.5 472L746.5 471L655.5 467.5L649 469L648 480L652 482.5V485.5L654 487L654.499 487.026L653 547L650.5 551L649.5 563L650.5 564L738 570.5L740.5 568L742 567L740 568.5L738.5 570.5L737.5 571.5L736.5 573L735.5 575.5L666.5 570L645 568L617 565H611L560.5 560L521 556.5L504 555L498 554V549.5L498.5 548.5L514 127.5L642.5 118V117L643.5 116.5L645.5 116H648.5L650.5 117L741.5 110.5L773 108L771 267ZM505.5 462V471.5L506.5 472.5L507.032 472.532L509 474.5L509.5 477.5L511 478L509 536L507.5 538L506.5 550.5L616 561L617.5 560V549.5L616.5 548.5L616 546L615 545L617.5 484L618.5 480.5L620.5 479.5L622 478V468.5L618 465.5L617.5 466L511.5 460L505.5 462ZM736 539.5L733.5 540L731.5 541L730 542H729L726.5 541.5L728.5 543.5V544L728 544.5V546L672 542L711.5 526.5L736 539.5ZM755.754 517.581L754.5 518H753L753.5 519H755.685L754.699 538.833L723.5 521.5L741.5 514L739.5 516L740 517L738 518V519L749 515L750.5 514.5L755.981 513.004L755.754 517.581ZM597.5 536L528.5 531L528 530L562.5 515.5L597.5 536ZM699.5 520L660.5 536L662 499.5L699.5 520ZM608.5 532L573.5 511L609 496L608.5 532ZM552 510L516.5 525.5L517.5 490L552 510ZM734.5 498L732.5 499H728.5L731 501L733.5 500.5L738.5 500H749L712 516L674 495L734.5 498ZM530 486L597.5 490L563 506L528.5 486H530ZM756.5 491L756 489.5L756.091 489.363L756.5 491ZM764.5 476.5L762.75 477.812L763 477.5L764.5 476.5Z" fill="#FF0000"/>
</svg>
