<svg width="1280" height="720" viewBox="0 0 1280 720" fill="none" xmlns="http://www.w3.org/2000/svg">
<path d="M1132.5 8L1111.5 18.5H1094.5L1076 1.5L1083 29L1035 15.5L1031.5 25.5L1044 48L1076 83.5L1071 99L1076 107.5L1064 116.5L1029 111L1019 107.5L1004 99L981.5 83.5L974 67.5L963.5 125L956.5 128L928.5 101L890.5 58L865.5 101L833 116.5L804 110.5V125L812.733 146.5L806 161.5L778 163.5L785 184L775 200.5L804 203.5L824.5 210V219L794.5 223.5L787.5 247.5L791.5 238H799.5L801.5 250L798 261L801.5 266.5L806 257.5L809.5 269L813.5 276L818 270.5V253L826.5 257.5L829 266.5H837.5L835.5 261L833 253L837.5 245.5L847 253L849.5 266.5H856.5V276L837.5 270.5L832.5 274L829 278L820 294.5H804L791.5 302L798 303L812.733 298.04L819.999 307.5L828.999 296.5L832.999 302L826.499 307.5L810.616 311.029L808.5 311.5L794.5 307.5L782 321L784 331.5L791.5 348L794.5 355L808.5 377.5L822 396.5V408L813.5 419.5V435L799.5 437L779.5 435L767 442.5L771.5 472L775.5 464.5L784 462L791.5 466.5L782 469.5L784 474L794.5 469.5L802 472L799.5 477.5H797L789 482.5V486L787 496.5L784 513H789L794.5 520L787 528L794.5 526L791.5 533L787 536.5L794.5 538L799.5 543L805.5 551.5V555.5L791.5 558L797 567.5L794.5 575V583.5L805.5 589L809.5 592V597L805.5 599.5L807 602.5L814 598.5L809 616.5L805.5 609V601L804 596.5L802 607L799.5 614L797 601L794.5 592L791.5 609L789 607L784 596.5L782 604L776 592L767 581.5L770.5 592L774 596.5L782 616.5L772 612.5V630.5L768.5 628.5L765 620V607H757.5L751.5 604L753 577.5L753.5 567.5L755.5 567L760.5 564.5L763.5 563.5L756 563L753.5 563.5L754.5 540L756 513L757 492.5L756 489.5L757 488H756.5L758.5 482.5L763 477.5L764.5 476.5L766.5 474V440L771.5 235.5L773 108.5V69.5L774 0H1136L1132.5 8ZM485.5 11.5L462 562.5L423.5 572.5H415L407 576L405.5 595.5L376.5 591V577.5L358.5 574.5L282.5 595.5L189.5 621V556L226.5 500L265 468.5H265.023L271 339.5L278 293L259.5 248L232.5 207.5L202.5 188L159.5 170.5L132 191L110 180L102 150L126.5 127.5L105.5 113.5L88 89.5L102 73.5L132 68V73.5L159.5 84L164 78.5L184 89.5L193 78.5L189 73.5L156 68L150.5 57.5L136.5 53.5L121.5 45.5L126.5 38L121.5 32.5L102 25L121.5 14.5H145L172.5 0H577.5L485.5 11.5Z" fill="#FF00D9"/>
</svg>
