<svg width="1280" height="720" viewBox="0 0 1280 720" fill="none" xmlns="http://www.w3.org/2000/svg">
<path d="M773.978 3.00195L736 7L734.5 8.5L733 68L734 70L773.5 66.5L773.756 34L773.5 69.5L772.5 70H770L769.5 71L768.5 72.5L496.5 94.5L493 96L496.5 18.5L652.5 0H774L773.978 3.00195ZM514.5 32L513 34L510.5 89L511.5 89.5L544.5 86.5L545.5 85L548 30L547 28.5L514.5 32ZM552.5 27.5L551.5 29L550 84L551 85.5L585 83L586 81L588.5 24.5L587.5 23.5L552.5 27.5ZM593.5 23L592 24.5L590.5 82L627 79L628.5 77.5L630.5 20.5L629.5 19.5L593.5 23ZM648 17.5L647 19L645.5 74L646 76.5L684.5 74L685 71.5L686 14L685 13.5L648 17.5ZM691 12.5L690 14L688.5 72.5L689.5 73.5L729.5 70.5L731 69.5L731.5 67.5V9L730.5 8L691 12.5Z" fill="#3300FF"/>
</svg>
