<svg width="1280" height="720" viewBox="0 0 1280 720" fill="none" xmlns="http://www.w3.org/2000/svg">
<path d="M833 431.5L863.5 442.5H856.5L854.5 443L853 443.5L851 445.5L850 447.5L849.5 449.5L850.5 452L857 463L858 465L860 466.5L867 469.5V505.5H863L861 507.5V525L861.5 527L862 528.5L863 529.5L864.5 530.5H867L867.5 532L873.5 537V537.5H869L867 538.5V540L869 541.5V544L843 545C840 545.333 834 547.5 834 553.5L834.5 556.5L836.5 559.5L843 566L844.5 567V569.5L844 573.5L842.5 577.5L841 585.5L840.5 594L838.5 605L837 617L835.5 628.5V633.5L835 640L834 651.5L833 665V668L831.5 674.5L834.5 679.5L835.5 683.5L838.5 688L844 694L845.5 695V697L847.5 699L848 700V701L848.5 702V703L850.5 705H852L855 707L857.5 708H859V705L857.5 701.5V699.5H858L860.5 702L862.5 702.5L864.5 701.5H866.5L868.5 701L869.5 699.5L872.5 698.5L875 692.5L878 697.5L881.5 700L884 702V720H864L858.5 711.5L448 711V679.5H444L443.5 431.5H833ZM244.5 431.5V436.5H242.5V453.5H0V431.5H244.5Z" fill="black"/>
</svg>
