<svg width="1280" height="720" viewBox="0 0 1280 720" fill="none" xmlns="http://www.w3.org/2000/svg">
<path d="M925.5 16.5L916 34L910 47V85C910.5 89.1667 914 97.5 924 97.5C934 97.5 1022.5 96.5 1065.5 96L1200 95V227.5L1196.5 229H1194.5L981.5 277.5L979 278L970.5 280.5L966.5 281L929.5 281.5L379 280L353 272V0H935.5L925.5 16.5ZM26.5 19H21V82.5L20 153.5L20.5 209L20 237.5V279L0 278V0H26.5V19ZM531 213L529 213.5L527 215.5L525.5 217.5L524.5 218.5L524 219.5L520 218.5L519.5 217.5L517.5 216.5L515 215.5L512.5 215L509.5 214.5L507 214H504V244H593V213.5H591L589.5 214L588.5 215L587.5 216.5L587 218H586L585 220L583.5 219.5L582.5 219L581 218.5L580 217L578.5 216L575.5 214.5L571.5 213.5L567 213L564 214L562 215.5L560.5 218.5L559 220L558.5 221L557.5 221.5L556.5 220L554.5 218.5L551 217.5L548 217H545.5L544.5 216L542.5 214.5L540.5 213.5L534.5 212.5L531 213ZM522 28L521 28.5L520.5 30L520 33.5C518.333 33.5 514.4 33.6 512 34L509 33L506 32.5L503.5 32V89.249L593 88.5L592.5 47H589.5L588 47.5L585.5 48L583 49.5L582 51L581 53L580 56L579.5 58L578 62L577.5 59.5L576.5 58L575 56L574.5 54.5V51.5L574 49.5L571.5 47.5L568.5 46L564.5 45L562 44.5H559.5L558 43.5H557L555 45L553.5 45.5L550.5 46L548 47.5L545.5 49.5V54.5L544.5 55.5L543 58L542.5 60.5L543 64L541.5 68.5L541 71.5L542 74.5L541 75.5L535.5 50.5V48L536 45L537.5 40.5L538 39.5L538.5 40L540.5 39L541 38L540.5 37L539 36L536 35L533.5 34.5L530.5 34L529.5 33.5H525.5V29.5L524.5 28.5L523.5 28H522Z" fill="#FF0000"/>
</svg>
