<svg width="1280" height="720" viewBox="0 0 1280 720" fill="none" xmlns="http://www.w3.org/2000/svg">
<path d="M1280 166.5H1279L1278.5 163.5L1276.5 163H1272L1266.5 163.5L1262 164.5L1259 165L1258 166.5V207.5L1259 208.5H1264L1272.5 208L1275.5 207.5V206L1277 207V208H1280V371L1275.5 370L1279 369.5L1279.5 367H1278.5L1272 366L1267 365L1268 364L1264 363.5L1246.5 362L1247.5 361H1245.5L1238.5 360.5H1202L1200.5 360L1199 359L1198 358L1199 356.5L1200 353.5L1201.5 350.5L1203 348.5L1204 347L1206.5 345L1208.5 343.5L1210.5 342.5L1212 341.5L1213 340.5L1213.5 339.5V338.5L1211.5 337L1208.5 335.5L1206 335H1181.5L1183.5 331L1184.5 328L1185 325V323.5L1184 320L1183 318V299L1182.5 296L1181.5 294.5L1179.5 293.5H1176.5L1172.5 295L1169 298L1167 300.5L1164.5 304.5L1162.5 309L1154.5 305H1152L1149 306L1148 302.5L1147 300L1145.5 297.5L1143.5 295.5L1142 294.5L1140 294L1137 295L1136 296.5L1135.5 300V306H1135L1133.5 306.5L1131 308L1127.5 310.5H1125.5V309L1124 308L1122 307.5H1120.5V307L1119.5 302.5L1118.5 300.5L1117 298L1114.5 296L1112 295.5L1109 296L1106 298L1102.5 300.5L1101.5 301.5L1098 298.5L1096 297.5L1094.5 297L1092.5 297.5L1091 292.5L1090 291.5H1087L1083.5 292.5L1081 288.5L1079 287L1077.5 286.5L1077 287V288L1078.5 293V293.5L1075.5 294L1072.5 295.5V296L1076.5 311L1079 318.5L1081.5 323.5L1082.5 325L1082 334V341L1082.5 345.5L1083 348L1085 351L1086 351.5L1087.5 353.5L1095 364V364.5H1093.5L1091.5 365L1089 366.5L1088 367L1086.5 366.5V366L1085 364.5V364L1085.5 363L1086 361.5L1085 359.5L1084 358L1083 357L1081.5 356L1080 355.5L1077.5 354.5H1075.5V353.5L1076 352L1077.5 350.5V350H1069.5V350.5L1070.5 351.5L1071 352.5L1071.5 354.5H1069L1066 355.5L1063.5 356.5L1062.5 356L1061 355.5L1059 355H1057V353L1057.5 352L1058.5 351H1059V350.5H1051.5V351L1052.5 352L1053 353V355H1049.5L1047 356L1045.5 357L1044 358.5L1036.5 358L1032.5 355L1029 353.5L1025 352L1020.5 351.5L1018.5 352L1014 352.5L1011.5 354L1009 355L1007 356.5L1004.5 358.5L1003.5 359.5L1002 358L998 355L995.5 354L991.5 352.5H988L983.5 353L980 354L977 355L974.5 356L972.5 357.5L970.5 360L969 362L968 363.5L966.5 365.5L965.5 368L963.5 367H960.5L958 367.5L956 368.5L955.5 369.5L955 371L955.5 373.5L956 375L955.5 376.5V379L956.5 382.5L955 382L953 381L951 380.5H947.5L948 379L948.5 377L949.5 371L950 361.5V353L951 352.5V351.5L948.5 351H926V350.5L928 349.5L928.5 348.5L929.5 347H930L932.5 346.5L933.5 345.5V330.5C935.5 330.5 936.667 329.167 937 328.5H939.5L940.5 328L942 326.5H942.5V324H942L941.5 323L940 322H937.5L937 322.5C936.25 319.7 933.687 319 932.5 319H930V318.5L929.5 317L928.5 315.5L927.5 314.5L926 313.5L922 311.5L919 310.5L914.5 310L908.5 310.5L899.5 311.5L885.5 312.5L882.5 313L880 314.5H879L877.5 315.5L873.5 319.5L872 322L871 325L870.5 328.5L871 331.5L871.5 333.5L872.5 335V342L873 342.5L875.5 344L879 346L880 346.5L880.5 348L879.5 360L878.5 366.5L877.5 374L876.5 381L875 387.5L874 390.5L872 394.5L870 397.5L868.5 399L866.5 400.5L865 401.5L862.5 403L861 404.5L859.5 407.5V408.5L862 409L859.5 409.5L860 412L861 413.5L862.5 415L864.5 416.5L867 418.5L869 420L871 422L872.5 424L874 428.5L875.5 432.5L834 419L147 419.5V417.5H235L288.5 409H61L58 411L42 412.5L38.5 419H0V407H184.5L184 408L184.5 408.5H196.5L202.5 408L203 407.5L202.5 407.134H236L236.866 408L237 408.5H249.866L250.134 407.5L250 407H202L201 404.5L200 400V398.5L201 397.5H207L207.5 397L209 397.5H214L216 394.5V389.5L215.5 388L214.5 387L214 368.5L213.5 368H211L208.5 369L208 370L209 373L211 384L211.5 387H199.5L198.5 386.5L198 385L197.5 357.5L197 357L195 356.5V325.5L353 326V272L379 280L931 281.5L966.5 281L970 280.5L1194.5 229H1196.5L1200 227.5V95L1280 57.5V166.5ZM355 349.5L354 350L353.5 351L354 352L355 353V353.5H349.5L347.5 354.5L347 355.5L343 357.5H341V365L340 364L338 363L336 362.5H334L331.5 363.5L330 364.5L329 366L328 368L327.5 370.5V374L328 376.5L328.5 378.5L329 380L330 381.5L333 384.5L338 387L341 389V406L340 408V409L341 411V419H372V411L372.5 409.5V408.964L372.232 408.5L372.5 407.5H427L428 408L429 409.5L428.5 411L427 411.5V419H467V410.5L465 409L465.5 408L467 407V356L467.5 355V353.5L467 352.5H427.5V355.5L429 355.464L427 356V407H372L371.5 405.5L372 371L373 368L374 365.5L375.5 363L378.5 361.5L378 361L375 359.5L373.5 359H372V358L370 356.5L367.5 355L366.5 354.5L365 354L362 353.5H358.5L358 353L359 352L359.5 351V350.5L358.5 349.5L357 349L355 349.5ZM522 375H523V407H522.902L524.402 408.5L524 410L523 411V418.5H561V409.356L559.67 409L560 407.768L561 407.5H620.5L621.366 409L620.5 410.5V418.5H646.887V410.5L646.5 409.83L645.67 409L646 407.768L647 407.5V389.5L647.5 375L648.5 374.5V372H620V405.5L620.5 407H561V387.5L561.5 386.5V375.5L561.9 374.5V372H522V375ZM702 388.5L702.5 391L704.5 392H703V406.5L704 407.5H703.866V409L703 410.5V418.5H729.789V411L728.634 409L729.5 407.5H729L730 406.5L729.923 399.5V392L730.5 391V388.5L728 388H703L702 388.5ZM782 364.5V388.5H776.5L774.5 389.5V391L775.134 392V407L776 407.5H775L776.5 408V410.5L775 411V418.5H814V392.5L814.5 391.5V389.5L811.5 388.5H801V364.5L796.5 364H783L782 364.5ZM278.5 391V407H278L279 407.5V408.5H290.5L291 408V407H290.5V391.5L289.5 390.5L285.5 390H279.5L278.5 391ZM151 33L150 34.5L149.5 36H144C119.5 36 112.5 57.5 112.5 66.5C112.5 73.7 130.167 78.8333 139 80.5C150.2 88.1 159.333 85.6667 162.5 83.5C184.1 86.3 190.167 80.3333 190.5 77C190.5 50.6 166.5 39.3333 154.5 37V35.5L154 34L153 32.5L153.5 17.5V0H353V102H45L44.5 325.5H142.5V326H140.5L140 332V337.5L139 344.5L140 345L139 353.5L141.5 354H152L155 352.5L154 347L152.5 338.5L151.5 330V325.5H189.5L190 357H189L188.5 383.5L187.5 393.5L185.5 403.5L184 407L0 406.5V279H20L21 19H26.5V0H151V33ZM51 147.5H53V149H55L55.5 151H53.5L52.5 153.5L53 155.5L54.5 157H59V324H48V147.5L49 145L51 147.5Z" fill="#1E00FF"/>
</svg>
