<svg width="1280" height="720" viewBox="0 0 1280 720" fill="none" xmlns="http://www.w3.org/2000/svg">
<path d="M149 316.5H187.5L188.5 325.5H151.5L151 321L150.5 318.5L147.5 317V315.5L149 316.5ZM227 160V310H335.5L336 323L337 324H338L338.5 325L197 325.5V317H210V159.062H223.5L227 160ZM142.768 317H141L140 318L139.5 319.5L140 321L141 321.5V324.5L85.5 324L87.5 323L90.5 322L91 316H142.5L142.768 317ZM82 219L80 220.5L79 223V234.5L80 237.5L81 240L81.5 243.5V290.5L82 302.5H76L75 281.5V271L75.5 266L75 257L75.5 249L75 244.5V238.5L75.5 234.5L76 229.5V221L75.5 213L74.5 206.5V211.5L73 210.5L68.5 211L67.5 211.5L66.5 212.5L65.1973 213L64 214L63 216L62 221L61 224V226L63.5 230.5L65.5 234L64 228.5V224L65.5 222.5V224L67 227L68 225.5L68.5 219L67 218.5V215.5L68 213L69 211.5L70 211H72L73 212.5L74.5 214L75 217.5V227.5L74 239.5V244.5L74.5 249L74 253.5L73.5 253L72.5 250V254.5L73.5 256L74 259.5L74.5 264.5L74 268.5L72 269.5L72.5 271V276.5L73.5 279L74 285V302.5H69L68 303V304H69V305L68 305.5L68.5 306.5V307.5L67 310V322L68.5 323L69.5 324H59V157H82V219ZM352 260L350.5 260.5L349.5 262L350 263V267L349.077 269L350 270.598L351.5 271V281L346.5 280V159H352V260Z" fill="#00BFFF"/>
</svg>
