<?xml version="1.0" encoding="UTF-8"?>
<svg id="Layer_2" xmlns="http://www.w3.org/2000/svg" version="1.1" viewBox="0 0 1280 720">
  <!-- Generator: Adobe Illustrator 29.6.1, SVG Export Plug-In . SVG Version: 2.1.1 Build 9)  -->
  <defs>
    <style>
      .st0 {
        fill: #1c9be8;
      }
    </style>
  </defs>
  <path class="st0" d="M383.11,418.43v-3.66l20.01-5.77,79.86.96v3.85l-2.5,2.89.19,18.28,10.58-7.5,6.16-5.2,2.12-109.88,3.46-.77,168.76,1.54h127.01l3.85-.58,2.31,2.5.19,116.61,9.43,3.46-.19-20.21-3.46-2.69.96-2.5,5.77.58s12.7-6.35,16.16-.38l3.85.19,3.27.58,7.12.38s-1.92-3.46-5.39-2.12c-3.46,1.35-3.08-1.92,1.54-2.12s7.7,3.27,7.7,3.27l-.96-22.13-1.92-1.15-1.35-2.12-1.92-1.92s.38-2.5,3.27-1.92c0,0-.96-3.85,3.66-3.66,0,0-4.04-2.5,1.15-6.35,5.2-3.85,8.08,0,8.08,0,0,0,6.35-5.39,10.01-1.35,3.66,4.04,5.58,9.24,5.58,9.24l2.31,3.27s4.81,1.54.19,5.58-7.31,4.81-7.31,4.81l.58,16.93,24.63.77,5.97,1.73-3.66-152.21,1.92-1.92,108.24,1.69v-86.07l-693.58-4v311.58h70.71l-.7-59.64-3.66-2.89ZM822.54,385.05l-10.41.24v-16.23h10.41v15.99ZM854.82,241.83l.13-18.06,5.18-.93.93-2.26,1.99-.13.53,2.12,3.72.4.66,16.2,1.46,2.52.93,11.29-1.59,2.92-11.42.93-3.32-2.92-.4-11.02,1.2-1.06ZM813.65,277.16l57.63.53,2.26,1.73-.27,75.43-60.16.27-.93-2.39-.13-73.57,1.59-1.99ZM469.32,381.09v-16.16l10.01.19.19,15.97h-10.2ZM437.95,241.96l.76-2.27v-16.63l5.54-1.51,1.01-3.28h2.02l1.26,4.28,4.79-.25v16.88l2.02,1.51-.5,11.84-4.03,2.77-10.58-.76-2.27-2.27v-10.33ZM420.25,277.18h59.46l.96,1.92.38,72.74-.77,1.73-59.65.77-1.92-.77-.19-75.43,1.73-.96Z"/>
</svg>