<?xml version="1.0" encoding="UTF-8"?>
<svg id="Layer_1" xmlns="http://www.w3.org/2000/svg" version="1.1" viewBox="0 0 1280 720">
  <!-- Generator: Adobe Illustrator 29.6.1, SVG Export Plug-In . SVG Version: 2.1.1 Build 9)  -->
  <defs>
    <style>
      .st0 {
        fill: #1ec154;
      }
    </style>
  </defs>
  <g id="Layer_2">
    <path class="st0" d="M-4.01-25.49l1.19,145.65,12.51,6.26-.29,118.35c2.38-2.98,6.17-5.65,12.15-5.77v-3.3l2.2,1.51,3.57-.55s-4.81-4.67,5.36-7.97c10.16-3.3,14.97.55,14.97.55,0,0,7.01-2.2,7.01,4.26s-8.52,2.75-8.52,2.75c0,0,4.53,2.61,3.3,5.49l6.73-.96,2.88-4.26-1.1-3.85-1.37-2.2,2.06-.55,5.36,7.14,2.88.55,2.88,4.94,6.46,10.44.55,3.16-4.4-.41-7.28-4.94-.27,1.1-7.01.69-6.46-2.88,1.51,2.75-1.51,1.79-5.63.96,7.28,2.34s5.91,6.18.96,10.85c-4.94,4.67-13.46,5.08-13.46,5.08,0,0-2.06,9.2-11.13,5.91,0,0-4.4-.82-4.12-8.24,0,0-8.79-2.2-10.71-8.65l-2.75,4.81-1.24-1.79,2.75-5.36-3.95-.2-.02,6.68,2.04,3.14,1.51,4.67,7.69,11.13,4.94,7.28-2.2-.55-7.28-5.77.41,4.53-2.34-.14-1.92-6.73-2.9-3.4-.08,31.04,1.6-.86,1.1-2.2-.41-3.02,3.16,1.65,1.65,1.37,5.91.14-3.71,3.3,2.34,1.51-5.08,3.71s4.94,1.24,5.08,7.01c.14,5.77-.82,6.46-.82,6.46,0,0,4.26,1.65,5.77,9.89,1.51,8.24-6.59,3.16-6.59,3.16,0,0-3,8.23-10.07,2.8l-.05,19.78-1.79,5.06H-1.03l-2.38,43.49,26.69-1.4-4.71-17.58-3.33-16.52,53.28-1.6-.4,9.72-3.33,17.85-.31,6.1,84.63-2.24-1.79-87.28-11.62-1.19-.3-25.92,12.21.6-.89-167.41,3.28-.89,112.6,54.81,2.09,321.42,52.08-22.59V169.37L-4.01-25.49ZM97.87,342.66l-.91-3.73-5.09,1.13-3.62-.45,1.58,1.24-2.6,1.36-2.83-2.26-.57-1.58-3.51,1.47-4.98,4.53-.91-1.24,6.11-6.79-.79-4.98-2.04,1.81-4.07.11.34,2.72s-2.6,7.01-6,8.03-3.51-6-3.51-6c0,0-6.68,2.15-7.69-7.01,0,0-5.77-2.26-4.86-12.11.91-9.84,14.48-9.05,14.26-4.75,0,0,8.15-4.41,11.43-1.92s4.98,9.05,1.58,11.99c0,0,2.83,2.38.34,4.53l4.64-.23,2.83-2.6,7.47-1.02,4.98-3.39,1.7,1.81-11.65,6.22h2.6l7.24-3.17.45,5.43-2.49,4.41,4.86,1.02-4.3,5.43h.01Z"/>
  </g>
</svg>