<?xml version="1.0" encoding="UTF-8"?>
<svg id="Layer_2" xmlns="http://www.w3.org/2000/svg" version="1.1" viewBox="0 0 1280 720">
  <!-- Generator: Adobe Illustrator 29.6.1, SVG Export Plug-In . SVG Version: 2.1.1 Build 9)  -->
  <defs>
    <style>
      .st0 {
        fill: #ff64bd;
      }
    </style>
  </defs>
  <path class="st0" d="M1250.19,584.95l.89-448.08,31.9-11.33-2.21-22.89-270.06,102.14-.38,54.64,11.79,255.16,259.67,105.54-.89-23.25-30.71-11.92ZM1097.07,526.18l-67.99-27.8-.3-281.93,69.2-22.66.32,248.39-1.23,84ZM1231.11,573.03l-110.9-39.35-.6-346.42,111.5-38.46,1,166.35-1,257.88ZM944.98,270.88l-29.68,19.9,18.89,212.17-6.34.32-4.98-6.13-3.07-8.43-6.52-213.88,5.75-3.83,25.95-.12ZM962.52,270.54l21.59,231.73h-9.77l-23.64-231.73h11.82Z"/>
</svg>