<?xml version="1.0" encoding="UTF-8"?>
<svg id="Layer_1" xmlns="http://www.w3.org/2000/svg" version="1.1" viewBox="0 0 1280 720">
  <!-- Generator: Adobe Illustrator 29.6.1, SVG Export Plug-In . SVG Version: 2.1.1 Build 9)  -->
  <defs>
    <style>
      .st0 {
        fill: #606060;
      }
    </style>
  </defs>
  <g id="Layer_11" data-name="Layer_1">
    <path class="st0" d="M769.27,292.36l-12.07-.29-.36-.33-1.91.74-1.61.08-.93.72.04,1.75-1.37,3.56.98-105.31,18.12,2.38-.89,96.69h0ZM751.06,327.72l-.23,51.06,5.4.2-.81-49.49,7.21-.16v-1.09l-11.57-.52h0ZM759.83,333.4l-.31.39.05,45.2,9.15.26.11-45.98-8.99.14h-.01ZM722.95,406.88l-506.82,46.03.24,17.9,59.11-5.72.36.48.36-.6,1.93-.08.28,1.13.44,2.58,1.53,2.5.13,17.28,4.5.42,3.65.57,3.81.94,3.78,1,4.41,1.42,5.68,1.09,2.99.51,1.48.48,4.29,1.27,4.62.82,3.26.91,3.81,1.42,4.92,2.48,3.44,1.66.97.39,3.11.42,2.23.18,2.93.72,4.53.85,3.81,1.39,6.43,1.84,3.56,1.09,2.05.51,2.02.97,3.38.85,2.14.85,177.79-25.78,161.73-24.78s.89-5.45,3.79-9.83,5.56-9.45,5.56-9.45l.21-2.05,1.53-34.64.03-.02ZM209.75,471.73l.16-19.65-1.69-53.56s-21.66.48-39.38,1.85c0,0-.64,6.85-2.26,12.97,0,0,1.93,4.99,2.17,13.93s-.08,17.88-.24,20.54l.16,4.51-.24,17.72s5.03.16,7.24.64,3.78.69,3.78.69c0,0,3.5.24,7.52,2.51l22.78-2.15h0ZM182.42,336.21c-2.11-1.87-.72-4.41-.72-4.41l.91-1.03,2.48.06,2.66-.85,4.11-.3,2.05-.79c2.96.6,12.08.54,12.08.54l-6.34-207.24-41.04-5.03,6.88,207.6c4.74,5.84,5.45,17.5,5.45,25.96s-.68,21.1-.68,21.1l12.18-35.62h-.02Z"/>
  </g>
</svg>