<?xml version="1.0" encoding="UTF-8"?>
<svg id="Layer_1" xmlns="http://www.w3.org/2000/svg" version="1.1" viewBox="0 0 1280 720">
  <!-- Generator: Adobe Illustrator 29.6.1, SVG Export Plug-In . SVG Version: 2.1.1 Build 9)  -->
  <defs>
    <style>
      .st0 {
        fill: #606060;
      }
    </style>
  </defs>
  <g id="Layer_11" data-name="Layer_1">
    <path class="st0" d="M77.53,0l81.07,117.17,2.01,66.65,4.86,140.95s-4.74-7.93-16.73-12.05-21.97-3.5-21.97-3.5c0,0-5.12-.44-9.05-.12,0,0-8.11-1.06-13.8-.62,0,0-8.68-1.31-15.23-.69,0,0-16.6-2.06-24.78-.94,0,0-16.73-1.31-26.65-.25,0,0-21.16-2.37-26.28-1.31,0,0-8.91-1-10.98-.5V0h77.53Z"/>
  </g>
</svg>