<?xml version="1.0" encoding="UTF-8"?>
<svg id="Layer_1" xmlns="http://www.w3.org/2000/svg" version="1.1" viewBox="0 0 1280 720">
  <!-- Generator: Adobe Illustrator 29.6.1, SVG Export Plug-In . SVG Version: 2.1.1 Build 9)  -->
  <defs>
    <style>
      .st0 {
        fill: #b112d8;
      }
    </style>
  </defs>
  <path class="st0" d="M951.39,424.94l190.59,31-.76,26.17-189.83-37.36v-19.82ZM950.37,508.54l187.79,55.91,1.52-48.54-189.06-44.22-.25,36.85ZM1280,63.85v541.51l-86.36-25.41,5.26-143.07-2.29-2.54-146.37-17.79,6.86-14.74.51-16.01,1.52-4.57,5.84,13.47,2.03-3.05,3.56,6.86.76-12.2-4.83-9.91-.51-4.32,4.32-3.81,4.07,4.07,6.61-3.3,17.03,12.96-3.81-7.62-11.44-9.15-7.37.25-2.8-1.78,4.83-4.32-2.54-3.56-5.08-1.52-.25-15.76-10.67.51-3.05-2.29-9.91.76,7.37,3.81,7.12,7.37,3.05-1.02,4.32,7.37-5.84.25-1.78,5.34-5.08.76-5.34-6.61-3.56-1.02-1.02-2.8-2.8-.25-1.02,2.8-4.32-.51-.51-6.1,6.61-9.91-8.13-.76-2.03-4.83-5.34,5.59-5.08.25-6.35,2.03-4.57-2.8-3.3,3.81-6.61,3.56-.25,2.8,7.12-2.8,2.8,1.02-2.29,3.56-2.8,1.52h-3.3l-3.81,1.78-4.32,7.62-5.59,11.94.76,3.3,4.57-7.62,2.54-1.52-2.54,7.62,3.05,1.52c-2.29,8.64,2.03,10.93,2.03,10.93,5.34-4.57,7.37-9.4,7.37-9.4l7.12-2.8,4.32,3.3c-6.86-3.3-6.35,1.52-6.35,1.52l2.29,4.32-2.29.76.25,3.56,2.03,1.02.76,23.63-72.42-9.4-37.1,3.3-3.05,1.27-2.31,86.99-77.22-22.72s.06-1.06-.45-5.32c-.51-4.26-2.08-6.58-2.08-6.58l.03-78.4-46.99-1.21.3-50.25-7.13.3v-.97c8.28.06,24.37.97,24.37.97.69-1.54-.51-1.73-.51-1.73-4.17-7.95-10.07-33.13-10.07-33.13.12-1.87-.7-2.01-.7-2.01l-10.55-.22.89-96.69,509.84-131.81ZM1048.62,216.13l-8.06.71-85.36,12.57-.24,74.69,92.72-3.08.95-84.89ZM1202.04,224.19l-130.18,13.52-.95,88.21,129.71-.95,1.42-100.78ZM1031.83,347.68l-5.12-4.84-9.96,7.68,10.53,2.84,1.71-2.56h3.41l-.57-3.13Z"/>
</svg>