<svg width="1280" height="720" viewBox="0 0 1280 720" fill="none" xmlns="http://www.w3.org/2000/svg">
<path d="M645 685H638V684L645 681V685ZM712 537L735.5 579.5V685H711.5L690 678L691.5 675.5L692 674L691.5 671.5L669.5 661.5L656.5 664.5H646.5L645 665L645.5 668L638 670V589.5H698V612L704 613V592C706.4 594 707 597.833 707 599.5V642.5C707 651.3 700 653.167 696.5 653H667V658.5H669.5V660.5H680V658.5H687V660.5H695.5L696.5 659.5V658H699.5C708.3 656 710.5 647.5 710.5 643.5V599.5C710.5 593.5 705.833 588.667 703.5 587V581C703.5 577 702.167 574.333 701.5 573.5C700.7 567.9 697.5 564.167 696 563V558C696 552 690.333 549.833 687.5 549.5H639V551.5L687.5 551C692.7 552.2 694 555.833 694 557.5V561H687.5V562L638 562.5V526H712V537ZM638 572H694V586.5L638 587V572ZM701 580L701.5 582V585.5L700 585V578.5L701 580ZM697 573L698.5 574.5V585H696V573H697ZM696 566.5C696.667 567.167 698.1 568.9 698.5 570.5L696 569V566.5ZM638 564H692L694 565V568.5H689.5V569.5L638 570V564ZM940 547.5L952 553V554H956.5V553H962L967.5 555.5H987V553H1017.5L1019 552V526H1034.5V556.5L918 557L914 555H920L921 554L921.5 552L921 549.5L919 549L917.5 548.5V546L918 545.5V541H920L921 539.5V538L919.5 536.5L923 536V531L924 530.5L917 527.5H914.5L910.5 526H940V547.5ZM876 527.5H867V530.5L859.5 526H876.5L876 527.5ZM638.5 193H293V133H638.5V193Z" fill="black"/>
</svg>
