<svg width="1280" height="720" viewBox="0 0 1280 720" fill="none" xmlns="http://www.w3.org/2000/svg">
<path d="M252.5 408V531.5L213.5 543L214.5 537L215.5 529.5V524.5L218 523.5L221.5 521.5L219 522H216V521L219.5 516.5L216 519L218.5 515.5L220 510.5L218 513.5L214 517.5L216 512.5L217.5 509L219 506L217.5 507.5L217 505.5L215.5 509.5L212 512.5L213.5 510L215.5 504.5L216 501.5L213.5 504.5L214.5 501L213 504L211.5 505L213.5 498L213 494.5L212 497L210 501.5L210.5 498L209.5 494.5L208.5 498.5L208 494.5L207 497L206.5 497.5V496L205 492L204 495.5L203 492L201 494.5L200 495L199.5 497H198.5L199.5 491.5L198 493.5L197 495.5L196 492.5L195 497L194.5 499V502L192.5 499.5L191.5 495.5V498.5L191 499.5V503L187.5 498L188.5 501H187.5L188 502.5L188.5 504.5H187.5L185 498.5L184.5 497.5L183.5 496.5H182.5L152.5 502L151 503.5L150 501L147.5 504L145.5 507V500.5L143 505.5L142 501.5L141.5 504.5L140.5 507L140 510.5L139.5 511L137 504.5V509.5L136 509L136.5 513.5L132.5 507.5L134 512L132 510.5L133 513L133.5 516L132.5 515.5L133.5 518L134.5 521.5L130.5 516.5L129.5 513V517.5L130 519L133 524.5L131.5 523.5L131 524.5L132.5 528L130 526.5C128 521.667 123.8 511.5 123 509.5C122.2 507.5 120.333 507.196 119.5 507.294L115 508.5V417H38V510.5H103L81 514.5L79.5 516L80 517.5L82 523L80 526.5H78.5L79.5 523.5V521.5L78 518L76.5 521L75 523V521.5L72.5 515.5H72.25L71.5 518L70 514L69.5 516L66.5 519.5L66 518L65 520V517L65.5 514.5L62.5 518L61.5 519L60.5 515.5L60 519L59 521.5L58.5 524.5L57 522.5L56.5 525.5V523L54.5 519L55.5 522.5V526L53.5 523.5V527L50 522L51.5 527.5L49 525.5L50 527.5L40.5 528C39.8333 526.833 38.4 524.3 38 523.5C37.6 522.7 36.1667 522.5 35.5 522.5L5 528L9.5 540L32 595.5L0 604.5V404L252.5 408ZM6 417V421H30V510H35V417H6Z" fill="#2200FF"/>
</svg>
