<svg width="1280" height="720" viewBox="0 0 1280 720" fill="none" xmlns="http://www.w3.org/2000/svg">
<path d="M1280 146L1276 146.5L1180.5 187.5V502L1276 518L1277 519.5H1280V720H1132L1062.5 676.5V567L1034.5 556.5L1034 484V394.5L1137 388L1137.5 387V381.5L1136.5 380.5L1121 381L1120 380.5L1119 378H1092L1075 379V378.5H1059.5L1065 372L1067 369L1068 367L1068.5 366.5L1067 365.812L1068.5 365.5L1069 364.5C1068.67 364.333 1067.9 363.962 1067.5 363.812C1067.1 363.663 1067 362.542 1067 362L1067.5 360L1065.5 359L1065 357H1063.5L1061.5 355L1058.5 355.5L1057 352.5L1055.5 354.5L1054 351.5L1052 353H1048.5L1047.5 351L1046.5 353L1044.5 354L1042 351.5L1041 352.25L1039.5 351.5L1038 352.25L1037 350.5L1034 352.25V316.5L1137.5 290V283H1125.5L1123.5 224H1120V221L1074.5 221.5L1137.58 193V187L1137 186H1088L1075.5 192.5C1075.5 183.3 1069.17 178.667 1066 177.5L1065.5 177H1068V174.5L1068.5 167.5L1068 166V159.5L1068.5 158.5V147.5L1066.5 146.5V145L1068.5 143.5L1069 141L1069.5 139L1068.5 137L1066.5 135.5H1064.5L1062.5 136.5L1062 138V139.5L1061.5 140.5L1061 141V144.5L1061.5 145.5H1062.5L1063.5 146V147L1062.5 148L1061 150L1060 152.5C1059.83 155.833 1059.5 163.2 1059.5 166C1059.5 168.8 1056.83 169.5 1055.5 169.5L1046 168.5L1037.5 169L1037 170H1035.5L1034 190.5V133L1159 42.6699L1161.5 42V40.2324L1164.5 38.5H1167V36.7471L1169.5 35.3037L1172.5 34.5V33.5L1175 31H1177.5V28.7324L1180.5 27H1183.5V25L1186 22.5H1189.1L1189.5 21L1191.5 19H1195V16.2324L1198 14.5H1200.67V12L1203.5 10.3662H1206.5L1207 8.5L1210 5.5H1213V2.73242L1216 1H1219L1220 0H1280V146ZM1068 270.5L1067 270L1065.5 270.5L1065 271.5V273.5L1066.5 278.5L1067 281L1066.5 282L1064.5 282.5L1064 283.5L1064.5 285.5L1061.5 286.5V290L1062 291L1043 296.5L1044 292L1045 286L1044 282.5L1042 282L1045.5 280L1047 278L1049 275.5V274.5H1048L1045 276.5L1048 272.5L1048.5 271L1046 273.25L1044.5 274.5L1047.5 268L1045.5 269L1047.5 263.5L1046 264.5L1046.5 262L1044 265.5L1040.5 269.5L1043 264L1043.5 261.5L1043 259.5V258.5L1042.5 255L1041 258.5L1040 257V254.5L1038 257L1037.5 255L1036.5 253.5L1036 259L1035 252.5L1034 252V239.5L1068.5 224L1068 270.5ZM1047.5 177.5H1053L1053.5 178C1048 180.5 1043 186 1043 193C1043 198.6 1047 204 1049 206L1039.5 211L1040.5 179.5V176.5L1047.5 177.5ZM1218 92C1214 92 1210.67 94.6667 1209.5 96C1202.3 96.4 1199.17 104.5 1198.5 108.5V121.5L1196 123.5L1198 127.5L1175.5 139L1174 142C1173.2 147.6 1177.67 147.667 1180 147L1214 130V144H1220.5L1246 132V114H1241.5L1236 116C1236.8 112.4 1233.67 110.833 1232 110.5H1229.5V101.5C1229.5 99 1223 92.0001 1218 92ZM1209.5 99C1212.17 98.3333 1217.9 98.9 1219.5 106.5V116L1210.5 120.5C1210.33 119 1209.6 116.2 1208 117V103L1209.5 99ZM1206 101L1205.5 104.5V117.5L1201 120V106.5C1201 102.9 1205 100.333 1207 99.5L1206 101ZM1218 95C1222 95 1225 98 1226 99.5V112.5L1222 114.5V106.5C1222 100.9 1215.33 97.5 1212 96.5C1212.33 96 1214 95 1218 95Z" fill="#FF0000"/>
</svg>
