<svg width="1280" height="720" viewBox="0 0 1280 720" fill="none" xmlns="http://www.w3.org/2000/svg">
<path d="M421.75 40H577L569.5 0H915.5L890 39.5H1045L1087.5 0H1220L1219 1H1216L1213 3V5.5H1210L1207 8.5L1206.5 10.5H1204L1200.5 12V14.5H1197.5L1195 16V19H1191.5L1189.5 21L1189 22.5H1186L1183.5 25V27H1180.5L1177.5 28.5V31H1175L1172.5 33V34.5L1169.5 35.5L1167 37V38.5H1164L1161.5 40V42L1159.5 42.5L1034 133H948L947 131.5L945.5 133H830V132L829 131.5L828 133H713L712.5 131.5H711.5L710.5 133H293L292.5 89L196 0H398L421.75 40ZM465.5 113.5H590.5L584.5 80H446L465.5 113.5ZM842.5 111.5L843 113L967.5 113.5L1002 80.5V79H865.5L864.5 78L842.5 111.5Z" fill="#11FF00"/>
</svg>
