<svg width="1280" height="720" viewBox="0 0 1280 720" fill="none" xmlns="http://www.w3.org/2000/svg">
<path d="M1137.5 381.5V387L1137 388L1043 392.688H726.5L724 393V388L726.5 387H1006L1088 380.5H1136.5L1137.5 381.5ZM1137.5 289.5H1130.5L1029 316H996.5L997 315.5H724V311L726.5 307.5H1006.5L1088.5 283H1137.5V289.5ZM1137.5 187V192.5H1130.5L1029 239H724V234L726.5 228.5H1006L1035 213.5V224.5C1035 226.5 1032.67 228.667 1031.5 229.5C1035.1 228.3 1036 225.667 1036 224.5V218L1036.5 217V212.5L1037.5 212V223.5C1037.5 225.9 1034.17 228.5 1032.5 229.5C1033.7 229.1 1035 228.333 1035.5 228C1038.3 226.8 1039 223.833 1039 222.5V216.5L1039.5 215.5V211L1088.19 186H1137L1137.5 187Z" fill="#00D9FF"/>
</svg>
