<?xml version="1.0" encoding="UTF-8"?>
<svg id="Layer_1" xmlns="http://www.w3.org/2000/svg" version="1.1" viewBox="0 0 1280 720">
  <!-- Generator: Adobe Illustrator 29.8.2, SVG Export Plug-In . SVG Version: 2.1.1 Build 3)  -->
  <defs>
    <style>
      .st0 {
        fill: #f97d3e;
      }
    </style>
  </defs>
  <path class="st0" d="M743.56,528.4l-3.67,3.88.43,61.23.87,10.56-24.15-5.82-.12-272.03-112.98-6.52-1.63,4.48-10.6.41,2.04,34.67,2.85,174.15,9.38,2.44-1.22,35.08-4.08,3.67-13.05-4.9.81-30.58-1.63-5.71-11.42-2.45-205.21,98.84-140.77-51.88-7.52-250.74,145.93,11.95,211.78-23.98,157.44,9.19,3.99-.4-2.39,4.4v17.98l3.99,2.79-.8,4-3.66.22.64,170.75,4.75,4.32ZM1007.93,339.76l-7.19,286.9,170.96,36.39,2.11-17.35v-10.58l12.28,2.97,12.27-288.6-190.43-9.73Z"/>
</svg>