<?xml version="1.0" encoding="UTF-8"?>
<svg id="Layer_1" xmlns="http://www.w3.org/2000/svg" version="1.1" viewBox="0 0 1280 720">
  <!-- Generator: Adobe Illustrator 29.8.2, SVG Export Plug-In . SVG Version: 2.1.1 Build 3)  -->
  <defs>
    <style>
      .st0 {
        fill: #ccef78;
      }
    </style>
  </defs>
  <path class="st0" d="M1055.17,172.92v-.02s-22.68-9.16-22.68-9.16l1.19-64.53-208.9,20.87-5.26-.12-1.59,62.5-270.71,9.1-.13,33.02,8.96-2.71.23,2.09-2.32,5.56,7.65-.7,1.16,1.85c4.64-2.78,3.01.93,3.01.93l-3.71,3.25-7.42,7.19-6.03,10.67-1.39,5.33-1.62,4.87,9.51.23.93,9.97h-3.48l.7,5.56-6.6,2.41-.28,9.95,234.56,8.97,28.52-3.94.7-15.77,2.78-6.26-4.64-3.25,2.55-42.66,2.55-3.48,224.9-3.01,5.1,2.78-2.32,84.86,44.05,2.09v-1.62l-2.32-4.17,2.55-101.09c0-7.65,8.11-9.27,8.11-9.27l94.36-2.09,5.8,5.8-.46,8.58,6.49-.46c10.67,6.96,2.32,22.03,2.32,22.03l-9.97,9.04-3.25,70.25-6.72,6.26,19.71,1.85,5.47-150.32-152.06,6.77ZM595.37,255.27h0s-.18-29.38-.18-29.38l15.87-.18.55,29.74-16.24-.18ZM771.24,250.89h-.01s-.36-32.66-.36-32.66l20.43-1.09.55,33.57-20.61.18Z"/>
</svg>