<?xml version="1.0" encoding="UTF-8"?>
<svg id="Layer_1" xmlns="http://www.w3.org/2000/svg" version="1.1" viewBox="0 0 1280 720">
  <!-- Generator: Adobe Illustrator 29.8.2, SVG Export Plug-In . SVG Version: 2.1.1 Build 3)  -->
  <defs>
    <style>
      .st0 {
        fill: #cc76f4;
      }
    </style>
  </defs>
  <path class="st0" d="M500.25,188.99L497.57-.66,127.69-6.46l24.99,611.97,76.73-27.58-7.52-250.74-12.04-1.5v-10.53l275.12-20.42-1.42-68.24s.85-3.98,15.07-3.98c0,0,16.49-.28,16.49,3.7l1.71,66.82,29.57-1.99.28-9.95-10.24-1.14-.57-7.39-4.27.57v-9.38l11.9-.9-4.61-4.73-3.2-9.47-.9-4.22-3.33-4.22-1.66-8.96,1.66-1.28v-2.43l3.2-.64,4.99,3.2,2.3-1.66,3.2,1.02-.13-2.69,2.05-2.18.13-33.02.03-.03-46.97-2.56ZM432.87,265.34l-1.01-33.45,24.99.2,1.01,32.85-24.99.4ZM-4.38-7.46l-5.87,540.03,96.11-20.42,6.01,145.97,21.82,10.81L81.67-6.46-4.38-7.46ZM21.81,455.79l-1.21-38.16,25.44-3.63,3.63,36.34-27.86,5.45Z"/>
</svg>