<?xml version="1.0" encoding="UTF-8"?>
<svg id="Layer_1" xmlns="http://www.w3.org/2000/svg" version="1.1" viewBox="0 0 1280 720">
  <!-- Generator: Adobe Illustrator 29.8.1, SVG Export Plug-In . SVG Version: 2.1.1 Build 2)  -->
  <defs>
    <style>
      .st0 {
        fill: #4cf2bb;
      }
    </style>
  </defs>
  <path class="st0" d="M1283.59-4.47l-166.28,1.47,4.39,671.89,6.6.6,6,6.6,16.79-7.2,6-11.99-14.99-41.97-4.2-23.38,4.2-18.59,20.99-20.99,22.19-3.6,20.39-1.2,14.99-6,16.19-.6,22.78,18.59,7.79,19.79,6.6,23.98,3,32.98,10.19,14.39-3.6-654.77h-.02ZM1152.69,304.14c-5.36,0-9.7-4.39-9.7-9.8s4.34-9.8,9.7-9.8,9.7,4.39,9.7,9.8-4.34,9.8-9.7,9.8ZM1192.67,271.93c-9.72.32-24.03-1.65-32.9-.73-1.84,1.65-4.33,2.67-7.07,2.67-5.68,0-10.28-4.34-10.28-9.7s4.6-9.7,10.28-9.7c5.37,0,9.78,3.89,10.24,8.85,3.19,1.05,8.74,2.46,15.18,2.22,10.09-.39,24.06.58,24.06,1.55s2.13,4.46-9.51,4.85h0Z"/>
</svg>