<?xml version="1.0" encoding="UTF-8"?>
<svg id="Layer_1" xmlns="http://www.w3.org/2000/svg" version="1.1" viewBox="0 0 1280 720">
  <!-- Generator: Adobe Illustrator 29.8.1, SVG Export Plug-In . SVG Version: 2.1.1 Build 2)  -->
  <defs>
    <style>
      .st0 {
        fill: #e513aa;
      }
    </style>
  </defs>
  <path class="st0" d="M1120.46,637.92l-30.41-.87-39.1-125.69h9.56l.87-20.85-4.92-4.63,60.54-.28-.14-16.01-80.36-87.65-133.55-.79-1.25-19.43-3.03-5.7,6.06-13.73.36-3.39,1.07-83.25c0-5.17-2.5-5.53-2.5-5.53l-132.28-7.13c-3.03.71-2.85,6.06-2.85,6.06l-1.43,78.44-.71,2.67-69.71-.71-3.03-.71-3.03-2.32-18.36-.71-.18-15.51,90.03.18,2.14-.89.18-122.12-1.78-1.43-203.77-.36-1.43,2.14-.89,119.62,1.25,1.6,91.1.71-.18,16.04-18.72.71-5.7,1.96-136.38-1.13,3.24-23.94.75-1.66,1.43-3.46-2.41-.68-6.77-.15,2.48-4.22-4.29,3.76h-1.2l6.32-9.33-10.24,9.86,7.6-18.82-8.13,11.52,4.22-19.5-4.67,11.07,2.33-12.04-4.89,10.16-1.13-1.35-1.05-11.22-2.33,6.55.68,8.58.9,7.9-6.47-13.62.98,7.38,3.61,10.61.75,2.41-8.43-7.08,4.67,7h-3.53l-6.14,1.49-3.35,1.86,2.79,2.42,2.79,24.18h-22.69l-23.25,28.83.19,19.16-86.31-1.23-44.84,45.43,5.12-425.83,830.64,3.73-.03.04,3.19,640.88ZM605.29,619.05s-55.6-13.61-57.63-68.92h0s-6.08-4.92-7.24-29.25c-1.12-23.6-1.7-39.55-1.74-40.49v-.04s0,0,0,0c0,0,0,0,0,0h0s-79.63-1.44-79.63-1.44l-.87,151.46,132.06,3.19s7.24-13.03,15.06-14.48v-.02ZM599.64,633.1h0s0,0,0,0h0ZM604.26,628.71c-2.93,1.01-4.62,4.39-4.62,4.39l7.32.34-2.7-4.73ZM619.48,623.53s-9.8,1.58-11.72,3.27l3.94,6.76h0s7.55-.01,7.55-.01l5.75-8.56-5.52-1.46ZM628.71,625.89l-.03.04-5.49,7.51,5.63.34.79-7.55-.46-.18-.44-.16ZM636.71,628.03l-.79,5.52,25.7.45-2.26-4.28-22.65-1.69ZM678.29,634.55l18.15-.21.56-5.3-16.11,2.14-2.6,3.37ZM699.82,628.93v5.41l12.84-.11-3.49-6.99-9.35,1.69ZM684.1,482.67l14.24,28.68,13.61,30.15,25.75,6.91,16.96,3.77,15.49,1.88s7.33-.42,7.96,5.23c.63,5.65-7.33,14.65-7.33,14.65l-6.07,11.72s-4.61,8.16-12.56,14.03c0,0-12.21,16.28-35.5,25.4h-.04s4.95,9.14,4.95,9.14l162.87,1.88,48.36-150.72-248.7-2.73M994.2,486.21l-18.24-.17v35.79l-7.81.17-5.74-9.73-.17-26.58h-12.86l-36.13,118.14,55.59-.18,27.62-116.05-2.26-1.39ZM1011.7,532.17l-1.6-.62.12-5.03,2.09-.98-2.7-10.8-19.58,89.09,30.5.36v-45.89l-6.01-26.01-2.82-.12ZM1042.2,525.14l-5.72-7.27.47,7.42,5.25-.15ZM1036.79,532.71l.78,65.86,10.97,38.34,25.82.15-29.77-104.35h-7.8Z"/>
</svg>