<?xml version="1.0" encoding="UTF-8"?>
<svg id="Layer_1" xmlns="http://www.w3.org/2000/svg" version="1.1" viewBox="0 0 1280 720">
  <!-- Generator: Adobe Illustrator 29.8.1, SVG Export Plug-In . SVG Version: 2.1.1 Build 2)  -->
  <defs>
    <style>
      .st0 {
        fill: #e2ce14;
      }
    </style>
  </defs>
  <path class="st0" d="M435.76,326.91l-23.25,28.83-.29,47.9,184.15,3.66s-.92-6.41,5.8-6.41l105.67,1.22s4.58.31,4.28,6.11l191.48,1.53-.62-28.64-1.25-19.43-3.03-5.7-4.57,9.8-31.46-2.75-110.25-8.55s-5.8-1.22-3.66-4.28,17.66-20.07,17.66-20.07l-72.74-1.43,1.02,14.48s0,4.58-6.72,4.58-58.64-.61-58.64-.61c0,0-3.97-.61-3.36-7.02s1.53-12.22,1.53-12.22l-3.19.44-136.38-1.13-1.22,10.15s-3.05,3.36-16.49,3.36-12.22-6.41-12.22-6.41l.43-7.41h-22.69.01Z"/>
</svg>