<?xml version="1.0" encoding="UTF-8"?>
<svg id="Layer_1" xmlns="http://www.w3.org/2000/svg" version="1.1" viewBox="0 0 1280 720">
  <!-- Generator: Adobe Illustrator 30.0.0, SVG Export Plug-In . SVG Version: 2.1.1 Build 123)  -->
  <defs>
    <style>
      .st0 {
        fill: #74b1ed;
      }
    </style>
  </defs>
  <path class="st0" d="M947.77,709.26c-1.95-2.93-8.92.14-12.13,3.07s-2.79,9.48-2.79,9.48l-7.67.28.42-11.85c-.56-6.97,5.3-7.39,7.67-7.39s3.21-1.26,2.79-6-4.88-4.18-4.88-4.18c-10.6,1.39-11.02,9.48-11.02,9.48l-.14,19.25-106.55,1.95-39.19-75.31-24.13.28-.14-23.99-35.15-72.38-7.39-.14-.84-24.27-186.74.98.28-85.21-2.23.14,5.81-4.62.41-7.32-8.17-.05-.09-12.32h186.4l.18,7.24,45.41,36.04,10.42-.53,342.78,260.44-161.55-1.21c1.12-4.6,6.97-2.79,8.23-2.93s1.95-6,0-8.93ZM515.89,419.14h0,0s0,0,0,0ZM500.24,620.62l2.26-4.74-3.17-1.59-.68-155.32-249.74,200.95-8.42.9-252.21-1.13,1.31,76.42,250.19-12.84,222.7,1.36,17.41-38.67,23.74-52.9-.45-10.18-2.94-2.26Z"/>
</svg>