<?xml version="1.0" encoding="UTF-8"?>
<svg id="Layer_1" xmlns="http://www.w3.org/2000/svg" version="1.1" viewBox="0 0 1280 720">
  <!-- Generator: Adobe Illustrator 30.0.0, SVG Export Plug-In . SVG Version: 2.1.1 Build 123)  -->
  <defs>
    <style>
      .st0 {
        fill: #c25ef7;
      }
    </style>
  </defs>
  <path class="st0" d="M1291.38,690.29l-79.85-39.5-10.62,1.7-11.04-6.37,6.07-587.17-.19-67.71,57.15,3.98-1.71,504.27,38.09,8.53,2.1,182.27ZM355.19,242.4l-4.32,18.56c7.77-7.55,17.91-7.12,17.91-7.12l4.75-24.6h0s-33.67.21-33.67.21l14.89,10.79.43,2.16ZM964.28-1.33l171.02-1.23-164.56,115.24-1.51,222.38-.59,15.23-2.97,2.77-265.97,3.76-.2-88.2-20.01-.16s-26.86-13.68-66.48-13.85c-39.61-.17-64.46,13.85-64.46,13.85h-16.62l-4.6-.14-.28,140.49-2.49.09-8.66,4.95.09,17.63-2.28-.21-.84-134.32h-101.61l.73,133.61h-3.44l.19-133.52-121.87-.96-.38-22.54c24.97,4.79,57.68-.04,57.68-.04l6.47,16.62c1.3,3.88,27.63,3.45,27.63,3.45,16.4.21,27.84-2.16,27.84-2.16l6.47-17.91.43-4.32c-11.22-11.66-21.58-14.03-21.58-14.03l-1.08-3.02-1.94-2.59-4.1-20.07,131.01-.22,8.2,7.55,181.78,1.17,36.32-6.88,28.68-28.68.58-6.18,22.15-24.72,6.72-.4L964.28-1.33ZM736.02,340.29l-.38-29.4-11.72.58-.19-32.48,11.92-13.45-.58-18.45-22.49,3.46-.19,89.93,23.63-.19Z"/>
</svg>