<?xml version="1.0" encoding="UTF-8"?>
<svg id="Layer_1" xmlns="http://www.w3.org/2000/svg" version="1.1" viewBox="0 0 1280 720">
  <!-- Generator: Adobe Illustrator 30.0.0, SVG Export Plug-In . SVG Version: 2.1.1 Build 123)  -->
  <defs>
    <style>
      .st0 {
        fill: #60caf4;
      }
    </style>
  </defs>
  <path class="st0" d="M-4.34,318.92h0s-.03.01-.03.01h.03ZM269.59,269.63l-10.54-33.44,1.37-2.98-41.23.23c-1.6,5.72-7.33,6.64-7.33,6.64-33.44,4.58-76.96-2.75-76.96-2.75l-23.64-4.37-76.18,1.81,1.43,84.74-40.85-.58,1.99,95.63,15.32-1.09,6.93-6.11-2.92-4.47s.73-4.47,6.11-4.83,5.47,5.29,5.47,5.29l-2.46,3.92,2.64,3.92.36,13.5,5.27,1.83c3.2-3.66,8.47-2.06,8.47-2.06,1.37-5.49,7.33-6.41,7.33-6.41,8.93-1.84,12.14,8.7,12.14,8.7l2.98-1.83-.23-154.14,204.53-1.15Z"/>
</svg>