<?xml version="1.0" encoding="UTF-8"?>
<svg id="Layer_1" xmlns="http://www.w3.org/2000/svg" version="1.1" viewBox="0 0 1280 720">
  <!-- Generator: Adobe Illustrator 30.0.0, SVG Export Plug-In . SVG Version: 2.1.1 Build 123)  -->
  <defs>
    <style>
      .st0 {
        fill: #e0572d;
      }
    </style>
  </defs>
  <path class="st0" d="M155.76-1.42h-.02s0-.01,0-.01h.02ZM-2.69-1.76l158.43.34-.34,20.89-13.48,9.1,10.45,60.68-17.19,63.72-15.17,1.01s-26.29,6.74-36.07,12.81c-9.77,6.07-6.74,11.13-6.74,11.13l15.51,45.51c0,6.07,18.55,9.53,18.55,9.53l-76.18,1.81,1.43,84.74-40.88-.58,1.15-219.91c2.36,1.13,5.52,2.13,9.07,2.77,7.79,1.4,14.47.52,14.91-1.95.44-2.48-5.51-5.61-13.3-7.01-4.11-.74-7.9-.84-10.64-.41L-2.69-1.76ZM25.08,210.5c.07-1.41-4.11-2.78-9.34-3.06-5.23-.27-9.54.65-9.61,2.06-.07,1.41,4.11,2.78,9.34,3.06,5.23.27,9.54-.65,9.61-2.06ZM13.66,167.2c-6.57-1.21-12.12-1-12.39.47-.27,1.48,4.84,3.66,11.41,4.87s12.12,1.01,12.39-.47c.27-1.48-4.84-3.66-11.41-4.87ZM906.53-1.11l-120.76,150.97h-5.72l-27.62,35.91,1.97,2.37-24.07,30.38-27.62,5.52-169.48-1.38-6.91-8.48-143.44-.39,2.48-24.68-5.25-6.11-.14-40.19c14.77.14,14.77-3.69,14.77-3.69l.28-4.4s-3.13-4.54-17.47-6.25c-14.34-1.71-17.04,2.98-17.04,2.98l.28,3.69c1.56,6.25,15.62,7.24,15.62,7.24l-.26,39.68-4.99,6.57,3.04,25.35-53.86.79-9.87-41.12,4.99-33.11-.26-4.73-7.09-9.72-.79-49.14c20.24,1.05,19.71-6.31,19.71-6.31,0,0,3.94-12.09-19.71-15.77s-26.01,2.1-26.01,2.1l-.79,6.57c1.05,9.46,21.81,12.88,21.81,12.88l.53,49.92-7.36,7.88,7.36,39.41-8.95,40.72-26.83.79,13.02,8.48-19.67,9.59-41.23.23s9.84-28.66,12.11-33.89c2.27-5.23-2.73-9.78-2.73-9.78,0,0-18.2-14.1-25.25-19.79s-22.29-10.01-22.29-10.01l-17.28-68.46,10.01-55.49-11.83-15.01.45-22.29h.01l744.13.17ZM277.61,210.64c.19-1.42-3.34-3.06-7.87-3.67-4.53-.6-8.36.05-8.55,1.47s3.34,3.06,7.87,3.67c4.53.6,8.36-.05,8.55-1.47ZM352.76,168.14c-.27,2.16,3.42,4.41,8.24,5.01,4.82.6,8.95-.65,9.22-2.81.27-2.16-3.42-4.4-8.24-5.01-4.82-.6-8.95.65-9.22,2.81ZM415.76,205.36c-4.14-.52-7.69.59-7.93,2.48-.24,1.89,2.92,3.85,7.06,4.37,4.14.52,7.69-.59,7.93-2.48s-2.92-3.85-7.06-4.37ZM530.25,99.17c.05-3.05-5.12-5.61-11.54-5.72-6.43-.11-11.68,2.28-11.73,5.33-.05,3.05,5.12,5.61,11.54,5.72,6.43.11,11.68-2.28,11.73-5.33ZM554.4,170.58c.03-2.18-3.75-4.02-8.44-4.1s-8.53,1.63-8.57,3.81c-.03,2.18,3.74,4.02,8.44,4.1,4.69.08,8.53-1.63,8.57-3.81ZM561.98,205.85c-3.8-.48-7.05.43-7.25,2.04-.2,1.61,2.72,3.3,6.52,3.78,3.8.48,7.05-.43,7.25-2.04.2-1.61-2.72-3.3-6.52-3.78ZM719.04,208.56c-.2-1.6-3.45-2.52-7.25-2.04-3.81.48-6.72,2.18-6.52,3.78s3.45,2.52,7.25,2.04c3.81-.48,6.72-2.17,6.52-3.78ZM744.38,170.96c-.04-2.18-3.87-3.89-8.57-3.81-4.7.08-8.48,1.92-8.44,4.1s3.87,3.89,8.57,3.81,8.48-1.92,8.44-4.1ZM792.59,100.32c-.05-3.05-5.31-5.44-11.73-5.33-6.43.11-11.59,2.67-11.54,5.72.05,3.05,5.31,5.44,11.73,5.33,6.43-.1,11.59-2.67,11.54-5.72Z"/>
</svg>