<?xml version="1.0" encoding="UTF-8"?>
<svg id="Layer_1" xmlns="http://www.w3.org/2000/svg" version="1.1" viewBox="0 0 1280 720">
  <!-- Generator: Adobe Illustrator 30.0.0, SVG Export Plug-In . SVG Version: 2.1.1 Build 123)  -->
  <defs>
    <style>
      .st0 {
        fill: #e2d02b;
      }
    </style>
  </defs>
  <path class="st0" d="M267.07,215.14l26.83-.79-2.56,5.72c-5.13,0-11.25,3.55-11.25,3.55l-13.02-8.48h0ZM320.34,214.74l1.98,7.3,9.07,1.58,9.27,6.12,32.87-.5,1.86-10.55-1.18-4.74-53.87.79ZM906.53-1.11l-120.75,150.94h-5.72l-27.63,35.91,1.98,2.37-24.07,30.38-27.63,5.53-169.48-1.39-6.9-8.48-143.44-.39-.79,4.34,2.22,11.36,131-.22,8.2,7.56,181.79,1.16,36.32-6.88,28.67-28.68.58-6.18,22.15-24.72,6.72-.39L964.28-1.33l-57.75.22Z"/>
</svg>