<?xml version="1.0" encoding="UTF-8"?>
<svg id="Layer_1" xmlns="http://www.w3.org/2000/svg" version="1.1" viewBox="0 0 1280 720">
  <!-- Generator: Adobe Illustrator 30.0.0, SVG Export Plug-In . SVG Version: 2.1.1 Build 123)  -->
  <defs>
    <style>
      .st0 {
        fill: #ef7373;
      }
    </style>
  </defs>
  <path class="st0" d="M354.91,430.37l169.24,1.08-.41,7.32-274.84,221.09-7.93.91-252.71-1.13-.39-153,.02.05,213.25-49.69,4.34,7.46,1.76,3.39v4.61l-3.39,14.24,1.22,2.44s10.31.54,17.22-.14c6.91-.68,12.07-1.9,11.39-5.97s-3.93-14.78-3.93-14.78l1.36-11.12,2.03-7.87,1.22-1.9,5.15,3.93,2.17,2.17,6.37,1.22,2.03,1.9-.14,14.37s-14.65,2.98-13.02,7.59,13.56,1.49,13.56,1.49l-.41,6.37s5.02,1.49,14.24,1.08c9.22-.41,21.16-1.22,22.1-9.36.94-8.14-.81-31.87-.81-31.87,0,0,16-7.59,18.44-13.02l8.41-2.44,29.43-.14-2.58,10.71.14,19.8,12.07,1.76-25.09,11.66,106.86.81,41.77-26.31-2.71-.81h-81.5l-36.07,14.1-.81-5.15.14-9.76,3.53-.81,1.76-4.75-1.9-4.34-2.31-1.36-.27-5.83ZM1291.38,690.29l-79.85-39.5-10.62,1.7-11.04-6.37.42-94.29-8.92-3.4s-1.27,8.92-5.1,8.92-10.19.42-10.19.42c0,0-.42,12.32-4.67,13.17s-36.95,1.27-43.32-9.77l-.85-34.4-181.79-61.59s-11.57,8.37-22.7,7.84c-11.13-.53-16.61-2.12-16.61-2.12,0,0-12.55-8.83-21.38-22.62l-3,.35-23.85-.53s-5.12-.53-6.01-3.71l-93.29,1.41-8.3-5.12-2.83-.53-9.54-7.07-.88-1.59-6.36-5.48.18-1.59,1.41-1.59h4.42l3-2.47,44.88-.18.35-4.95v-4.77l-4.42-2.47-9.36,1.94-26.15-.18-2.12-1.24-208.32.35-8.66,4.95v5.3h186.41l.18,7.24,45.41,36.04,10.42-.53,342.78,260.44,182.17.71,8.12-32.75-.02.03Z"/>
</svg>