<?xml version="1.0" encoding="UTF-8"?>
<svg id="Layer_2" xmlns="http://www.w3.org/2000/svg" version="1.1" viewBox="0 0 1280 720">
  <!-- Generator: Adobe Illustrator 30.0.0, SVG Export Plug-In . SVG Version: 2.1.1 Build 123)  -->
  <defs>
    <style>
      .st0 {
        fill: #e877cb;
      }
    </style>
  </defs>
  <path class="st0" d="M1132.22,428.92l.73,23.77-1.63,11.25-1.45.36-161.31-34.29,2.18-317.35L1135.3-2.56l60.45-6.2.06,29.9-186.74,109.98v270.47l113.53,12.27-5.62,4.35-4.54-3.45s-2.9-2.54-6.53,1.45.18,6.35.18,6.35l10.16,3.81,10.16-5.44,5.44,2.72.36,5.26ZM1169.05,423.47l-1.09,2.72-.91,20.68c.18,15.97,6.71,25.95,6.71,25.95l17.78,3.45.54-55.7-23.59-2.18.54,5.08ZM679.49,268.44h15.11v119.61l-162.67-.25v-119.36h16.62s24.93-13.85,64.46-13.85,66.48,13.85,66.48,13.85ZM604.7,276.24l-53.89-.25-1.76,1.76v92.66h55.65v-94.18ZM678.23,276.24l-53.89-.25-1.76,1.76v92.66h55.65v-94.18Z"/>
</svg>