<svg width="1280" height="720" viewBox="0 0 1280 720" fill="none" xmlns="http://www.w3.org/2000/svg">
<path d="M415 235.5L307 235V0H548L547.5 85.5L544 81.5L542 78L539.5 74L536.5 71L533.5 69L534.5 73L535 77V79L532 75.5L530 72.5L527 69.5L524.5 68L525 70.5L525.5 73.5L526 76L525.5 78L527 81.5V82.5L525.5 88.5L525 91.5L526.5 97.5L528.5 102L533 108.5V110L535 112.5L536.5 116L528 112L523.5 108L515 101L515.5 106.5L517 110.5L518.5 115L520.5 118L524.5 123L520.5 122.5L515 123.5L512 123L507.5 122H504.5H499L495.5 123H497.5L500 122.5L502.5 123L505 124L507.5 125.5L509 126.5L513.5 127.5L515.5 129.5L517.5 132.5L521 134.5L522.5 135.5L518.5 137L516.5 134.5L514.5 133L512 132L510.5 130.5L509.5 128.5L507 128H504L495 129L493 128L488.5 127L484.5 127.5L479 128L474.5 129.5L478 128.5H480L482.5 129.5L485 130.5L488.5 132.5L491 134.5L495 136L498 137.5L500 139.5L496 140L502 143.5L508 147.5L514 152.5L520 154.5L524.5 155.5L531 163H529.5L523 162.5L533.5 166L536.5 166.5L538.5 169.5H532L527 166.5H524.5L522.5 166L519.5 166.5L523.5 167L528 169L532.5 171L541.5 173.5L545 174L548 179H534L540 181L544.5 181.5L545 182.5L537.5 185.5H528.5L527.688 186L522.5 186.5L525 187L532.5 187.5L533.5 188.5L529.5 191.5L531.5 192V193H528.5L527.688 192H518L526.5 193L529 194L524 196.5L522 198.5H524.5L513.5 209.5H514.5L525 205.5L522.5 210.5L526 206L527 207.5L530 203L533.5 199.5L537 196L540.5 194L535.5 200L538 198L542.5 195.5L544.5 195L547.5 193.5V234.5L546.5 235.5H437.5V226H433.5L432.5 225V215.5L437 213V212L435.5 211H431.5L426 214.5L425.5 218L424 217.5H420.5L415 221V222L416.5 223H419.5V228L418.5 230H415V235.5Z" fill="#FFFF00"/>
</svg>
