<svg width="1280" height="720" viewBox="0 0 1280 720" fill="none" xmlns="http://www.w3.org/2000/svg">
<path d="M15.5 720H0V0H15.5V720ZM1280 305C1279.17 304 1274.9 302 1264.5 302C1254.1 302 1245.83 306 1243 308H1130.5V0H1280V305ZM581 0C583.333 11.3333 595.1 34 623.5 34C649.5 34 662.333 11.3333 664 0H1098.5V307.5H700.5L700 306V292.5L699.5 290.5L697 290H623.5V235.5L629 227.5L632 223.5L634.5 219.5L635 216V213L636.5 212L636 211L634.5 210V208.5L634 207L633 205L632 204.5L632.5 203H630.5L627.5 200L628 199H629L634 201V200L632 196.5V195.5L633.5 194H636L642 198L646 199.5L648 200.5L650.5 202.5L652.5 204.5L656 207L656.5 204.5V201.5L656 197.5L654.5 195L652 192.5L650 191.5L647.5 190.5L643 188.5L646.5 187L652 185.5V184.5H653L655.5 187L658.5 190.5L661 192.5L660 189L658 183.5H663.5L674.5 185.5L664 181V179.5H667.5L674 181.5L667.5 178.5L672 177.5H683.5L692 178.5L683 173.5L688 169L674.5 170.5L685.5 162L673 167.5L667.5 166L673 164H677.5L682.5 162.5L674 160H672L677.5 154L668.5 159H664V158L671 155L676 150.5L669.5 152H667L667.5 149L681.5 145.5L688 133.5L692 131.5L696 130L701 128L706 128.5L714.5 128L707 123.5L703.5 121.5H697.5L694 122L693.5 119L692 116.5V112.5L690.5 116.5V119L689 123.5L685 126L681.5 128.5L678.5 131.5L676 133.5L675.5 136L673 137L670.5 137.5L673.5 133H670.5L674 123.5L668.5 125L664.5 125.5L660 127L664 121.5L666 119L668.5 115L669.5 108.5L671 110.5L673.5 112H677.5L681.5 108.5L688 101L692 91L696 90L701 87.5L697.5 87L694 88.5L689.5 89.5L686 91L679.5 92.5L677.5 96.5L674 98L670.5 106L669.5 103L670.5 99.5L674 88.5L675 83.5L672 91L667.5 95L663 101L661 96.5V90L658 88.5L656 84.5L655.5 79L641.5 96.5L639.5 93.5L642 88L638 91L642 77.5L638 81.5L637 75L631.5 92L630.5 80L629.5 87.5L627 95.5L625.5 101V107L622.5 113.5L619 120L617.5 125L616.5 130L613 133.5V131.5L616 126.5V121.5L619.5 114.5L624 104.5V102L616 112.5L616.5 108.5L618.5 106.5L621.5 100.5L624 92.5L625.5 82.5L625 80.5V75L622.5 65.5L619.5 57.5L616.5 61L614.5 65.5L611.5 70.5L608.5 73.5L606 78L603.5 79L605 80.5V86L599 91L599.5 85V81.5L602 75L603.5 70.5L600.5 72.5L597 73.5L593.5 67L590 63L585.5 59.5L583.5 61.5V67.5L581 72L580 74.5L579 79L575.5 72L572 67L574 72.5L574.5 82L572 80L570.5 77.5L567 73.5L569.5 79V82L571 84L570.5 92.5L566 85V0H581ZM163 0C161.667 13.5 168.262 43.0049 206 46C237.5 48.5 251 18.5 250.5 0H281.5V252L283 254.5H411.5L409.5 261L409 271.5L409.5 272.5L411 273.5L413 274H415V290H301.5V289.5L304.5 283V281.5L302 280.5C298.833 280 290.1 279 280.5 279C268.5 279 246.5 279.5 243.5 283.5L244.5 286L246 290H236.5V268C236.333 264.667 234.3 257.8 227.5 257L220.5 256.5L220 254.5L219.5 251V245L220 241.5L220.5 239.5L221.5 237.5L221 226L220 224H214.5V225L213.5 226V238H214.5V239.688L215.5 241.5L216 243.5V250L215 257C211.167 256.667 203.5 259 203.5 271C203.5 283 203.167 288.667 203 290H196.5L196 244C196 240.667 193.6 233.8 184 233L183.75 224H181V218L182.5 217.5V213H184V212L183 211L182.5 203H169.5L168 204V217.5L169.5 218.5V224.5L166.5 225V233C162.5 233.667 154.4 237.2 154 246C153.6 254.8 153.625 279 153.688 290H151L150.5 210.5C151.333 207.167 153 197.2 153 184C153 170.8 151.333 162.167 150.5 159.5V0H163ZM574 200.5L575.5 202L580 208L587 215V220L582.5 221L581 222V290H432V254.5L564 254L565.5 252V200L568.5 200.5L572 200L574 200.5ZM1034 229.5V231L1035.5 233H997L994 232.5L991.5 231.5H989L987 234V235L988 237L991 238.5L994.5 239L1002 239.5H1039L1040 240H1050.5L1051 239.5H1059L1062 237V235.5L1060.5 233L1056 231V230L1050.5 221H1039L1034 229.5ZM738 103.5L737 104.5C731.5 105.5 728 110.5 728 117C728 123.5 735 128.5 740 128.5C744 128.5 745.667 127.167 746 126.5C746 127.167 747 128.5 751 128.5C755 128.5 757.333 126.5 758 125.5H763.598L764 124H1024.5C1024.67 125.333 1026.5 128 1032.5 128C1038.5 128 1041 125.333 1041.5 124H1064.5L1065.5 125.5H1070.5C1071.33 126.5 1074 128.5 1078 128.5C1083 128.5 1086 124.5 1086 120C1086 116.4 1083.67 114.167 1082.5 113.5V107.402L1081 107V0.5H1074V107L1072.5 107.5V113.5L1070.5 115H1065.5V115.5H1063L1044.89 114L1042 109V105H1040.5V0.5H1034V105L1031.69 104.5L1030 105.5L1029.5 104.5L1030 102.25L1030.5 98L1031 95L1030 93.5L1029.5 90L1028 81L1026.5 75.5L1021.5 70.5L1018 68.5L1011 67.5H1007L1006.5 66.5L1007.5 66L1010.5 65L1012.5 63.5L1015.5 60.5V57.5L1015 56L1013 54L1009.5 51.5L1007 50L1003.5 47L1005 46.5L1008 45L1010.5 43L1012.5 41L1013.5 39L1014.5 35.5V34L1013.5 31.5L1011 29.5L1008 27.5L1004.5 26.5L998.5 25.5L985.5 26.5L976.5 28L969 30L966.5 30.5L931.5 28.5L891 28L889 26.5H888L887 25.5L883.5 27L882 26H880.5L874 29L872 29.5L869.5 30L868.5 32V34L870.5 36.5L873 37.5L872 38.5L870 39L868.5 40V43.5L870 46H872.5L875 46.5L873.5 47.5V49L870.5 50H866L865 52V54.5L867 56.5L865.5 58.5V61L866 62.5L867.5 64L868.5 65.5L867 66L864.5 67L863 69L863.5 71.5L859 75L858 77L858.5 78.5L860 80.5L862 82.5L864.5 83.5L862 85.5L862.5 88.5L864.5 90L863.5 91L862 93V95L861 97.5L858.5 101.5V108.5L862.5 112.5H864.5L865.5 113.5H756V107H755V0.5H748V107H746.393L746 105.536L744 105V0.5H738V103.5Z" fill="black"/>
</svg>
