<svg width="1280" height="720" viewBox="0 0 1280 720" fill="none" xmlns="http://www.w3.org/2000/svg">
<path d="M150.5 159.5C149.7 156.7 147.833 153 147 151.5C148.2 147.1 146.833 144.875 146 144.312H121V144C121 140.8 119.333 138.667 118.5 138H112.5C111.5 139 109.5 142.6 109.5 149C109.5 155.4 111.167 158.667 112 159.5H117.5C119.1 159.5 120.5 155.167 121 153H132.5C128.5 160 125.5 172 125.5 189.5C125.5 207 129.5 228 138.5 228C145.7 228 149.5 216 150.5 210V290L149 291L147.5 293V301.5L147 304.5L74 337.5L71.5 339L70.5 341.5V366.5L72 368L74 369H83.5V542.5L84.5 544H88V546.5L84.5 549L83.5 551.5V720H15.5V0H150.5V159.5ZM307 0V235H303.5L302 234.5L301.5 233.5V0H307ZM143 153C145 155.5 149 165.4 149 185C149 195 148.2 217.2 139 224C135.5 221.5 130 214.9 130 190.5C130 166.1 135 155.5 137.5 153H143Z" fill="#FF0000"/>
</svg>
