<svg width="1280" height="720" viewBox="0 0 1280 720" fill="none" xmlns="http://www.w3.org/2000/svg">
<path d="M1103.5 310H1109V318H1102V510.5L1101.5 511.5V687L1102.19 688H993L991.5 639L992 636.5L993 635L996.5 631.5L999.5 629L1003 626L1006 624L1009 620.5L1012.5 617L1014.5 614.5L1016.5 611.5L1019 607.5L1023 600.5L1024.5 596.5L1025.5 592L1026 588.5L1027.5 586.5L1029.5 583L1030.5 579.5L1031 575V564L1030.5 558L1030 555L1029 552L1028 550L1027 548.5V545.5L1026.5 543L1025.5 541V534C1022.3 522.4 1000.5 511.833 990 508L991.5 507.5L994 506.5L995 504.5L995.5 500.5L999 363L1000 362L1002 360.5L1003 359L1003.5 354.5V351.5H1010.5L1012 351L1013.5 350V340L1012.5 335L1011.5 333.5L995.5 322.5L994 322L992 321.5L788.5 322L787 322.5L786 324L785.5 326.5V338.5L792 350L793.5 351L795.5 352L798 355.5L801 488.5L801.5 490.5C802.833 494.333 805.8 502.6 807 505C808.2 507.4 812.167 508 814 508H831C824.2 511.6 821.5 518.5 821 521.5V529L820 534L820.5 540.5C819.3 543.3 819 546.667 819 548V565.5C819 571.1 821.667 574.833 823 576C827.4 601.6 853.833 622.333 866.5 629.5L864.5 676H842.5L840 676.5L838 677.5L837 679.5L836.5 688H698.5V369L708 368.5L709 367V340.5L708.5 338.5L700.5 307.5H1098.5L1103.5 310ZM1243 308C1236.17 311.333 1222.5 323.4 1222.5 345C1222.5 372 1248.5 387 1267 387L1273.5 386.5L1277 386L1280 385V456C1278.83 451.833 1273.6 443.5 1262 443.5C1247.5 443.5 1246 456.5 1246 459.5C1246 462.5 1249 472.5 1260.5 475.5H1263L1265 474.5L1280 484V541L1278 540H1277C1273.33 540 1266 542.3 1266 551.5C1266 560.7 1275.33 563.333 1280 563.5V646.5L1189 566.5V564.5L1145.5 527L1143.5 528L1143 533V518.5L1130.5 507.5V308H1243Z" fill="#2A00FF"/>
</svg>
