<?xml version="1.0" encoding="UTF-8"?>
<svg id="Layer_1" xmlns="http://www.w3.org/2000/svg" version="1.1" viewBox="0 0 1280 720">
  <!-- Generator: Adobe Illustrator 29.7.1, SVG Export Plug-In . SVG Version: 2.1.1 Build 8)  -->
  <defs>
    <style>
      .st0 {
        fill: #4ef9cc;
      }
    </style>
  </defs>
  <g id="Layer_2">
    <path class="st0" d="M568.59,100.47l1.84,357.67,53.52.04,2.61-9.09c.42-5.54,3.55-9.09,3.55-9.09,5.64-10.65,11.28-11.8,11.28-11.8l-2.19-4.7s3.55-2.09,9.82-4.7c6.27-2.61,18.8-1.36,18.8-1.36,4.07-1.78,13.16.42,13.16.42,6.06-.42,12.74,3.76,12.74,3.76,20.68,8.56,24.13,16.08,25.28,19.43,1.15,3.34-2.92,3.86-2.92,3.86l-2.19.84,1.15,1.46,1.04,11.38,9.28-.33-2.04-358.81-154.72,1.01h-.01ZM605.32,353.91h-9.75l-.23-17h9.98v17ZM606.68,328.74l-.23-104.29,83.43.68.23,104.06-83.43-.45h0ZM772.79,39.36l1.43,498.53h214.63l-9.44-56.16c-5.22-24.1-5.96-44.48-5.96-44.48,1.99-7.45,8.45-3.48,8.45-3.48l15.41,8.7,2.98.25,3.98,1.99,144.62-.25-2.73-27.09c-.99-7.45,6.46-7.95,6.46-7.95l90.95.75c13.17,2.98,22.12,35.29,22.12,35.29l16.65.75,2.82-412.69-512.35,5.86-.02-.02ZM955.31,497.39v-26.34h16.65l.5,26.09-17.15.25ZM1044.03,341.84l-204.51.87.44-128.91,3.93-4.81,200.14-.44v133.28h0ZM1064.57,309.51l-.44-138.96,5.24-1.75,106.19-.87.44,140.71-111.43.87ZM1195.73,368.54h-15.49l.25-26.49h14.74l2,.75.25,24.24-1.75,1.5ZM-6.03-5.12l3.5,172.61,294.09-2.18,8.3,4.81,1.75,220.67-10.49,3.5-293.65,1.31,1.31,41.95,33.65.87,25.34-5.68,61.61-.44-.48,3.34,6.21-1.67,65.39-.24,1.67,4.3h105.96l.24,26.73,52.27-12.89s.24-8.11,2.63-9.55c0,0-.95-16.47,7.64-21.72l12.41,5.97,16.47,3.1,9.07-.24,10.74-1.67,4.77.72,8.59-.95,12.41-2.86,11.22-1.43s5.49-4.06,8.11-3.1.24,7.4.24,7.4c0,0,.72,5.25-2.15,9.55,0,0,41.05-.95,49.64,11.93s-3.1,50.12-4.3,67.06c-1.19,16.94-2.86,24.58-2.86,24.58l28.6.85-1.7-545.62L-6.03-5.12ZM469.25,369.29l-17.18.24-.24-25.3,1.67-1.43,14.8.24,1.19,1.67-.24,24.58h0ZM253.98,459.98l39.14-13.84v19.81l-14.8,4.3-17.18,6.21-7.4,5.97.24-22.43v-.02ZM132.75,460.94l115.99-.48v26.49l-4.77,10.74-2.86,9.31-.48,4.53-15.27-1.19.48-36.75-7.16,1.67v-2.39l-9.78,3.1-.72-3.1-9.07,3.58-1.67-1.91-2.86-.24-21.24,7.64-.48-7.16-16.47.72-.24,17.66-21.72-.24-1.43,2.86-.24-34.84h0ZM126.78,461.18l.95,39.77-16.47.09-26.73,9.55,3.82-6.44-.24-8.59-5.97-8.11-14.08-.95v-25.54l58.71.24v-.02ZM62.1,460.94l.24,26.25-16.47,2.15-14.32,5.01-5.01,8.11H-1.86l1.19-41.77,62.77.24h0ZM1078.29,506.09l79.25,33.2-69.61-.36-9.64-32.84ZM758.4,175.41l.29,281.99-6.44-.29-1.46-272.04,7.61-9.66h0ZM541.6,183.59l3.97,5.67v238.6h-3.68l-.28-244.27h0Z"/>
  </g>
</svg>