<?xml version="1.0" encoding="UTF-8"?>
<svg id="Layer_1" xmlns="http://www.w3.org/2000/svg" version="1.1" viewBox="0 0 1280 720">
  <!-- Generator: Adobe Illustrator 29.6.1, SVG Export Plug-In . SVG Version: 2.1.1 Build 9)  -->
  <defs>
    <style>
      .st0 {
        fill: #2da1d3;
      }
    </style>
  </defs>
  <g id="Layer_2">
    <path class="st0" d="M84.47,65.31L-7.82,15.91-2,108.32l70.61,27.03v518.42l15.27-9.22,1-230.05h22.05l.18,2.65,7.94-.18.53-4.59,1.59-.35-7.41-24.69,3.88-2.12,4.76,20.46-3-20.28,3.17-.88.88,22.93,1.23-1.59-.18-20.81h2.12l-.35,17.64,1.41-1.59,1.23-15.17,2.29-.18-1.76,13.4c3.53-2.65,6.53,1.59,8.99,2.47,2.47.88,4.06,5.82,4.06,5.82l25.93-1.23v-250.57l-79.94-35.75v-54.59h-.01ZM135.85,226.33c.25,14.81,6.78,17.82,6.78,17.82l-.5,112.19c-6.02,5.77-6.78,17.57-6.78,17.57l-50.95,1.51-.5-163.15,51.96,14.06h-.01ZM311.29,76.35l-1.3,61.09L100.72-2.94h116.34l94.24,79.29h0Z"/>
  </g>
</svg>