<?xml version="1.0" encoding="UTF-8"?>
<svg id="Layer_2" xmlns="http://www.w3.org/2000/svg" version="1.1" viewBox="0 0 1280 720">
  <!-- Generator: Adobe Illustrator 29.6.1, SVG Export Plug-In . SVG Version: 2.1.1 Build 9)  -->
  <defs>
    <style>
      .st0 {
        fill: #aaea44;
      }
    </style>
  </defs>
  <path class="st0" d="M655.31,20.66c0-3.19-7.05-5.78-15.74-5.78s-15.74,2.59-15.74,5.78c0,2.14,3.18,4.01,7.89,5.01.21,1.8,3.43,3.24,7.45,3.33v47.36h-327.88L217.05-2.94l1042.48-1.3-133.88,80.59h-485.68V29c4.02-.09,7.23-1.53,7.45-3.34,4.71-1,7.89-2.86,7.89-5.01ZM650.67,139.96c2.53-.07,5.4-.19,8.41-.38.01-.95.03-1.84.04-2.7h-8.48c0,.99.02,2,.03,3.07ZM599.31,136.99c.88.18,1.82.36,2.86.54,0-.19,0-.36-.01-.54h-2.84ZM668.54,138.77c2.46-.28,4.86-.62,7.11-1.04,0-.3.01-.58.02-.87h-7.1c0,.62-.02,1.25-.03,1.91ZM679.63,136.86h-2.95c0,.23,0,.45-.01.68,1.04-.21,2.02-.44,2.96-.68ZM309.99,137.45L100.72-2.94-7.82-8.14V15.91l92.29,49.39v54.59l79.94,35.75,424.8.8c-.38-9-.44-16.21-.44-19.44l-278.77.44ZM640.69,140.07c.15,0,.3,0,.45,0,0,0,3.47.04,8.54-.09-.01-1.01-.02-2.05-.04-3.09h-8.96v3.17ZM660.08,139.52c2.45-.16,4.97-.37,7.46-.64.01-.7.02-1.36.03-2.01h-7.45c-.01.85-.02,1.72-.04,2.65ZM629.15,139.82c2.89.1,5.98.18,9.3.23v-3.12h-9.27c-.01.98-.02,1.94-.03,2.89ZM610.27,136.97h-7.1c0,.25.01.48.02.72,2.05.33,4.41.63,7.1.91,0-.57-.02-1.11-.02-1.63ZM618.72,136.96h-7.45c0,.57.02,1.15.02,1.75,2.25.22,4.73.42,7.46.6-.01-.82-.02-1.6-.03-2.35ZM628.04,136.94h-8.32c.01.79.02,1.59.03,2.43,2.25.14,4.66.26,7.26.37l1.02-2.8ZM659.87,151.36c1.95,1.26,3.26,3.12,3.5,5.22h3.76c.14-4.67.25-9.04.32-12.86-2.25.23-4.73.45-7.45.64-.04,2.19-.08,4.54-.13,6.99ZM629.07,150.22c1.85.6,3.4,1.65,4.47,2.97,1.04-1.77,2.82-3.06,4.91-3.43v-4.58c-1.85-.02-5.21-.07-9.35-.22-.01,1.78-.03,3.53-.03,5.25ZM619.95,150.96c1.55-.83,3.42-1.32,5.43-1.32.95,0,1.86.11,2.73.31,0-1.74.01-3.41.02-5.02-2.56-.1-5.38-.23-8.3-.42.03,2.03.07,4.19.12,6.45ZM628.17,139.78c0-.1,0-.2,0-.3l-.11.3s.07,0,.11,0ZM682.1,141.34c-.12,4.24-.3,9.49-.56,15.28h3.61c.25-7.53.22-13.35.18-16.24-.9.31-1.96.64-3.23.96ZM686.15,156.63h2.47c.33-7.82.42-14.32.45-18.04-.55.4-1.4.9-2.74,1.43.04,2.75.08,8.75-.18,16.62ZM640.69,145.18v4.54c2.14.29,3.97,1.53,5.08,3.27.99-1.15,2.38-2.07,4-2.66,0-1.77-.02-3.58-.03-5.41-2.81.11-5.82.2-9.04.26ZM1125,136.15l-434.93.69c0,3.17-.06,10.55-.45,19.79l512.72.96,81.24-30.55,1.3-63.04-159.88,72.14ZM650.72,150.03c.96-.25,1.97-.39,3.04-.39,1.88,0,3.64.43,5.12,1.17.04-2.23.08-4.36.12-6.37-2.55.17-5.31.32-8.3.45,0,1.65.02,3.36.02,5.15ZM676.03,156.61h4.47c.26-5.67.45-10.82.57-15.02-1.31.31-2.81.61-4.53.91-.11,4.06-.27,8.86-.51,14.1ZM597.77,141.8c.12,4.12.3,9.14.56,14.66h4.47c-.23-5.1-.39-9.79-.5-13.78-1.6-.26-3.12-.56-4.53-.88ZM593.5,140.6c-.04,2.93-.06,8.58.18,15.85h3.61c-.25-5.62-.43-10.73-.55-14.89-1.18-.3-2.27-.62-3.24-.96ZM592.5,140.21c-1.13-.47-2.06-.98-2.73-1.54.02,3.71.12,10.09.44,17.77h2.47c-.25-7.58-.22-13.41-.17-16.23ZM603.32,142.84c.12,3.95.28,8.58.51,13.63h6.87c-.14-4.62-.25-8.94-.32-12.73-2.43-.25-4.81-.55-7.06-.89ZM668.13,156.59h6.86c.24-5.16.4-9.9.52-13.92-2.05.33-4.39.65-7.06.94-.07,3.85-.18,8.25-.32,12.97ZM611.38,143.84c.07,3.77.17,8.05.32,12.65h4.08c.25-1.94,1.43-3.67,3.19-4.91-.05-2.5-.09-4.89-.13-7.13-2.46-.16-4.97-.36-7.45-.61Z"/>
</svg>