<?xml version="1.0" encoding="UTF-8"?>
<svg id="Layer_2" xmlns="http://www.w3.org/2000/svg" version="1.1" viewBox="0 0 1280 720">
  <!-- Generator: Adobe Illustrator 29.6.1, SVG Export Plug-In . SVG Version: 2.1.1 Build 9)  -->
  <defs>
    <style>
      .st0 {
        fill: #f969c2;
      }
    </style>
  </defs>
  <path class="st0" d="M218.23,422.55l21.87.2.4,4.81-2.01,1.4.2,18.26,1.6,1-.4,5.22-1.6,1.81.38,106.79.88.37.05,6.3-.65.95-.79,18.12-2.15,2.04-9.06-.34-1.36-13.03-93.97,47.72-.49,23.62-4.14,3.16-11.2-.49-1.46-24.35-30.19-.49.73-186.49,18.75-.49,2.43-.97.73-2.68,57.46-1.46,14.12-2.19.49-3.9,36.52-2.92,2.87-1.99Z"/>
</svg>