<svg width="1280" height="720" viewBox="0 0 1280 720" fill="none" xmlns="http://www.w3.org/2000/svg">
<path d="M1240 647.5H1151.5V587.5L1240 647.5ZM228.5 0L339 71L337 72L333.5 75L330.5 79L327 82.5L323.5 87L321 92L319 96.5L318 100L316.5 105.5L316 107.5L311 115L308.5 119.5L303 128.5L310.5 132.5V133.5L309.5 136L302 151H305L309 150.5L308 152L307.5 156L307 158V160L304 164.5L308 166L308.5 165.5L311 162.5L311.5 160H312.5L313 162V163L316.5 165L323 164.5V168.5L324 171L325 170V165H326L327 169.5L326 173H329L330 174L329.5 180L333 179L332.5 175.5L333 173L334 175.5L334.5 178.5L339.5 180V185L341 186V191H345.5V184H348.5V187.5L349 197L352.5 196H355.5L356.5 202L363.5 201L364 196L367 197.5V200L370 199.5V196L371.5 192L372 188.5H374.5V192L376 195H379.5L380 181H384L387.5 177.5L394 177L398.5 172L405 171.5L409.5 169.5L408 165L412.5 161L408 153.5L409 150.5L402.5 137.5L403.5 134.5L400 123.5V115L398.5 109L611.5 244L324 243L322.5 241H305L303 264.5L301 305.5L300 373.5V454.5L301.5 538L297 544.5L295 547.5L298 469.5V467.5L299 465H283.5L273 463.5L258 462L242 459.5L227 457.5H226L217.5 464.5L172.5 464V460L171.5 458.5L169 457L165 455.5L160 454.5L155.5 454H151.5L153.5 448V445L152 441.5L149 438L145.5 435L143 434.5L146.5 433L149 431.5L150 430.5L153 426.5L154 423L154.5 420L154 417.5L153 415L151.5 412.5L149.5 410L147.5 408.5L146 408L143.5 407.5L146.5 406.5L148.5 405.5L150.5 404L152 402L153.5 399.5L155 395.5V392.5L154 389.5L153 387.5L151 385L147 382L144 381L146.5 380L148.5 379L151 377.5L153 375.5L154.5 373L155.5 370L156 368L155.5 364.5L154.5 361.5L152.5 359L150 356.5L148 355.5L145.5 354.5L145 354L147.5 353L149.5 352L152 350.5L153.5 348.5L155.5 344.5L156.5 342V339.5L156 336.5L154.5 333.5L153 331.5L151 329L148.5 327.5L171 327L182.5 326L192 325L198 324L203.5 322.5L206 321.5L207.5 320.5L208.5 319.5L209 318.5V314.5L208.5 313L208 220.5V217L207 216L205 215.5L199.5 214.5L183 213.5L160.5 212L152 211.5V208.5L151 207L150 206L148.5 205L147 204.5H145.5L144 205L141 208L140.5 209V210L141 211.5L116.5 211L97 211.5L96 210.5L94.5 212H90.5L86 212.5L84 213L83 214L82.5 218V219L73 314L72.5 315L72 316.5L72.5 318.5L73.5 320.5L75 321.5L79 323L85.5 324.5L92.5 325.5L99 326.5L112.5 327.5L138 328L136 329L133.5 331L132 332.5L131 334.5L129.5 338L129 340.5V342L129.5 344.5L131.5 348.5L134.5 351.5L136.5 353L138 353.5L140 354L138.5 355L136.5 355.5L133.5 357.5L132 359.5L131 361L129.5 363.5L128.5 369.5L129.5 372L130 373.5L131.5 376L133 378L135 379L137.5 380L139.5 381L135.5 382L134 382.5L132 384L129 388L128 390L127 395L127.5 398L129.5 402L131 404L133 405.5L135.5 407L138 408H136L134 409L132 410.5L130.5 412L127.5 416L127 418L126.5 420.5L127 424.5L127.5 427L129.5 430L131.5 432L133 433L135 434.5L133.5 435L132 436.5L130.5 437.5L129 439L127.5 441L126.5 443L126 445.5L125.5 448.5L126 451.5L127 454.5L121.5 455L117 455.5L114 456L110 458L109 459L107.5 459.5L105.5 461.5V462.5L105 463H101.5L52 498.5V516.5L54.5 517L52.5 518V640.5H0V0H228.5ZM1280 604.5L1152 520.5L1152.5 503.5L1151.5 502.5L1099 473.5H1114.5L1115 373.5L1111 371L987 369.5H986L984.5 367L983 365L981 363.5L978.5 362.5L976.5 361.5L977.5 361L980 360L982 359L983.5 358L984.5 356.5L986 354.5L987 352.5L987.5 348.5V346L987 343.5L984.5 338.5V338L998 337.5L1006 337L1014.5 336L1023.5 334.5L1032.5 332.5L1037.5 331L1041.5 329L1044 327L1045 326L1045.5 324.5V320.5L1045 319.5L1044.5 319L1039 239L1174.5 238.5L1172 0H1280V604.5ZM951 461L948.5 461.5L944.5 462.5L942 463.5L940.5 464.5L939.5 466L939 468.5V470L895.5 470.5L894.5 471L894 472V519L893 518L890 516L888 515.5H886.5L887 420L951 461ZM385.5 9L464.5 39L546 72.5L481.5 0H613.5L613 158L841.5 160.5L842 117.5L842.5 116.5L846.5 118.5V122.5L845.5 124.5L847.5 126.5L847 128.5H849.5V131L851.5 133L850.5 138L851 142L851.5 145.5L851 147.5L850.5 149H853.5L856 150L850.5 165L848 172L847.5 177.5L849.5 178.5L853 180.5L855.5 182L858.5 183L861.5 182L863 183.5L864.5 186L866.5 187.5L870 187L873 184.5L877 187L880 184.5L881.5 187H886.5L889 186L893 189.5L894.5 188.5L897 192L900 193L902 192H907.5L906 153H909.5L910 150.5H912L913 148H916V145.5H917.5L922 144.5L923.5 142L926 140L927.5 136L930 133L929 131L931.5 129.5L932.5 131L937 129L932.5 113.5L933.5 113L931.5 110L936 108.5L938 113L942 110L941.5 108.5L944 106.5L942 102L947 98L945 92.5L939 82L935 77.5L936 75L934.5 73L921 50.5L917.5 47.5L915 46H911.5L909 45L906.5 43H904L899 44L897.5 45.5H896L897 43L895.5 40.5L893 39.5L890.5 40.5L890 43H885.5L883.5 46L877.5 50.5H875L870.5 53L870 55L865 58L863 59.5L861.5 58.5L859.5 59.5L856 60.5L847.5 82L842.5 97L843 0H995.5L997.5 212H997L979 211.5L975.5 211L973 210.5L971 211H960.5L947.5 211.5L938.5 212.5L931 213L925.5 214L917.5 215.5L912.5 217.5L911 218.5L910.5 219.5V221.5L911 224L907 312.5V316.5L906 320.5V323.5L907 324.5L908.5 325.5L912 327.5L916 329L921 330.5L927 332L935.5 333.5L946 335L954 336L960.5 337L964.5 337.5L964 338L963 339.5L961 343.5L960.5 345.5V347.5L961 350L962 352.5L963 354L964.5 356L965.5 357.5L967.5 359L970 360.5L971.5 361L970.5 361.5L969 362L967.5 363L965.5 364L964 365L962.5 366.5L961.5 368L961 369L960 371.5V376L960.5 378L961.5 380L964.5 384L966 385L968.5 386.5L970.5 387.5V388H968.5L966.5 389L964.5 390.5L963 392L961.5 394L960.5 396L887 349L883 245.5H866.5L864.5 246.5L722.5 245L334.5 0H363.5L385.5 9ZM985 393.5L982 391.5L979.5 390L976.5 388L977.5 387.5L979.5 387L981 386.5L982.5 385.5L984.5 383.5H985V393.5Z" fill="black"/>
</svg>
