<svg width="1280" height="720" viewBox="0 0 1280 720" fill="none" xmlns="http://www.w3.org/2000/svg">
<path d="M975.5 211L979 211.5L997.5 212H999L1000 211.5H1004.5L1006.5 212H1012L1017 213L1021.5 214L1027 215L1031 216L1035.5 218L1037 219.5L1038 221V228.5L1039 239L1044.5 319L1045 319.5L1045.5 320.5V324.5L1045 326L1044 327L1041.5 329L1037.5 331L1032.5 332.5L1023.5 334.5L1014.5 336L1006 337L998.5 337.5H997.5L984.5 338H974.5L968 337.5H964.5L960.5 337L954 336L946 335L935.5 333.5L927 332L921 330.5L916 329L912 327.5L908.5 325.5L907 324.5L906 323.5V320.5L907 316.5V312.5L911 224L910.5 221.5V219.5L911 218.5L912.5 217.5L917.5 215.5L931 213L938.5 212.5L947.5 211.5L960 211H971L973 210.5L975.5 211ZM148.5 205L150 206L151 207L152 208.5V211.5L199.5 214.5L205 215.5L207 216L208 217L208.5 313L209 314.5V318.5L208.5 319.5L207.5 320.5L206 321.5L203.5 322.5L198 324L192 325L182.5 326L171 327L148.5 327.5L146.5 328.5H141.5L139.5 328H138L112.5 327.5L99 326.5L85.5 324.5L79 323L75 321.5L73.5 320.5L72.5 318.5L72 316.5L72.5 315L73 314L82.5 219V218L83 214L84 213L86 212.5L90.5 212H94.5L96 210.5L97 211.5L115 211H117L141 211.5L140.5 210V209L141 208L144 205L145.5 204.5H147L148.5 205Z" fill="#6AFF00"/>
</svg>
