<svg width="1280" height="720" viewBox="0 0 1280 720" fill="none" xmlns="http://www.w3.org/2000/svg">
<path d="M105.5 477.5L106 478L110 480L114 481L117.5 481.5L121.5 482H136.5L144 481.5L152 480.5L157.5 479.5L160.5 479L164 478L167 477L169.5 476L171 475L172 474L172.5 464L217.5 464.5L205 474L204.5 475.5L203.5 477L203 477.5L201 478L200 479L201.5 480L200.5 481L199.5 483.5V485.5L200 488.5L201 490V490.5L200.5 491.5L199.5 492L200 493L201.5 494L272.5 496.5L276.5 496L277 495.5V494.5L297 474L298 467.5L295 547.5L294 549.5L291 553.5L289.5 554.5L286.5 557L283 560.5L280 564L278 566.5L277 569L276 573L274.5 580.5L272 586L270 588L267 590.5L264.5 592L261.5 593.5L258.5 595.5L256 597.5L253 600L248.5 604.5L246 608.5L243.5 611.5L241.5 614L239.5 618L237.5 623L235.5 626.5L234.5 630.5L232.5 634.5L230.5 639.5L230 642.5L229.5 644.5L228.5 647.5L226 653.5L224.5 657.5L223.5 659L222 660L221 660.5L219.5 661.5L217.5 662.5L216 663.5L213.5 665L208 670.5L207 672L204.5 677L203.5 681L203 681.5L202 683L201 685.5L199.5 687L197.5 688.5L195 691L193 692.5L189.5 696L186.5 700L90.5 699L85.5 719.5H56V699L58 698.5L55.5 698L53.5 698.5L52.5 697.194V681L53.5 679.5L53 678L52.5 518L54.5 517L52 516.5V498.5L101.5 463H105L105.5 462.5V477.5ZM939.5 479.5V480.5L940.5 481.5L943 483L945.5 484L952.5 486L955 486.5L960.5 487.5L967 488.5L974 489H985.5L992 488.5L1000 487.5L1003 486.5L1006 485L1006.5 472L1007 471.5L1099 473.5L1151.5 502.5L1152.5 503.5L1152 520.5L1150.5 521.5L1152 522.5L1151.5 587.5L1151 681.5V683L1150 683.5L1151 684.5V700.5L1150.5 702H1149.5L1148 702.5L1148.5 703L1149.5 719.5H1125.5L1122.5 703L1041 704.5L1039.5 700.5L1038.5 698.5L1038 695L1036.5 691.5L1035.5 689L1033.5 686.5L1032.5 684L1029.5 679.5L1026.5 675.5L1024.5 673L1019.5 668.5L1016 666L1011.5 663L1006.5 661L1002.5 660L998.5 657.5L996 655.5L991.5 653.5L988 650L989 646L990 644L989 642.5L986.5 641.5L985 641L981.5 636L981 634.5L978 632L976 628.5L973.5 624L971.5 619L969.5 616L965.5 613.5L962 612L958 605L957 602.5L955 598.5L953 597L950 594.5L947.5 593L945.5 587L943 583.5L942 580L941 577L939.5 573.5L938.5 569L937.5 565L935.5 561.5L930.5 553.5L928 552.5L924.5 552L922.5 550L921 547L920.5 543.5L919.5 541V538.5L918.5 536.5L917 535.5L914.5 535L910.5 532L906 529.5L903 527.5L899.5 524.5L898 523.5L896.5 522L895.5 520.5L894 519V472L894.5 471L895.5 470.5L939 470L939.5 479.5Z" fill="#FF0000"/>
</svg>
