<svg width="1280" height="720" viewBox="0 0 1280 720" fill="none" xmlns="http://www.w3.org/2000/svg">
<path d="M746 710.5L745.5 720H584L741 689.5H743L746 710.5ZM1279 411.5V446.5L801 433C800.2 423.4 796.333 420.667 794.5 420.5H781V408L833.5 406L835.5 407L838.5 408L841 407L842 405L851 404.5L1279 411.5ZM812.5 400L781 401L786 0H816L812.5 400ZM366.5 48L262.5 68.5L261.5 282H257L256 277.5H254.5L251.5 281H251L249.75 279L249 280.5V281.5L242.5 281L241.5 279L240.5 277.5H238L239.5 275L240 272.688V269L239 268H238L240.5 27L242 25.5L245 24.5L357.5 0H367L366.5 48Z" fill="#84FF00"/>
</svg>
