<svg width="1280" height="720" viewBox="0 0 1280 720" fill="none" xmlns="http://www.w3.org/2000/svg">
<path d="M741 689.5L584 720H575L577 398L578 397V396.5L606.5 397.5V407H592V417L599 417.5H606V427H577V441L578 441.5C578.5 444.333 579.5 451.1 579.5 455.5C579.5 459.9 577.833 464.667 577 466.5L576.5 484.5H585.5L586 489H588.5L602.5 488.5L603 487V484H605V519.5L610.5 521H616L618.5 519.5L624.5 90.5L617 88L610 89.5V96L475 68.5V59L474 57.5L466.5 56L459 58V97.5L444 99L444.5 110L450.5 111.5L452 111L458.5 110L458 207.5L462 212.5L464.5 218.5L465 226L461.5 233.5L465 234L461 233.5L464.5 225L464 218.5L460.5 211.5L456.5 205.5L450.5 199.5L442.5 193.5L438 191L440.5 194.188V198.5L441 204.5L442.5 210.5L445.5 217L445 220L440.188 219.5H435.5L439.5 221.5L441.5 224.5L437.5 222.5L440 225.5L441.5 229.5V235L439.5 233.5L435 231.5L433 230L439.5 225.5L434 225L428.5 225.5L423.5 220L420.5 216.5L418 215.5L417 210L412 212.5H410.5L408 214L406 215.5H403.5L401 212L397.5 210L393.5 208L391.5 206L387.812 203.5H383.5L381 204.5H384.5L387 206L392.5 209L396.5 214.5L398.5 219L397 222.5L389.5 223L385 220.5L381 219.5L374 221V214.5L376 209.5L381 203.5L392.5 196L404 192.5H396L374 201.5L371 206.5V212.5L373.5 215.5V221.5L371 223L365.845 222.531L367 0H752.5L741 689.5ZM606 440L605.5 470.5H603.188V469L605 468.5V465.5L603.188 465V461.5H605V459H603.188V440H606ZM586 440.5V470H582C583 468 585 462.4 585 456C585 449.6 583.667 443 583 440.5H586ZM494.466 386.471L493.97 386.465L492.75 385.041L494.466 386.471ZM471.5 386L490.56 386.423L469.089 386.159L471 386L472 385.5L471.5 386ZM456.5 385.995V386L456.591 386.005L454.207 385.976L456.5 385.995ZM396 381L396.948 385.271L393.5 385.229V379.5L396 381ZM373.5 375.5L380.5 381L387.5 383.5H391L393.155 385.224L334.308 384.5H357.5L358.5 377.5L364.5 371L367.5 366.5L373.5 375.5ZM607 354V384.5L484 382L484.823 382.588L483.5 382.5L480.5 380L476.5 377L478 372.5L481 371.5L484.5 373.5L487 374.5L486.5 377.5L488.5 382H491L489.5 375.5H491.5L498 372.5L500.5 375.5L502 377.5L501 373L498 362.5V358L495 355L490.5 352.5L493.979 348.522L607 354ZM365.5 289L344.5 288V295L346 297.5L346.5 300.5H342.5L340.5 301.5L343 305.5L340.5 308.75L339 300.5L340.5 298L343.5 294V288L327 287L324.5 291.5L325 298L328 299.5V301.5L325 303.5L324.5 306L322.5 303L321 298L317.5 296L315.5 292L314 290.5L311 291.5L310.5 288L307.5 290.5L306.5 287L302 286L300 287L299.5 285H297.5L294.5 287L291.75 284.5H286.5L283.5 290L291.75 289L296 290.5L296.5 296L299 296.5L299.5 300.5L301 307L306.5 308.75V315L308.5 318L314 319.5L316.5 324L314 325.5L313 324.5L311 325L309 321.5L306.5 321L304 322.5L302 319.5L299.5 320L296 321.5L291.5 317.5L288.5 322.5L284.5 322L279.5 318.5L277.5 321.5H276L272 320L267 323.5L266.5 328.5L269 329.5L271.5 328H269L268.5 325.5L273 322L275.812 324L278.5 328L281 325L283 325.5L285 324L288 325.5L289 323L291.75 322L295.5 325L297 322.5L298 323.5L300 322L302.5 325L304 323.5H307.5L308.5 326L313 326.5L315 331.5H313L312 333V346L313 362.5L313.988 384.249L171.846 382.5H179.5L178.964 380.5L175.5 380V329.5L202 326.5L202.5 327.5H213L213.5 325H218.5V316.5L206 316L159.5 321.5V380H156V382.305L131.23 382H137.5V380L131 379.5V361.5L129.5 361L91 360.5V365.5L120 366V379.5H114V381.787L50 381L48 268L365.5 289ZM490.25 382.949L487.926 382.795L488 382.5L490.25 382.949ZM201.5 363L201 381H195V382.5H217.5V381H217L211.5 380.5L211 369L211.5 368L235 368.5L236 368V363.5L234 363H201.5ZM474 379.5V381.5H472.5L472.597 374.958L476 373.5L474 379.5ZM366 343V348.5L366.5 350L369.5 353L369 355V357.5L366 356.5L365 358L364.5 361L365.5 362.5L366 364.5V366L363.5 369.5L359 374.5L359.5 366L360.5 352L361.5 340L366 343ZM483.643 348L484.5 349.5L487 353.5L488.5 357L489.5 358.5L487 362.5L484.5 367L482 369L483 370.5L485 368.5L488.5 362.5L490.5 360.5H492.5L495 362.5H496.5L498 366V369L496.5 371.5L494 373.5L491.5 374.5L485.5 372.5L483.5 371.5L480.5 369V367L479.5 362.5L479 358.5L477.5 355L475.5 352L474 349.5L473 348.5L472.991 348.549L473 348H483.643ZM474 352.5L476 355.5L477 357.5L478 360.5L478.5 362.5V365L476.5 363L478.5 366.5L477.5 368.5L476.5 372L472.634 372.482L472.942 351.795L474 352.5ZM392 366.5L390 362.5L388 357L384.5 352.5L380 349L376 348L378.5 338.5V335.5L382 338.5L388.5 344L386.5 338.5L385.5 334L392.5 333L392 366.5ZM371.5 341V350L370 352L367 348.5V343.5L371 344.5L367.5 342.5V341.5L368.5 340L371.5 341ZM377.5 340L375 347.5L374.5 348.5L375 338.5L376 336.5L377.5 336V340ZM496.5 344.5L495.5 345.833L496.957 343.242L496.5 344.5ZM494 302.5L495 303L500 310L506.5 316.5L500.721 303.015L607.5 310.5V341.5L498.398 335.521L496.5 326.5L493 323.5L495 322.5L494 318.5H487L484.5 317.5L485.5 309L490.5 311L499.5 321.5L498 316L494 309L490.5 303.5L487.5 302L483.5 303.5V307.5L476.5 312.5L474.5 311.3V310.5L472.5 305.5V300.5L494 302.5ZM484.5 325L483.5 328L483 333L482.751 334.488L471.5 334L471.546 332.979L475 331.5L477.5 330L480.5 326L482.5 323L484.5 325ZM482 320L479.5 323.5L477.5 327L471.617 331.411L471.665 330.351L476.5 326L480.5 320L482 318.5V320ZM483 316L480.5 317.5L479 320L476.5 323.5L471.784 327.743L472.478 312.5H473.667L475 313.5L479 312.5L483.5 309L483 316ZM379 308V309.5L377.5 312L377 314L375.5 314.5L373.5 316L374 318L369.5 317.5L371 313V309L376.5 306.5L379 308ZM378.5 290L379.5 292L380.5 295.5L379.5 298L378.5 300L379 304L375.5 303.5L366.5 303L367.5 299L369 296.5L372 295.5L375.5 295L379.5 296.5V295L376.5 293.5L373 291L375.5 289L378.5 290ZM608 239.5L607.5 297.5L492.5 289L492.308 289.191L487 283L480.5 278.5L477.5 274.5H480.5L487 279.5L485.5 272.5L479.5 269.5L471.5 268L464.5 263.5L475.5 265L480.5 266H489L484 262.5L487 258L492 256.5H503L515.5 258L500.5 247.5L492 246L488 247L484 242L481.5 237L477.5 233.5L479 241L479.5 251.5L474 247L473.5 245L472.25 242.5L473.5 244.5L473 224L608 239.5ZM372 227.5L376 230L377.5 232.5L379.5 233.5L380 231L383.5 227.5L385 230L387.5 233.5L386 234L383.5 230.5L385.5 237L389 240.5L390.5 243.5H389L380 234.5L371 232L365.793 232.473L365.812 228.896L370 227.5H372ZM468.5 237L469.75 238.75L468.166 236.714L468.5 237ZM609 196.5V226.5L473.5 210V176.5L609 196.5ZM609.5 153V183L473.5 162.5V129.5L609.5 153ZM610 109.5V125.5L596 128V137L475 116V82.5L610 109.5Z" fill="black"/>
</svg>
