<svg width="1280" height="720" viewBox="0 0 1280 720" fill="none" xmlns="http://www.w3.org/2000/svg">
<path d="M762 720H753L751.5 688.5L753 680.5L754 648L755.5 616.5L756 590.5L758 546.5L758.5 521.5H763.5L762 720ZM746 547.5V632L747.5 698L747 703L746 711L743 689.5H741L743.5 521.5H745.5L746 547.5ZM753 554.5L752 573.5L751.5 589L751 569.5V551.5L750.5 522L753.5 521.5L753 554.5ZM1280 559L1248 556L1247 548L1246 545.5L1264.5 536.5L1275.5 529.5L1280 526V559ZM1280 446.5V488L1274.5 486H1268.5L1245.5 494L1242.5 493H1238.5L1235 494L1234 489.5L1233.5 485.5V483L1231 477.5L1226 474L1221 472H1216.5L1213 474.5L1208 482L1204.5 488.5L1202.5 497L1202 503.5V508.5L1203.5 514L1202.5 516.5V520L1205.5 525L1213 533L1211 541.5L1209.5 540L1204.5 531L1197 519L1191.5 511.5L1182.5 501.5L1175.5 495.5L1174 493L1170 492L1159 488L1163.5 492L1163 494L1158 499L1149 494L1144.5 493L1144 496L1141.5 502L1141 508V514L1136.5 518L1131 526L1125 538L1117.5 525L1106 511.5L1093 500L1090.5 498H1092L1089.5 484.5L1085.5 474L1077.5 464L1070 467L1061.5 472L1054 483L1052.5 486L1044.5 489H1049L1050 491L1048.5 495L1046 508V517H1042L1037.5 520L1034 522.5H1028.5L1025.5 525L1023.5 527L1022 531.5L1021.5 535L1023.5 539.5L988 538L928 535C892.167 533.667 812.6 532.7 781 539.5L781.5 444.5L782 441.5H787L789 454.5L793.5 453.5L799.5 452L803.5 450L802 433L1280 446.5ZM1176.5 516L1186 537L1179 541V537.5L1178.5 528L1176 519.5L1173 514.5L1172.5 512L1176.5 516ZM746 446L745 511.5H744L745 445L746 446ZM756 459.5L754 511.5H753L754 458L756 459.5ZM764 440.5V510.5L758.5 511L761 458.5L761.5 457.5V441.5L763 440.5V439L764 440.5ZM781 401L764 402.5L765 420.5H761.5V414.5H755.5V401H748.5L745.5 402.5L752 0H786L781 401ZM357.5 0L245 24.5L242 25.5L240.5 27L238 268L236 268.5L234 271L233 274V277L231.5 279.5L229.5 278.5L228 280L229 0H357.5Z" fill="#FF0000"/>
</svg>
