<svg width="1280" height="720" viewBox="0 0 1280 720" fill="none" xmlns="http://www.w3.org/2000/svg">
<path d="M1053.5 677L1012 679.5L1030 691L1056 707L1075 720H1040L991.5 687L987.5 685H986L983 684L963.5 720H943.5L951 707L957.5 695L964.5 682.5L968.5 676.5L967.5 675.5L966.5 676L876.5 653.5L876 655.5L876.5 657L877 659.5L876.5 664L874.5 668.5L874 670H872.5L871.5 669.5L868.5 668.5V666H866L863.5 665L861 664L861.5 666.5H860L857.5 665L856 662.5L855.5 658V654L856 648.5L857 646L858 645.5L858.5 634L859 632L860 631.5L861 632L865 633L895.5 640.5L927.5 648L962.5 656V655L949 635.5V636.5L948.5 638.5L948 640L947 641.5L946 642.5L945 643.5L943 644L940 644.5L938 644L936 643.5L934.5 642.5L932.5 640.5L932 639L931 638.5L930.5 636.5L930 635L929 634.5L926 632L925.5 631L923 627.5V625L924 622.5L925 621L926.5 619L928.5 618L931 617H933L936 617.5L937 617V605.5L937.5 604.5L938.5 603.5L939.5 603L941 603.5L942.5 604.5L944 606L945.5 608L949 613.5L952.5 618L959 627.5L964 633.5L969.5 642L972.5 646.5V581L973 579L973.5 578L974.5 577.5H976V559.5H975L974 558.5L971.5 556.5L969 554.5L967 552.5L964.5 550L963.5 547.5L962.5 546L961 542L959.5 538L958.5 534.5L957.5 528L957 525L956.5 505.5L956 493.5L955.5 485.5L955 481L954 475.5L953.5 473.5L951.5 465L950 459.5L949.5 459H946L945.5 460V460.5L946.5 462.5L947.5 464.5L948 466.5L947.5 468L946.5 469H945.5L944 468L942.5 466.5L941.5 465L940 461.5L933 441L931.5 437.5L931 435.5L931.5 434.5L932 433.5L933.5 433L935 433.5L936.5 435.5L937.5 437.5L938.5 441L940 442.5L941.5 444H944.5L943 441L942.5 439L940.5 434L938.5 428.5L935 421.5L932 416.5L928.5 411.5L926 408.5L922 405L918 402L913.5 399.5L909.5 397.5L902.5 394.5L895.5 391.5L889 389L885.5 388L885 389.5L885.5 391.5L883.5 393L882.5 394L882 396V399.5L882.5 404L884 407.5L885 409.5L885.5 411H886.5L887.5 413L888.5 415.5L889.5 419L891 425.5L892.5 433L893 438V439.5H892.5L892 438.5L891 435.5V443L892 446.5L893 453L894 456L895 459L894 477.5L894.5 483L896 485.5L897.5 487.5L899.5 489.5L902.5 491.5L905.5 492.5H908.5L914 492L919 491.5L923 491L921.5 492L918.5 493L916.5 494.5L914.5 495.5L912.5 497.5L911.5 500H909L905.5 499.5L901.5 498.5L899 497.5L897 496.5L895 495L893 493L891.5 491.5L890.5 490L889 488L888 485.5L887.5 484L887 482L886.5 477.5V475V469.5V464.5L887.5 454L888 442L887.5 435L887 430.5L886 424.5L884 415.5L883 412L880.5 403.5L877 390V388.5V386L877.5 383L878.5 381.5L879.5 380.5L880.5 380L882 379.5H883.5L886 380L889.5 381L893.5 382L898 383.5L904 386L909.5 388L911 388.5L913 389.5L917 391.5L919.5 393L922.5 394.5L926.5 397L928.5 398.5L931.5 401L934 404L937 407.5L939 409.5L939.5 410.5L941 412.5L943 415.5L943.5 416.5L945.5 420.5L947 424L949.5 429L953 437L958 450.5L961 460L962.5 468L963.5 471L965 478L966 485.5L966.5 493.5L967 506L968 525.5L968.5 532.5L969 537L969.5 539.5L970.5 542.5L972 545L973.5 547L976 549.5L978 551.5L982 553.5L985.5 554H990H1001.5L1083 552L1093 550.5L1099 548.5L1102.5 546.5L1103.5 544.5V542L1102.5 539.5L1095.5 533L1110 543.5L1112.5 546L1114 548.5L1114.5 550.5L1114 552.5L1113 554L1111 556L1107 559L1104 560L1096 562L1087 563H1086.5L1055.5 564H1044.5L1011 563.5L991.5 564H989V580.5H990L991.5 582L992.5 583V585.5L992 660L1078.5 656.5H1081.5L1083.5 657.5L1085 659L1086 661.5L1087 665L1086.5 673V678.5L1087 691L1086.5 692V694C1086.5 700.4 1079.5 701.667 1076 701.5H1074L1070.5 700.5L1068 699L1063.5 695L1059 688L1052.5 678.5L1053.5 677Z" fill="#EEFF00"/>
</svg>
