<svg width="1280" height="720" viewBox="0 0 1280 720" fill="none" xmlns="http://www.w3.org/2000/svg">
<path d="M156.5 332L153 0H0V498.5L12 499L23 501L25.5 502H28L30 500.5L33 496.5L36 493.5L40 490.5L42 487.5L44.5 484.5L46 482L49 481L58.5 480L67.5 478.5L74 477L98 474L106 473.5L112.5 474L115 474.5H117L119 474L120 473L121.5 472.5L123 471.5L124 469.5L124.5 462L127 461L129.5 460.5H132L134.5 461H135.5L137 459.5L138 460H140L142 459L143.5 458L146 457.5L147 457L148 456.5L150 456H152.5L153.5 455.5L156.5 372V332Z" fill="#FFA600"/>
</svg>
