<svg width="1280" height="720" viewBox="0 0 1280 720" fill="none" xmlns="http://www.w3.org/2000/svg">
<path d="M1244 720H1209L1053.5 610L1054 592.5L1244 720ZM89 634.5L86.5 638L83.5 641L82 643L80.5 647L82 648L85 649L81 652.5L82 654V658L0 713V690L95.5 628.5L89 634.5ZM1043 585.5L1042.5 602.5L989 564L1011 563.5L1043 585.5ZM200.5 579L195.5 582.5V579.5L196.5 578L198 577.5L200.5 579ZM203.5 576.5L202.5 575H206L203.5 576.5ZM214 570L210 567L210.5 565.5H213L215 564.5L211 564L208.5 563.5L206.5 561.5L207 559L241 537H263.5L214 570ZM911 503.5L911.5 505.5L912.5 508L914 510.5L919.5 516L917 525.5H909L909.5 500H911.5L911 503.5ZM216 52V53L217 55H218L231.5 77V78L234 82.5H234.5L249 105.5V107.5L251 108.5L263.5 129L264 131L265 132L277.5 151.5V152.5L295 180H920L926.5 169.5L938 169L928 185V186L922 192L292 193L166 0H183L216 52ZM999 69L998 67.5L997 65.5L993.5 64.5L990.5 65L987 65.5L1001 42.5L1016 42L999 69Z" fill="#00DDFF"/>
</svg>
