<svg width="1280" height="720" viewBox="0 0 1280 720" fill="none" xmlns="http://www.w3.org/2000/svg">
<path d="M93.5 603.5L95.5 604.5L92.5 607.5L95 608.5L91.5 613L96.5 612L91.5 616.5H95.5V617.5L99.5 613L95.5 620L99.5 615.5V617.5L105 613L101 620L105.5 616L109.5 612L108.5 616.5V618.5L105 623.5L101 625L96.5 627L95.5 628.5L64 648.5L0 690V682L11 675L13.5 675.5L16 673.5L17 628.5L20.5 628L25.5 627L31 625.5L45 619.5L50 617.5L55 614.5L60.5 611L68.5 605.5L82.5 597L93.5 589.5V603.5ZM161 393L164 401L164.5 411L168 419.5L170.5 427L173.5 433.5L175 437.5V439L173 441L171.5 442L170 444L169 445L168 447L167.5 449.5V450.5L166.5 452.5L166 454L167 455.5L164.5 457.5L158.5 462.5L156.5 464.5L156 466V471L155.5 476V481.5L156 487.5L156.5 490L157.5 492.5L158.5 494L159 495.5L158 497L156.5 499L152 511L151 514.5L150 517.5L149 521.5L148.5 525V530L148 532.5L146 531.5V535L143.5 534H142L141 535.5L140 536.5H138L137 537.5L136.5 538.5H133.5L132.5 540.5L129.5 541L127 543L124.5 544.5L121.5 547L118.5 549L116.5 551L111 552.5L109 554L108.5 555.5L114.5 557.5H110.5L110 558.5L110.5 559.5L111 560L107 562L103.5 563.5L102 564.5L101.5 566L95.5 568.5L93.5 570L93 587L61 608L50.5 615L46 617L39.5 620L34 622.5L28 624.5L22.5 625.5L18 626H16.5V553.5L19 540L20 537.5L22 535.5L23 533.5L22 529.5L21 526L20 524H18.5L16.5 524.5L15 524L0 529.5V498.5L12 499L23 501L25.5 502H28L30 500.5L33 496.5L36 493.5L40 490.5L42 487.5L44.5 484.5L46 482L49 481L58.5 480L67.5 478.5L74 477L81.5 476L91 475L98 474L106 473.5L112.5 474L115 474.5H116.743L119 474L120 473L121.5 472.5L123 471.5L124 469.5L124.5 462L127 461L129.5 460.5H132L134.5 461H135.5L137 459.5L138 460H140L142 459L143.5 458L146 457.5L148 456.5L150 456H152.5L153.287 455.5L155.5 382L161 393ZM241.5 537L206.5 559V556L200 551L204.5 553L206 553.5L205.5 552L202.5 550L199 548.5L198 547L200.5 547.5L202.5 548L204 547L203 545.5L202.5 543.5L200 542.5L197 542L194.5 541V536.5L241.5 537ZM292 193L291.5 318.5H291L288.5 319.5H284.5L282.5 320H276.5L275 319.5H273L269 320L266.5 319H258L254 318.5L249.5 317.5L245 317L239 317.5L236.5 316L233 316.5L231.5 318L229.5 321L229 323.5V328H227L225.5 329.5L223 329L220 330L216.5 331H214.5L215 326L216.5 320L217.5 312L218 306.5L220 298.5L221 295L222.5 290.5L224 284L225 280V275L225.517 272.017L227 273.5L228.5 274.5L230.5 274L234.5 272L241.5 267L243.5 265.5L246 263.5L248 261.5L250 258.5L253 255L255 251.5L257 247L258.5 241.5L259 236.5V230L258.5 225L257 220L255 215L252.5 211L250 207.5L247.5 206L245.5 205.5L242.5 205L238 204H232.5L231 203.5L228 201.5L224 200L219 199L216 198.5L212.5 198L209.5 198.5L208 199.5L205.5 201.5L204 203.5L203 205.5L201.5 209L201 211.5L200.5 213.5L200 218.5L200.5 223.5L201.5 228.5L203.5 236L206.5 244L208 247V247.5L207.5 249L208 250.5L210.5 251L211 252.5L214 257.5L217 261.5L219.5 264.5L222.5 268.5L224.5 270.5L224 271.5L223.5 278.5L223 282.5L222.5 285.5L221.5 289.5L219.5 295.5L218 301L217 305.5L216 314.5L215 321L214 325.5L213.5 331H207.5L198 330L192 329.5L187 328L185 326.5H182.5L181.5 327.5L181 332L180.5 332.5L174.5 333.5H165.5L161 332.5L157.5 332L156.5 333L153 0H166L292 193Z" fill="#FF0000"/>
</svg>
