<svg width="1280" height="720" viewBox="0 0 1280 720" fill="none" xmlns="http://www.w3.org/2000/svg">
<path d="M1239 531L1244 535.5L1246 538L1247 540.5L1259 720H1244L1054 592.5L1055.5 564L1087 563L1096 562L1104 560L1107 559L1111 556L1113 554L1114 552.5L1114.5 550.5L1114 548.5L1112.5 546L1110 543.5L1103.5 538.5L1095.5 533L1090.5 528L1086 524.5L1081 521L1071.5 515.5L1064 511.5L1059 509L1061.5 466.5L1239 531ZM1044.5 564L1043 585.5L1011 563.5L1044.5 564ZM964 431L965 430.5L1049.5 462L1047.5 503.5L1041 500.5L1036.5 498.5L1032 497L1027.5 495L1022.5 493.5L1018 492L1013.5 491L1008.5 489.5L1004.5 488.5L1000 488L995 487L990 486.5L984 485.5L975.5 485L966 485.5L965 478L963.5 471L962.5 468V462L962 459L959.5 451.5L957.5 444.5L956.5 442L959.5 430L964 431ZM1252.5 382.5L1253.5 383L1254 383.5V387.5L1254.5 391L1256.5 395L1259 397.5L1261.5 399L1264 400L1266 401L1267 402L1266.5 402.5L1246 399.5V394H1249V390.5L1246 388.5H1244L1242 387.5L1239.5 388.5L1237.5 387H1234.5L1233.5 385.5L1230.5 387L1229 385L1186 378.5L1183.5 379.5V383L1178 381L1175.5 380L1164 377.5L1160 377L1161.5 375.5L1163.5 371.5L1165 371L1252.5 382.5ZM1280 379.5V390C1280 391 1278.9 393 1274.5 393C1270.1 393 1269 388.667 1269 386.5C1269.8 381.3 1274.67 379.333 1277 379H1278.5L1280 379.5ZM1280 306L1163.5 305C1144.7 305 1136.33 314.833 1134.5 320L1133 323L1132 325.5L1125 347C1123.5 350.5 1120.5 358.3 1120.5 361.5C1120.5 364.7 1125.17 365.833 1127.5 366L1132 366.5L1132.5 367.5L1132 371V373.5L1131.78 374L1130 373L1129 374.5L1127.5 373H1125.5L1124.5 374L1122 373L1120.5 373.5L1118 372.5L1117 373.5L1114 372.5L1112.5 373.5L1111.5 373H1103L1102.5 370L1103 354.5L1101.5 353.5H1078L1076.5 354.5L1075 353L1073.5 353.5L1072.5 354.5H1070L1069 355L1072 289.5L1074.5 289L1075 287L1074.5 285.5L1073 283L1074 282L1074.5 280.5L1075 283.5H1079V275.5L1076.5 275C1083.33 273.167 1097 266.4 1097 254C1097 238.5 1079 233 1070 233C1061 233 1039.17 241.5 1040.5 257.5C1041.7 271.9 1057.67 275.833 1065.5 276L1068 276.5L1065.5 277V282.5H1067.5L1068 283L1064.5 356.5L1058 357L1057 357.5L1056.5 358L1056 359L1055.87 362.5L1055 363V349.5H1054L1053.5 349L1038.5 346.5L1038 347L1036.5 347.5V355H1035V358L1036.5 358.5V367L920.5 367.5V364.5L920 363.5V362H921.5L924.5 361.5L926.5 361L927 360.5L928.5 361L933 361.5L936 362L940.5 362.5L941.5 361.5V360L942.5 359L942 358L942.5 357L941.5 354.5L942.5 351.5V346L943.5 340.5L944 331.5L943 324.5L942 322L940 318L939 315.5L936.5 308.5L935 304.5L933.5 301L931.5 296L926.5 282L924.5 276.5L924 275V265L925.5 264.5V263L925 261L924 259L921.5 256.5L922 223V222.5L922.5 222L923 221V220L922.5 219.5L922 217.5V215.221L922.5 214.5L923 213V211L922 210L923 209L923.5 208L924 206.5L924.5 206H927.5L930.5 207.5L932 207L933 206V204.5L932 204L929 205L924 204.5L923 203.5L923.5 202.5L922.5 201.5L923 200L922.5 198.5L923 198L923.5 197L924 195.5L923 193.5V193H924.5L925.5 192.5L926 191.5L925.5 190.5L924.5 190L926 188.5L926.5 189.5L927 190L928 190.5L929 190L930 189L930.5 188L930 187L929 186H928V185L938 168.5H978L1280 53V306ZM1148.5 363.5C1149.83 363.333 1152.5 363.9 1152.5 367.5C1152.5 372 1148 374.5 1146.5 374.5C1145 374.5 1142.5 374 1142.5 371C1142.67 368.667 1144.1 363.9 1148.5 363.5ZM1280 349.5L1273.5 348.5L1272 347.5L1280 324V349.5ZM1268 321L1269 321.5V323L1261 347L1260 347.5L1234.5 345.5L1233.5 345L1240.5 322.5L1242.5 320.5H1244L1268 321ZM1164.5 318.5L1165 319.23V320L1158.5 338.5L1158 339.5L1157.5 340H1156.5L1140 338.5L1139 337.5V337L1144.5 322L1145.5 320.5L1147.5 318.5L1149 318H1150.5L1164.5 318.5ZM1149.5 1L1151 0H1155V1L1154.5 2V3.5L1154 6L1153.5 7H1152.5L1150.5 7.5L1149.5 9L1147 9.5L1144 11.5L1142 13.5V15H1137.5L1134.5 17L1133.5 19V24.5H1113.5L1109 25L1090 52.5H1088L1089 51L1088 50L1086 49L1066 50.5L1062.5 50L1061 50.5L1059.5 52L1055 58L1053 60.5L1051 62L1048.5 64L1047 66V73L1046.5 75L1045.5 76.5L1043.5 78.5L1040.5 80.5L1038.5 81.5L1038 72L1037 67.5L1036.5 66.5L1038.5 67L1039.5 67.5L1041 68.5L1042 67L1042.5 65L1041.5 64L1042 62V61L1039.5 63.5L1035.5 65.5V65L1037.5 64L1038.5 63L1037 62.5L1035.5 64.5L1035 63.5L1037 61H1038L1038.5 60L1037.5 59L1036 60L1035.5 61.5L1034 63.5L1033.5 61.5L1035.5 60L1035 59L1033.5 58.5L1032.5 58L1031.5 59.5L1032 60.5V61.5L1031 61H1030.5L1029.5 61.5L1030.5 62H1031L1032.5 62.5V64.5H1031L1032 65.5L1029 67L1028 66.5V65.5L1027 65L1026.5 63.5L1027 62.5H1025.5V63L1026 64V65.5H1025L1024.5 63V62.5L1024 62L1022.5 62.5L1023.5 63.5L1024 65H1023L1020 63.5L1018.5 64.5L1019 65.5H1020L1020.5 65L1022 65.5L1022.5 66L1021 67H1020.5L1019.5 67.5L1020 68.5L1022 68L1022.5 69L1023.5 68.5L1025 67.5L1026.5 67H1027.5L1028 67.5L1027.5 68L1026.5 68.5L1025.5 68L1024.5 69L1025 70L1026.5 69.5L1027.5 70H1028L1029 68.5L1030 67.5L1032 66.5L1031.5 67.5L1030 69.5L1029 70.5L1029.5 71.5H1031L1031.5 70.5V69.5L1032 68L1033.5 67L1033 68.5L1033.5 69.5L1034.5 69L1035 70L1035.5 73V82H1034.5L1033.5 83V82H1032L1031 83L1030 81.5L1028 81L1026 80L1024.5 79.5L1020 73L1010 75.5H1008.5L1007 78.5V77.5H1005.5V75.5L1005 75L1004.5 75.5L1004 78H1002L1001 79H1000.5V75L999.5 71.5L999 69L1016 42L1035.5 41.5L1038 41L1040 40L1103.5 0H1149L1149.5 1Z" fill="black"/>
</svg>
