<svg width="1280" height="720" viewBox="0 0 1280 720" fill="none" xmlns="http://www.w3.org/2000/svg">
<path d="M216 52L183 0H997L961.5 28.5V44L1001 42.5L987 65.5L981 66.5L980 69.5L979 73.5L977.5 78.5L973 80L969.5 83L967 85H966H963.5L961 86L959.5 86.5L957 89L955.5 93V95L956.5 97.5V98.5L955.5 101.5L954.5 104.5V106.5L955.5 108.5L956.5 110L955 113.5L954 116.5L951.5 117.5L948.5 120L947 121.5L946.5 124V127L945.5 128.5L944.5 130L943 129L941 128.5H939L937 128L935 129.5L934.5 130.5L932.5 131L929.5 131.5L928 134L927 136L927.5 137.5L928.5 140L930 142.5L930.5 144.5L932 146.5L912.5 156.5V169.5H926.5L920 180H295L279 154.5L277.5 152.5V151.5L265 132L264 131L263.5 129L251 108.5L249 107.5V105.5L234.5 82.5H234L231.5 78V77L218 55H217L216 53V52Z" fill="#001AFF"/>
</svg>
