<svg width="1280" height="720" viewBox="0 0 1280 720" fill="none" xmlns="http://www.w3.org/2000/svg">
<path d="M947 424L1280 546V402.5L1279.5 403L1275.5 403.5L1271 403L1268 402.5L1264 400.5L1261 399L1258 396.5L1249.5 394.5L1246 395.5V404L1244 406L1100.5 402.5L1096 400.5L1093 400L1092.5 401L1090 400.5V399H1088.5L1088 400L1078.5 397.5L1077.5 396L1066.5 392.5L1059.5 390.5L1047.5 387L1028.5 381V380L1029 373.5H1029.5L1031.5 372.5L1033 373L1034.5 372.5L1036 373L1036.5 367H902L901 367.5L900.5 368.5V371.5L901 372.5V385L904 386L906.5 387L909.5 388L913 389.5L917 391.5L919.5 393L922.5 394.5L926.5 397H961.5L966 397.5L969 398.5H1000L1006 400L1017 402.5L1016.5 433.5H1007.5H1000.5H996L995 433L993.5 432L988 429.5L985.5 428.5L983 427.5L979 425.5L975 424.5L973 423L971 422.5L974 422V421L977.5 420H980.5L978 419.5L976 418H974L973.5 417L971 416.5L970.5 417L970 416L970.5 415.5L967.5 415L967 415.5L966.5 415L966 414L965 413L960 412.5L956.5 411H949L937 407.5L938.5 409L940.5 412L943 415.5L944 417.5L945.5 420.5L947 424Z" fill="#FF00C4"/>
</svg>
