<?xml version="1.0" encoding="UTF-8"?>
<svg id="Layer_1" xmlns="http://www.w3.org/2000/svg" version="1.1" viewBox="0 0 1280 720">
  <!-- Generator: Adobe Illustrator 29.8.1, SVG Export Plug-In . SVG Version: 2.1.1 Build 2)  -->
  <defs>
    <style>
      .st0 {
        fill: #f4d84e;
      }
    </style>
  </defs>
  <path class="st0" d="M209.27,483.27h0s-96.95,27.43-96.95,27.43l.85,73.2-2.96,2.56.39,7.29,1.38.79,1.18,147.43,94.21-68.79,72.14-.59,166.66-144.25,49.95.57-1.18-48.09-285.68,2.45ZM150.26,515.51h0c-1.29-.01-2.26-.51-2.91-1.27h-1.42c-.45,0-.87-.12-1.26-.34l-.51-.39c-.31-.31-.52-.68-.64-1.1-.03-.22-.06-.44-.09-.66,0-.34.06-.67.22-.96.1-.31.27-.58.52-.8.23-.24.49-.42.8-.52.3-.16.62-.23.96-.22h1.09c.62-1.01,1.69-1.74,3.24-1.74,5.16,0,5.15,8,0,8ZM383.92,495.07c-5.16,0-5.15-8,0-8s5.15,8,0,8ZM402.67,495.07c-5.16,0-5.15-8,0-8s5.15,8,0,8ZM702.9,482.2h0s.7,47.48.7,47.48l341.51.6s.74-1.96,8.23-1.96,28.78.2,28.78.2v-46.32h-379.22ZM772.49,506.69c-5.16,0-5.15-8,0-8s5.15,8,0,8ZM852.92,496.26c-5.16,0-5.15-8,0-8s5.15,8,0,8Z"/>
</svg>