<?xml version="1.0" encoding="UTF-8"?>
<svg id="Layer_1" xmlns="http://www.w3.org/2000/svg" version="1.1" viewBox="0 0 1280 720">
  <!-- Generator: Adobe Illustrator 29.8.1, SVG Export Plug-In . SVG Version: 2.1.1 Build 2)  -->
  <defs>
    <style>
      .st0 {
        fill: #62bcef;
      }
    </style>
  </defs>
  <path class="st0" d="M943.92,348.03h-.01l-.23-162.63-1.06-12-701.2,8.79-108.27-17.74L-2.99,109.04l-.36,77.49,111.53,34.76,3.26,131.44,132.89.72,272.3-2.17-.72-88.35,176.35-1.81v87.27l251.66-.36ZM236.36,349.5c-5.16,0-5.15-8,0-8s5.15,8,0,8ZM328.33,346.6c-5.16,0-5.15-8,0-8s5.15,8,0,8ZM419.58,345.88c-5.16,0-5.15-8,0-8s5.15,8,0,8ZM436.97,346.24c-5.16,0-5.15-8,0-8s5.15,8,0,8ZM596.65,257.89c-5.16,0-5.15-8,0-8s5.15,8,0,8ZM613.67,257.52c-5.16,0-5.15-8,0-8s5.15,8,0,8ZM828.76,335.71c5.16,0,5.15,8,0,8s-5.15-8,0-8ZM811.02,334.98c5.16,0,5.15,8,0,8s-5.15-8,0-8Z"/>
</svg>