<?xml version="1.0" encoding="UTF-8"?>
<svg id="Layer_1" xmlns="http://www.w3.org/2000/svg" version="1.1" viewBox="0 0 1280 720">
  <!-- Generator: Adobe Illustrator 29.8.1, SVG Export Plug-In . SVG Version: 2.1.1 Build 2)  -->
  <defs>
    <style>
      .st0 {
        fill: #c361f2;
      }
    </style>
  </defs>
  <path class="st0" d="M1284.52,53.76l-2.51,112.29-18.37-1.75-.67-1.68-2.35,1.17-22.62,4.86-2.01-1.17-4.52.67-1.51,2.18-.34,7.2-4.86,7.04-11.73,3.02s-2.68-3.52-7.04,0c-4.36,3.52-4.19,7.04-1.84,7.88,2.35.84,6.87,1.34,10.22-2.51l3.69-1.68,4.52-2.35-1.77,69.55-1.77,44.13-4.59,93.91-2.12,72.72-100.61-19.06s4.59-31.42-2.47-54.72l-1.06-211.82-164.51,1.77-1.06-12-10.59.35v-3.18l-690.17,6.71-115.44-18.71L-3.49,105.97-10.29,18.31l147.81,78.25,102.33,23.41,928.3-10.03,116.37-56.18Z"/>
</svg>