<?xml version="1.0" encoding="UTF-8"?>
<svg id="Layer_1" xmlns="http://www.w3.org/2000/svg" version="1.1" viewBox="0 0 1280 720">
  <!-- Generator: Adobe Illustrator 29.8.1, SVG Export Plug-In . SVG Version: 2.1.1 Build 2)  -->
  <defs>
    <style>
      .st0 {
        fill: #f46083;
      }
    </style>
  </defs>
  <path class="st0" d="M1283.85-6.43L-5.61-7.1l-4.68,25.41,147.81,78.25,102.33,23.41,928.3-10.03,116.37-56.18-.67-60.19ZM278.13,91.37h0c-.73,3.23-9.85,3.91-20.36,1.53s-18.44-6.93-17.71-10.15c.73-3.23,9.85-3.91,20.36-1.53s18.44,6.93,17.71,10.15ZM532.75,92.61c-9.66,0-17.5-3.37-17.5-7.52s7.84-7.52,17.5-7.52,17.5,3.37,17.5,7.52-7.84,7.52-17.5,7.52ZM670.44,27.91c-11.74,0-21.26-5.42-21.26-12.1s9.52-12.1,21.26-12.1,21.26,5.42,21.26,12.1-9.52,12.1-21.26,12.1ZM810.86,88.99c-10.21,1.55-18.93-.12-19.48-3.72-.55-3.6,7.29-7.77,17.5-9.32,10.21-1.55,18.93.12,19.48,3.72.55,3.6-7.29,7.77-17.5,9.32ZM1090.21,85.84c-11.71,2.25-21.76,1.18-22.45-2.4s8.25-8.3,19.96-10.55,21.76-1.18,22.45,2.4-8.25,8.3-19.96,10.55Z"/>
</svg>