<?xml version="1.0" encoding="UTF-8"?>
<svg id="Layer_1" xmlns="http://www.w3.org/2000/svg" version="1.1" viewBox="0 0 1280 720">
  <!-- Generator: Adobe Illustrator 29.6.1, SVG Export Plug-In . SVG Version: 2.1.1 Build 9)  -->
  <defs>
    <style>
      .st0 {
        fill: #09d1bd;
      }
    </style>
  </defs>
  <path class="st0" d="M1240.2,171.68l-149.38-60.84-3.43,442.63,89.06-29.15,2.06-344.24,4.12-1.03,57.64,18.77-.06-26.14h-.01ZM1110.54,499.06l-5.31,2.73-4.5.16v-21.88l1.29-2.9,5.79-1.29,3.06,1.13-.32,22.04h-.01ZM1151.72,507.59l-4.18,2.09-4.34.48-.8-1.77.16-21.23,1.77-1.45,7.08-1.29.97,1.61-.64,21.55h-.02,0ZM712.98,179.36l79.34,13.95-1.93,292.72-3.08,1.28-20.75-4.83c-2.82-5.44-8.46-8.66-8.46-8.66l-8.26-3.83-11.28-4.43-1.21-2.82-3.02-1.21-.4-6.45-10.47.4.2,4.23h-11.68v-5.04l10.88-1.81.6-3.42,3.63-7.45-3.02-8.06-2.82-1.41s.6-6.04.6-16.52-9.06-14.1-9.06-14.1h23.36l-1.81-31.02-21.75-.6.4-190.94v.02h0Z"/>
</svg>