<?xml version="1.0" encoding="UTF-8"?>
<svg id="Layer_1" xmlns="http://www.w3.org/2000/svg" version="1.1" viewBox="0 0 1280 720">
  <!-- Generator: Adobe Illustrator 29.8.1, SVG Export Plug-In . SVG Version: 2.1.1 Build 2)  -->
  <defs>
    <style>
      .st0 {
        fill: #f9ec55;
      }
    </style>
  </defs>
  <path class="st0" d="M365.46,88.08l-1.81,252.19-5.89-.46-3.71,95.04-34.25-5.42-1.71,2.57,13.12,32.03-5.25,9.24v3.09l-25.84-.56.56,6.46,23.59.28v3.09l24.44,8.43-2.25,55.89-2.81-.56-1.4-3.65-3.65-.84-1.4-8.71-8.71,1.4-.28-2.81-9.27.56-1.12,6.46.84,15.73h8.99l1.97-3.37h9.55l7.3-1.4-1.12,44.1-83.98,31.74-.28-12.92-.84-9.83,2.81-12.36,3.93-157.56s4.49-21.91-18.82-27.24l-3.37-1.12-20.78.84s-4.21-.28-4.21,2.53c0,0-15.45,5.62-15.73,21.91l-1.4,48.03-49.44-1.52,8.22-291.02s7.19-12.59,15.15-14.64c0,0,35.19,1.03,40.33-25.69,0,0,1.28-14.9-49.06-34.93,0,0-41.35-15.41-64.22-8.48,0,0-15.41,5.65,3.08,28.77s32.36,29.28,32.36,29.28c0,0,13.87,12.59,15.93,24.92l-5.14,152.58-.85-.02-.18-11.34-12.42-30.68s.36-26.15-19.52-41.55l3.04-10.92s-.54-3.58-9.13-6.63c-8.59-3.05-11.46.36-11.46.36l-2.86,9.85s-28.83,0-39.93,27.4c0,0-3.04,8.24,34.74,22.02,0,0,30.62,9.31,42.62,3.22l10.39,25.07.72,4.48-.36,8.59-1.43.72-.18,9.13,6.27,1.25-1.75,128.08-21.46-.32.53-4.06-2.09-4.95-2.85-2.09-2.09-3.81-4.57-4.57h-5.33l-5.33-4.76-4.57,4.19-.57,4.38-5.14,2.85-2.47.76.19,3.81-1.14,2.28-.57,5.33-24.08.35-11.89-12.53v-2.28l-2.66-.38-4-9.33.76-3.04,1.33-30.64-1.9-13.89-6.28-12.94-.57-7.04.57-4.19-.76-8.56-6.66-3.81-12.56-.19-4.76,3.43.19,8.56.76,4.19-.57,7.04-4.57,10.47-3.24,8.18-1.14,8.37-1.52-1.9-2.47-2.85-5.71-1.33L-2.39-1.95l301.86-.7h0l65.99,90.73ZM233.04,422.69h0c-4.07,3.39-3.22,8.81-3.22,8.81l-4.74,172.66c5.42-3.39,7.28-12.19,7.28-12.19,0,0,5.08-146.6,5.42-156.08.34-9.48-4.74-13.2-4.74-13.2Z"/>
</svg>