<?xml version="1.0" encoding="UTF-8"?>
<svg id="Layer_1" xmlns="http://www.w3.org/2000/svg" version="1.1" viewBox="0 0 1280 720">
  <!-- Generator: Adobe Illustrator 29.8.1, SVG Export Plug-In . SVG Version: 2.1.1 Build 2)  -->
  <defs>
    <style>
      .st0 {
        fill: #fcc332;
      }
    </style>
  </defs>
  <path class="st0" d="M1281.89,241.98h-.03l-57.03,23.48-8.81-.42-3.77-115.32-3.35-67.09,73.38-52.84,1.26-33.13h-226.44l-71.29,85.54,2.52,367.34,5.45-1.68,1.26-7.97,8.39,3.35,11.74-5.45,7.55-1.26,6.29,3.35,2.94,5.45.42,3.77,6.29,5.87h8.39l5.87,2.52,11.32,1.26,10.9-5.03,6.71-1.68,10.06-3.77,9.64-2.94,14.68-11.32,7.13-3.77,8.39-4.19,10.9-7.55,11.32-4.61,11.74.42,7.13,2.1,5.03,6.29,7.55,2.1,2.52,5.87v7.55l.84,9.64,15.52-4.19,20.97-5.45,10.48-5.03,13.84-3.35,15.1-4.19,8.39-4.19,12.58-6.29-3.77-173.19ZM1031.1,337.58h0s-7.13-.41-7.13-.41l1.68-77.58v-45.39l58.29-41.84,5.87,1.26.42,141.32-59.13,22.64ZM1110.36,308.26v-.02s-7.98-.42-7.98-.42l-.42-149.7,33.55-22.22,46.97-35.64,7.13,1.26,6.71,174.03-85.96,32.71Z"/>
</svg>