<?xml version="1.0" encoding="UTF-8"?>
<svg id="Layer_2" xmlns="http://www.w3.org/2000/svg" version="1.1" viewBox="0 0 1280 720">
  <!-- Generator: Adobe Illustrator 29.8.1, SVG Export Plug-In . SVG Version: 2.1.1 Build 2)  -->
  <defs>
    <style>
      .st0 {
        fill: #1bdbbf;
      }
    </style>
  </defs>
  <path class="st0" d="M796.46,479.57l-1.65-1.23.21-3.29,72.74.27-8.78,7.75-.21,3.09,6.99,3.09-7.2,14.81-3.09,9.05-3.09,4.53-4.73.41-3.7,1.03-8.64-3.91-3.91,1.23-1.03,5.55v4.53l-25.92.41-4.32,2.26-3.29,5.14-.06-2.77-.35-51.94ZM1282.86,472.15l-302.58,1.29.52,10.08,4.39,1.29,1.29,173.64-36.95-21.45s-9.56-5.94-23.26,0c0,0-11.11-.52-14.47-3.88l-96.38-63.31s-6.46-6.46-7.23-10.08c-.78-3.62-6.46-11.63-14.21-11.11l.02,3.53.79,46.77.23,27.48,83.2,99.74,405.93.78-1.29-254.77Z"/>
</svg>