<?xml version="1.0" encoding="UTF-8"?>
<svg id="Layer_1" xmlns="http://www.w3.org/2000/svg" version="1.1" viewBox="0 0 1280 720">
  <!-- Generator: Adobe Illustrator 29.8.1, SVG Export Plug-In . SVG Version: 2.1.1 Build 2)  -->
  <defs>
    <style>
      .st0 {
        fill: #1bdbbf;
      }
    </style>
  </defs>
  <path class="st0" d="M207.87,579.46l-8.86,1.01.6,9.27,8.67-1.61-2.22,78.58-8.66,3.02v8.87l8.86-3.83-1.01,50.18-208.95.2,1.37-244.02,10.46-.4.16-1.35h17.58l1.25,1.53,20.35-.42-.28-2.77,12.05.28,2.77,2.77,6.92.14-2.91-2.36,26.44-.13,2.36,2.35,29.07-.83,2.22-1.11,86.2,2.5.2,10.07-11.08.21.2,8.06,8.26.2-2.02,79.59Z"/>
</svg>