<?xml version="1.0" encoding="UTF-8"?>
<svg id="Layer_1" xmlns="http://www.w3.org/2000/svg" version="1.1" viewBox="0 0 1280 720">
  <!-- Generator: Adobe Illustrator 29.8.1, SVG Export Plug-In . SVG Version: 2.1.1 Build 2)  -->
  <defs>
    <style>
      .st0 {
        fill: #92e017;
      }
    </style>
  </defs>
  <path class="st0" d="M988.32,449.55l-5.2,3.72-8.98,2.65-8.78,3.68-4.7,2.24-9.39-.81-8.57.41-5.72,2.65-1.84,5.1v7.35l-43.08-1.42-3.47.4-3.67-2.24-6.13-2.04-4.49-.41-3.88,2.24-2.65,2.25h-17.36l1.05-364.64-407.91,1.74,2.79,17.8,2.8,4.19,1.04,11.16-.35,218.09h-17.79l-.35-17.8-68.04-5.58,1.81-252.19,620.35-5.88,2.51,367.34ZM609.3,548.23l-1.57,45.98,187.06,4.72-.78-46.77-184.71-3.93ZM507.42,547.18s-1.12,5.35-9.8,16.71-35.19,13.14-35.19,13.14h-18.27l-.22,14.92,119.62,1.56-1.34-18.04.89-3.56,5.57-3.79,6.46-1.56h21.83v-18.27h0s-89.55-1.11-89.55-1.11ZM376.74,513.16l-10.65,1.42-2.13,54.67,2.6,1.42.24,9.23-3.08,1.18-.23,9.94,15.62.71.23-30.05,1.9-4.97-1.66-5.68.71-43.08,4.49-3.31,4.97-6.86-10.88-5.68-2.13,21.06Z"/>
</svg>