<?xml version="1.0" encoding="UTF-8"?>
<svg id="Layer_2" xmlns="http://www.w3.org/2000/svg" version="1.1" viewBox="0 0 1280 720">
  <!-- Generator: Adobe Illustrator 29.8.1, SVG Export Plug-In . SVG Version: 2.1.1 Build 2)  -->
  <defs>
    <style>
      .st0 {
        fill: #198edd;
      }
    </style>
  </defs>
  <path class="st0" d="M847.62,125.4l-2.39,2.05-3.07,7.17h-8.87l-1.24,82.86-110.85-.09.51-86.18-18.77,3.44-.71,82.73-239.67-.19.46-78.51-11.1-.44-1.33-8.88-4.24.87,3.84,15.35-.35,218.09,11.85,1.09.76-129.28,239.63.18-2.51,293.73-91.97-2.01-.32,9.21,189.54,4.76v-9.84l-77.48-1.69.34-57.37,113.95.66-.34,2.73,17.13-.53,1.05-364.64-3.84,14.73ZM719.8,451.98l1.29-216.31,110.68.09-3.26,217.23-108.71-1ZM519.01,527.39h78.1v9.84l-83.18-.95,5.08-2.54v-6.35Z"/>
</svg>