<svg width="1280" height="720" viewBox="0 0 1280 720" fill="none" xmlns="http://www.w3.org/2000/svg">
<path d="M330 358V359L333 360.5L339 360V361.5H348V360.5L366 359.5V376.5L369 378.5L376 378L379.5 377.5L386 377V358.5H387.5L400 365.5L400.5 384V394.5L403 395.5H405.5L412.5 394.5L412 376.5L424 376L430 378.5H434.5V405L437.5 407V413L447 411.5V367.5L499 364.5L498.5 404.5V406.5L602 396.5V363L632 360V381L631.5 388L646 391.5L652.5 391L666 395L676.5 394V379.5L833 423L903.5 414.5L913 416.5L912.5 449L832 461.5L800 451L660.5 471.5V454.5L522 472.5V490.5L343.5 515L339 510L337 499.5L330 488.5L328.5 485.5L327.5 481.5L325 485.5L323.5 484L321 485.5L321.5 483.5L318.5 484.5L319 482L320 480L317.5 484.5L316.5 482.5L316 484.5L314.5 485.5L315 484.5L316 482L313.5 484L312.5 464.5L310 465.5L309.5 464.5L310.5 463H307.5L308.5 461L307 461.5L305.5 463L305 462L305.5 460.5L307 460L306.5 459L308 457.5L304 459L303.5 457.5L302 455V457.5L303 460.5H301L301.5 463L300.5 461.5V458.5L298 453.5L299 458L296.5 454.5L299.5 460.5L298.5 461.5L298 459.5L296.5 460.5L294 457H293L295 455L293 454.5L295.5 453.5H292.81L292.5 452L290.5 451.5L292.81 444.5L289.5 450L288.5 450.5L291 445L287.5 452.5L287 450L285.5 450.5L286 449L285 448L284.5 449L283.5 446.5L282 445L283 442.5L281 439.5L282.5 439L282 435L280.5 432.5V431.5H281.5L282 432L283.5 431.5L284 430H282.5V423H281V430.5H280V428.5L279 430L280.5 427L280 426L278 426.5V424L277 426.5L275.5 427.5L277.5 423L275.5 421V422.5L273.5 425.5V423L271.5 424.5L270 423V424H269L269.5 422.5L262 416L263.5 413.5L262 414.5V412L260 413.5L261 410.5L259 412.5V410.5L256 410L254.5 409L254 410L253 408H252L251.5 410L249.5 407.5L241.5 396.5V393.5L254.5 392.5V355L316 351L330 358ZM235.5 391L200.5 359L235 356L235.5 391ZM421 373.5V374.5H412V369.5L421 373.5ZM426.5 347.5L430.5 349L434.5 350V368L429.5 367L425 365L421.5 363L420.5 362L416 360.5L412 358.766V346.5L420.5 346H422.688L426.5 347.5ZM400 355L391.5 351L389.5 349H388.5L386 348.5V347.5L400.5 347L400 355ZM198.5 354.5H196L180.5 340.5L198 339.5L198.5 354.5Z" fill="#00FF95"/>
</svg>
