<svg width="1280" height="720" viewBox="0 0 1280 720" fill="none" xmlns="http://www.w3.org/2000/svg">
<path d="M677.5 315L676.5 394L666 395L666.5 315L678.5 314L677.5 315ZM254.5 392.5L241.5 393.5L240.5 258.5H253.5L254.5 392.5ZM375.5 312L376 378L369 378.5L368.5 310L375.5 312ZM564 367.5L535 369.5V357.5L528 355.5V325L564 323V367.5ZM338.5 301L339 360L333 360.5V299L338.5 301ZM316.5 294V349L310.5 349.5V292L316.5 294ZM647 314L653.5 315.5V318H649.5L434 330V308.5L647.5 299L647 314ZM502.5 262.5L427 264V256.5L464 259H471L502.5 255.5V262.5ZM354 263L319 256.5L354 256V263ZM587 153.5V155.338L604 156V181L587 180.581V195.5L415.5 192.5V193L382.5 194.5V258.5H374L374.5 194L410 192.5L410.5 177.5L355.5 176.353L368.581 175.211L360 175V146.5L415 148.641V146L587 153.5ZM339 216L339.5 255.5L248 257L224.5 251.5L332 250.5V215.5L339 216ZM274 162.5L243.5 168.5L239 169V187H247L285 184V197.5H244.5L245 248H221L200.5 244L192 241.5V245H183.5L182.5 160L274 162.5ZM331.5 185L285 184L305 181.5H331.5V185ZM367 181.5L318.5 180.5L350.5 177.5H367V181.5ZM415.5 178L427.5 178.5L438 177L512.5 178.75L415.5 176.364V178Z" fill="black"/>
</svg>
