<svg width="1280" height="720" viewBox="0 0 1280 720" fill="none" xmlns="http://www.w3.org/2000/svg">
<path d="M183.5 245L240.5 258.5L241.5 396.5L235.5 391L234 289.5L179 266.5V246H160L159 245H176L175.5 162L182.5 160L183.5 245ZM655.5 315.5L666.5 315L666 395.5L648.5 389.5L649 318H653.5V315.5L647 314L647.5 299V265.5L644 264.5V260.5L584 261.5V195.443L587 195.5V180.577L604 181V156L587 155.5V153.5H583.5V147L656 139.5L655.5 315.5ZM388.5 310.5L434 308.5V330L368.5 310L369 378.5L366 376.5V309L333 299L338.5 301L339 360L333 360.5L330 359L329.5 298L310.5 292L316.5 294V349L310.5 349.5V327.307L306.5 325.5V292H310V287.5L388.5 310.5ZM595.5 378.5L564 367.5V323.5L595.5 322V378.5ZM385.5 315.5L386 377L379.5 377.5L379 313.5L385.5 315.5ZM347.5 304L348 359.5H342.5L342 302.5L347.5 304ZM325.5 297.5V348.5H319.5V295.5L325.5 297.5ZM582.5 197.5V261L506.5 262.5V196.5L582.5 197.5ZM410.5 177.5L410 192.5L374.5 194L374 256L365 255V255.5H340.5L340 218L365 218.5V217L332 215.5V250.5L330 249.5V247H325V196.5L308 197V184.5L331.5 185V181H341L367 181.5V177.5H350.5L356 176.5L410.5 177.5ZM354 254V255L365 254.5V253.5L354 254ZM391 254L382.5 252.5V196H391V254ZM354 251L365 252.5V250.5L354 249V251ZM290 197.5L289.5 198L290 247.5H284.5L284 197.5H285V184H290V197.5ZM360 175L242 187H239V169L243.232 168.5L360 146.5V175Z" fill="#FF0000"/>
</svg>
