<svg width="1280" height="720" viewBox="0 0 1280 720" fill="none" xmlns="http://www.w3.org/2000/svg">
<path d="M1103 540V551L1097 552L1121 560.5V561L1119 561.5V565L1031.5 592L1015.5 595L1002 598.5L995 601L992 602L988.5 602.5L969 608.5L961.5 610.5L954.5 613L948 615H945L923 621L918 622.5L913 625L899.5 627.5L881 633.5L858 639.5L853.5 641L841 644.5L829 648L811 652L793 657.5L777 663L770.5 664.5L760.5 667.5L744.5 671L729 675.5L713.5 679.5L695 685L690 686.5H683L660 693.5L642.5 698.5L634.5 701.5H629L628 703.5L624.5 704L621.5 705L619.5 705.5L616 706L609 708L600 711L594.5 711.5L590.5 713.5L585.5 714.5L578 717L573.5 717.5L572 718L569 718.5L564 720H534.5L531.5 717.5L531 716.5L522.5 708.5V700.5L521.5 699V698.5L522.5 698L539.5 693L546 699L547 700L548 699.5L1097.5 559L1086.5 555.5L1087 546L1075 543V539.5L1079 538L903.5 483.5L838 494.5L875 508V509L433.5 591.5L518 671.5L530.5 668.5L539.5 677V692.5L522 697.5L521 699L522 700.5V707.5L508.5 712L505 709L502.5 706.5L500 702.5L496.5 698.5L495.5 698L494.5 696L491 691.5L489 688.5L487.5 686L485 683L482 679L480 676H478.5L479 675L475.5 672L473.5 669L469.5 664L464 657.5L460.5 652.5L455.5 646.5L452.5 643L452 641.5L447.5 637L445 633.5L441 629.5L440.5 627.5L438.5 626L437.5 624L435.5 621.5L433.5 618.5L432 616.5L428 612L423.5 605.5L419.5 601L416.5 597.5L413.5 593.5L412 590.5L411 589.5L412 588L857 507L818.5 493.5V493L903.5 478L1103 540Z" fill="#FF6600"/>
</svg>
