<svg width="1280" height="720" viewBox="0 0 1280 720" fill="none" xmlns="http://www.w3.org/2000/svg">
<path d="M221.5 251.5H224.5L248 257L354 255.5V256L319 256.5L392 270L644 264.5L647.5 265.5L388.5 271.5L308.5 257L250 257.5L253.5 258.5H240.5L183.5 245H192L221.5 251.5ZM421 264L393 265L380.5 263L394 262.5L394.5 263L421 262V264ZM365 254.5L354 255V254L365 253.5V254.5ZM391 254V253.5L393 254V254.5L382.5 255V252.5L391 254ZM365 250.5V252.5L354 251V249L365 250.5ZM259 247L311.5 246.5V247L245 248V247H251L245.5 246V244.5L259 247ZM368.5 175.5L356 176.5L350.5 177.5L318.5 180.5L354 181.5H305L285 184L247 187H242L360 175L368.5 175.5ZM438 177L427.5 178.5L415.5 178V176L438 177Z" fill="#0400FF"/>
</svg>
