<svg width="1280" height="720" viewBox="0 0 1280 720" fill="none" xmlns="http://www.w3.org/2000/svg">
<path d="M676 391L677.5 394L678 395.5L678.5 398.5H679.5L680.5 399.5L681.5 401.5L682 404.5L682.5 408L683 410L684 413L684.768 414.5L686.5 417.5V429L686 430.5L686.5 705.5L685.5 707H678.5L677.5 700.5V660L227 661.5L225.5 670.5L224.5 679L224 686.5V701.5L218 707.5L216 708.5H210L207 418C222.2 414.8 230.667 410 233 408C241 401.2 246 399.167 247.5 399H255L259 399.5C263 394 269 390.5 277 390.5C283.4 390.5 287.333 392.5 288.5 393.5C290.5 391.5 290 391.5 298 390.5C304.4 389.7 309.333 392.833 311 394.5C311.833 393.833 314.1 392.5 316.5 392.5C318.9 392.5 320.5 393.5 321 394H666.5V390H675L676 391ZM440 431V648.5H442.5L443.5 647L446.5 648.5L448.5 650.5H451.5L453 649.5H455.5L458 648.5V431H440ZM242 430.5L243 648.5V650H244.5L247.5 648.5L249 648L260 648.5L256.5 431H250V556.5L248 559.5L245 566V430.5H242ZM303 431V463.5L298 462.5V431L293 431.5V459.5L291.5 459.902V649.5L295.5 648V649H298.5L300.5 648V649H303L305 648H306L307 649.5H309.5V431H303ZM316 431.5L317 649H320L322.5 647V649H334V431.5H316ZM341 431V649L342 648L343.5 649H345L346.5 647.5L349 649H359L358 431H341ZM365.5 431.5V649H368L369 648L370.5 649H377L379.5 647.5L380.5 649H383.5L383 431.5H365.5ZM489 648.5L491 647L491.5 647.5L494 648.5L496 649L499.5 648.5L501 647L501.5 648L504.5 647.5L507 648V606.5L505.5 611.5L502 612L497 611H494L492 608V605L491.5 599L491 595.5L493 590.5L492 580.5L495 576.5L493 521.5L492.5 501.5L491.5 494L489.5 472.5L488.5 456L489 648.5ZM266 431L267.5 648.5L271 648L272.5 646.5L274.5 645.5L278.5 647.5V648.5H280L282.5 646.5L283 648L285 648.5L284.5 431H283V457L277 456V431H273V455L271 454.464L269 452.5L267 448.5V431H266ZM389.5 431.5L390.5 648.5L393 647.5L395 645L396.5 647.5L399 646.5L400 645L402.5 646.5L404 647.5H406L408.5 648.5L408 431.5H389.5ZM415 431.5V645L417 648H420.5L424.5 647.598H427.134L429.901 646L431.5 647.598L433 648V431.5H415ZM470.5 431.5V453.5L469 448.5L467.5 440.5L466.5 437V431.5H463L464.5 648L468.5 647L471 646L472.5 648L473.5 646.5L475.5 647V648L478.5 646.5L479 648L481.5 647L482.5 648V431L470.5 431.5ZM575.5 607L574.5 604.5L572.5 606V604.5L569 608.5L567 609L566.5 607.5L563.5 609L563 610.5V648L569.5 647.5L570.5 645.5L571.5 647.5H576L577.5 645.5L579.5 647.5H581.5L581 602.5L575.5 607ZM225.5 430.5L227.5 583V592.5L222.5 601L227 606V638L230 644L236.5 647.5L235.5 580.5L232 579.5V430.5H225.5ZM525 612L522.5 614L519.5 617V613H516.5L515 612L513 608L514 647.5L516.5 646.5L518.5 647.5L520 646.5L523.5 647.5L528.5 646.5L531.5 647.5H532.5V609.5L526.5 608L525 612ZM539 609V634L538 635.5L539 639.5V647.5L540 645.5L540.5 647L541.5 646.5L542.5 647L545.5 646.5H550L556.5 647V609L555 611.5L552 610L550 612.5L549 610L547 611.5L545 610.5L542.5 609H539ZM600.5 430L600 516L596 517.5L597.5 532L598.5 532.5L597.5 537.5L596 538L597.5 540L598.5 557L599.5 559.5V564.5L598.5 567.5L597.5 569.5L595.5 571L596.5 572L604.5 583.5V593L602 594L601 597.5L600.5 599.5L597.5 601.5H594L593.5 599.5L589.5 601.5L587.5 596V646L590.5 647H595.5L598.5 646.5L599.5 647H605.5L605 430H600.5ZM615 430V517L612 518L612.5 646.5L617 646L619.5 647H630L630.5 430H615ZM636.5 430V646.5L638.5 646L640 645H654.5L655 430H651V516.5L648 517.5L646 516.5V430H636.5ZM661 430V646L663.5 644.5L664 646H667L668.5 645L670 646L672.5 645H675.5L678.5 646V634L678 607V594.5L677.5 579L675.5 572.5L674.5 566V560.5L672.5 558V553L671.5 546L670 540.5L669.5 536L666.5 524.5V522.5L664.5 521L666 430H661ZM325.5 402.5V420H337.5V402.5H325.5ZM342.5 402.5V420H356V402.5H342.5ZM361 402.5V420H374V402.5H361ZM379 402.5V420H392.5V402.5H379ZM397.5 402.5V420H410.5V402.5H397.5ZM415.5 402.5V420H429.5V402.5H415.5ZM433.5 402.5V420H447V402.5H433.5ZM452 402.5V420H465.5V402.5H452ZM470 402.5V420H483.5V402.5H470ZM273 416V419.5H277.5V415L273 416ZM283 413.5V419.5H288V412.5L283 413.5ZM293.5 410.5V419.5H297V409.5L293.5 410.5ZM302.5 408V419.5H306.232V407L302.5 408ZM311 406V419.5H314V405L311 406ZM257.5 419H268V417L257.5 419ZM579 403V415.5H587.5L589.5 416L591 418.5V419H592.5V403H579ZM597 403V419H610.5V403H597ZM615 403V419H629V403H615ZM633 403V419H646.5V403H633ZM651 403V419H664.5V403H651ZM560.5 402.5V410.5L561.5 411L564 413V415.5H574.5V402.5H560.5ZM524 402.5V406.5L526 407L528 409L528.5 410.5L538.5 410V402.5H524ZM542 402.5V410L552 409.5H557V402.5H542ZM488.5 402.5V407.5L490.5 407H493L499.5 407.5L502 408V402.5H488.5ZM506 402.5V408H509L513.5 407L520 406.5V402.5H506Z" fill="#11FF00"/>
</svg>
