<svg width="1280" height="720" viewBox="0 0 1280 720" fill="none" xmlns="http://www.w3.org/2000/svg">
<path d="M210 700.5L188 720H151L209.5 672L210 700.5ZM1280 691V720H1276.5L1190.5 668.5L1186.5 639L1280 691ZM224 687.5V686L224.5 679.5L227 661.5H252.5L224 687.5ZM1173 658L1153 645.5L1168.5 628L1173 658ZM1117.5 612.5L1116 612V598.5L1117.5 598V612.5ZM1109.5 611L1093 606.5L1109.5 601V611ZM888 602L686 603.5V584.5L891.5 582.5L888 602ZM954.5 586.5L956.5 587.5L957 601.5L901.5 602L903 593.5L930.5 579.5L954.5 586.5ZM977 593L989.5 596.5L999 599L1004.5 601L968 601.5L967.5 590.5L977 593Z" fill="#FF00E1"/>
</svg>
