<svg width="1280" height="720" viewBox="0 0 1280 720" fill="none" xmlns="http://www.w3.org/2000/svg">
<path d="M1079.5 431.5H1070L1036.5 427.5L1008.5 423L992 421.5L979 422.5L973 423L971.5 424L966.5 428.5L959 437L954.5 452.5L951.5 468L945.5 474.5L928 476H886.5V507.5H894.5L898.5 522L900 530.5L891.5 582.5L686.279 584.497L686 430.5L686.5 429V417.5L684.768 414.5L684 413L683 410L682.5 408L682 404.5L681.5 401.5L680.5 399.5L679.5 398.5H678.5L678 395.5L677.5 394L676 391L675 390H666.5V394H321C320.5 393.5 318.9 392.5 316.5 392.5V0H1080.5L1079.5 431.5ZM677.5 579L677.581 581.528L677.5 581.5V579ZM910.5 556L912 558L917 563L920 565V566L906.5 572.5V572L909 557.5L909.5 555L910.5 556ZM674.5 560.5V566L674.603 566.672L674 566.5L674.5 560.5ZM666.5 524.5L669.5 536L669.856 539.214L669 534.5L666.5 524.5ZM666 430L664.5 521L666.5 522.5L663.5 520.5L661.5 523L661 519V430H666ZM490 480.5L491.5 495L492.5 501.5L492.974 520.474L491.5 519L489 521L488.668 520.929L488.519 463.219L490 480.5ZM482.5 519.606L482 519.5H479L480 513.5V510.5L479 507.5V497L478 494L477 490.5L476 488.5L475.5 482L474.5 478V475.5L474 473V467L473 463.5L472 459L470 452L469.75 451L470.5 453.5V431.5L482.5 431V519.606ZM655 430L654.791 519.478L654.5 519.5L652 517L650.75 516.583L651 516.5V430H655ZM630.5 430L630.307 513.602L630 513.5L625.5 515.5L620 514.5L618.5 516L616.5 518.5L615 517V430H630.5ZM605 430L605.199 516.528L605 516.5L603.5 518L598.5 517L596.049 517.979L596 517.5L600 516L600.5 430H605ZM646 430V516.5L646.5 516.75L645.5 516.5L642.5 515L639.5 514.5L636.5 515.356V430H646ZM358 431L358.111 455.417L358 455.5H349.5L345 451.5L341 448.5V431H358ZM433 431.5V442.117L431.5 443L425.5 448L421 452L415 449.643V431.5H433ZM383 431.5L383.015 438.242L381.5 439L379.5 440.5H375.5L374 443L373 443.5L370.5 445L365.5 450V431.5H383ZM408 431.5L408.035 446.906L407 446.5L406.5 443.5V438.5L407 434L406.583 431.5H408ZM468.625 446.5L468 444L467.615 441.115L468.625 446.5ZM334 431.5V444.562L333 444L330.5 443L326 441.5L323.5 439.5L319.5 437.5L316.5 435.5V431.5H334ZM458 431V431.1L457.5 431L453.5 432L448.5 434L442.5 436.5L440 438V431H458ZM466.5 431.5V436.125L465 435L463.007 432.608L463 431.5H466.5ZM394.786 431.5L390.5 434.5L389.516 434.991L389.5 431.5H394.786ZM337.5 402.5V420H325.5V402.5H337.5ZM356 402.5V420H342.5V402.5H356ZM374 402.5V420H361V402.5H374ZM392.5 402.5V420H379V402.5H392.5ZM410.5 402.5V420H397.5V402.5H410.5ZM429.5 402.5V420H415.5V402.5H429.5ZM447 402.5V420H433.5V402.5H447ZM465.5 402.5V420H452V402.5H465.5ZM483.5 402.5V420H470V402.5H483.5ZM592.5 403V419H591V418.5L589.5 416L587.5 415.5H579V403H592.5ZM610.5 403V419H597V403H610.5ZM629 403V419H615V403H629ZM646.5 403V419H633V403H646.5ZM664.5 403V419H651V403H664.5ZM574.5 402.5V415.5H564V413L561.5 411L560.5 410.5V402.5H574.5ZM538.5 402.5V410L528.5 410.5L528 409L526 407L524 406.428V402.5H538.5ZM557 402.5V409.5H552L542 409.925V402.5H557ZM520 402.5V406.312L518.5 406.5L513.5 407L509 408H506V402.5H520ZM502 402.5V407.928L500.75 407.75L499.5 407.5L493 407H490.5L488.5 407.5V402.5H502ZM867.5 171L866 173L861 173.5L860.5 174.5V177.5L862 178L864.5 178.5L869 180L871 184L869.5 187.5V189.5L869 191.5L868 195L867 197L866 202L865 205L864.5 208.5L863.5 212.5L862.5 216L863 218.5L864.5 217L865 220L866.5 222L869 219.5H870.5L872 220.5V226L871.5 230.5L872 233L874.5 230.5V233.5C874.167 234.5 873.4 236.5 873 236.5C872.6 236.5 873.5 237.833 874 238.5V241L875 242.5L875.5 244.5L879 247L879.5 244.5H880.5L883 247.5L884 250.5L885 252.5L884.5 255V259.5L884 264L885 268.212V290.5L884.5 295.279V307L885 313L885.5 318.5V321.5L885 328L884.5 333.5V341L885.5 348.5L886 354L885 358.5V361.5L884 364.5L883 366L881.771 368L884 369L887.5 370L889.5 369L892 369.5H894L895.5 368L898.5 368.5L899.248 366.5L898 365.5L897.5 361L897 353V349.5L896.5 347L898 342.5L898.5 344V347L899.248 351L900 356.5V362L900.5 365.5L899.248 369H901.5L903 368.5V364.5L902 360.5L901 352.5L900 346.5L899 336V328.5L900 317.5L901 309L901.5 298.5L902 292.5L903 284L903.5 280L905 273L906.5 274L907.5 275.5L907 282.5L906.5 290L906 304V315.5L906.5 323.5L905.5 328L904.5 333V339L903.5 344.5L903 349.5L903.5 354.5L904.5 358.5L906.5 365L908 368L906.5 370H909.5V366L910.5 365.5L911.5 368L910 368.5L910.5 370H912L913 369L913.5 367.5L912.5 365L914.5 366H917L918 365L919.5 366L921 365.5H922.726L922.5 367L923.5 367.5L925 368L926.5 365.5L928 365L929 364L930 365L931 366.5L932.5 365L935 364L935.5 366L937 364.5L939 365H940.5V367.5L941.5 369.5L943 370.5L944.5 369.5V371L947 371.5L950.5 372L952 372.5L952.5 375L954 376.5L955.5 376L956.5 374L957.5 371.5L958 367.772L957.5 361.5L958 360.5L959 357V352L958 345.5L957.5 337V331.5L957 319.28V300.5L956.5 289L956 279V269.5L956.5 263V259L957.5 253L958 255L961 253.5L961.5 251L963.5 249V244.5L964.5 243.5L965.5 245L966 248L967.5 249L969 248V246L970 244L971 241.5L970 239L971.5 237.5L972 235.5L971.5 233L976.5 229L975 225.5L976.5 224L977 219.5L981.5 217.5L979.5 212.5L977.5 205L976 199.5L972.5 192.5V191.5L973 189V187.5L972.5 185.5L974.5 181L976 177.5L981.5 176L983 175.5L984 173.5L983 172H979L978.5 171.5L922.229 111.246L921.5 110.5L867.5 171ZM955.5 333V357L956 363V368.5L956.5 372L955.5 375.5H954.5V375L954 372.5L954.5 369V366L954 362.5L953 354V344.5L953.5 341.5L954 337V328.5L955.5 333ZM956 321.5L956.5 330L957 349L957.5 353.5V356L957 364.5V369.5L956.5 367V360.5L956 355V331.5L955 327.5L954.5 322L955 312.5L956 302V321.5ZM896.5 360V366L895.5 368L894.5 365.5V360L895.5 354L896.5 360ZM891.5 323.5L890.5 329.5L891.5 333.5L892 340.5L891.5 352.5V361.5L890.5 364.5L889 366.5L888.5 367.5L889 358.5V349.5L889.5 341.5L889 334V329.5L890 311.5L891.5 323.5ZM887.5 332.5V349.5L888 353L887 365.5L886 362.5V358.5L887 352L886 347L885.5 337.5L886 327L887 329L888 326.5L887.5 332.5ZM951 352.5V365L950 362.5L948.5 360.5V350L951 352.5ZM953 339L952 349L952.5 353L953.5 359.5L954 363.5L952.5 364.5V361L952 356L951 352L950 350V346.5L951.5 343L952 339V324L953 339ZM913.5 357V363.5L911.5 358.5L912.5 356.5L913.5 357ZM920 262.5L918.5 264L917.5 267.5L917 273.5V281.5L918 288V340.5L917 346.5L916.5 352L917 359L918 363L915.5 362.5V356L915 347.5V340.5L915.5 337.5V333H917V325.5L916.5 309L915.5 300.5L915 291V286L916.5 277V264L918.5 261.5L920 262.5ZM939.5 320.5L941.5 324.5L942.5 330L940.5 331.5V334H943L943.5 336L943 346.5V358.5L940.5 361.5L937.5 358.5L935.5 349V340.5L935 332.5V319.5L939.5 320.5ZM910 359.5L908.5 357L907.5 351.5L908.5 348L910 342.5V359.5ZM945.5 354.5L944.5 349.5V344.5L945.5 347L946.5 344.5L945.5 354.5ZM350.5 348H486.5L487 163H350.5V348ZM503.5 348L637 347.5L636.5 163.5H503.5V348ZM914 337L913.5 340.5L914 348L912 342V338L911.5 333V330L913.5 324.5L914 337ZM899 266L898 268.5L897.5 276V287.5L896.5 299.5L895.5 318L897 321.5L897.577 309.665L897.5 307.5L898 301L897.577 309.665L898 321.5V338.5L897 343L895.5 320.5V332L894.5 341.5L894 331.5L894.5 322L895.5 309V298.5L896.5 288L897 279.5V264.5L899 266ZM924 267.5L923.5 271.5L923 298.5V302.5L922.5 311L923 318L922 324L921.5 328V332L920.5 338L920 330.5V289L920.5 274V267.5L921.5 266H923L924 265.5V267.5ZM952 309.5V321L950.5 332V309L951 292L952 309.5ZM908.5 319.5L909.5 325L908 331.5L907.5 329V324L907 314.5L907.5 302.5L908.5 319.5ZM888 253.5L887 270.5V296.5L886.5 303L887 308L887.5 323L887 328.5L886 326L887 320.5L886.5 309L886 303V266L885.5 263L886 258.5V254L887 253L888 253.5ZM941.5 272.5L944.5 286L945.5 297.5L943 324.5L942 322.5L939 319L942.5 317L943.166 311.889L942 315L940 317.5C939 317.333 936.9 317 936.5 317V312L937 304L939 299L940.5 312L941.5 301.5L940.5 289.5L942 292.5L943.5 306.5V309.333L944 305.5L943.5 298.5L943 292.5L940.5 288.5L939 278L940 275V271.5L941.5 272.5ZM892 295L891.5 301L892 305.5L893 313.5L891.5 307L890 302.5V296.5L892 292V295ZM955 281L956 291L954.5 305.5L953 310L953.5 297L953 276.5L955 281ZM902 271V278L902.5 283L900.5 301.5L899.5 300V288L899 278.5L899.5 272L900 267.5L902 271ZM937 300.5L936 280.5V274.5L937 273V300.5ZM949 272.5L947.5 281.5V294.5L946.5 288.5L947.5 271.5L947 268L949 266.5V272.5ZM891 259L893 258V262L892 264.5V268L893 273L892 277V287.5L891.5 291L891 292.5V285.5L890 273V256.5L891 259ZM940 236L937 237V233.5L940 230V236ZM912 224.5L913 235L910.5 233V222L912 224.5ZM934.5 228.5L935 233L933.5 235V231L933 227.5L932.5 223.5L934.5 221.5V228.5ZM947 229.5L945.5 232L943 233.5L942.5 226.5L943.5 225L946 222.5L947 229.5ZM908.5 220L909.5 232L908 230.5V219L908.5 220ZM939.5 223L939 228.5L936 232L935.5 220L938 219L939.5 223ZM906 219L906.5 229L905 228V217.5L906 219ZM951 224.5L950 226V218.5L951.5 216.5L951 224.5ZM903.5 214.751V225.5L901 223V211L903.5 214.751ZM946 221L942.5 224L942 219.5V214L943 212L945.5 211L946 221ZM955.5 216.5L953.5 220V214.5L955.5 213V216.5ZM897 208V218.5L896 217V207L897 208ZM952.5 214L950 216.5L950.5 205.5L952 205L952.5 214ZM895.5 203V215.5L894.5 213L893.5 208.5L894 204L894.5 202.5L895.5 203ZM955.5 211L953.5 213L955.5 204V211ZM969 179L967.5 183L966 187.5L965 192L964.5 196L962 200.5L958 208.5V199L957.5 196L959 192.5L960 189.5L960.5 188.5L963 187L965 185.5V183.5L966 182L965 180L966 178.5H969V179ZM943.5 176.5L946 177.5L947.5 179V180.5L945.5 184.5L937.5 195.5L933 200.5L927 205L923 206L920 204.5L914.5 201L910.5 197.5L907.5 193.5L900.5 185L897 179L898.5 176L943.5 176.5ZM881 183.5L881.5 184.5L882 185L882.5 186.5L884 189.5V197L883 194L881.5 190L880.5 186L878.5 180.5L881 183.5ZM972.5 181.5L971 186.5L968.5 185.5L970 183V181L970.5 178.5H973L972.5 181.5ZM976.5 171.5H949L947.5 172L898 173L897.5 172H869L921.5 111.5L976.5 171.5Z" fill="black"/>
</svg>
