<svg width="1280" height="720" viewBox="0 0 1280 720" fill="none" xmlns="http://www.w3.org/2000/svg">
<path d="M316.5 392.5C314.1 392.5 311.833 393.833 311 394.5C309.333 392.833 304.4 389.7 298 390.5C290 391.5 290.5 391.5 288.5 393.5C287.333 392.5 283.4 390.5 277 390.5C269 390.5 263 394 259 399.5L255 399H247.5C246 399.167 241 401.2 233 408C230.667 410 222.2 414.8 207 418L209.621 671.889L209.5 672L151 720H0V0H316.5V392.5ZM227 637.5L230 644L227 638V637.5ZM230 588.5L222.5 601L227 605.5V606L222.5 601L227.5 592.5V584.333L230 588.5ZM232 430.5V579.5L227.5 583.1V583L225.5 430.5H232ZM245 430.5V565.375L244 567.5L242.634 568.865L242 430.5H245ZM256.5 431L256.858 453.303L256.5 454.5L255.5 465V473L254.5 486V527.5L252 540L254.5 547.5L252 554.5L249.333 557.5L250 556.5V431H256.5ZM298 462.5L300.5 463H298.5L291.5 460.103V459.902L293 459.5V431.5L298 431V462.5ZM284.5 431L284.56 457.231L284 457L283 456.808V431H284.5ZM277 431V455.653L273 454.884V431H277ZM271 454.464L271.477 454.591L271 454.5L270.864 454.331L271 454.464ZM303.5 446V450.5L303 452.666V443.25L303.5 446ZM267 431V448.399L266.5 447.5L266.113 447.534L266 431H267ZM316.5 431.5V435.5L316.017 435.258L316 431.5H316.5ZM309.5 431V432L308.5 431.5H303.5L303 433.25V431H309.5ZM277.5 419.5H273V416L277.5 415V419.5ZM288 419.5H283V413.5L288 412.5V419.5ZM297 419.5H293.5V410.5L297 409.5V419.5ZM306.232 419.5H302.5V408L306.232 407V419.5ZM314 419.5H311V406L314 405V419.5ZM268 419H257.5L268 417V419Z" fill="#3700FF"/>
</svg>
