<svg width="1280" height="720" viewBox="0 0 1280 720" fill="none" xmlns="http://www.w3.org/2000/svg">
<path d="M1280 691L1186.5 639L1174 558L1175 556.5L1174.5 554L1173 552.5L1172 549.5L1169.5 547L1167.5 545.5L1165 545L1167.5 540L1171 534.5L1173 532.5L1180.5 529L1187 523L1188 517L1191 506.5L1194.5 492L1196.5 480V472.5L1197 467L1196 461L1194 456.5L1191.5 452.5L1188 449L1183 445L1176.5 442L1164.5 439L1150.5 437L1103 434.5L1102.5 431L1101.5 428L1100.5 427H1099L1096 427.5L1092 430L1087 432.5L1079.5 431.5L1080.5 0H1280V691ZM1158.5 567L1164.5 601.5L1146 620.5L1136.5 617.5L1135.5 589.5L1148.5 580L1155 572.5L1158.04 566.535L1158.5 567Z" fill="#FF0000"/>
</svg>
