<?xml version="1.0" encoding="UTF-8"?>
<svg id="Layer_1" xmlns="http://www.w3.org/2000/svg" version="1.1" viewBox="0 0 1280 720">
  <!-- Generator: Adobe Illustrator 29.6.1, SVG Export Plug-In . SVG Version: 2.1.1 Build 9)  -->
  <defs>
    <style>
      .st0 {
        fill: #2af29c;
      }
    </style>
  </defs>
  <g id="Layer_2">
    <path class="st0" d="M256.89,145.4l.07-22.88,30.16.49c1.48,2.94,3.62,8.39,5.09,17.3,2.44,14.79-1.29,23.55-1.29,23.55l-1.01-8.9-2.3-5.03-3.59-4.02-4.6-1.01-4.88,2.01-1.29-2.15-3.59.86-2.87-1.58-3.02,2.3-1.72-2.3-2.15,2.15-2.59-1.44-.41.64h-.01ZM698.81,122.93l-16.95,11.2,24.13,9.91,3.73,5.6-10.77,14.79.72,2.73-19.53,11.35,1.15,1.29,49.7.57,1.01,1.72.14,128.83-2.59,1.15-178.96.29-1.58-2.87.14-127.97,1.15-1.58,45.39-.29-3.02-4.02-14.94-7.18-1.72-3.59-1.44-4.17-5.75-9.91-2.3-2.3,6.18-6.18,21.69-7.61-11.78-7.9-6.18-4.31-285.53.57h-.35c3.44,7.43,11.93,31.02-3.96,56.88l2.15,24.7.86,10.2-1.58,3.73-4.17-14.22-1.15,9.91-3.73,4.17-1.15-3.02v-6.18l-2.3,7.76-1.01-1.15-1.01-4.31-3.02,5.46-.29-6.32-2.73,4.17-1.29-2.87-3.3,4.45-2.59-.86,2.73-4.88-6.38,2.21-.93,286.86s6.09.06,5.26,7.99c-.83,7.92-.42,21.27-.42,21.27h77.57l.83-69.23,20.02-7.51h13.76l-2.59-27.72v-7.47s1.58-4.02,9.05-5.75c7.47-1.72,10.05-2.44,11.2-4.45l-30.16-1.15-1.72-2.15,7.18-42.8,4.02-.86h23.7l2.59-1.15,2.87,1.44,25.71-.43,2.15,2.44,5.46,40.93-4.02,2.73-26.57.29s-1.15,1.44,4.17,3.02,12.64,3.88,12.64,3.88c0,0,2.59.57,3.16,5.31s-2.3,33.75-2.3,33.75l35.19.14.57,3.59-.14,15.22,23.55-9.62-.14-98.82,1.58-2.01,31.6.57,2.01-3.73,14.36,3.3,58.31.43-4.31-14.36v-3.73l3.45-2.59,11.49,7.33,4.31-.57,5.75,3.3,5.46-.14,8.33,2.3,3.73.86,3.88,2.87,4.02-2.01,26.43-.86,20.4-3.3,5.6-1.15,10.77-4.74,1.58,1.72-3.3,14.36,53.14.29h6.61l11.06-2.87,4.02,3.3,28.01-.14.29,4.88-.14,90.2,18.1,6.18-.29-10.48,13.64.29.14-9.19,17.67.43.57,8.76,11.06-.29-3.02-29.87s-1.72-9.05,5.03-10.2c6.75-1.15,15.22-1.72,15.51-5.6l-26-1.01-5.03-1.72v-3.88l5.17-37.34,2.3-2.44,25.85.29,3.59-1.29,3.45,1.29h24.7l2.44,3.02,5.31,42.08-3.88,1.44-27.43-.29,1.01,2.3,16.37,4.31s4.45,1.87,3.45,12.21c-1.01,10.34-3.16,26.57-3.16,26.57l7.33-.14,18.24,8.47.14,67.79,34.76-.14-.57-385.06,2.3-2.73,183.99.43.1-17.93-450.8.55.04-.02Z"/>
  </g>
</svg>