<?xml version="1.0" encoding="UTF-8"?>
<svg id="Layer_1" xmlns="http://www.w3.org/2000/svg" version="1.1" viewBox="0 0 1280 720">
  <!-- Generator: Adobe Illustrator 29.6.1, SVG Export Plug-In . SVG Version: 2.1.1 Build 9)  -->
  <defs>
    <style>
      .st0 {
        fill: #2776f4;
      }
    </style>
  </defs>
  <g id="Layer_2">
    <path class="st0" d="M220.05,113.92l-2.83-.17.74-12.61,1.12.62.97,12.16ZM243.52,115.16l-.98,4.92.83,7.33,3.33.5-2,5.66-.83,3.5-3,3.83c-.33,7.49,5,20.98,5,20.98l-1-10.82,6.99-4.5,5.02-.47.08-23.56-13.44-7.37h0ZM226.88,114.58l4-1,3.5,2.66,5.16,3.66,1.99-5.85-20.75-11.38,1.11,10.57,5,1.33h-.01ZM250.53,215.5l-5.66-10.32-.5-8.66,2.66-10.99h-2.5l2.5-9.66-2.33.67.33-8.99c-3.83-6.16-6.49-21.15-6.49-21.15l-3.5,21.65-1.67,4-10.32.17-3.83,13.82-1.83-.5-1.33-13.49-5.5-.17-7.16-2.83-4.33-28.31-4.16-3.5c-4.16-3.5-1.33-7.99,4.33-16.32s15.32-7.49,15.32-7.49l1.29-13.44L30.62-1.59-1.01-4.63l147.24,79.1,1.83,326.73-.61,16.43,5.48.61,1.22,7.91-6.69,1.22v12.17L-2.23,470.55l-1.83,190.44,47.46-25.55,1.83-91.26c-3.04-22.51,83.35-25.55,83.35-25.55-4.87-16.43,10.95-15.82,55.37-22.51s71.79,3.65,71.79,3.65l.94-290.08-3.82,6.33-2.33-.5v-.02Z"/>
  </g>
</svg>