<?xml version="1.0" encoding="UTF-8"?>
<svg id="Layer_2" xmlns="http://www.w3.org/2000/svg" version="1.1" viewBox="0 0 1280 720">
  <!-- Generator: Adobe Illustrator 29.6.1, SVG Export Plug-In . SVG Version: 2.1.1 Build 9)  -->
  <defs>
    <style>
      .st0 {
        fill: #f95b23;
      }
    </style>
  </defs>
  <path class="st0" d="M276.97,108.27h-13.5s-8.84-5.31-8.84-5.31c1.88-1.48,4.6-2.5,8.51-2.03,8.66,1.05,12.66,5.69,13.83,7.34ZM1194.65,33.96l-3.99-.92-4.3-6.45-3.69-1.23-.31-3.69,38.08-23.03L76.45-4.43l7.68,4.91,133.31,80.12v-8.09s-8.74-.55-9.38-4.74c-.64-4.19,10.56-2.73,10.56-2.73,0,0,10.02.55,10.66,5.01s-10.11,2.64-10.11,2.64l.46,7.83,1.82,1.18v1.3l29.55,17.76c1.77-1.42,6.09-3.94,13.71-2.94,0,0-.27-2.19,2.28-2.09l-.27-5.65s-7.56-.36-9.29-5.1c-1.73-4.74,13.02-2.46,13.02-2.46,0,0,9.02,1.55,6.28,6.47,0,0-.73,2.27-8.01,1.73l.09,4.83s1.37,1.64,1.09,3.55c0,0,5.76,2.38,11.55,9.16l289.05-.2-.43-1.64s-6.77-7.09,26.12-16.77l-7.42-11.93s-2.9-11.61,48.05-21.28l8.38.64s49.34,14.19,40.95,21.28l-5.8,10.64s25.8,7.74,25.15,16.12l-.83,2.84,438.69-.31,53.74-24.57.61-43.3-1.84-2.46-1.23-3.38Z"/>
</svg>