<svg width="1280" height="720" viewBox="0 0 1280 720" fill="none" xmlns="http://www.w3.org/2000/svg">
<path d="M356 490.5V500L19 720H0V702.5L355 488.5L356 490.5ZM468 431.5L457 438V430.5L466 425.5L468 431.5ZM493.5 418L490 420.5L487.5 414.5L491.5 412.5L493.5 418ZM508 283L509.5 405H509V408.5L506.5 401.5L506 400.5H505L503 401L501 402L497.5 404L495 405.5L494 280.5L441.5 262.5V258.5L508 283ZM497.5 357H498V357.5H500V359H498V400L505.5 396.5L504.5 292L497 290L497.5 357ZM354 222.5V228H346.5L0 85.5V66.5L354 222.5Z" fill="#00E1FF"/>
</svg>
