<svg width="1280" height="720" viewBox="0 0 1280 720" fill="none" xmlns="http://www.w3.org/2000/svg">
<path d="M625.5 235V253H626.5V248.5H630.5V253H631L632.5 236H645V292.5H576.5V348.5H606.5L608.232 349.5H643L644.5 348.634V369.5L636.5 370H626.5L620.5 369.5L615 369V383.5H591V365.5H570.5V389L563.5 369.5H562.5L558 372V373.5L559 375L556.5 376V377L563 395L564 399H561L553 378H552L548.5 379.5L546 381.5V382L549 388.5L552.5 399H548L542.5 384L542 383.5L540 384L536.5 386L535 387L534.5 388V389L538 399H527L524 392.5L523.5 392L520.5 393.5L519 235H625.5ZM625.5 215H519V172.5H528V156L626 155.5L625.5 215ZM645 215H633.5L638 155.5H644.5L645 215Z" fill="black"/>
</svg>
