<svg width="1280" height="720" viewBox="0 0 1280 720" fill="none" xmlns="http://www.w3.org/2000/svg">
<path d="M801.5 10L801 85.5L829.5 56V0H846V36L876 0H893.5L846 54V182.5L894.5 152.5L895 0H918L917 137L939 123L940 0H964L963.5 106L1001 81.5L1002 0H1035.5L1034.5 57.5L1115 0H1280V352.5L1274.5 464.5L1262 465L1232 458.5L1220.5 456V454.393L1221 454.5L1239.5 0.5H1156.5L1035.5 80.5L1034.5 81L1027 412.954L1022.5 412H1018.5L999 408L994.5 407.5V407L1000.5 101.5L963.5 124L957.5 399.5H955.5L937.5 396L934.5 395.5V395L910.5 390H906.5L893.5 387.5L891 387V386.5L864.866 381.966L891.5 386.5L894.5 166L846 193.5L844.5 378.434L842 378L828.5 375.5L827.501 375.336L829 202.5L801 216L800.001 370.827L798 370.5L787 369L785.5 368.5L773 366.5H771L760.5 365L754 363.5H752L743.499 362.437L743 242L742 242.5L741.5 362L743 362.375L740 362H732V348.5H724V246H718V242.5H724V159H718V155H724V124L742 97V142.5L743 141.5V95.5L754.5 78.5V131.5L761.5 125.5V68L774 49.5V113L787 100.5V30L807 0H809L801.5 10ZM917 152.5L914 390.5L934.5 395L939 139.5L917 152.5ZM773.5 229.5L773 366.5L786 368.5L787 223L773.5 229.5ZM754.5 237.5L754 363.5L761 365L761.5 234.5L754.5 237.5ZM741.5 152.5V236.5H742L743 236V151L741.5 152.5ZM754.5 142V231L761.5 228V136L754.5 142ZM774 125L773.5 222L787 215V113L774 125ZM801 99.5V207.5L829 192.5V71L801 99.5Z" fill="#FE00D8"/>
</svg>
