<svg width="1280" height="720" viewBox="0 0 1280 720" fill="none" xmlns="http://www.w3.org/2000/svg">
<path d="M253 493L254 495L258 497.5L263 498L301.5 496.5L305 493L305.5 486V478L466.5 482L467 479.5L475 478.5L478 479.5L484.5 480.5L488.5 479.5H496L499 477.5L501.5 480.5L504 482.5L506 482L507 483L641.5 486V510L640.5 510.5V512.5L613.5 512L613 511L543 509L513 515.5L712 522L731 515.5L656 513L657 512V510.5L655 509.5V502H659L660.5 501L662.5 502.5H667.5L669.5 500L670 497.5V491L668.5 488.5L666 488V487L791 490.5L786.5 506V509.5L790 513.5L790.5 515L792.5 516L803 516.5L804.5 515.5L806 513.5V515H812.5L830 515.5L839.5 515L844.5 512.5V495.5H847V500.5L852.5 508H853.5V515L855 516L858 516.5L867 517.5L875.5 518H909.5L915.5 517.5L918 516.5L919 515.5L919.5 513.5L919 504L926 502.5V513.5L927.5 515.5L929.5 516.5H932.5V518L936 518.5L948 519L957 518.5L958.5 517.5V515L958 494.5L1047.5 496.5L1046.5 498.5L1045 501V507L1046.5 514.5L1050.5 523L1053 518.5L1054 512.5L1055 513.5L1055.5 516.5L1057 520L1058.5 521L1059 523L1060.5 525L1062.5 529L1065 532L1066 533.5L1067.5 536L1069 537.5L1071.5 541L1072.5 542.5V544L1073 545.5L1075.5 546.5L1081 548L1090 549.5L1104 550.5L1115.5 551L1142 550.5L1153 549.5L1156.5 548.5V544L1159.5 541.5L1161.5 538.5L1164.5 535.5L1166 532.5L1170 534L1173.5 536L1178 535.5L1179 537L1180.5 542L1181.5 537H1202L1205 535L1216.5 530.5L1217 526L1217.5 516.5L1219 514.5H1223L1267 611.5L1268 613.5V681L1267 681.5L901.5 659.5L897.17 657L896.5 654.5V640L897.5 637.5L985.5 549L248 522.5L0 563V526L77 529.5L225.5 508V507L170 505L167.5 505.5L171.5 503L166 488.5L157 493L161.5 505H157.5V501L154.5 498H139L138.5 492.5L137 494.5L136.5 497L134.5 497.5L128.5 497L125.5 499.5L122 498.5L112 499.5L109.5 502V504.5L105.5 505.5L109.5 494L99.5 491L94.5 506L79.5 508.5L76 499L65.5 503.5L68 510H63.5L62 509L59 508.5H55L53.5 510L52.5 508.5L43 508L42.5 502.5L41 505.5V509.5L40 508.5L37 508V501.5L35.5 498V508L31 509H26.5L24 510.5L21.5 510L16.5 510.5L14 512L12.5 514V516.5L8 517L12.5 505L1.5 501.5L0 504.5V498L185 478L185.5 482L184.5 483V495L185.5 496.5L186 498L188 498.5H198.5L200.5 497.5L201.5 495.5L202 493H205.5V497L206.5 498.5L208.5 500L211.5 501H228L240.5 500L243.5 498L245 495.5L244.5 476.5H253V493ZM387.5 489L387 491.5L387.5 494.5L391.5 496L385.5 496.5V497.5H370.5L340.5 502.5L338 503.5V508.5L338.5 509L427.5 512L435 511.5L467 505.5V501.5L466.5 499.5L431 498V497.5L430 495L426 494.5V490.5L424.5 489.5L417.5 488L387.5 489Z" fill="#00B3FF"/>
</svg>
