<svg width="1280" height="720" viewBox="0 0 1280 720" fill="none" xmlns="http://www.w3.org/2000/svg">
<path d="M1035.5 228.5L1036 229V255L1092.5 310H1098.5V296L1216 294.5L1247 251L1267 250.5V611.5L1223 515L1222.5 506L1221 502L1216.5 494.5L1211 486.5L1208 486L1200 485.5L1199.5 470L1196 459L1196.5 443.5L1195 442V428L1192.5 418.5L1194 410.5L1195 405L1195.5 399.5L1196 390L1198 385L1200 378.5L1204 370.5L1205.5 366.5L1207.5 357.5L1204 357L1205.5 352L1198.5 351V348L1200.5 342.5L1201.5 336L1203 331L1201 330.5L1201.5 326L1197 325L1196.5 322.5L1188 320.5V327L1187 333.5L1185 355L1183.5 367L1182 378.5L1181.5 367H1179.5V361L1175 362.5H1170L1169.5 364.5L1168 365L1169.5 369.5H1167L1169.5 380L1170.5 394.5L1168 396.5L1167.5 398.5L1165.5 401L1165 405L1166.5 412L1161.5 413L1159 414.5L1156.5 415.5L1154.5 417.5L1155 420.5L1155.5 424.5L1156.5 425.5L1158 428.5L1157 429L1157.5 432.5V435.5L1159 439L1160 442L1159.5 445.5L1158 449L1157.5 453.5L1158 455.5L1154.5 465.5L1153.5 469L1155 469.5V478.5L1151 475.5L1146.5 475L1145.5 474L1142.5 471.5L1138.5 471H1131.5L1130 472L1126.5 472.5L1124.5 473L1122.5 474L1119.5 476L1118 477.5L1113 477L1108 477.5L1101 479.5L1099.5 477.5L1097 475L1093.5 472.5L1088.5 471.5L1079 472.5L1073 474L1070 476L1068.5 477.5L1063.5 479L1061 482L1057.5 484.5L1055.5 488.5L1054.5 492.5L1052 493.5L1050 494.5L1047.5 496.5L958 494.5V487L955 476L953 465.5L952.5 459V450L954 448L955.5 447L956 444L955 441L953 439L950.5 438L947 437L941 436H937.5L933 437L930 439L928.5 442V444.5L929.5 446L933 448.5L932.5 449.5L932 461L931 464.5L929 462.5L926.5 460.5L922.5 459.5L916 460H913.5L911 461H893L892.5 457L894.5 454H877.5L878.5 455.5L879 458.5L878.5 462L855.5 461.5L854 460L851 459.5L847.5 460L848 461.5L846.5 463.5L844 465L846 466L848 466.5L849 467L850 469L850.5 471.5L847.5 488.5L844.5 488L844 482.5L845.5 481.5V481L844 480L841.5 479.5L837 479.194V459L836 456L834.5 453.5L832 451.5L829 450.5L828 450L826.5 445L827.5 441.5V440H817V449L816 450L812 452L810 454L808.5 457L808 460L807.5 478.5L802 479L801 479.5L795 479L794 479.5L791 490.5L666 487L665.5 472.5H663.5V487L655 486.5L654.5 482L652.5 481.5L652 441.5L772.5 443V363L984.5 362.5V351L973 349L943 348.5L946 287L891 287.5L889 322H888L887.5 320.5L885.5 319.5L885 318.5L885.5 317.5L886.5 319L888 318.5V317L886.5 313.5L884.5 312L883 314.5L881.5 316L880 316.5L879 315.5L876.5 314.5L875 312.5L874 311L875 310.5L873 311L872 309.5L870 308.5L868.5 308L865 306.5L864 305L862 306L861.5 302.5H863.5V300.5L862 299H859L857.5 303.5L855.5 304L854 308H853.5L853 306.5L852 306V304L849.5 303.5L847 304.5L845 306L842 308L841 309.5L840.5 308V306.5L841 304.5L839.5 305L837 306V304L835 306.5L837.5 307L834.5 307.5L829.5 309L828.5 310L829.5 311H831.5V313.5L830.5 315.5H828L826.5 314L823.5 315L822 317.5L822.5 320L823.5 320.5V322L825 323.5H827L825.5 325.5L822.5 325L824.5 324L823 323.5V321.5L821 322L819 321V322.5L819.5 324L821.5 325.5L818 326.5H822L822.5 328.5L820.5 327.5L819.5 328V329.5L818 332L817.5 329L815.5 331V332L817 334.5H815.5L816.5 336H821V338L819.5 339L819 341.5L820.5 341L821.5 342L822.5 342.5L823 341H821.5L823.5 338.5L822.5 337.5H826L827 338L825 339.5H823.5L824.5 340L826.5 339.5V341H824L823.5 342.5L824.5 343.5L826.5 343V344.5H828L828.5 346.5L830.5 349.5L773 350V273.5L787 277L984 272.5L985 271.5V261L973.5 253.5L932.5 254.5L934 247L933.5 243.5L929 242.5L919 242L904.5 243L904 242.5V241.5L899.5 240L898.5 234L894.5 220.5V218L886.5 216.5L876.5 218.5L877 221.5L872 236V244L865 244.5L856 243.5C856 234.3 853 230 851.5 229L850 226V222C848.4 220 836 220.167 830 220.5C826.333 220.833 819 221.7 819 222.5C819 223.3 816.667 228.833 815.5 231.5C814.333 232.833 812 237 812 243C812 249 814.667 254.833 816 257L773 259V185L527 195V424.5H526L526.5 427.5H525.5L523.5 426L522.5 427.5V429L520.5 428.5L519.5 430V431.5L522 433.5L524 435L521.5 436L520.5 435.5L515.5 434.5L516.5 437.5L514.5 438.5H505.5L504 440L501.5 440.5L499.5 441L498 442L497 445.5L498 447.5V450L499 451.5L502 452.5L505.5 452L508 450.5V451L509 453L511 453.5L502 464L496 465L498 467L499.5 466.5L502 469L506 462L508 464H509.5L511 464.5L513 465L515.5 464L517 461.5L517.5 459.5L516.5 457H518.5L520.5 459.5L519.5 456L520.5 453L522.5 452H525.5L525 450.5V450L527 450.5L528 450L529 450.5H530V448.5L530.5 446.5L529 443.5L529.5 442L530.5 443.5L529.5 439.5L533 440L534 440.5L537 441L536 440L645.5 441.5V481.5L641.5 482V486L507 483L506 482L504 482.5L501.5 480.5L499 477.5L496 479.5H489L484 480.5L478 479.5L475 478.5L469.5 479L467 479.5L466.5 482L305.5 478L304 439.5L303 437.5L301 437H275L255 438V439.5H255.5V441.5H254.5L253 476.5H244.5L244 466L243.5 451.5L240.5 451L241.5 448.5L243.5 438.5H245.5L247 435.5L247.5 430.5L248.5 424L249.5 420V418.5H235L234.5 417L233.5 415L230.5 412L227.5 409.5L224 408L219.5 407.5L215 408L212 410L210.5 411.5L208.5 414L200 413.5L194 454L186 454.5L185.5 456.5L183.5 458.5L183 461L183.5 464L184.5 465.5L186.5 467L186 467.5L185.5 470.5L185 478L0 498V305.5L109 312V316L198 315L290 321L290.5 178L287.5 177L1035.5 141V228.5ZM424 330.5L422.5 331.5H417.5L416.5 335.5L415.5 332H414L412 330.5H402L399.5 331L399 332.5L397 331.5L393.5 333L393 334.5L392.5 333L392 331L386.5 330.5H381L375.5 331V333.5L374 335.5H367V338.232L366 338.5L367 339.5L367.5 341.5L365 345.5L363 351V353L363.5 356H309.5L308.5 357V366L310 367.5H514.634L515.5 367V357L514 356.5L487 355.5L479.5 355H455.5L456.5 350L455 331.5L452.5 331H440.5L440 335.5L439.5 330.5L432 330L424 330.5ZM888.5 337.5V348.5H880L882 344L882.5 340.5L883.5 338.5L885.5 337.5L887 336.5L888.5 337.5ZM389.5 222.5C387.5 222.5 386 223.5 386 225.5C386 227.1 387.333 228.167 388 228.5V229.5H377.5L374 233L375 233.5L375.5 236C377.1 236.4 376.5 237.5 376 238C372.8 241.2 375 244 376.5 245L376 272L350.5 272.5L345.5 273L310.5 273.5L309 274.5V283L309.5 284.5L355 289.5L387 289L426.5 288L491.5 286.5H509.5L515 286.077L516 285.5V275.5L478.5 269.5H474V250L472.5 247L470 246.5L460.5 246L453.5 246.5L449.5 247V270H437.5V269.5H441.5L442.5 268.5H440.5L439.5 268L443 267.5L440.5 264.5L438 262.5L435.5 261.5L434.5 260L434 262L430 260L429.5 259H428.5L427 260L426.5 257.5L425 261V259L424 258.5H422.5V263L423 264.5V269.5L422 270L420 271.168H403.5V245C406.5 241.5 404.5 239.5 403.5 238C402.7 236.8 403.833 236.5 404.5 236.5V235L405 234L406 233.5V232.5L405 231.5L401.5 230.5L397 230L392 229.5V228.5C392.5 228.167 393.5 227.1 393.5 225.5C393.5 223.5 391.5 222.5 389.5 222.5Z" fill="black"/>
</svg>
