<svg width="1280" height="720" viewBox="0 0 1280 720" fill="none" xmlns="http://www.w3.org/2000/svg">
<path d="M773 259H764V270L765 271.5L773 273.5V350H764L763.5 351V361.5L764.5 363H772.5V443L652 441.5V417.878C652 414.419 650.9 406.3 646.5 401.5L647 206L557 210V425.5L627 426.5V436.5H635L635.5 426.5H645L645.5 441.5L536 440L535 438.5L534.5 434.5L539.5 438.5L540.5 437.5L539 437L536.5 432.5L539 432L545.5 435L545 434L540.5 430.5L539 428.5L538.5 426H540L541.5 427H542.5V429.5L544.5 432H546.5L547 430L543.5 428L545 425L544 422.5L543 422L542.5 426L539.5 424.5L537.5 424L535.5 423V420L536 418.5L533.5 418L531.5 418.5L530.5 420L530 422.5L531 425.5L530 427L529 425.5L527.734 425L527 424.5V195L773 185V259ZM667 207L666.5 426L751 427L751.5 204L667 207Z" fill="#FFFF00"/>
</svg>
