<svg width="1280" height="720" viewBox="0 0 1280 720" fill="none" xmlns="http://www.w3.org/2000/svg">
<path d="M348.5 53L454 69L558 85.5L730.995 112.384L730.5 215.5L730 216V219.5L719.5 220.5C704.3 222.1 699.834 234.167 699.5 240V244C699.333 245.667 705.2 249 730 249C754.8 249 762 245.667 762.5 244V238C762.5 228.4 753.167 223 748.5 221.5L744.5 220.5L737.5 219.5H732.5V216L732 215.5V112.54L780 120L832 128.5V354H821L819.5 343.5L806.5 343L808 354H804.5L803 337H794.5L795.5 354H793L791 343H777.5L779 354H776L774 336.5H765.5L766.5 354H763.5L762.5 342.5H748L749.5 353.5H741.5L740.5 337L720.5 336.5L722 353.5H719.5V357H832V408L813.5 431L807.5 413L781.5 414.5L786.5 434H778.5L741 436.5V440L784 448L808.5 446L819.5 445.5L819 451.5L814.5 455L806 452.5H801L799 453.5L797 455.5L796 457.5L795.5 460L789 461.5L785.5 464L784 467.688L786 470.5L795 477L798.5 479.5L815 485.5L817 506.5L804 512H777.5L778 452L746 445.5L736.5 445H736L736.5 406L745.5 405.5L750.5 405L756 404.5L757.5 404C757.833 399.167 756.2 389 747 387L745.5 386L735.5 385.5L724 386V387C721.167 387.167 715.1 389.9 713.5 399.5V402.5C714.667 403.5 720.4 405.6 734 406V445H730.5L724.5 445.5L726 432L725 428.5L723.5 427L718.5 426H714L703.5 426.5L696 427.5L692 429L689.5 430.5L688 432L686 434.5L685 436.5L683.5 441L587.5 446V449.5L622 459.5L679.5 456L677 468V469.5H672.5L657.5 466H654.5C652.833 466.167 649.3 467.6 648.5 472C647.7 476.4 646.833 484.833 646.5 488.5C646.333 489.833 646.7 492.9 649.5 494.5C652.3 496.1 661 499.167 665 500.5L680.5 506.5L683 507V512.5L681.5 514V521.5H679.5L666.5 526.5L618 531.5L614.5 515L615 463.5L588.5 456L577 456.5L568.5 457L567.75 456L565.5 456.5L564.5 457L560 458H559.5L548.5 454.5L547.5 453L546 450.5V446L545.5 443L544 441L542.5 439.5L541 439L540 438L539.5 437L540 435.5L533.5 423.5L528.5 417.5L521.5 414.5L514 413L513.5 410.5L511 408.5L510 383H506.5L506 379L504 375.5L500.5 373L496 371.5H488L484 373L479.5 376.5L477 381.5L479 382.5V383.5L435 384.5L436.5 431.5L455 431L456.5 441L454.5 447.5L454 449.5H452.5L451 454.5H424L422.5 454L419.5 455H416.5L414 454.5L403.5 455L402.5 456.5L400.5 457V461L424 473L477 469.5V473.5L478 474.5L480 475V476.5L478.5 477L480 480.5L479 485.5L478.5 487L467.5 484L464.5 483L462.5 483.5L461 484L459.5 485L458 487L457.5 489.5L457 492.5L456 507V510.5L457 513L458.5 515L461.5 517L474 548L462.5 549.5L463 540L461 538L457 535.5L453 533.5H450.5L432.5 538.5L428 539.5L422.5 537L414.5 534.5L409.5 534L408 534.5L407.5 536V538L409 539.5L411.5 541L413 542L405 543L396.5 544L386.5 545L382.5 546L379 547.5L377 549.5L375.5 552L373 557.5L368 570.5L366.5 575L354.5 577L346.5 578.5L340 580L339.5 577H343C344 576.833 345.8 575.8 345 573C344.2 570.2 338.667 566.833 336 565.5L329 561L319 554L314 551L311.5 550H310L308.5 551L307.5 552L307 554V556L307.5 558L309.5 561L313 564V566H310L293.5 546L226.35 552.049L225.5 549.5L229.5 543.5L241.5 540.5L237 520.5L228.5 488.5V468.5L225 458L216.5 454L218.5 440L222 431L306.5 427V422H294.5L296.5 414.5L295 414L289.5 413.5L284 414L283.5 416L285.5 422.5H277L278 414.5L275.5 413.5H273.5L276 412L272.5 411L272 412L270 411.5L271 413H267.5L266 415V418.5L267.5 423L262.5 423.5H245.5L245 411L223 410.5L226.5 407L232.5 403.5L233.5 365L232 351.5L228.5 338L227 331L245 329.5L235 326.5L224.5 321.5L227 318.5H232L237 316.5L241.5 315.5L242.5 309.5L238 307.5L244.5 307L239.5 302.5L244.5 301.5L241.5 296L245 293L248.5 291.5L244.5 283L365.5 288V283.5L359.5 283L361 274L360.5 273L359 273.5V272.5L359.5 271.5L361.5 269L358 271V269L359.5 267H358L356.5 268L356 266.5L355.5 267L353.5 265.5V269L351 266.5L352 269.5L349.5 268L352.5 272.5L349.5 271.5L351.5 274H350L351.5 283L344.5 282.5L343.5 207L315.073 205.005C315.046 204.632 315.023 204.293 315 204C314.896 198.167 309.25 185.3 287.5 180.5L281.5 179L276 178H274V174.5L273.5 174V41L272.849 40.7822L348.5 53ZM268 40L271.999 40.6455L271.5 174H270.5V178H258C248.333 178.833 228.8 184.5 228 200.5V208.5C232.778 211.465 249.312 217.361 277.508 217.497L277.5 217.5L278 279.5L253 279V265L227 264V274.5H224.5V264L198 262V277H196.5V262.5L169.5 260.5V275.5H167.5V281L213 281.5L214 294.5L216.5 302.5L220 309.5V314L204.5 312L195 313.5L194 315.5L195 323.5L210.5 328L207.5 337L201 347.5L193 355L102.5 356L103.5 430.5H98L96.5 433V436L194.5 432.5L198 505.5L199.5 513.5L198 529.5L194.5 537.5L191.5 545.5L190.521 555.276L182.5 556L157.5 558L154.5 538.5L145.5 515L130 502.5L117 505L104 515L95.5 513.5L94 488.5L93 431L89 430.5L75.5 431L69 439L68.5 451V418.5H74.5L76 418L78 414.5V401L78.5 400.5H80.5V398L82 393.5V400.5L89.5 400L88 89L91.5 90L98 91.5L108 92.5L247.5 109H252L255.5 107.5L258.5 104.5L260 101L260.5 96L261 71L260.5 62L260 59L258 56L256.5 55L253 54L247.5 53L181.5 42.5L112 33L87.5 29.5L86 30L84.5 31L83 33L82 35.5L81 41.5V68.5L71 67.5L72 386H69.5L68.5 7L268 40ZM385.5 398L382.5 401.5L380 405L375.5 410.5L370 417.5L366.5 424.5L366 426L367 428.5V430L363.5 433L359 437.5V441L358 445.5L354.5 449.5L353.5 451.5L353 456.5L354 460.5L354.5 461.5L353.5 463V464.5L354 466.5L355.5 468V469.5L354.5 471.5L355 473L353.5 487.5L351.5 487L351 482.5L350 476.5L348.5 469.5L346.5 462.5L345 456.5L343 450.5L340.5 444.5V443L342.5 441.5L344 439.5L345.5 435L346.5 433V430L347.5 428.5L344 427L341.5 426L339.5 427H336.5L335.5 426.5L331 427L329 428.5H320.5L319 429L312 428H307.5L301 428.5H295L293.5 430.5L288.5 433L286 434.5L284.5 437L283.5 440.5L283 443.5L279.5 445.5L272.5 446.5L267.5 448L258 452L254 453.5L250.5 454L249.5 454.5L247.5 459L246.5 460.5H248.5L250.5 460L253.5 459.5L259.5 455.5L264 451H265.5L269.5 452L274.5 454L283.5 455L289 454.5L293.5 453L295.5 452L297 454.5L300.5 457.5L307 461L314.5 464.5L320 467.5L325.5 472L328 476L333.5 487L335.5 492L337 496.5L333.5 495L329.5 493L325.5 492H321.5V493H316.5L318.5 495L320.5 496.5L324.5 498L330 499L333.5 499.5L336.5 501.5L338.5 503L340.5 517L341.5 534.5L340.5 535.5L338 529.5L334 523L330.5 518L327 515L328 511L326 508L325.5 506.5H322.5L321 505.5L319 504L317 503.5L314.5 504L312 505.5H308.5L303.5 509L300 510L296.5 512.5H299L301 513.5L302.5 514.5L303.5 515.5L298 513.5L296.188 514.5L296 516H297.5L298 517.5H296.5L296.188 518.5L297 519.5L296 520.5H297.5L300 520L297.5 522H296.188L296 523L297.5 523.5H302.5L304 522L308.5 521L311 520L312.5 518.5L314 517.5L315.5 516H317L318 516.5H320L321.5 515L322.5 516L324 515.5L325.5 517L326.5 516.5C336.1 525.3 338.5 537.833 338.5 543H359.5L362 542.5L364 539.5L366.5 538.5L368 534.312L367.5 533L364 531.5L359.5 531V530H362.5L364 530.5L368 532L362 527L360 526.5L362.5 517.5L364 512.5L365.5 513.5L370.5 515.5L373 516L377 515.5L379.5 514L379 512.5L381 512L384 509L385 503L384.5 499.5V497L383.5 491L388 489L391 487.5L395 484.5L396 483.5L397.5 483L401.5 482L403.5 480.5L404 479L403 478.5L400.5 480L401 478.5L397 479.5L391.5 480L385 482L378.5 484.5H376.5L372.5 481.5L366.5 479L362 480.5L362.5 478L364 473L366 466.5L368.5 460L370.5 455L373 450L375 447.5L382 444L389.5 441.5L397 440L406 434.5L408 434L413.5 430L423.5 428L425 425L427 422.5L427.5 419.5H425L422.5 421L419.5 421.5L414.5 422.5L408.5 422H401.5L394.5 423.5L389 425.5L386 426.5L380 427.5L373 431.688L370.5 434L368.5 436.5L368 438.5V440.5L369 442.5L370.5 445L373 446.5V447.5L371.5 449.5L369.5 453L367.5 457.5L365.5 462.5L362.5 471L360.5 478L359.5 483.5L358.5 485.5L355.5 487V480.5L356.5 472L358 464.5L359 459L361 453L363.5 447.5L366 441.5L367 437.5L369 434.5L369.5 431.5L370.5 428.5L377.5 420.5L379.5 417.5L383.5 411L386.5 406.5L388.5 404L389 402L389.5 400.5L388.5 398.5L387 397.5L385.5 398ZM362.5 511.5L360.5 518L358.5 524L357 527L356 527.5L356.5 510L362.5 511.5ZM701.5 522.5L694.5 523.5L690 521.5H688V513.5L687.5 507L690.5 506.5L693.5 505L698.5 502L701.5 501V522.5ZM723 515L723.5 519.5L705 522V509L723 515ZM731 517.5V519L727 519.5V516.5L731 517.5ZM345 517.5L343 510L346 509L345 517.5ZM351 507.5V515L350.5 515.5L348.5 510L347.5 508.5V505.5L351 507.5ZM334 481.5L336.5 485L339 490L342 497L343.5 501L340.5 499.5L342 502.5L340.5 503.5L340 499L339 495.5L336.5 489.5L334.5 484.5L330.5 476.5L334 481.5ZM300 437L302 438L307 438.5L313 439.5L315 440.5H335.5L337.5 443.5L340 448L342.5 455.5L345 464.5L347.5 475L349.5 485V488.5H348L343.5 492.5L343 495.5L342 493L340 489L337 483.5L334.5 479.5L330.5 474.5L330 473.5L331.5 472.5V464L330 462L329.5 460.5L327.5 458.5L324 457L320.5 456.5L317.5 457L316 455.5L313.5 454L309.5 451.75V451L311 447.5V444.5L310 443L310.5 441.5L309 439.5L307.25 439L305.5 440.5H302L301 440L295.5 441L294.5 442L293 441.5L293.5 440L295 438L297.5 437L298.5 436L300 437ZM588 391.5C577.2 389.9 565.5 391.5 561 392.5C558.167 393.5 552.2 397.7 551 406.5V411C553.333 411.833 561.2 413.5 574 413.5V456.5H576.5L577 413.5H582.5L593 412.5L594.5 412L598.5 411L600.5 410C600.833 404.5 598.8 393.1 588 391.5ZM393.5 348L357.5 347.5L356.75 334.5H334V347.5H333L332 326H317V347.5L316 334L292 333.5V347.5H286.5V352.5L464.5 353V349H435.5L433.5 322L392 321.5L393.5 348ZM651 311.5H645.5L642.5 288.5L610 287.5L612.5 311H597.5V315L728 317V313.5L726 312.5V310L725.5 307L724 302H709.5L710 304.5L711 312H710L709.5 306.5L708.5 302.5L707 301.5H694L694.5 312H694L691.5 252L649 250L651 311.5ZM569 249L460.5 242.5L457.5 244V247.5L598 255H608.5V251L603 250.5L600 227L566.5 224.5L569 249ZM809 153C807.333 153.333 804 155.1 804 159.5C804 165 808 167 809 167C810 167 816 167 816 160C816 154.4 811.333 153 809 153Z" fill="black"/>
</svg>
