<svg width="1280" height="720" viewBox="0 0 1280 720" fill="none" xmlns="http://www.w3.org/2000/svg">
<path d="M1210.5 108L1209.5 109V113.5C1201.9 114.3 1185.33 118.833 1178 121C1157.2 128.6 1149.33 145.167 1148 152.5L1147.5 160L1121 164.5L1119.5 165.5L1116.5 532.5L1109.5 529.5L1105 528.5L1101.5 528H1093L1088 528.5L1079.5 531V492.5H1080L1081 491.5V489.5L1079.5 489V435L1072 434.312V412L1069.5 411.5L1060.5 411L1034 409L1037 406.5L1053 405.5L1054 403.5L1014 401L998.5 402L978 404L979.5 421L980.5 429.5L982 434L900 441L900.5 439L901 435V427.5L899.5 427L895.5 426.5H880.5L878 427.5V432.5L879 437.5L880.5 443L865 444L866.5 436.5L869 433.5L871 429L871.5 423.688V413L870.5 409L868.5 407.5L859 403L857.5 401V398L856 398.312H854.5L853.5 394V392L854 390.5L854.5 388.688V383.5L853.5 379.5L851.5 377L849.5 375L847 374L844 373.5L842 374L839 375L836.5 376.5L834.5 378.5L833 380.5L832.5 383V389.5L833 390.5L833.5 392L834 394V395.5L835.5 398.5L837 402L836 405.5V407.5L832 408.5V357.268L833 357V354.268L832 354V128.5L1211.5 12.5L1210.5 108ZM1085.5 404.5L1097 405V392.5H1085.5V404.5ZM926 312L922 352H919V355.5L1058.5 357.5V353H1053.5L1057.5 308.5V307H1056L926 312ZM856 224L854.5 224.5L851 281L841.5 281.5V285L845.5 285.5H851.5L954.5 276V272.5H943L946.5 257.5L926 259.5L921.5 274.5L913 275L917.5 214.5L915.5 214L856 224ZM868 129V151L883.5 147L885 146.5V125H882.5L868 129ZM1280 136H1279C1278.33 134.167 1276.3 129.7 1273.5 126.5V113L1271.5 112H1266C1264.17 112.5 1260 113.9 1258 115.5C1252 113.167 1234.9 109.4 1214.5 113V108.5L1213.5 107.5V12L1251.5 0H1280V136Z" fill="#FF0000"/>
</svg>
