<svg width="1280" height="720" viewBox="0 0 1280 720" fill="none" xmlns="http://www.w3.org/2000/svg">
<path d="M983.5 435.5L1001 438.5L1034.5 439.5L1058.5 437L1059.5 435.5H1067L1072 434.5L1079.5 435V489L1081 489.5V491.5L1080 492.5H1079.5V531L1077.5 531.5H1073L1068.5 533L1059 536L1054.5 537L1051 538.5V535L1042 532L1041.5 543L965 526.5H963.5L837 545L837.5 446L863 444H864.5L871 443.5H873.5L880.5 443L882 447.5L889.5 448.5L897.5 448L898.5 444.5L900 441L982 434L983.5 435.5ZM778 452L777 531.5L776.5 532.5H774.5L773.5 531V513L746.366 516V521.5L745.5 523H743.866L743 521.5V516.5L734.312 517.5V537L734 538.5H731.5L731 537V517.5L705 509V527H704L701.5 526V501L710.5 498.5L719 495L722 494L724 491.5L725 488.5L724 482L722.5 472.5V469L726 468.5L727.5 468L728 466.688V466L726 465L722.5 463L723.5 454V453L724 452L734 451.5L734.5 451H744.5L747.5 450.5L750 449.5V447L746 445.5L778 452ZM615 463.5L614.5 515.5L612.5 507L611 501L608 494.5L605.5 490.5L602 486.5L597.5 484L592.5 482L587 481L576 480L560 480.5L555.5 481L549.5 481.5L545.5 478.5H544L545.5 465.5L547 464.5L563 463L571 464L578 463.5L589.5 462.5L592 461.5L592.5 460L592 458.5L589.5 457L587 456.5H576.5L588.5 456L615 463.5Z" fill="#00E1FF"/>
</svg>
