<?xml version="1.0" encoding="UTF-8"?>
<svg id="Layer_1" xmlns="http://www.w3.org/2000/svg" version="1.1" viewBox="0 0 1280 720">
  <!-- Generator: Adobe Illustrator 29.7.1, SVG Export Plug-In . SVG Version: 2.1.1 Build 8)  -->
  <defs>
    <style>
      .st0 {
        fill: #b2f94b;
      }
    </style>
  </defs>
  <g id="Layer_2">
    <path class="st0" d="M474.42,274.85l-24.52-19.24.96-38.48L262.69,24.38l4.62,595.25,207.93-122.86-.81-221.93h0ZM300,438.05l-6.15-.6-.4-22.62,1.79-.99,7.14.2.4,22.23-2.78,1.79h0ZM300,395.19l-5.95-.99-1.79-1.79-.4-19.84,2.18-1.19,7.74-.2,11.51,1.19.79,22.42-14.09.4h.01ZM322.22,236.43l-1.39,3.18c-1.39,3.18-6.15,2.38-6.15,2.38,0,0-3.57-2.18-6.15-3.37s-2.58-5.36-2.58-5.36l-.2-21.04.6-2.18c4.37-1.79,12.7,5.16,14.09,6.55,1.39,1.39,1.19,7.34,1.19,7.34l1.19,2.38v6.15c1.79,2.98-.6,3.97-.6,3.97h0ZM344.91,539.98l-2.22-.12-.37-20.25,6.42-3.21.74,20.99-4.57,2.59ZM367.88,529.97l-3.46,1.61-2.59.62-.49-19.63,1.11-1.23,5.31-.86.86,10.5-.99,1.36.25,7.66v-.03ZM143.84,270.11l-101.51-27.52-1.57-251.82-43.39-.58.65,774.98,51.01-30.08-3.6-210.26,99.54-21.95-1.14-232.77h0ZM91.35,495.92l-2.62-.35-.35-13.11,8.04-1.75.35,13.11-5.42,2.1ZM103.76,493.99l-4.9-.35-.17-12.94,6.12-1.05,1.22,12.24s-2.27,2.1-2.27,2.1Z"/>
  </g>
</svg>