<?xml version="1.0" encoding="UTF-8"?>
<svg id="Layer_1" xmlns="http://www.w3.org/2000/svg" version="1.1" viewBox="0 0 1280 720">
  <!-- Generator: Adobe Illustrator 29.8.1, SVG Export Plug-In . SVG Version: 2.1.1 Build 2)  -->
  <defs>
    <style>
      .st0 {
        fill: #c3e85b;
      }
    </style>
  </defs>
  <path class="st0" d="M336.13,486.89v-6.38h-2.63l.38-37.12,50.23-22.97h0s18.68-8.15,18.68-8.15l-.36-41.7-4.36-1.45-1.27-3.08.55-3.09-2.72-.72-.73-5.44-2.17-1.27-.36-3.99,2.72-2.35-1.09-4.35,1.81-4.17.36-2.54,3.27-.91-1.27-2.72,1.45-.91,3.08.55-.36-255.08h-17.58l-20.28-.73.22-8.34-2.19-.22-.22-74.77-220.47,2v-2.97s-12.2-.3-12.2-.3l1.99,645.35,3.68.18.36,5.26-1.81.72v3.08h2.17l.19,23.03,5.98-.18h0s0-.01,0-.01l258.57-.11-.75-31.03,2.99-1.87-.93-151.06-64.93-.19ZM362.42,375.27h-.01s-12.84.82-12.84.82l-3.13-2.8-.33-12.52,1.98-2.63,14.82.66-.49,16.47ZM309.08,334.44h-.02s34.42-.83,34.42-.83l1.15-2.31,2.47-3.29,15.15-.16-.33,15.64-14.16.49-.16-1.81-2.63-2.47-35.73-.16-.16-5.1ZM401.99,638.14h0s0,0,0,0Z"/>
</svg>