<?xml version="1.0" encoding="UTF-8"?>
<svg id="Layer_1" xmlns="http://www.w3.org/2000/svg" version="1.1" viewBox="0 0 1280 720">
  <!-- Generator: Adobe Illustrator 29.8.1, SVG Export Plug-In . SVG Version: 2.1.1 Build 2)  -->
  <defs>
    <style>
      .st0 {
        fill: #f46eff;
      }
    </style>
  </defs>
  <path class="st0" d="M998.04,612.3l-22.02,60.89-576.28-2.15-.75-31.03,2.99-1.87-.93-151.06h.01s618.31-.68,618.31-.68c-5.16,24.08-21.67,23.39-21.67,23.39-22.01-4.13-31.99-15.48-31.99-15.48l-3.44-3.1c-8.95-.69-8.26,5.5-8.26,5.5l-1.72,83.94c.69,11.35,45.75,31.65,45.75,31.65ZM995.29,672.85l22.36.35,8.6-51.26-6.54-1.38-24.42,52.29ZM1073.03,628.82l-11-1.03-9.98,4.81-8.26,39.91,58.48.34-12.04-43.34-17.2-.69ZM1113.63,637.76l5.16,34.75h9.63l-14.79-34.75Z"/>
</svg>