<?xml version="1.0" encoding="UTF-8"?>
<svg id="Layer_2" xmlns="http://www.w3.org/2000/svg" version="1.1" viewBox="0 0 1280 720">
  <!-- Generator: Adobe Illustrator 29.8.1, SVG Export Plug-In . SVG Version: 2.1.1 Build 2)  -->
  <defs>
    <style>
      .st0 {
        fill: #71ffdd;
      }
    </style>
  </defs>
  <path class="st0" d="M853.84,340.58c3.27,5.72-1.47,13.25-1.47,13.25-6.71-.65-7.85-7.03-8.01-10.96-.16-3.93,6.22-8.01,9.49-2.29ZM871.34,349.57c0-4.42-.16-8.01-6.05-8.5-5.89-.49-4.74,14.23-4.74,14.23l2.78,1.47s8.01-2.78,8.01-7.2ZM460.81,427.01l.13-.03s-.07-.02-.13.03ZM897.95,96.6l-2.37,315.83,250,1.15,44.96,17.85-.89,55.65-8.94-.34,1.42-38.39c-1.5-12.04-12.79-17.12-12.79-17.12l-122.27.38c-20.5,2.45-21.82,22.57-21.82,22.57l-5.88,32.22-618.31.68-64.93-.19v-6.38h-2.63l.38-37.12,68.91-31.13-.36-41.7,3.22,3.63,4.63-1.05.84-2.94-.63-4.2,1.68-3.78,2.31-.63,2.31,3.99,2.73.84,2.73,3.99-1.26,2.73.63,8.62-4.42,7.99v9.46l2.73,9.67,4.84,9.88,6.1,6.31-2.52,3.15-.84,2.73,8.2-.84,14.3-.42,10.8-2.7c-.14.12-.21.62.97,2.7,1.68,2.94,8.83-1.68,8.83-1.47s7.15-1.68,7.78-.21,5.68,1.68,8.2,1.47c2.52-.21,3.15-3.36,4.2-6.1,1.05-2.73-1.26-2.1-1.26-2.1l-.63-2.73c-.63-2.73-5.05-.84-5.05-.84l-1.89-2.1s5.89,1.89,5.89-2.73-5.47-5.05-5.47-5.05c0,0-.84-1.89-4.63-1.89s-2.94,6.52-2.94,6.52l-2.31-2.1-1.05-2.73-4.2.84-3.15,2.1,4.42-8.83.84-10.3-1.89-6.94-6.1-6.31,1.05-4.63,1.68.21h5.05l4.84-4.2-1.26-4.2,2.94.84,4.84,1.68,3.57-4.63-1.26,6.73,2.52-.21,1.26-7.15,3.15,1.05,3.57-6.1.63-7.15-4.2-7.99-1.26,3.78-2.52,2.94h-4.2l3.57-3.15,1.47-5.68-2.31-.21-2.1,2.1-1.68-1.47.63-2.73,98.61-.21.21,75.9-16.61,17.66,1.26,3.15h142.55l4.42-1.47,3.15-12.83v-6.1l-.21-76.32,96.5-.42.63-207.3-343.76-.42.21,194.69-2.52-2.73-3.99-3.15-1.47,1.89-3.15-1.89-2.94.84v2.73l-2.94,1.05-1.26-3.78-1.68-1.68,1.47-.21v-41l-28.17-.42-.21,41.42h3.99l-5.26,7.15-1.89-.84-2.1-4.63-2.94.42v3.36l-1.89,3.36-2.31,3.57-2.52.84-2.73,3.78-2.05-.34-.36-255.08-37.87-.73.22-8.34-2.19-.22-.22-74.77,830.01,1.27-.47,73.85h-2.39v8.03l-42.19,18.73-248.29-.26ZM801.12,425.01l-1.26-2.76-9.79,1.51.25-2.26-13.3-.5-.25-34.89-.25-2.76-3.26-2.51-.5-13.05,1.76-1v-10.54l-2.01-1-9.79.75-2.01-2.01-2.76,1.51-2.01.5-2.26-2.01-3.01,2.26v24.85l-3.01.5-.25,39.16,7.78.5-27.36,8.28v2.76l47.19,4.52,25.1-9.79,1-2.01ZM837.01,384.85l-4.02-3.51-39.16,1,.5,38.15,42.42-.25.25-35.39ZM873.41,398.66l2.26-.25-.25-40.16-8.79-.5,6.27-5.78s2.2-5.94,0-8.87c-2.2-2.93-7.41-6.68-12.78-1.22l-1.38,4.23-1.47,6.35.08-9.2s-1.55-8.63-8.71-7.73c-7.16.9-9.04,9.04-6.19,13.76,2.85,4.72,5.05,6.51,5.29,12.21s1.63,19.77,1.63,19.77l-7.84.83.25,35.64,3.26,3.51h28.87l-.5-22.59Z"/>
</svg>