<svg width="1280" height="720" viewBox="0 0 1280 720" fill="none" xmlns="http://www.w3.org/2000/svg">
<path d="M889.5 226V237L889 253L887.5 284.5L887 305L886 324L884.5 344.5L883 364.5L882 379L881.5 399L881 406V447L881.5 471L882 483.5L882.5 499.5L883.5 503V517.5L884.5 525.5L885 528.5V546.5L884 555L882.5 564L882 568.5L880.5 569L878 570L874 573L872 573.5L873.5 571L874 568.5L877.5 564L880 560L881 558L882.5 556L883.5 554.5L884 553L882 554L883.5 551L884 549.5L884.5 547L882 548.5L879.5 551L877.5 554.5L875.5 557.5L874 560L873 562L870 565L872 556L873.5 550L875 545.5L877 540.5L878.5 538.5L879 537.5L883.5 529L884 527L881 530L875 537L872.5 540L871 542.5L869.5 544.5V540L870 537.5L868.5 534.5L866.5 538.5L864 542L862.5 544.5L860 548L857.5 543L855.5 540L854.5 537.5L853.5 535.5L852.5 538V540.5L853.5 544L854.5 548V558.5L855.5 562.5L857.5 568.5L855 564L853 559.5L851.5 557.5L847.5 553.5L843 548.5L840.5 546.5L837 544L838 546.5L835 544L831 540.5L837 535L830.5 539.5L829.5 539L830 540L838 548.5L841.5 552L845.5 558.5L839 555.5L835.5 554L830.5 552L836.5 555L842 559L846 563L841 561L837.5 560.5L834.5 560L831.5 559L835 561.5L839 563.5L843.5 566.5L849.5 572L852 575L849 573L847 571L843 569L838 567.5L830 567L838 568L842.5 569.5L845 570.5L846.5 571.5L849.5 574L852 576L855 578L852.5 578.5L851 577.5L850.5 578.5L848.5 578H845.5L844.5 577.5L841 578L838.5 577.5L836.5 578H825.5L822.5 578.5L821.5 578L820.5 578.5L814.5 578L814 578.5L813 577.5L810 578.5L808.5 578H800L803 576.5L806.5 574.5L812.5 571.5L818.5 570L827 568L816.5 569.5L812.5 570.5L807.5 572L810.5 568.5L812.5 566L816 563L821.5 559.5L817 560.5L820 558L822.5 556L825.5 554L829 552L832 551L835 549.5L830 550.5L824.5 552L820.5 554L816 556.5L811 560.5L814 556.5L817.5 552.5L823 547.5L830 541L829.5 540.5L824.5 544.5L821 547.5L815 553.5L807.5 563V558L810 554.5L818.5 546L814 548.5L810.5 550L808.5 551.5L805.5 553L806.5 550L807 546V542.5L810 536L806.5 540.5V536.5L807 532.5L808 528.5L809 525.5L807 528L805 530L803 534.5L802 538.5L800.5 544L799.5 548.5L798.5 554L798 556L797 555.5L795 558.5L793.5 560V557L793 551.5V543L792.5 540.5L790 536.5L789.5 541L787 538.5V542L785.5 549L785 555.5L785.5 559.5L781 555.5L777 552.5L773.5 548L770 544L766 540.5L761 537L768.5 543.5L775 551V553L771 550L766 546.5L761 542.5L764.5 547.5L768.5 551.5L775.5 560L781.5 567.5L780 567L773 562.5L767 559.5L762 558L760.5 557.5L765 560.5L767 562.5L765 563L760.5 562L752.5 562.5L759 564L761 564.5L757.5 566L755 567L752 568.5L749 570.5L746.5 572.5L745.5 573L746 571.5L749.5 568L751 567.5L754 567L750 566.5L748.5 567L750.5 564.5L754 560.5L756 558.5L758.5 556.5L760.5 555L766 552L758 555.5L753.5 559L749.5 562.5L752.5 559L756 556L758.5 554L765.5 550.5L759 553L754.5 556L750 560.5L744 568.5L742 569.5L744 566.5L746.5 561.5L749 556V554.5L751.5 549L752.5 546L754 542L755 539L756.5 535.5L752.5 539L749.5 542.5L747 544.5L749 541L750.5 538.5V536L748 540L744.5 544.5L742 548.5L740 552L738.5 554.5L738 549L737 546L735 541.5L732 536.5L729.5 531.5L727.5 528L726.5 525.5L725.5 530L726.5 536L728 541L729 545.5V549L727.5 551.5L726 547.5L724.5 544L723.5 542L719 537L722.5 543L723 544.5L724 549L722 546.5L719 543.5L715.5 541L709.5 535.5L715 543.5L718 548.5L720.5 553L722 557L723.5 562L724.5 566.5L721.5 563.5L717 559.5L712.5 556L705 550.5L715.5 559.5L711.5 557.5L715 561.5H712L708.5 562L711.5 563L713.5 564L715.5 566L718 570L717.5 570.5L716 569.5L712.5 568L706.5 566.5H701.5L706 567L712.5 568.5L717 571V572.5L718 574L719.5 575.5L721 576.5L723.5 577.5L721.5 578.5L720.5 577.5L718 578L716 578.5L712 578H708.5L705 578.5H699.5V579.5H554.5L552.5 581V579.5H551.5V573.5L553 572.634L694 572V567.5H553.5V562L555 561H693V556.5H555.5V551L561 549H689V367L697.5 342.5V340L701 329V325.5L703.5 319V316.5H560.5L561 241.5L689.5 242L692.5 225.5L889.5 226ZM982.5 385L1028 385.5V408.5H1030.5V524L1028 526L1025.5 528.5L1023.5 531L1019.5 535.5L1020 533.5L1021.5 531L1020 532L1019.5 530.5L1018.5 529L1017.5 530L1017 532L1015.5 534L1013.5 536.5V533.5L1013 532L1011.5 531L1010.5 532.5L1006.5 539.5L1004 536L1006 532.5L1003.5 535L1001.5 530.5L1000.5 532L1000 534.5L1001 537L998.5 542L998 540.5L997.5 540L996.5 541L995.5 543L994.5 544.5V541L995 538L996 533L997 529.5L997.5 526.5L997 524.5L996.5 522L995.5 520.5L994 524.5L992.5 527L989.5 531.5L988 534.5L985 541.5L982.5 539.5V541.5L984 543.5V549L982.5 548.5L981 546L976.5 539.5L972.5 534L970.5 531L971 534L972 536.5L974 540L969.5 535H969V536L968 535L967 534.5L964.5 533.5L967.5 540.5L970 546.5L971.5 550.5L973 555L975 559L977 562.5L978.5 565H977L976 564.5L971 557.5L966.5 553L962 549.5L961 548.5L960.5 549L962.5 550.5L966 553.5L968.5 556L972.5 561.5L968.5 557.5L964.5 554.5L960.5 552L957 551L960 552.5L963 554.5L969.5 561L971.5 563.5L974.5 567L969 566.5L971 567L973.5 568.5L975 570L976 571.5L972.5 569L966 565L961.5 563L956.5 561L948.5 559L955.5 562L961 564L966.5 566.5L971.5 570L973.5 571.5L977.5 574L979 576L982 578L974 578.5L971.5 578H968L964 578.5L958.5 578L955.5 579L949.5 578L947.5 578.5L942.5 577.5L950 573.5L961 569.5L964.5 569L961 568.5L953.5 569.5L946.5 571L952.5 568.5L958 567L952.5 567.5L947.5 569L944.5 570L942.5 570.5L941 567.5L947 560H947.5L950 556.5L953.5 553.5L956.5 551L960.5 548.5L965 546L959.5 548L952.5 545L959.5 548.5L957.5 549.5L954 552L951 554.5L947 558.5L943 563.5L940 567.5H938L942 560.5L944 558.5L947 555L944.5 557L948 551L953.5 542.5L957 537.5L958 534.5L954.5 538L949 543L943.5 548.5L941 550.5L943.5 545L947.5 538.5L951 533.5L957 526L952 531L947.5 536L942 544L939 551L936.5 553L934.5 555.5L934 554.5L936.5 548.5L940.5 541L942 536.5L937 542L933 547L932 547.5L930.5 541L929.5 536L927 541L926.5 546L925 552L924.5 556L925 562L923 560L922.5 558L919.5 547L918 542.5L916.5 540L912.5 536L913.5 541L913 551L913.5 554L912 553.5L911 550L909.5 544L910 541L911 527L911.5 515.5L912 511.5L912.5 495.5L913 493.5L913.5 479.5L914 460.5V423L913.5 404L912.5 374L911.5 358L910.5 345.5L909 324.5L908 300.5L907.5 288L906.5 272.5L906 257L905.5 242V226H982.5V385ZM766.5 567L770.5 569.5L773.5 572L777.5 575.5L781 578L780 578.5H776L773 578L771 578.5L768 577.5L766 578.5L763.5 577.5L760.5 578H758L757.5 577.5L756 578.5L752.5 577.5L749 578L748 577.5L746.5 578L745.5 577.5L744 578.5L743 577.5H742L744 575.5L745.5 574.5L748 573L750.5 571L753.5 569L756 567.5L759.5 566L762.5 565L766.5 567ZM882.5 578.5H880.5L879.5 578H874.5L878.5 576.5L882 575.5L882.5 578.5ZM919 576.5L922 578.5L915.5 578L916 575.5L919 576.5ZM534 574L532.5 574.5L528 574L522 574.5L517.5 574L514 574.5L511.5 574L512.5 573.5L510.5 571.5L511.5 570.5L513.5 569L512.5 568L513 566.5L514.5 566L516.5 565L514.5 564.5L512.5 563L515 562.5L516.5 561L515 560L512.5 560.5L510 559.5L513 559L515 557.5L514.5 556.5L511 557.5L512.5 555.5L513 553.5V550.5L511.5 549L507 550.5L511 547.5L510 545L508.5 545.5L509 544L506 545V543.5L507.5 542.5L507 541.5L504.5 543.5L503.5 542.5L504 541L505.5 539.5L504.5 538.5L501.5 539L500 540.5L499.5 538.5L502.5 537V536H498L500.5 533.5V532.5L497.5 533L496 535V533L497.5 530.5L497 529.5H495.5L494.5 532L493 531.5L490.5 529.5H488.5L488 528.5L486 529L485 527.5L483.5 527L482 528L481.5 525.5L480.5 525L479.5 527L478.5 530.5L476.5 528.5L474.5 527.5L473 528L474 530.5L473 533L471 530.5L469 531L468 533.5L466.5 531H464L465 533L464.5 534.5L462 533.5V536L460.5 535.5V536.5L458 536L459 538L456.5 539.5L457 541.5L454 543H453L452 544L453.5 546L451.5 549L449 551.5L446 554L443 557L444 552.5L445 548.5L447 542.5L449.5 538L451.5 534.5L454 530.5V530H453L450.5 533L447.5 536.5L446.5 538.5V536L445.5 535V431.5H347.5V534L346.5 531.5L345 529V532.5L344 536L342 541L341 540L340 542V547L338 544L333.5 537.5L336.5 543.5L339.5 548.5L341 552L342 554.5L343 558L344 563L343 562.5L340 557.5L335 549.5L332.5 547L328 542L324.5 539L321 536.5L324 540L328 545.5L331 549.5L334 554.5L331 552.5L327.5 551L330 552.5L332 555.5L329.5 553.5L327 552L327.5 550.5L326 549.5L328 548.5L326.5 546.5H324.5L325.5 545V544.5L323 543L322.5 544L321 543.5L322 542H319L321 538H319L316.5 539.5L317.5 537.5L315.5 537L317 535.5V534L315 535L312.5 536V535L314.5 534L315.5 532.5L315 531.5L314 532L311.5 533.5L312.5 529.5L311.5 529L310 530L309 531.5H307.5L307 530L306 528.5L304 529.5H303V528.5H301V527L300 526.5L298.5 528.5L298 528L297.5 526L296.5 525L295 527V529.5L294.5 530L290.5 527L289.5 527.5L290 529.5L289.5 530.5L288 532L287 530.5V437.754H195.719V545H197L196.5 547L196 549.5V552L194 549.5L190.5 546.5L185 542L179.5 538.5L177.5 537.5L181.5 540.5L184 542.5L186.5 545.5L190.5 551.5L186 549L187.5 548.5L187 547.5L186 548L184.5 547L185.5 545.5L184.5 544.5L183 547L182.5 545L184 543.5L183 542.5L180.5 543.5V542.5L179.5 542L180 541L178.5 540.5L178 541.5L177.5 540.5V539.5L176.5 539L174 539.5L175 537.5L173 538.5L170.5 538L169.5 536.5H167L166 535L164 534.5L163.5 535L163 533L162 534.5V536.5L161 536L160.5 535H158.5V536L158 538.5L156.5 536L155 537L156.5 539L153.5 537L154.5 538.5L152.5 539L152 540V541.5L150.5 540V392.5H305V271H534V574ZM1034 570.5L1039 574.5H1020L1016 574L1020 573L1024.5 571.5L1028 570.5L1031.5 569L1034 570.5ZM1037 570.5L1039.5 573.5L1035 570L1032.5 568.5L1034 567.5L1037 570.5ZM917 566L920.5 571.5V572.5L920 572L915 566.5L914 562L917 566ZM332 562.5L337.5 566L343.5 570.5L340.5 570L339 569.5L336.5 570L333.5 569.5L332 570L329.5 569.5L328 570H325.5L325 569V568H326L326.5 567L325 566.5L325.5 566H326.5L327 565.5L328 565V563.5L326 563V561H329L332 562.5ZM371.5 561.5L374 562L376 563.5L377.5 565L381.5 567L385 570L382 570.5L380.5 570L376 570.5L372.5 570L369.5 569.5L369 570.5L366.5 569.5L364 570.5L363 569.5L361 570H357L359.5 568L362 565.5L364.5 563.5L366 562L369 560L371.5 561.5ZM421 560L422.5 562L424.5 564.5L426.5 566.5L430.5 570L428 570.5L426 570L423.5 570.5L422 570H419L417.5 570.5L415.5 570L413 570.5L411.5 570L410 570.5L408.5 570L407 570.5L405 570L403 570.5L399.5 570H398.5L400 569L402 567.5L405.5 564L407.5 562.5L410 561L412 559.5L414 559L419 558.5L421 560ZM452.5 569.5L452 570.5L451 570L447.5 570.5L444 570L451 567.5L452.5 569.5ZM222.5 562L225 562.5L231 565.5L236.5 567.5L232 567L231.5 568L228 567L227.5 567.5L224.5 567H216L213 568L211.5 567L210.5 568L209.5 567L206.5 567.5L209.5 566L212 564.5L214 563L216.5 561.5L220 561L222.5 562ZM256.927 559.073L253.5 562.5L249.5 565.5L246 568L246.5 566.5L250 563.5L253 560.5L254.5 558.5L256.927 559.073ZM264 561.5L270 565L268.5 566L270.5 567.5H257L254 568L250.5 567.5H248L250.5 566L257.5 561L260 560L264 561.5ZM1034 550H1036.5L1043 551L1044 553L1043.5 554.5V558L1046 565.5L1046.5 568L1042.5 561.5L1040.5 558L1037.5 554L1035 551.5L1031.5 547.5L1032.5 546.5L1033 545.5H1034V550ZM192.5 567L194.5 567.5H183.5L182 566.5H188.5L185 564.5H188L184.5 562H186.5L192.5 567ZM1026.5 561.5L1028 563L1026 563.5L1023.5 565L1021.5 564.5L1024 562.5L1023 562L1024.5 560.5L1026.5 561.5ZM382.5 551L384.5 557L385 559L385.5 563L384.5 562.5L382 559L379.5 555L378 552.5L376 549.5L372.5 546H380L382.5 551ZM378 562.5L375 562L373 561L370 560L371.5 559L375 558.5L378 562.5ZM453.5 552.5H454.5L456.5 553.5L454.5 554V559H453L450 557.5V559L451 561.5H450L447 562.5L449.5 560H446.5L449.5 557L451 554.5L452.5 551.5L453.5 552.5ZM229 554L232.5 558H230.5L232 558.5V562L226 560.5L223 560H220L217.5 559.5L228.5 554L224 555.5L219.5 557.5L216 559L218 556.5L220.5 554L222.5 552.5L225.5 550.5L229 554ZM328 553.5L331 556L334 559L336.5 562L331.5 561L329 560L328 559.5L329.5 559L331 557.5L330.5 556.5L329 557L327 556.5L329 555L327 553.5H325.5L325 553L326 552L328 553.5ZM1030 557L1033.5 560.5L1034 562L1032 560.5L1028.5 559L1025.5 558L1027.5 555.5L1030 557ZM269.5 556L268 555.5L269.5 557.5L267.5 557L268.5 558.5L270 559.5L271 561L269.5 561.5L263.5 559.5L260.5 558L265.5 555L267.5 554.5L269.5 556ZM430 550.5L429.5 552.5L431.5 558.5L430 558L430.5 561.5L428.5 558.5L426 554.5L417.5 546H431L430 550.5ZM415 556.5L418.5 558L416.5 558.5L412.5 558L409 558.5L406.5 559L402.5 560.5L407 557.5L410.5 555.5H411L415 556.5ZM233 553L229 550H228.5L233.5 555L235 557L236.5 560L235 558.5L233.5 558L230 553.5L226.5 550L230 548.5L233 553ZM218 548L214.5 551.5L212 554.5L210.5 557L209.5 559H208L208.5 556.5L209 554.5L210 552L211.5 550L213 547.5L214 545H221.5L218 548ZM1023 553L1021.5 554L1020 555.5L1017.5 559L1019 554L1019.5 550.5L1023 553ZM367.5 552L370.5 554L375 558H370.5L366.5 558.5L364.5 558L370 554.5L364 557.5H362L362.5 555.5H360.5L365.5 551L367.5 552ZM267 553.5L263 555.5L258.5 558L256 557.5L258.5 555L259.5 553L263.5 549L267 553.5ZM419 551.5L411.5 548.5L415.5 551L418 552.5L421.5 555.5L423 558L419 556L414.5 554.5L415 555.5L411 554.5L404.5 558L405 555.5L401.5 557L402.5 555.5L404.5 553L408.5 549.5L409 548L406.5 550L403.5 552L401 553.5L402 551L404.5 547.5L406 546H415L419 551.5ZM225 549.5L223.5 550L221 551.5L219 553L215 557L217 552L219 549.5L221.5 547L225 549.5ZM189 552.5L192.5 556.5L188.5 554.5V552.5L186.5 553V551H184.5V550L185.5 549.5L189 552.5ZM373.5 551L374.5 553L371 551L368.5 550.5L372 552.5L373 554L374.5 556.5L371.5 553.5L368.5 551.5L366.5 550.5L368 547.5L365.5 550L364.5 549.5L362 548.5L363.5 546H370L373.5 551ZM268 551.5L269.5 555L267 551.5L264.5 548.5L265.5 548L268 551.5ZM364.5 550.5L358 555L361.5 549L364.5 550.5ZM262 547.5L262.5 548.5L260 550.5L258 552L256 554.5H254.5L255.5 553L261.5 548.5L258 549.5L261 547L262 547.5ZM350 552.5L349 553.5L348 551.5L347.5 546H351.5L350 552.5ZM392 552L391 553L389 549L388.5 546H393L392 552ZM260.5 546L259 547.5L257 549L256 550.5L254.5 551L252.5 552.5L253.5 549V547L253 545H259L260.5 546ZM397 551.5L396 546H402.5L397 551.5ZM1025 546L1026.5 548.5L1024 551.5L1020.5 550L1023 547L1020 549.5L1021 545.5L1022 542.5L1025 546ZM247 550.5L246 545H248L247 550.5ZM355.5 550.5L355 549.5L354.5 546.5V546H359.5L355.5 550.5ZM238.5 549.5L236.5 548L235.5 547.5L234.5 545H236.5L238.5 549.5ZM229.5 548L227 548.5L225.5 549L223.5 547.5L222 546.5L223.5 545H228L229.5 548ZM201 548.5L200 545H203L201 548.5ZM264.5 546.5L263 548L261.5 546L263 545L264.5 546.5ZM437.5 548V546H438.5L437.5 548ZM211.5 546.5L210.5 545H213.5L211.5 546.5ZM240.5 546L240 545H241L240.5 546ZM1030.5 544L1028.5 545.5L1025.5 542.5L1022.5 540.5L1026 533.5L1030.5 526V544Z" fill="black"/>
</svg>
