<svg width="1280" height="720" viewBox="0 0 1280 720" fill="none" xmlns="http://www.w3.org/2000/svg">
<path d="M1191 720H1043L1019.99 709.852L1019.5 699.5H1019V651.812L1191 720ZM1004.16 645.928L1004.5 699L998.576 700.405L817.964 620.739L816.959 571.714L1004.16 645.928ZM564.199 598.702L0 693V640.5L409.5 577.5L407.5 619L409 619.5L411 577.5L563.246 553.324L564.199 598.702ZM801.033 565.399L802.117 613.749L749.955 590.741L749.222 544.859L801.033 565.399ZM737.562 540.237L738 584.5L736.415 584.769L712 574L574.814 596.928L574.238 551.579L675.5 535.5L677.5 570L678.5 572.5H679.5L677 535.5L685.5 534.5L713 530.5L737.562 540.237Z" fill="#00FF1A"/>
</svg>
