<svg width="1280" height="720" viewBox="0 0 1280 720" fill="none" xmlns="http://www.w3.org/2000/svg">
<path d="M482.5 462.5L480.5 464L473.5 471L472 474L471.5 477.5V480L472 482.5L473.5 485.5L474.5 486L427.5 489.5V491L475.5 487L501.5 491L517.5 492.5H540.5L551 494.5L556.5 495.5L562.1 494.638L563 554L411.064 577.343L415 507V503.5L413.5 501L409.547 577.576L0 640.5V633L341.5 583.5L343.5 582L345 579.5L347 471.5L346.5 468.5L344.5 466.5L326 447.5H322.5L0 479V442.5L487.965 395.923L482.5 462.5ZM618.5 502L620.5 504.5L622.5 509.5L623.5 514V523L624.5 544L574.5 552L573.5 493.5H585.5L618.5 502ZM673 474V493.5L675.5 535.5L634.5 542.5L633.5 515.5L632.5 510.5L631 505L629 500L626.5 496.5L623 493H627.5L632 491L639.5 491.5L645 489.5L652 487.5L657 485.5L662 482.5L667 479L670.5 475L672 473.5L673 474ZM714 530.5L685 534.5L682 484.5L681 473L680 469.5L677.5 464.5L678 460.5L677.5 457.5L676 453.5L673.5 450.5L669 447.5L666.5 446L659.5 443L648 439.5L638 437.5L624.5 436L612.5 435.5H585.5L577.5 436L572.5 436.5L571 345.5L572 345L712.5 333.5L714 530.5ZM561.237 437.707L554.5 438.5L543.5 440.5L537 441L532 442L527.5 443L522 445L518.5 446L514.5 447L510.5 448.5L501.5 452.5L498 454L496.5 455L493 454L491.5 453L488.5 452L486.5 453L485.5 454.5L484.5 456.5L485 459L485.5 461L484 461.5L489.477 395.778L560.5 389L561.237 437.707ZM1095.5 0.5H706L710.977 247.869L708.5 248L704.5 242.5L703 241L702.5 239L699 233.5L701 231.5L702 229L701.5 228L700 226.5L698 223L697 219.5L696 216.5L695.5 212.5L696 211.5L694 214.5V217L693.5 219L694.5 220.5L696 223V231H693L693.5 221V220H692L690.5 221L689.5 222.5L688.5 226L687 230.5L685.5 234L684 236.5L684.5 237.5L686.5 234.5L686 238L685 240L683 243.5L684.5 242L685 244L685.5 245L684.5 245.5L684 252H686L687 253.5V254.5L686 256.5L684.5 260L684 262.5L684.5 265L685.5 266.5L685 268.5L651.5 271L556.5 276.5L549.5 0H1095.5V0.5Z" fill="#FF0000"/>
</svg>
