<svg width="1280" height="720" viewBox="0 0 1280 720" fill="none" xmlns="http://www.w3.org/2000/svg">
<path d="M1264.5 720H1191L1127 694.5L1072 672.5L1019 651.5V627L1264.5 720ZM933 415.5L904 419L899 420L900 572.5L898.5 573V581.5L1004 621V645.5L818 572.5L817.5 572L813.5 403L857.5 398L933 415.5ZM797 385.5L801.5 566.5L748.5 545.5L746.5 374.5L797 385.5ZM737 541L713.5 531L712.5 333.5L735.5 331.5L737 541ZM1095.5 0V226.5L1097 228.5L1100.5 229.5L1280 240.5V446L1062.5 402.5V401.5L1056 400.5L1017.5 405L1017 308.5L1033.5 306V298L828 275L849 197V192.5L847.5 191L846 190.5L839.5 189.5L766.5 188H764L763 188.5L761.5 189.5L760.5 190.5L760 192.5L744 248H732.5L718 247.5L708.5 248L704.5 242.5L703 241L702.5 239L699 233.5L701 231.5L702 229L701.5 228L700 226.5L698 223L697 219.5L696 216.5L695.5 212.5L696 211.5L694 214.5V217L693.5 219L694.5 220.5L696 223V231H693L693.5 221V220H692L690.5 221L689.5 222.5L688.5 226L687 230.5L685.5 234L684 236.5L684.5 237.5L686.5 234.5L686 238L685 240L683 243.5L684.5 242L685 244L685.5 245L684.5 245.5L684 252H686L687 253.5V254.5L686 256.5L684.5 260L684 262.5L684.5 265L685.5 266.5L685 268.5L651.5 271L556.5 276.5L549.5 0H1095.5Z" fill="black"/>
</svg>
