<svg width="1280" height="720" viewBox="0 0 1280 720" fill="none" xmlns="http://www.w3.org/2000/svg">
<path d="M685 272L685.5 273.5L686.5 275.5L687.5 276.5L689.5 277L692.5 276.5L694 276L697 275.5L700 276L717.5 276.5L664 282.5L660 283.5L659.5 284L661.5 285L669 286L743 295L812.5 290.5L813.5 289L817.5 287.5H821L823.5 286.5L825.5 283.5L826.5 279.5L828 275L1033.5 298V306L1017 308.5L1017.5 405L933 415.5L857.5 398L813.5 403L820 720H804.5L797 385.5L746.5 374.5L750 593.5L688.5 604L688 593L738 584.5L735.5 331.5L572 345L571 345.5L572.5 436.5L565 437.5H561L557 286.5L546 284.5V277.5L548 277L685 268.5H685.5L685 272ZM1019 627V699.5H1019.5L1020 710L1011.5 712.5L978 720H916L1004.5 699L1004 621L1019 627ZM575 611.5L626.5 603L627 614.5L567.5 625L563.5 622V613H564.5L562 494H566L573.5 493.5L575 611.5ZM680 605.5L637 613V601.5L679 594.5L680 605.5Z" fill="#1A00FF"/>
</svg>
