<?xml version="1.0" encoding="UTF-8"?>
<svg id="Layer_1" xmlns="http://www.w3.org/2000/svg" version="1.1" viewBox="0 0 1280 720">
  <!-- Generator: Adobe Illustrator 29.6.1, SVG Export Plug-In . SVG Version: 2.1.1 Build 9)  -->
  <defs>
    <style>
      .st0 {
        fill: #ff5003;
      }
    </style>
  </defs>
  <g id="Layer_2">
    <path class="st0" d="M1071.56,140.03l-.94-2.56c.51-.57.97-.57,1.56-.36l2.84,6.53c-1.49.23-2.58.83-3.26,1.6l-.21-5.21h0ZM1069.88,113.19l2.22,2.77-.96-4.11c-.23.49-.64.95-1.27,1.34h.01ZM1066.08,125.08l3,8.19c.51.02,1.01.07,1.49.15l-1.55-3.56-3.82-9.23-.35-6.13-3.79.76s1.73,4.04,1.45,7.26l3.57,2.55h0ZM1072.99,133.98c.43.13.7.23.7.23,0,0,.45-1.69,1.56-2.65l-1.23-10.04-.28-.35-.4.09-.19-.83-5.2-6.46c-.34.09-.71.16-1.11.22l.35,6,3.68,8.9,2.13,4.9h-.01ZM1080.83,116l-1.84-6.34c-.11-.01-.22-.03-.34-.05l-3.02,8.72.29,2.41,3.64,4.54,5.25,10.81,5.43,6.37-.25-11.89-9.17-14.57h0ZM1090.32,145.62l-7.24-8.55-5.26-10.82-1.44-1.78.79,6.47c.34.04.71.15,1.12.35,3.06,1.53,2.96,5.41-.27,6.53l.72,5.89c1.07.16,2.79.97.6,4.87l5.24,14.62c2.03-1.66,5.38,1.37,5.38,1.37,0,0-.13-2.56.66-4.7l-.3-14.25h0ZM1076.05,138.14c-.48,0-.92-.04-1.31-.11l1.8,4.14-.49-4.03ZM1091.96,96.85l.7-8.68.7-6.07-12.53,21.24-.41,1.19c2.22,1.91,3.81,4.66,1.52,4.9,0,0-.35.09-.88.17l1.65,5.71,7.21,11.4-.08-3.83v-.05l.21-2.52-4.23-.42,3.4-5.34,1.29.04,1-12.39-2.78-.28,3.21-5.05.02-.02ZM1094.37,140.95l-1.9,11.98v.54l4.34-9.83c-.92-.33-2.03-1.07-2.44-2.69h0ZM1091.98,121.27l-.13,1.66.15,7.04.32.51-.31.19.23,10.97,2.88-18.18-3.14-2.2h0ZM1076.67,94.42l2.35,8.12.04-.13,3.28-5.55c-1.56.17-3.56-.45-5.67-2.44ZM1088.05,202.31l2.53,13.42.2,1.27v-14.4c-.99.31-2.03.21-2.74-.29h.01ZM1090.79,172.02c-.98.35-2.17.28-3.71-.6l3.71,12.9v-12.3h0ZM1085.17,197.2l-3.41-24.4-8.06-19.23,1.84-.77,4.55,10.89-2.37-12.88c-2.18,2.09-4.06.37-5.78-1.35l.56,14.14,12.43,32.62-.74.28.98.71h0ZM1090.79,190.52l-.27.08-5.79-20.13c-.95-.09-2.25-.88-1.39-4.84l-1.77-4.95,2.15,11.67h-.01l.02.04,3.74,26.82c.83-2.29,2.13-2.82,3.32-2.7v-5.99h0ZM1096.35,115.73l-2.5,3.66,1.37,3.51,1.14-7.17h-.01ZM1102.29,95.65l1.84-4.3c-.48-.67-1.09-1.65-1.4-2.59l-1.22,7.16-6.32,39.89c1.71-2.26,4.97.35,4.97.35,0,0,.05.04.14.1l7.71-15.94v-7.23l-3.15-5.58-2.56-11.86h0ZM1103.13,86.4c.42-.32,1.1-.52,2.13-.52,1.15,0,2.07.18,2.82.45l.04-23.04-1.94,5.25-3.04,17.86h-.01ZM1105.02,146.59c-2.56,3.74-5.43-.33-6.43-2.01l-5.55,12.61c.73-.24,1.63-.25,2.75.09.79.24,1.44.62,1.98,1.09l10.2-13.35.04-20.12-6.13,12.68c2.16,2.02,5.34,5.8,3.15,9h0ZM1096.76,167.97c-1.56-.96-2.52,1.03-3.97,2.6v26.69c.5.3.82.59.82.59.17,1.44-.19,2.56-.82,3.37v8.84l1.33-2.41c-.09-1.34.14-2.97.94-4.95.76-1.88,1.85-2.47,3.04-2.27l4.99-9.03,4.81-8.89.07-34.18-8.93,11.68c1.93,3.73.1,9.41-2.27,7.95h0ZM1107.8,231.67v-7.44l-3.41,7.42,3.41.02ZM1099.92,201.27c.3.22.6.47.9.74l2.26-5.61,4.8-8.8v-.87l-3.04,5.63-4.92,8.91h0ZM1100.64,74.46l2,2.99,1.63-9.52,3.86-10.45v-3.13l-7.25,14.52-.23,5.59h-.01ZM1102.31,203.65c2.25,2.86,3.89,6.75,3.19,8.03-1.32,2.41-4.02,2.45-7.04,1.53l-3.22,7.99-2.13,10.37,10.47.07-1.15-.53,5.39-11.66.05-27.66-3.01,5.51-2.55,6.34h0ZM1099.17,97.89l-2.42,3.53,1.32,3.39,1.1-6.92h0ZM1099.54,95.59l3.02-17.65-5.65-1.83-1.04,1.76-1.22,10.51-.67,8.25,5.37.17.19-1.2h0ZM1096.64,212.38c-.54-.4-1.22-1.05-1.75-2.02l-1.61,2.92-.5-.28v10.26l.57-2.73,3.29-8.16h0ZM1097.98,105.45l-4.37-3.06h-.09l-.99,12.25,3.98.12,1.48-9.31h-.01ZM1104.71,33.17l-1.33,6.28-3.12,13.72c.19.32.32.69.39,1.12.27,1.87-.51,3.25-1.61,4.24l-1.9,8.34-.27,2.36,1.72-.26,9.56-19.12.04-19.68c-.88.95-2.09,1.96-3.47,2.98v.02ZM1088.61,216.08l2.48,15.48-2.89-.02-1.37,7.3-8.66,5.93-3.65,51.07-41.04.91-.46,224.78-76.14.46-3.65-14.13,14.59-.46v-98.03l-12.77-2.74,3.65-15.5h3.65l1.37-45.6,9.58-1.37v-61.1l-9.12-.91v-15.96h-124.93l-.91,124.48h29.18l-3.19,2.28.91,6.38-13.22,1.37-.46,56.08-8.66-2.74-29.18-10.49.46-102.13h-14.13l-.46-5.02-27.81,5.02-6.84-.91-.91-238.92-208.83.18v239.65l-17.18,1.21-14.52-2.9-21.29-7.74-3.15,2.18,1.45,7.74-16.45-.24-.24,93.88-10.89,2.42-17.66,9.44-6.05,2.18-.48-48.15-11.61-.48-.48-9.92,25.89.24.73-124.37-125.09-.24-.73,124.37,24.44.24,2.66,9.92h-9.19l-19.84,7.98-1.45,98.72,14.52.48-3.63,13.79h-86.14l-4.84-44.28,11.61-7.02-.24-7.74-8.95-1.21-5.57-2.42c-1.21-12.58-16.98-38.36-16.98-38.36l-.17-392.93,862.58,1.64c.07.51.16,1.12.29,1.86.8,4.82,3.84,4.11,5.81,3.08l-.9,4.23-2.92,12.86c-3.21-.92-8.85,1.79-9.03,5.57-.24,5.1,4.86,3.4,4.86,3.4,0,0,1.06-.22,2.31-.79l-1.46,6.42-.36,3.07-.25.04.07,1.56-.7,6.05-8.82,14.95c-.28-.43-.68-.84-1.23-1.18-4.02-2.54-6.74,1.73-7.38,2.88l-3.42-11.81-8.5-16.72-8.53-11.08c-.87.67-1.04,1.93-.36,2.81l7.15,9.27,2.83,5.56c-1.75-.15-4.31.18-6.08,2.83-2.91,4.37,1.7,5.83,4.37,4.61,1.55-.71,2.53-2.97,3.08-4.75l4.14,8.12,5.8,20.02c-1.02-.1-1.78.45-1.84,2.11-.08,2.18.65,3.41,1.66,4.1l-2.57,7.38-2.07-8.89-1.21-5.75.5-3.36c3.11.18,3.76-4.65,1.02-5.86-3.89-1.7-6.07,2.43-6.07,2.43,1.16,1.36,2.21,2.25,3.13,2.78l-.61,4.07,1.29,6.13.37,1.61c-.77-.74-2.13-1.31-4.11-1.46l-.24-4.2-7.76-9.09c.99-1.68,2.66-5.23-.09-6.14-1.63-.54-3.41-.16-4.85.76l-8.29-7.61c-.81-.75-2.08-.69-2.83.12l9.59,8.79c-.93,1.07-1.49,2.4-1.4,3.77.18,2.77,4.29,2.03,6.26,1.52l7.41,8.68.21,3.57c-4.97,1.27-5.37,9.07-5.37,9.07-1.82,1.72-2.65,3.69-2.76,5.35l-5.67,1.24.43,1.95,5.5-1.2c.58,1.6,2.06,2.41,3.96,1.4.62-.33,1.05-.82,1.36-1.38l2.49,1.78,2.61,7.08c-1.24.27-2.31.92-2.82,2.24-1.28,3.3,2.68,3.14,4.71,2.86l.64,1.74.93,23.57v.16l11.9,31.21-5.11-3.68c3.77-2.26-1.66-6.56-1.66-6.56,0,0-3.4-8.99-5.1-3.4-.73,2.41-.29,4.18.45,5.42l-1.51-1.09-3.77-14.55c3.44-.93,1.92-3.63,1.92-3.63,3.89-.24,2.91-8.26-2.43-8.74-1.57-.14-2.52.31-3.1,1.01l-5.25-15.56-4.23-8.93,2.53-4.43c.55-.96.21-2.18-.74-2.73l-2.83,4.96-5.96-12.59-2.14-10.08v-1.4c1.95.79,3.99,1.19,3.99,1.19,3.99-.22,4.61-3.64,2.19-5.34-1.29-.91-3.96-1.39-6.17-1.21v-1.42c0-1.1-.9-2-2-2v3.84c-.92.36-1.54.93-1.54,1.77s.64,1.56,1.54,2.16v2.53l2.21,10.51,11.29,23.89,6.47,19.15c.06.33.11.53.11.53,0,0-3.89-3.16-3.89,2.91,0,5.08,4.58,4.38,6.08,4.02l3.19,12.34-5.33-3.83-11.42-15.73-11.64-21.83,5.03-1.92-2.67,6.07s7.29,1.7,8.99-.97-3.64-6.07-3.64-6.07c0,0,1.7-2.43-3.16-5.83-4.52-3.17-4.62,7.14-4.62,8.58l-5.51-10.32,4.66-11.14c.43-1.02-.05-2.19-1.07-2.62l-3.79,9.06-.22-10.57-4.71-19.25-10.92-46.2c-1.08.25-1.74,1.33-1.49,2.41l10.47,44.26,4.66,18.93.09,4.3-9.03-3.5c-.4,1.03.11,2.19,1.14,2.59l7.81,3.02.11-.29.19,9.3,17.59,32.99,11.72,16.17,7.54,5.43v.04h.04l5.62,4.04c.14.67.57,1.24,1.62,1.16l10.59,7.62,3.04,16.12-.06-.07ZM462.89,260.09l-.5-124.12-124.12-.5v124.12l124.62.5ZM962.88,136.47h-124.12l1.01,122.61,123.11.5v-123.11h0ZM1104.38,95.85l2.4,11.09,1.25,2.21.03-16.28c-.82.03-1.65-.14-2.26-.32l-1.42,3.31h0ZM1181.36,106.13l-6.78,16.61,5.19,10.44,10.73-.91,5.59-.97,3.89,5.34,5.25.31-8.07-9.34-15.8-21.48h0ZM1152.62,111.99l-10.41,16.65,6.39,6.9.93.55c.35-2.02,2.57-3.58,5.27-3.58.99,0,1.91.22,2.7.59l5.22-9.38-10.12-11.73h.02ZM1219.3,197.7l-1.62-8.46-1.4,1.02,3.02,7.43h0ZM1206.17,138.03l-1.57,9.77-6.56-1.7,1.94-5.59-4.31-2.33-.8,7.96,2.91,6.36h0l11.15-1.45-2.77-13.03h.01ZM1173.13,152.8l2.59,5.58.51,1.09.43-1.05c-.88-.75-1.46-1.87-1.46-3.14,0-.35.06-.69.14-1.01l-2.21-1.46h0ZM1192.27,95.84l-6.78.18-3.25,7.96,4.33,5.88,4.75-4.25c.74.82.67,2.09-.16,2.82l-3.4,3.04,10.96,14.89,6.59,7.61-.25-1.19-5.58-25.42-7.2-11.52h0ZM1207.63,108.68c-.48.17-1.02.27-1.58.27h-.03l-2.5,5.92-.39-.16,3.88,17.66,1.01,4.75,1.92-3.64,2.51.52-1.48-12.79-3.34-12.54h0ZM1200.77,158.23l4.24-4.64-6.36.82,1.07,2.33,1.05,1.49h0ZM1204.37,170.12l2.14,1.41-1.68-4.13-6.89-9.75-5.11-11.17.93-9.33-5.44-2.95,1.21,4.13-5.85,2.7.49.98,3.9,3.12v4.72l7.35,14.76,8.94,5.5h.01ZM1211.48,183.76l-3.64-8.97-4.54-2.99-6.18-3.8,7.32,14.7,3.13,5.48,3.14-1.32.77-3.1h0ZM1210.36,191.53h-.88l.88,1.53v-1.53ZM1212.89,178.12l-2.11-1.39,1.52,3.74.59-2.35ZM1183.09,156.98c.14-.02.27-.03.41-.03,1.29,0,2.44.9,3.19,2.3l5.51,3.39-5.6-11.24-9.71-3.59,4.86-4.13-1.06-4.16-11.55-23.21-9.99,17.94c.62.67,1,1.49,1,2.39,0,1.7-1.32,3.15-3.22,3.78l9.65,5.66,9.7,6.41c.71-.78,1.72-1.28,2.83-1.28,2.16,0,3.91,1.82,3.91,4.07,0,.53-.1,1.02-.28,1.49l.34.22h.01ZM1209.66,139.01l4.13,4.77-.56-3.77-3.57-1ZM1208.88,141.17l4.37,20.54,1.84,7.58,1.55-6.18-2.31-15.64-5.45-6.3ZM1214.05,173.47l-2.75-11.31-2.16-10.13-7.19,7.88,4.69,6.64,2.81,6.93,3.95,2.6.65-2.6h0ZM1202.67,183.64l-8.77-17.62-6.35-3.91c.03.31.05.63.05.95,0,3.38-1.83,6.12-4.09,6.12s-4.09-2.74-4.09-6.12c0-1.52.37-2.9.98-3.97-.4.15-.83.24-1.28.24-.22,0-.43-.03-.65-.07l-1.08,2.65,6.38,13.51,2.23,2.7,4.99-4.47c.74.82.67,2.09-.16,2.82l-3.57,3.19,15.46,18.76,3.29,4.02h.02c1.36,1.12,2.15,2.15,2.54,3.13l7.65,9.35c.59-.17,1.19-.33,1.78-.48l-2-7.51-13.36-23.3h.03ZM1140.8,127.12l2.36-3.78c-.7.48-1.63.77-2.67.77-2.15,0-3.89-1.25-3.89-2.79s1.74-2.79,3.89-2.79,3.89,1.25,3.89,2.79c0,.03-.01.07-.01.1l6.88-11.01-14.6-16.92-.11,29.65.3-.28,3.96,4.27h0ZM1137.12,90.97l15.24,17.66,1.95-3.11c.94.59,1.22,1.82.64,2.75l-1.21,1.94,10.04,11.64,5.48-9.84,4.15,8.34,6.66-16.31-10.51-22.23c1-.47,2.19-.05,2.66.95l4.32,9.13.63-4.08-2.67-3.16,5.34-1.46,2.19,3.89-4.94,5.97,4.01,8.48,4.05-9.91,2.05-3.93-3.22-5.15-10.88-16.79-36.38,14.55-.02,4.32c2.54.72,5.59,3.27.43,6.35h-.01ZM1136.53,125.45l-.03,9.35,3.24-5.89s-3.21-3.46-3.21-3.46ZM1173.98,65.39c.7-.05,1.41.26,1.82.9l6.15,9.48-1.16-7.14,5.83-1.7,3.16,5.83-6.9,4.45,2.76,4.26,2.6,4.17,4.3-8.24v-6.93l-.31-9.02c1.1-.04,2.03.83,2.07,1.93l.17,4.85,2.79-2.62c-.86-1.81-.19-4.02-.19-4.02,10.44-.49,4.86,6.31,4.86,6.31-1.51,0-2.57-.32-3.33-.8l-4.05,3.8v6.99l-5.07,9.71,2.98-1.24,3.64,4.37-2.41,3.61,5.72,9.16v-5.89c-1.5-.39-2.59-1.41-2.59-2.62,0-1.54,1.74-2.79,3.89-2.79s3.89,1.25,3.89,2.79c0,1.37-1.37,2.5-3.18,2.74v9.15l1.13,5.16,1.5-3.54c-1.12-.53-1.87-1.49-1.87-2.58,0-1.68,1.74-3.04,3.89-3.04s3.89,1.36,3.89,3.04c0,.57-.21,1.1-.56,1.55l3.58,13.45,1.56,13.52,1.26.26,9.61-7.73-.06-12.23v-.06l3.44-29.65c.33.04.62.16.88.33l.07-42.25-55.73,22.29h-.03ZM1144.36,150.72c-2.55,0-4.61-1.79-4.61-4.01s2.07-4.01,4.61-4.01,4.61,1.79,4.61,4.01c0,.48-.11.94-.3,1.37l4.56-7.52c-1.25-.3-2.3-.93-2.97-1.78l-3.03-1.78-6.06-6.54-4.19,7.59-.5.78-.11,29.57,11.72-19.35c-.84,1.01-2.19,1.67-3.73,1.67h0ZM1223.24,190.42l2.58,8.92-.18-19.3-.06-11.62-4.06,11.77.59,3.53,1.43,1.26-1.09.79.78,4.65h.01ZM1219.64,181.12l-.51-.18.32-.94-1.64-9.74-1.28,1.52-.42,1.67,1.54,6.32,2.08,1.82-.08-.49v.02ZM1219.5,168.27l1.32,7.8,4.24-12.29.49.17v-2.86l-6.05,7.18h0ZM1219.07,165.68l5.43-6.46-3.74-4.32-2.08,8.31.2,1.37.18,1.09h0ZM1227.53,158.35l.18.15-.18.21v.96l1.11,1.28-1.09.94.09,18.12.31,32.71c.93-.1,1.49-.13,1.49-.13l.19-117.64-2.3,19.89.21,43.51h0ZM1225.05,137.73l-3.7,14.8,4.17,4.83-.09-19.43-.38-.2h0ZM1217.91,158.03l1.24-4.98-2.39-2.76,1.14,7.74h.01ZM1215.28,140.19l.95,6.42,3.53,4.08,3.47-13.89-4.05-2.09-3.89,5.5v-.02ZM1205.81,212.9c-2.19,2.91-9.23,4.13-8.02-4.13.71-4.84,3.42-6.17,5.55-6.45l-2.14-2.62-19.17-23.3-6.69-14.14-.2-.08.08-.19-1.3-2.76-3.96-8.53-4.43-2.92-10.55-6.21-18.61,30.73-.04,9.93,9.11-.3,30.07-.91,6.83,2.73.61,54.83-1.06,2.89-4.86.76.15,10.48,1.52,6.23,13.52-.15c-11.24-12.15,3.04-36.3,3.04-36.3,8.81.91,5.32,1.06,12.76-3.95,1.78-1.2,3.94-2.16,6.18-2.93l-5.61-6.86c-.57,1.5-1.79,2.86-2.77,4.17v-.02ZM1222.22,212.99l-.13-.67-4.52-13.56-2.95-7.28-.06.04h-2.22v5.01l5.58,9.77,2.05,7.7c.86-.19,1.71-.35,2.51-.5l-.18-.53-.09.02h.01ZM1225.87,204.82l-.51.15-4.08-14.16-.63-3.72-1.18.86,4.56,23.88.45,1.35c1.09-.16,2.05-.29,2.83-.37h-1.37l-.08-7.98h.01ZM395.89,391.05l-1.98,9.55,10.63-.36.54-8.83-9.19-.36h0ZM353.99,522.42l4.16.13,1.89-14.61h-1.76l-4.28,14.48h-.01ZM365.33,522.17l40.81.76,1.89-2.39,13.48-12.59-53.65.25-2.52,13.98h-.01ZM244.55,482.24l-11.32,5.17-.27,10.37,11.83-5.84-.25-9.7h0ZM233.23,509.48v12.5l15.35.44-2.14-20.53-13.2,7.59h-.01ZM901.46,507.29l10.15,10.99,4.65,4.37,19.59-1.41-2.82-13.95h-31.57ZM940.07,507.15l2.11,14.37,6.76.14-4.79-14.51h-4.09.01Z"/>
  </g>
</svg>