<?xml version="1.0" encoding="UTF-8"?>
<svg id="Layer_2" xmlns="http://www.w3.org/2000/svg" version="1.1" viewBox="0 0 1280 720">
  <!-- Generator: Adobe Illustrator 29.6.1, SVG Export Plug-In . SVG Version: 2.1.1 Build 9)  -->
  <defs>
    <style>
      .st0 {
        fill: #f91668;
      }
    </style>
  </defs>
  <path class="st0" d="M233.82,421.14l-.17-392.93-80.96-46.94L-1.61-3.47l49.87,22.88.59,555.02-53.98,26.99,2.93,65.71,117.34-72.75,8.21-76.27-17.6-.59.59-10.56,24.05-11.15s-3.48-5.01-6.81-12.28c-3.33-7.27-9.69-25.14-9.69-25.14,0,0-7.27-17.26-6.06-25.44l2.12-3.03s-1.82-6.36,3.33-5.15,15.14.3,15.14.3l16.35-.3s2.73-5.15,13.02-3.33c0,0,.61-4.85,6.97-6.36,6.36-1.51,11.51-9.39,11.51-9.39,0,0,3.94-.3,6.66,4.85,0,0,25.44,1.51,33.31-13.63,0,0,7.57,4.85,17.57,24.23ZM195.03,382.17l-85.89,19.75-7.21-.63.63-277.1,9.72.63,83.38,24.76-.63,232.59ZM135.64,536.34l36.17-18.08-1.86,44.14-27.39,16.75-12.76-.8,5.85-42.02ZM137.23,518.26l10.64.27-10.9,6.12.27-6.38ZM184.83,536.88l19.41-10.9v14.63l-19.41,11.44v-15.16ZM203.45,503.9l-.27,10.37-18.08,9.84v-10.11l18.35-10.11ZM214.35,497.78l18.88-10.37-.27,10.37-18.08,9.84-.53-9.84ZM214.35,519.86l18.88-10.37v12.5l-8.24,6.91-10.37-.27-.27-8.78Z"/>
</svg>