<?xml version="1.0" encoding="UTF-8"?>
<svg id="Layer_1" xmlns="http://www.w3.org/2000/svg" version="1.1" viewBox="0 0 1280 720">
  <!-- Generator: Adobe Illustrator 29.6.1, SVG Export Plug-In . SVG Version: 2.1.1 Build 9)  -->
  <defs>
    <style>
      .st0 {
        fill: #1c92f4;
      }
    </style>
  </defs>
  <g id="Layer_2">
    <path class="st0" d="M1108.24,144.66l-.28.37.04-20.12,3.1-6.41,2.53,4.46,3.52,15.02-8.91,6.68h0ZM1120.21,160.48l-4.82-5.38c.82-.74,2.09-.67,2.82.16l3.1,3.46,1.39-2.17c-2.93-.02-5.3-1.86-5.3-4.13,0-1.83,1.56-3.37,3.7-3.91-.03-.23-.05-.46-.05-.71v-.06l-1.52.36-1.88-8-7.99,5.99-1.71,2.24-.07,34.18,7.67-14.2,4.64-7.83h.02ZM1124.37,143.22l.06-10.06-4.88,5.53-.14.11,1.81,7.71c.41-1.83,1.66-3.17,3.16-3.28h-.01ZM1108.02,113.09v7.23l1.88-3.91-1.88-3.31h0ZM1167.9-2.4l-59.22,32.01c-.15.19-.31.38-.5.58l-.04,19.68,2.72-5.45c.99.49,1.39,1.7.89,2.68l-3.63,7.25v3.13l1.44-3.91,3.62-8.8c.42-1.02,1.59-1.51,2.61-1.09l-4.37,10.61-3.32,8.98-.04,23.04c3.01,1.11,3.01,3.92,3.01,3.92-.33,1.99-1.67,2.57-3.03,2.61l-.03,16.28,2.91,5.12.61-1.27,7.67-11.66.89-8.57-1.37-3.53c-2.09-.05-3.76-1.27-3.76-2.78s1.74-2.79,3.89-2.79,3.89,1.25,3.89,2.79c0,1.05-.81,1.95-2,2.43l1.41,3.62-.99,9.54-7.9,12.01-1.12,2.33,3.41,6,3.31,14.11,5.59-6.35.28-48.37-7.25-7.01-4.23-6.76c-1.04.35-2.17.36-3.13-.07-2.67-1.21,1.46-6.07,1.46-6.07,0,0,3.89-2.67,4.61,1.21.31,1.66-.26,3-1.23,3.91l4.14,6.63,5.63,5.44.03-6.07,110.01-44.95h6.6v239.19l-67.58,1.57-6.29,1.57,3.77,17.92-4.4,7.86,15.09-.31.31,3.14,54.38,1.57v9.43l.78,276.46,3.87,3.87,30.07,15.03.43-564.83,10.74-3.87,1.29-41.24-115.93,2.24h0ZM1119.23,168.74l.51-3.55-2.43,4.11-9.42,17.43v.87l4.56-8.37,6.79-10.49h-.01ZM1117.01,202.62l-.1-16.83,7.23-2.51.15-25.48-1.89,2.93-1.25,8.74-6.99,10.8-6.29,11.54-.05,27.66,8.03-17.37,1.16.53h0ZM1132.63,269.39l-8.17-.31-.31-26.09-5.34.31-1.57-2.2-.21-36.78-9.21,19.91v7.44l2.19,7.54,8.17,6.91,3.46,51.86h11.32l-5.97-10.06,5.66-18.54h-.02Z"/>
  </g>
</svg>