<?xml version="1.0" encoding="UTF-8"?>
<svg id="Layer_1" xmlns="http://www.w3.org/2000/svg" version="1.1" viewBox="0 0 1280 720">
  <!-- Generator: Adobe Illustrator 30.0.0, SVG Export Plug-In . SVG Version: 2.1.1 Build 123)  -->
  <defs>
    <style>
      .st0 {
        fill: #f95858;
      }
    </style>
  </defs>
  <path class="st0" d="M1173.71-2.14h-.01S147.68-6.52,147.68-6.52l.88,283.57,71.44,4.82,90.29-.88-2.19-209.5h78.89v-28.93h73.19l14.9,28.37,95.98.56.88,202.93,7.01,7.01,408.48-4.82,156.91-11.83-11.83-10.96,39.45-6.14,1.75-249.82ZM309.44,206.59s1.3,22.66-9.88,25.74l-14.41-.16s-11.01-3.89-14.08-25.74c-3.08-21.86,11.33-25.58,11.33-25.58l13.44.32s11.49,5.34,13.6,25.42ZM611.88,257.21h-19.95v-43.33h19.95v43.33ZM611.88,206.51h-19.95v-51.53h19.95v51.53ZM611.88,147.51h-19.95v-51.53h19.95v51.53ZM611.88,88.14h-19.95v-43.22h19.95v43.22ZM638.62,257.21h-19.95v-43.33h19.95v43.33ZM638.62,206.51h-19.95v-51.53h19.95v51.53ZM638.62,147.51h-19.95v-51.53h19.95v51.53ZM638.62,88.14h-19.95v-43.22h19.95v43.22ZM691.43,256.21h-19.95v-43.33h19.95v43.33ZM691.43,205.51h-19.95v-51.53h19.95v51.53ZM691.43,146.51h-19.95v-51.53h19.95v51.53ZM691.43,87.14h-19.95v-43.22h19.95v43.22ZM718.16,256.21h-19.95v-43.33h19.95v43.33ZM718.16,205.51h-19.95v-51.53h19.95v51.53ZM718.16,146.51h-19.95v-51.53h19.95v51.53ZM718.16,87.14h-19.95v-43.22h19.95v43.22ZM771.28,256.21h-19.95v-43.33h19.95v43.33ZM771.28,205.51h-19.95v-51.53h19.95v51.53ZM771.28,146.51h-19.95v-51.53h19.95v51.53ZM771.28,87.14h-19.95v-43.22h19.95v43.22ZM798.02,256.21h-19.95v-43.33h19.95v43.33ZM798.02,205.51h-19.95v-51.53h19.95v51.53ZM798.02,87.14h-19.95v-43.22h19.95v43.22ZM849.83,256.21h-19.95v-43.33h19.95v43.33ZM849.83,205.51h-19.95v-51.53h19.95v51.53ZM849.83,146.51h-19.95v-51.53h19.95v51.53ZM849.83,87.14h-19.95v-43.22h19.95v43.22ZM876.56,256.21h-19.95v-43.33h19.95v43.33ZM876.56,205.51h-19.95v-51.53h19.95v51.53ZM876.56,146.51h-19.95v-51.53h19.95v51.53ZM876.56,87.14h-19.95v-43.22h19.95v43.22Z"/>
</svg>