<?xml version="1.0" encoding="UTF-8"?>
<svg id="Layer_2" xmlns="http://www.w3.org/2000/svg" version="1.1" viewBox="0 0 1280 720">
  <!-- Generator: Adobe Illustrator 30.0.0, SVG Export Plug-In . SVG Version: 2.1.1 Build 123)  -->
  <defs>
    <style>
      .st0 {
        fill: #8f59f7;
      }
    </style>
  </defs>
  <path class="st0" d="M305.72,646.66l2.83,14.16-164.59.28-1.13-16.71h-19.55l1.7-171.11,2.27-.85.57-39.66,178.47-.85-.85,171.96,2.27,2.83-1.98,3.12v36.83ZM832.07,428.81l-1.13,204.53s-94.05,11.61-170.26,2.27l-1.42-205.38-176.49.57.57,206.8,5.38,22.1,450.71,2.55,56.66,62.61h170.82l1.7-206.8-245.33-89.24h-91.22ZM1192.91,524.84l-4.39-1.1-.73,39.54h5.13v-38.44ZM1187.06,594.77l-.73,131.08,6.22,1.46,1.1-139.86c-7.32,2.2-6.59,7.32-6.59,7.32Z"/>
</svg>