<?xml version="1.0" encoding="UTF-8"?>
<svg id="Layer_1" xmlns="http://www.w3.org/2000/svg" version="1.1" viewBox="0 0 1280 720">
  <!-- Generator: Adobe Illustrator 30.0.0, SVG Export Plug-In . SVG Version: 2.1.1 Build 123)  -->
  <defs>
    <style>
      .st0 {
        fill: #5bd0f4;
      }
    </style>
  </defs>
  <path class="st0" d="M128.15,413.43l-34.15,7.53.27,10.75,33.54,1.06-1,14-17.21,6.19,2.15,5.11,5.92-.81-3.77,45.45-2.15,12.64-8.6-2.69-2.42-2.42h-3.77l-2.15,2.15,4.57,4.03,9.68,26.36-12.1,98.69,4.3,1.88-61.04,37.38.27-49.48,14.25-8.34-.54-23.39-60.78.25,3-131.7,22.23-.86,12.83-2.99,2.3-4.38,2.92-2.51-5.43-1.88,6.89-21.49,1.88-1.25.83-5.21-6.47.2,2.09-5.84,1.46-1.25-2.3-2.5,4.39-2.09-3.34-2.92-5.64-.83-5.63-5.22-3.75-.21-1.46-1.67h-5.01l-3.34,1.04,2.5-3.75-3.13-.21-.21-5.01-2.29.42-.42,5.84-3.75,1.46-5.84-2.5V-1.88l129.63-1.09-.21,416.4Z"/>
</svg>