<?xml version="1.0" encoding="UTF-8"?>
<svg id="Layer_1" xmlns="http://www.w3.org/2000/svg" version="1.1" viewBox="0 0 1280 720">
  <!-- Generator: Adobe Illustrator 29.8.1, SVG Export Plug-In . SVG Version: 2.1.1 Build 2)  -->
  <defs>
    <style>
      .st0 {
        fill: #ef5050;
      }
    </style>
  </defs>
  <path class="st0" d="M125.37,500.92c0,11.27.94,43.67.94,43.67L-3.77,561.02-5.18-5.76l126.32,3.29s.47,63.39.47,74.19-1.41,76.07-2.82,91.1c-1.41,15.03-1.41,124.91-1.41,124.91,0,0,3.29,94.38,4.23,100.96.94,6.58,0,27.7,0,30.99s0,29.58.94,34.75c.94,5.17,2.82,35.22,2.82,46.49ZM578.99-3.69l-82.07.95h0s-1.08,122.24,1.08,147.01c2.16,24.77,4.85,143.23,4.85,143.23l1.08,103.93.54,14,13.38.73,9.9.37,6.05-2.57,8.61-1.28-.92-5.68s-.92-7.33,3.85-8.43c4.77-1.1,13.93-.55,16.13,1.28,2.2,1.83,4.22,2.93,4.22,2.93l16.31-.37-3-396.1Z"/>
</svg>