<?xml version="1.0" encoding="UTF-8"?>
<svg id="Layer_1" xmlns="http://www.w3.org/2000/svg" version="1.1" viewBox="0 0 1280 720">
  <!-- Generator: Adobe Illustrator 29.8.1, SVG Export Plug-In . SVG Version: 2.1.1 Build 2)  -->
  <defs>
    <style>
      .st0 {
        fill: #51c1ed;
      }
    </style>
  </defs>
  <path class="st0" d="M1123.33,369.3l.37,46.32-17.93,2.24-.69,47.7-3.92,1.15-2.77.46-3-.46-.46-2.07-2.07-.69-1.61-3-2.53-.92.23-3.23h-3.92l-3.46.92-2.07,2.3-2.07-2.07-4.38.46-3.23.23-.92,3h-3.23l-3.23,1.15,2.3,3h-2.53l-2.77-.46.23,2.77-.92,3.46,3,2.77-1.15,3.69-3.46-3s-1.61-8.3-6.45-8.76-16.36-3-16.36-3c0,0,6.22-8.99,7.84-17.74s8.99-19.59,11.75-22.81c2.76-3.22-14.06,1.61-14.06,1.61,0,0-9.22-.92-18.44,3.46l-15.44,1.61-14.52-.46-13.37-1.15s0-7.37-3.92-7.37-15.21-2.53-15.21-2.53l-6.68-11.06-2.3-6.22-7.37-3s-3-1.61-3.23,1.61-2.3,5.3-2.3,5.3c0,0-5.22,1.61-12.14,7.84l-21.97-.23-8.07.23-4.61,1.38-5.07-3.92-7.14-9.91-6.68-3.69-7.6-.92h-4.15l.92-6.45-1.61.69-3,4.38-11.06,5.53-8.76,4.84-11.29,1.84-17.74-.92-9.91-3.23-8.07-3.23-15.9-.46-15.9-.23-6.91-1.15-5.53-.23-8.53-8.3-9.45-7.37-5.76-3.69-5.99-1.15-3-.46-3.46,3.69-1.15,6.22-.23,2.53-10.6,2.77-9.22.23-5.76,1.84-6.22,1.38-8.3-3.92-4.61-.46-3.46,1.61-4.15-1.15-3.69-1.15-3.46.23v-9.22l-4.84-.69-10.6.69-7.6,2.3-12.67.69-5.53,1.15-3,2.53-5.3,1.61-4.15,3.23-12.18.6-3-396.1h0s140.15-1.27,140.15-1.27l1.3,212.49,9.75.65,343.11-36.39,1.95-176.1,49.39,1.3-4.55,193.65-1.3,57.18,1.95,78.63v40.94l2.6,1.91Z"/>
</svg>