<?xml version="1.0" encoding="UTF-8"?>
<svg id="Layer_2" xmlns="http://www.w3.org/2000/svg" version="1.1" viewBox="0 0 1280 720">
  <!-- Generator: Adobe Illustrator 29.8.1, SVG Export Plug-In . SVG Version: 2.1.1 Build 2)  -->
  <defs>
    <style>
      .st0 {
        fill: #ea53b4;
      }
    </style>
  </defs>
  <path class="st0" d="M1220.8,568.01c-3.84-11.85-6.72-19.05-22.73-24.17-16.01-5.12-31.7-1.92-31.7-1.92l-13.93,5.92-8.32,3.52-29.46,5.12-45.63,9.45-22.57,4.32-29.94,5.76c-18.41-1.12-23.85,1.28-28.5,7.68s-1.6,29.3-1.6,29.3v14.41l-1.28,52.19,1.6,24.33c.32,18.73,26.08,28.72,26.08,28.72l-2.44.68-24.36,12.99-8.12,1.9-16.24-4.87-6.36-6.09-3.11-4.06,2.03-9.07,1.22-15.43s2.84-75.8,6.63-85.28c3.79-9.48,20.98-7.85,20.98-7.85v-34.25c-7.44-4.06-10.02-9.34-10.02-9.34l-.14-14.62c4.2-13.4,45.75-15.3,45.75-15.3l.14-9.48-1.08-.68-.14-1.76-.95-1.76-1.49-.68-1.08-1.76-2.71-1.49-.27-4.74.54-3.52h2.03l1.22-2.03,1.76.14-.14-1.49,1.22-2.98h2.03l.68,1.9,3.38,2.03,3.65-.81,2.3,1.76,2.44-1.08,3.11,1.62,1.89-.68,2.98,2.17,1.62-.27h3.11l-.14-10.56c3.64-7.04,22.33-8.49,22.33-8.49v-12.62l-1.46-3.64-2.91-1.7-2.14-1.46-3.46-3s-1.61-8.3-6.45-8.76c-4.84-.46-16.36-3-16.36-3,0,0,6.22-8.99,7.84-17.74,1.61-8.76,8.99-19.59,11.75-22.81s-14.06,1.61-14.06,1.61c0,0-9.22-.92-18.44,3.46l-15.44,1.61-14.52-.46-13.37-1.15s0-7.37-3.92-7.37-15.21-2.53-15.21-2.53l-6.68-11.06-2.3-6.22-7.37-3s-3-1.61-3.23,1.61c-.23,3.23-2.3,5.3-2.3,5.3,0,0-5.22,1.61-12.14,7.84l-21.97-.23-8.07.23-4.61,1.38-5.07-3.92-7.14-9.91-6.68-3.69-7.6-.92h-4.15l.92-6.45-1.61.69-3,4.38-11.06,5.53-8.76,4.84-11.29,1.84-17.74-.92-9.91-3.23-8.07-3.23-15.9-.46-15.9-.23-6.91-1.15-5.53-.23-8.53-8.3-9.45-7.37-5.76-3.69-5.99-1.15-3-.46-3.46,3.69-1.15,6.22-.23,2.53-10.6,2.77-9.22.23-5.76,1.84-6.22,1.38-8.3-3.92-4.61-.46-3.46,1.61-4.15-1.15-3.69-1.15-3.46.23v-9.22l-4.84-.69-10.6.69-7.6,2.3-12.67.69-5.53,1.15-3,2.53-5.3,1.61-4.15,3.23-12.18.6-.15-19.55-29.95,2.24-17.23,21.11-30.2,9.2-11.3-.22c-3.15,5.1.24,10.68.24,10.68l4.13,4.13c-5.82,6.55-8.49,13.59-8.49,13.59-14.08,0-13.11,3.64-13.11,3.64l.73,25.97c-18.93-1.94-46.84-.49-80.57,3.88-33.73,4.37-37.62,12.13-37.62,12.13l.73,28.39.73,4.61,4.37,2.67v7.52l23.78,11.89,41.01,17.72,35.43,15.77,129.57-20.04,113.2,39.15,4.92.67,1.79,2.24,74.05,25.5,47.92,16.43c-12.13-2.68-27.14-.06-32.02,2.08-6.02,2.63-42.91,10.91-63.98,14.3s-59.09,9.03-75.65,13.55-52.31,9.41-71.13,13.93c-18.82,4.52-73.77,13.17-73.77,13.17-24.09,3.01-23.71,46.67-23.71,46.67l146.41-5.27,145.65-35.38,6.02,3.01-3.01,22.58-.84,24.6,107.5,36.63,219.77-23.89s-20.94-59.09-20.78-100.72c.16-41.62,5.92-55.23,5.92-55.23,0,0,75.24-17.61,80.37-18.73,5.12-1.12,3.36,4.32,3.36,4.32,0,0-6.4,25.61-4.8,57.47,1.6,31.86,6.72,45.31,6.72,45.31l26.09-6.24c12.97-4.96,12.97-31.54,12.97-31.54,0,0,1.44-39.06,1.44-51.87s-3.84-20.65-7.68-32.5ZM902.93,657.16c-7.9,3.39-29.73,10.91-29.73,10.91-2.63-25.97-16.94-26.72-29.36-33.5-.26-.14-.52-.27-.79-.4l63.78,21.86-3.9,1.12Z"/>
</svg>