<?xml version="1.0" encoding="UTF-8"?>
<svg id="Layer_1" xmlns="http://www.w3.org/2000/svg" version="1.1" viewBox="0 0 1280 720">
  <!-- Generator: Adobe Illustrator 29.8.1, SVG Export Plug-In . SVG Version: 2.1.1 Build 2)  -->
  <defs>
    <style>
      .st0 {
        fill: #ea657f;
      }
    </style>
  </defs>
  <path class="st0" d="M1003.96,267.08l-.39,62.15-2.78,3.56-1.18,9.5-5.55,5.54-49.48-.39-193.36-1.88-13.03.67-2.98-5.59v-7.42l-4.48-.28.28-7.27,15.67-7.97,6.01-2.24.42-3.08-.3-89.5-177.48-.3.3,95.55,5.14,1.21-.3,12.39-4.53,1.21-.61,8.47-3.93,4.83-79.22-.3,2.42-146.64-5.74-7.56-123.67-.98-.41,6.85-4.39-7.26-122.64.79.21,136.73-109.97.4-2.22-283.25,123.66,1.67,39.22,35.35,532.3,6.03,100.85-27.15-.4,193.74,3.7-1.53.14,13.73,2.55.15,1.27,1.84,9.35-1.84,65.55.07Z"/>
</svg>