<?xml version="1.0" encoding="UTF-8"?>
<svg id="Layer_1" xmlns="http://www.w3.org/2000/svg" version="1.1" viewBox="0 0 1280 720">
  <!-- Generator: Adobe Illustrator 29.8.1, SVG Export Plug-In . SVG Version: 2.1.1 Build 2)  -->
  <defs>
    <style>
      .st0 {
        fill: #e828c4;
      }
    </style>
  </defs>
  <path class="st0" d="M921.37,49.71l21.75-17.12-.32,9.92-21,18.41-.43-11.21ZM1003.95,267.08h0l-.4,62.15-2.77,3.56-1.19,9.5-5.54,5.54-49.48-.4-.4,79.17,71.25.4,95.03,15.8s-.96-13.62,11.84-15.96c12.8-2.34,16.4-1.09,16.4-1.09l-.16-67.31s-3.12-22.18-26.24-21.55c0,0-19.99-4.68-26.08,34.82l-.94,28.27-2.65,2.03-13.27-1.25-12.65-5.31.78-3.12s6.87-7.96,13.74-23.11l10.15-23.89s5.47-14.68,32.64-17.33c0,0,29.52-3.59,37.79,30.3l.31,69.02,8.75.47,10.15-1.56,1.09,5.15,61.69,7.5s7.5-1.87,11.87,1.72c4.37,3.59-.62,24.67-.62,24.67l4.22,1.09,28.42,5.31s1.56-10.31,4.68-13.9v-244.87l-278.42,54.18Z"/>
</svg>