<?xml version="1.0" encoding="UTF-8"?>
<svg id="Layer_1" xmlns="http://www.w3.org/2000/svg" version="1.1" viewBox="0 0 1280 720">
  <!-- Generator: Adobe Illustrator 29.8.1, SVG Export Plug-In . SVG Version: 2.1.1 Build 2)  -->
  <defs>
    <style>
      .st0 {
        fill: #f4ac64;
      }
    </style>
  </defs>
  <path class="st0" d="M1282.43,562.18c-19.69-1.62-43.63-9.11-50.98-12.49s-9.55-6.61-11.46-14.1,2.94-7.05,2.94-7.05l-4.99-9.84s-12.92-1.62-21.15-3.53-6.76-3.53-7.64-7.2c-.89-3.68,3.27-5.69,3.27-5.69,1.95-3.48-3.05-9.46-3.05-9.46l-3.97-.61-7.02-11.6-9.67-31.93s-2.33-7.58,7.58-7.58,28.85-3.49,35.84,4.08,19.23,18.64,32.63,18.35c13.4-.29,27.68,4.37,27.68,4.37l9.11.83v.02s.88,93.43.88,93.43Z"/>
</svg>