<?xml version="1.0" encoding="UTF-8"?>
<svg id="Layer_1" xmlns="http://www.w3.org/2000/svg" version="1.1" viewBox="0 0 1280 720">
  <!-- Generator: Adobe Illustrator 29.8.1, SVG Export Plug-In . SVG Version: 2.1.1 Build 2)  -->
  <defs>
    <style>
      .st0 {
        fill: #98ef6f;
      }
    </style>
  </defs>
  <path class="st0" d="M1282.44,139.45l-.44,316.42h-9.74l3.9-286.08-144.18-1.9-1.39,1.66-5.91,310.14,6.1.61,47.61.31,7.02,11.6,3.97.61s5.19,7.02,3.05,9.46l-143.13.61v-.24s0,.23,0,.23l-18.39-7.38.26-52.18-.5-2.12-2.75-.5-.16-26.51,1.58-.5-.46-8.28-41.85-5.52.46-53.8,20.24-.92.91-140.71,16.33-5.99-601.36-2.47L169.68-5.44l92.02-2.31,161.41,160.34,600.87,2.47,30.84-14.44v.02s.01-.02.01-.02h-.01l227.62-1.17Z"/>
</svg>