<?xml version="1.0" encoding="UTF-8"?>
<svg id="Layer_1" xmlns="http://www.w3.org/2000/svg" version="1.1" viewBox="0 0 1280 720">
  <!-- Generator: Adobe Illustrator 29.8.1, SVG Export Plug-In . SVG Version: 2.1.1 Build 2)  -->
  <defs>
    <style>
      .st0 {
        fill: #ed70b7;
      }
    </style>
  </defs>
  <path class="st0" d="M599.98,201.74l-337.29-2.89.28,144.72,18.45.58.58,60.25-26.52.29-3.49-257.17L-6.18,2.07-1.39-3.52l171.07-1.92,253.92,201.44,176.09.84.29,4.9ZM1282.45,139.45l-227.62,1.17-30.85,14.44-600.87-2.47L261.7-7.75l1020.37,4.08.38,143.12ZM487.05,71.37c.44-5.06-8.47-9.95-19.89-10.94-11.42-.99-21.03,2.31-21.47,7.37s8.47,9.95,19.89,10.94c11.42.99,21.03-2.31,21.47-7.37ZM499.63,116.77c0-2.8-3.58-5.07-7.99-5.07s-7.99,2.27-7.99,5.07,3.58,5.07,7.99,5.07,7.99-2.27,7.99-5.07ZM625.71,73.83c0-3.64-6.72-6.6-15.01-6.6s-15.01,2.96-15.01,6.6,6.72,6.6,15.01,6.6,15.01-2.96,15.01-6.6ZM705.4,81.33c8.21,0,14.86-3.09,14.86-6.9s-6.65-6.9-14.86-6.9-14.86,3.09-14.86,6.9,6.65,6.9,14.86,6.9ZM721.42,118.54c0-2.8-3.58-5.07-7.99-5.07s-7.99,2.27-7.99,5.07,3.58,5.07,7.99,5.07,7.99-2.27,7.99-5.07ZM813.49,72.3c-.69-3.33-7.63-4.71-15.5-3.08s-13.7,5.64-13.01,8.97,7.63,4.71,15.5,3.08c7.87-1.63,13.7-5.64,13.01-8.97ZM942.28,117.92c-.68-2.71-4.7-4.05-8.98-2.98-4.29,1.07-7.21,4.14-6.53,6.85s4.7,4.05,8.98,2.98c4.29-1.07,7.21-4.14,6.53-6.85ZM1019.71,68.07c-.89-4.38-12.09-5.82-25.03-3.2s-22.71,8.29-21.82,12.68c.89,4.38,12.09,5.82,25.03,3.2s22.71-8.3,21.82-12.68ZM1179.97,101.45c-.67-2.71-5.95-3.73-11.79-2.28-5.83,1.46-10.02,4.84-9.34,7.55.67,2.71,5.95,3.73,11.79,2.28,5.83-1.46,10.02-4.84,9.34-7.55ZM718.13,202.74l68.23.24.56-5.51-69.17-.24.38,5.51ZM811.05,203.47l197.58.99,16.33-5.99-214.25-.54.34,5.54Z"/>
</svg>