<?xml version="1.0" encoding="UTF-8"?>
<svg id="Layer_1" xmlns="http://www.w3.org/2000/svg" version="1.1" viewBox="0 0 1280 720">
  <!-- Generator: Adobe Illustrator 29.8.1, SVG Export Plug-In . SVG Version: 2.1.1 Build 2)  -->
  <defs>
    <style>
      .st0 {
        fill: #f734bc;
      }
    </style>
  </defs>
  <path class="st0" d="M827.01,118.56l-400.89-1.27v-31.16h400.89s0,32.43,0,32.43ZM518.26,270.03h3.3v-139.57h-130.31v164.78l14.05-.26.9-144.15,91.58.3-.3,203.19h-72.75l.3,1.51-.45,4.22,1.05,5.27-.15,2.71,1.05,4.67,39.91,1.05,2.26,4.07,1.05,32.99h61.15v-100.16l-1.51-1.05,1.51-.75v-26.06l-9.19-6.78-3.46-5.98h.01ZM726.88,268.64l5.73.18-1.79,3.22-11.29,9.85v25.44l1.61.54-1.61,2.69v98.34h50.16l-4.66-11.46-3.05-11.46-3.22-17.73,3.4-4.12,2.69-1.07,42.63-2.33,2.51-1.61,5.37-5.19h-62.7v-202.96h89.93v183.43l9.67-3.4,7.7-2.33v-198.66l-133.48-.45.38,139.1.02-.02ZM1268.63,296.45l-3.2-4.79v-3.2l-9.99-3.2-7.19-2.8-5.19,2.8,6.39-8.39-7.19-.8-5.59-3.6,4.79-2,3.6,2.4,12.78-5.99-13.58.4,3.99-4.39h11.19l4-7.19,9.59,3.2-.8,5.99,11.19-2.4-2-156.6-324.39-2-47.14,27.17-1.6,270.86,2.8,1.2,28.36.4,51.54,3.6.8-259.28,226.92,1.6-2.8,178.18,32.76,1.2v-7.19l26.77.8.8-15.18-5.19-3.2-2.4-7.59h-.02ZM390.66,342.03l4.77-1.37,3.74.13,3.21-2.67,3.34-3.48-14.62-.04-.45,7.43h.01Z"/>
</svg>