<?xml version="1.0" encoding="UTF-8"?>
<svg id="Layer_1" xmlns="http://www.w3.org/2000/svg" version="1.1" viewBox="0 0 1280 720">
  <!-- Generator: Adobe Illustrator 29.8.1, SVG Export Plug-In . SVG Version: 2.1.1 Build 2)  -->
  <defs>
    <style>
      .st0 {
        fill: #93f932;
      }
    </style>
  </defs>
  <path class="st0" d="M-5.33-5.03l-11.49,619.83,117.14-59.05v-11.17h-14.36l-21.7-1.92-6.7-6.06-.32-7.02c6.06-14.36,36.7-20.43,36.7-20.43l3.51-7.34-5.11-2.55,2.87-4.79-3.19-3.51,7.66-5.11-1.6-99.26-7.22-.34-29.56.17-1.55-91.1,24.58-1.72,36.09-1.72s-1.55-8.08,4.47-9.28,6.88,3.44,6.88,3.44l1.03,5.33,34.55-.17,21.66.69,4.78,34.07s6.72.27,14.26-.27,21.25,2.6,21.25,2.6l44.97-2.6s39.48-1.23,50.31-2.6,20.56,5.76,20.56,5.76c2.88-.14,9.73,4.66,9.73,4.66l15.22,11.93,10.28-.41,5.07-2.06,2.19.27,3.03-1.19.45-7.43-6.98-.9-.68-38.03,7.79-.44v-164.78L204.53-5.75-5.33-5.03ZM153.04,212.28c-19.18,6.95-42.77-9.61-52.7-37-9.93-27.39-2.43-55.22,16.75-62.17,19.18-6.95,42.77,9.61,52.7,37,9.93,27.39,2.43,55.22-16.75,62.17ZM309.59,178.93c8.61-.36,16.2,13.86,16.96,31.76s-5.61,32.72-14.22,33.08c-8.61.36-16.2-13.86-16.96-31.76s5.61-32.72,14.22-33.08ZM287.81,291.68l-7.72,1.82-83.56-2.72-2.27-220.26,9.54-.45,83.56,44.96.45,176.67v-.02ZM426.12,86.13v31.16L292.87-3.51l51.77.96,81.49,88.68h0Z"/>
</svg>