<?xml version="1.0" encoding="UTF-8"?>
<svg id="Layer_2" xmlns="http://www.w3.org/2000/svg" version="1.1" viewBox="0 0 1280 720">
  <!-- Generator: Adobe Illustrator 29.8.1, SVG Export Plug-In . SVG Version: 2.1.1 Build 2)  -->
  <defs>
    <style>
      .st0 {
        fill: #a9c144;
      }
    </style>
  </defs>
  <path class="st0" d="M406.2,150.84l91.58.3-.3,203.19h-72.75l-1.11-3.38.51-6.95,64.34-.51-1.29-180.15-67.68.51-.51,130.73-8.49.26s-2.32-6.18-5.15-3.86l.86-140.15ZM409.46,334.22l2.83,4.12.77,2.57,5.4-2.32.26-4.89h-2.57l-6.69.51ZM752.68,353.91h62.7l10.34-9.18-64.5.53v-182.96l71.08.53-.26,177.96,10.57-6.39v-183.43h-89.93v202.96ZM991.78,147.84l-.8,259.28,6.6-.65.99-248.58,207.56.99-1.48,168.52,11.25.22,2.8-178.18-226.92-1.6Z"/>
</svg>