<?xml version="1.0" encoding="UTF-8"?>
<svg id="Layer_1" xmlns="http://www.w3.org/2000/svg" version="1.1" viewBox="0 0 1280 720">
  <!-- Generator: Adobe Illustrator 29.8.1, SVG Export Plug-In . SVG Version: 2.1.1 Build 2)  -->
  <defs>
    <style>
      .st0 {
        fill: #5af2c3;
      }
    </style>
  </defs>
  <path class="st0" d="M1280.68,46.75l-.02-.05s-19.87,3.68-19.87-1.1-9.57-1.84-3.68-12.51c5.89-10.67,12.14-10.3,12.14-10.3,0,0-7.36-1.84-3.31-8.46,4.05-6.62,4.05-12.51,4.05-12.51h-90.53l-.37-4.42-19.5.37,2.21,20.61s0,3.31-9.57,5.52l.74,3.31s50.42,3.68,69.56,65.88c0,0,2.94,17.3-79.49,28.71,0,0-82.44,12.88-78.39-11.78l2.58-3.68s13.98-49.68,60.72-75.08l.55-2.13s-10.39-.9-9.85-6.27,4.84-24.55,4.84-24.55l-836.8-1.68,10.7,9.32,1.04,5.87v61.07l22.43,16.56,529.11-.11s15.58-41.22,52.02-56.8l-.5-2.26s-12.57-.5-8.04-10.05l3.77-21.61,32.42-.25,4.02,22.37s-3.02,6.03-10.05,7.79l.5,2.01s42.72,6.79,57.05,59.56l15.49.19-1.33,206.28-16.64,4.66-.67,37.6h2.99l-.33,57.56,56.56,10.31v6.99l-2.66.67v22.29l97.87.22-1.87-8.77-3.47-13.66s-3.06-6.52,2.65-8.15c5.71-1.63,15.29,7.34,15.29,7.34l6.52,23.04,49.54-.41.82-28.34s-.61-7.14,7.54-7.54l68.29.82s3.67,0,5.3,3.67l-2.37-358.12ZM672.22,53.34l-.85,7.85-4.03,3.4-79.37.64-4.67-2.76-2.55-9.34-2.12-.85-1.49-5.52.21-7-2.55-7.22.21-26.53,3.4-3.18,89.13-.64,3.18.85,1.91,3.61,1.06,33.74-1.49,12.94h.02Z"/>
</svg>