<svg width="1280" height="720" viewBox="0 0 1280 720" fill="none" xmlns="http://www.w3.org/2000/svg">
<path d="M373.5 684L348.5 691V694H261.5V693L264.5 690.5L266.5 688L267.5 686.5L265 688L261.5 690V687.5L263 685L265.5 681L266 679L261.5 683.5V674H349L373.5 668.5V684ZM1190.5 639.5V691H1170L1063.5 672.5V670H1064V669L1035 664V652.34L1027.5 651.5L1024 643L1023.5 644L1022.5 640H1020V638.5L1159 652.5H1159.5V639L1160 638.5H1180.5L1190.5 639.5ZM269 666L251 669L235.5 671H115L112 666L110.5 664.5L112 662L115 661L118.5 657.5L116.5 658.5L118 656H251L269 653.5V666ZM88 667L88.5 668.5L87 669V670H86L85 668.5L84.5 667.5L86 666L88 667ZM189.5 592.5V652L132 651.5L115 652.5L114 649.5L119 646.5L115 644.5L114.5 643L116.5 641.5H114.5V639.5L117 636L112.5 634.5L116.5 631.5L117 629L114 628.5V627.5L116 624L115 623.5L113.5 620V616L112 614.5V613L114.5 611L112 611.5V609.25L110.5 607L111 604H108.5L107.5 602.5L101.5 604H92V605.5L85.5 604.5L79.5 603.5L75 604.5L71 604H61L60.75 605.5L59.5 604L52.5 603.5L46.5 605H42.5L40.5 603L38.5 604.5L36.5 603.5L35.5 605L33.5 604.5L30 605L28.5 604H25.5L23.5 603L22 604L20 602.5V604.5L18.5 603.5L17.5 604L18.5 605.5L18 606L16 604.5L14 605.5L12 604L11 605L10 603.5L7.5 604L6.5 603L4.5 603.5L3 604L2 604.5L0 603.5V589L189.5 592.5ZM1004 649L1003 648.5V636.5H1004V649ZM997 648L995.5 647.5V636H996.5L997 648ZM989 635V646.5L980 645H977V634L989 635Z" fill="#FFA600"/>
</svg>
