<svg width="1280" height="720" viewBox="0 0 1280 720" fill="none" xmlns="http://www.w3.org/2000/svg">
<path d="M502.5 389L322.5 389.5V386L502.5 385V389ZM857.5 387.5L522 389V385L857.5 384V387.5ZM1046 387L877.5 387.5V384L1046 383.5V387ZM375 303.5L197 304.5L195.5 303.5V302.5H197V296.5L195.5 295V294.5H197V290L195.5 289V288H197L195.5 287V285.5H197L195.5 284.5V283.5H197V280.5L195.5 279.5V278.5H197L195.5 277V276L375 275V303.5ZM959.5 272V273L958.5 274H959.5V275.5L958.5 276.5V279.5H959.5V280.5L958.5 281.5H959.5V282.5L958.5 283.5H959.5V284.5L958.5 286V290H959.5V291L958.5 292V298.5H959.5V299.5L958.5 301H903.149L903.5 272H959.5ZM502.5 251.5L375 252V255.5L371.5 251V246.5L502.5 246V251.5ZM907 248L903.5 253V249H877.5V243.5H907V248ZM836.5 249.5L535 251L533.5 246L839.5 244L836.5 249.5Z" fill="#2200FF"/>
</svg>
