<svg width="1280" height="720" viewBox="0 0 1280 720" fill="none" xmlns="http://www.w3.org/2000/svg">
<path d="M857 460.5C857 461.5 856.4 463.5 854 463.5H854.5C855.333 463.5 857 462.9 857 460.5V463C856.948 463.333 856.646 464.2 855.846 465L845.5 472H842L851.5 465.5L527 466L533 472.5H529.5L522.5 465C522.333 464.833 522 464.3 522 463.5V389L857 387.5V460.5ZM502 462.5C502 462.528 501.998 462.556 501.997 462.586C501.998 462.574 501.999 462.562 501.999 462.55L502.481 467.32C502.344 466.67 501.46 466.5 501 466.5H335L347 472H343.5L329 466C327.342 465.337 326.199 464.536 325.43 463.755C324.629 463.225 324 462.36 324 461C324 461.278 324.078 461.665 324.276 462.112C324.103 461.658 324 461.125 324 460.5V389.5L502 389V462.5ZM1044.5 459.5C1044.5 460.833 1043.7 463.5 1040.5 463.5H1041.5L1035 465.5L1020.5 471L1020 471.5H1015L1032.5 465L877.5 465.5V387.5L1044.5 387V459.5ZM324.951 463.211C325.092 463.389 325.25 463.572 325.43 463.755C326.276 464.315 327.315 464.5 328 464.5C327.178 464.5 325.849 464.195 324.951 463.211ZM500.266 464.485C500.272 464.485 500.278 464.485 500.284 464.484C500.278 464.485 500.272 464.485 500.266 464.485ZM500.519 464.446C500.525 464.445 500.532 464.444 500.539 464.442C500.532 464.444 500.525 464.445 500.519 464.446ZM500.749 464.381C500.756 464.378 500.763 464.376 500.77 464.374C500.763 464.376 500.756 464.378 500.749 464.381ZM500.857 464.338C500.898 464.321 500.938 464.305 500.977 464.285C500.938 464.305 500.898 464.321 500.857 464.338ZM501.063 464.234C501.097 464.215 501.131 464.197 501.162 464.176C501.131 464.197 501.097 464.215 501.063 464.234ZM501.232 464.123C501.265 464.098 501.298 464.075 501.328 464.049C501.298 464.075 501.265 464.098 501.232 464.123ZM501.384 463.994C501.414 463.965 501.445 463.937 501.473 463.906C501.445 463.937 501.414 463.965 501.384 463.994ZM501.515 463.855C501.543 463.822 501.571 463.789 501.596 463.755C501.571 463.789 501.543 463.822 501.515 463.855ZM501.62 463.718C501.647 463.678 501.673 463.638 501.697 463.598C501.673 463.638 501.647 463.678 501.62 463.718ZM501.729 463.54C501.746 463.509 501.762 463.478 501.777 463.447C501.762 463.478 501.746 463.509 501.729 463.54ZM501.814 463.365C501.828 463.334 501.841 463.303 501.853 463.272C501.841 463.303 501.828 463.334 501.814 463.365ZM501.87 463.221C501.884 463.182 501.896 463.144 501.907 463.106C501.896 463.144 501.884 463.182 501.87 463.221ZM501.922 463.055C501.932 463.018 501.94 462.981 501.948 462.945C501.94 462.981 501.932 463.018 501.922 463.055ZM501.958 462.896C501.965 462.862 501.971 462.829 501.976 462.797C501.971 462.829 501.965 462.862 501.958 462.896ZM501.986 462.717C501.989 462.694 501.991 462.671 501.993 462.649C501.991 462.671 501.989 462.694 501.986 462.717ZM502.5 355.5L375 356V252L502.5 251.5V355.5ZM903 325C903 325.833 902.7 327.9 901.5 329.5L893.5 338.5C893 339 891.8 340 891 340H886L893.5 332H877.5V249H903.5L903 325ZM843.5 313.5V332.5L535.5 334L534.5 332.5H548V324H571L573 329.5H583L581.526 324H624L625 329H635L634.5 323.5H677V329H687L688 323.5H729V329H739L741 323H781.5V328.5H792L794 323H817L816.5 331H831.5L842.5 314L843 313.5H843.5ZM568 313.5H548L547.5 302.5H565L568 313.5ZM623 313L580.5 313.5L577.5 302.5H622L623 313ZM678.5 313H634L633 302H679L678.5 313ZM732 313H689L690.5 302H735L732 313ZM786.5 312.5H744.5L748 301.5H791.5L786.5 312.5ZM817 312.5H800L805 301.5H817V312.5ZM561.5 291H548V288.5L544 278H557.5L561.5 291ZM621 291H575L571.5 278L619.5 277.5L621 291ZM679.5 290.5L632.5 291L631.5 277.5L681.5 277L679.5 290.5ZM738 290.5H692L693.5 277H741.796L738 290.5ZM797 290H751.5L755.5 277L803 276.5L797 290ZM818 285L813 290H811L818 276.5H822.5L818 285ZM829 263.5H824.5L826.81 259.5V253H814L809 263.5H760L761 259.5V253.5H748L745.187 264H695L696.072 260V253.5H683L682 264L631 264.5L630.5 260.5V254H617.5V260.5L618 264.5H568L565.32 254.5H552.5V261L553.572 265H540L535 251L836.5 249.5L829 263.5Z" fill="#FF0000"/>
</svg>
