<svg width="1280" height="720" viewBox="0 0 1280 720" fill="none" xmlns="http://www.w3.org/2000/svg">
<path d="M375 356L328 356.5V358.5L208.5 359V360L210.5 361.154V365.5H208.5V366.5L239 382.5H246.5V449H324V461L325 463.5V464L326 464.5L327.5 465L328.5 465.5L329 466L343.5 472H347L348 472.268L502.5 472V660H487.5L482.5 661.34V659.5L482 656L481.5 653.5L479 652.5H476.5L475 653.5H468L467 652.5L462 653.5L461.5 655L461 657.5L460.5 660.5L461 663.5L461.5 666L462 667.5L462.5 668.5L452 672.5V676.5H373.5V668.5L374.5 668.232V666H325V633L322.5 630.5L322 631.5L321.5 656L309 658L298 663H269V653.5L270.5 653V652H189.5V308L197 304.5L375 303.5V356ZM1035 504.5H977V660.5H965.5L966.5 659L967.5 657L968 655V650L967.5 648L966.5 645.5L964 645H957.5V645.5H954.5V645H946.5L945.5 646L945 648.5V655L945.5 657.5L947 660.5H925.5L928.5 653L929 650.5V647.5L928.5 643.5L928 640.5L927.5 638.5L921 638H914V638.5H911.5L911.366 638H898.5L898 640L897 643.5L896.5 647.5L897.5 653L898 655.5L898.5 657L899 658L900 659.5L900.5 660.5H877.5V471.5H1020L1020.5 471L1035 465.5V504.5ZM843 536H799.5V616.5H843V641H748V536H654V641H538.5V643L534 645H531V506.5H538.5L843 506V536ZM904.5 506H913V635.5H917V504.5H904.5V506ZM928.5 506H936.5V635.5H940.5V504.5H928.5V506ZM246.5 616.5H325V536.5H246.5V616.5ZM555 616.5H628.5V536.5H555V616.5ZM401 558H458.5V505H401V558ZM846 504.5L529.5 505V472.5L846 472V504.5ZM220 486.5C219 486.167 216.4 485.7 214 486.5V496L214.5 496.5H219.5V494.5H221V490H219.5L220 486.5ZM296.634 471.5L298 472.289V479H296.634V480L325 489.5V471H296.5L296.634 471.5ZM532.5 331.5H534L538.5 341.5L843 340.5V380.5H800V383H748V380.5L654 381V383.5H628.5V381.5H555V384H531V328L532.5 331.5ZM502.5 383L355.5 383.5V382H375.5V373.5L502.5 373V383ZM965 304V382L894 382.5V380.5H877L877.5 340H891C891.333 339.948 892.2 339.646 893 338.846C893.8 338.046 899 332.282 901.5 329.5C902 328.833 903 327.1 903 325.5V301H958.5L965 304Z" fill="black"/>
</svg>
