<svg width="1280" height="720" viewBox="0 0 1280 720" fill="none" xmlns="http://www.w3.org/2000/svg">
<path d="M843 506L531 506.5L529.5 505L846 504.5L843 506ZM325 489.5L296.5 480H325V489.5ZM501 466.5C502.2 466.5 502.5 467.046 502.5 467.319V472L348 472.5L347 472L335 466.5H501ZM842 472L533 472.5L527 466L851.5 465.5L842 472ZM1015 471.5H877.5V465.5L1032.5 465L1015 471.5ZM328 368H502.5V373L375.5 373.5V382H355.5L241.5 382.5L212.5 367H328V368ZM843.5 340.5L538.5 341.5L535.5 334L843.5 332.5V340.5ZM886 340H877.5V332H893.5L886 340ZM826.79 259.525L824.5 263.5L852 263V272L849 276.5H818L811 290L836.5 289.5V297L834 301.5H805L800 312.5H823V319.5L820.5 323H794L792 328.5H781.5V323H741L739 329H729V323.5H688L687 329H677V323.5H634.5L635 329H625L624 324H581.5L583 329.5H573L571 324H545L543.5 321V313.5H568L565 302.5H536.757L535 299V291H561.5L557.5 278H527.328L525.5 273.5V265H553.618L552.5 261V254.5H565.309L568 264.5H618L617.5 260.5V254H630.5V260.5L631 264.5L682 264L683 253.5H696V260L695 264H745.182L748 253.5H761V259.5L760 263.5H809L814 253H826.79V259.525ZM580.5 313.5L623 313L622 302.5H577.5L580.5 313.5ZM634 313H678.5L679 302H633L634 313ZM689 313H732L735 302H690.5L689 313ZM744.5 312.5H786.5L791.5 301.5H748L744.5 312.5ZM571.5 278L575 291H621L619.5 277.5L571.5 278ZM631.5 277.5L632.5 291L679.5 290.5L681.5 277L631.5 277.5ZM692 290.5H738L742 277H693.5L692 290.5ZM755.5 277L751.5 290H797L803 276.5L755.5 277Z" fill="#00FF11"/>
</svg>
