<svg width="1280" height="720" viewBox="0 0 1280 720" fill="none" xmlns="http://www.w3.org/2000/svg">
<path d="M742 643V643.5L843.5 643V651.5L849.5 653.5V661.5L853.5 663V671L857.5 672.5V681.5L522 681V672.5L524.5 671V662L527 661V653L531 651.5V645H534L538.5 643H742ZM989 646.5V652H995.5V647.5L997 648V652H1003V649.5L1004 650V652H1010L1011.5 655.5L1009 654L1011 657.5L1008.5 655L1007.5 655.5L1009.5 657.5L1008.5 658L1006.5 656H1005.5L1006.5 657.5L1005.5 658L1005 659.5L1004.5 661.5V663L1005 665L1005.5 666.5L1007 668L1008.5 669L1010 669.5L1012 670L1014.5 670.5L1020 671L1025.5 670.5L1029.5 669.5L1030 669L1031.5 668L1032.5 667L1033 666L1033.5 664.5V663L1032 658.5L1028.5 658L1031 656.5L1035 655.5L1030.5 656L1035 654V664L1064 669V670H1063.5V677H1057.5V681.5H877.5V660.5H900.5L902 661L904 661.5L906.5 662H921L923.5 661.5L925.5 660.5H947L948 661L950.5 661.5L954 662H964L965.5 660.5H977V645H980L989 646.5ZM502.5 681H481L482.5 679L479 681H468.5L469 678.5L468.5 678L467 681H452V672.5L462.5 668.5L463 669L464 669.5L465.5 670H479L481 668.5V664L480 663.5V662.5L482.5 661.5L487.5 660H502.5V681ZM1028.92 651.595L1035 652V653L1031.5 654L1032.5 652H1031.5L1029 654.5L1030 652L1028.5 652.5L1025 657V656L1028.92 651.595L1027.5 651.5H1029L1028.92 651.595Z" fill="#F2FF66"/>
</svg>
