<svg width="1280" height="720" viewBox="0 0 1280 720" fill="none" xmlns="http://www.w3.org/2000/svg">
<path d="M479 652.5L481.5 653.5L482 656L482.5 659.5V661.5L480 662.5V663.5L481 664V668.5L479 670H465.5L464 669.5L463 669L462.5 668.5L462 667.5L461.5 666L461 663.5L460.5 660.5L461.5 655L462 653.5L467 652.5L468 653.5H475L476.5 652.5H479ZM911.5 638.5H914V638H921L927.5 638.5L928 640.5L929 647V650.5L928.5 653L925.5 660.5L923.5 661.5L921 662H906.5L904 661.5L902 661L900.5 660.5L900 659.5L899 658L898.5 657L898 655.5L897.5 653L896.5 647.5L897 643.5L898.5 638H911.354L911.5 638.5ZM954.5 645.5H957.5V645H964L966.5 645.5L967.5 648L968 650V655L967.5 657L966.5 659L965.5 660.5L964 662H954L950.5 661.5L948 661L947 660.5L945.5 657.5L945 655V648.5L945.5 646L946.5 645H954.5V645.5Z" fill="#FF00B7"/>
</svg>
