<svg width="1280" height="720" viewBox="0 0 1280 720" fill="none" xmlns="http://www.w3.org/2000/svg">
<path d="M325 541H298V613.5H325V616.5H246.5V536.5H325V541ZM628.5 616.5H555V536.5H628.5V616.5ZM843 540H802V613.5H843V616.5H799.5V536H843V540ZM253 613.5H294V541H253V613.5ZM558.5 613.5H590.5V540.5H558.5V613.5ZM593.5 613.5H624.5V540.5H593.5V613.5ZM458.5 558H401V505H458.5V558ZM407 555H429.5V509.5H407V555ZM432.5 555H456.5V509.5H432.5V555ZM328 386H322.5V388H298L297 446.5H324V449H249V384L328 383.5V386ZM253 446.5H294V387.5H252.5L253 446.5Z" fill="#00EEFF"/>
</svg>
