<svg width="1280" height="720" viewBox="0 0 1280 720" fill="none" xmlns="http://www.w3.org/2000/svg">
<path d="M1147 425.5V514.5L1143.5 513.5V514.5L1042.5 516L1043 514.5V511.5L1042.5 509.5L1042 508.5L1041 508H1037L1037.5 502.5L1038 501L1038.5 498.5L1039 497.5L1040.5 496L1039.5 495.5L1038.5 496.5L1040 494.5L1042 492.5L1038.5 491.5L1040.5 489.5L1041 488.5L1040 486.5L1042 483.5L1038.5 485L1040 483L1039.5 482L1041 481.5L1039.5 481L1040.5 477.5L1038 479L1037 479.5V478L1036 476V446L1037 445V434H1036V421.5L1147 425.5ZM1222 428.5L1221.5 513H1218L1172.5 514L1173.5 511L1173 509L1172.5 507.5L1172 506.5H1166.5V502.5L1168 498L1168.5 496V494L1171 492.5L1167.5 491L1168.5 490L1170.5 491V490H1169V489.5L1170.5 488.5L1169.5 487.5L1170.5 485L1168 487V485.5L1169 485L1168 484.5L1168.5 484H1170.5L1170 483H1168.5L1170.5 482L1168.5 481.5L1170 480L1168.5 479L1167 480L1166.5 479H1165L1164.5 480.5V426L1222 428.5ZM428.5 352L428.657 400.004L480 401.5V482.5H428.93L429 504H424V351.5L392 349.5L390.5 346L419.5 347.5L355.5 288L288 283L215.555 336.031L250.5 338V341.5L211.498 339.524L211 505H205L205.5 341.5L323.5 252.5L428.5 352ZM272.5 373.5V505H266.5V373L272.5 373.5ZM260.934 368.5V504.842H259.5V365L260.934 368.5ZM392 387L420 388.5V441.5H392V504.5H387.5V378.5H392V387ZM101 503H97.5V500.5L101 503ZM157 502.5H151.5V366.5L157 364.5V502.5ZM103.5 301.5V500.5L98 496L103.5 501.5V502L99 499.5L101 501L97.5 499.5V300.5L103.5 301.5ZM645 392.5V394H642V396L640 397.5V399H640.5V399.5H640V407.5L676.5 408.5V483L640 482.5V497.232L641 498H640V498.5L641.5 499.5V500.5H643V501.5H628.5V500.5H630.5V500H630V499.5L632.5 498.5V498H630.5V497.5H631.5V483H611V406L631.5 407V400H630.5V399H631.5V397.5L630 395.5V394H627V392L633.5 391.5L645 392.5ZM815 501.5H809.5V379H810L815 373.5V501.5ZM859.5 395.5L863 396V501.5H858V394.222L859.5 395.5ZM72.5 266L64 318L91 300L95 300.5L64 322V501L62 500.5V475L57.5 475.5L56.5 474.5V422.5L62 420.5L61.5 320.5L71.5 259.5L72.5 266ZM539.5 387.5V389.5H536.5V391.5L534.5 393.5V395H536V395.5H534.5V404L571.5 405.5V500.5H566.5V408.5L534.5 407.5V499.5L533.5 500V499.5L534 499L533 498.5L532.5 497L531.5 495.5L530 497L529 496L528.5 499L527 497.5V498.5H525.5L525.943 406.998L516 406.685V501H512.5L512 403.5L525.958 403.998L526 395.5H525.5V394.5H526V393.5L524 391.5V389.5H521V388L526 386.5L539.5 387.5ZM847 382V501H844.5V379L847 382ZM937.5 501H935V399H937.5V501ZM952 377V500.5H948.5V397H949.5L950 395.5L948.5 393.5V376L930 375L927.5 372.5L945 373.5L905 326L866.5 322.5L868 321L901.5 324L884.5 304.5L887.5 301L952 377ZM711 500H706.5V402H711V500ZM1023.5 499H1018.5V409L1021 408.5H1023.5V499ZM761 398.5H759V400.5L757.5 402V403.5H758V404H757.5V494L757 492L756 492.5L755 494L755.5 495.5L754 495L752.5 494L752 494.5L752.5 497.5L751 496L749.5 496.5V404.283H748.603V403.688H749.5V402L748 400.5V399H745V397.5L749 397H761V398.5ZM1229 413.5V497.5H1226V413.5L1029.5 404.5L1032 401.5L1224 410.5L1183 355L1175 354.5V372.5L1158.5 371V353L1152.5 352.5V398L1108.5 395.5V349L1102 348.5V367.5L1084.5 366V347H1080.5L1082 345H1084.5V342L1087.5 338.5L1102 340V346.5L1108.5 347V340.5L1152.5 344V350.5L1158.5 351V345L1175 346.5V352L1181 352.5L1145 304L1120.5 301.5L1122 300L1143 302.5L1132 288L1134.5 285L1229 413.5ZM930.5 404V483H869V401.5L930.5 404ZM379.5 384.5V482H281.5V380.5L379.5 384.5ZM614.5 479L627 478.5V447.5L614.5 447V479ZM628.5 479H631.5V447.5H628L628.5 479ZM645 479H657V448H645V479ZM658 479H670.5L670 448H658V479ZM884 478L896.5 478.5V445H884V478ZM899.5 478.5H911V445.5H899.5V478.5ZM912 478.5H923.5V446L912 445.5V478.5ZM428.914 478H437L437.5 444L428.801 443.517L428.914 478ZM443.5 478H473.5V445L443 444.5L443.5 478ZM872 478H883L883.224 445H872V478ZM287.5 476.5H307V435H287.5V476.5ZM308 476.5H328L327.5 435.5L308 435V476.5ZM332.5 476.5H351.5V436L332 435.5L332.5 476.5ZM352.5 476.5H371.5V436.5L352.5 436V476.5ZM37.5 476H32.5L32 474.5V415L36.5 413H37.5V476ZM52 475L46.5 475.5L46 474V410L51 408H52.5L52 475ZM78.5 472.5L70 473V411L76.5 408.5H78.5V472.5ZM645.5 444L658 444.5V413.5L645 413L645.5 444ZM658.5 444.5H671V414L658.5 413.5V444.5ZM614.5 443.5H627.5V412.5L615 412L614.5 443.5ZM628 443.5H631.5V412.5H628V443.5ZM900 441.5L912 442V409L900 408.5V441.5ZM912.5 441.5L924.5 442V409.5L912.5 409V441.5ZM885 441L897 441.5V408.266L885 408V441ZM872 440.5L884 441V408L872 407.5V440.5ZM443.5 440.5H474L473.5 407L443.5 406.5V440.5ZM428.789 440H438V406H428.678L428.789 440ZM256.5 382L256 439L217 438V380L256.5 382ZM392 435.5H401V416L392 415.5V435.5ZM401.5 435.5H412.5L412 416.5L401.5 416V435.5ZM236 431.5L248 432V412L236 411.5V431.5ZM222.5 431.5H235V411H222.5V431.5ZM333 430.5L352 431V390.5L333 389.5V430.5ZM353 431H372V391.5L353 390.5V431ZM309 430L328.5 430.5V389.5L309 388.5V430ZM287.5 429.5L308 430L307.5 389L287.5 388V429.5ZM402.5 413.5H413L412.5 395L402.5 394.5V413.5ZM391.5 413H401.5V394.5L391.5 393.5V413ZM236.5 408L248.5 408.5V388.5L236.5 388V408ZM223 408H235.5V388L223 387.5V408ZM839.5 367V370L820 369L823 366L839.5 367ZM713 330.5V366H710V330L688 329V337L664 335V326.5L646 325V334L620.5 332V323L607.5 322.327V363.5H604.5V272L607.5 272.117V319.5L620.5 321V300.5L646 302.5V322.5L664 324L663.5 304L686.5 306L576.5 188.5L527.5 182L399.929 282.785L400.5 282.5L430 285V306.5L451.5 308.347V287L481 289V310.5L506.5 312.5V252L508 254V354.5L506.5 354V315L481 313V322.5L452 320.5V311L430 309.5V319L413.5 318L407.5 312.5H413.5V301.5L404 300.5V309L399.5 304.5V283.124L387 293L386.5 292L554 160L713 330.5ZM520.5 263.5V358.5H517L515.5 357.5V263L520.5 263.5ZM598.5 280.5V346L526.5 341.5L527 274L598.5 280.5ZM578 340L592 341V313.5L578.5 312L578 340ZM563.5 339L577.5 340V312L563.5 311V339ZM211.5 339L211.499 339.062L211.937 338.68L211.5 339ZM546 338L560 338.5V311L546 309.828V338ZM530.5 337L545 338V309.828L530.5 308.5V337ZM675 331L682 331.5V321.5L675 321V331ZM666.5 330.5L674 331V321L666.5 320.5V330.5ZM623.5 327.5L631 328.5V318L623.5 317V327.5ZM632 328.5H639.5V318.5L632 317.5V328.5ZM688 325.5L706.5 327L688 307V325.5ZM666.5 319.5L674 320.5V310.5L666.5 310V319.5ZM675 320.5H682V311.5L675 311V320.5ZM632 317L639.5 317.5V308L632 307.5V317ZM465.5 316.5L474.5 317V306L465.5 305.5V316.5ZM623.5 316L631 317V307L623.5 306.5V316ZM456 315.5L464.5 316.5V305.5L456 304.5V315.5ZM414.5 313L423.5 313.5L423 302L414.5 301.5V313ZM579 308L593 309.5V285.5L579 284.5V308ZM564.5 307L578 308V284.5L564.5 283V307ZM546.5 305.5L560.5 307L561 282.5L546.5 281.5V305.5ZM531.5 304.5L545.5 305.5V281.5L531.5 280.5V304.5ZM465.5 304.5L474.5 305V295L465.5 294V304.5ZM456 303.5L464.5 304.5V294L456 293V303.5ZM414 300.5L423.5 301V290.5L414 290V300.5ZM404 300L413.5 300.5V289.5L404 289V300ZM294 281.5L350 285.5L322.5 259.5H322L294 281.5ZM531 181L573 186.5L552 164.5L531 181Z" fill="#FF0000"/>
</svg>
