<svg width="1280" height="720" viewBox="0 0 1280 720" fill="none" xmlns="http://www.w3.org/2000/svg">
<path d="M1242 417.5L1229 418V413.5L1134.5 285.5L1141 278.5L1242 417.5ZM769 396.5L766 397H749L745 397.5V398.5L712 402L640.5 399.5V399H640V397.5L642 396V394H645V392.5L633.5 391.5L627 392V394H630V395.5L631.5 397.5V399H630.5L536 395.5V395H534.5V393.5L536.5 391.5V389.5H539.5V387.5L526 386.5L521 388V389.5H524V391.5L526 393.5V394.5H525.5V395L428.5 391.5V382L769 396.5ZM971 387L952 389V377L887.5 301L894 295L971 387ZM450 365L431.5 368.5H428.5V352L323.5 252.5L328 249L450 365ZM727.5 335L713 337.5V330.5L554 159.5L560.5 155L727.5 335ZM71 259L61.5 321V327L45.5 326V324L61.5 214.5L71 259ZM191 199.5L187.5 214.5L171.5 213L180.5 170.5L191 199.5Z" fill="#00FF6A"/>
</svg>
