<svg width="1280" height="720" viewBox="0 0 1280 720" fill="none" xmlns="http://www.w3.org/2000/svg">
<path d="M625 214.5L657.5 218.5L694.5 266L771.5 273.5L797.5 304.5L894.5 286H895.5L931 328.5L957 301.5L1142 271L1244 411V415.5H1242V417.5L1141 278.5L1026 408L952 411.5V389L971 387L894 295L810 379L766 383.5L769.5 385L769 396.5L428.5 382V368.5H431.5L450 365L328 249L192 352L139.5 371V360.5L212 307.5L103.5 301.5L97.5 300.5L82 299.5L81 296.5H79.5L61.5 214.5L45.5 324L43 323.5V316.5L60 201.5L168 212.5L179.5 160.5L456.5 194.5L561 145.5L625 214.5ZM61.5 388.5L23 404.5L22.5 398L61.5 369.5V388.5ZM386.5 292L448.5 351.5L506.5 354L515.5 357.5L517 358.5L604.5 363.5H608V360L710 366H713V337.5L727.5 335L560.5 155L386.5 292Z" fill="#FF5E00"/>
</svg>
