<svg width="1280" height="720" viewBox="0 0 1280 720" fill="none" xmlns="http://www.w3.org/2000/svg">
<path d="M649.5 501.5L543.5 502L546.5 503L544.5 504L545.5 505L547 504L546.5 506L547.5 507L549 506.5L550.5 507L548.5 508.5L549 509.5V511H550.5L549.5 512.5L547.5 513L547 514L548 515L549 516.5L549.5 517.5L550.5 517L551 518L550.5 519L551 520L550 521L551 522.5L550 524L551 525L549.5 525.5L550.5 526.5L549 527.5L668.5 525.5V521.5H669.5V519.5H662V515.5H663V513.5H655.5V509.5H656.5V507.5H649.5V501.5Z" fill="#FF0088"/>
</svg>
