<svg width="1280" height="720" viewBox="0 0 1280 720" fill="none" xmlns="http://www.w3.org/2000/svg">
<path d="M1035 507.5V508H1041L1042 508.5L1042.5 509.5L1043 511.5V514.5L1042.5 516L1041 517.5L1037 518L1031.5 517.5L1030.5 517L1030 516L1029 513V511.5L1029.5 509L1030 507.5H1035ZM1172.5 507.5L1173.5 511L1172.5 514L1171 515.5H1162L1161 515L1160.5 514.5L1160 513.5V508.5L1160.5 507L1161 506.5H1172L1172.5 507.5ZM1235 506L1236 505.5H1240L1241 508.5V510.5L1240.5 512L1240 513L1239 514H1232.5L1229 513.5L1228.5 512.5L1227.5 509.5V507.5L1228.5 505.5H1234L1235 506Z" fill="#0015FF"/>
</svg>
