<svg width="1280" height="720" viewBox="0 0 1280 720" fill="none" xmlns="http://www.w3.org/2000/svg">
<path d="M71.3828 260.212L61.5 320.5L62 420.5L56.5 422.5V474.5L57.5 475.5L62 475V500.5L62.5547 500.639L60.5 500.5V505.5L63.5 506V523L33 523.5L30 522V401.5L61.5 388.5V320.5L71 258.5L71.3828 260.212ZM79.5 296.5H81L82 299.5L91 300L97.5 300.5V499.5L101 501L99 499.5L103.5 502V501.5L98 496L103.5 500.5V301.5L211.5 307.5L139.5 360.5V371L151.5 366.656V502.5H157V364.666L192 352L205.499 341.785L205 505H211L211.498 339.524L250.5 341.5L263 373L266.5 373.152V505H272.5V373.5L270.347 373.32L389.042 378.5H387.5V504.5H392L268.5 505.5L260.934 504.779V368.5L259.5 365V504.643L258 504.5L206.5 505.5L154 502.5L100.957 502.969L97.5 500.5V503L64 500.736V322L95 300.5L91 300L64 318L72.5 266L72.1084 263.456L79.5 296.5ZM525.5 395.189V395.5H526L525.958 403.969L512 403.5L512.5 501L429 502V504L428.93 482.5H480V401.5L428.657 400.004L428.629 391.505L525.5 395.189ZM424 351.5V503.932L392 503.5V441.5H420V388.5L392 387V378.629L400.5 379L401.5 375.5H405V374L392.108 349.506L424 351.5ZM809.5 501.5L757.5 500.5L749.5 499.5L711 499.716V402H712L745 398.5V399H748V400.5L749.5 402V403.688H748.603V404.283H749.5V496.5L751 496L752.5 497.5L752 494.5L752.5 494L754 495L755.5 495.5L755 494L756 492.5L757 492L757.5 494V404H758V403.5H757.5V402L759 400.5V398.5H761V397H766L769 396.5V389H770V385L766 383.5L809.5 379.051V501.5ZM884.5 304.5L901.5 324L868 321L866.5 322.5L905 326L945 373.5L928.007 372.528L927 371.5H926L924 369.5H923V371.5H918L915.5 369H914.5V371H909L906.5 368.5H906V370.5L900 370L898 368H897V370H891.5L889 367H888V369.5H882.5L880.5 367H879V369L873.5 368.5L871 366H870V368H864.5L862 365.5H861V368L855 367.5L853 365H852V367H846L843.5 364.5H842.5V367L838.5 366.5V366.938L823 366L820 369L839.5 370L840 370.5V374.5L844.5 379.346V501L815 501.5V373.967L887.5 301L884.5 304.5ZM859.5 395.5L935 399.031V501L863 501.5V396L859.5 395.5L858 394.222V501.5L847 501V382.038L859.5 395.5ZM630.5 399.185V400H631.5V407L611 406V483H631.5V497.5H630.5V498H632.5V498.5L630 499.5V500H630.5V500.168L571.5 500.5V405.5L534.5 404V395.532L630.5 399.185ZM948 397H948.5V500.5H937.5V399.148L945 399.5L947 396.5L948 397ZM704.5 402H706.5V499.741L641.5 500.106V499.5L640 498.5V498H641L640 497.232V482.5L676.5 483V408.5L640 407.5V399.546L704.5 402ZM1132 288L1143 302.5L1122 300L1120.5 301.5L1145 304L1181 352.5L1175 352V346.5L1158.5 345V351L1152.5 350.5V344L1108.5 340.5V347L1102 346.5V340L1087.5 338.5L1084.5 342V345H1082L1080.5 347H1084.5V366L1102 367.5V348.5L1108.5 349V395.5L1152.5 398V352.5L1158.5 353V371L1175 372.5V354.5L1183 355L1224 410.5L1032 401.5L1029.5 404.5L1226 413.5V497.5H1221.59L1222 428.5L1164.5 426V480.5H1164L1162 475.5L1163 480L1160.5 478L1162.5 480.5L1160.5 479.5L1162.5 481.5L1160.5 481L1161 482.5L1162.5 483.5L1163.5 484.5L1161.5 485L1159 484L1158 485.5L1159 487L1160.5 486.5L1162 487V489L1163 490.5L1160 488.5L1159.5 490.5L1160.5 491L1163.5 491.5L1162 494L1163.5 493.5L1164.5 494.5L1163.5 495L1161.5 494.5L1162 495.5H1163L1164 496V497L1163 496.5L1163.5 498H1147V425.5L1036 421.5V434H1037V445L1036 446V476L1035 480L1033 476.5L1033.5 479.5L1031.5 478L1031 478.5V481.5L1032.5 483L1034 485L1033 485.5L1029.5 483.5L1028 485L1029.5 486L1032 487L1033 489.5L1030.5 488.5L1027.5 489L1032.5 493L1034.5 496.5L1031.5 494.5L1034 498V499H1023.5V408.5H1021L1018.5 409V499L952 498V411.5L1026 408L1134.5 285L1132 288ZM869 483H930.5V404L869 401.5V483ZM281.5 482H379.5V384.5L281.5 380.5V482ZM627 447.5V478.5L614.5 479V447L627 447.5ZM631.5 479H628.5L628 447.5H631.5V479ZM657 479H645V448H657V479ZM670.5 479H658V448H670L670.5 479ZM896.5 478.5L884 478V445H896.5V478.5ZM911 478.5H899.5V445.5H911V478.5ZM923.5 446V478.5H912V445.5L923.5 446ZM437.5 444L437 478H428.914L428.801 443.517L437.5 444ZM473.5 445V478H443.5L443 444.5L473.5 445ZM883 478H872V445H883.224L883 478ZM307 476.5H287.5V435H307V476.5ZM327.5 435.5L328 476.5H308V435L327.5 435.5ZM351.5 436V476.5H332.5L332 435.5L351.5 436ZM371.5 436.5V476.5H352.5V436L371.5 436.5ZM32 415V474.5L32.5 476H37.5V413H36.5L32 415ZM46 410V474L46.5 475.5L52 475L52.5 408H51L46 410ZM70 411V473L78.5 472.5V408.5H76.5L70 411ZM658 413.5V444.5L645.5 444L645 413L658 413.5ZM671 414V444.5H658.5V413.5L671 414ZM627.5 412.5V443.5H614.5L615 412L627.5 412.5ZM631.5 443.5H628V412.5H631.5V443.5ZM912 409V442L900 441.5V408.5L912 409ZM924.5 409.5V442L912.5 441.5V409L924.5 409.5ZM897 408.266V441.5L885 441V408L897 408.266ZM884 408V441L872 440.5V407.5L884 408ZM473.5 407L474 440.5H443.5V406.5L473.5 407ZM438 440H428.789L428.678 406H438V440ZM217 438L256 439L256.5 382L217 380V438ZM401 416V435.5H392V415.5L401 416ZM412 416.5L412.5 435.5H401.5V416L412 416.5ZM248 412V432L236 431.5V411.5L248 412ZM235 431.5H222.5V411H235V431.5ZM352 390.5V431L333 430.5V389.5L352 390.5ZM372 391.5V431H353V390.5L372 391.5ZM328.5 389.5V430.5L309 430V388.5L328.5 389.5ZM307.5 389L308 430L287.5 429.5V388L307.5 389ZM412.5 395L413 413.5H402.5V394.5L412.5 395ZM401.5 394.5V413H391.5V393.5L401.5 394.5ZM248.5 388.5V408.5L236.5 408V388L248.5 388.5ZM235.5 388V408H223V387.5L235.5 388ZM948.5 376V393.467L930.449 375.023L948.5 376ZM620.5 323V332L646 334V325L664 326.5V335L688 337V329L710 330V366L608 360V363.5H607.5V322.327L620.5 323ZM576.5 188.5L686.5 306L663.5 304L664 324L646 322.5V302.5L620.5 300.5V321L607.5 319.5V272.117L604.5 272V363.5L517 358.5H520.5V263.994L615 272.5L615.5 270H618.5V269H619V268L602.5 247.5H601.5L599 245H598V247.5L591 246.5L589 244H588V246L581.5 245.5L579 242.5H578V245L571 244.5L569 241.5H568V244L560.5 243L558.5 240.5H557.5V243L550 242L548 239.5H547.5V242L539.5 241L537.5 238.5H537V241L529 240L527 237.5H526.5V240L518.5 239L516.5 236H516V238.5L507.5 237.5L506 235H505V237.5L500 236.5V239L502 242V245L515 263.5L515.5 263.545V357.5L506.5 354L448.5 351.5L413.599 318.006L430 319V309.5L452 311V320.5L481 322.5V313L506.5 315V354L508 354.5V254L506.5 252V312.5L481 310.5V289L451.5 287V308.347L430 306.5V285L400.5 282.5L399.929 282.785L527.5 182L576.5 188.5ZM355.5 288L419.5 347.5L390.5 346L391.538 348.423L390 345.5V345H387L385.5 342.5H384.5V345L373.5 344.5L371.5 341.5H370.5V344L360 343.5L358 340.5H357V343.5L346 343L344.5 340H343.5V342.5L332 342L330.5 339H329V341.5L317.5 341L316.5 338.5H315V341L304 340.5L302 337.5H301V340L289 339.5L287.5 336.5H286.5V339.5L274 339L273 336H271.5V338.5L259.5 338L258 334.5H257V337.5L250 337V337.972L215.555 336.031L288 283L355.5 288ZM526.5 341.5L598.5 346V280.5L527 274L526.5 341.5ZM592 313.5V341L578 340L578.5 312L592 313.5ZM577.5 312V340L563.5 339V311L577.5 312ZM211.499 339.062L211.5 339L211.937 338.68L211.499 339.062ZM560 311V338.5L546 338V309.828L560 311ZM545 309.828V338L530.5 337V308.5L545 309.828ZM682 321.5V331.5L675 331V321L682 321.5ZM674 321V331L666.5 330.5V320.5L674 321ZM631 318V328.5L623.5 327.5V317L631 318ZM639.5 318.5V328.5H632V317.5L639.5 318.5ZM706.5 327L688 325.5V307L706.5 327ZM674 310.5V320.5L666.5 319.5V310L674 310.5ZM682 311.5V320.5H675V311L682 311.5ZM639.5 308V317.5L632 317V307.5L639.5 308ZM474.5 306V317L465.5 316.5V305.5L474.5 306ZM631 307V317L623.5 316V306.5L631 307ZM464.5 305.5V316.5L456 315.5V304.5L464.5 305.5ZM423 302L423.5 313.5L414.5 313V301.5L423 302ZM413.5 301.5V312.5H407.861L404 308.794V300.5L413.5 301.5ZM593 285.5V309.5L579 308V284.5L593 285.5ZM578 284.5V308L564.5 307V283L578 284.5ZM561 282.5L560.5 307L546.5 305.5V281.5L561 282.5ZM545.5 281.5V305.5L531.5 304.5V280.5L545.5 281.5ZM474.5 295V305L465.5 304.5V294L474.5 295ZM464.5 294V304.5L456 303.5V293L464.5 294ZM399.5 304.476L387.298 292.765L399.5 283.124V304.476ZM423.5 290.5V301L414 300.5V290L423.5 290.5ZM413.5 289.5V300.5L404 300V289L413.5 289.5ZM350 285.5L294 281.5L322 259.5H322.5L350 285.5ZM196.5 215.5L187.5 214.5L191 199.5L196.5 215.5ZM573 186.5L531 181L552 164.5L573 186.5Z" fill="black"/>
</svg>
