<svg width="1280" height="720" viewBox="0 0 1280 720" fill="none" xmlns="http://www.w3.org/2000/svg">
<path d="M156.5 568L164.5 569L218 575.5V619.5H224V567.5H222L221 564.5L222.5 562.5H252L267.5 565.5V570L264 571.252V619L585.5 617.5L584.5 572.5L582.5 571L582 564L583 561.5L585 561H609.5L611 561.5L611.5 567L611 570H609.5L611.5 720H258.5V715.5L210.5 714.5L202 719V715.5L110.5 713L87.5 717.5V712L0.5 707.5V549L156.5 568ZM773.5 566H771.5L774 650.5L1062 648L1060 598.5H1057L1056.5 594L1071.5 592H1101.5V597H1099.5L1103 720H746.5V710.5L742 568.5H739.5V564.5L744.5 561L773 560.5L773.5 566Z" fill="#00D5FF"/>
</svg>
