<svg width="1280" height="720" viewBox="0 0 1280 720" fill="none" xmlns="http://www.w3.org/2000/svg">
<path d="M737 295.5C740.001 295.666 746.701 296.2 749.5 297L750.5 299.5L748.5 303.5H746V313.5L749.5 315C750.5 316.166 751.5 318.9 747.5 320.5L746 321.5V343L750.5 345C751.5 345.666 752.7 347.4 749.5 349V351L746.5 351.5L749 561H744.5L739.5 564.5V568.5H742.239L746.5 710.5H725V660.5L724 580.5L721.5 356.5L720.5 355C718.167 353.666 714.9 350 720.5 346L721.5 344.5V328C718.5 326 714.5 320.6 722.5 315V305C721 305.833 718 306.9 718 304.5C718.001 301.5 722.501 295.5 737 295.5ZM552 295.5C560.8 289.9 572.001 293.5 576.5 296V298.5C583.7 302.899 580.167 305.333 577.5 306V316C585.1 320.4 581 325.166 578 327V343.5C579.2 343.9 579.167 345.333 579 346C585 348.8 581.834 352.5 579.5 354L578.5 355.5L585 561L583 561.5L582 564L582.5 571L584.5 572.5L585.5 617.5H560.5L559 545L558.5 503.5L558 477.5L556 352L554.5 351.5L554 350L552.5 349.5C548.5 345.9 551.834 344 554 343.5L554.5 342L555.5 341.5L555 322H553.5L553 321L552 320.5C548 316.9 550.667 314.666 552.5 314L555 313.5L554.5 303.5L552.5 304V303C546.9 301.4 549.834 298.666 552 297.5V295.5Z" fill="#FF00D0"/>
</svg>
