<svg width="1280" height="720" viewBox="0 0 1280 720" fill="none" xmlns="http://www.w3.org/2000/svg">
<path d="M696 704.5H689.5L687 565.5H688L683.5 377H613.5L617 566L619 720H611.5L609.5 570H611L611.5 567L611 561.5L609.5 561L604.5 368.5H691.5L696 704.5ZM890.5 103.5C936 101 961 144 961 164L969.5 466H986.5V470H984V472L981.5 474H979V476L973.5 480L978 648.5H981.5L832.998 649.946L828 479.5H824.5V478H822.5V475.5H820.5L818.5 474V473L816.5 471.5V468L818.5 466H833.5L828 168.5C827.5 148.667 845 106 890.5 103.5ZM390 487.5C435.6 487.5 505 494.5 534 498V529L277 527V500.5C295.667 496.167 344.4 487.5 390 487.5ZM649 442C657 442 661 447.667 662 450.5H671L672 451.5V460.5C675.5 461.333 682.5 465.1 682.5 473.5C682.443 476.5 680.464 483 673 485V493.5L672 494.5H662.5C661.5 497 657.8 502 651 502C644.2 502 639.5 497 638 494.5H627V485C623.833 484.167 617.5 480.7 617.5 473.5C617.5 464.5 624.5 461.17 627 460.5V451H636.5C637.333 448 641 442 649 442ZM643.5 96.5C695.1 96.5 709 135.5 709.5 155L713 279.5L757 280V288.5L756.5 290.5L545.5 289.5L548 294.5V296.5L543.5 289.5L517.5 289L510.5 288L506 291.5H226.5L223 288H215L210.5 283.5V282.5L210 281.5V279L205 275.5V271L201.5 267V265.5L200 263.5L199.5 262V259.5L195 255L196 254.5L193 251.5V239H550.5L551 276L584 276.5C583.333 242.5 582 173.4 582 169C582 163.5 579 96.5 643.5 96.5Z" fill="#FF0000"/>
</svg>
