<svg width="1280" height="720" viewBox="0 0 1280 720" fill="none" xmlns="http://www.w3.org/2000/svg">
<path d="M720.5 346C714.9 350.4 718.167 353.833 720.5 355L721.5 356L725 663.5H719.412L719.5 667L713.5 704.5H696L691.5 368.5H604.5L609.5 561H585L578.5 355.5L579.5 354C580.667 353.333 582.8 351.4 582 349L711.5 349.5L721.5 344.5L720.5 346ZM220 288L218.5 291L222.5 292.5L224.5 302.5L226 303.5H229.5L231 304.5L269 310.5H523L525.5 300.5L527.5 298.5L523 293.5H521V292.5L519.5 292L517 289H517.5L543.5 289.5L548 296.5L548.5 295.5H552V297.5C547.2 300.7 550.333 302.5 552.5 303V304L554.5 303.5L555 313.5C547.4 315.1 549.833 318.833 552 320.5L553 321L553.5 322H555L555.5 341.5L554.5 342L554 343.5C548.8 345.5 550.833 348.333 552.5 349.5L554 350L554.5 351.5L556 352L560.5 617.5L264 619V571L267.5 570V565.5L252 562.5H222.351L221.196 564.5L222 567.5H224V619.5H218L217.5 522H208.5V393H217L215 288H220ZM688 565.5L616.5 566L613.5 377H683.5L688 565.5ZM390 487.5C344.4 487.5 295.667 496.167 277 500.5V527L534 529V498C505 494.5 435.6 487.5 390 487.5ZM953.5 514H850.5L849.5 479.5H952L953.5 514ZM649 442C641 442 637.333 448 636.5 451H627V460.5C624.5 461.17 617.5 464.5 617.5 473.5C617.5 480.7 623.833 484.167 627 485V494.5H638C639.5 497 644.2 502 651 502C657.8 502 661.5 497 662.5 494.5H672L673 493.5V485C680.464 483 682.443 476.5 682.5 473.5C682.5 465.1 675.5 461.333 672 460.5V451.5L671 450.5H662C661 447.667 657 442 649 442ZM961 164C961 144 936 101 890.5 103.5C845 106 827.5 148.667 828 168.5L833.5 466H818.5L816.5 468V471.5L818.5 473V474L820.5 475.5H822.5V478H824.5V479.5H828L833 650L774 650.5L771.5 566H773.5L773 560.5L749 561L746.5 351.5L749.5 351V349C752.3 347.8 751.333 345.833 750.5 345L746 343V321.5L747.5 320.5C751.1 318.9 750.333 316.167 749.5 315L746 313.5V303.5H748.5L750.5 299.5L749.5 297V295.5L752.5 297H755L757 289V280L715 279.5L712.998 279.454L709.5 155C709 135.5 695.1 96.5 643.5 96.5C579 96.5 582 163.5 582 169C582 173.4 583.333 242.5 584 276.5L551 276L550.5 239H550.387L547.5 65L746.5 67.5V75L985.5 76L1000 648.5H978L973.5 480L979 476V474H981.5L984 472V470H986.5V466H969.5L961 164Z" fill="black"/>
</svg>
