<svg width="1280" height="720" viewBox="0 0 1280 720" fill="none" xmlns="http://www.w3.org/2000/svg">
<path d="M756.5 290.5L755 297H752.5L749.5 295.5V297C748 296.5 743.5 295.5 737.5 295.5C730 295.5 719.34 298 718 303C716.928 307 720.553 306 722.5 305V315C719.167 317 714.3 322.4 721.5 328V344.5L712 349.5L582 349C581.667 348.167 580.6 346.4 579 346C579.167 345.5 579.2 344.3 578 343.5V327C580.833 325 584.7 320 577.5 316V306C580.167 305.333 583.7 302.9 576.5 298.5V296C572 293.5 560.8 289.9 552 295.5H548.5L545.5 289.5L756.5 290.5ZM223 288L226.5 291.5H506L510.5 288L517 289L519.5 292L521 292.5V293.5H523L527.5 298.5L526 300.5L523.5 310.5H269L231 304.5L229.5 303.5H226L224.5 302.5L222.5 292.5L218.5 291L220 288H223Z" fill="#1500FF"/>
</svg>
