<svg width="1280" height="720" viewBox="0 0 1280 720" fill="none" xmlns="http://www.w3.org/2000/svg">
<path d="M494.5 382.5C462.1 378.1 440 378 433 378.5L433.5 368L433 359.5L433.5 352L432.5 350L431 348H428.5L427 348.5L426 350V353L425.5 355.5L423.5 354.688L420 356H418.5L416.5 358L415.5 357L415 355.5L413.5 353L413 350.5L412.5 347L411 344V340.5L410 339L407.5 338.5V345L408.5 347L409 350L408.812 351.5L408 351L406 349.5L405.5 345.5L406 342.5V338.5L404.5 337L405.5 336L406 333L405 332L406 331L408 330L409 328L411 327.5L413 329H415.5L416.5 331.5L416 335L419 346L420 349.5L420.5 355.5L423.5 354C423.5 353 423.4 350.9 423 350.5C422.6 350.1 422.167 346 422 344L421 340L419.5 335L420 333L419 329L418.5 326.5V323.5L420.5 322L421.5 321.5L422 323.5L423.5 326L424 330L426 332.5V330L424.5 322.5L425 319.5L427 320.5L430.5 322.5L434.5 324.5H437.5L439 325L442.5 329L447.5 336.5L452.5 343.5V338L451.5 333V330.5L453 329.5L455 332.5L455.5 336.5L456 344V350L458 353L460.5 354.5L463.5 355.5L466 357L469.5 360L473 363.5L474 365.5L475 364L477 362L479.5 359L478.5 356.5L468.5 344.5L466.5 341L467.5 338.5H470.5L473.5 341.5L477 347.5L480 352.5V358L481.5 356.5L483.5 352V349L475.5 339C474.333 337.5 471.9 334.4 471.5 334C471.1 333.6 469 331.833 468 331L463 329L459.5 328L458.5 325.5L461 324L464.5 325L473.5 331L476.5 334.5L479.5 340V342.5L481.5 344V340L478.5 333.5L476 328L472.5 325L467 321L462 319L457.5 317L458.5 315H462L465 316L470 319L475.5 324L471 316L465 308L461 305.5L456.5 302L449.5 298L445 296L439 295L437 296L434.5 297V299L436 302L439 307V309L438 310L434.5 306.5L430.5 304H426L421.5 306.5L418.5 303L415 298L408.5 294L402 290.5V293L403.5 296.5L404 300L402.5 303L400.5 304.5L398.5 305L397 304L397.5 302L399.5 299L401 293.5V290L400 286L398.5 284.5L393.5 281.5L390.5 279.5L385.5 278.5L387.5 285L388.5 290.5L389 294V297L386.5 298L384 297L383.5 293.5L384 288.5L383 285L381.5 281.5L379 278.5L375 276L368.5 275L359 274H355.5L350 276.5L347 280.5L346 283.5L350.5 286L357.5 290L364.5 293L372 297L378 301L380 303H377L375 302L366.5 299.5L360 297L350.5 295H346L349 299.5L351.5 303.5L354 305L360 306.5L366.5 307L370.5 308.5L376 309L379 311.5V313L369 311H360L355.5 311.5L359 314L363 315.5L367 317.5L371.5 319L371 322.5L375 326.5L376 328H378V323.5H380L382 322.5L381.5 320.5L383 318.5H386.5L389 320.5L393 322.5L394.5 324L396 326.5L394.5 328.5L393.5 331H402L402.5 332.5V333.5L402 336.5V341L402.5 346L404 351.5L406.5 356L408.5 359.5H406.5L402 358.5H398.5L396.5 357L393.5 354H391.5L390.5 355H389L387.5 354L386.5 350.5L384.5 349.5H382L381.5 347.5H379L376.5 349L376 355L372 377L289.5 376L286.5 363L284.5 351L283.5 344L282.5 341.5L283.5 340.5L282.5 337.5L281 335.5L278.5 334.5H275L261 335.5H241.5L201.5 334.5L181.5 333L153 330H151.5L148.5 331.5L147.5 334.5L148 336.5L150.5 338.5V379L101 382L73 383.5L63.5 385.5L60 387L57 378.5L54.5 372L54 369L52.5 363.5L48.5 352.5C46.1 343.7 41.5 336.833 39.5 334.5C37.5 332.333 31.7 328 24.5 328C17.3 328 12.5 332 11 334C7.4 328.4 2.16667 327.333 0 327.5V0H497L494.5 382.5ZM33 318.5L280.5 322.5L285 320L286.5 52L34.5 14L33 318.5Z" fill="black"/>
</svg>
