<svg width="1280" height="720" viewBox="0 0 1280 720" fill="none" xmlns="http://www.w3.org/2000/svg">
<path d="M759 410L742.5 408.5L757 348.5V336.5L751.5 337.5L741 339H707.5L689 338L672.5 337L664.5 335.5L658 334H652.5L636 396.5L579 391L590 342.5L594 341V337L591.5 334.5L581 335.5L552 334.5L534 333.5L528 332.5L524.5 331.5L521 333.5L519 338.5L515 349.5L509 348.5V287L517 284.5L522 287V296.5L525 300L525.5 304.5H531V300L534 296.5L533 290L534 287.5L536 287L540 287.5L542.5 292.5V296L544.5 298.5V304.5H551.5L550 302V300L552.5 296L551.5 287.5L554.5 283V278L551.5 276.5L549.5 277.5L544.5 274.5L542 277.5L539 278L534 280L533 278L532 271.5L525 273.5L520.5 271.5L519 271L515.5 271.5V274.5L516.5 279L515.5 280.5L513.5 282.5L509 281.5V180.5L510.5 183L512.5 183.5L525 180.5L526 183V196L550.5 198.5L550 184.5L526 182L525.5 180.5L530 179L535 177.5L538 176.5L539 174.5L538.5 173L536.5 172L517.5 170L514.5 170.5L512 171L510 172L509 174.5V104.5L556 112.5L761 45.5L759 410ZM1078.5 -0.5L1077 119.5L1074 233.5L1067 357.5L1032.5 359.5H1016L1020.5 357.5L1023 353.5V349L1020.5 344L1016 342.5H1008L990 344L965 342.5L966.5 -0.5H1078.5Z" fill="#FF0000"/>
</svg>
