<svg width="1280" height="720" viewBox="0 0 1280 720" fill="none" xmlns="http://www.w3.org/2000/svg">
<path d="M966 130.5L931.5 142L864.5 127V0H966V130.5ZM733.5 0L727.5 2.5L727 4V11L728.5 12L732.5 14H734.5L772 0H810.5V30.5L556.5 112.5L509 104.5V75.5L510 74.9229C510.167 76.1152 511.5 78.1 515.5 76.5C519.5 74.9 549.5 62.1667 564 56C565.333 55.1667 567.2 53.1 564 51.5C560 49.5 558.5 50.3301 556 51C554 51.5359 525.833 63.5566 512 69.5C509.5 71 510 74.5 510 74.5C510 74.5 509.667 75.6152 509 74.9229V0H733.5Z" fill="#0400FF"/>
</svg>
