<?xml version="1.0" encoding="UTF-8"?>
<svg id="Layer_1" xmlns="http://www.w3.org/2000/svg" version="1.1" viewBox="0 0 1280 720">
  <!-- Generator: Adobe Illustrator 29.8.1, SVG Export Plug-In . SVG Version: 2.1.1 Build 2)  -->
  <defs>
    <style>
      .st0 {
        fill: #fccf3d;
      }
    </style>
  </defs>
  <path class="st0" d="M656.31,111.4l-.04-.03-4.94,174.03-98.33,17.17-7.02-203.95-212.28-23.67,38.76,255.46-196.08,34.93c.19,3.03-.66,6.16-.66,6.16v1.99c4.64-.76,13.46,1.42,13.46,1.42,10.52,3.6-.95,9-.95,9l.66,10.71c1.14,0,2.09,2.18,2.09,2.18,3.03,0,4.36,4.27,4.36,4.27,0,0,5.12,2.37,3.32,6.07-1.8,3.7-10.24,5.5-10.24,5.5-.19,8.34,12.8,25.31,12.8,25.31,8.72.85,7.39,5.69,7.39,5.69,9.38,2.46,10.05,7.49,10.05,7.49,31.62-1.31,32.14,5.49,32.14,5.49,0,0,29.53-2.61,42.59-9.93,13.07-7.32,25.87-9.41,25.87-9.41,22.21-8.62,27.25-4.19,27.25-4.19l109.97-31.49s.52,2.41,1.72-3.44c1.2-5.85,13.77-4.13,13.77-4.13l.52-7.06,10.15-2.41.86-7.57,2.07-3.27-21.34,7.57-20.31-9.12c.34-1.89,6.2-4.13,6.2-4.13l.34-6.54,3.61-1.2s-2.24-4.82-6.02-8.95c-3.79-4.13-.86-9.64,4.99-14.28,5.85-4.64,11.87,2.41,11.87,2.41,0,0,9.29,8.09,4.99,9.12-4.3,1.03-5.51-4.47-9.12-2.41-3.61,2.07-1.72,6.71-1.72,6.71l4.65,4.3,7.57,1.38,2.07-2.93,5.16-3.1,5.33,3.1c1.2-5.85,4.82-6.71,4.82-6.71,0-7.92,6.54-12.56,6.54-12.56l-1.72-11.53-33.73,7.74-10.15-2.93-11.36-5.16,8.09-3.44-4.3-8.26s-1.38-11.36-1.38-15.14,2.93-6.2,6.02-9.29,2.07-15.66,2.07-15.66l6.2-.34s1.2,2.58.86,6.37c-.34,3.79,4.47,9.64,4.47,9.64l7.4,4.99,3.27-8.09.69-6.2,3.1-4.65.34-15.83c2.58-3.96,4.82-.34,4.82-.34l.86,8.78.52,7.06,5.51,5.16.17,5.68h2.24l4.3-3.96c4.3-3.96,2.41-14.28,2.41-14.28h6.2l.34,3.96c-.17,1.89,1.55,9.81,5.33,11.87,3.78,2.06,5.33,7.57,5.33,7.57v18.41l-.34,4.13,12.05,4.13v2.07l-24.61,5.33.52,7.92,3.79,6.71,3.27,3.27,2.41,4.82s.17-.86,1.2-3.44c1.03-2.58.69-4.3-.34-9.12-1.03-4.82,4.65-3.61,6.37-3.44,1.72.17.86,9.12.86,9.12l1.55,6.88,46.64-.34c-1.03-6.37,3.27-6.71,7.92-8.95,4.65-2.24,52.49-11.7,63.85-14.28,11.36-2.58,29.94.52,35.62,3.27s2.24,8.43,2.24,8.43l13.11-3.01,9.29-216.19-42.19-4.42ZM410.44,245.07l-12.75-104.57,113.42,4.42,4.94,91.31-105.61,8.84ZM-2.63,35.64l61.38,8.48,74.66,254.39-12.54-5.9s-8.66-4.42-18.44-2.03c0,0,8.48-5.53-2.4-15.3l-.55,12.17-6.82-8.48s-12.54-15.86-17.88-17.7c-5.34-1.84-9.59-8.3-14.93-6.82-5.34,1.48-5.35,4.79-.37,4.98,4.98.19,4.79,2.95,6.45,4.98,1.66,2.03,7.56,8.66,7.56,8.66,0,0-8.48-4.98-11.98-9.22s-15.3-10.51-15.3-10.51c0,0-20.83-18.07-40.93-14.56l5.35,4.42s19.91,10.14,33.55,10.88l9.59,6.82,9.59,8.66s7.19,6.64,16.59,9.22c9.4,2.58,11.98,9.4,11.98,9.4l.74,5.53,6.82,1.29.18,2.95s-10.14-4.42-15.3-2.77c0,0-3.32-9.59-9.4-10.69-6.08-1.1-10.88-4.06-10.88-4.06l4.61-1.84s-11.06-6.45-16.96-5.72l-2.77-11.61-3.87,4.24-1.29-4.79-4.24,7.56s-14.01-11.43-15.49-7.74c-1.48,3.69,2.58,9.22,2.58,9.22l5.72,6.64-15.67-9.4,4.98-6.45s-19.36-4.61-23.78,2.58c-4.42,7.19-.54-227.37-.54-227.48ZM-2.63,35.64h0s-.01,0-.01,0h.01ZM86.6,495.17c-5.13,5.13-2.7,11.87-2.7,11.87l-10.25,3.78h0s-50.97-125.95-50.97-125.95l10.52-15.1-4.05,17.26c-4.04,17.26,12.41,28.32,12.41,28.32,0,0,.27-10.52,1.62-22.65,1.35-12.13-4.31-21.57-4.31-21.57l5.93-1.08s8.9,5.4,12.41,8.36c3.51,2.96,9.44,4.58,9.44,4.58l2.97,5.39c-9.71,17.8,1.89,30.74,1.89,30.74l6.74-7.55c-.54,6.2,4.31,10.25,4.31,10.25-.54,8.9,6.47,14.02,6.47,14.02-.54,9.17,6.2,15.64,6.2,15.64-1.08,7.55,4.58,9.98,4.58,9.98-.81,8.36,1.62,10.25,1.62,10.25,0,0-12.95,4.59-17.53,8.09-4.58,3.5,2.7,15.37,2.7,15.37ZM169.09,415.89s5.61,30-.37,32.19l-1.59-.61-5.85-19.39-18.66,4.39,2.68,9.39s-20.36,6.46-27.8,13.41c0,0,1.14,5.19-.28,9.91l-.03.03s-3.27-10.15-8.84-13.75c0,0-.33-9.16-5.89-12.76,0,0-1.31-10.47-5.56-12.76,0,0-.33-9.16-6.87-14.4,0,0,1.31-4.91-4.58-12.76,0,0,3.93-11.78,3.6-16.04,0,0,19.31,43.53,33.71,48.11,0,0-1.64-17.35-7.2-25.53,0,0,6.55-6.87-1.96-13.75-8.51-6.88-29.78-20.29-29.78-20.29l-6.22-.33-3.27-7.53-1.64-8.84s9.82,3.27,9.49,10.8l13.75-6.22,11.13,8.84,1.64,3.93s9.49,2.95,10.8,9.82c0,0,3.27-7.53-4.91-15.05-8.18-7.52-15.05-8.51-16.04-12.44l2.95-2.95-2.62-5.24-5.89-4.58s12.11,3.6,17.67,11.45c5.56,7.85,15.05,4.58,15.38,17.35,0,0,6.87-.65,4.58-4.91-2.29-4.26-17.67-12.76-19.64-17.02-1.97-4.26-11.13-16.69-11.13-16.69l-.33-2.29,3.6.65-1.96-3.27s11.45-3.27,14.73,9.82l1.31-5.24,6.22,9.82.98-7.85,6.22,11.45,5.24,4.58,2.29-1.96,12.44,10.15s-2.95,3.27,1.64,6.22c4.59,2.95,2.95,2.4,2.95,4.47s6.34,7.56,6.34,7.56l-3.66,2.07s-16.46,4.51-10.97,8.29c5.49,3.78,8.29,7.68,8.29,7.68l3.54,6.83s-1.1,3.41-1.34,4.51c-.24,1.1-1.59,2.32-1.59,3.29s-4.51,2.44-1.46,5,14.76,2.44,14.76,2.44ZM95.76,337.92l-14.15-8.71,2.18-7,4.04.15,8.56,10.73,6.84,8.87-7.47-4.04ZM70.57,316.14l10.57,5.44-1.86,5.14-6.54-3.58-2.17-7ZM58.28,363.27l-9.02-6.38-14.94-14.62,4.2.78-6.69-5.13,3.12-3.43,9.33,10.74,1.24-5.76-2.33-8.4.31-6.06,11.82,11.04,5.13,11.35,4.98,13.07-.15,9.02-7-6.22ZM35.57,349.12l16.33,16.48-4.51.94-7.93-4.05-.78-5.75-3.11-7.62ZM63.25,287.21l-3.11-.31-2.49-1.56,6.85-.93,7,2.18,6.38,3.88,3.11,4.2-11.36-6.68-6.38-.78ZM86.12,302.92l-5.13-2.02-8.09-5.91-8.56-5.76,5.91.93,11.98,7,2.8.63,4.51,5.28.78,1.71-4.2-1.86ZM110.38,313.03l1.09,4.35,1.87,3.74-3.42-1.56-1.87-2.95-6.84-8.09,4.04.15,5.13,4.36ZM121.27,303.38l14.47,2.49,12.44,37.65-3.73-1.56-10.89-8.24-1.24-1.71,2.02-5.45-1.25-7.15-9.02-9.8-7.77-7.16-7.16-2.49-6.22-6.84,3.89,1.09,5.75,3.73,8.71,5.44ZM26.38,282.12l6.43-2.69-8.71,13.26-7.88-1.24,10.16-9.33ZM28.87,367.53l-9.75,8.91L-1.61,323.79l-.82-53.49,20.52,7.05-6.84,6.84.62,3.73-.21,3.11-3.11-2.48H1.5l-1.03,3.73,4.14-.42-6.22,7.05.21,14.93,6.22-5.6,5.6,5.18-1.25,4.15,6.64,2.69.2,13.06-.62,7.05-6.01,4.15,3.11,1.86.41,4.98,4.15,2.69,3.52-2.69.83,8.5,7.47,7.67Z"/>
</svg>