<?xml version="1.0" encoding="UTF-8"?>
<svg id="Layer_1" xmlns="http://www.w3.org/2000/svg" version="1.1" viewBox="0 0 1280 720">
  <!-- Generator: Adobe Illustrator 29.8.1, SVG Export Plug-In . SVG Version: 2.1.1 Build 2)  -->
  <defs>
    <style>
      .st0 {
        fill: #c42da1;
      }
    </style>
  </defs>
  <path class="st0" d="M1286.55,725.86l-54.07.92,53.15-83.4.92,82.48ZM333.68,74.95l38.76,255.46-196.08,34.93-3.89-5.84-6.81-.97-8.76-1.95-8.73-13.06-12.44-37.64,3.17-2.84-5.49-4.53L58.75,44.12l274.95,30.83h-.02ZM300.99,94.72l21.41.97-1.46-14.11-246.27-22.87,4.38,18.01,22.87,4.87,74.46,264.76h.02s163.53-26.78,163.53-26.78l-38.94-224.85ZM545.96,98.62h.01s0,0,0,0h0ZM545.97,98.62l110.29,12.75-4.94,174.03-98.33,17.17-7.02-203.95ZM550.12,106.47v10.5l5.79,174.27,76.19-11.76,3.26-148.4,7.06.9,1.99-2.53h0s1.81-12.48,1.81-12.48l-96.1-10.5Z"/>
</svg>