<?xml version="1.0" encoding="UTF-8"?>
<svg id="Layer_1" xmlns="http://www.w3.org/2000/svg" version="1.1" viewBox="0 0 1280 720">
  <!-- Generator: Adobe Illustrator 29.8.1, SVG Export Plug-In . SVG Version: 2.1.1 Build 2)  -->
  <defs>
    <style>
      .st0 {
        fill: #f42fc1;
      }
    </style>
  </defs>
  <path class="st0" d="M830.89,32.53l-.84-34.3h159.38l-1.62,35.09-156.92-.79ZM986.66,495.74l-8-25.23-18.15-16.92-14.77-13.54-20.61-.3-6.77-2.16,10.46-2.77-10.16-.92,14.77-4.92,8.62,3.07-10.77-6.76,11.69-3.39,9.54,1.54-16.62-5.85-14.15-.92,7.69-3.69,10.46.31-5.84-3.08-15.08-2.15-90.07-.51-5.62,122.65,2.77,1.23,5.54-1.23,1.54,2.47,2.77.61,2.77-2.15,10.46.92,1.54,3.08,3.38-3.39,11.08,2.46v2.16l4.31-1.85,12.61,5.54,5.54,5.54.61,15.38.93,35.38,94.15.93,14.77-4.92-3.7-51.69-7.69-44.93ZM1018.94,580.9l-1.04,11.63,16.87,7.27-.24-101.39-15.59,82.49ZM1102.23-1.61l-.53,35.47h3.18l.79,384.88-5.56,1.59,3.18,175.76,15.73.09V-2.69l-16.79,1.08ZM233.35,597.1l18.75.31,14.44-130.32-15.67-.31-17.52,130.32ZM342.15,572.2l-6.45-1.53-2.15-103.58-49.18.31-17.21,129.7,161.05.31,6.76-5.23-1.23-18.75-91.59-1.23ZM360.9,529.79s13.83-9.22,35.96-8.61l77.15-.31,35.04,1.23,13.22,1.54-1.23-9.84-6.45.92h-174.9s.92,27.67.92,27.67l2.46,4.61,17.83-17.21ZM523.8,467.09l1.54,56.86,7.68,2.15,4.3,16.91-3.38,13.52-8.6,15.98-78.38.92-.61,17.83,12.98,6.73,209.75-.98-16.81-129.61-128.47-.31ZM685.41,596.87l30.89-.3,1.78-58.21,1.19-71.87-47.81-.3,13.95,130.68ZM586.94,411.53v-24.92h-25.05c.76,13.4,11.58,24.17,25.05,24.92ZM589.94,358.69v24.92h25.04c-.76-13.4-11.58-24.17-25.04-24.92ZM586.94,358.69c-13.47.75-24.29,11.52-25.05,24.92h25.05v-24.92ZM589.94,411.53c13.47-.75,24.29-11.52,25.04-24.92h-25.04v24.92ZM721.32,210.87l.91,66.47v.02l-2.73,111.54.02,33.8-8.98-11.88-7.88-.41.14-24.73-3.87-3.45-12.16.14,1.52-10.92-1.11-7.6-8.57-.28.97-3.87,6.49-5.11,4.01-2.21-5.94,1.66,2.76-2.63,4.28-1.8-6.63.69-1.8,1.52.55-3.18-4.84,3.04,2.49-4.7-3.32-1.93-.83-3.87-1.8,2.07-.83,3.45-1.93-3.32-.55,4.7-2.76-.83,2.76,3.87v1.38l-7.19-5.94,3.87,7.05-7.19-2.63,3.04,2.49,4.7,3.04,1.8,2.49-6.77-3.18-4.84-1.24,10.78,5.8,1.52,1.11.69,1.93-8.57.83-.41,12.99,2.07,6.63-38.55-.97-1.52,28.6-24.38.39c10.18-4.67,17.27-14.91,17.27-26.78,0-16.24-13.27-29.46-29.59-29.46s-29.59,13.21-29.59,29.46c0,11.65,6.83,21.74,16.71,26.52l-47.14-.55v-92.44l-2.21-3.32-3.32-1.93-132.51-.14-3.32,2.21-2.07,3.73-.28,89.81-5.25,3.04-50.57-1.24,1.52-33.3-1.24-34.68s.41-10.37-5.11-16.72c-5.52-6.35-27.77-15.06-27.77-15.06l-.55-4.28-4.28-.83.41-8.98,47.26-1.11.55-6.36-.41-71.99s-6.35-1.52-11.74-2.21l-82.91-1.52-7.88,1.38-1.24,1.66-1.24,79.45h49.05l-.69,9.4-3.59.55-1.93,4.7-24.87,13.4-4.42,4.56s-1.66,1.66-2.49,8.71-1.11,70.75-1.11,70.75l.69,3.18-18.65-.14-55.41,15.2-.51,40.26h60.77l-13.67,130.92-69.89.25L149.85-7.74,717.22-3.56l4.1,214.43ZM688.51,209.67l7.36-9.37-9.71-38.82-7.03.33,4.35-21.08,8.03-20.75-10.04,10.71,3.35-22.42-5.69,13.72-2.34-12.72-6.36,15.73-1,31.79-3.35,1.34,2.68-24.77-4.69,16.4-3.01-31.12-3.68,27.44-.67,15.39-3.68,2.01-6.36,36.14,4.35,9.37-8.7-.33v-62.58l-9.04.67-1-8.7-31.12.67v8.03h-7.7l-.67-92.37-160.3-.67-1,155.62-8.37.33.67,14.73,9.04,4.02,257.69.33,4.35-5.69-.33-13.39h0s-6.02.01-6.02.01Z"/>
</svg>