<svg width="1280" height="720" viewBox="0 0 1280 720" fill="none" xmlns="http://www.w3.org/2000/svg">
<path d="M497 129V354.5L412 355.5L413 167.5L210.5 142.5L200 98.5L199.5 97L198 96L188.5 94.5V139H185.5L184.5 140L186 184L184 183.5V181L181.5 179V183.5L182.5 186L183 186.5V188L184.5 189.5L186 190H188.5L189 357.5H178L175.5 75.5L497 129ZM185.5 160.5L188.5 161V184.5L186 184L185 149.5L185.5 160.5ZM776 116.5V133L769 131.5V114L776 116.5ZM738 110.5V118L736 118.5V120.5L732.5 122.5L731 122H730L729.5 122.5H728.5L728 123.5V125L726 126L690.5 118.5V99.5L738 110.5Z" fill="#26FF00"/>
</svg>
