<svg width="1280" height="720" viewBox="0 0 1280 720" fill="none" xmlns="http://www.w3.org/2000/svg">
<path d="M685.5 528.5C685.5 531.667 685.6 538.6 686 541C686.4 543.4 687.833 545 688.5 545.5C686.1 546.3 686.833 551.833 687.5 554.5C687.833 556.333 689.1 562 691.5 570C693.9 578 695.167 591 695.5 596.5L696 627.5L679.5 632.5L678.5 530L685.5 528.5ZM538.5 6.5L543.5 0H829L918 32L889.5 45.5L798.5 15L796.5 15.5L797.5 79L755 68L753.5 68.75V67.5L674 46L670.5 48.5L670 48L640.5 70.5L641 307.5L785 311.5L799 311L798 545L788 547V540.5L786.5 539L788 537.5L788.5 536L790 525L794 470L794.5 453C796.5 452.2 797.667 450.333 798 449.5V439.5C798 438.7 795.333 437.833 794 437.5L770 432.5L765.5 432H762.5L744.5 433.5C724.167 435.333 682.8 439.1 680 439.5C677.2 439.9 676.167 441.667 676 442.5V451C676 452.6 677 453.333 677.5 453.5L680 454.5L681 468.5L590 441V408L586 407L465.5 414L465 409.5L463.5 408.5L465 407.5V402.5L470 400.5V399L463.5 397L461.5 396.5H454L448.5 397.5V398L450.5 399V403.5L450 409V415L66 436H51L48.5 235L58 239.5L63.5 240V366L581.5 359L583 57.5L350 0H513.5L538.5 6.5ZM684.5 519L679 516.5V487L682.5 486.5L684.5 519ZM52 155L54.5 156.5L56.5 230L48.5 226V152L52 155ZM63.5 149L53 140L51.5 139L48 138.5L47 0H63.5V149ZM936.5 39V56.5L930.5 59L899 49L921 38.5L928.5 35.5L936.5 39Z" fill="black"/>
</svg>
