<svg width="1280" height="720" viewBox="0 0 1280 720" fill="none" xmlns="http://www.w3.org/2000/svg">
<path d="M44.5 147.5V149L48.5 152V226L47.5 225.5L47 224L46.5 201.5L43.5 200.5L34 200H29L29.5 224.5L30.5 226L48.5 235.5L51 436L0 458V159L6.5 164L13 165V143.5L44.5 147.5ZM175.5 75L178 357.5L154.5 358H120V351H157L173.5 349.5L175.5 348.5L171.5 347.5H158.5L148.5 348.5L114 349L113 351V358H79.5V330.5L77.5 329H73.5V0H150.5L175.5 75ZM99.5 197L79.5 195L78 196V213L83 216.5H87.5V201.5L99.5 202.5L101.5 261L116.5 268.5H126.5V252.5L126 252H116.5V262L113 260L111.5 205L116.5 206V203.5H120.5L110 193.5L99.5 192.5V197ZM48 138.5L0 133V0H47L48 138.5Z" fill="#FF0000"/>
</svg>
