<svg width="1280" height="720" viewBox="0 0 1280 720" fill="none" xmlns="http://www.w3.org/2000/svg">
<path d="M534 52C533.667 52.1667 532.5 52.7 530.5 53.5C528 54.5004 526.001 60.9999 540 61C551.2 61 550.667 57.3333 549 55.5L576.5 62.5V107L530.5 96.5L497 129L175.5 75.5L150.5 0H322.5L534 52ZM811 101L807.5 100.5L776 116.5L769 114V112.5L798.5 98L811 101ZM738 83V110.5L690.5 99.5V71L738 83ZM789 95.5L769 105.5V90.5L789 95.5ZM1018 1.5L936.5 39L928 35.5L1004.5 0H1016L1018 1.5ZM918 32L829 0H984L918 32Z" fill="#FF00BF"/>
</svg>
