<?xml version="1.0" encoding="UTF-8"?>
<svg id="Layer_1" xmlns="http://www.w3.org/2000/svg" version="1.1" viewBox="0 0 1280 720">
  <!-- Generator: Adobe Illustrator 29.6.1, SVG Export Plug-In . SVG Version: 2.1.1 Build 9)  -->
  <defs>
    <style>
      .st0 {
        fill: #606060;
      }
    </style>
  </defs>
  <path class="st0" d="M1280,0v705.62l-41.65-5.01-.42-10.63,7.33.65,12.08-26.34v-5.62h-.42l.09-122.62.33-.04-.22-5.92-49.29-2.42-.64-13.05c31.33-7.33,36-39.38,36-39.38-3.06-1.77-21.02-5.96-21.02-5.96-.08,6.6-9.74,31.17-30.12,27.22s-22.39-26.34-22.39-26.34l-6.36.89,7.25-46.47c-.08-2.26-3.34-1.81-3.34-1.81l7.09-19.45h16.59s22.56-.32,22.56-.32v-1.25l-.25-.44.08-28.95-.28-38.3c1.57-1.77-1.49-2.17-1.49-2.17l-8.26-.77-22.07-.44-18.08.08-21.34.32-19.17.93s-16.51,1.01-21.74,1.49-5.52,1.73-5.52,1.73l.32.81.12,65.36h-.44s0,.97,0,.97l.72.68,13.05-.08,27.58.08,34.65.31-1.39,3.26-6.89,18.63-5.22,14.47-6.25,16.4-.36,2.33-3.59,9.06-5.8,16.01-2.87,7.97-4.53,12.17-3.56,9.21-4.29,10.75-32.24-1.81-18,7.91v-71.46l-.42-22.65v-23.01l-.54-20.66-1.57-31.95c1.39-1.87-.57-3.47-2.33-3.47s-2.6,1.51-2.6,1.51l-17.18.03-26.49.27-22.89.42-19.48.27-39.35.66-36.82.63-25.07.39-23.38.27-20.08.36-20.51.36-19.6.33-23.04.36-12.62.3-22.35.36-12.59.33-13.89.3-24.7.27c-.91-.82-3.96-1-3.96-1-8.43,1.3-8.12,12.32-8.12,12.32l-.36,71.91v1.04s-.19.94-.19.94l-1.24,4.11-1.48,5.47-.69,2.78-.42,3.29-.79,1.27-.94,1.63-.94,3.26-.91,3.29v1.63l-.3,1-.51,1.33-.97,1.93-.88,2.81-.09,3.23-1.3,1.18-1.45,1.51-1.84,2.51-1.54,2.63-1.24,2.66-.51,1.57.06,1.36-33.66-1.89-2.42-6.24-3.66-9.26-3.87-9.34-5.52-13.01-2.62-6.6-.93-2.94-.4-3.5-.52-10.43-.68-18.24-.6-.97.68-15.18h37.25s.72-.32.72-.32v-.91l-.32-.22v-51.56l.06-.97-.85-.48-1.81-.42-9-.48-12.14-.3-9.91-.36-15.16.06-19.63.36-9.91.3-4.23.48-1.45.66.12,54.12,43.97.06-.42,8.15-.97,10.27-1.93,11.23-2.3,11.78-1.39,6.77-.42,1.87-3.08,8.21-3.93,12.08-6.28,18.42-1.39,4.47s-2.9.08-5.6.08-7.25.77-7.25.77l.36-.89.48-1.89.2-2.3-.24-1.89-.89-3.99-.68-3.22-.72-3.79-.04-2.5-.89-.12-.24-1.09.04-.81.08-.64.6-.68-.04-.4-.28-.68,1.13-1.17,1.77-2.05h-.77l-.93.56h-.68l1.73-1.61,1.73-.56-2.3.04-.37.48-.72.93-.64-.52.28-.81.52-.68.77-.16.85-.4,1.17-.93-.08-.81,1.13-1.21-1.33-.28-.81.52-.6-.56-.16,1.01-.56.32v-.56l-2.05.08v-.36l1.13-.12,1.01-1.17.56-1.93.6-.52-1.33-.4-.93.77-.36-1.33-1.53-.16-.32-.56-1.57.08.44-.77-.12-1.73-.77.2-.44-.97-1.69,1.17-.48-.48-1.57-1.41-1.53,1.53-1.37.36-.44.64h-.85l-1.17,1.61-.6-.44-.56-.24-1.05-.4-.68-.2-2.21,2.46.2-1.09,1.65-2.42-2.26,1.81-.72-.6-.12-.6.89.52,1.17-1.01.04-1.09-1.05.12-1.17,1.01-1.09-.77-2.5,1.69-1.77-1.81,1.93,2.66-.72.24.81.81-1.65.28-1.01.89-1.01.04v-.89l.48-1.37v-.89l-1.53.04v.89l.32.81.2,1.09-.81-.97-1.17-.68-1.29-.04,1.69.72.97,1.09.72.72.77,1.25-1.33,1.21,2.01,1.53-1.45-.04-1.97-.85,3.18,2.82.12.64h-.77l.08,1.85-.28,1.33-.56.2-.68.93,2.58-.56-.32,1.05v1.01l.72.2-1.61.04-1.21.64,2.66.2.08,1.21-2.98.52,3.06.08-.72.48.24,2.78s-2.94,7.29-2.98,12.89,2.74,7.65,2.74,7.65v.72l-6.36.64-.52-411.32L1068.31,0h211.69ZM595.9,474.38l.54-10.45-5.92,13.83c1.63-1.75,5.38-3.38,5.38-3.38ZM598.38,473.72s9.18-1.45,15.1,5.44l-11.42-23.68s-1.93-2.54-2.3.79-1.39,17.46-1.39,17.46ZM616.93,486.71s.48,7.43-1.93,10.51l7.79.79-4.89-10.27-1.03-1.99.06.97ZM582.62,495.54l4.59.64c-1.21-1.77-1.45-7.25-1.45-7.25l-3.14,6.6ZM1130.06,523.53h6.4l8.58-40.95-14.98,40.95ZM1183.7,526.67v-7.97l-2.9-5.07c-20.78-8.09-26.94-22.35-26.94-22.35l-11.72,32.86,41.56,2.54ZM1229.13,689.03l-1.81-.4v10.91l1.81.36v-10.87ZM1217.65,698.3v-10.75l-104.86-11.88v10.47l104.86,12.16ZM1104.37,685.33v-10.55l-10.91-1.13v10.15l10.91,1.53ZM1084.32,682.59v-10.23l-16.63-1.89v-15.99l-27.22,23.68,43.85,4.43ZM684.15,63.55c-2.2,6.41-7.23,14.85-7.23,14.85-4.35,1.53-9.58,4.43-19.89,9.74s-25.13,7.09-25.13,7.09l-15.14,2.26-22.95,2.82-62.33,6.2-.02,3.38,8.72-1.61c13.69-.08,56.21,1.53,56.21,1.53l9.18.4c9.18.4,38.98,4.11,42.04,4.43s17.56,1.77,20.13,6.6,12.08,8.78,27.38,8.78,24.56-5.15,24.56-5.15l68.3,3.79,69.58,1.93s10.07-1.53,10.07-5.15-22.23-11.19-34.39-14.26-32.13-7.41-52.11-11.6-42.85-5.32-42.85-5.32c0,0,6.2-5.96,15.38-14.26s23.62-31.87,23.62-31.87l-93.15,15.41ZM875.45,171.59s-.15-25.42-17.88-40.99c0,0-17.1-.47-34.07-.95l-31.5-.87c-9.78,6.36-19.52,16.76-25.07,33.75-14.13,43.25,16.79,65.72,16.79,65.72,0,0,11.17,10.57,31.59,10.57,0,0-20.23,3.26-30.68,25.97s.4,41.56,2.26,44.3,12.4,18.44,33.66,18.6,33.91-18.28,35.36-20.62,10.79-16.59,6.85-35.84c0,0,15.54,30.2,50.01,29.8s51.87-26.09,56.54-34.39,14.01-30.28,4.11-56.38-39.79-35.44-53.48-34.71-33.83,4.35-53.72,30.85c0,0,8.58-13.73,9.24-34.81ZM823.92,237.89c27.54.81,34.47,22.83,34.47,22.83-7.65-32.5,6.44-51.87,6.44-51.87-16.03,25.33-40.91,29.03-40.91,29.03Z"/>
</svg>