<?xml version="1.0" encoding="UTF-8"?>
<svg id="Layer_1" xmlns="http://www.w3.org/2000/svg" version="1.1" viewBox="0 0 1280 720">
  <!-- Generator: Adobe Illustrator 29.8.1, SVG Export Plug-In . SVG Version: 2.1.1 Build 2)  -->
  <defs>
    <style>
      .st0 {
        fill: #4fa9ed;
      }
    </style>
  </defs>
  <path class="st0" d="M607.26,96.99h0L376.99-2.52-1.82-2.99l-3.29,228.67,227.15,18.99,2.53-1.27.51-17.73,1.77-2.03,181.56,20.76v12.41l-49.38,2.79.76,8.86h2.03l51.15-6.58-1.01-91.92,146.62,33.43,10.64-3.55,26.84,5.82,8.86,1.52v-12.91l2.79-.25-.45-97.03ZM84.06,197.59l-9.43-1.22c11.26-26.48.3-58.75.3-58.75l9.13,1.83c3.65,22.21,0,58.11,0,58.14ZM120.6,201.54h0l-8.52-.91c10.35-21.61,0-55.71,0-55.71l7.61.91c5.18,22.83.91,55.71.91,55.71ZM319.69,228.64l-5.48-.61c11.57-24.05-.91-45.36-.91-45.36l5.78-.3c8.52,19.79.61,46.27.61,46.27ZM341.61,231.06h0s-5.48-.6-5.48-.6c11.87-28.31-.3-43.84-.3-43.84l4.87.3c8.83,17.96.91,44.14.91,44.14ZM472.21,152.23s-7-6.39-32.27-8.52v-4.26s23.14-.3,32.27,8.83v3.95ZM590.34,184.49h-.01c-3.96-5.77-20.09-5.17-20.09-5.17l-.3-4.57c20.4,2.74,20.7,5.48,20.7,5.48l-.3,4.26Z"/>
</svg>