<?xml version="1.0" encoding="UTF-8"?>
<svg id="Layer_1" xmlns="http://www.w3.org/2000/svg" version="1.1" viewBox="0 0 1280 720">
  <!-- Generator: Adobe Illustrator 29.8.1, SVG Export Plug-In . SVG Version: 2.1.1 Build 2)  -->
  <defs>
    <style>
      .st0 {
        fill: #50eac5;
      }
    </style>
  </defs>
  <path class="st0" d="M452.59,408.3l-1.27,165.44-182.41,64.06,1.7-208.29L-1.84,460.5v20.15l215.12,173.19v44.66l430.25-171.01-1.15-141.05-189.79,21.86ZM258.84,494.19l-7.14,1.34c12.94-24.55-.45-54.89-.45-54.89l6.69-.22h0c8.7,30.11.89,53.77.89,53.77ZM394,615.28c-12.61,12.61-44.5,16.82-44.5,16.82l-1.05-6.66c37.14-.35,45.9-16.82,45.9-16.82l-.35,6.66ZM503.04,514.22v-5.35c25.4,2.01,28.97-7.35,28.97-7.35l.22,4.01c-2.9,8.02-29.19,8.69-29.19,8.69ZM503.03,447.37l-.22-5.57c26.3,1.56,29.42-4.46,29.42-4.46h0l.22,3.57c-2.23,7.13-29.42,6.46-29.42,6.46ZM532.23,417.95c-7.58,6.24-28.75,4.68-28.75,4.68l-.45-5.13c28.52,1.56,29.64-4.46,29.64-4.46h.01s-.45,4.91-.45,4.91ZM619.81,480.13c-2.45,4.9-21.62,5.79-21.62,5.79l.22-4.46h.01c20.27,1.45,21.53-4.59,21.61-5.46l-.22,4.13ZM598.42,425.31c18.93,1.56,21.39-3.12,21.39-3.12l-.22,3.12c-.67,2.67-20.95,4.68-20.95,4.68l-.22-4.68ZM598.41,407.93l.22-4.46h.01c21.17,2.01,21.17-2.01,21.17-2.01l.22,2.9c-2.01,3.34-21.62,3.57-21.62,3.57ZM643.53,527.49h0s0,0,0,0Z"/>
</svg>