<?xml version="1.0" encoding="UTF-8"?>
<svg id="Layer_1" xmlns="http://www.w3.org/2000/svg" version="1.1" viewBox="0 0 1280 720">
  <!-- Generator: Adobe Illustrator 29.8.1, SVG Export Plug-In . SVG Version: 2.1.1 Build 2)  -->
  <defs>
    <style>
      .st0 {
        fill: #f7f241;
      }
    </style>
  </defs>
  <path class="st0" d="M804.43,105.01l-41.31,9.89-3.46-1.24.49-45.02.74-1.73,42.05-11.63,1.98.99v28.2L1153.21-2.33l-208-2.11-337.95,101.43.45,97.03-2.79.25v12.91l-35.71-7.34-10.64,3.55.51,170.24,28.44,1.73.49-121.45,216.67-20.53-.25-128.37ZM713.16,163.32h0c-3.18,15.41-17.22,26.34-29.63,23.78-12.41-2.56-19.89-17.12-16.7-32.53,3.18-15.4,15.81-25.81,28.22-23.25,1.55.32,5.26,1.27,6.65,1.94,9.7,4.71,14.25,16.59,11.46,30.06ZM1283.93,717.63l-247.29-66.23-22.26-71.93c27.14-7.87,26.87-33.39,26.87-33.39l4.34-39.9s11.67-58.36,13.03-68.95-7.33-15.2-7.33-15.2l140.57,11.21V-2.75h.01s89.89,1.03,89.89,1.03l2.17,719.35ZM862.32,407.94l37.62,2.74-1.13,1.79,1.41,3.02-2.26,1.79-.75-3.39-3.39-.85-1.41,2.45.19,3.68-3.77-.19-1.23-2.07-1.6.19-.57,1.79-1.13-2.45-3.02-3.87-3.3-.19-1.7,2.07-1.7-.19-.66-1.51-2.36,1.32-3.3.19-1.13,5.56-4.15-4.9-.66-6.98ZM902.96,408.7l2.66,2.39-5.68-.41.66-1.04,2.36-.94ZM891.53,522.12s-10.22-1.95-15.58,1.46v-49.66l58.18,8.28,31.65-23.61,9.01.49.49-7.06,4.14-3.65.73-5.84-69.38-7.06,6.81-7.14-.19-4.9,2.17-4.06,3.02-3.02-.66-2.07-1.89.19-1.23,2.73-3.77,3.02-1.6-2.55-.47-3.02-3.68-1.41-3.58,2.73.09-4.72-.17-.16,117.14,8.54h-.02s-8.52,5.61-16.8,32.87c-8.28,27.26-14.36,49.9-14.36,49.9,0,0-2.92,20.69-24.34,23.86l-33.35-.73-42.36-3.41ZM841.96,415.51l-.59,6.79.24,6.08-9.25-.94-1.29-8.19-.35-3.74-3.74-1.76-9.13-.93v-8.67l26.45,1.76-2.34,9.6ZM750.67,431.31l-6.09-20.95-3.98-8.31-5.96-4.33,57.64,4.33.29,9.36.35,12.87-10.18-1.63-32.07,8.66ZM642.54,390.77h0s-.01.01-.01.01h0ZM694.13,521.44l-10.28,35.78-51.79-13.84.4-11.07,11.08-4.83-1-136.7,58.9,4.35s-14.63.99-18.19,5.93-5.14,9.49-5.14,9.49l-.59,44.67-1.78,32.02s-1.98,20.16,9.49,28.27l8.9,5.93ZM736.43,538.64h3.75l-.98,33.01-48.83-13.24,9.69-34.59,19.96,8.5,16.41,6.32ZM800.08,535.08l-14.03,2.97-18.19,1.98-16.6.4-1.78,33.8,60.09,17-9.49-56.14h0ZM794.15,574.63h0s-21.35-5.74-21.35-5.74l-.59-1.58v-16.6l.79-2.17,22.14,4.94.59,19.37-1.58,1.78ZM883.87,567.45l-5.01,43.13-61.68-17.55-10.28-59.42s25.07-9.03,15.8-19.31-45.63-9.03-55.16-26.58l-4.26-8.52-5.77-22.06,106.55,15.29v77.47l2.51.75s5.77,14.29,17.3,16.8ZM864.07,472.43h0s0,0,0,0ZM891.64,569.45l7.02,1.76-3.01,43.37-9.53-2.25,5.52-42.88ZM991.18,581.74l17.55,62.93-104.8-28.33,3.51-43.38,32.59,4.01,51.15,4.77ZM1003.97,580.98l22.06,68.45-10.03-3-16.04-64.94,4.01-.51Z"/>
</svg>