<?xml version="1.0" encoding="UTF-8"?>
<svg id="Layer_1" xmlns="http://www.w3.org/2000/svg" version="1.1" viewBox="0 0 1280 720">
  <!-- Generator: Adobe Illustrator 29.8.1, SVG Export Plug-In . SVG Version: 2.1.1 Build 2)  -->
  <defs>
    <style>
      .st0 {
        fill: #f442b0;
      }
    </style>
  </defs>
  <path class="st0" d="M1153.22-2.33h-.01l-348.26,86.82-.25,148.9-216.67,20.53-.49,121.45,57.09,3-.82,7.03-1.41,1.04.15,4.34,58.91,4.35s25.87-2.46,33.2,2.59l57.64,4.33-.63-16.19-1.93-.53.88-4.21,1.4-3.51s1.75-3.51,11.93-3.33c10.18.18,13.86,3.68,14.38,7.19,0,0,2.28,2.46-.7,3.16l.35,3.33,2.29,1.72-.29,2.58-2.58,2.58.45,9.33,26.45,1.76,1.61-2.44-1.92-.87-1.22-1.57-3.49.7.35-2.61-2.27-.87,1.22-3.31-.17-1.57-.35-2.27,2.79-.52-.35-2.79,2.44-2.79-2.09-.7-.17-4.01,4.18-.17.7,2.09,1.39-2.61-2.61-2.61-1.39-4.01h4.88l2.79.52.87-2.27-1.39-.87,3.14-3.31-1.92-3.84-2.96-4.01,2.79-.52h6.45l-1.74,3.66-2.27,2.09,2.09,3.49-.52,2.61-1.92,3.31,3.66-.7,4.53,1.92,4.18-2.27-2.09-2.27-1.57-3.14,6.28.35,4.18-.52,6.1,1.74,5.58-.17.87,2.44-4.71.87-4.36.17-2.61-1.92-3.66-.17-2.61,4.01-1.37,1.01-1.94,1.43.52,2.09-2.27,3.14,2.27,3.14,1.05,3.84,2.96-1.74,2.44-6.97-2.61-1.74.87-4.36,3.14-.35-1.57,4.01,1.39,1.05,4.71-5.06,2.61.35-5.23,4.53,3.66,1.22v2.44l-5.23-1.92-1.57,6.28-2.27,3.49-3.31,4.36-2.79,4.71,3.84.17,1.57,1.92-6.1,1.39-2.96,1.92,3.49,3.44,160.44,11.69s12.88-10.61,28.55,2.38l140.57,11.21V-2.75l-38.65.42ZM639.42,364.47l-.77-64.88-22.48.51v-6.9h2.3l-.51-19.16-2.3-.26v-4.09l171.4-17.11v118.02l-147.64-6.13ZM1123.39,370.26l-.02-.02-262.37-7.6v-117.51l-9.79,1.73h-11.37l1.4-10.74-1.25-8.72,1.71-1.71-1.71-1.71,1.87-2.8-1.56-2.96,1.25-2.49-1.56-3.43,1.71-2.02-1.71-3.43,2.65-1.87-2.49-5.14,2.18-2.34-2.8-4.67,2.96-3.89-2.49-4.67,3.43-2.8-3.58-5.6,2.8-4.2-3.11-4.98,3.43-4.05-3.11-5.29,2.65-4.52-2.02-4.98,1.87-4.52-2.34-6.23,2.8-4.2-2.8-6.69,2.65-3.27-2.34-5.29,1.87-4.67-2.8-2.8-.16-4.83,307.45-69.39,2.53,181.33h-26.34l.51,152.97Z"/>
</svg>