<?xml version="1.0" encoding="UTF-8"?>
<svg id="Layer_2" xmlns="http://www.w3.org/2000/svg" version="1.1" viewBox="0 0 1280 720">
  <!-- Generator: Adobe Illustrator 29.6.1, SVG Export Plug-In . SVG Version: 2.1.1 Build 9)  -->
  <defs>
    <style>
      .st0 {
        fill: #80d80e;
      }
    </style>
  </defs>
  <path class="st0" d="M623.31,439.44l9.87-11.31,8.62-13.64,4.13-3.77-2.15,9.34s6.1-4.49,10.77-5.92c4.67-1.44,3.41,2.51,3.41,2.51l-7,17.41-5.57,19.21c6.64-7.9,22.43-16.51,22.43-16.51l-.78-370.85L130.15-10.88-4.82-23.31l2.32,692,52.6-2.51s-20.47-6.82-27.65-9.69c-7.18-2.87-10.77-9.51-10.77-9.51l-.9-94.43c1.8-8.44,17.23-10.05,17.23-10.05l-2.33-6.28-7.9-16.34-1.62-2.69,2.33-1.08,9.34.54,21.9,2.51,38.96,1.8,9.51-1.62,18.49-5.21,9.16-3.77,3.05.9,1.26,3.05-.54,10.23-.18,12.03,56.19,1.08,20.47,2.33-1.8-427.26,79.53,8.26,2.51,419.72-.18,2.69-67.86,1.44s10.59,6.82,15.44,16.16c4.85,9.34,5.92,30.16,5.92,30.16,18.13-11.31,37.88-13.64,37.88-13.64l50.09-.72c5.92-7.18,16.34-6.28,16.34-6.28l6.1-3.23,32.49-2.87,64.27-3.23,7.72-1.08,16.7.18,19.57,1.26,16.34,5.03c5.57-8.44,18.13-9.69,18.13-9.69l50.98-1.97,13.1,1.26,3.23-7.9,3.05-3.23-1.8-1.62-5.74-2.15c9.34-10.77,17.23-7.9,17.23-7.9-4.85-8.8-16.34-5.74-16.34-5.74l-.36,6.46-63.73,1.62-1.26-388.84,65.35,6.82v275.92c4.13-5.57,11.67,4.13,11.67,4.13-4.13-20.82-.9-24.59-.9-24.59l6.46,5.39-2.15-10.77s3.59-1.08,5.57,3.95c1.97,5.03,1.8,10.95,1.8,10.95l5.39,8.98s5.57-22.98,7-19.75c1.44,3.23.72,17.95.72,17.95l-1.26,13.64ZM375.28,540.22l-1.52-409.02,70.87,7.59,2.02,399.4-71.38,2.02ZM664.34,464.44l3.59-3.82.29,3.36-3.88.46ZM655.07,484.37l10.55-6.95-8.46,1.39-7.76,3.36,10.89-8.81,7.74-4.06-.09,17.51-26.31,12.98,2.55-6.72,10.89-8.69ZM668.05,493.64l-10.55.93,10.66-5.68-.12,4.75ZM640.47,511.84l10.2-8.46,9.97-5.1,7.42-1.62v8.23l-12.98.7-8.92,3.36-5.68,2.9ZM668.43,515.15l-19.27,12.91-13.1,11.82-4.87,4.06-.23-3.48,7.07-9.73,7.3-5.22-7.42.81,9.97-9.04,10.31-4.17,3.01-1.16-13.1,2.32,9.39-5.33,10.66-1.51.26,7.72ZM594.57,476.78l2.82,10.09-8.61-8.9.45-9.35,5.34,8.16ZM589.52,504.97l-.45-6.53,10.24,9.79-3.71.15-6.08-3.41ZM597.24,521.59h-8.31l.3-10.53,5.19,4.6,7.42,7.27-4.6-1.34ZM193.93,647.16l11.69,4.35-.27,4.35-133.72,8.06,5.1-4.53,68.8-5.44,48.4-6.8Z"/>
</svg>