<?xml version="1.0" encoding="UTF-8"?>
<svg id="Layer_1" xmlns="http://www.w3.org/2000/svg" version="1.1" viewBox="0 0 1280 720">
  <!-- Generator: Adobe Illustrator 29.6.1, SVG Export Plug-In . SVG Version: 2.1.1 Build 9)  -->
  <defs>
    <style>
      .st0 {
        fill: #ce14f4;
      }
    </style>
  </defs>
  <g id="Layer_2">
    <path class="st0" d="M667.03,65.9l.78,370.85,20.47-5.32-14.74,9.21-6.76,5.53,15.35-4.5,12.08-2.05,7.16,1.02-2.05,2.46-15.15,6.55-14.12,9.01-1.43,1.64-.41,3.68s18.83-.82,18.83,2.87c0,0-11.87-.41-19.04,2.46l.41,45.85,10.64-7.57s5.53-35.82,15.35-42.99c0,0,9.01-3.89,31.93-3.48l82.91,1.02,151.28,3.89,27.84.41s15.97-.61,18.22,4.71.82,14.53.82,14.53l-5.94,47.7s22.11-12.08,40.94,5.94c18.83,18.02,7.98,40.53,2.05,46.47l35,1.64.2,6.76-2.46.82-.41,5.94h7.98l1.02,4.5s38.89,3.48,41.56,10.64l-.41,13.1-7.78,4.5-7.78,1.23-22.72,10.64-22.52,12.28-11.87,7.78,2.46,2.87s11.67,6.35,14.12,19.45,6.96,37.67,6.96,37.67l-79.02-4.71,6.35-33.78s2.25-14.53,17.4-22.31l-17.6-13.51-16.99-10.85-4.71,41.35-.82,4.3,7.57,2.25s2.66,2.05,3.48,6.76,4.71,29.27,4.71,29.27l-6.96,35.21-12.28-40.53s-2.05-7.78-10.24-6.14l-81.47,8.19,113.61,49.33,281.47-48.52V-2.75l-528.61-11.23-86.69,79.88h.03Z"/>
  </g>
</svg>