<?xml version="1.0" encoding="UTF-8"?>
<svg id="Layer_2" xmlns="http://www.w3.org/2000/svg" version="1.1" viewBox="0 0 1280 720">
  <!-- Generator: Adobe Illustrator 29.6.1, SVG Export Plug-In . SVG Version: 2.1.1 Build 9)  -->
  <defs>
    <style>
      .st0 {
        fill: #42effc;
      }
    </style>
  </defs>
  <path class="st0" d="M1127.38,617.07l-.41,13.1-7.78,4.5-7.78,1.23-22.72,10.64-22.52,12.28-11.87,7.78,2.46,2.87s11.67,6.35,14.12,19.45c2.46,13.1,6.96,37.67,6.96,37.67l-79.02-4.71,6.35-33.78s2.25-14.53,17.4-22.31l-17.6-13.51-16.99-10.85-21.81-12.68c-7.44-1.2-12.49-5.52-12.49-5.52l.36-11.97c.54-5.9,21.08-7.32,21.08-7.32l-.46,6.2-6.43,3.11-.22,4.66,102.25,5.99,11.09-8.43-.67-2,5.77-2.88-.62-4.15s38.89,3.48,41.56,10.64Z"/>
</svg>