<svg width="1280" height="720" viewBox="0 0 1280 720" fill="none" xmlns="http://www.w3.org/2000/svg">
<path d="M512 446.5H535L535.5 446H662.5L663 446.5H687.5L688 446H754.5L755 446.5H783L787.5 447H790L805.5 451V452L853 464L855 463.5L920 480.5V513.5L911 509.5L908 510H905.5L901 509L900 510L897 508.5L896 509.5L895 508.5L894.5 509.5L892.5 508.5H890L887.5 509.5V508.5L886 509L885.5 508.5L882.5 509L882 508.5H879.5V510L876.5 508.5L874 509L872.5 508.5H870L867.5 510L867 509.5L865 510H863L862 509L861 510H856.5V510.5H855.5L854.5 509L854 511L852 510L847 511L843.5 510H837L836 509L834.5 508.5L833 507.5L831.5 507L830 506L828.5 505.5L823.5 503L822 504H714.5L682.5 505L662.5 504L620 505L604 506L553 505L508.5 506L463 505H417.5L371.5 504L341.5 505H308.5L301.5 506.5H282L280 506L277.5 507L258 506.5L256 505L230 512.5L3 513V506.5H1V503.5L22 500.5V493H20V490L44.5 487.5V478.5H42V476L59 474H75L89.5 472.5H115.5L128 470.5L243 456.5H249V473.5H265L274.5 471V456L360.5 455.5L403 447.5V448H406L412.5 446.5H443.5L444 446H511.5L512 446.5ZM425.5 453L335 473.5L818.5 472.5L760.5 452L425.5 453Z" fill="#FFB31A"/>
</svg>
