<svg width="1280" height="720" viewBox="0 0 1280 720" fill="none" xmlns="http://www.w3.org/2000/svg">
<path d="M1214 261.5V512L920 513.5V481L1027.5 480.5V326L920 325.5V260L1214 261.5ZM1073.5 479.5H1179V327H1073.5V479.5ZM443.5 473.5H402V458.5L425.5 453H444L443.5 473.5ZM534.5 473H512L511 452.5H535L534.5 473ZM688 472.5H662L661.5 452H688V472.5ZM761.5 455V461H754V452.5H760L761.5 455ZM233.5 311.5L244 312.5L249 313.5V314.5L241 315.5L232 318.5L222.5 321.5L232 319L241 318L249 317V456.5H243V432L244 427.5V422L243.5 415.5V414H228.5V413.5H225.5V412L228 410V409.5L227 408.5H226V407.5L217 397.5L211.5 396.5V308.5H225.5L233.5 311.5ZM362 309V352.5L359 353H288.5V456H274.5V318.5L310.5 323.5L312 324L313 323.5L313.5 322.5V320L312.5 319L274.5 317V308.5L362 309ZM788 249V283L746.5 315.5V316.5H747.5V320H749V329H752L753.5 328H783.5L783 446.5H755L755.5 364H687.5V446.5H663V364H535V446.5H512V363.5H443.5V446.5H412.5V327.5H442.5L444 328H447V321H448.5V315.5H449.5V314.5L407.5 292.5V247L788 249ZM518.5 373H519.038V374.5L518.5 375L519.038 375.5V384H524.962V375.5L525.5 375L524.962 374.5V373H525.5L524.423 372H519.577L518.5 373ZM673 373H673.5V374.5L673 375L673.5 375.5V384H679V375.5L679.5 375L679 374.5V373H679.5L678.5 372H674L673 373ZM521 380.5H524V383.5H520.5V373H521V380.5ZM678 383.5H674.5V380.5H677.5V373H678V383.5ZM688 354.5H755V331H688V354.5ZM443.5 354H512V330.5H443.5V354ZM535 354H663V331L535 330.5V354ZM249 312L230 308.5H249V312Z" fill="black"/>
</svg>
