<svg width="1280" height="720" viewBox="0 0 1280 720" fill="none" xmlns="http://www.w3.org/2000/svg">
<path d="M132.5 418H132V419H132.5V422H130.5V422.5H132V431.5H130.5V432H132.5V431L163.5 429.5V428H164V463.5L197.5 460L228 456V455.5L242 454V450.5H243V456.5L209.5 460.5L179.5 464.5L150.5 468L128 470.5L115.5 472.5H89.5V416.5L132.5 416V418ZM198.5 416.5H197.5V427L225.5 426V430L197.5 431V434H197V436L197.5 436.5V456.5H197V458.5H197.5V460L184 461.356V439H186V430.5L184 429.5L185.5 429V428H184V425.5L196 424.5V417.5L197 416.5V415H198.5V416.5ZM146.5 435H147.5V443H146.5V444H148.5V434H146.5V435ZM151 434.5H152.5V442.5H151V443.5H153.5V433.5H151V434.5ZM185 438.5H184V430.5H185V438.5ZM183 416.5L182 416.768V424H181.5V423L163.5 424V418L164.5 416.5V415H183V416.5ZM243.5 415.5H228.5V414H243.5V415.5Z" fill="#FFB31A"/>
</svg>
