<svg width="1280" height="720" viewBox="0 0 1280 720" fill="none" xmlns="http://www.w3.org/2000/svg">
<path d="M920 325.5L855 344V463.5L853 464L805.5 452V358.5L790 363V447H787L783 446.5L783.5 328L920 260V325.5ZM412.5 327.5V446.5L406 448H403V362.5L359 353L362 352.5V309L412.5 327.5ZM400 364V445.5L397.5 446V363.5L400 364ZM114.5 412.5H106V414.5H101.5V416.5H89.5V410H114.5V412.5ZM159 413.5H140.5V412.5H116V410.5H117V409.5H157.5L159 413.5ZM175 413H173L172.5 412.134H171L170.5 409.5H175V413Z" fill="#FF0000"/>
</svg>
