<?xml version="1.0" encoding="UTF-8"?>
<svg id="Layer_2" xmlns="http://www.w3.org/2000/svg" version="1.1" viewBox="0 0 1280 720">
  <!-- Generator: Adobe Illustrator 29.8.1, SVG Export Plug-In . SVG Version: 2.1.1 Build 2)  -->
  <defs>
    <style>
      .st0 {
        fill: #eaca42;
      }
    </style>
  </defs>
  <path class="st0" d="M954.36,441.21l33.48,9.89-1.35,10.34-6.07.22.22,6.97-2.92.22-.9,15.28-3.6-6.52-.22-13.48-6.97-.9v11.23l-4.72,10.11v13.03l-6.07-3.15-.9-53.25ZM953.91,511.31h6.29l.45-11.23-6.29-3.37-.45,14.6ZM995.03,473.79h1.8l.45-5.17,5.17-.45.22,15.73,4.04,7.64.9-9.89h4.49l.67-16.18,6.52.45.22,11.46.67,1.8v10.79l3.15,3.37.9-8.99,4.72-8.31.9-13.71,6.52-.22v15.73l4.04,8.31,2.92-3.15v-10.56l2.25-1.12.22-6.29,6.29-.22.45,17.53,2.25,2.7,4.72-6.52.45-14.6,6.29-.22.67,4.49,4.72.67v11.01l2.02,2.92.67-16.4,2.7-.45.22-13.03-82.01-1.12-.22,22.02ZM954.45,430.24l22.51-.97-22.51-4.6v5.57ZM1041.09,430.24l-.24-6.78-8.95.24,3.39,3.15,1.21,3.63,4.6-.24ZM811.35,495.49l6.18,4.64,4.19,4.41,9.27,5.52.22-20.31-19.42-14.35-.44,20.09ZM835.19,520.65l58.49.22.66-31.12h-59.16v30.9ZM897.88,489.53l.22,31.56,31.12.44-.22-32.01h-31.12ZM1285.21,190.84l5.83-78.65-72.21.78-5.79,410.72,70.31.62v-148.7h-14.93l3.11-184.16,13.69-.62ZM241.15,122.84l848.4-6.25-2.26,216.62-4.01-.99-.67,2.66-1.55,3.77-3.99-.22-5.1.67-2-2-3.99-.89-1.77-3.11,1.55-3.99-1.11-2.66-3.99.22-3.11-2.66-2.88,1.77-3.99,2-1.55,2.88-3.55,1.11-.22-3.55-4.21-2.88-5.32,5.32-4.21,4.88-.22,3.11.67,5.77-1.55,3.11-4.66,4.44-.22,4.66-.89,3.77,2.22,6.88,2.22,3.55,1.33,3.99,3.33,3.55,1.11,6.21,4.44,4.88,5.32.22.67-3.33,1.77-2-1.11-3.77,3.33-1.33,5.1,3.33-1.55,1.33,2.22,1.55,3.33,1.33,1.77,9.1,1.77,14.2h-4.21v-5.77l-.67-2.44,1.55-4.44-2.44-2.88-4.44-.67-3.77,2.66v5.32l.67,8.43-7.99.44v9.54l-15.75.67-3.33.89-7.76-2.22-6.21.44-5.77.44-6.88-1.55h-31.5l-8.21-2.22-.67-5.55-27.73-.44c-4.88,1.11-1.55,5.77-1.55,5.77l22.41,5.32-.67,100.05h-13.31l-.44-31.28,1.77-1.55v-5.55l-38.16-16.86h-31.28l-3.33-7.54-12.42-1.33-5.77,8.65-36.6.22-.89,28.39-3.11-2-6.43-6.21-9.76-7.1-12.64-.67-13.98-.89.44-7.1-7.99-4.21-1.11-3.11-.67-19.52-3.77-13.98-20.63-14.86h-7.98l-4.43,3.55-7.87,1.66-4.43-2-5.21,2.44-5.1,3.55-13.42.78-3.88,3.77-9.98.55.59-2.48,1.57-10.97-1.88-2.82-5.95,2.82-3.76,2.51-7.83,3.45-11.91,4.07-11.91.31-12.22-2.19-5.64-5.64-3.13,1.57-4.07,7.21-23.18-1.25-89.92,1.25-51.07,2.19-1.88-3.45-10.03.31-20.05,1.25s-1.57-4.07-3.76-6.89c-2.19-2.82,1.88-11.59.63-13.79s-6.58,1.88-6.58,1.88l-9.4,2.82-17.23,3.76-23.81.94s-2.19-6.89-4.7-13.47c-2.51-6.58-7.52-2.51-7.52-2.51l-13.16,9.4-6.58.31v3.45l-5.33,3.76-41.67-23.18c-6.89-1.88-5.64,5.01-5.64,5.01l-1.25,7.83.94,5.64-1.88,3.76-.63,4.07.94,9.71-12.45,1.64-2.16-302.4c44.29,27.59,60.98,46.03,60.98,46.03l-1.88,3.76,8.15,6.89c-20.36,33.52,13.47,52.64,13.47,52.64l14.41-10.34-.31,31.96,78.64-.31v-50.13l-54.83.63,18.65-14.97c-25.05-42.74-60.42-17.68-60.42-17.68l-8.55-7.66-2.36,2.95c-33.01-28.89-65.97-47.16-65.97-47.16l-.02-3.36ZM906.42,261.33h80.57l-.51-51.49-79.54,1.29-.51,50.2ZM818.8,387.26l43.29,1.07,38.48.8-1.6-48.63-22.98-2.94-12.56-.53s-1.34-4.28-4.01-3.74c-2.67.53-2.4,3.47-2.4,3.47l-25.38.53-10.42,2.14-2.4,47.83ZM546.87,177.92l.7,224.85,225.89-.35-2.09-225.2-224.5.7Z"/>
</svg>