<?xml version="1.0" encoding="UTF-8"?>
<svg id="Layer_1" xmlns="http://www.w3.org/2000/svg" version="1.1" viewBox="0 0 1280 720">
  <!-- Generator: Adobe Illustrator 29.8.1, SVG Export Plug-In . SVG Version: 2.1.1 Build 2)  -->
  <defs>
    <style>
      .st0 {
        fill: #38e0c7;
      }
    </style>
  </defs>
  <path class="st0" d="M54.06,460.38l.65,6.76-7.41.52-5.2-6.5-6.89-3.38-11.05-2.99-.26-9.1-2.73-4.81.26-3.12,4.42-5.98.39-6.37,1.82-.52,11.57,10.14,9.1,11.7,5.33,13.65ZM-1.06,399.81l10.4,6.11-10.01-11.44-.39,5.33h0ZM28.45,400.2l5.2.13-7.93-6.37-3.77-11.83-1.56-13.91-.52-10.4-8.45-1.82-12.48-10.01v8.32l.26,5.33,17.03,16.9-2.34,8.32-5.72,5.46-4.03,1.56-1.43,3.9,10.79,11.31,9.1,8.19-3.9-11.7-2.73-2.47,6.37.13,6.11-1.04ZM20.39,470l-21.77,2.73h0s-.06,24.05-.06,24.05l21.32-4.16,11.7,1.3.26-15.47-2.21-5.07-9.23-3.38ZM70.74,65.66h0s88.08,10.62,170.43,60.54l-.02-3.36L22.84-3.74-3.03-2.3l.14,59.76c13.62.7,50.03,2.72,70.24,5.33l3.39,2.87ZM53.01,437.9l-2.99-9.23-4.55-.39,8.71,16.64-1.17-7.02ZM76.02,425.28l-7.15,1.17-1.04,38.34,2.86-.13h0s6.89-8.31,6.89-8.31l-4.81-1.43-1.43-4.55-.13-4.42,8.45-.91,1.95-1.69,9.88-.39,3.12-2.08,9.23-.13,1.3-1.82-2.47-2.08,5.33-12.09-31.98.52ZM182.54,437.79l-49.36-.2-20.06.65,8.74-4.53-1.94-4.21,14.88-2.26,2.59-2.91,9.71-1.62,7.12,11.32,3.88-4.85-6.79-5.18,10.68-1.29-9.71-2.26-7.44-4.85-11.32.65-6.15-1.94,7.12-8.41s12.62,2.59,27.18-11.65c0,0,7.44-7.44,17.47-2.26,10.03,5.18,20.38,7.12,20.38,7.12,0,0-6.15-1.62-7.12-7.77-.97-6.15-34.3-5.18-34.3-5.18h-8.41l-9.71,6.15s-14.88,8.41-9.06,13.27l.95.49-6.56,7.25s-4.94-1.39-6.94.08c-2.01,1.47-7.48.62-7.48.62l-8.02-9.34,12.34-1.99,9.21-4.14,11.35-5.88,11.48-6.28-40.19-1.2-24.43,6.54-1.47-.4,8.01-9.88,16.29-9.61-15.62,3.07-14.95,6.68-7.74,6.68-2.14,3.2h-6.81l7.21-13.35,2.4-15.36s8.68-3.74,13.22-20.96c4.54-17.22,25.37-17.63,39.92-12.55,0,0-32.05-17.22-40.99-2.67l-8.28,9.48-4.41,6.81s-.93-16.82-7.21-30.31c0,0-19.09,10.55-30.18,28.31,0,0-11.88-14.69-14.02-22.43-2.14-7.74-8.68-24.3-8.68-24.3l-9.48,9.21-.57-240.46c15.58-.94,54.8,4.07,54.8,4.07l2.85,2.21,11.39,1.9,3.95-1.9v-.03c89.77,14.29,151.79,48.65,171.08,60.46l2.16,302.4-63.95,13.23v-2.15s6.66-2.55,3.13-5.29ZM35.28,151.63c-13.97-4.24-31.44-3.49-29.95-.25s19.47,5.99,19.47,5.99c11.98.25,24.46-1.5,10.48-5.74ZM37.03,429.06l7.41,7.15,1.3-1.17-4.16-6.11-4.55.13ZM60.81,448.04l1.69-20.28h-6.24l4.55,20.28ZM62.63,465.71l2.47-.52,1.3-38.34-1.82.26-1.95,38.6Z"/>
</svg>