<?xml version="1.0" encoding="UTF-8"?>
<svg id="Layer_1" xmlns="http://www.w3.org/2000/svg" version="1.1" viewBox="0 0 1280 720">
  <!-- Generator: Adobe Illustrator 29.8.1, SVG Export Plug-In . SVG Version: 2.1.1 Build 2)  -->
  <defs>
    <style>
      .st0 {
        fill: #3aa3dd;
      }
    </style>
  </defs>
  <path class="st0" d="M1219.45,66.3l-6.48,491.37-35.83-.32-32.63-13.75.32-119.31h-8.64l-.28,6.87-43.31-8.55.8-8.17c.32-9.03-5.8-9.03-5.8-9.03l.32-14.83,3.22-.32,4.84,1.93,4.84-.97,4.51-1.93,3.87-6.77,1.29-5.48-1.29-4.51,3.55-1.61,1.61-6.77-2.26-6.12,1.93-4.19.97-7.74-2.58-7.09-5.16-4.51-6.12-.97-7.74-1.93-6.12,1.61,2.26-216.62,93.48-49.96,36.43-.32h0ZM1091.99,425.93l-.17,5.67h33.15l-32.98-5.67ZM1136.13,442.24l.17-7.39-38.47.17,38.3,7.21h0ZM1135.78,453.58l-51.35-.17v15.63l5.84.69.17,7.56,4.64,2.06.86,5.67-.17,6.7,2.23,1.55.17,6.7,37.61,13.22v-59.6h0ZM1132.18,514.72l-29.03-9.45,1.72,2.58-.17,6.53,27.48.34h0ZM1104.87,517.64l.17,4.12,30.91,13.05-.34-17.35-30.74.17h0Z"/>
</svg>