<?xml version="1.0" encoding="UTF-8"?>
<svg id="Layer_1" xmlns="http://www.w3.org/2000/svg" version="1.1" viewBox="0 0 1280 720">
  <!-- Generator: Adobe Illustrator 29.8.1, SVG Export Plug-In . SVG Version: 2.1.1 Build 2)  -->
  <defs>
    <style>
      .st0 {
        fill: #ed69f4;
      }
    </style>
  </defs>
  <path class="st0" d="M1291.03,112.2l-4.71-116.95L22.84-3.74l218.31,126.58,848.4-6.25,93.48-49.96,36.43-.32-.63,46.68,72.21-.78h-.01ZM300.44,62.44s-13.47-3.85-9.62-9.62,24.7,1.28,26.62,3.21,3.21,9.94-17,6.41ZM678.89,53.78c-.96,6.41-12.83,6.41-12.83,6.41,0,0-16.36-1.6-12.19-8.98s25.98-3.85,25.02,2.57ZM1041.83,57.7s-11.9,4.58-16.48-.92c-4.58-5.49,19.83-12.2,28.07-9.46s-4.58,9.46-11.59,10.37h0ZM1102.55,97.67l-18,.31,32.65-19.83h19.53l-34.17,19.53h-.01Z"/>
</svg>