<?xml version="1.0" encoding="UTF-8"?>
<svg id="Layer_2" xmlns="http://www.w3.org/2000/svg" version="1.1" viewBox="0 0 1280 720">
  <!-- Generator: Adobe Illustrator 29.6.1, SVG Export Plug-In . SVG Version: 2.1.1 Build 9)  -->
  <defs>
    <style>
      .st0 {
        fill: #acf42f;
      }
    </style>
  </defs>
  <path class="st0" d="M822.63,123.51L156.12-2.49-1.02-5.2l-1.37,657.67,130.75-20.9.92-4.77-23.11-18.7.55-156.97,42.54-2.02s-14.12-3.48-13.2-22c.92-18.52,15.22-22.92,15.22-22.92-4.77-2.93-3.67-13.02-3.67-13.02l-22.55-.18-3.12-1.83-.18-13.57-4.4-.18,2.93-68.22,2.02-.18v-166.87l.92-3.48,170.17,18.15,1.1,229.95-115.89,3.85c1.47,10.82-4.03,14.3-4.03,14.3,0,0,13.94,2.57,15.04,18.15,1.1,15.59-9.72,25.31-9.72,25.31l63.63-2.38.18-44.93,36.31-1.28.73,42.73h17.05l7.52,1.83,18.52,3.85,1.1-90.4,1.65-6.23c3.67-4.77,15.59-3.85,15.59-3.85,24.57-7.7,42.18-.37,42.18-.37,20.9-7.89,41.08-.37,41.08-.37,19.99-6.97,37.78-.18,37.78-.18,25.12-7.7,36.86-.18,36.86-.18,22.19-5.68,33.74-.73,33.74-.73,13.57-4.22,31.36-1.28,31.36-1.28,22-3.3,31.36-.55,31.36-.55,0,0,7.7-1.47,20.17-1.1s13.75,4.22,13.75,4.22c0,0,6.23-1.47,9.17.18,2.93,1.65,4.03,19.62,4.03,19.62l2.93,51.34,19.62-1.1.55-3.12,15.4-.37.55-3.12,41.44.18.37,3.48,6.23-2.2c-5.87-3.85-7.7-13.39-7.7-13.39-.37-12.29,9.35-16.87,9.35-16.87-3.3-3.48-1.83-8.8-1.83-8.8l-81.6,1.65-2.75-.37-.18-178.42,3.3-1.65,84.9,9.54,2.2,2.02,1.1,108.92c4.58-2.38,4.03,1.83,4.03,1.83l21.82.55,2.75,2.02.92,41.81-2.38,2.38-22.19.37.18,3.12c10.64,3.67,5.66,14.9,5.66,14.9,16.94,16.94,1.96,29.47,1.96,29.47l.25,2.21,26.77,1.96v59.92c5.16,1.47,9.33,7.12,9.33,7.12l36.29,3.92-.28-360.75ZM369.5,229.93c-8.96.54-1.63,2.99-2.44,9.78s-12.49,7.33-15.21-3.53l-2.44.81s-.27,11.68-6.79,5.98c-6.52-5.7-5.7-13.58-5.7-13.58,0,0-7.33,3.26-7.6-4.35-.27-7.6,4.62-11.95,4.62-11.95,0,0-5.16-2.17,1.09-5.98,6.25-3.8,8.96-4.07,11.41-.81,0,0-3.26-6.79,2.17-8.42s11.14,5.43,11.14,5.43c0,0,5.7-2.99,6.52,4.07.81,7.06,9.78,12.49,9.78,12.49,0,0,2.44,9.51-6.52,10.05ZM401,178.32c0,7.06-.81,15.21-6.52,16.3-5.7,1.09-15.48-.27-17.93-10.59l-3.53-.81s4.35,11.95-4.07,12.49c-8.42.54-6.79-8.15-10.59-10.32-3.8-2.17-1.09-14.12-1.09-14.12,0,0-11.41,7.33-12.22.54-.81-6.79-2.99-7.88.54-12.77s2.44-13.04,2.44-13.04c0,0-1.9-5.16,5.16-10.32s14.94,3.26,14.94,3.26c0,0-.27-10.32,5.7-11.95,5.98-1.63,13.85,6.52,13.85,6.52,0,0,4.07.27,6.52,4.07,2.44,3.8,8.42,10.05,5.16,14.12,0,0,13.04,6.79,13.58,13.31.54,6.52-11.95,6.25-11.95,13.31ZM507.74,315.07c-56.54,16.77-97.1-39.78-101-88.91,0,0-5.07-51.47,38.22-79.94s101,3.51,114.26,50.3c13.26,46.79,5.07,101.78-51.47,118.55ZM603.67,302.21c0,5.7-.66,12.28-5.26,13.16-4.61.88-12.5-.22-14.47-8.55l-2.85-.66s3.51,9.65-3.29,10.09-5.48-6.58-8.55-8.33c-3.07-1.75-.88-11.4-.88-11.4,0,0-9.21,5.92-9.87.44s-2.41-6.36.44-10.31,1.97-10.53,1.97-10.53c0,0-1.54-4.17,4.17-8.33,5.7-4.17,12.06,2.63,12.06,2.63,0,0-.22-8.33,4.61-9.65,4.82-1.32,11.18,5.26,11.18,5.26,0,0,3.29.22,5.26,3.29,1.97,3.07,6.8,8.11,4.17,11.4,0,0,10.53,5.48,10.97,10.75s-9.65,5.04-9.65,10.75ZM619.7,253.51c0,4.1-.4,8.82-3.23,9.45-2.82.63-7.66-.16-8.87-6.14l-1.75-.47s2.15,6.93-2.02,7.25c-4.17.32-3.36-4.73-5.24-5.99-1.88-1.26-.54-8.19-.54-8.19,0,0-5.65,4.25-6.05.32s-1.48-4.57.27-7.4,1.21-7.56,1.21-7.56c0,0-.94-2.99,2.55-5.99,3.49-2.99,7.39,1.89,7.39,1.89,0,0-.13-5.99,2.82-6.93,2.96-.95,6.85,3.78,6.85,3.78,0,0,2.02.16,3.23,2.36,1.21,2.21,4.17,5.83,2.55,8.19,0,0,6.45,3.94,6.72,7.72.27,3.78-5.91,3.62-5.91,7.72ZM339.25,582.35l.24,12.1-15.24,2.66-.24-35.09,2.18,10.41s1.69,6.05,6.29,7.26c4.6,1.21,6.78,2.66,6.78,2.66Z"/>
</svg>