<?xml version="1.0" encoding="UTF-8"?>
<svg id="Layer_1" xmlns="http://www.w3.org/2000/svg" version="1.1" viewBox="0 0 1280 720">
  <!-- Generator: Adobe Illustrator 29.6.1, SVG Export Plug-In . SVG Version: 2.1.1 Build 9)  -->
  <defs>
    <style>
      .st0 {
        fill: #5197fc;
      }
    </style>
  </defs>
  <g id="Layer_2">
    <path class="st0" d="M1282.64,33.01l-460.01,90.5-20.97-3.96c11.28-2.74,17.92-10.05,22.49-18.05,0,0,42.95-2.63,48.74-18.18l-.26-67.45s.26-10.8-33.72-17.13c-8.39-1.56-17.14-2.37-25.55-2.7l468.79-1.04.5,38h-.01ZM712.44,24.3c.26-17.65,52.7-25.82,52.7-25.82,0,0,11.48-1.75,27.37-2.39L156.12-2.49l609.15,115.16c-6.06-4.43-8.82-9.06-8.82-9.06,0,0-11.33,0-29.25-5.01s-14.75-11.33-14.75-11.33V24.3h-.01ZM506.09,145.54c-29.14-10.44-48.72,0-48.72,0l53.07,39.15,32.62-7.39c-13.05-21.75-36.97-31.75-36.97-31.75h0Z"/>
  </g>
</svg>