<svg width="1280" height="720" viewBox="0 0 1280 720" fill="none" xmlns="http://www.w3.org/2000/svg">
<path d="M1280 609H1243.5V628L1280 639.5V720H1158.5V0H1280V609ZM576 376.5L577 377L825 374.5L826 373V0H1075V508H1070.5L1070 498.5L1070.5 489L1071 470L1070 461V450.5L1069 442L1067.5 437V434L1066.5 424L1065.5 412.5L1064 403.5L1063 396L1062 388L1060.5 377.5L1058.5 366.5L1056.5 359L1052.5 352.5H1051.5L1049.5 353.5L1048.5 355.5H1045.5L1044 357.5L1043 361L1041.5 368.5L1040 377.5L1039 379.5L1037.5 393L1037 400L1036 412.5L1034 428L1032.5 443.5L1031.5 457L1030.5 466L1029 475.5L1028.5 482L1029 506.5L819.5 500.5L820.5 498L821 496.5V459L820.5 456.5L819.5 454.5L815 450.5L812 449V447.402L813.5 447V439H811L808 435.5V430.5H811L817 431L811 429.5H802.5L802 430.5H804.5V435.5L802 439H799.5V447.5H800.5V448.5L799.5 449.5L797.5 451L795.5 453L793.5 455.5L792 457.5L791 459L790 458.5L785 458L776.5 457L760 456L744 455.5L690 454.5L659 454H630L607 454.5L591.5 455L576.5 456L571 457L567.5 458L567 459.5L567.5 494H562V474.804L559 474H552V467.5L547.5 467H542.5L541.5 468.5V473.5L541 474L537 474.5L533.5 475L531 477.5H526.5L518 478L510 477H497L496 478V491.5L397 488.5V0H576V376.5ZM1052.5 375.5V396.5L1051.5 406L1050.5 420L1049 487.5L1050.5 498L1053.5 507H1046V501.5L1045 488.5V482L1046 471.5L1048 454V424.5L1047 415.5L1045.5 396.5V385.5L1047 371.5L1048 366.5H1051.5L1052.5 375.5ZM491 230.5L489.5 231.5V233.5L489 236L488 239.188V242L487.5 244.5V246.5L488.5 248V249.5L490 250.5H494L495.5 249L496.5 241L495.5 232.5L493 230.5H491ZM916.5 205L914.5 206L912.5 209.5V225.5L913.5 227L914.5 227.5L919.5 227L920.5 225.5V207.5L919 205H916.5Z" fill="black"/>
</svg>
