<svg width="1280" height="720" viewBox="0 0 1280 720" fill="none" xmlns="http://www.w3.org/2000/svg">
<path d="M1120.5 561H1117.5L275 525.5H267V509L397 488.5L496 491.5V500.5L495.5 501.5L499.5 502L518 501.5V499H520L520.5 502.5L530 503L541.5 501.5L542 500L555 500.5L560.5 498L562 496.5V494H567.5V504.5L568 505.5L569.5 507L572 508L576.5 509L584 510.5C600.5 512.333 645.3 516 692.5 516C739.7 516 772.167 514 782.5 513L788.5 512L792.5 510.5L794 509L796.5 505H816L818 503L819.5 500.5L1029 506.5V508L1035.5 508.5L1036 510.5L1041.5 511L1046 510.5V507H1053.5L1057 508V510.5L1067.5 512L1070.5 511.5V508H1075L1120.5 539.5V561Z" fill="#2600FF"/>
</svg>
