<svg width="1280" height="720" viewBox="0 0 1280 720" fill="none" xmlns="http://www.w3.org/2000/svg">
<path d="M1048 366.5L1047 371.5L1045.5 385.5V396.5L1047 415.5L1048 424.5V454L1046 471.5L1045 482V488.5L1046 501.5V510.5L1041.5 511L1036 510.5L1035.5 508.5L1029 508V506.5L1028.5 482L1029 475.5L1030.5 466L1031.5 457L1032.5 443.5L1034 428L1036 412.5L1037 400L1037.5 393L1039 379.5L1040 377.5L1041.5 368.5L1043 361L1044 357.5L1045.5 355.5H1048.5L1049.5 353.5L1051.5 352.5H1052.5L1056.5 359L1058.5 366.5L1060.5 377.5L1062 388L1063 396L1064 403.5L1065.5 412.5L1066.5 424L1067.5 434V437L1069 442L1070 450.5V461L1071 470L1070.5 489L1070 498.5L1070.5 508V511.5L1067.5 512L1060 511L1057 510.5V508L1053.5 507L1050.5 498L1049 487.5L1050.5 420L1051.5 406L1052.5 396.5V375.5L1051.5 366.5H1048Z" fill="#FFCC00"/>
</svg>
