<?xml version="1.0" encoding="UTF-8"?>
<svg id="Layer_1" xmlns="http://www.w3.org/2000/svg" version="1.1" viewBox="0 0 1280 720">
  <!-- Generator: Adobe Illustrator 29.6.1, SVG Export Plug-In . SVG Version: 2.1.1 Build 9)  -->
  <defs>
    <style>
      .st0 {
        fill: #19f4df;
      }
    </style>
  </defs>
  <g id="Layer_2">
    <path class="st0" d="M351.37,478.24l13.65.55-1.55-76.69,14.63-8.87v-28.15l20.17-.89,1.33,13.96,14.63.66.66,12.63h13.74s-13.08-18.84,9.75-30.14v-7.76l10.85.1.2,7.66s21.17,4.03,11.09,29.84l21.57.4v9.27l11.9-5.85-.81-52.22,3.43-3.43,33.67.2.4-19.76-2.02-13.51h-60.89l-3.66-120.67,87.08.43.43,91.83,27.16,3.02-1.29-83.2h76.31l-.43,76.31,10.78,2.59,23.71,3.45V108.02l131.92.43-3.45,192.71-60.79.86-2.59,17.68v19.4l37.08.43,3.02,3.88-.43,45.7,12.07,1.72,20.69,1.29,1.68-2.01-.84-5.53,1.68-1.68,1.01-8.89,21.46.17-2.35-15.76h2.51l-.67-1.68,3.35-.5-6.2-5.03,3.35-1.01,5.03,4.86-3.69-5.7-7.04-2.35,3.19-3.02,2.01.67v-2.85l2.85-2.01-9.39.5,1.51-1.68,5.2-.17-5.03-2.85,2.18-3.02,3.35.34-6.71-6.37,4.02-1.51v-1.84l-2.01-1.34,4.69-5.36,3.02,1.84-2.35,4.36,4.19-3.69-4.53,7.38,2.18-.67,3.19,4.02-1.68-6.04,4.53-4.36,3.52-1.84,3.69,2.68-.84-4.53,4.02,1.84-.34,3.19,3.19-.67-4.53,5.53,5.87-3.02-3.52,5.7,2.68-1.01-3.86,3.69,4.53-.84.67,2.85-6.04,4.02-2.01,3.19,5.7-3.69.67,1.68-5.53,4.02h3.86l-2.18,2.35,6.04-1.68v1.84l-3.02,1.51v3.69l.67,2.51-2.51,1.84.17,1.34-2.01.34,2.51,2.01,1.84.84-2.85,15.76h15.42l8.72,5.2-.17,10.56,1.34,1.34,11.23-.17,18.44,10.39-1.68,76.28,13.67-.13,12.61-463.38-609.94.65,12.25,462.98.02.04ZM838.41,253.46c0-6.88,5.57-12.45,12.45-12.45s12.45,5.57,12.45,12.45v44.9c0,6.88-5.57,12.45-12.45,12.45s-12.45-5.57-12.45-12.45v-44.9h0ZM676.78,25.09v165.76l-120.44-.32-1.94-166.09,122.38.65h0ZM546.96,54.55l1.3,110.08-75.76-.65-2.27-108.78,76.73-.65h0ZM414.36,257.93c0-6.88,5.57-12.45,12.45-12.45s12.45,5.57,12.45,12.45v44.9c0,6.88-5.57,12.45-12.45,12.45s-12.45-5.57-12.45-12.45v-44.9ZM1192.12,95.96l-5.98,51.12-76.6-12.11,2.56-16.23,80.02-22.78h0ZM1105.27,330.61l.85,12.25-1.42,18.51-1.42,5.98-21.64-2.85,4.84-37.3,18.79,3.42h0ZM1161.65,316.09l4.84-23.07-1.99,24.49-2.85-1.42h0Z"/>
  </g>
</svg>