<svg width="1280" height="720" viewBox="0 0 1280 720" fill="none" xmlns="http://www.w3.org/2000/svg">
<path d="M1040.5 125.5L1011.5 129L1010 134H996L996.5 296.5L997.5 298L1061 297.5L1065.5 312.5L1073 337H1067L1060.5 338.5L1052.5 339L1047.5 342.5L1039.5 343L1033 347H1029.5L1025.5 343L1021 340.5L1018 339.5L1013 339L1007.5 339.5H1001L995.5 341.5L991.5 343L989 345L985.5 347L984.5 349.5L983.5 353.5L983 356.5H975L970.5 358.5L968 356.5L967 353.5L964.5 354L966 137L968.5 138L969.5 137L970.5 139L972 134.5L974 137H976L977.5 139L980.5 139.5L982.5 137V133.5L984.5 129.5H987.5L992.5 129L994 129.5L996 124.5L998 122H1037.5L1040.5 125.5ZM358.5 311L355.5 314H354.5V304.5L354 300.5L353.5 294.5L354.5 294H358.5V311ZM696 160L395 163.5V297.5L399 303.5H397L392.5 308.5L389 305L385.5 303.5H383.5L382.5 306.5H379.5L378.5 310H375L371 311.5L371.5 307L370 206.5L394 211.5L394.917 207.829L388 193.5L356 187L352.5 185.5L356 170L361.5 161L365.5 150.5L368.5 135L373.5 124.5L378.5 129.5L380.5 135L383.5 130.5V124.5L389.5 130.5L391.5 135L395 132.5L398 131.5L400.5 136.5L406.5 132.5L400.5 117L696 113V160ZM367 309.5L363 307.5V293.5H367V309.5ZM365.5 205.5L367 289.5H363.5L362 204.5L365.5 205.5ZM357.5 204.5L358.5 286.5H354.5L353 287.5L352.5 286.5V283L351.5 282.5L352 280L350.5 279L350 277L349.5 275.5L348.5 274L348 275.5L347 274L345.5 269L345 266L344.5 243.425V206.5L346 202L357.5 204.5ZM358.5 138V143.5L347 174.5L344 173.5L345 141L348.5 138L355.5 137L358.5 138Z" fill="black"/>
</svg>
