<svg width="1280" height="720" viewBox="0 0 1280 720" fill="none" xmlns="http://www.w3.org/2000/svg">
<path d="M1073 390.5L1072.5 459.5L1070.5 460.5L1069 461.5L1068 462.5L1069 463L1071.5 462.5L1072.5 463V475.5L1070 473.5L1069 475L1070 476.5L1070.5 477L1070 477.5L1069.5 477L1068 476.5L1067.5 477.5L1068 478L1070 479H1071.5L1072.5 479.5L1072 480L1070 479.5L1068 480L1065.5 481L1064 482H1066.5V482.5L1061.5 485H1063L1067 482.5L1071 480.5H1072.5V482.5L1071 483.5L1070.5 484.5L1071.5 485L1072 485.5V486.5L1071.5 487H1070.5L1069.5 488L1070.5 488.5L1072 488H1073V500.5L1072.5 544V593.5L1072 628V680.5L1071 681L1068.5 684L1068 683L1067.5 673.5L1066.5 681.5L1063.5 677.5L1062.5 683H1061C1060.5 681.5 1059.4 678.3 1059 677.5C1058.6 676.7 1057.5 682.833 1057 686L1052 683.5V682L1047.5 676L1047 686L1038 683L1035.5 687L1034 686L1033 668.5L1034 390.5L1035 389.5H1072L1073 390.5ZM128.5 667L131 666.5L130 669.5L128 669H126.5V672L125 673.5H123L121.5 673L120.5 671.5L123 670.5L121 669V665.5L122.5 665V666.5L126 665L128.5 667ZM110 646V647L112 647.5L112.5 649.5L114 651L116 652.5L114.5 653.5L112.5 654L109.5 651H111.5L110.5 649.5H109V648.5L112 649L111.5 648.5L106.5 646.5L107 645.5L108 644L110.5 643.5L110 646ZM105.5 651.5L105 652.5L103 653.5H101.5L100 652.5L100.5 651.5L102.5 650.5L104.5 650L105.5 651.5ZM123 637H124.5V638H123L121 639H119V638.5L120.5 637.5L120 636.5L118 635.5H121.5L123 637ZM126.5 630L127.5 632V632.5L124.5 631L123 630.5L125 629L126.5 630ZM101 628L98 631L98.5 628.5L97 627L97.5 626.5L101 628ZM111.5 631L109 630.5L111 628.5L111.5 631ZM102 621.5L99 623L98 621L98.5 620H100L102 621.5ZM130 619.5H127.5L127 618.5H126.5L128 616.5V615L126.5 616L125.5 617L124.5 616L123 617L122 616.5L121.5 616L120 616.5V618L119.5 618.5H118.5L117 619L116.5 618.5V616.5L117.5 616L121 615.5V614.5L119 614L119.5 612.5L116 614L114 612L115 614.5H113.5L112 614H110.5V615L108 616V614L106.5 613L107 612L111 613L111.5 612.5L110 611.5L107 611L106 610L103.5 609.5L105.5 609L109 610.5L114 611L116 610L112 609.5L109.5 609L107 608L109 607L113.5 608L117 607L118 606.5L117 606L115 606.5H110.5L113 605H122L118.5 603.5H114L115 601.5H114L112.5 602.5H108L108.5 600.5L109 599H111L112 598L113 597.5L111 596.5H109L108 596L107 595L105.5 596L104 595.5L105.5 594H107L108.5 595V594L110 593.5L114.5 595L115 594L110.5 592.5H107L112.5 588.5L115 588L120.5 587.5L122.5 587L124.5 586L121 585.5L116 586.5H114.5L117 584L122 584.5L124.5 584L121.5 583L120.5 583.5L118 582.5L120 581.5L121.5 580.5L124 580L127.5 580.5L130 580V619.5ZM103.5 612.5L103 613L102.5 614.5L101 616L100.5 617.5L99.5 618.5L97 617L98 616L96.5 614L95.5 613.5L93.5 613V612L95.5 611.5H96L99.5 610.5L103.5 612.5ZM105 608.5L102.5 609.5L101 609L104 608L105 608.5ZM103.5 606.5L104 607L100.5 608.5L99.5 607.5L99 609L97 607.5L96.5 606.5L99.5 605L103.5 606.5ZM92 595.5L91.5 598.5L90 601L92.5 601.5L94.5 602L93 606.5L92.5 607.5L88.5 608.5L87 607L85 604L87 601.5L85.5 600.5V598L86.5 595V594H88L92 595.5ZM104.5 599.5L105.5 601L104.5 602L102.5 600.5L101.5 599.5L103 598L104.5 599.5ZM121 578L120.5 579.5L117.5 582.5L114.5 581.5L114 580.5L118 578.5L120.5 577.5L121 578ZM130 578.5L129.5 579L124.5 577.5L121.5 578.5L123 576.5L127 574L130 572.5V578.5ZM131 410.5H132.5V413L133 414.634L132.5 416.5H148.5L149.5 420L148.5 429.5H132.5L132 430V434.5L131 435.5L130.5 439L130 570L129 570.5L124 573.5L122 575L122.5 573L121.5 570.5L120.5 568.5L119 567.5L118 567V569L119.5 572.5L121 574.5V576L118.5 577.5L118 576.5L119 575.5L117 575L118 573V571H117.5L117 571.5L115 573V574L114 576.5L112 577L113 575.5H111L109 573L108 574L105 573.5V573L108 572.5L107.5 569.5L108 568H106.5L105.5 569L105 568L104 568.5L102.5 569V568.5L103.5 566H102L100 567.5L96.5 564.5L95.5 562.5V561L94 559.5L92.5 558.25L91.5 557.5V557.417L91 557H89.5V556L87.5 554L86.5 554.5L85.5 553L90 549.5L90.5 548.5L93.5 552.5L94 554L93 555L92 554H91L90 554.5L90.5 555.5L91.5 556.5V557.417L92.5 558.25L93.5 559L94 558.5L97 559L100.5 560L102 559.5L99.5 558.5L97 557L101 558L98.5 556L97 555.5L97.5 554L97 552L96 549.5L95 547.5H96L97.5 548L100 549.5L103 550.5L102 549L99 547L98 546L96.5 545L95 544.5L92.5 543L91.5 542.5H90L89 542L88 542.5L86.5 540.5V539L89 541L90 542L91.5 540.5L93.5 542.5V543L94 543.5L95.5 542H96.5L97.5 543L95.5 544V544.5L96.5 544H98.5L100.5 545.5L102 544H104.5L106 542.5L103 542L104.5 541H107L110 540L108.5 539H104L106 537V535.824H104.835L103.5 537L101.5 536.5L97.7832 535.824L97 534.5H96V536H92L89.5 536.5L88 537L89.5 539V540L86.5 537.5V536.5L85.5 535.824V503.5L87.5 503H93.5L89.5 502L85.5 501.5V499L88.5 498H91.5L89 497H85.5L86 397.5L100.5 396H131V410.5Z" fill="black"/>
</svg>
