<svg width="1280" height="720" viewBox="0 0 1280 720" fill="none" xmlns="http://www.w3.org/2000/svg">
<path d="M884.5 36L884 37.5V38.5L884.5 40.5L885.5 42.5V45L884 48L887 45L890 43.5L893.5 42.5L895.5 40.5L897 39.5L933 53.5L951.5 69.5L966 86.5V129.5L964.5 353.5V360L961.5 357L959.5 354.5L961.5 352.5L961 352L959.5 350L961 347.5L959.5 346.5L958 347.5V344L955 343V341H949.5V340L953 341L956 339V336.5L954 339L953 336.5L950.5 337.5H947.5L948.5 334L946 335.5V334L944 333L941.5 334L942.5 332L941.5 329.5H938L936 332V329.5H933.5L931.5 330.5L928 327.5L926.5 329.5L922.5 326L919.5 325.5L914.5 322.5L908.5 318.5L905 315.5H903L899 314L898 315.5L894.5 314L892 313L891 310V159.5H919.5L926.5 150L926 144.5L732.5 146.5L720.5 155L721 161H750.5V269L747.5 270.5L744 269L737 270.5L731 267.5L725.5 271L719.5 269L716.5 271L711.5 269L708 266H695L696 98.5V84L721.5 59.5L827.5 16.5H828.5L884.5 36ZM766.5 161V273.5H764.5L763 272.5H760L756 271.5V270L756.5 161H766.5Z" fill="black"/>
</svg>
