<svg width="1280" height="720" viewBox="0 0 1280 720" fill="none" xmlns="http://www.w3.org/2000/svg">
<path d="M1034 442V467.5L622 466L621 467L621.5 637.5L622.5 638.5L644.5 639L645 638.5V491L646 490L1032.5 491.5L1034 490V517.5L671 516L670 516.5L671 638L672.5 639.261H695V541.5L696 540L1032.5 541.5L1033.5 540.5V568L721 566L720 567.15V637.5L722 639.5L743.5 640L744.5 639.289V591L745.5 589.5L1032.5 591L1033.5 590V617.5L770.5 616L770 616.5V639.5L771 640L1033 642V668.5L996 668L929 667.5L885 667L819.5 666.5L735.5 666L663.5 665L613 664.623V687.5H609.5V664.597L596.5 664.5L596 663.5L595.5 442L597.5 440.5L1034 442ZM142 430.5H140.5V436L142 437.5H152.5L154 439L578 441L578.5 441.5V663L576.5 664.5L565.5 665V684H562L561.5 682.134V665L139.5 658.5V657L135.5 654L137 652L139 653L138 651H139L142 651.5H146.5L144 650.5L139 650V649.5L141.5 648L143.5 646V644.5L141.5 645L137.5 649V648L139.5 645V643H138.5L136.5 645.5L133.5 644L130.5 646L131 643.5L131.5 642.5L132.5 641L132 639.5L131 638.5V638H133.5L138 640L134 637.5L132.5 636.5L134 636L135 635H136.5L143.5 636.5L146.5 637.5H148L146.5 636L143 634.5L140.5 634H138.5L136.5 633.5L139.5 632L146 631L148.5 630.5V629.5L146 630V629H144.5L145 628H143L142 627L140 628.5L139 630H138V627L136.5 626L136 626.5L137 629.5L134.5 627L133.5 628L134.5 629.5L130.5 627.5V626.5L133.5 626L140.5 623L138 622L132 622.5V621.5L134 621L133.5 620L130 619.5V580L132 579.5H133.5L133 578.5H130V572.5L132 571L133.5 569L131 569.5L130 570L130.5 439L131.5 437.5H134.5L135.5 436.5V431.5L133.5 430.5L132.5 429.5H142.5L142 430.5ZM157 486.5H157.5V487.5L530 489.711V637.5L530.861 638.5H552L552.5 638V467L552 466L157 464.126V486.5ZM157 513V535L158 536.5L481.5 539.5V636.5L482.5 638H504V515.5L503 515L157.5 512.5L157 513ZM157.5 562V584L158 585L432.5 588.5L433 589.5V637L455 637.365V565.5H454.5V564.5L158.5 561.5L157.5 562ZM157.5 632.5L158.5 633.5L406.5 637V615L405 614L157.5 610.5V632.5Z" fill="#2600FF"/>
</svg>
