<?xml version="1.0" encoding="UTF-8"?>
<svg id="Layer_1" xmlns="http://www.w3.org/2000/svg" version="1.1" viewBox="0 0 1280 720">
  <!-- Generator: Adobe Illustrator 29.8.2, SVG Export Plug-In . SVG Version: 2.1.1 Build 3)  -->
  <defs>
    <style>
      .st0 {
        fill: #f4e767;
      }
    </style>
  </defs>
  <path class="st0" d="M360.23,463.25l-2.82,1.64.47,220.58-4.69.93-1.17-6.8-171.53,33.79-2.46-236.53-16.72-.36v-8.73l14.17-17.08-.13,2,5.26-.62-.93,4.95,3.41,3.71,8.05-.62,4.33-4.02v-5.26l-3.41-2.79,6.5,1.84-1.65,5.16,1.41,4.69,10.79,7.75,2.12,2.11,4.69-6.34,1.41-6.33,7.74-.71,7.28-.23,4.45-2.58,2.82,1.4,4.22-.23,2.35,3.75,2.82-3.28.46-1.88,3.99-.94,4.23-3.05.94-2.34,19.94-1.65,1.88-1.64v-4.69l65.7-2.82,13.38,18.54.7,8.68ZM670.58,419.7l-.14,2.95-105.85,5.64-3.26,2.96-20.46.3,8.3,3.56,1.78,6.52,1.18,28.17-1.78,2.67.6,174.95,3.85-.3.3-5.93,12.16-2.08.07-77.88-12.27-9.58.3-15.85,166.97-21.71.17-73.15,1.73-1.73.17-8.13-53.82-11.38Z"/>
</svg>