<?xml version="1.0" encoding="UTF-8"?>
<svg id="Layer_1" xmlns="http://www.w3.org/2000/svg" version="1.1" viewBox="0 0 1280 720">
  <!-- Generator: Adobe Illustrator 29.8.2, SVG Export Plug-In . SVG Version: 2.1.1 Build 3)  -->
  <defs>
    <style>
      .st0 {
        fill: #f268d2;
      }
    </style>
  </defs>
  <path class="st0" d="M941.53,207.39c.05.43,1.59,13.54,1.3,23.73,0,0,.16,3.76-16.67,9.19l1.16,246.95,25.55-3.68v-38.07l18.27-.91-.3,36.54,7-.61.3-36.54,17.66-.3v34.72l6.4-1.22v-34.41l16.75-.91-.3,33.5,33.96-4.32.96-248.34-112.04-15.32ZM970.99,438.25l-18.15,1.16v-57.24h18.15v56.08ZM971.69,375.88h-18.62l.47-57.71,18.38.7-.23,57.01ZM972.62,312.59l-18.62-.81v-57.36l18.62,1.63v56.54ZM978.44,437.55l-.23-55.61,17.22-.7.23,55.38-17.22.93ZM995.89,375.88l-17.92.23.93-57.01,17.45.47-.47,56.31h0ZM996.36,313.74h0s-17.68-.69-17.68-.69l.47-55.85,17.22.93v55.61ZM1003.33,258.6l15.59,1.86.23,54.45-16.29-.7.47-55.61ZM1002.41,435.69h-.01l.7-54.45h16.06l.47,53.29-17.22,1.16ZM1002.64,375.19v-55.38l16.99.47.23,54.68-17.22.23ZM941.53,207.37s0,.01,0,.02h0s0-.02,0-.02Z"/>
</svg>