<?xml version="1.0" encoding="UTF-8"?>
<svg id="Layer_1" xmlns="http://www.w3.org/2000/svg" version="1.1" viewBox="0 0 1280 720">
  <!-- Generator: Adobe Illustrator 29.8.2, SVG Export Plug-In . SVG Version: 2.1.1 Build 3)  -->
  <defs>
    <style>
      .st0 {
        fill: #a8cc37;
      }
    </style>
  </defs>
  <path class="st0" d="M867.79,247.85h-.08v11.76l-139.74-12.24-.3-98.83,92.56,13.93c1.09-2.26,2.23-4.51,3.43-6.76l-99.51-17.46-37.24,16.29L166.1,71.32l-.11,41.08,12.41,26.35-4.36,4.73,2.46,197.33,165.11,1.01.49-199.96,62.36,6.43.49-4.45,6.32-8.8,48.73,6.54.45,13.54,48.73,6.32.68,102.43,26.4,15.12-.45,8.12-26.4,4.51v51.22l159.95.9,1.22,75.96,53.82,11.38-.17,8.13-1.73,1.73-.17,73.15,6.05-.86-.52-263.9,93.51,15.11,59.7,6.12-1.53,196.85-3.06,2.45,3.06.92-.61,22.35,48.39-5.88-1.16-246.94s-21.51,6.42-58.37,7.54ZM181.33,324.13l-1.09-230.9,156.41,22,.36,210.71-155.68-1.81ZM536.5,329.56l-.72-185.73,154.23,19.91.36,166.54-153.87-.72ZM927.32,487.25h.01s-.01,0-.01,0h0ZM1210.21,196.73l2.4,6.27-5.91,3.64-128.28-24.56v285.66l-25.81,3.29.96-248.34-112.04-15.32c-3.19-37.99-29.15-69.89-29.15-69.89h0s8.61-.52,8.61-.52l284.16,60.78,5.07-1.01ZM1281.75,215.05l-.51,8.54-11.16-2.64-9.45-10.64,21.12,4.74Z"/>
</svg>