<?xml version="1.0" encoding="UTF-8"?>
<svg id="Layer_1" xmlns="http://www.w3.org/2000/svg" version="1.1" viewBox="0 0 1280 720">
  <!-- Generator: Adobe Illustrator 29.8.2, SVG Export Plug-In . SVG Version: 2.1.1 Build 3)  -->
  <defs>
    <style>
      .st0 {
        fill: #bcf275;
      }
    </style>
  </defs>
  <path class="st0" d="M167.37,716.07l1.58-31.54-1.58-3.94,1.18-5.92-2.36-3.15-4.73,3.15-20.11,56.77-36.3-.42h0s0,.01,0,.01l-7.28-1.12-1.12-149.99s8.31-12.66.26-14.31l-.24-54.69,4.73-8.76-1.66-3.55-3.31-1.18.24-499.98,46.75-11.62h.01l23.51,60.24-.66,68.67-35.57-78.36-26.12-11.11.37,574.16.13-1.49,27.73-1.98,39.36-61.24,1.12,180.64-5.93.71Z"/>
</svg>