<?xml version="1.0" encoding="UTF-8"?>
<svg id="Layer_2" xmlns="http://www.w3.org/2000/svg" version="1.1" viewBox="0 0 1280 720">
  <!-- Generator: Adobe Illustrator 29.8.2, SVG Export Plug-In . SVG Version: 2.1.1 Build 3)  -->
  <defs>
    <style>
      .st0 {
        fill: #f78e72;
      }
    </style>
  </defs>
  <path class="st0" d="M759.37-8.65c2.62,1.87,4.1,4.25,3.67,6.87-1.36,8.17-22.69,14.52-34.49,5.9-7.89-5.76-2.59-10.51,1.78-13.03L143.43-14.17l23.51,60.24,516.48,89.65,38.23-19.31,112.31,22.07,14.97-15.76.39-14.58s3.15-4.33,7.88-5.91v-12.22s11.43-11.03,23.64-3.55v13.4s9.85.39,10.25,4.33c.39,3.94-.39,12.22-.39,12.22,0,0,16.62,13.47,21.68,21.06l8.61-.51,284.16,60.78,5.07-1.01s0-3.66,8.19-5.17l-.22-10.34s9.7-4.09,19.18-1.72l-.22,10.34s8.62-1.51,8.62,2.37-.86,6.03-.86,6.03l6.46,4.52,9.26,7.54,21.12,4.74.8-219.02-523.17-4.69ZM402.93,74.18s-12.87-3.29-11.77-9.31,21.35-3.83,28.47,3.29-14.24,7.12-16.7,6.02ZM604.43,108.95s-19.99,1.92-20.81-4.11c-.82-6.02,13.42-5.48,13.42-5.48,23.82,4.11,7.39,9.58,7.39,9.58ZM794.15,117.99s-12.05-.55-12.87-3.83c-.82-3.29,5.2-6.3,19.16-4.93,13.96,1.37,4.11,7.94-6.3,8.76ZM943.36,57.76c-5.48,3.01-24.09,6.84-29.02.82-4.93-6.02,15.33-11.5,15.33-11.5,26.83-2.46,19.16,7.67,13.69,10.68ZM1098.2,104.14c-5.68,1.84-20.26,5.06-25.48,1.53-5.22-3.53,13.97-8.75,13.97-8.75,25.32-2.76,17.19,5.37,11.51,7.21ZM1203.31,149.01c-3.72,3.16-18.77,5.76-25.65,2.97-6.88-2.79,12.45-6.69,12.45-6.69,14.31-1.3,16.91.56,13.2,3.72ZM1274.31,168.34l.19,4.83s-3.72,2.04-14.31,3.72c-10.59,1.67-14.13.93-14.31-.93-.19-1.86.56-4.83.56-4.83,0,0-6.32-1.3.19-2.97s17.84-3.53,25.65-2.97c0,0,8.18,0,2.04,3.16Z"/>
</svg>