<?xml version="1.0" encoding="UTF-8"?>
<svg id="Layer_1" xmlns="http://www.w3.org/2000/svg" version="1.1" viewBox="0 0 1280 720">
  <!-- Generator: Adobe Illustrator 29.8.2, SVG Export Plug-In . SVG Version: 2.1.1 Build 3)  -->
  <defs>
    <style>
      .st0 {
        fill: #73c6f4;
      }
    </style>
  </defs>
  <path class="st0" d="M1179.26,459.5h-.01s.6,27.22.6,27.22c8.38,4.79,8.98,10.77,8.98,10.77l20.35,3.29,2.09,1.8-30.22,5.69,1.2,9.87,3.29,4.19-6.58,1.5-11.07-.3-7.18-2.39,1.2-3.89.03-4.63-93.09,18.99h-10.47l-131.36-30.82-2.09-2.09,139.74-20.95,8.08.3,80.49,13.17.3-18.25c1.2-8.38,6.58-1.8,6.58-1.8l.3,20.65,8.98-2.09-.3-31.42-7.18-1.5-606.54,79-.3,15.86,12.27,9.58v163.69l112.51-2.11-10.17-8.98v-39.8l2.39-1.5,37.4,32.62v18.85l76-.3,394.08.3,103.53-48.47.3-203.18-104.13-12.87ZM1241.22,510.52h0s-11.2-.21-11.2-.21l-10.58-2.49-.62-2.07,5.39-.83v-3.94l-3.11-.41,1.04-8.3-33.81-2.28-.41-3.11,34.43,2.07,6.64-2.28,8.92,2.07,2.9,13.07-4.36.62.21,3.11,6.22,3.32-1.66,1.66Z"/>
</svg>