<?xml version="1.0" encoding="UTF-8"?>
<svg id="Layer_1" xmlns="http://www.w3.org/2000/svg" version="1.1" viewBox="0 0 1280 720">
  <!-- Generator: Adobe Illustrator 29.8.2, SVG Export Plug-In . SVG Version: 2.1.1 Build 3)  -->
  <defs>
    <style>
      .st0 {
        fill: #c45f05;
      }
    </style>
  </defs>
  <path class="st0" d="M180.21,720.08l-4.36,1.82-2.54-6.54-1.12-180.64-7.72,14.68-31.63,46.56-27.73,1.98-.5-572.68,26.12,11.11,47.68,102.37-4.36,4.73,3.27,274.12s-5.45-12-21.45,6.54l9.45,2.18v5.09s-13.09-.73-14.18,5.09c-1.09,5.82,1.09,9.82,1.09,9.82,0,0-3.65.67-5.12,3.23l-.41-273.49-17.83-20.8,1.49,367.42,16.84-18.32-.08-49.72s.02.03.02.05c2.9,6.91,11.63,8.36,11.63,8.36l1.09-15.27-2.91-2.54,4.36-3.27,2.54-3.27,4,6.91,3.64,1.45s-4-5.09,4.73-9.09l-.73,12.72-14.18,17.09v8.73l16.72.36h0s2.18,243.22,2.18,243.22ZM87.66,470.39l.35,9.54.17,22.02,2.43-4.16,5.83-.36.24-499.98-23.73,1.14,1.53,447.7,13.18.52v23.58ZM79,568.06l17.92-2.46-.24-54.68-1.79,1.44-7.5,1.07-.53,7.68-5.54,3.21-6.43,2.32v27.85l3.93,5.53.18,8.04ZM93.46,588.59s-3.75,5.89-16.96,4.64l.54,135.67,20.74,1.01-1.12-149.99-3.2,8.67Z"/>
</svg>