<svg width="1280" height="720" viewBox="0 0 1280 720" fill="none" xmlns="http://www.w3.org/2000/svg">
<path d="M411.5 628.5H397L389.5 630.5H353.5L328 631.5H290L261 632.5L234.5 634.5H205.5L197.5 637.5L177.5 636.5L161.5 634.5H140.5L125.5 633.5L119 636L112.5 632.5L109.5 634.5L103 632.5L96.5 634.5L85 632L80 630.5L76 632.5H51L34.5 633.5H29.5L18 632.5L3 632L0 630.5V537.5L7 538.5H22.5L31.5 537.5H71.5L89.5 535L101 534H108L115 535L120.5 536.5L130 537.5L154 535.5L201 534L278 533L398 532.5L411.5 628.5ZM772 249L772.5 341.5V387.5L773.5 452.5L774.5 495L765.5 496.5L759.5 498.5L755 500.5L752.5 504.5L768 617.5L760.5 617L750.5 618.5L738.5 619.5L738 619L737 611L734 597.5L731.5 586.5L729.5 112L506 112.5L506.5 278V425L507 505V591.5L503 623.5L499 625L492 625.5H477.5L483 511.5L482 509L477.5 506L472.5 504.5L466.5 503.5H465.5L468 500.5V498.5L465.5 500.5V358.5L465 273L463 113L462 69H649.5L687.5 68H773L772 249ZM1280 590.5L1268.5 593H1255.5L1235.5 598.5L1229.5 597.5H1215.5L1182 598.5L1157.5 600.5L1120.5 602H1089.5L1072 603.5L1046.5 606.5L1038 605L996 608H956.5L923 609L901 613L873.5 614L834.5 615.5L838 530L1050.5 529L1089 527.5L1131 528.5H1164.5L1228.5 527L1280 524.5V590.5Z" fill="#1A00FF"/>
</svg>
