<svg width="1280" height="720" viewBox="0 0 1280 720" fill="none" xmlns="http://www.w3.org/2000/svg">
<path d="M839 504.5L838 530L998.5 529.5L1051 529L1089 527.5L1131 528.5H1165L1228.5 527L1280 524.656V0H0V537.5L6.5 538.5H22.5L30.5 537.5H46H54.5H71.5L90 535L101.5 534H107L114 535L120.5 536.5L130 537L148 536L177 534.5L210.5 533.5L398 532.5L396 519.5L402.5 513.5L411.5 509.5L418.5 507.5L428 505L434.5 504L449 503L459 502.5L464 496V497.5H465L465.5 496.5V365.5L465 271.5L464 197L463.5 144.5L462 69H646.5L692.5 68H773L772 136.5V282L772.5 374L774 495L782 494H793.5L810 495L825.5 498L833 500L839 504.5Z" fill="black"/>
</svg>
