<svg width="1280" height="720" viewBox="0 0 1280 720" fill="none" xmlns="http://www.w3.org/2000/svg">
<path d="M300 490H478.5V525L479 561H416L406.85 560.949L407 560.5L407.5 558.5L408 556L408.5 555H412.5L414.5 554V553L410 548.5L407 546.5L405 545.5L399 546L397.5 546.5L396 547.5L394.5 549H394L390.5 548H386.5L382.5 548.5L380.5 547.5L378 547L376.5 546H374.5L373 545.5H363.5L362 546.5L361.5 548L360 547H358.5L356 546L351.5 545.5L347.5 546H346.5L344.5 548V548.5L343.5 548L337.5 547L333.5 547.5L331.5 548L330.5 549L329 549.5L328 550.5L326 551H324.5L323.5 552L324 555L324.5 559L324.875 560.5H299L300 552L299.5 551.5H289.5L286.5 549.5L290 489H298L300 490ZM760.5 561H519.5L522 479.5H759L760.5 561ZM990.5 489L995 560.5H917L915 549.5H893.5L895.5 560.5H878.5L876.5 549.5H855L856.5 561H833.5L831 549.5H810.5L812.5 560.5H803V556.5L802.5 551H801L801.5 509V489H990.5ZM757.5 452.5L522 453.5L524.5 381H755.5L757.5 452.5ZM478 447.5H475L473 444.5V442.5L474 440L473.5 438.5L474 437L470 433L462.5 433.5H438L430 434L424.5 433.5L422.5 433L419 434L417.5 432.5L413 434L409.5 433.5L407 433H404.5L402 433.5H392.5L390.5 434L385.5 433.5L384 433L381.5 434H374.5L369.5 433.5L368 433L364.5 434L362.5 433L354.5 432.5L357 382H477.5L478 447.5ZM986.5 421.5H979L969 425.5L968 427V428L955 433L810 434L807 435.5L806 440.5L804 419L802 418L803 382H983.5L986.5 421.5ZM350 433.5H326.5L312 428.5L311.5 428V426.5L310.5 425.5L301 422.5L293.5 422L297 382H354L350 433.5Z" fill="#B43000"/>
</svg>
