<svg width="1280" height="720" viewBox="0 0 1280 720" fill="none" xmlns="http://www.w3.org/2000/svg">
<path d="M800 271L800.5 271.5V272.5L802 320.5L803.5 320L1084.5 319.5H1099.5L1100 320V321L1098.5 340L1095.5 386.5L1093.5 421.5V422.5L1094 423H1232.5V432L1230.5 453L1227.5 480L1223 514.5L1215 585H1190.5V552.5L1189.5 506.5L1187.5 441H979.5L978.5 422.5H1039L1039.5 422V421.5L1038 385L1037.5 361.5L1036.5 334.5H948L881 334H803.5L802.5 335L803 342.5L802.5 379L802 418L804 418.5L804.5 447.5H800L798 449V472.5L801.5 473V497L801 551H790V561L791 563V564H780L780.5 502V433.5L781 411L780.5 382.5L781 353.5L780.5 316L780 286H500.5L499.5 412V470.5L500 564H494L495 563L495.5 562V551.5L495 551L492 550.5L492.5 549.5V547L491.5 545L491 546.5V548.5L490.5 549L490 546.5L490.5 545L491 544L490.5 542.5L490 540.5V540L491 539V537.5L490.5 536.5L489 536L488.5 537V537.5L489 539L488.5 542L489 550.5L483 551V560.5L483.5 562.5L484 564H480.5L479 563L478.5 499.5V486H286.5V487L286 501L284.5 523L283.5 541.5V549L279 547.5L273 546H268L273 472L474 471.5L477 472.5H482L482.5 449L480 447.5H478V379H293.5L290.527 422.585L301 422.5L299.5 441L93 442L89.5 503.5L88.5 571.5L88 570.5H87L88 572.5H86.5V575L85 574.5L84 575H82.5L83.5 576.5L84.5 576L85 576.5L83 579L82 577.5L80 578L79 577L78 577.5L77 579H76L75.5 581L74.5 580L72 581L71 582.5V583L73.5 583.5L72.5 585L71 584L68.5 585.5L67.5 585L66.5 585.5L66 585L65 585.5L64 576L61.5 554.5L59 530.5L57.5 516.5V516L55 496L52.5 475.5L50 456L48.5 441L47.5 423H187L180.5 321.5V320H477L478 320.5L479.5 271.5L480.5 270.5L800 271ZM1055 573.5H1051.5L1054.5 566L1055 573.5ZM237 548L234.5 549L231.5 550.5L228.5 552.5L227.5 553.5V554.5L228.5 555.5L230.5 556L232 556.5L233.5 562.5L234.5 568.5L235.5 571.5L235 573H226L227 554L232.5 474.5L234.5 466.5H239.5L237 548ZM1054 562L1052 566.5L1049.5 573L1049 565.5L1045 565L1043.5 544L1042 520L1040.5 474.5H1047L1054 562ZM519.5 477L517.366 562.5L516.5 563H507.5L508 476.5H519L519.5 477ZM773 501.5L774 533V563H763L761 476.5H772.5L773 501.5ZM1013 562.5H998L993.5 486.5L992 486H802L801.5 473L802 472.5H1007.5L1013 562.5ZM768.5 307L772 454H762L760.5 378H521L519.5 454H508L511 306H768L768.5 307ZM240 423L274.006 422.721L275.5 352L277 351H478V334.5H243L240 423ZM1006.5 422H989.5L987 379.5L986.5 379H802.5L803 351H1005L1006.5 422ZM770 302H510V295.5L770 295V302ZM773 290V293.5H507V289.5L773 290Z" fill="black"/>
</svg>
