<svg width="1280" height="720" viewBox="0 0 1280 720" fill="none" xmlns="http://www.w3.org/2000/svg">
<path d="M1190.5 585L1180 584L1178 548.5L1176 515L1174 479L1172.5 454.5L1047 474.5H1040.5L1042 524L1045 565L1013 562.5L1007.5 472H1036.5V466H1045L1160.5 444.5H1172L1187.5 441L1190.5 585ZM109.5 444.5H120.5L234.5 466.5L232.5 474.5L107.5 455L106.5 470.5L105 498L103.5 524L100.5 577.5L99.5 578L98.5 577.5L98 576.5H96L96.5 576L97 575H95.5L95 576L93 576.5L92.5 574.5L93 573.5L92.5 572.5L91 573V574.5L90 573L90.5 571.5L89 571H88.5L89.5 504L93 442L109.5 444.5ZM507 289.5V293.5L510 295.5V302L511 306L508 454L507.5 454.325V476L508 476.5L507.5 563L500 564L499.5 504.5V402.5L500 357.5L500.5 286L507 289.5ZM780.5 321L781 352V355.5L780.5 383V386.5L781 405.5V409.5L780.5 430.5V519.5L780 546V564L774 563V533L772.5 476.5L772 454L768.5 307L768 306L770 302V295L773 293.5V290L780 286L780.5 321ZM243 471L244 472H273L268 546H267L262 547L260.5 548L257.5 547L255.5 546.5L251 546H248.5L246.5 547L243 546.5L239.5 547L237 548L239.5 466.5H243.5L243 471ZM310.5 425.5L311.5 426.5V428.5L310 444L299.5 441L301 422.5L310.5 425.5ZM979.5 441L970.5 444L969.5 443L968.5 427L969.5 426L978.5 423L979.5 441ZM277 351L275.5 352L274 423H240L243 334.5L277 351ZM1038 379L1039.5 422L1039 422.5H1006.5L1005 351L1036.5 334.5L1038 379Z" fill="#3700FF"/>
</svg>
