<svg width="1280" height="720" viewBox="0 0 1280 720" fill="none" xmlns="http://www.w3.org/2000/svg">
<path d="M255.5 546.5L257.5 547L260.5 548L262 547L267 546H273L279 547.5L283 549L285 550L287.5 551L289.5 551.5H299.5L300 552.5L296.5 569.5H295L285 571L271 572H236.5L235.5 571.5L234.5 568.5L233.5 562L232 556.5L228.5 555.5L227.5 554.5V553.5L228.5 552.5L231.5 550.5L233.5 549.5L237 548L239.5 547L243 546.5L246.5 547L248.5 546H251L255.5 546.5ZM374.5 546H376.5L378 547L380.5 547.5L382.5 548.5L386.5 548H390.5L394 549H394.5L396 547.5L397.5 546.5L399 546L405 545.5L407 546.5L410 548.5L414.5 553V554L412.5 555H408.5L408 556L407.5 558.5L407 560.5L404.5 568L400.5 568.5L397 569H326L326.5 568L326 567L325.5 563L324.5 559L324 555L323.5 552L324.5 551H326L328 550.5L329 549.5L330.5 549L331.5 548L333.5 547.5L337.5 547L343.5 548L344.5 548.5V548L346.5 546H347.5L351.5 545.5L356 546L358.5 547H360L361.5 548L362 546.5L363.5 545.5H373L374.5 546Z" fill="#FF00A6"/>
</svg>
