<?xml version="1.0" encoding="UTF-8"?>
<svg id="Layer_2" xmlns="http://www.w3.org/2000/svg" version="1.1" viewBox="0 0 1280 720">
  <!-- Generator: Adobe Illustrator 29.8.1, SVG Export Plug-In . SVG Version: 2.1.1 Build 2)  -->
  <defs>
    <style>
      .st0 {
        fill: #e856b8;
      }
    </style>
  </defs>
  <path class="st0" d="M1178.64,46.55l-1.94,362.59-32.35-.58,2.22-30.25-7.56-.44,5.78-5.78,18.24-9.34-11.12,3.11,13.79-16.46-15.57,12.46,7.56-8.9-16.01,9.79,12.46-10.68-8.45,3.11,4-6.67-8.9,8.45.44-13.35-5.78,22.24s-.89-11.57-8.9-17.79l-2.22-6.67-1.33,12.46-5.34-11.12-6.23,11.12-8.01-10.68-.44,11.57-6.23-5.34.89,8.9-7.12-.89-3.13-1.82-10.66-6.19,10.14,9.88-9.57-1.77,7.44,3.37h-3.19l-1.95,8.86-.89,1.95-8.86-4.43-1.77-5.67-5.32-1.95-6.03,2.13-.89,4.61-8.86,6.2-7.8-.18,2.3,3.72-3.19,3.01,2.66,1.24-.35,22.33s-8.38-6.49-21.91-2.97l-37.86-.81-13.52,3.25-106.56-3.79v-16.55l-2.61-.87,1.45-3.34-3.49-.73-5.81-.29.44-3.19,2.18-.73,3.78,1.02-1.45-3.92-5.37.15-3.05,2.03,1.74-4.79-2.47-5.66-4.07-2.32-1.74,1.6,3.63,4.65-.87,1.74-3.63-1.02-3.19,4.94-1.45,4.79,2.76,3.19,3.78,3.49-5.66.29.58,16.26h-7.67l3.47-5.2.25-68.32-2.23-4.95-35.41.5-.49-10.15s-2.23-4.46-6.19-3.22c-3.96,1.24-4.21,8.66-4.21,8.66,0,0,3.22,12.62-9.65,20.79l-.74,29.95s-7.18,9.9.5,21.29v6.93h-13.12l-.25-15.1,4.46-8.17.5-3.71-6.93,5.45-.74-7.18-1.73,3.22-.74-5.2-2.48,2.72-2.23-5.45-2.97,8.42-2.23-4.95-2.97,1.73.25,6.68-2.97-3.96.25,5.69,1.98,3.71-4.46,1.24v14.11l-44.31-.99-.5-23.52-2.48-.5s7.4-10.8,13.57-13.7l-7.88,2.56,6.19-6.93-5.94,3.96,2.97-7.43-5.94,5.94-.25-6.19-6.19,2.48-2.72-4.95-5.94,5.69-3.71-4.46v4.95l-4.7-4.21.5,5.45-11.63-5.45-1.49,7.43-4.21-5.69,1.24,6.44-7.67-3.96,6.68,7.67-9.9-2.97,12.38,7.67,5.94,6.19-2.72.25.78,24.24-70.88-2.28-.76-5.32,12.91-.25v-8.1h-3.54v-11.39h-5.06l-.25,7.85h-2.53v-23.54s-.25-9.11-8.1-10.88l-12.91.25-7.09-.51.76,5.82,7.85-.51h7.09s6.33.25,6.33,7.34v21.52l-2.78.25.76,16.71-36.2-.76-.76-116.19,84.8-4.56-.51,36.2,22.28.25,22.28,2.03,47.08-1.77-.25-49.87,13.42,3.29,142.26-9.11v-11.39l-24.3-14.68-20-.51.51-118.72,48.35-8.86-.25,199.47,15.95,5.06,190.36-6.08,4.3-6.83-.21-224.55,88.22-17.45ZM754.21,229.07l-.51-111.63-33.92,5.57.25,111.89,34.17-5.82Z"/>
</svg>