<?xml version="1.0" encoding="UTF-8"?>
<svg id="Layer_2" xmlns="http://www.w3.org/2000/svg" version="1.1" viewBox="0 0 1280 720">
  <!-- Generator: Adobe Illustrator 29.8.1, SVG Export Plug-In . SVG Version: 2.1.1 Build 2)  -->
  <defs>
    <style>
      .st0 {
        fill: #89ef59;
      }
    </style>
  </defs>
  <path class="st0" d="M470.21-7.14l-237.1,75.41.6-75.41h236.5ZM571,7.6l-3.75,3.75-7.16,3.24-6.31-.85-4.43-14.84h-71.62l-16.54,6.14.51,2.56v14.32l5.29,10.57-.68,4.6-3.92,3.24-6.14,2.22-3.58-.85-5.97-12.45,1.19-3.75,2.39-13.98-.51-3.41-56.79,17.57-.51,6.48-2.22.85v7.67l4.09,3.41,1.53,5.97-6.14,11.6-4.43-.17-8.02-5.63-1.53-3.58,5.97-11.6,2.39-1.36v-6.48l-2.39-1.53v-2.39l-64.8,20.98v4.6l-2.39,1.19,1.53,8.02,2.05,2.9,2.56,6.65-9.55,8.7-8.53-6.31-2.9-4.6,8.02-8.19-.85-10.06-66.34,20.46,1.02,7.16,2.56,13.13-2.05,1.53-.68,5.97-8.19-.17-.03,25.86,241.15-61.66,51.44,26.63,169.65-36.48,1.74,1.8,181.62-40.01.29-2.57,78.69-17.95-389.62,1.71,2.9,9.38ZM1243.6,436.77l43.63,17.45-5.33-144.94-2.93,17.97s-3.14,8.92-25.08,4.34c-21.95-4.58-29.91-6.03-41.48-4.34-11.58,1.69-23.88-3.86-23.64-20.02.24-16.16,5.55-52.1,5.55-52.1l2.17-20.02,1.21-22.67,5.31-27.74,4.1-14.23-.24-14.71,5.31-4.58,2.17-5.06s13.99-21.95,12.06-33.53c-1.93-11.58-6.03-30.63,11.58-39.07,0,0,12.3-1.93,12.54,2.41.24,4.34.48,9.89-3.38,17.85-3.86,7.96-6.51,12.78-6.51,12.78l8.68.72s-6.27,19.3,1.93,26.77,21.71,12.78,21.71,12.78l.24,9.17s9.89,8.2,8.2,18.81c-1.69,10.61-11.82,24.6-9.65,31.11s5.31,19.54,11.34,31.6-.12-245.21-.12-245.21l-187.68,4.31,1.45,10.66-5.82,28.6-.48,28.12,88.22-17.45-1.94,362.59,24.24-1.45,18.91,12.6,28.12.48,7.27,6.79-5.82.97-5.82,8.24Z"/>
</svg>