<?xml version="1.0" encoding="UTF-8"?>
<svg id="Layer_1" xmlns="http://www.w3.org/2000/svg" version="1.1" viewBox="0 0 1280 720">
  <!-- Generator: Adobe Illustrator 29.8.1, SVG Export Plug-In . SVG Version: 2.1.1 Build 2)  -->
  <defs>
    <style>
      .st0 {
        fill: #48afef;
      }
    </style>
  </defs>
  <path class="st0" d="M1282.81,452.67l-1.16,269.08-442.13,5.65v-.02s-.01-284.58-.01-284.58l36.3-17.5-400.11-17.18v-10.35l69.41-6.95,36.2.76-1.75,1.98,9.77.38-.68-1.6,70.88,2.28,2.04.85,31.04-.38.54-1.44,44.31.99.37,2.37h-17.63l-38.71,5.75.19,1.92,162.11,4.98,24.34-8.24-7.47-.96.1-2.09,106.56,3.79s-7.4,3.67-7.78,6.35l32.38,4.41,4.22,2.11,34.68,5.37,47.91-1.34,5.37-2.87-1.34-1.72-8.62-3.83,13.99.38,3.64,1.72s3.45,7.09-12.07,9.58l.19,1.72,30.08.77-1.34-1.53s-12.26-.57-12.07-9.77l12.07.57s.38,4.6,5.75,5.94c0,0,1.92,4.79,6.32,6.9l2.54,1.24-.26,2.45s16.9,2.58,24.64,8l3.1,2.45,20.38,2.32,29.54,2.32,17.29-1.16,2.58-2.97,13.67-4,9.42-.78,39.21,15.88Z"/>
</svg>