<svg width="1280" height="720" viewBox="0 0 1280 720" fill="none" xmlns="http://www.w3.org/2000/svg">
<path d="M328 293.5L339 295.5L344 296.5L347 297.5L348.5 298.5L349.5 300L350 301L350.5 305L353.5 319L355.5 326L358 335L361 345L364 356L365.5 361L367.5 367.5L369 372.5L371 378.5L372.5 383.5L375.5 395.5L376.5 401L377.5 408.5L378 414L377.5 420L391.5 418.5L392.5 418L389 415V413L389.5 412L403.5 410.5L434.5 409.5L457.5 410L462 411.5L461.5 414.5L458.5 417H454L454.5 418.5L454 421.5L450.5 424L448 425L444 425.5H437V426.5L438 427L437 429L433.5 429.5L425 432.5L420.5 454C425 453.833 438.5 453.5 456.5 453.5C474.5 453.5 487.333 460.833 491.5 464.5L494 467L495 469L496 474.5V479L495.5 482.5L494 485.5L491 489.5C489.8 490.7 487.5 490 486.5 489.5L485.5 489L481 490.5L478 496L477 498L475.5 498.5L473.5 499.5C472.7 511.5 466.833 516.833 464 518C451.6 523.2 434.833 526.167 428 527H418V529L417 529.5L417.5 609.5L421 610.5V611.5L438 610.5L439.5 611.5V613C463.5 613 473.833 617 476 619H479.5L484.5 619.5L485.5 620V621.5L484.5 622.5H478.5C478.5 628.1 448.5 631.5 433.5 632.5H431.5L430.5 632L421 633V654H424L429 654.5L434 655.5L436.5 656.5H438L447 658.5L462 661.5L484 667.5L516.5 678L517.5 679.5L518 689.5L517.5 702V704L516.5 706L515.5 707.5L514 709L512.5 710L510 711H506.5L503.5 710.5L501.5 709L500.5 708L498.5 705L498 703.5V698.5L499 694.5L500 693L501.5 691.5L504 690L505.5 689.5L508.5 689L510.5 689.5V685L503.5 683L494.5 680.5L484 678L469 675.5L456 674H452V684.5L451 685V687C451 691 448 693.333 446.5 694L444 695V696L445 705V718H444V720H423L423.5 717L424 714.5L425 712.5L426 711L427.5 709.5L429.5 708.5L432 707.5L434 707H436.5V702.5L435.5 701L433 697L431 693.5L428.5 690L425.5 686.5L422.5 683.5L421.5 683V684L420 685L416 686H410.5L406 685V684.5L404 683V676.5L403.5 675.5L402 675H398.5L394 675.5L380 678.5L366 682.5L358.5 685L349 688.5L341 692L340 692.5L339.5 694.5L338.5 697L337.5 699L336.5 700L335 701L333 702L330 702.5V711.5L329.5 714.5L327.5 718.5L326.5 720H310.5L309.5 719L308.5 717L308 714L308.5 710.5L309.5 708.5L310.5 707.5L311.5 705.5L314 703L316.5 702L318.5 701.5H322V698L321 696.5L320.5 695V691L321 688L322 686.5L323.5 684.5L326 682.5L330 681H333V677L333.5 670.5L335 670L340.5 668L353.5 664L367.5 660.5L379 658L390 656L400.5 654.5L406 654V633L383 632L374 631.5L368 631L361.5 630L358 629H356.5L353 629.5C351 629.5 350.833 627.833 351 627C348.6 625.8 348 624.5 348 624C348 620.8 354.667 618.333 358 617.5L358.5 615L405.5 613V611.5L406 610.5L408 610L409.5 609.5V529.5H408.5L407.5 527H404C400.4 527.4 398.5 525.5 398 524.5L396 520.5L394 516L393.5 513L392 510.5L391 510V512H379C375 512 369.667 511 367.5 510.5L341 504.5C330.2 502.1 324.833 495.833 323.5 493L322.5 490L322 485.5V480.5L322.5 475L323.5 468L327.5 442.5L329.5 429L330.5 420L331.5 411.5L332 404L333 402L334 401L335 400.5L338 398.5L342 397L345 396L344.5 395L344 392V390L344.5 388L345.5 384.5L346 382V369L330 305H329.5L326.5 304L325.5 303L325 297L323 296.5L320 295.5L319.5 294.5V293L320 292.5H323L328 293.5ZM350.5 673.5L347 674.5L343 676L340.5 677.5V680.5L358 672L350.5 673.5ZM435 678L436.5 677L437.5 676L439 675.5L441.5 674.5H445V673.5L441.5 673L432 672.5L435 678ZM403 624L365.5 628C373.5 628.833 392.8 630.5 406 630.5V625.5L404.5 624H403ZM421 630.5L426.5 630L421 627V630.5ZM471.5 622.5H425V623L433 630L444.5 629L453 628L461 627L466 626L469 625.5L472 624.5L474 623.5L475.5 622.5L474.5 622L471.5 622.5ZM366.5 618.5L361 619.5L357 620.5L353.5 621.5L352 622.5L351 623.5V624.5L351.5 625L354 626L382 620L383.5 619.5L367.5 618.5H366.5ZM377 428L376 432.5L375 435.5L373.5 439L372 442L370.5 444.5L368 447.5L365.5 449.5L363.5 451L358.5 454L357.5 455.5L353.5 458.5L351 460L347.5 462L342.5 464.5L338 465L337.5 465.5L337 470.5L336.5 475V480L337 482L338 484.5L340 486.5L341.5 487.5L344.5 470.5L345 469L345.5 468L353.5 464L359 462L368 459L377.5 457L385.5 456L395.5 455.5L399 438.5L399.5 437.5L402 437L401 435L390.5 429.5L389.5 427.5L381.5 427L377.5 425L377 428ZM349.5 428.5L349 429.5L343.5 432.5L340.5 432L338.5 454L343.5 451.5L347.5 449L351 446.5L353 445L354 442.5L355 439.5L356 435.5L356.5 430.5V426.5L349.5 428.5ZM345 406.5L344 407.5L343.5 409L343 411.5L342.5 414.5L342 420.5L341.5 423.5L352.5 418.5L353.5 418L347 405L345 406.5Z" fill="#00E1FF"/>
</svg>
