<svg width="1280" height="720" viewBox="0 0 1280 720" fill="none" xmlns="http://www.w3.org/2000/svg">
<path d="M64.5 15.5L78 16L75 0.5H232V85L228.5 93V221.5L228 222V397.5H227V473H229.5L233 479L232.5 611.5V658.5L232 659L0.5 667V392.247C7.00001 392.832 20 390.2 20 375C20 359.8 7 356.667 0.5 357V321H18.5L7.5 240.5L6 239.5H3L2.5 238.5L0.5 238V179L38.5 179.5V168.5L36 165L35 164.5H0.5V128.012L80 130V124H81.5L83 124.5V101.5L81 98L9 96.5V102H6.5V108.5H5.5V115L4.5 115.5V122H0.5V13.5L7.5 14H13.5L17.5 12.5L18 11.5V0.5H61L64.5 15.5ZM45.5 421.5L42 424.5L42.5 433L41 433.5L39.5 436.5L40.5 438L36 444L35.5 446V448L35 449L34.5 450.5L32.5 453L32 454V459L31 460L30.5 463.5L27.5 466.5V474L108.5 473L109.5 472L110 421.5H45.5ZM120 304.5V312.5H124V322H122.5V330.5L122 331V347H126V353.5L123.5 354V358.5L124.5 359V371L123.5 371.5V378.5L119 379V387L118 388.5V392.5L200.5 392V388L199.634 387.5V378.5L198 377.557V359L197.5 358.5V354L196 353.5V348L198.5 347.5V304.5H120ZM47.5 309L49.5 391.5L75 391L77.5 389L74 317.5L72 308.5L47.5 309ZM49 181V183.5L52.5 261.5H73.5L70.5 185L67.5 180.5L49 181ZM121 135L119.5 135.866H96V215L219 216.5L207 137L202.5 137.5V136.5L195.5 137L195 135.5L187 136L181 137V138L171.5 139L171 135.5H144.5V138H136.5V136H130L129.732 135H121ZM158 21L147.5 21.5L144 23L144.5 38.5L145.5 53L148 66.5L150.5 78L183 78.5L186.5 64L188.5 49L189 42.5L190 24.5L188.5 24L186 23L182 22L175.5 21.5L164.5 21H158Z" fill="#00FF04"/>
</svg>
