<svg width="1280" height="720" viewBox="0 0 1280 720" fill="none" xmlns="http://www.w3.org/2000/svg">
<path d="M1054.5 679.5L1043.5 680.5L1031 682L1017 683.5L997 685.5L985 687L976 688L851 633V599L1054.5 679.5ZM409.5 609.5L408 610L406 610.5L405.5 611.5V613L358.5 615L358 617.5C354.667 618.333 348 620.8 348 624C348 624.5 348.6 625.8 351 627C350.833 627.833 351 629.5 353 629.5L356.5 629H358L361.5 630L368 631L374 631.5L383 632L406 633V640.125L232.5 646V611.5L409.5 606.332V609.5ZM506.5 636.723L421 639.617V633L430.5 632L431.5 632.5H433.5C448.5 631.5 478.5 628.1 478.5 622.5H484.5L485.5 621.5V620L484.5 619.5L479.5 619H476C473.833 617 463.5 613 439.5 613V611.5L438 610.5L421 611.5V610.5L417.5 609.5L417.479 606.099L506.5 603.5V636.723ZM544 635.5L531.5 636V602.5H543.5L544 635.5ZM691 601.5L692.5 602.5L693.5 604L694 605.5V608L695.5 609.5L696.5 611L697 612.5L698 614.729V616L700 618L701 620L702 623L704.5 625.5V626.5L706 628.5V630L650.5 632V599L691 598V601.5ZM406 625.5V630.5C392.8 630.5 373.5 628.833 365.5 628L403 624H404.5L406 625.5ZM426.5 630L421 630.5V627L426.5 630ZM475.5 622.5L474 623.5L472 624.5L469 625.5L466 626L461 627L453 628L444.5 629L433 630L425 623V622.5H471.5L474.5 622L475.5 622.5ZM824 626.5H819L821.5 624L822 623V621H822.5L823 619.5L824 618.5V626.5ZM383.5 619.5L382 620L354 626L351.5 625L351 624.5V623.5L352 622.5L353.5 621.5L357 620.5L361 619.5L366.5 618.5H367.5L383.5 619.5Z" fill="#FFB300"/>
</svg>
