<svg width="1280" height="720" viewBox="0 0 1280 720" fill="none" xmlns="http://www.w3.org/2000/svg">
<path d="M1131 437.5L1132 438.5L1280 456V595L1268.5 595.5H1263L1260 602.5L1261.5 610.5V616.5L1259 621.5L1256.5 626L1251.5 643.5L1236 697L1191.5 686.5L1177.5 684L1167 682.5L1163.5 680.5L1152 677.5L1137.5 674.5L1132 673.5L1127 673L1116 672.5L1110 673L1101 674L1054.5 679.5L851 599V548.5L849.5 548V458L848.5 457.5V402H852.5L853.5 402.5L863.5 401.5L866 396L866.5 395.5L886.5 394.5L887 393.5V390L894 389.5V410.5L895 411L1048.5 429.5V0.31543H1131V437.5ZM894 380H869.5L870 377L870.5 370L870 365L868.5 359L867 353.5H874.5L875.5 353V237H872L870.5 235.5L873 229V228L871 227L867.5 226L869.5 223L873 222.5L874.5 222L875.5 221L878 209.5L879 207L883 200L889 188L894 177V380ZM894 0.5V126.5L891.5 131.5L890 136L889.5 138V139.5L891.5 142.5V144H890.5L889 142.5H888L887 143L883.5 147.5L881 150.5L879.5 152.5L879 153.5L879.5 154.5L881.5 157L886.5 163.5L886 164L885 163L879 158L878 157L877 156.5L876 158.5V159L876.5 160L875 162H874V161L875.5 155.5L876.5 146.5L867 147.5H864.5V147L867 146.5L872.5 145L877.5 143V132.5L876.5 116.5L868.5 119H867L869 118L876 115L872.5 110H869.5L865.5 108L861 107L862 105H863L864 104L865 99.5L865.5 95.5V88L865 82.5L864 78L863.5 76.5V74.5L862 73L860 70L858 68L856.5 67L854 66L852 65L850.5 65.5L849.5 66.5V67.5L851 68.5L852 69.5L854.5 74L851 69.5L850 69L849 70L846.5 82L843 82.5L837.5 84L837 0.5H894Z" fill="#FF0000"/>
</svg>
