<svg width="1280" height="720" viewBox="0 0 1280 720" fill="none" xmlns="http://www.w3.org/2000/svg">
<path d="M894.5 670.5V677.5L886.5 677V677.5L888 678L888.5 678.5V679.5L887 680H885H880.5L878.5 679.5L797 706V709L795.5 709.5L791.5 710L786.5 709.5L784 709L783 708H778L776.5 707L776 706V700.5L777 699L778.5 698.5L779.5 698L824 683.86V549L825.5 548.794V458H826.5L827 400L815 400.5L811.5 401H805L763.5 400H725.5L576 396.5V395.5L529 394.5V446H530V528.5H531L531.5 529.563V602V646.5L544 643.5V649.5L550 650.5V652.5L484 667.5L462.5 662L506.5 652V529H507.5V446H508.5V393.5L495.5 394.5L492.5 389.5L466.5 390.5V387L817.5 394L887 390V393.5L886.5 394.5L866.5 395.5L866 396L863.5 401.5L853.5 402.5L852.5 402H848.5V457.5L849.5 458V548L851 548.5V599V676L875 668L892.5 669.5L894.5 670.5Z" fill="#4400FF"/>
</svg>
