<svg width="1280" height="720" viewBox="0 0 1280 720" fill="none" xmlns="http://www.w3.org/2000/svg">
<path d="M1280 414.5L1276.5 414V438L1280 438.5V456L1132 438.5L1131 437.5V0.338867H1280V414.5ZM1178 428.5L1272.5 437.5V413.5L1178 406V428.5ZM1019.5 0.5V40L1048.5 30.5V37L1019.5 46.5V58.5L1048.5 49.5V67.5L1019.5 76V90L1048.5 82V88.5L1019.5 96V389L1048.5 391V395.5L1019.5 392.5V413L1048.5 416V429.5L895 411L894 410.5V389.5L921 387.5V381L894 380V177L897 172L899.5 167.5L901.5 163L903 159.5L904.5 158L905.5 155L908 148.5L911 141.5L913 136.5L915 132L914.5 121.5V113.5L913.5 111L911 106.5V105.5L909.5 104L907.5 101.5L905.5 99.5H904.5V102L909 109L909.5 110.5H909L908 108L906.5 106L904.5 103L904 104.5L903 107L901.5 111.5L899.5 116L896 122.5L896.5 123.5L897.5 125L898.5 127L900 130.5L901 133V133.5L900 131.5L899 130L896.5 126.5L896 125.5H895L894 126.5V0.5H931V69L978.5 53.5L979 0.5H1019.5ZM1276 27L1276.5 408.5L1279.5 409V25.5L1276 27ZM977 389.5V408L978.5 408.5V389.5H977ZM1177.5 52.5L1178 401.5L1272.5 408.5V27.5L1177.5 52.5ZM931 402.5L975.5 407.5V389.5L931 386V402.5ZM930.5 117V382.5L975.5 386V105L930.5 117ZM977 105V386H978.5V104.5L977 105ZM930.5 101V113.5L975.5 101.5V88L930.5 101ZM977.5 88V101L978.5 100.732V87.5L977.5 88ZM931 72V85.5L978 71V56.5L931 72ZM1269.5 1L1178 31V47.5L1272.5 22.5V1H1269.5ZM1276 1V21.5L1279.5 20.5V1H1276ZM1178 1V10.5L1211 1H1178Z" fill="#FF00BB"/>
</svg>
