<?xml version="1.0" encoding="UTF-8"?>
<svg id="Layer_2" xmlns="http://www.w3.org/2000/svg" version="1.1" viewBox="0 0 1280 720">
  <!-- Generator: Adobe Illustrator 29.6.1, SVG Export Plug-In . SVG Version: 2.1.1 Build 9)  -->
  <defs>
    <style>
      .st0 {
        fill: #86e20e;
      }
    </style>
  </defs>
  <path class="st0" d="M482.29,401.68l-40.9.08.46,63.86,37.88.77v5.57l-4.79.31s-.62,7.42,4.17,11.44c0,0-9.74,3.09-10.67,19.95l-.46,13.61-3.56.62-.46,5.57s-6.49,1.39-7.58,13.45c-1.08,12.06-1.08,22.42.77,26.59l-61.54,8.81-1.08,54.58-14.99,5.37-22.53,5.63-14.08,5.63-8.45,6.89-9.39.94-19.09-.94-26.29,6.57-16.9,3.13-26.6.63-22.22,4.69-18.78,3.44-8.45,5.32-2.5,3.13-12.21,7.82-17.21,15.65-38.81-7.82-16.59-1.56h-5.01l-.31-138.33,1.56-162.11-.31-158.05-.63-132.7,3.76-9.7,9.7.31.94,2.82,15.96,2.82,1.25-5.95-2.19-3.44-14.71-1.88-8.76-.31-7.51-3.13-1.25-3.13-7.82-.31-8.14,1.25-1.88-4.69h-10.64l-8.45.31-.31-3.76-5.63-.94-3.44-1.56-5.95,1.56-1.88-3.13-12.52.94-2.5-3.76-10.64,1.88-.94-4.07-14.08.94-3.15-21.73,487.09,103.66.48,100.26-9.33.75-6.05,1.28-.37-8.06-8.79.18-.37,3.3-3.66.73v25.47l-2.02,2.93.37,11.54,1.65,1.83,1.28,74.94h7.88l.55-5.31,10.08,1.28,2.02-3.66,7.28.43.23,48.57Z"/>
</svg>