<?xml version="1.0" encoding="UTF-8"?>
<svg id="Layer_1" xmlns="http://www.w3.org/2000/svg" version="1.1" viewBox="0 0 1280 720">
  <!-- Generator: Adobe Illustrator 29.6.1, SVG Export Plug-In . SVG Version: 2.1.1 Build 9)  -->
  <defs>
    <style>
      .st0 {
        fill: #05d1af;
      }
    </style>
  </defs>
  <g id="Layer_2">
    <path class="st0" d="M1283.7,23.21l-802.65,122,.48,100.24,3.26-.24,5.51.17.17-5.17,9.01.33,1.5,3.84,5.51.17h4.51l.33,7.34,8.01-.17,3.84.5.83-11.85,8.18.17,1.5,2-.33,20.03,3.51.5.17-11.85h7.68v12.19h3.67l-.5-19.03,3-1.84,6.01,1-.33,20.53,3.17-.5-1-25.21,9.18-1.34.5,2.84.5,23.7,3.15-.08.18-13.64,3.59-1.08,4.49.18.18-3.95,8.62.18,4.85,1.08h5.03l4.49,1.62,1.44-2.33.72-3.41,10.23.18,1.26,2.33,4.49,1.62,1.08-2.33h5.57l1.97,1.8.72-46.32,168.76-18.49,3.77,1.97.13,214.37h-171.69l-1.83-2.44-.61-31.96-6.47,1.94-3.07,3.56-5.01-1.62h-2.59v-4.85l-.32-7.12-3.07.32-1.13,6.15-2.26,1.13h-4.37l-1.78-2.26-.32-7.12-6.95,2.26-.49,8.09-6.63-.81-.97-10.51-4.04.49-.65,5.34-5.5.32-.97,7.28-6.95-1.94-1.29-16.34h-1.94l.49,24.1-7.44.16v-18.92l-3.88.16.32,19.08-7.76-.81.97-10.84-3.72,1.13v6.47l-6.95-1.62-.16-30.08-2.26.16v14.56l-8.25-.49v-18.44l-2.91.16v37.04l-8.09-1.13-.49-18.92h-3.23l-.49,3.88-15.04,1.62-.97,11.81-8.09-1.13-.49-5.18-2.17.56.2,41.18,39.97-.08.62,63.7.77,1.55c-2.32,18.55,7.42,34.02,7.42,34.02l8.12,17.63c6.18,17.63,1,36.8,1,36.8l-7.58,13.14,25.67,2.47,1.55-6.34,8.04-19.95,2.16-102.98,2.21-1.91,497.99,12.12-.26-47.18,1.81-2.07h111.48l4.93,1.81-.26,87.11-2.33,1.56-53.41.26-.26,7.78,4.93.52c1.3,8.81-6.74,15.04-6.74,15.04,15.55,5.18,16.95,27.21,16.95,27.21v64.16l8.26-1.41c-7.73-7.38-2.99-22.5-2.99-22.5l4.92-13.18,1.41-9.32c-1.23-2.29-1.58-1.58,2.11-8.44s8.61-4.39,8.61-4.39c6.68-1.23,9.49,5.8,9.49,5.8l2.81,5.45-2.29,3.34.18,6.68,4.39,12.48,2.64-12.83,3.52-18.28,1.05-16.52,3.52-.88,5.8.35,2.81-.7h9.49l4.57,2.99c-.88,6.68,2.29,26.9,6.68,44.65s-2.81,27.95-2.81,27.95l-.53,4.04,24.29,4.58-4.22,2.02,1.37,5.32,6.14.82,2.38,1.28-2.33,1.98.35,9.07,27.2,2.09v92.76l5.23-3.84.7-159.36-32.08-1.74-1.05-490.64,33.13-4.18,1.85-50.27h-.01ZM1014.8,393.88h-207.26l1.41-215.75,4.95-1.06,62.25-6.72,135.11-14.15,4.24,1.06.71,85.59-1.41,151.03ZM1126.69,516.76c-15.87,1.98-18.14,22.68-18.14,22.68l-.28,84.75-7.37-.57.85-129.82,22.39-.85.57,7.65-5.67,1.13c.85,10.49,7.65,15.02,7.65,15.02h0ZM484.65,466.68l33.62-.89c-1.62,21.98-1.62,25.22-8.08,34.91-6.47,9.7-10.34,24.33-10.34,24.33-4.36,30.71,8.89,41.54,8.89,41.54l-12.77-.97s.32-50.11-.32-63.69c-.65-13.58-10.67-18.1-10.67-18.1,4.85-2.42,4.53-11.31,4.53-11.31l-5.01-.32.16-5.5h-.01Z"/>
  </g>
</svg>