<?xml version="1.0" encoding="UTF-8"?>
<svg id="Layer_1" xmlns="http://www.w3.org/2000/svg" version="1.1" viewBox="0 0 1280 720">
  <!-- Generator: Adobe Illustrator 29.8.1, SVG Export Plug-In . SVG Version: 2.1.1 Build 2)  -->
  <defs>
    <style>
      .st0 {
        fill: #f464d9;
      }
    </style>
  </defs>
  <path class="st0" d="M952.16,120.72l.96,465.23-21.53-4.05-3.04,3.8-12.92-3.55-2.53-3.55,4.81-.51,5.57,1.52,2.79-3.04-16.72-6.59-.76-14.18,8.36-.51,6.33-2.79,5.07-6.84.25-21.53,1.52-6.08,9.37-9.88,1.01-2.03,2.79-4.56-8.36-3.04-1.52-3.29.51-4.05,8.36.76,3.8-4.05-11.14-.76-5.83-4.31c15.7-4.56,10.13-10.13,10.13-10.13,4.81-1.27,4.56-6.08,4.56-6.08,10.38-4.05,3.29-11.4,3.29-11.4,2.28-1.27,5.57-11.9-1.52-12.92-7.09-1.02-11.4,5.57-11.4,5.57l-6.59,6.08-2.53,4.81-3.29,1.77-2.28-3.8,2.28-4.05,4.05-1.77.51-3.55-4.81-5.57-1.27-243.91-2.28-1.01-248.72,71.68v10.13l1.52,136.77-.51,3.04.51,7.6s-17.73-1.26-25.07-1.77-8.1,1.52-8.1,1.52l-17.98,16.21-4.31,5.07-1.27,5.07-3.29-2.03-11.09-1.28-2.36-195.64,354.67-132.53ZM597.49,253.25h0s0-.03,0-.03v.03ZM726.43,265.02l1.27,156.02,8.87.51-2.28-159.06-7.86,2.53ZM819.13,241.97l-12.66,3.55,1.27,180.84,11.65.76-.26-185.15ZM865.64,467.5l-4.86,4.16-3.7-1.39-1.62-3.24-5.78,2.78-2.78,9.25v9.02l-3.7-3.93-1.62-8.33.69-5.32,6.25-2.31-1.39-2.78-8.1,5.09-6.25,5.78-3.24,4.4v-8.56l-3.7-1.62,6.48-1.16-6.25-5.32,1.16-7.17,4.16-1.39,5.09,6.71,2.54,2.54h5.55l1.85-3.24-3.93-6.01s-8.79,3.93-7.4-.46c1.39-4.39,6.01-4.63,6.01-4.63l-1.16-3.93,7.63,2.54,3.47-4.63-98.55-7.4.02.03,5.09,9.25-1.16,2.31-7.87,7.63-9.95,11.1,17.12-1.16,11.57.93,11.57,2.31,3.47,3.01-.23,4.86-3.47,32.16,3.7,2.31,4.4.46,2.31,1.39.46-6.71,4.4,1.16.23,6.48,7.63,2.54,1.39-3.47,4.4,1.39,2.08,6.48,1.85,1.16v-4.4l2.78-1.16-2.08-3.47h10.87l-.46-2.08-6.01.69-1.85-2.54h11.1s-1.62-17.58-12.72-23.6l-12.26-1.39-8.79-3.01-.93-2.54,3.7-.23.46-2.08,2.08-.46,5.55,3.47v-3.01l-2.31-8.1,5.55,6.01,2.78,1.16-3.24-4.86,2.31-.46,2.54,2.08-.23-3.93,2.78,3.7,1.85-7.63.69,9.95,1.16,4.63.23,6.94s10.87,10.41,10.64,24.75l5.32,2.78-.23-4.63,6.25-2.08,3.24,2.54,3.47-3.47,4.63,1.62h2.54l-.69-4.63,1.85,1.39,7.4-4.86h6.25l.46-14.81h1.62l-.69-15.73-3.47-1.62ZM883.22,447.62h0s0,0,0,0h-.01ZM891.78,457.33c-4.4-3.47-3.47-9.48-3.47-9.48l-5.08-.23-3.24,9.24,3.93,7.87,11.1-.23,4.63-6.01s-3.47,2.31-7.87-1.16ZM908.9,500.14l5.09,1.61,6.24-3.47-4.16-5.32v-4.85l7.86-7.18-6.94-8.79-.46,3.24-3.24,1.39-2.77,1.39-4.17,2.31.46,5.79,2.09.46v13.42ZM800.93,532.82l-7.62,2.82-1.97,3.67-4.8,3.95,2.82,3.95,6.78,1.42,5.36-4.8,5.08-3.95-.29-3.67-5.36-3.39ZM1147.48-2.37l-194.69,83.3-.63,39.76h.01s.96,465.24.96,465.24l18.16,5.13s-2.64-21.04-1.58-35.26,10.53-12.11,10.53-12.11l13.68,2.63-.53-404.23,287.38-90.53,4.21-53.69-137.5-.24ZM979.73,559.99c-2.47,8.34,3.4,33.66,3.4,33.66l10.81,3.4v-40.45h-.01c-9.88-4.33-14.2,3.39-14.2,3.39ZM1020.5,601.07l27.79,10.49,41.07,12.05,23.78,10.81v-5.56l4.63-8.03,12.66-26.87-110.24-25.01.31,32.12Z"/>
</svg>