<svg width="1280" height="720" viewBox="0 0 1280 720" fill="none" xmlns="http://www.w3.org/2000/svg">
<path d="M1121.5 496L1083.5 491.5L1087 485L1093 473L1098 460.5L1102.5 447.5L1104.5 438.5V437L1102.5 435L1090 419L1089 418.5L946.5 410.5V398.5L948.5 397.5V396.5H949.5L950.5 397.5H954L957 394L958.5 390.5L959.5 386.5L1088 390.5L1088.5 126.5L1088 126L819 170.5L818 171.5V381.5L925.5 385.5V389H926L925.5 390.5L924.5 394L925 396.5H927L926.5 409.5L834 404.5V390L840.5 388.5V383L805.5 381.5V149L1121 90.5L1121.5 496ZM934 397L937 397.5V410L928.5 409.5L929 396.5H930.5L934 397ZM957 386.5V389.5L956.5 390.5L955 391L949 390L947 389.5V386L957 386.5ZM937 389.5L931 390L930 389H931V386H937V389.5ZM709 278.319C705.085 285.511 700.027 289.831 694.5 288.5C672.9 283.3 665.5 249 664.5 232.5V207L709 200.5V278.319ZM715.148 260.719C714.092 265.732 712.617 270.483 710.813 274.601C712.265 271.118 713.917 266.3 715.148 260.719ZM714 177.5L715 178H716V199L715.5 216.5L715 195L664.5 202V175L714 165.5V177.5Z" fill="#FF0000"/>
</svg>
