<svg width="1280" height="720" viewBox="0 0 1280 720" fill="none" xmlns="http://www.w3.org/2000/svg">
<path d="M458 19C458 21.8 462 23.5 464 24V50.5L442.5 39.5L440 39C432.8 39.8 431 44.6666 431 47V67.5C431 77.8999 436.667 82.8333 439.5 84L458 92H461L464.5 90.5V97C461.3 96.6001 459.834 97.8333 459.5 98.5V120C459.5 121 460 122.5 467 123.5C472.6 124.3 474 121.833 474 120.5V100L468.5 97V89L469 85.5V64.5L470 57L467.5 55.5V24.5C471.1 24.5 472.333 22.8333 472.5 22V0H486.5C479.7 10.7999 477.667 29.8332 477.5 38L478.5 132L479.5 173.5L488 213.5C506 253.1 531.167 265.667 541.5 267H548.5L557 266.5L568 263L574 259L581.5 252L590 238.5L595 221.5L596.5 204.5V94L590.5 60L580 33L565 9L557.5 0H637.5L667 26L701 57L743.5 95L805.5 149V381.5L794.5 381V360L789.5 359.5L736.5 358.5V304L734.5 303.5L397.5 257H394L396 420V431.5L407.5 433L407 630.5L402 629L397 628L391 627L383 626.5H374.5L366.5 627.5L348.5 617L348 608L347.5 606L346.5 605L347 602L349 584.5L350.5 562.5L355.5 471L354 469.5L355 466.5V444L354.5 442.5L353 441L351 440L344.5 438L329.5 435.5L320.5 434.5H315.5L80 463L77.5 464.5L76.5 469L75.5 480V496.5L78.5 499V520L66 523.5V529L76.5 542.5L77.5 543.5L79.5 542.5V577L81 662.5L82 665.5L86 670L85 672V676.5C85 694.9 91 713.5 94 720.5H-0.5V0H458V19ZM684.5 96.5C660 93.9999 658.5 131 658.5 156V227.5C659.667 247 667.6 287 690 291L697.5 290.5C703.667 290 716.4 280.1 718 244.5V205.5H719V206L725.5 209L729 208L730 205.5V196.5L733 195.5L733.5 196.5L734 197L734.5 214L731.5 215L732 225.5L732.5 226.5L732 228L731.5 230V231L733 233L735 234H736.5L738.5 233.5L740 232V229.5L739.5 227.5L738.5 226L739.5 225L739 214H736.5L736 196.5L737 196V192.5H736L735.5 175.5L736.5 175L738 174.5V163L737 162.5C737.333 162 738 160.5 738 158.5C738 156 735.5 154.5 734 154.5C732.5 154.5 729.5 155.5 729.5 159.5C729.5 162.7 732.167 162.833 733.5 162.5L730.5 163.5V175L731.5 175.5H733.5L734 192.5L733 193V194L730 194.5V191.5L729.5 189.5L729 188.5L728 187L726.5 186.5L722.5 184.5L721.5 185H718V170.5C716.833 147.833 708.849 98.9848 684.5 96.5Z" fill="black"/>
</svg>
