<svg width="1280" height="720" viewBox="0 0 1280 720" fill="none" xmlns="http://www.w3.org/2000/svg">
<path d="M553.5 0C565 8.66667 589.5 40.7 595.5 99.5L595 177L486 134.5L485.5 52.5C488.752 53.8333 495.606 55.1999 497 50C498.393 44.8 489.914 43.5 485.5 43.5C485 34 486.1 12 494.5 0H553.5ZM683.5 98.5C703.5 98.5 713.166 138.167 715.5 158C714 159 713 160 713 162.5C713 164.5 713.666 165.333 714 165.5L664.5 175V152C666.5 152.167 670.5 151.9 670.5 149.5C670.5 147.1 666.5 146.833 664.5 147C664.5 131 668 98.5004 683.5 98.5ZM1121 90.5L805.5 149.5L773 120.5L728.5 82L669 27.5L637.5 0H1155.5L1121 90.5Z" fill="#04FF00"/>
</svg>
