<svg width="1280" height="720" viewBox="0 0 1280 720" fill="none" xmlns="http://www.w3.org/2000/svg">
<path d="M1088.5 126.5L1088 390.5L959.5 386.5V379.5H957V386.5L947 386V377.5L946 370V367.5L1062 369.5L1064 159.5L1066.5 158.5V161.5H1068V147L928 167.5V178L930 180V178H931L930 356.5H925L925.5 385.5L818 381.5V171.5L819 170.5L1088 126L1088.5 126.5ZM937 386H931L930.5 367H937.5L937 386ZM831 182L830 185L829 187.5V190.5L829.5 192H831.5L833.5 193V192H834.5V364.5L905 366L904 182L905 182.5V170.5L831 182Z" fill="black"/>
</svg>
