<svg width="1280" height="720" viewBox="0 0 1280 720" fill="none" xmlns="http://www.w3.org/2000/svg">
<path d="M611.5 558L557 533L576.5 0H825.5L820.5 158.5L823.5 160L1280 92.5V535.5H1268L1243 536.5L1232.5 538L1226.5 540L1223 542.5L1220.5 545L1219.5 549.5L1218.5 562L1217.5 564V567.5L1220 572.5L1224 577L1227 579.5L1222 603.5L1221.5 605L1220.5 606.5L1219.5 607.5L1216.5 606L1213 604L1207.5 603.5H1203.5L1202 605.5V607L1203.5 609L1218.5 617L1219 620.5V624L1220 628L1222 631.5L1218 720H1189V411.5L1193 407V397.5L1190.5 394L1185.5 392L981.5 373.5V356.5L985 355L986 352.5L985 350.5L981.5 349.5L981 280L976.5 278.5L981 273.5V263H974.5L970.5 262L968 257V250L967 246L964.5 241.5L961 238.5L958 237L922.5 235.5L920.5 238V240.5L922 242.5L955.5 243L959.5 244L961 248V260L956.5 264H948.5V277H951.5V280.5H948.5V307L906.5 305.5L901.5 306L895.5 309.5L889.5 314.5L883.5 323L881 329L883 332.5L891 336.5L893.5 335L901.5 322.5L905.5 319.5H948.5V369.5L868.5 363L862 363.5L853 368L617.5 368.5L610.5 371L610 378L617.5 380L611.5 558Z" fill="#FF0000"/>
</svg>
