<?xml version="1.0" encoding="UTF-8"?>
<svg id="Layer_1" xmlns="http://www.w3.org/2000/svg" version="1.1" viewBox="0 0 1280 720">
  <!-- Generator: Adobe Illustrator 29.8.1, SVG Export Plug-In . SVG Version: 2.1.1 Build 2)  -->
  <defs>
    <style>
      .st0 {
        fill: #91e83d;
      }
    </style>
  </defs>
  <path class="st0" d="M498.7-2.03l-182.87.6,141.4,38.51.31,4.93-1.69,2.46.77,225.8,21.87,10.32,5.85-8.16,2.31-.46,2.93,3.23,3.23-2.62,2.93,1.23v2.93l4.93,3.39,1.39,2.93,6.16,5.54-2.62,8.93c2.77,9.09-3.23,14.32-3.23,14.32l6.16.92-1.72-3.34v-4.68l1.91-3.24,4.87-5.82,2.48-1.24,6.97,3.53,4.1,4.48,1.24,6.3-2.58,4.01,18.41.67,46.54,2.16-1.73-51.91,2.2-2.05,118.68,7.94,2.24,1.12,1.53,29.17,1.73,1.12.71,3.47,2.35-.2.92,2.35-4.08.92-.92,3.77,2.65,1.02,2.24,1.12.61,6.22,8.06-.51-.71-2.45-.2-2.65,4.08-.1.71-.82-3.06-17.34-2.45-3.16v-3.16l3.16-1.63,13.36-.61-.2-5.4-5.2-6.42,4.18,3.26-.71-2.24-1.02-1.02-2.14-5.2-1.53-.41-.31-1.84,3.77-3.57.31-5.61,2.45,4.28,1.12-7.95-2.04-.41-5.71,5.3,2.14,4.08-2.86,1.63-.1,4.59,1.33,5.1-1.43,1.22-2.14-.71-1.84-3.67-1.02-2.24-3.77,2.55h-1.53l4.28-4.28-3.37-.1-2.35,1.94-2.45.61-2.86-.82-1.22-2.55,2.65-2.75,4.49-5.2,3.77-.31.1-1.63h-3.16l-3.26,3.26-2.14-.71-2.75-1.73,3.77-1.43,1.12-5,2.04-2.65-2.55-1.12-2.04-1.94-.61,3.16-3.77,4.79-2.96-.71.41-3.77,4.9-3.26-2.24-.61-3.67-2.04-.92-1.63,5.1-1.63,2.86-2.35,1.73-3.47,1.53,4.18-1.73,4.69,2.55-1.33,3.57.61-.71-1.63.41-2.96,5.61-4.28,7.55-.92-1.63-1.43,1.12-1.84,3.57-1.63,1.73-1.63-6.22-.61-2.24,1.33-2.86.61-2.75-1.84,1.02-2.96,11.73-.1-.1-1.63-5.4-5.81,1.43-1.63,3.16,2.75,1.73-1.73,3.26,2.24,3.06,5.2,1.73-.92-1.43-1.84,3.47-2.86,3.47,1.73,1.63,1.43-2.55,3.67-5.2,2.96-4.18-2.04-.71,2.35,9.69,3.06-.71,6.63,2.86.1.41-1.63,4.9.41.92-3.16,5.61,1.94-.31,4.79,2.55,2.65-.1,4.08-1.02,1.43-3.98-4.69h-1.43l.51,4.79v3.47l-2.04,4.49h-5.91l-1.22-2.35-2.14,2.04-1.22,4.39,2.14.41.41,2.55,3.67.82,1.43-1.73,4.59,3.57-2.35.41-1.94-.71-2.45.82-.41,5.81h1.43l.61-2.86,3.06.51,3.37-3.47-.1-6.42,2.96,2.96-.2,4.79,2.45,1.02,1.02,4.08-3.77-.31.61,3.88-1.02,3.37-1.02-.82-2.45-3.26.1-2.75,1.33-3.77-4.69,3.57.41,1.63.61,7.85-6.93-5.91-2.75,2.24-6.02,3.47-.92,6.22,16.11.2,1.43,5.51-.61,2.75.61,11.22,3.37,6.22,1.53,5.71,13.97.1.54-34.68-3.49-.46-.15-13.81,1.21-1.67-.3-4.25,3.49-.76.46-3.19c-.3-3.79,2.35-4.06,2.35-4.06l1.17-163.78L498.7-2.03ZM529.51,240.73l-2.14,1.16-43.62-4.1-.62-33.65,1.6-1.6,42.02,5.7,2.76,1.87v30.62ZM619.42,369.67l3.07-1.73-1.34-2.49h-2.12l.39-13.07,32.66-.58-1.53,15.57-18.45,1.15-4.61,1.54v2.11l-8.65-.57.58-1.93ZM695.7,359.11l-19.21.76.57,7.31h-20.94l.96-15.18,46.69-1.16-.19,12.11-7.3-.39-.58-3.45ZM712.81,363.18l-3.86-3.99-1.54-4.64,2.57-4.11,2.06.35,2.06,3.64-.13,3.86-1.16,4.89ZM614.97,381.66l35.58-1.3,37.59-2.32,18.85-.71,14.99-.17,10.88-1.45,14.91-.83,7.05.28-.56,9.53-4,2.48-23.2-.13-5.28-.98-11.15-.31-3.41-3.03-16.42.37-8.46,1.72-4.05,5.15-4.17,2.83-53.8,4.49-9.4-1.45-2.74-3.32-1.01-.58-1.02-4.34-5.2.14-1.3,1.88-12.73-.14-1.45-2.03h-20.24l-14.03-1.44,1.31-1.59,11.42-1.01,51.04-1.74ZM782.02,357.34l2.5,1.33v25.59l-3.46,2.08-.14-1.51-20.44-.14-.14-9.67,15.19-2.07v-5.11l-16.85.41-.13-3.17h-12.57l-8.84-.42.28-12.84-5.8-.97-9.12.55.42,9.81-3.46-2.07-2.76-4.28,1.66-8.84,1.93-4.97,17.26-.56,44.47-1.1v17.95ZM534.72,358.34l-3.49.95-.63,13.65-1.27,3.49-19.2.47.32,4.6,9.67.64,7.46,1.9-.32,15.39-3.17,1.59-38.39.47-.64-4.91h-2.38l-.31-13.01,11.1-41.89,48.71-.47.16,10.94-3.65.48-3.18,2.06-.79,3.65ZM533.77,386.1l9.36-.15-.32,15.7-7.46-.79-1.26-2.06-.32-12.7ZM484.7,424.39l6.15,3.89-8.75,75.15-5.18-3.4-8.75.81-5.67,5.83-.97,5.51-3.73,2.92.16,7.45,5.02,7.94.16,2.59-1.78,1.94.97,6.8,6.8,5.02-3.4,1.78-2.59,5.99-.81,9.39,2.92,11.5.65,2.11-36.19,8.8,3.3-11.89,5.28-19.81-2.64-26.41,2.97-7.59-2.97-7.26-2.31-6.93-4.84-7.06-.3-11.3s7.28-9.81,4.31-13.38c-2.97-3.57-12.93-3.27-12.93-3.27,0,0-5.2-2.68-13.38-2.23-8.18.45-21.55,1.93-21.55,1.93,0,0-12.93-1.93-25.87,1.34-12.94,3.27-20.07,3.27-19.47,8.03.6,4.76,3.72,13.68,3.72,13.68v6.54l-1.49,11.3-.59,12.64-5.2,5.5,3.42,3.86-2.08,32.55-2.82,37.01-.3,4.31L-4.24,683.13-5.52-8.1,263.24-3.18l.21,266.73-1.98,1.19-.2,4.56,3.17,1.59,106.83,4.16,2.97,2.38,4.76-1.98,73.3,3.18,2.11,1.13,1.3.32,17.82,10.04.49,15.55s.65,5.67,4.05,6.48l-11.18.32-10.2,4.05-.32,24.13,2.59,1.3,23.97.16-16.03,34.01-.65,2.59,1.13.97,1.62,7.77.97,1.46-3.89,1.3-1.13,2.27,1.3,2.75,2.43,2.75,3.56-2.59,4.7.65-1.3,7.45-17.98.49v5.67l13.28,4.37,1.94,1.46.16,8.1,5.18,1.62,6.48-.81ZM517.3,437.11l11.25,125.53-19.12,6.07s-3.83-8.1-3.6-15.75-2.92-10.8-2.92-10.8c.67-5.18-.9-7.2-.9-7.2l.67-7.42s-1.12-7.2,0-13.95-8.1-10.8-8.1-10.8l4.95-44.32h.02l.22,13.5,1.8,4.72,8.32.67,2.47-1.57,2.25-4.05-.45-15.97-1.8-9.9-3.15-3.37,2.47-2.02,1.12-3.15,4.5-.22ZM531.92,435.51l244.53-24.07c-6.52,15.75-15.52,53.99-15.52,53.99-18.22-.68-42.07,2.92-42.07,2.92l-2.25-11.02c4.72,2.25,13.95.68,18.67-.67s2.47-6.52,2.47-6.52l-30.82-9.22s-18-5.18-25.65-1.35c-7.65,3.83-.9,6.75-.9,6.75l19.8,6.3,2.25,19.8c-8.32,1.8-20.47,6.52-20.47,6.52-16.42,11.03-2.25,22.05-2.25,22.05l27.67,12.15,1.57,7.42-14.62,4.72-2.02-6.07-5.62.45-.67,7.42-140.83,32.39-13.27-123.95h0ZM739.64,244.02l-5.49,5.77.39,4.43-4.72.77-.09-3.27-3.47,2.69-3.17-.86,1.83-4.43,4.52-.48.67-3.08,4.33-.19,2.02-2.5-.48-2.41-2.5-.29,6.93-7.22,2.31,2.41-2.22,2.02.48,2.79,2.12,1.16-.29,2.5-3.17.19Z"/>
</svg>