<?xml version="1.0" encoding="UTF-8"?>
<svg id="Layer_1" xmlns="http://www.w3.org/2000/svg" version="1.1" viewBox="0 0 1280 720">
  <!-- Generator: Adobe Illustrator 29.8.1, SVG Export Plug-In . SVG Version: 2.1.1 Build 2)  -->
  <defs>
    <style>
      .st0 {
        fill: #3bc1ea;
      }
    </style>
  </defs>
  <path class="st0" d="M915.25,230.95s5.05-1.76,4.61,3.73l-.66,50.74h1.54l-.44,45.91-1.54,4.61v21.53l3.38,3.26,1.1-339.33-135.98,70.81h.01s-1.17,163.78-1.17,163.78l129.15-25.04ZM882.75,109.05l4.39,1.98.66,91.37-73.58,19.11-3.95-1.1-.66-81.49,73.14-29.87ZM882.15,375.07l1.64,7.55,3.28,9.52-10.01-.17,5.09-16.9ZM784.52,358.67l12.64-.33-4.43,6.23-4.43,8.04-3.78,11.65v-25.59ZM863.49,520.2l2.53,10.94-12.88-4.92-1.27-8.46-.5-5.56,1.14-4.42,1.89-3.03,3.79-2.54,4.02,16.52,1.28,1.47ZM887.2,400.69h0,0ZM1281.94,654.09l-404.94-120.05-4.26-15.62.26-2.07-6.07-25.56s.38-2.33.9-8.26-5.3-13.94-7.23-20.65.52-17.17.52-17.17l13.17-42.99,12.91-1.03s-.86,12.58,7.87,16.47c8.73,3.89,20.4-1.05,20.4-1.05l366.13,33.51.34,204.47Z"/>
</svg>