<svg width="1280" height="720" viewBox="0 0 1280 720" fill="none" xmlns="http://www.w3.org/2000/svg">
<path d="M570 155.5C616 161.1 626.167 195.833 625.5 212.5C623 214 616.5 217.5 568 217.5C529.2 217.5 515.5 214.5 513.5 213C513.5 208 512 197 525.5 177C536.3 161 558.333 156 568 155.5V131.5C551.2 134.7 506.667 136.5 486.5 137C407.7 137 387.333 127 387 122C387 103.6 394.333 85 398 78C418.8 35.2 464 24.1667 484 24V0H486.5V24C532.1 24 559.833 56.6667 568 73V42.5C568 36.5 565.464 34 562 32C558.536 30 557 27.5 557 26.5C557 25.5 558 24 569 24C580 24 581 25.5 581 26.5C581 27.5 580 30.5 576 32C572.8 33.2 571 36.1667 570.5 37.5L569.5 42.5V75C580.5 87.5 584 117.5 585 123.5C585.8 128.3 575.333 130.833 570 131.5V155.5Z" fill="#FF00CC"/>
</svg>
