<svg width="1280" height="720" viewBox="0 0 1280 720" fill="none" xmlns="http://www.w3.org/2000/svg">
<path d="M484 0V24C464 24.1667 418.8 35.2 398 78C397.573 78.8145 397.097 79.7864 396.589 80.8965L396 80H367.5L339.5 56.5L443 0H484ZM576.149 217.463C574.159 217.486 572.109 217.5 570 217.5C569.639 217.5 569.28 217.498 568.922 217.497C571.445 217.495 573.852 217.484 576.149 217.463ZM513.5 213C514.935 214.076 522.393 215.924 540.824 216.883C524.578 216.104 514.831 214.664 513.5 213ZM568 155.5C558.333 156 536.3 161 525.5 177C515.667 191.568 513.793 201.361 513.5 207.538V206H506L486.5 189L473.5 173.5L443 145.5V138L437.5 135.5V140.5L432.326 134.895C446.203 136.18 463.961 137 486.5 137C506.667 136.5 551.2 134.7 568 131.5V155.5ZM665.5 195C663.015 195 661 197.015 661 199.5C661 201.985 663.015 204 665.5 204H705.5C707.985 204 710 201.985 710 199.5C710 197.015 707.985 195 705.5 195H665.5ZM895 188.5C894.5 188.519 893 188.845 891 190C889 191.155 884.833 193.814 883 195C881.333 196.167 879.9 198.5 887.5 198.5H936C937.333 198.5 941.7 197.9 944.5 195.5C948 192.5 955 188.5 951.5 188.5H895ZM1042.5 191.5C1041.63 191.833 1040.42 192.8 1042.5 194H1047C1048 193.5 1049.6 192.3 1048 191.5H1042.5ZM1072 191.5C1071.67 191.5 1071 191.7 1071 192.5C1071 193.3 1071.67 193.5 1072 193.5H1077C1077.67 193.167 1078.8 192.3 1078 191.5H1072ZM845 191C844.448 191 844 191.448 844 192C844 192.552 844.448 193 845 193C845.552 193 846 192.552 846 192C846 191.448 845.552 191 845 191ZM654 160C652 163.5 651.5 169 656 172.5C660.5 176 703 174.01 710.5 172C718 169.99 718.33 165 719 162.5C719.536 160.5 717.89 160 717 160H654ZM861 170.5V171.5L862 172H866L868 171.5V170L867.5 169.5H862L861 170.5ZM863.5 167.5L864.5 168.5L870 169L871 168.5L871.5 167.5L870 166.5H865L863.5 167.5ZM976.5 139C971.7 137 964.5 138.167 961.5 139L962 143L963 143.5C962.667 146 963.4 151 969 151C974.6 151 975.333 146 975 143.5L976.5 142.5V139ZM893.5 138.5V139.5L895 140.5H901L902 139.5V138.5L901 138H895L893.5 138.5ZM898.5 134V135L899.5 135.5H906L907.5 135V133.5L906.5 133H900L898.5 134ZM651.5 110.5C650.667 110.5 649 111.1 649 113.5V125.5L727 127.5C729 127.5 733.5 126.3 735.5 121.5C738 115.5 741.5 110.5 736.5 110.5H651.5ZM941.5 91.5V93.5L943.5 94H948L951 93.5V92L949 91H944.5L941.5 91.5ZM948 84.5V86.5L949.5 87L953.5 87.5L958 86.5V84.5L957.5 84H952.5L948 84.5ZM637 6C635.738 5.96797 633.271 6.22312 633.5 7.5L639.5 41C642.833 41.8333 653.3 43.5 668.5 43.5H740C745.5 43.5 756.699 42.6997 757.5 39.5C758.3 36.3 762.5 17.5002 764.5 8.5C764.667 7.66667 764.2 6 761 6H637ZM1026 17.5C1021.5 17 1018.5 17 1016 18V19L1017.5 21L1020 22.5L1030 21.5C1030.17 20.3332 1029.6 17.9 1026 17.5ZM1039 5.5C1036 5.00001 1030 5.00008 1028 6.5L1029.5 9C1030 9.66667 1031.7 11 1034.5 11C1037.3 11 1041.33 10.3333 1043 10C1042.67 8.66659 1041.4 5.89998 1039 5.5ZM1280 16H1148L1096 52V204L891.5 204.5L862.5 223.5H844.5V250H836L800.5 245.5V254L737 239.5V206.5H715L703 225V234L631 226.5C629.5 224.167 625.2 218.7 620 215.5L619.559 214.618C623.203 213.823 624.607 213.036 625.5 212.5C626.167 195.833 616 161.1 570 155.5V131.5C575.333 130.833 585.8 128.3 585 123.5C584 117.5 580.5 87.5 569.5 75V42.5L570.5 37.5C571 36.1667 572.8 33.2 576 32C580 30.5 581 27.5 581 26.5C581 25.5 580 24 569 24C558 24 557 25.5 557 26.5C557 27.5 558.536 30 562 32C565.464 34 568 36.5 568 42.5V73C559.833 56.6667 532.1 24 486.5 24V0H1280V16Z" fill="#00FF22"/>
</svg>
