<svg width="1280" height="720" viewBox="0 0 1280 720" fill="none" xmlns="http://www.w3.org/2000/svg">
<path d="M582 461.5L589.5 462L612.5 463L627.5 464H648L675.5 465.5L701.5 467L735 469L769.5 471.5L802 474.5L838.5 478.5C846.333 479.667 865.8 482.9 881 486.5C896.2 490.1 903.333 503.667 905 510L906.5 518L907 523.5V548.5C907 554.5 897.667 557.667 893 558.5C932 566.5 941 583.5 944.5 591C948 598.5 946 620.5 943.5 643C941.5 661 929.333 668.167 923.5 669.5L895.5 676L867 679L842 681H798.5L794 681.5L790.5 680L773.5 679L754 676.5L739 675.5L725 672.5L714 670L707.5 669L697.5 666L689 664L680 660.5L670.5 656.5L665 650.5L660.5 649L657 646L625 635.5H622.5L620 634.5L617 632L610 634.5C577.6 626.9 524.833 621.333 502.5 619.5V602.5C526 602.5 560.5 597.5 560.5 583.5C560.499 569.5 438 559.5 408.5 559.5C384.9 559.5 371 560.833 367 561.5C366.2 545.5 368.667 537.167 370 535C377 524.5 392.5 520.5 416 518C439.5 515.5 470.5 514.5 503 514.5C529 514.5 554.5 516.167 564 517C561 509.5 559 500.5 559 495.5C559 490.5 560 483 565.5 472C569.9 463.2 578.333 461.333 582 461.5ZM379 595.5L378.5 603.5C376 602.667 370.8 599.4 370 593L379 595.5Z" fill="#00E1FF"/>
</svg>
