<svg width="1280" height="720" viewBox="0 0 1280 720" fill="none" xmlns="http://www.w3.org/2000/svg">
<path d="M476.5 457.5C506.499 457.5 514.666 459.5 515 460.5C515 488.1 511.333 508 509.5 514.5C475.1 514.1 449.833 515.333 441.5 516C434 490 434.5 462.5 434.5 461.5C434.5 460.5 439 457.5 476.5 457.5ZM638.5 455.5C668.5 455.5 676 457.5 676 458.5L675.5 465.5L647.812 464H633.5L620.5 463.5L623.5 463L622 461.5L622.5 460L624.5 463L625.5 461.5L627 462.5L628.366 460.5L626.5 460V456.866L628 456H632V459H638.5V455.5Z" fill="#EEFF00"/>
</svg>
