<svg width="1280" height="720" viewBox="0 0 1280 720" fill="none" xmlns="http://www.w3.org/2000/svg">
<path d="M758 277.5V281L755 282.5V310H754.5V538L753 538.5L751.5 536.5L752 539.5L752.5 543.5L750.5 540L751 539V537.5L749 538L747.5 537L747 538L745.5 539L744 538L744.5 540V543L742 543.5L740 544L737 543L736 542.5L739.5 546V547.5L737.5 546L733 541.5L735 545L732.5 544H731L730 545L728.5 544.5V545.5L732.5 548.5L732 549.5H730L731.5 550.5L730 552.5L728 551.5L727 552.5L726 553H700L696 551.5L696.5 324L691 325.5V545L668.5 543L669 310L570 306L590 307V536.5L587.5 541H584L582 544L574.5 545.5V542.5L577.5 541L583 540.5L579 537.5L580.5 536.5L575.5 537.5L572 539L568.5 537.5L563.5 534.5L559.5 533L568.5 541.5L569 544L564.5 541L560.5 537.5L563 541.5L570.5 547.5V549.5L567.5 547.5L565 545L562.5 543H560L559.5 541.5H562L561 539.5H559.5L557.5 541.5L557 539.5L559 536.5L550 543V541.5L554 537.5L559 534L557.5 533.5L554 535.5L550 540L551 535.5L555.5 533L554 532L557.5 529.5L550 532L547 534L545.5 536.5H543L541.5 537.5H540L538 536.5H535.5V549H278.5V429H277.5V421H274V412L280.5 406.5L535.5 410V412L540 409.5V397.5L535 393.5L535.5 317L526 319.5V364L513.5 341.5H503L495 321V304L491.5 298.5V293L540.5 267.5H552L758 277.5ZM376 537.5L377 538L376.5 539V543.5L378 544V542.5L379.5 544H381L381.5 542.5V502.5H376V537.5ZM384 542.5L385 540L385.5 541V543L386 544L387 542.5L388 543L388.5 542L389 543.5L388 502.5H383.5L384 542.5ZM437.5 539.5H438.5L439.5 538.5L439 540.5V543L439.5 544L441 543H443.5L441.5 541V537.5L441 535L442.5 536.5L442 502H437.5V539.5ZM399.5 543L400 542H401.5V543.5L403 542V543.5H404L403.5 542L404.5 541L405 502H399.5V543ZM475.5 542H477.5L476.5 540L478 540.5V539L479.5 541L480 539.5V501H475.5V542ZM505.5 541.5L507 542H510.5V501H506L505.5 541.5ZM513.5 541.5H518V501H513.5V541.5ZM521 541.5H524L525.5 539.5V501H521V541.5ZM324.5 540.5H325.5V540L327.5 539.5V541H328V539.5H329L329.5 540.5L330 539.5L330.5 502.5H325.5L324.5 540.5ZM392 502.5V541L392.5 540L393 541L394 540L395 541H396L396.5 540.5H397V502L392 502.5ZM468.5 536L469.5 538.5L469 540.5L470.5 539L472 538.5L472.5 501.5H468.5V536ZM483 539L483.5 540L484.5 539H485.5L485 540.5L487 540L488 540.5V501H483V539ZM491 540.5H494.5L496 540V501H491V540.5ZM498.5 537L500 538.5L501 539H502L503.5 540V501H498.5V537ZM308 538H309L309.5 537.5H310.5L312 539.5L312.5 538L313.5 538.5L314.5 502.5H308V538ZM299 533L300.5 533.5L299 535.5L300.5 537.5L301.5 537H303L303.5 538L305 539L306 502.5H299.5L299 533ZM429 537.5L429.5 538.5L431 539L431.5 537L431 536.5H432L433.5 535.5L434 534.5H435V502H429V537.5ZM316 537.5L316.5 538.5H319V537L320 536L320.5 536.5L322 537L323 502.5H317L316 537.5ZM340 538L340.5 535.5H341.5L343 535L342 533.5L343.5 533L343 531H345V502.5H340.5L340 538ZM445 536.766L446 535.5L446.5 537.5V535.5L447.5 537.5L448 537V535.5L448.5 534.5L449 535L450 535.5L449.5 501.5H445V536.766ZM460.5 535.5L462 537L463 534.5L464 534V536.5L465 533.5V501.5H460L460.5 535.5ZM423.5 534L424 536.5L425.686 536.766L426.5 536L426 502H423.5V534ZM332.5 536L333.5 535.5H334.5L335.5 533.5L336 536L337.5 535.5L338 502.5H333L332.5 536ZM368 533.5H369L369.5 532.5L370 533.5L371 534L371.5 535.5L372 534.5L373.5 535.5L373 502.5H368V533.5ZM453 532.5H454L454.5 534L455.5 535V533.5H456.5L457 534.5L458 534L457.5 501.5H452.5L453 532.5ZM407 534.5L409.5 534H411.5L411 502H407.5L407 534.5ZM347.5 531.5L348.5 530.5V531.5L350.5 533.5L351 533L349.5 531.5L351.5 531L351 502.5H347.5V531.5ZM360.5 532.269L361 531.5H362.5V533L363.5 532.5V533.5H364.5V532.5L365.5 531.5V502.5H360.5V532.269ZM353.5 531.5L355 532L356 533L357 532L358 532.5V502.5H353.5V531.5ZM292.5 526H293L294 525H295L295.5 525.5V526H297L297.5 503H292.5V526ZM1078.5 411.5L1079 417L1078 421L1077 424L1076 427.5L1075 430.5H1037V500L1035.5 503L1032.5 510L1030.5 515L1029 520L1027.5 524.5L1024.5 524L1023.5 525L1021.5 524.5V523H1020.5V522L1018.5 521V522H1017L1016 520H1015L1013.5 518.5H1011.5L1010.5 519.5L1007 519L1005.5 518.5V430H1013.5L1015.5 423V419L1003.5 410H1019.5L1078.5 411.5ZM1151.5 412V414H1153.5V415.5L1151 417.5V451.5H1148V481H1150V504.5L1149 506.5H1147L1146.5 505.5L1145 506.5L1145.5 507.5L1145 508H1142.5L1143 509.5L1145 509L1141.5 513V511.5L1139 510L1137 510.5V513L1138.5 515L1140 514.5L1140.5 515L1140 516L1139 516.5H1137.5L1138.5 518L1137 519L1136 517L1135.5 519L1134.5 518.5L1134 520H1132.5V430.5H1084L1084.5 428L1085 425L1086 421L1086.5 417.5V414L1087 412.5V411.5L1151.5 412ZM295 418C294.333 418.5 293 420.2 293 423V427L292.5 427.5L292 498.5L411 498L410 429.5L409.5 429V425.5L408 424.5V419.5L295 418ZM425 424L424 425V428.5L423.5 429V497.5L527 496.5V425L530.5 421L425 419.5V424Z" fill="#6600FF"/>
</svg>
