<svg width="1280" height="720" viewBox="0 0 1280 720" fill="none" xmlns="http://www.w3.org/2000/svg">
<path d="M1015.5 419V423L1013.5 430L906 429.5L809 434.5H793V429.5C791.667 429.333 789 428.7 789 427.5C789 426.3 789.333 426 789.5 426H786.5L906 418L1015.5 419ZM1181.5 401.5L1182.5 403.5H1180.5L1177 407.5L1176 410.5L1171 414.5L1170 413.5H1151.5V412.5L1087.02 411.41L1087.5 409.5L1088.5 407.5L1090.5 404.5L1086.5 403.5L1084.5 402L1084.91 400.366L1181.5 401.5ZM540 397.5V409.5L535.5 412V410L280.5 406.5L274 412L255.5 411.5L254.5 406.5H252.5L251.5 404V402L259 395V394L260.5 392L540 397.5ZM1074.75 400.247L1075 401L1076 403.5L1078 407.5L1078.5 410V411.267L1003.5 410H987.5L983 404.5L974.5 402.5L1011 399.5L1074.75 400.247ZM831.5 377.5L835.5 380.5L836.5 381V390L834 391H812V390L754.5 389V376.5L831.5 377.5ZM696.5 388H691V377.5H696.5V388ZM317.5 374L283.5 383.5L251.245 383.017L251.5 382L252.5 379L253.5 375.5L254.346 373.384L291 374.5V372H317.5V374ZM243 373.038V373.5L242.5 375.5L241.5 378L240.5 381.5L240.229 382.853L83 380.5V375H81L77.5 370V368L243 373.038ZM919.5 308V311H918.5V311.5L917.5 312V316.5L897.5 320V316.5L754.5 311V310H755V302.5L919.5 308ZM498 277V279.5L497 282V287.5L102 274V279H104.5V296L86.5 295.5L74.5 261L498 277ZM775 238.5V239.5L767.5 243.5V248.5L741 258V255.5H744V252.5H741V249L551 240L493.5 273.5L477 272.5L474.5 273.5H472.5V268.5H468V266L532.5 225V224.5L775 238.5Z" fill="#00FFC3"/>
</svg>
