<svg width="1280" height="720" viewBox="0 0 1280 720" fill="none" xmlns="http://www.w3.org/2000/svg">
<path d="M196 553L195 552.5L194.5 551.5L196 553ZM812 390.252V411L786.5 426H789.5C789.366 426.167 789.098 426.7 789.098 427.5C789.232 428.167 790.2 429.5 793 429.5V434.219H809V539.5H755V552.5L754.36 389.179L812 390.252ZM193.705 550.94L193 552V550.8L193.705 550.94ZM696.999 388.111L696 551.5V546L690.317 545V490H691V388L696.999 388.111ZM240.416 382.791L239.5 386L238 390.5L236.5 395.5L235 402L233 409.5L230 420.5L227.5 429L224.5 438L222 444L218.5 453L214.5 462.5L210 473L206 482.5L201 494L196 506.5L189 524.5L186 534.5L184.5 540L182.5 548.5L181.5 548L179.5 545.5L181 543.5L180.5 541V539H179L178 535.5L175.5 539.5L174.5 538.5L172.5 542L169.5 541L168 536L169 530L168.5 522.5L168 507.5L169 497L169.5 491.5L170 482.5V470L168 480.5L169 483.5L168 484.5L169 486L169.5 488L166.5 487.5L169 491.5L164.5 489.5L164 487L161.5 485.5L161 499L153.5 495L149 492.5L145.5 486.5L142 474L141.5 467.5L140.5 462.5L136 463.5L136.5 468L136 471.5L133 470.5L127.5 477L124.5 486H112L102 493.5V406.5H98.5L98 402.362H103.5V386.5H101V380.5L240.416 382.791ZM669 310L668.5 543L646 543.5V358H645V320.5L596.5 319.5V356H595.639V307.343L669 310ZM283.5 383.5V387.5L276.5 389V390L271.901 390.5V391L269 392H260.5L259 394V395L251.5 402V404L252.179 406L254.5 406.5L255.5 411.5L274 411.735V421H277.435L277.5 429H278.5V524.5L273.5 523L263 520.5L258 518.5H251.5L245.5 521.5L241 524.5L234 530.5L227.5 529.5L222.5 527L222 523.5L220.5 519L222.5 518.5V515.5L218.5 514L217.5 515.5L215.5 513L211 515.5L213 519L211 520.5L212.5 525H204.5L202 533.5L201.199 535.699L202 532.5L203.5 527L204 525L207 514.5L208 511.5L211.5 502.5L215 494L219 483.5L223.5 472.5L227 463.5L230 455.5L233 448.5L236 441L237 438L238.5 434L240 429.5L241.5 422L243.5 415L244 412L244.5 409.5L245.5 406.5L248 396.5L248.5 394L250 387.5L251 384L251.5 383L250.603 382.959L283.5 383.5ZM1132.5 516.5H1117V518H1113V530.5H1037V430.5H1132.5V516.5ZM1005.5 430V518.5L913.5 528.5V429L1005.5 430ZM1208.5 510.5H1150V481H1148V451.5H1151V421H1208.5V510.5ZM408 419.5V424.5L409.5 425.5V426L354 425.5V498.5H292L292.5 427.5L293 427V423C293.4 419.4 294.5 418.167 295 418L408 419.5ZM530.658 421L527 425V496.5H471.5V426.5L424.072 426V425.217L425 424V419.5L530.658 421ZM535.5 380.5L525.905 364L526 319.5L535.5 317V380.5ZM897.5 316V319L897 321V345L892 345.5V346.5L864.5 350L827.5 372.5H826.5L754 349.5L754.5 311L897.5 316ZM491.5 287.5V298.5H488L425 326L253 321L104.5 359.259V279H102V274L491.5 287.5ZM741.208 249V252.723H744V255H741L741.5 277L551.5 267.5V245.5H550.5V240L741.208 249Z" fill="black"/>
</svg>
