<svg width="1280" height="720" viewBox="0 0 1280 720" fill="none" xmlns="http://www.w3.org/2000/svg">
<path d="M196 553L195 552.5L194.5 551.5L196 553ZM812 390.252V411L786.5 426H789.5C789.366 426.167 789.098 426.7 789.098 427.5C789.232 428.167 790.2 429.5 793 429.5V434.219H809V434L905.5 429.5H913.5V429L1005.5 430V518.5L996.5 516.5L1002.5 511.5L997.5 510.5L995.5 509.5V508L994 509.5L990 509L992.5 504.5L988.5 507.5L985.5 510.5L983 512V514.5L981 515.5L978.5 512L975.5 510.5L972.5 504.5L969 506.5V509.5L961.5 508L958 505.5L953.5 507.5L957.5 508.5V510.5L955.5 512L953.5 510.5L954.5 509L951 509.5L950.5 508L945.5 507.5L942 510.5L939 508.5H937L935.5 511.5H933L931 514.5V517.5L934 518.5L931 522L928.5 519L927 520.5L924 519L922.5 522L925 524.5H920.5L917.5 526L913.5 528.5V527.5H912L910 528.5L906.5 530.5L909.5 527L908.5 524H906V522L904.5 525L901 527L899.5 529.5L898.5 527.5L897.5 530L895 526L895.5 523.5L895 520.5H890.5L892.5 523L890.5 524L886.5 521.5L885.5 516.5L882 517.5L881.5 522L883.5 524L882.5 525.5L880.5 524L880 522L877.5 523L880.5 519L883.5 513.5L880 515L879 511.5L873.5 519.5L872.5 525.5L871 527.5H869V529.5L865 523L858.5 514.5L855.5 511.5L850 508L846 509L838 511.5L835 514.5H836.5L844.5 510L848 511.5L855.5 520.5L853 521.5L854.5 527L849.5 521.5L849 522L852 526L853 529.5L849.5 527.5L848 530L842.5 531H833.5L831 528.5L829 530L828 526L830.5 524L829 521.5L827 523V529.5L825 527L822 527.5L821 526L822 519.5L824.5 517L827 513.5L828 511.5L827 510V507.5H830.5L829 506.5V503.5L827 503L832 500V498L829.5 498.5L828 498L830.5 496L827 497L828 495.5L827 493L824.5 490.5V485.5H823L819.5 489L821 485.5L819.5 484.5L822 482.5L821 481.5L818 484.5V481.5L815 480L814 481.5L813 482.5L811.5 481.5L812.5 477L810.5 475L809 480.5V481L803.5 478.5L801 479.5L799.5 478.5L803.5 475.5L802.5 473.5H790.5L789.5 475.5L787 479.5L786 476.5L785.5 473.5L786 403H754.5L755 539.5L758 536V532.5L757.5 526.5V524L758 515.5L756 514L757.5 513.5V511L756.5 509L758 507L757.5 503.5L756 501.5L757.5 501V498.5L758 493L756.5 490.5L758 491.5L757.5 488L759.6 488.3L758.5 489.5V536L755 540V552.5L754.36 389.179L812 390.252ZM193.705 550.94L193 552V550.8L193.705 550.94ZM696.999 388.111L696 551.5V546L690.317 545V490H691V388L696.999 388.111ZM240.416 382.791L239.5 386L238 390.5L236.5 395.5L235 402L233 409.5L230 420.5L227.5 429L224.5 438L222 444L218.5 453L214.5 462.5L210 473L206 482.5L201 494L196 506.5L189 524.5L186 534.5L184.5 540L182.5 548.5L181.5 548L179.5 545.5L181 543.5L180.5 541V539H179L178 535.5L175.5 539.5L174.5 538.5L172.5 542L169.5 541L168 536L169 530L168.5 522.5L168 507.5L169 497L169.5 491.5L170 482.5V470L168 480.5L169 483.5L168 484.5L169 486L169.5 488L166.5 487.5L169 491.5L164.5 489.5L164 487L161.5 485.5L161 499L153.5 495L149 492.5L145.5 486.5L142 474L141.5 467.5L140.5 462.5L136 463.5L136.5 468L136 471.5L133 470.5L127.5 477L124.5 486H112L102 493.5V406.5H98.5L98 402.362H103.5V386.5H101V380.5L240.416 382.791ZM381.5 542.5L381 544H379.5L378 542.5V544L376.5 543.5V539L377 538L376 537.5V523.5H381.5V542.5ZM389 543.5L388.5 542L388 543L387 542.5L386 544L385.5 543V541L385 540L384.5 541L384 542.5V523H389V543.5ZM442.5 536.5L441 535L441.5 537.5V541L443.5 543H441L439.5 544L439 543V540.5L439.5 538.5L438.5 539.5H437.5V522.5H442.5V536.5ZM404.5 541L403.5 542L404 543.5H403V542L401.5 543.5V542H400L399.5 543V523H404.5V541ZM669 310L668.5 543L646 543.5V358H645V320.5L596.5 319.5V356H595.639V307.343L669 310ZM480 539.5L479.5 541L478 539V540.5L476.5 540L477.5 542H475.5V501H480V539.5ZM510.5 542H507L505.5 541.5L506 501H510.5V542ZM518 541.5H513.5V501H518V541.5ZM525.5 539.5L524 541.5H521V501H525.5V539.5ZM330 536.5V539.5L329.5 540.5L329 539.5H328V541H327.5V539.5L325.5 540V540.5H324.5L325.5 502.5H330.5L330 536.5ZM397 540.5H396.5L396 541H395L394 540L393 541L392.5 540L392 541V522.5H397V540.5ZM472 538.5L470.5 539L469 540.5L469.5 538.5L468.5 536V522.5H472V538.5ZM488 540.5L487 540L485 540.5L485.5 539H484.5L483.5 540L483 539V501H488V540.5ZM496 540L494.5 540.5H491V501H496V540ZM503.5 540L502 539H501L500 538.5L498.5 537V501H503.5V540ZM313.5 538.5L312.5 538L312 539.5L310.5 537.5H309.5L309 538H308V502.5H314.5L313.5 538.5ZM305 539L303.5 538L303 537H301.5L300.5 537.5L299 535.5L300.5 533.5L299 533L299.5 502.5H306L305 539ZM435 534.5H434L433.5 535.5L432 536.5H431L431.5 537L431 539L429.5 538.5L429 537.5V523H435V534.5ZM322 537L320.5 536.5L320 536L319 537V538.5H316.5L316 537.5L317 502.5H323L322 537ZM345 531H343L343.5 533L342 533.5L343 535L341.5 535.5H340.5L340 538L340.5 502.5H345V531ZM450 535.5L449 535L448.5 534.5L448 535.5V537L447.5 537.5L446.5 535.5V537.5L446 535.5L445 537V522.5H450V535.5ZM465 533.5L464 536.5V534L463 534.5L462 537L460.5 535.5V522H465V533.5ZM426.5 536L425.5 536.5H424L423.5 534V523H426L426.5 536ZM337.5 535.5L336 536L335.5 533.5L334.5 535.5H333.5L332.5 536L333 502.5H338L337.5 535.5ZM283.5 383.5V387.5L276.5 389V390L271.901 390.5V391L269 392H260.5L259 394V395L251.5 402V404L252.179 406L254.5 406.5L255.5 411.5L274 411.735V421H277.435L277.5 429H278.5V524.5L273.5 523L263 520.5L258 518.5H251.5L245.5 521.5L241 524.5L234 530.5L227.5 529.5L222.5 527L222 523.5L220.5 519L222.5 518.5V515.5L218.5 514L217.5 515.5L215.5 513L211 515.5L213 519L211 520.5L212.5 525H204.5L202 533.5L201.199 535.699L202 532.5L203.5 527L204 525L207 514.5L208 511.5L211.5 502.5L215 494L219 483.5L223.5 472.5L227 463.5L230 455.5L233 448.5L236 441L237 438L238.5 434L240 429.5L241.5 422L243.5 415L244 412L244.5 409.5L245.5 406.5L248 396.5L248.5 394L250 387.5L251 384L251.5 383L250.603 382.959L283.5 383.5ZM373.5 535.5L372 534.5L371.5 535.5L371 534L370 533.5L369.5 532.5L369 533.5H368V523.5H373.5V535.5ZM458 534L457 534.5L456.5 533.5H455.5V535L454.5 534L454 532.5H453V522H458V534ZM411.5 534H409.5L407 534.5V522.5H411.5V534ZM351.5 531L349.5 531.5L351 533L350.5 533.5L348.5 531.5V530.5L347.5 531.5V502.5H351L351.5 531ZM365.5 531.5L364.5 532.5V533.5H363.5V532.5L362.5 533V531.5H361L360.5 532.5V523.5H365.5V531.5ZM358 532.5L357 532L356 533L355 532L353.5 531.5V523.5H358.5L358 532.5ZM1037.79 530.5H1037.5L1037.9 530.1L1037.79 530.5ZM1053.5 530.5H1053V526.5L1052.5 524.5L1050 525L1047 525.5L1046.5 524H1043L1042.5 525L1043.5 525.5L1041.5 526.5V524.5H1039.69L1040 523.5L1041.5 518.5L1046 506.5L1047.5 503.5L1049 500L1051 495.5L1052.5 492L1053.72 489.869L1053.5 530.5ZM1132.5 516.5H1117V518H1113V530.5H1109V515.5L1108.5 515V513H1114V436.5L1081.9 436.767L1082 436.5L1084 430.5H1132.5V516.5ZM297 526H295.5V525.5L295 525H294L293 526H292.5V503H297.5L297 526ZM1208.5 510.5H1150V481H1148V451.5H1151V421H1208.5V510.5ZM1073.05 436.841L1054 437L1053.83 469.455L1053.5 470V470.25L1052 472.5L1050 476L1048 479L1046.5 481.5L1044 485.5L1038.5 496.5L1037 499.875V430.5H1075L1073.05 436.841ZM408 419.5V424.5L409.5 425.5V426L354 425.5V498.5H292L292.5 427.5L293 427V423C293.4 419.4 294.5 418.167 295 418L408 419.5ZM530.658 421L527 425V496.5H471.5V426.5L424.072 426V425.217L425 424V419.5L530.658 421ZM766 484.5L767 486.5V494.5L768 495.5L768.136 495.227L768 496.5L766.5 495L764 483.5L762.213 485.448L761 481L764 483.5L766 480.5V484.5ZM768.406 492.708L767.5 491.5L768.5 489L768.947 487.657L768.406 492.708ZM769 487.166V485L769.406 483.375L769 487.166ZM778.5 480.916L778 481V476.5L772 483.5L769.613 482.545L770 481L772.5 482.5L776.5 476.5L778.5 475V480.916ZM782 479.5L783.5 479L784.428 479.928L779 480.833L780 480.5L781 478L782 479.5ZM535.5 380.5L525.905 364L526 319.5L535.5 317V380.5ZM897.5 316V319L897 321V345L892 345.5V346.5L864.5 350L827.5 372.5H826.5L754 349.5L754.5 311L897.5 316ZM741.208 249V252.723H744V255H741L741.5 277L551.5 267.5H540.5L491.5 293V298.5H488L425 326L253 321L104.5 359.259V279H102V274L491.5 287.5H497V281.5L498 279.5V276.5H493.5V275L494 274.5V273.5L493.5 273L550.5 240L741.208 249ZM831 343.5L864 344.5V315.5L830.5 314L831 343.5ZM755 343.5H761.5L762 314H755V343.5ZM128.5 289H125.5V300.5H129.5V306H165.5V283.5L128.5 281.5V289Z" fill="black"/>
</svg>
