<svg width="1280" height="720" viewBox="0 0 1280 720" fill="none" xmlns="http://www.w3.org/2000/svg">
<path d="M1002.5 344.5L1090.5 371.5L1166 394L1164 396L1168 397.5L1168.5 398.5L1170.5 397.5L1171.5 398L1171 399L1170 399.5L1170.5 401H1173L1173.5 400.5L1175 401.5L1091.5 400.5L1011 399.5L974.5 402.5L983 404.5L987.5 410H1003.5L1015.5 419L906 418L786.5 426L812 411V391H834L836.5 390V381H836L831.5 377.5L754.5 376.27V349.5L826.5 372.5H827.5L864.5 350L892 346.5L969 334L968 335L973.5 334L1002.5 344.5ZM495 304V321.5L503 341.5H513.5L535 380V393.5L540 397.5L260.5 392H269L272 391V390.5L276.5 390V389L283.5 387.5V383.5L317.5 374V372H291V374.5L254.5 373.5L243 373L81.5 368V366.5L100 359H104.5L253 321L425 326L488 298.5H491.5L495 304ZM696.5 377.5H691V325.5L696.5 324V377.5ZM790.5 267.5L793.5 268L818 276L919.5 308.5L755 302.5V282.5L758 281V277.5L741.5 277L741 258L748.5 255.5L790.5 267.5ZM529 227H529.5L468 266V268.5H472.5V273.5H474.5L477 272.5L493 273.5V274.5H494L493.5 275V276.5H497V277L74.5 261L103 253L196.5 226.5L257 211.5L289 212.5L317 214L371 216L424.5 218L425 217.5L462 205L529 227ZM641 198L705.5 217L755.5 232L772 237.5L775 238V238.5L536.5 225V223.5L554.5 216L584.5 204.5L619.5 191.5L641 198Z" fill="#FFA100"/>
</svg>
