<svg width="1280" height="720" viewBox="0 0 1280 720" fill="none" xmlns="http://www.w3.org/2000/svg">
<path d="M595.5 319.5L645 320.5V358H646V543.5L637.5 543.667V407L596 406.5V537.5H595L594.5 539L593 536L592.5 538L590 536.5V307.5H595.5V319.5ZM785.5 474L787 479.5L786.5 482L785 481L780 484.5L770 496.5L768 497L767.5 489L758 488L758.5 536L755 539.5L754.5 403H786L785.5 474ZM1114 513H1108.5V515L1109 515.5V530.5H1104.5L1102 525H1099L1097 524.5L1094.5 529L1091 527L1088 526L1086.5 524.5L1082.5 522.5V525L1079 524.5L1085.5 529L1084 530L1081 531.5H1079L1078 530.5L1073.5 532H1070L1072.5 535L1071 536.5L1066.5 536L1065.5 534L1062.5 533.5L1060.5 530.5L1053.5 527L1053.71 489.584L1054 489L1057.5 482.5L1062.5 474.5L1065 470L1067.5 466.5L1070 462L1073.5 457.5L1074.5 456L1075.5 453.5L1076.5 451.5L1077.5 450.5V449.5L1078.5 446.5L1080 442.5L1081.5 437.5L1081.99 436.767L1114 436.5V513ZM358 523H360.5V502.5H365.5V523.398L353.5 523.5L353.607 502.5H358V523ZM373.495 523.331L368 523.378V502.5H373L373.495 523.331ZM381.5 523.264L376 523.311V502.5H381.5V523.264ZM388.492 523.205L383.993 523.243L383.5 502.5H388L388.492 523.205ZM471.5 426.5L472.229 496.534L423.5 497.5V429L424 428.5V426.5H409.5V429L410 429.5L411.5 522.5V523.012L390.691 523.187L392 523V502.5L397 502V523H399.5V502H405L404.5 523H407L407.5 502H410.5V498L353.627 498.494L354 425.5L471.5 426.5ZM426 522.89L423.5 522.911V502H426V522.89ZM435 522.814L429 522.864V502H435V522.814ZM442.493 522.751L437.5 522.793V502H442L442.493 522.751ZM450 522.5H453L452.5 501.5H457.5L458 522.5H460.5L460 501.5H465V522.5H468.75V501.5H472.281L472.5 522.5L445 522.73V501.5H449.5L450 522.5ZM1072 439L1071 442L1070 445.5L1069.5 447L1068 449L1067 450.5L1065 453L1058 463.5L1055.5 467L1053.82 469.521L1054 437L1072.86 436.843L1072 439ZM603 385.5L637.5 386V328L602.5 327L603 385.5ZM864 315.5V344.5L831 343.5L830.5 314L864 315.5ZM761.5 343.5H755V314H762L761.5 343.5ZM165.5 283.5V306H129.5V300.5H125.5V289H128.5V281.5L165.5 283.5Z" fill="#FF0000"/>
</svg>
