<?xml version="1.0" encoding="UTF-8"?>
<svg id="Layer_1" xmlns="http://www.w3.org/2000/svg" version="1.1" viewBox="0 0 1280 720">
  <!-- Generator: Adobe Illustrator 29.8.1, SVG Export Plug-In . SVG Version: 2.1.1 Build 2)  -->
  <defs>
    <style>
      .st0 {
        fill: #f7c32f;
      }
    </style>
  </defs>
  <path class="st0" d="M858.03,325.64l-8.18-.48-1.44-128.05-139.94,2.32,2.06,168.29-4.38.26-6.19,8.5-13.66,26.8.26,2.32-9.28.52c-4.9-5.41-15.98-6.44-15.98-6.44l-36.34-1.55-2.32-18.04-2.83-42.52,22.16-.77-2.58-139.17-93.3,1.29,1.03,134.79-2.06,73.19-14.69-.26,1.8-2.83-3.61-3.09-3.61,2.83v3.61l-5.93.52-1.03-4.38-17.78.26v-2.06l-2.32-.26.52-6.7-3.87-1.8-13.92-.52.31-189.55-136.35.53-1.07,129.95h-8.52l-1.6,131.02h7.99v29.83l-26.1,1.07,1.07-10.65s3.29-13.71,8.82-52.08c5.53-38.37-16.88-38.06-16.88-38.06l-9.82.31-9.52,1.84-13.57,3.32,1.45-218.57,16.96-.97.14-8,3.76-7.53.71-2.82v-.03s600.71-9.68,600.71-9.68l2.94,2.08,2.03,8.97v23.18l11.9,1.42,6.07,190.8-62.58.96-1.44-53.92ZM924.78,460.94l-56.92.28-6.17-2.52-7.57.56v31.96l71.76-.32-1.1-29.96ZM480.86,402.17l9.55.37.37-7.49-10.3.19.38,6.93Z"/>
</svg>