<?xml version="1.0" encoding="UTF-8"?>
<svg id="Layer_1" xmlns="http://www.w3.org/2000/svg" version="1.1" viewBox="0 0 1280 720">
  <!-- Generator: Adobe Illustrator 29.8.1, SVG Export Plug-In . SVG Version: 2.1.1 Build 2)  -->
  <defs>
    <style>
      .st0 {
        fill: #b235db;
      }
    </style>
  </defs>
  <path class="st0" d="M1116.49-1.76h.02s-212.45,164.99-212.45,164.99v23.18l11.9,1.42,9.91,303.08,57.12,21.24-19.36-93s-1.89-26.44,14.16-30.69,54.29,5.19,54.29,5.19l35.88,5.66,57.59,7.55,63.26,1.89,58.07-.94,36.82-6.61,2.83-407.41-170.04,4.45ZM1178.31,307.05l-27.2,4.2-1.11,2.65-2.43,3.98-1.11,3.98,1.33,5.31v8.4l-1.55,5.09,1.99,3.54-.44,5.97.22,6.63-1.99,1.77-4.42-1.33-.44-3.32-1.33-3.98-1.77-3.32.44-3.32,1.77-2.87-1.33-2.87-3.1-4.2,2.21-2.21.22-3.76,1.55-3.54-2.43-4.64-3.1-3.1-1.11-3.98-5.09.66-.66-2.21-.22-2.43s-5.53-6.63-6.19-13.27c-.66-6.64-2.21-36.93-2.21-36.93l1.11-3.54,9.73-3.1,6.41,1.11,2.87-1.11,27.42-7.96,10.61-.88,2.43,1.11,1.55,61.47-2.65,1.99h.02Z"/>
</svg>