<?xml version="1.0" encoding="UTF-8"?>
<svg id="Layer_1" xmlns="http://www.w3.org/2000/svg" version="1.1" viewBox="0 0 1280 720">
  <!-- Generator: Adobe Illustrator 29.8.2, SVG Export Plug-In . SVG Version: 2.1.1 Build 3)  -->
  <defs>
    <style>
      .st0 {
        fill: #cf80f9;
      }
    </style>
  </defs>
  <path class="st0" d="M917.13,557.63l-340.29-1.81-254.01-1.21,3.92-5.43-6.94-1.81s7.24-20.82-.3-50.68l-15.08-.3-1.81-8.75-22.32-2.41-1.81-30.17-30.17-2.72-34.39-.3,3.62-276.03-79.94-54-140.88,1.81.86-41.68-.04-.02,345.01-2.12,36.02,43.08h38.49l-.93,102.35-118.92.94s-4.65-.17-3.95,5.55l11.87,112.4s-.28,5.17,4.33,5.59l279.4-2.65s5.72,1.82,5.17-5.86l-3.07-113.38s-.28-5.03-4.33-5.03l-93.13.84,1.26-100.4,415.99-6.71,4.42,201.63s-4.75-2.51-4.05-5.03c.7-2.52,2.79-2.09.56-4.47s-2.93,2.79-2.93,2.79c0,0-.98-4.05-2.09-4.05s-.56-1.95-2.65-2.23c-2.09-.28-.7-2.65-3.63-2.65s-3.77-3.63-6.28-3.21c-2.51.42-4.61,1.82-3.91,4.89s3.21,1.95,3.21,1.95l-.56,1.54s-2.65-2.09-2.79.7c-.14,2.79.14,5.45,1.82,5.45s2.51-2.23,1.4-4.19c0,0,3.21.56,3.21-1.82,0,0,.7,1.12,2.37,2.23,1.67,1.11.7,2.51,3.07,3.91,2.37,1.4,1.26,3.63,3.35,5.17,2.09,1.54,1.54,2.37,1.54,2.37h-2.23l7.54,6.28s.7,3.35,3.49,3.63l.7,7.96-2.09-.56-1.68.14-1.95-.98-.98.28-3.07-3.35-2.93-1.95-2.23.42-2.65-1.12-3.35-1.82-1.68,2.51-1.95-1.95-.42,1.95-3.21-1.4-2.37.28-2.51-1.95-1.4,1.54-1.82-1.12-.42,1.54-4.19-2.65-1.26,1.26-2.09-.42.42,1.68-2.23-.98-.56,1.12-1.54.28,1.12,1.26-2.23-.28-2.51-1.68-.84,2.65-2.51,1.54-.28,1.12,1.4.56-4.61,5.03,3.49-1.12-.42,2.09,3.07-1.82v2.23l3.77-2.23-.7,2.23,4.61-1.68-1.12,1.54,5.59-1.82-.98,1.54,4.89-1.95-3.21,3.07,7.12-2.51-1.54,2.09,3.35-1.68-1.4,2.65,5.86-1.95-2.23,1.82,5.86-.42-2.23,1.4,6.14-.7-2.51,1.26,6.84-.28-2.37,1.12,6.28.42-3.07.98,6,.14-3.21,1.4,3.77.28-3.07,1.82,3.63-.14-1.95,1.68,4.19-.7-2.23,1.54,4.61-.7-2.37,1.68h2.65l-1.54,1.12,2.37.56,1.49,200.15Z"/>
</svg>