<?xml version="1.0" encoding="UTF-8"?>
<svg id="Layer_1" xmlns="http://www.w3.org/2000/svg" version="1.1" viewBox="0 0 1280 720">
  <!-- Generator: Adobe Illustrator 29.8.2, SVG Export Plug-In . SVG Version: 2.1.1 Build 3)  -->
  <defs>
    <style>
      .st0 {
        fill: #81d8f7;
      }
    </style>
  </defs>
  <path class="st0" d="M910.75,116.73L982.44-6.16v-.05s74.66,1.33,74.66,1.33l-40.83,56.74.53,230.67-1.59,45.6-9.54-14.32,1.06,33.41-9.01,14.85-6.36-12.2-9.01-11.14-3.28-20.21-5.64-7.39-2.32-1.39.73-1.99.66-2.59-.53-1.46-2.13-1.66-1,.4-1.26.13-.8-2.72,1.39-3.32-.2-2.13-1.2-1.46-1.86-.8.33-1.53.66-2.59.73-1.73-1.13-.66-1.39-1.93,1.66-1.46v-.86l-.73-.6-.07-1.26-1.93-1.39-1.39-.4-.66,1.2-1.86-3.19-3.45-.33-1.26-1.73-1.2-2.26-1.59-1.99h1l.27-.66-1.46-1.13h1.73l2.19,2.86,1.39,1.53,1.59-1v-1.99l.8-2.46-1.79-.8-1.13-1.73-2.66.33-2.59,2.72-1.13-4.12-1.86-5.98,1.53,2.19.33-1.06,1.26,3.59,1.39,1,1.79-2.72-.33-1.26-1.39-1.53,1.26-1.2-.73-1-1.53.46-1.79-2.59-1.26.46-.6-1.26-1.06.33-.13,1.79-1.43-1.14-.25-2.52-1.01-1.89-2.02,1.39-.25,2.9,1.89,2.52-3.91,2.02-.63,1.77,2.02.63v1.77l.88,1.89-2.65,2.9.88,1.64,2.02-.38-1.14,1.51-.25,2.02,2.52,1.51,2.52-2.9-1.14-1.01.25-1.64-2.27-1.89.63-2.14-.5-2.52,1.51-.13.25-5.3,2.78,4.79,1.39,7.44-1.39,1.77,2.65,1.51.63,2.78,2.78,2.78v2.4l1.77.5-1.01,2.4,1.01,1.51,2.14-1.01,1.14,1.39-.38,1.14,2.02,1.14-.76,1.89,3.53,7.32-2.14,1.64.25,2.9,2.52,1.64-.25,3.66-.76-2.4-.5,4.54-3.66-1.77-1.89-2.14-.25,1.89-4.42-2.52-.38,3.03-4.16.25,2.52,2.4-2.9.25,5.93,3.79-3.15.63,7.82,3.41-2.14.25,4.67,3.41-2.27.5,4.67,3.66h-4.04l3.41,1.39,4.67,4.92-2.02-.25,3.41,3.15-1.77,2.27-.88.88,1.26,4.29-4.79-1.64-1.64,1.39-2.27-5.05-3.15-6.56,2.4-1.14-1.64-.88,1.14-2.02h-4.04l1.26-2.9-1.77,1.89v-2.65l-.76,1.77-1.25-3.3c-2.42-6.83-7.88-10.82-7.88-10.82,0,0-1.36-2.95-3.36-4.31s-2.42.95-2.42.95l-1.26-.53-2.63-.32-3.15-.11-1.26.95-1.16.42-.21,1.26.95,1.37-1.47,2.31,2.42,1.16.11,2.1,2.21.74,2.52-.42,1.58-4.1,2.31-2-.21.95,1.26.32-.11,1.58,2.31-1.05,3.57,2.63-2.1.42-2.84.74v1.79l2.21,2-3.26-1.89,1.79,2.63-2.52-1.68.63,1.47-2.1,1.05,3.78,2.73-2.21.32,3.89,1.05-2.1.84,3.15,1.47-2.42,1.05,5.25,2-2.21.42,3.05,1.26-3.05.53,5.67,2.52,3.26.11,1.58,2.31,2.63,4.94-1.68,1.37v1.47l1.89.32v2.84l-.84,1.05-2.84-.21-.84-1.16-1.37.11,1.58,1.89,4.83,4.62-1.47-.42-1.47,1.26-1.05,2.1,1.26,1.68.21,1.89-2.1.21.11-4.94-1.79-4.94-.95.53-3.26,2-3.68,1.89-1.37-1.16-.74-2.73-1.37-.21-1.05-3.78-1.26.21-.63-3.15-.74,2-.11-3.68-1.05-.32-.21,3.47-4.52-6.2-8.3-12.93c2-4.31-1.89-3.36-1.89-3.36l-1.5-2.44-2.81-1.62-4.42-201.63ZM916.3,326.84l.43,2.49,5.53,7.48,5.4,6.68,1.58.18.61,1.22,1.7.12-9.6-15.25-1.76-.61-.24-1.46-2.01-.42.25-.91-1.83-1.7-.48-1.4,1.15-.49-1.52-.3-2.43-1.22-1.7-.42.79,2.06,1.4-.3,2.06,1.88.67,2.37ZM917.58,338.39l1.27,3.52.49-1.34,2.92,2.37,2,3.16,1.58,3.16,1.58.49-1.4-1.46-.24-1.21.97.6v-1.09l-2.37-2.92,2.43.91-1.76-1.82-3.64-4.07-3.89-5.77-1.93-1.29.53,6.39,1.46.37ZM974.13,500.57l60.1,2.88v57.14h-5.16l-.06,20.08-19.97-.4v4.42l1.34.54,18.5.54.13,7.64-111.91-35.82-1.49-200.15,1.55.9h4.08l-.84,1.13h3.66l-1.69,1.41,4.5.7,3.52-.56,1.83,1.97-2.81.14.98,1.13-3.38-.42,1.83.98-3.52.7,2.81.56-2.81,1.55h5.77l.56,1.41,2.95.84,3.66-.42-1.69,1.55,3.52.14.84.98-2.53.42,2.25,2.53,3.09,1.41-2.39.14,4.92,2.39,5.49.56,8.72,9.71,8.58,11.25-.66.73.23.83-.98.68,1.05,1.2h2.26l-.08,1.58,2.03.15,6.02,9.18-.38,1.13-1.43.97-.1,13.41s-17.35,6.42-26.02,21.68c0,0-5.03,8.68-10.06,32.44l2.58,1.58,4.43.55,1.34,1.11,1.66-.32,2.21-.16,2.21-8.69,3.95-13.51s5.68-15.26,18.81-20.22l-.64,21.14v15.69l.48,8.81-15.53,1.44v7.69l11.69.96v-.02ZM953.81,539.01l-.4-30.16-14.07-2.14-4.96.4v27.88l14.61,4.02h4.82ZM1110.61,593.45s11.62-12.78,17.78-17.54l-.23-.93s-7.2-2.44,1.28-11.74c0,0,4.88-4.65,13.59-2.09,0,0-7.09-1.74-6.51-10.46s3.49-23.35,14.06-24.17l3.02-9.3,2.09-5.58-.12-3.37-4.53-.46s-3.02,5.69-11.62-1.39l-9.53,10.69-7.2,8.83-4.53,3.37-1.39,1.39-2.32,1.63s0,4.42-3.6,5-5.34-1.74-3.14-6.86c0,0-6.51-1.74-8.02-3.6l-3.6.35s-3.6-2.44-3.72-5.46,3.37-3.83,6.62-1.63.81,4.88,2.67,6.39,6.62,2.32,6.62,2.32c0,0,1.16-3.02,5.58-.81l3.02-1.05-1.51-.81,3.6-.46,7.44-8.13,8.71-10.81s-4.53-1.39-5,1.86-1.86-2.21-4.07-2.32c-2.21-.11-78.68-2.32-78.68-2.32h.02s.22,55.75.22,55.75l5.03,1.31.23,9.99,5.34,1.39s9.18,1.86,9.06,13.01c0,0-.23,11.04-13.94,11.04l-.12,4.18,32.53,10.11,1.16-3.37,1.63-2.32s-4.76.46-7.9-.46-7.78.23-7.78.23c0,0-.93-.58,1.05-2.21s3.95-3.14,6.62-2.21c0,0-1.98-4.53.93-7.09l.81.46s-1.98,8.13,4.42,9.53,14.52-3.14,14.52-3.14c0,0,.93-8.83,9.41-6.74ZM1126.86,618.24l-1.65-5.18-2.71-5.78-5.07,3.54v4.01l-6.83-.59-2.6,2-2.82,1.06,29.34,9.78-4.25-4.95-3.41-3.89ZM1130.16,576.88l-1.65.47-10.02,9.67-6.36,7.07,3.42,4,2.82,5.9,1.42,2.71,4-4.25,3.3-3.89,4.36-7.89,2.71-4.83-4.47.82-.48-2.94,1.06-4.25-.11-2.59ZM1173.17,621.43s-2.71,1.53-2.71-.47.47-7.9-1.77-12.26-10.25-20.98,11.9-20.03l-.94-2.24s-19.44,4.01-26.98-8.37c0,0-.82,2.59-6.83,4.12s-9.54,3.06-9.54,3.06h-.02s-4.01,8.38-4.01,8.38l-3.77,6.13,4.83-.71s10.25-5.18,19.44,2.59,9.66,16.26,12.73,20.03l-6.83.71s-7.42,1.65-12.73.24c0,0-2.83,6.72-.82,8.01l29.11,9.07s-2.95-9.19-1.06-18.26ZM1182.48,589.14l3.3,1.06s5.3-2.36,7.42-1.77c0,0-4.95-6.72-1.53-15.91l-3.18-3.65-4.01,6.25,4.36,10.61-6.47.59,3.41,2.11-3.3.71ZM1182.36,586.31h0s.01,0,.01,0h-.01ZM1182.01,616.36l4.6-1.3c-1.65-13.32,5.3-18.5,5.3-18.5l1.18-3.3.47-3.3c-3.18-.12-6.72,2.24-6.72,2.24h0c-1.18,6.49-10.96,22.16-10.96,22.16l-1.41,3.3c4.71-2.71,7.54-1.3,7.54-1.3ZM1202.51,644.4c-13.43-6.59-12.37-19.91-12.37-19.91-2.01-1.65-3.54-7.78-3.54-7.78,0,0-3.07.83-4.36,1.3s-5.18,11.55-5.18,11.55c0,0,4.48,5.19,5.42,6.6s7.66,5.18,7.66,5.18l-5.18,1.65,22.62,7.07c-6.13-2.71-5.07-5.66-5.07-5.66ZM1261.2,635.57h8.37s3.06-13.9-.12-17.79c0,0-4.95,1.3-7.54.24,0,0,1.18-11.55,5.3-16.38l-9.54,6.13-1.53-1.65,10.61-6.48-3.06-7.07-9.9,10.02s-11.19,9.78-16.97,9.78-16.62,3.77-16.5,6.13c0,0-.47-7.07,9.31-15.55,0,0,7.54-11.67,18.74-14.26l-5.66-3.65s2.36-7.42,4.6-9.43c0,0-6.13-1.06-9.66,4.12l-3.54-3.42,3.89-.71,2-6.36s-5.54-4.24-6.83-7.78c0,0-.24,18.62-21.68,20.15,0,0,2.83,25.57,8.48,26.75,0,0-6.72,1.06-23.33-14.73l-2.83,3.54s6.95,21.21,25.1,33.11c0,0-15.55,5.42-25.92-2.83l-.03-.02s.71,3.77,3.3,6.01,3.54,7.78,10.37,10.02c0,0,1.65-2.36,5.66-.47s10.25,7.19,15.32,5.54c0,0-3.18,4.71-16.26,2.95l17.56,5.42s5.18-1.06,7.78-.94c0,0,7.66-21.21,24.51-20.39ZM1235.15,558.26h0l-.71,1.3s3.65,7.9,6.48,8.72c0,0,5.07-6.13,1.65-11.43l-2.71-.12s-1.65,2-4.71,1.53ZM1238.46,555.55s.82-.23-1.89-2-1.18-6.6-1.18-6.6h.01c-.71-.95-1.77.11-1.77.11l-3.18,2.95-.59,1.3c3.3,8.95,8.6,4.24,8.6,4.24ZM1227.84,551.78l-1.29,1.53,2.83,1.18-1.54-2.71ZM1146.81,560.67l2.64,1.87s4.4-5.39,9.46-4.62c0,0-2.53-2.86-2.53-5.39l-9.57,8.14ZM1148.9,540.77l-2.86,18.36,9.79-8.91.99-2.97,1.1-2.42,1.54-.99,1.87-2.31,5.6-3.62,2.31-4.29-5.82-.77-4.51-1.1-2.97,3.96-4.51,3.19-2.53,1.87ZM1138.78,551.87c-.44,5.28.44,6.16,2.31,7.04s2.86.11,2.97-1.54l2.75-15.51s-7.59,4.73-8.03,10.01ZM1188.16,528.23h0s0,0,0,0h0ZM1193.44,530.76s2.53-1.76,4.4-1.98c0,0-.99-5.17,0-8.91,0,0-4.62,5.72-9.68,8.36,0,0,4.29.99,5.28,2.53ZM1194.32,532.96l.99,2.86,2.97-2.64-.33-2.75s-3.08.99-3.63,2.53ZM1207.85,523.72s4.73-3.63,7.26-3.52c0,0-2.31-5.5-2.75-8.91,0,0-6.71,0-8.69-.66h0s2.53,8.47,2.53,8.47l1.65,4.62ZM1268.95,637.36l-6.62.17c-3.32,3.22-11.77,24.49-11.77,24.49h0c.78.62,2.35.18,2.35.18,11.42-8.28,16.04-24.84,16.04-24.84ZM1280.79,637.27l-4.53-5.14-3.14-4.88-.7.61.35,3.57,1.05.52-1.13.87s-2.61,18.65-17.95,31.03h0l1.48,2.18,25.27,7.67-.7-36.43Z"/>
</svg>