<?xml version="1.0" encoding="UTF-8"?>
<svg id="Layer_2" xmlns="http://www.w3.org/2000/svg" version="1.1" viewBox="0 0 1280 720">
  <!-- Generator: Adobe Illustrator 29.8.2, SVG Export Plug-In . SVG Version: 2.1.1 Build 3)  -->
  <defs>
    <style>
      .st0 {
        fill: #f2c083;
      }
    </style>
  </defs>
  <path class="st0" d="M1225.45,328.52l-4.96,6.06-11.29,4.41-5.78-342.68h-68.87l4.68,360.31-6.89,3.03-6.89,3.58,2.2,5.51,4.13,6.06,7.71,4.68,1.38,57.02,25.06-2.32-6.62,10.36-.58,6.33-4.03,6.04.58,3.16-1.44,8.34,2.59,5.18,1.73,10.36-7.19,7.48-102.19-1.07-1.61-19.8c-.54-14.45-11.24-24.08-11.24-24.08l52.43-6.96-4.28-407.16-44.94,50.29v247.19l-10.7,13.38-2.68,14.45-9.1,17.12,1.07-16.59-4.82-11.77,8.03-17.12-5.76-1.14,1.06-276.27,40.83-56.74,163.12-2.71,5.23,336.07Z"/>
</svg>