<?xml version="1.0" encoding="UTF-8"?>
<svg id="Layer_1" xmlns="http://www.w3.org/2000/svg" version="1.1" viewBox="0 0 1280 720">
  <!-- Generator: Adobe Illustrator 29.5.1, SVG Export Plug-In . SVG Version: 2.1.0 Build 141)  -->
  <polyline points="0 0 0 369 9 374 104 374 149 360 149 379.97 197.32 379.97 199.58 372.88 214.07 379.97 223.09 360 237.59 365.15 237.59 373.85 244.36 379.97 479.52 378.03 504.97 369.01 504.97 378.03 559.42 378.03 574.23 376.1 574.23 379.97 645.11 377.71 646.72 615.46 619.01 615.46 670.56 688.91 682.48 705.98 688.27 720 708.89 720 708.89 711.78 698.26 711.78 689.24 682.14 688.92 532.34 832.92 532.02 832.92 523.64 846.13 521.07 857.08 520.42 858.37 515.27 861.91 513.01 906.05 511.4 912.17 505.93 916.03 494.65 917 489.5 915.71 296.53 913.45 285.58 907.66 273.66 901.86 269.15 868.35 263.67 868.36 265.94 876.4 266.09 877.36 267.45 877.21 285.84 851.97 287.08 852.09 266.21 860.72 265.94 860.6 252.29 868.7 252.29 868.94 257.24 903.25 260.74 910.86 265.21 917.26 272.22 921.97 281.76 924.51 293.36 924.51 304.84 925.47 481.61 924.81 491.16 922.88 501.91 918.77 509.7 913.03 516.83 907.84 521.06 923.54 521.36 934.9 523.41 934.96 530.78 948.49 530.14 988.11 540.93 988.11 709.09 961.05 709.09 965.24 720 1280 720 1280 0 0 0"/>
</svg>