<svg width="36" height="36" viewBox="0 0 36 36" fill="none" xmlns="http://www.w3.org/2000/svg">
<path d="M18.0341 32.2052C25.8807 32.2052 32.2399 25.8449 32.2399 17.9994C32.2399 10.154 25.8807 3.7937 18.0341 3.7937C10.1886 3.7937 3.82837 10.154 3.82837 17.9994C3.82837 25.8449 10.1886 32.2052 18.0341 32.2052ZM18.0341 4.93012C25.2404 4.93012 31.1035 10.7931 31.1035 17.9994C31.1035 25.2058 25.2404 31.0688 18.0341 31.0688C10.8267 31.0688 4.96479 25.2058 4.96479 17.9994C4.96479 10.7931 10.8267 4.93012 18.0341 4.93012Z" fill="white"/>
<path d="M18.9002 24.1069L19.7041 24.9108L26.6135 18.0002L19.7041 11.0896L18.9002 11.8934L24.4382 17.4314H10.6506V18.5678H24.4382L18.9002 24.1069Z" fill="white"/>
</svg>
