<svg width="67" height="67" viewBox="0 0 67 67" fill="none" xmlns="http://www.w3.org/2000/svg">
<g clip-path="url(#clip0_782_2185)">
<path d="M33.7778 34.6465C37.9552 34.6465 47.7766 29.6193 47.7766 17.5731C47.7766 15.8929 47.7358 14.2697 47.5973 12.7361C47.3699 9.71767 46.7517 7.04279 45.2124 4.99265C43.2383 2.20314 39.7839 0.5 33.7778 0.5C27.7729 0.5 24.3188 2.20262 22.3447 4.99109C20.8045 7.0414 20.1858 9.71732 19.9584 12.7366C19.8201 14.2701 19.7791 15.893 19.7791 17.5731C19.7791 29.6193 29.6005 34.6465 33.7778 34.6465ZM28.5889 6.14603C28.894 5.58726 29.4784 5.23974 30.1139 5.23905C30.8467 5.23905 31.4739 5.69358 31.7308 6.33407H35.823C35.9092 6.11798 36.0384 5.91954 36.2075 5.75002C36.5353 5.42103 36.9722 5.23939 37.4366 5.23887C38.0741 5.2387 38.6585 5.58431 38.9645 6.141C38.9825 6.17356 38.9818 6.21269 38.9628 6.24472C38.9441 6.27676 38.9096 6.29632 38.8727 6.29632L37.3207 6.29892C37.2934 6.36437 37.2413 6.54601 37.242 6.9789C37.2427 7.41178 37.2955 7.59325 37.3232 7.65852L38.8751 7.6561C38.9124 7.65627 38.9461 7.67584 38.9652 7.7077C38.9844 7.73956 38.9848 7.77904 38.9673 7.81159C38.6618 8.37001 38.0774 8.71788 37.442 8.71857L37.4395 8.71823C36.7086 8.71823 36.082 8.26404 35.825 7.6232H31.7329C31.6467 7.8393 31.5178 8.0379 31.3487 8.20725C31.0209 8.53624 30.584 8.71805 30.1193 8.71892C30.1193 8.71875 30.1165 8.71892 30.1165 8.71892C29.4821 8.71892 28.8973 8.3733 28.5912 7.81661C28.5732 7.78406 28.5742 7.74458 28.5929 7.71272C28.6115 7.68086 28.6461 7.66095 28.6831 7.66095L30.2348 7.65852C30.2621 7.59325 30.3146 7.41161 30.3136 6.97872C30.3129 6.54567 30.2601 6.3642 30.2323 6.29892L28.6804 6.30152C28.6435 6.30117 28.6094 6.28178 28.5903 6.24992C28.5718 6.21806 28.5711 6.17893 28.5889 6.14603ZM21.8617 14.9613C22.023 15.3142 22.7081 16.6703 23.7687 16.7974C24.9879 16.9436 27.0115 12.4796 33.7778 12.4689C40.544 12.4798 42.5678 16.9436 43.787 16.7974C44.8476 16.6701 45.5327 15.314 45.6939 14.9613C45.7268 15.8257 45.7388 16.7006 45.7388 17.5731C45.7388 23.4614 43.1389 27.1098 40.9577 29.1334C38.2094 31.6833 35.1582 32.6088 33.7778 32.6088C32.3975 32.6088 29.3461 31.6833 26.598 29.1334C24.4168 27.1098 21.8169 23.4614 21.8169 17.5731C21.8169 16.7006 21.8288 15.8257 21.8617 14.9613Z" fill="white"/>
<path d="M59.7681 52.1563C59.0535 47.7125 57.5822 41.9882 54.631 39.9537C52.6165 38.5648 45.5873 34.8093 42.5857 33.2057L42.5306 33.1764C42.1875 32.9931 41.7684 33.0298 41.4623 33.2701C39.8894 34.5049 38.1665 35.337 36.3414 35.7433C36.019 35.8151 35.7544 36.0442 35.6372 36.3529L33.7788 41.2516L31.9203 36.3529C31.8031 36.0442 31.5385 35.8149 31.2161 35.7433C29.391 35.337 27.6682 34.5049 26.0952 33.2701C25.7891 33.0298 25.3701 32.9929 25.0269 33.1764C22.0601 34.7618 14.9427 38.5951 12.9354 39.9478C9.53809 42.2367 8.05278 50.5193 7.78959 52.1565C7.76344 52.3189 7.7785 52.485 7.83339 52.6401C7.93278 52.9205 10.0347 58.3492 23.171 60.3299C24.3192 62.3369 26.0343 64.0059 28.0851 65.0911C29.8274 66.013 31.801 66.5002 33.793 66.5002C34.573 66.5002 35.3539 66.4252 36.1144 66.2774C38.7433 65.7659 41.171 64.3689 42.9505 62.3435C43.4974 61.7212 43.9761 61.0452 44.383 60.3304C57.5223 58.3499 59.6247 52.9205 59.7241 52.6401C59.7792 52.4848 59.7943 52.3186 59.7681 52.1563ZM44.227 54.8764C44.0989 57.201 43.1772 59.4437 41.6405 61.1922C40.1212 62.9215 38.0418 64.1254 35.7815 64.5652C35.1252 64.693 34.4589 64.756 33.7931 64.756C32.0976 64.756 30.4064 64.3462 28.901 63.5495C26.882 62.4811 25.2385 60.7508 24.2782 58.6778C23.2801 56.5229 23.0503 54.0439 23.63 51.7406C24.19 49.5137 25.4991 47.5059 27.299 46.0823C29.1355 44.6297 31.4372 43.829 33.7786 43.829C34.8253 43.829 35.871 43.9854 36.8706 44.2953C39.0591 44.9732 40.9917 46.3827 42.3171 48.25C43.68 50.1701 44.3566 52.5257 44.227 54.8764Z" fill="white"/>
<path d="M35.4216 54.2934C36.3999 54.4872 37.3726 54.7781 38.2847 55.1827C39.1661 55.5737 39.9558 56.1254 40.7754 56.6254C40.8316 56.6602 40.8886 56.6937 40.9456 56.7274C41.2051 55.9633 41.348 55.1453 41.348 54.2934C41.348 53.4415 41.2051 52.6235 40.9456 51.8594C40.106 52.3605 39.3077 52.9314 38.4177 53.3438C37.4693 53.7838 36.4464 54.0906 35.4216 54.2934Z" fill="white"/>
<path d="M40.7717 56.6253C40.5899 56.5143 40.8696 56.6854 40.7717 56.6253V56.6253Z" fill="white"/>
<path d="M29.274 55.1824C30.1863 54.7777 31.1586 54.4868 32.1371 54.2931C31.0973 54.0874 30.0573 53.7748 29.0966 53.3231C28.2243 52.9125 27.4389 52.3519 26.6131 51.8589C26.3535 52.623 26.2107 53.4412 26.2107 54.2931C26.2107 55.145 26.3535 55.9632 26.6131 56.7273C26.6699 56.6933 26.727 56.6599 26.7831 56.6251C27.6028 56.1251 28.3931 55.5734 29.274 55.1824Z" fill="white"/>
<path d="M26.7828 56.6253C26.6853 56.6854 26.9646 56.5143 26.7828 56.6253V56.6253Z" fill="white"/>
<path d="M35.1697 46.8555C35.1946 47.8456 35.3032 48.8339 35.2213 49.824C35.1325 50.8957 34.8887 51.9706 34.5427 52.9875C35.2561 52.1895 36.0713 51.4527 36.9587 50.851C37.784 50.2917 38.7021 49.9004 39.5799 49.4355C38.475 48.1172 36.9295 47.1826 35.1697 46.8555Z" fill="white"/>
<path d="M33.0155 52.987C32.6694 51.9703 32.4257 50.8953 32.3367 49.8235C32.2552 48.8334 32.3637 47.8451 32.3885 46.855C30.6287 47.1821 29.0833 48.1168 27.9783 49.4348C28.8709 49.9077 29.8042 50.3044 30.6402 50.878C31.5106 51.4758 32.3121 52.2006 33.0155 52.987Z" fill="white"/>
<path d="M32.3367 58.763C32.4259 57.6918 32.6683 56.6158 33.0155 55.5996C32.3014 56.3973 31.4865 57.1343 30.5991 57.736C29.7742 58.2954 28.8565 58.6868 27.9783 59.1517C29.0832 60.4696 30.6287 61.4041 32.3883 61.7312C32.3636 60.7412 32.2552 59.7527 32.3367 58.763Z" fill="white"/>
<path d="M34.5427 55.5996C34.8899 56.6158 35.1325 57.6917 35.2213 58.763C35.3032 59.7527 35.1948 60.7412 35.1697 61.7313C36.9293 61.4042 38.4749 60.4696 39.5798 59.1517C38.6875 58.6788 37.7544 58.2819 36.9186 57.7085C36.0474 57.1107 35.2464 56.3859 34.5427 55.5996Z" fill="white"/>
</g>
<defs>
<clipPath id="clip0_782_2185">
<rect width="66" height="66" fill="white" transform="translate(0.779053 0.5)"/>
</clipPath>
</defs>
</svg>
