<svg width="67" height="67" viewBox="0 0 67 67" fill="none" xmlns="http://www.w3.org/2000/svg">
<path d="M51.1074 46.6126C49.3576 47.0308 47.5311 47.2522 45.6531 47.2522C32.7435 47.2522 22.2781 36.7868 22.2781 23.8772C22.2781 22.5477 22.3891 21.2441 22.6023 19.9751C22.5028 20.0708 22.4 20.159 22.2917 20.2412C21.52 20.827 20.5589 21.0445 18.6368 21.4794L16.8868 21.8753C10.1227 23.4058 6.74064 24.171 5.93599 26.7585C5.13134 29.3461 7.43702 32.0422 12.0484 37.4344L13.2414 38.8295C14.5517 40.3618 15.207 41.128 15.5017 42.0759C15.7965 43.0238 15.6974 44.046 15.4993 46.0906L15.3189 47.9518C14.6218 55.1464 14.2732 58.7436 16.3797 60.3428C18.4863 61.9419 21.6529 60.4841 27.9863 57.568L29.6247 56.8134C31.4243 55.9849 32.3241 55.5707 33.2781 55.5707C34.2321 55.5707 35.1319 55.9849 36.9315 56.8134L38.5699 57.568C44.9032 60.4841 48.0698 61.9419 50.1766 60.3428C52.2831 58.7436 51.9344 55.1464 51.2372 47.9518L51.1074 46.6126Z" fill="white"/>
<path opacity="0.5" d="M25.4493 15.3765L24.5481 16.993C23.5583 18.7688 23.0633 19.6566 22.2917 20.2424C22.4 20.1602 22.5028 20.072 22.6023 19.9763C22.3891 21.2453 22.2781 22.5489 22.2781 23.8784C22.2781 36.788 32.7433 47.2534 45.6532 47.2534C47.5312 47.2534 49.3574 47.032 51.1075 46.6138L51.0569 46.0918C50.8587 44.0472 50.7597 43.025 51.0545 42.0771C51.3493 41.1292 52.0043 40.363 53.3147 38.8307L54.5079 37.4356C59.1191 32.0434 61.4247 29.3471 60.6201 26.7597C59.8154 24.1722 56.4335 23.407 49.6693 21.8765L47.9195 21.4806C45.9972 21.0456 45.0361 20.8282 44.2644 20.2424C43.4928 19.6566 42.9978 18.7688 42.0081 16.9931L41.1069 15.3764C37.6235 9.12775 35.8819 6.00342 33.2782 6.00342C30.6742 6.00342 28.9326 9.12778 25.4493 15.3765Z" fill="white"/>
</svg>
