<svg width="1280" height="720" viewBox="0 0 1280 720" fill="none" xmlns="http://www.w3.org/2000/svg">
<path d="M990.5 29.5L989.5 83.5L990 134.5L990.5 164V343.5L989.5 411.5V461L989 587L987.5 720H967L967.5 704.5L968.5 704L969 703L970.5 450.5L969.5 448.5L969 447V438V415.5V406.5L970 404.5H971V149L969.5 147.5L969 145.5V105.5L970 104L971 103L970.5 59.5L778 58.5L638.5 57.5L636.5 58.5L637 720H619V660L620 565.5L620.5 541.5L621 541L620 536.5V512.5L621 509.5V491.5L620 489L621 486.5V468L620 463.5V461.5L621 458.5V442.5L620 436.5L621 429.5V409V402.5L621.5 388V317L622 309L621.5 283.258V189.5V175.5V135.5V116V97.5L622.5 77V51L621 47L622.5 44V29.5H990.5Z" fill="#FF0000"/>
</svg>
