<svg width="1280" height="720" viewBox="0 0 1280 720" fill="none" xmlns="http://www.w3.org/2000/svg">
<path d="M1079.5 -0.5V546.5L1071.5 549.5L1067 557L1058.5 559L1057 560.5V563.5L1055.5 565L1051 568L1044 582.5L1040.5 584L1039 585.5L1038 590.5L1039 604.5V627L1038 657V720H987.5L989 581L989.5 478V410.5L990.5 337.5V166L989.5 85.5L990.5 29.5H622.5V44L621.5 46.5V48.5L622.5 51V76L621.5 97V284.5L622 309L621.5 316.5V384.5L621 410.5V429.5L620 437L621 442.5V458.5L620 461.5V463.5L621 468V486.5L620 489L621 491.5V509.5L620 512.5V536.5L621 541H595L567.5 541.5L517.5 542.5L470 543L462 542.5L447 543L437.5 544.5L434.5 -0.5H1079.5ZM306 131.5L307 305.5L308 529V542L280 540.5H56L0 539.5V0H306V131.5Z" fill="black"/>
</svg>
