<svg width="1280" height="720" viewBox="0 0 1280 720" fill="none" xmlns="http://www.w3.org/2000/svg">
<path d="M814 350.5L942.5 348.5L965.5 374.5H1085L1280 484V538L1083.5 410.5L1077 408H961.5L957 406.5L936 381L815.5 381.5H806L795.5 368.5L793.5 365.5L792.5 363L792 359.5L792.5 357.5L794.5 355.5L793.5 353.5L794 352L795.5 350.5L797 348.5V346.5L795.5 344.5V343L797 341L798 338L801.5 336.5L814 350.5ZM188.5 352L192 355L190 381.5L188.5 383.5L132 381.5L0 464.5V421.5L126 350L188.5 352ZM531 335.5L534 341V344.5L533.5 348.5L532.5 351L531.5 352.5V354L534 356.5V363L535 364L535.5 365L534 371.5L533.5 377L532.5 380L530.5 382H509L510.5 352L511 351.5H524.5L527 334.5H529.5L531 335.5ZM393 0V135L388 184L386.5 216L384 254L386 254.5L385.5 273.5H377V226.5L376.992 226.294L308 273.5H270.5L298 259.5L334.5 238L376.5 212V0H393Z" fill="#FFEE00"/>
</svg>
