<svg width="1280" height="720" viewBox="0 0 1280 720" fill="none" xmlns="http://www.w3.org/2000/svg">
<path d="M1079 575.5L1083.5 410.5L1077 408H961.5L957 406.5L936 381H815.5V430L525 431.5L523.5 382H509L510.5 352L500.5 355H191.5L190 382L188 383.5L132 382L142.5 720H285.5L284.5 606L281 599L234 585.5L220 580.5L195 566L174.5 545.5L161.5 523C153.5 510.2 158.167 499.333 161.5 495.5L165 491L168 488.5L173.5 483.5L179.5 479.5L186.5 475L203.5 465.5L208.5 462.5L214.5 460.5L226.5 458.5H275.5L275 455.5L274 452.5V449.5L275 444.5L277.5 443L287.5 441.5L297 442.5L298 445L299.5 450.5L298.5 455L297 459H386.5L385.5 452.5V449.5L386.5 444L388.5 442.5L392 441.5L397.5 441L404.5 442L408 443L409 447L409.5 452.5L408 457L407.5 459.5L480.5 460L487.5 460.5L489.5 461.5L492.5 465L496.5 472.5L500.5 480V487L497 516.5L495.5 526.5L494.5 529.5C493.334 531.667 483.1 541.6 451.5 564C419.9 586.4 384.334 593.667 370.5 594.5L368 595.5L370 655.5L372.5 720H446.5L462 669.5H658L660 720H1034C1031.67 718 1026.6 708.9 1025 688.5C1023.4 668.1 1032 657 1036.5 654L1035 628.5L1028.5 619L1020 607.5L1019 605V602V599.5L1020 597L1021.5 594L1023.5 592L1027 589.5L1029.5 587.5L1030.5 585L1032 581.5L1033.5 579.5L1036.5 578L1046.5 577.5L1061.5 575.5H1079Z" fill="#00FF26"/>
</svg>
