<svg width="1280" height="720" viewBox="0 0 1280 720" fill="none" xmlns="http://www.w3.org/2000/svg">
<path d="M1065 119L1063.5 117.5L1061 116.5L1059 117.5L1057.5 119.5L1056 122.5L1055.5 125V129.5L1057 134.5L1059 137L1061 138L1063 137.5L1065.5 135L1063 334L1065.5 336H1067L1085 345.5V374.5H965.5L942.5 348.5L814 350.5L801.5 336L805.5 0H1066.5L1065 119ZM219 273.5H457V0H525.5L527.5 287L524.5 285.5H520L524.5 288V289.5L529.5 298L527 301.5L529.5 304.5V334.5H527L524.5 351.5H511L506 353.5L499.5 355H192L188 351.5L125.5 350L120 0H216L219 273.5ZM1144.5 48.5L1142.5 104L1141 149L1140 192L1138 248L1136 285.5V321.5L1083 300.5L1086 130L1087 129.5L1088.5 130L1089.5 132L1092 136L1094 137.5L1097 136L1100 131L1101.5 127L1101 123L1100 120.5L1098.5 118.5L1097 117L1095.5 116.5L1093.5 117L1092 118L1090.5 120L1089.5 121.5L1088 124.5H1086.5L1089 0H1147L1144.5 48.5Z" fill="black"/>
</svg>
