<svg width="1280" height="720" viewBox="0 0 1280 720" fill="none" xmlns="http://www.w3.org/2000/svg">
<path d="M573 100.5H758V0H792L787 369C781.8 367 775.833 367.167 773.5 367.5L763 366L750 369H742.5L740.5 363C740.1 361.8 737 362.5 735.5 363L730.5 359L722.5 357L718 353.5L699 350H685.5L680.5 353.5L675 355V357L669.5 361L661 364.5L665.5 348.5L754.5 346L757 139H573L571.592 247.703L567 250L563.5 253.5L561.5 256.5L559.5 258.5L557 262L554 267L552.5 270L551 274L555.5 273H558L561.5 274L564.5 276L568 279L571.232 275.443L570.5 332L559 338L542 344.5V277.5L543.5 0H573V100.5ZM554 317.5V319L552.5 321L547.5 325.5H545.5L543.5 327.5V343H544.5L545.5 341L550.5 337.5L553 337L557.5 336.5L558 336L556.5 334L555.5 332V329.5L560.5 328.5L561 326L562.5 324.5L559.5 322L557 319.5L555 317L554 317.5ZM569 320.5V322.5L570.5 323.5L570 318L569 320.5ZM560.5 319L564.5 323L567 322.5L566 321L564 319.5L561.5 318.5L560.5 319ZM545.5 295L546 297L546.5 300.5L544.5 305.5L547.5 309.5L551 311L554.5 311.5L556 313L555.5 316L557.5 317L559 318.5L561 317L562.5 314.5V313.5L551.5 299.5L547 293.5L546.5 293L545.5 295ZM546.5 291.5L547 293L550 297L553.5 301L558 306.5L564 314L565 311.5L563 308L562 303V299L560 298.5L557.5 297L553 293.5L549.5 290L546 288.5L546.5 291.5ZM563 302L563.5 306L564.5 309L565.5 311L567 306.5L566 305L565 302.5L564.5 301L563 299.5V302ZM1206.5 141.5H1141L1142.5 104H1208L1206.5 141.5Z" fill="#FFB300"/>
</svg>
