<?xml version="1.0" encoding="UTF-8"?>
<svg id="Layer_1" xmlns="http://www.w3.org/2000/svg" version="1.1" viewBox="0 0 1280 720">
  <!-- Generator: Adobe Illustrator 29.6.1, SVG Export Plug-In . SVG Version: 2.1.1 Build 9)  -->
  <defs>
    <style>
      .st0 {
        fill: #606060;
      }
    </style>
  </defs>
  <path class="st0" d="M882.86,160.05l1.04,161.03c-4.88-.46-25.61-1.22-25.61-1.22.48-.6,0-3.38,0-3.38-2.3-2.21-4.99.04-4.99.04v3.06l-23.76-.44.04.64-4.35.08-.08.48-4.15,37.41c3.02.72,30.52,3.18,30.52,3.18l1.77.44v.64l-2.74.24-.24.77.77.72c-15.62,5.56-18.2,17.15-18.2,23.23s2.66,10.47,2.66,10.47c-2.34,1.53-.77,6.04-.77,6.04l-3.62-.24.08,1.49.93,3.99-4.39-.28.08-3.3.29-5.01.88-.41.68-.74-.35-1.96-1.31,1.16-.86-.82.69-.71.91-1.43h-1.84l.23-.39.26-1.92-.97-.26-.12-.91-1.54.09,1.04-1.07.26-.92-.35-1.54-.92-.15-1.96-.02-.95-.48-1.01.42-1.13.17-.08,1.01-.85.92-1.24-.15-.03.6,1.53.71.18.39-1.12-.06-1.45-.08-.2.72.88.6.24.66-1.33.3,1.4.47.21.47-.83.06.12.6,1.81,1.21v.85l-2.48-1.81-.12,1.33-.6.97.06.97,1.57.48v7.79l-2.36-.3-.91,1.63-3.5.24-18.28.04.89,3.26-3.95.08-1.33-1.53,2.86-.32v-.72l-2.01-1.61-1.93.08v-.81l.08-.97.48-1.53-.32-2.17-.48-3.95-.56-36,.64-.81.4-.89-.64-1.02-.64-48.92.64-2.98v-2.58l-.72-1.69c.72-2.66,0-4.67,0-4.67-3.22-6.28-7.01-1.69-7.01-1.69l-3.46-.16c-3.06-2.74-6.44-.32-6.44-.32-3.3-1.29-6.36.24-6.36.24-3.38-1.45-5.64.56-5.64.56l-5.88.56c-1.61-.89-6.12.24-6.12.24-2.9-1.29-6.28.24-6.28.24-2.66-2.01-5.48-.56-5.48-.56-3.54-2.26-5.48-1.21-5.48-1.21-4.91-2.5-7.33.56-7.33.56-3.3-1.85-7.81.32-7.81.32-3.06-1.05-7.57.32-7.57.32-4.35-1.85-8.54.4-8.54.4-2.34-.81-5.07.16-5.07.16-2.9-1.77-8.38-.48-8.38-.48-2.98-1.53-8.21-.16-8.21-.16-2.74-1.13-6.77.4-6.77.4-1.69-1.69-6.85-.72-6.85-.72-4.35-1.77-9.26-.32-9.26-.32l-2.82.56-2.66-.48-4.03.24-3.38-.32-3.7.48-3.7-.64-5.23.08-3.14.08-2.34.48-1.85.08-2.9-.56-2.82.56-1.29-.89-2.74.08-4.99.24-3.62.24-2.26.24-1.53-.64h-2.01l-2.82.48-7.17-.32-2.42-.08h-2.9l-2.82.32-4.35-.08-4.35-.81-4.83.81-2.01.89-3.95-.56-3.54.72-3.06-.97-2.98.4-2.26,1.13-2.26-.64-4.91.08-2.66-.16-2.82.08-2.98-.16-4.43-.16-2.5.56-1.21-.16-2.42-.64-1.69.32-4.51-.24-3.22.16c-3.14,1.69-4.59.72-4.59.72l-1.77-.72-3.95,1.21s-4.99.56-8.13,2.26-5.32,4.99-5.32,4.99c-.81,3.38-2.34,7.17-2.34,7.17-3.54,2.9-1.09,4.91-1.09,4.91-.93.56-.19,2.26-.19,2.26.72,2.74-.81,7.09-.81,7.09-2.98.89-1.69,7.89-1.69,7.89-1.05,3.79.08,6.68.08,6.68-1.85,2.58-.16,7.49-.16,7.49-1.29,3.46.81,7.17.81,7.17l-.81,3.95,1.26,2.74-1.1,2.82-9.34,7.01-1.37.89s3.54,7.33,6.44,9.74,4.27,4.91,4.27,4.91c1.93,2.82.72,4.99.72,4.99l-6.28,16.11-36.18-.12-3.5-.24c2.17-.6,17.46-5.86,17.46-22.95s-16.93-22.26-16.93-22.26l-.16-1.49-2.66-.16-.2-.46c26.4-1.15,30.5-3.38,30.5-3.38,1.45-.48,1.09-2.11,1.09-2.11l-4.71-36.3c-3.5-1.03-26.88-.24-26.88-.24.12-1.75.18-3.5-2.9-3.5s-2.54,3.56-2.54,3.56c-2.66-.12-25.55,1.03-26.82,1.39s-.3.91-.3.91l-.97.36-3.02,37.93c3.81,2.23,31.77,1.69,31.77,1.69l-1.75.91v.72c-2.84.48-16.73,7.79-16.73,22.35s12.38,20.96,12.38,20.96l3.2,1.45,1.99.36v.66l-1.09.18-15.1-.48-.66-.3h-5.26l-1.57.12-3.54.79v.77l-20.78,8.86-1.47.06-.28,1.29.14,1.13.58.3-.16,25.01-5.15,2.78-3.42,1.61,1.21-60.83.24-.72.06-2.78h1.69v-3.62h-1.69v-2.17l-.48-.72-.81-187.17-1.61-.64-60.82-1.91v-30.2l576.26-1.94ZM425.72,364.87s-15.18,7.01-14.85,21.59c0,0-.15,7.4,2.66,12.64,0,0-8.06-21.35,12.2-34.23ZM425.29,387.75c0-16.27,1.85-21.66,1.85-21.66,0,0-12.92,6.44-12.89,23.28s11.47,19.09,11.47,19.09l1.09-.4s-1.53-4.03-1.53-20.3ZM429.39,376.15s-.64,7.65,0,12.4c0,0,.72-7.81,0-12.4ZM431.89,376.15v27.54s2.9-11.6,0-27.54ZM446.39,385.09c0-17.32-13.21-19.57-13.21-19.57.4,1.05,3.22,10.07,3.87,22.47s-2.01,19.97-2.01,19.97c0,0,11.36-5.56,11.36-22.87ZM450.82,387.27c0-14.9-12.64-20.38-12.64-20.38,0,0,10.79,4.27,10.79,19.33s-10.79,21.34-10.79,21.34c0,0,12.64-5.4,12.64-20.3ZM883.89,410.7v-48.48l-3.82.4-21.83-.97,2.17.72.08,1.21s16.99,5.32,17.88,22.59-15.54,22.67-17.07,22.91l10.55.89,5.48-.08,2.9.16,3.66.64ZM871.07,387.67c-.39,15.22-11.13,21.1-11.13,21.1,0,0,17.64-5.4,17.4-21.99s-16.43-22.39-16.43-22.39c6.04,4.59,10.55,8.05,10.16,23.28ZM860.75,365.76s8.94,14.34,4.27,33.66c0,0,9.74-18.08-4.27-33.66ZM856.96,366.85l-.64,40.83s5.32-2.9,5.88-18.44-5.23-22.39-5.23-22.39ZM849.39,383.84c-.24,12.97,4.51,21.26,4.51,21.26l.64-39.87c-1.13,1.05-4.91,5.64-5.15,18.6ZM849.38,406.07s-6.51-21.1-1.92-34.87c0,0-6.2,9.74-4.67,20.7s6.6,14.17,6.6,14.17ZM836.43,397.13c.9-.33,2.45.18,3.12,1.29.96,1.59.75,4.59.75,4.59,1.61,1.45,6.36,3.95,6.36,3.95,0,0-7.57-6.2-7.09-19.69s7.65-21.5,7.65-21.5c-21.42,12.2-10.79,31.37-10.79,31.37Z"/>
</svg>