<?xml version="1.0" encoding="UTF-8"?>
<svg id="Layer_1" xmlns="http://www.w3.org/2000/svg" version="1.1" viewBox="0 0 1280 720">
  <!-- Generator: Adobe Illustrator 29.6.1, SVG Export Plug-In . SVG Version: 2.1.1 Build 9)  -->
  <defs>
    <style>
      .st0 {
        fill: #606060;
      }
    </style>
  </defs>
  <path class="st0" d="M883.89,410.7v-48.48l4.64-1.53-1.64-38.96-3-.65-1.04-161.03L1138.8,0h141.2v720h-41.33l-310.61-206.92-2.11-1.09.79-.6.42-1.93v-2.42l-.48-4.95-1.93-6.83-.6-3.68-1.45-2.17-1.27-2.96v-1.57l-1.69-2.84.42-2.36-1.27-3.74-.36-2.66-1.45-4.65-1.03-1.45-2.78-2.11-2.3-1.15-1.15-1.09-2.23-1.75-1.93-1.15-2.11-.79-2.66-1.21-2.42-1.03-1.99-.36-2.9-1.09-3.2-1.21-2.17-.79,3.02-.71,2.6-.32,2.17-1.21,1.57-.42,1.33-.42h9.06l.04-.72v-1.75l.36-2.84.65-4.09v-1.03l-.66-.91v-1.21l-.54-1.57.54-.91v-1.15l-.28-.97-.24-9.68.24-3.14-2.17-1.57h-2.36l-19.63-8.15ZM1185.5,110.39l-203.44,75.48.78,180.21-3.8.39-5.2-3.35-8.04-4.25h-.89l-.73,1.13-1.17,6.47-8.49-.45-10.28-.06-9.05-1.06-2.96-.22-1.68.56-3.69-.39-1.79,2.07.34,2.18,1.34,2.23v3.18l1.4,7.99.89,6.48.56,8.16.84,5.98.95,5.64.5,4.41-.17,8.21,1.96,2.74-.56.73-1.9-.34-2.79-.28-2.01,1.45-2.74,1.17-2.12,1.45-1.4.78-4.86-1.51-5.92.28-.45.73.61.84.06,4.19,9.61,3.58-1.25.97-.16.6,2.82-.81-2.21,1.29.44,1.65h.64l1.45-.2-1.01.97-1.73.68,1.81.2h1.53l-1.81,1.81,2.05-.4-1.37,1.65.93,1.81.97,2.58.4,2.05-.16,2.21-.2.93,2.82,3.79,3.66,2.78,2.3,1.97,2.48-.42,4.47-2.54,2.23-.66-3.08,2.11-.06,1.81h1.69l.91,1.87,2.54-2.66-1.27,3.93-.72,2.3,3.2-.48-1.27,1.51,2.6,1.51,2.9.85,1.21,1.99,2.9-1.87.79.12-1.39,1.75-2.48,1.99.3,1.03,3.93-2.78-1.15,1.63,2.84.72,2.11-2.96-1.27,3.38,1.39.42,1.21-2.11,1.69-.97-.91,1.81-.06,1.27,3.02-.6,1.03-.54-1.45,1.81,1.33,1.93,2.42-.66-.72,1.15v2.36l1.99.54,1.93,1.39,1.81,2.42,2.6,2.17,2.54-.36-.79,1.63.18,1.87,1.45,1.69,1.09,1.51,3.81,3.26,3.56,3.56,1.81.54,2.11-1.09,1.09,1.93,4.65,1.99,4.89-2.6-3.26,3.5,1.57,1.03,3.68-4.17.91,1.57,2.9,1.69,2.96,1.15,3.26,3.02,1.21,1.75v1.63l1.27,1.63,3.14.72,1.81.48,1.33,2.78,3.02.72.48,2.66,2.23,2.05,5.26,2.72,6.16,2.36h4.41l4.17,1.51,2.66,2.05h1.75l2.84-2.9,1.81,1.21,1.27-2.72,4.35-.36-6.46,4.05,2.78.72,8.7-3.26-4.35,2.48,4.11-.66.06,2.23,1.33.97,3.2-1.09-.42,1.51-2.78,1.57-.06.91h2.23l4.59-.6-1.75,3.44,3.99,3.81,4.77,3.44,4.83,2.48,2.42,1.33,2.05,1.21,4.59-1.75-.72,3.62,1.93,1.81,3.26.36,3.87-.6,3.93,2.05,5.98.24,2.96,1.09,2.42-3.44,2.17-.36,4.41-1.09.85-3.32.54-2.84,1.75.91,1.15,3.26,1.03,2.6.18-4.77-.24-5.62.79,1.87.66,3.99.54.48.42-3.26,1.27.24-1.39-3.02-.12-1.93,1.21-3.68,1.15-3.26.54-1.63,1.63,7.61-.66-7.07,1.27-2.6,1.19-4.93,58.31,23.84h11.92v-11.6l-18.36-6.6-.64-94.39.64-74.58-.32-50.9-.48-93.1-1.29-60.4-1.13-52.35-1.32.7ZM1269.99,649.24l-23.03-11.92-1.13.97v37.61l24.16,14.26v-40.91Z"/>
</svg>