<?xml version="1.0" encoding="UTF-8"?>
<svg id="Layer_1" xmlns="http://www.w3.org/2000/svg" version="1.1" viewBox="0 0 1280 720">
  <!-- Generator: Adobe Illustrator 29.6.1, SVG Export Plug-In . SVG Version: 2.1.1 Build 9)  -->
  <defs>
    <style>
      .st0 {
        fill: #606060;
      }
    </style>
  </defs>
  <path class="st0" d="M1138.8,0l-255.95,160.05-576.26,1.94L0,19.2V0h1138.8ZM435.74,20.05s-27.7,1.19-55.57-.86-147.54,3.75-147.54,3.75v.97s8.7,4.03,12.56,8.3c0,0,1.61,2.09,5.4,2.26l47.19-2.34,40.03-1.93,32.86-1.77,49.69-3.62,15.79,2.34s-2.26,26.98,22.63,40.19c0,0-6.12,20.3-10.55,40.67,0,0-.81,1.77,2.17,1.21s11.76-.74,18.52.11c0,0,2.42.53,3.54-1.08s16.03-30.68,16.03-30.68c0,0,14.34,2.74,30.52-1.21s21.26-8.7,23.19-14.09c0,0,1.77-.4,2.17-2.5,0,0,36.16,8.21,55.57,15.54l59.11,20.94s1.69,1.21,4.11,0,9.5-6.44,13.93-7.25-3.54-4.03-3.54-4.03l-42.36-21.74-36.24-18.6-32.46-17.48s-1.53-.4,1.05-1.21c0,0,18.68-7.49,43.17-15.3s36.4-10.63,36.4-10.63h-206.25l-.32,4.19-.48,1.37-.4,3.54.08,10.95ZM739.84,23.58c-13.89.24-15.58,9.54-15.58,9.54,0,0,.48,6.52.72,8.46s4.59,5.92,16.55,5.07,16.31-7.61,16.31-7.61v-1.21l-.76-5.26v-3.39c0-3.39-3.34-5.85-17.24-5.61Z"/>
</svg>