<?xml version="1.0" encoding="UTF-8"?>
<svg id="Layer_1" xmlns="http://www.w3.org/2000/svg" version="1.1" viewBox="0 0 1280 720">
  <!-- Generator: Adobe Illustrator 29.8.1, SVG Export Plug-In . SVG Version: 2.1.1 Build 2)  -->
  <defs>
    <style>
      .st0 {
        fill: #3eddbf;
      }
    </style>
  </defs>
  <path class="st0" d="M535.19,539.81l5.64,3.13v8.46l-42.64-.63.31-5.33-.94-5.64-3.13-.31-1.25,4.08h-3.76l-.31-99.38,5.64,3.13,3.76,1.25,3.76-3.45v-5.02s-2.82-6.27-9.48-1.74l-2.4-.53-2-3.2-353.69.48-1.93,2.9.24,32.4h-40.37l-3.38-15.71-1.45-10.64-2.18-7.01-5.08-5.56-12.57-2.42,1.69-42.79,6.29-39.65,3.63-47.63,3.14-53.91-.48-66.24-.82-79.53,454,1.99,1.78,12.75-1.03,36.68-3.1,22.22-397.31-2.58-1.03,245.93-40.82,1.55,4.65,7.23,415.3,1.55,4.7,5.64.63-5.02,3.45-.94,15.99.63.94,31.04s-6.9,2.19-9.09,15.99-6.27,32.6-6.27,32.6l-4.7,5.33-2.19,2.51,3.13,2.19s-10.97,15.36,6.58,16.93l8.15,6.27ZM81.41,99.32h.02s0-.02,0-.02l-.02.02ZM777.83,82.61l-9.24.3,3.45,108.36,5.97,167.72-.18-276.38Z"/>
</svg>