<?xml version="1.0" encoding="UTF-8"?>
<svg id="Layer_1" xmlns="http://www.w3.org/2000/svg" version="1.1" viewBox="0 0 1280 720">
  <!-- Generator: Adobe Illustrator 29.8.1, SVG Export Plug-In . SVG Version: 2.1.1 Build 2)  -->
  <defs>
    <style>
      .st0 {
        fill: #248eed;
      }
    </style>
  </defs>
  <path class="st0" d="M1203.71,625.21l37.65-1.85,40.6,11.44-.17-45.11-69.08-17.82-2.74-4.11,1.37-2.74,53.26-6.62-240.55-47.08-.13,6.29c28.55,2.72,22.06,6.8,22.06,6.8-7.1,3.02-38.22-1.21-41.7-2.42s-8.16-4.53-3.93-5.14,20.55.6,20.55.6l.14-6.73-75.29-14.74-.09,12.86c16.17,1.96,20.24,4.08,20.24,4.08,2.87,4.68-21.6,2.42-21.6,2.42-21.6-2.12-21.45-4.99-19.79-6.5s19.34-.3,19.34-.3l-.37-13-47.87-9.37-.65-.11-.88,9.93h-10.73l-24.82-1.12-15.99-2.24-.78-15.48-20.53-3.43-.82,11.24-5.21-4.66.72-7.81-19.98-4.66-2.4,6.72-5.48,1.1-21.38-.55-10.97-2.47-2.19-7.95-20.01.55c6.32,5.02-26.25,8.27-26.25,8.27l-1.11,3.69-2.21,13.66-1.48,54.26,289.38,177.91,289.38,3.32.74-50.94-78.62-27.68.37-22.52h0Z"/>
</svg>