<?xml version="1.0" encoding="UTF-8"?>
<svg id="Layer_2" xmlns="http://www.w3.org/2000/svg" version="1.1" viewBox="0 0 1280 720">
  <!-- Generator: Adobe Illustrator 29.8.1, SVG Export Plug-In . SVG Version: 2.1.1 Build 2)  -->
  <defs>
    <style>
      .st0 {
        fill: #90e21b;
      }
    </style>
  </defs>
  <path class="st0" d="M970.62,225.52l.29-46.25,2.31-1.45,3.14-.32.69.6,44.23-23.51.2-2.68,4.56-2.38,1.79.5.1,78.75s-8.43-9.62-20.63-10.91c0,0-1.19-11.6-6.25-10.81-5.06.79-3.67,6.55-3.67,6.55,0,0-5.45.1-7.93,5.06,0,0-6.83-1.55-18.84,6.86ZM1001.66,209.53c-2.68-.2-2.08,4.07-2.08,4.07l4.36,2.88s.4-6.74-2.28-6.94ZM970.62,263.67v245.99l32.19.16,4.93-10.3,1.57-12.76,3.47-6.83,4.37-6.72,2.91-5.48,1.46-11.42,1.46-6.27,4.7-7.61v-180.1s-19.95,6.04-57.04,1.34Z"/>
</svg>