<?xml version="1.0" encoding="UTF-8"?>
<svg id="Layer_1" xmlns="http://www.w3.org/2000/svg" version="1.1" viewBox="0 0 1280 720">
  <!-- Generator: Adobe Illustrator 29.8.1, SVG Export Plug-In . SVG Version: 2.1.1 Build 2)  -->
  <defs>
    <style>
      .st0 {
        fill: #1a8ee5;
      }
    </style>
  </defs>
  <path class="st0" d="M973.27,127.78l-.05,49.99-2.31,1.45-.29,46.25c-6.93,4.63-14.44,15.03-17.05,25.15s17.05,13.01,17.05,13.01v245.99l-115.91.94c-5.52.18-7.36,5.33-7.36,5.33l-1.29,55.18-2.58,3.68-79.64-.55-1.47-4.78,29.8-.18c4.04-1.84,1.1-5.7,1.1-5.7v-230.28c3.13-1.65-.55-5.33-.55-5.33l-16.55-.18-.18-115.88-97.85-.18-.18,59.23-45.62.18v57.76l-3.68-.55-.18-58.12-.74-2.21-2.58-.55-2.39-1.1-47.45.18-8.09.37-1.66,2.21v59.41h-6.25c-3.13,2.39-.37,4.6-.37,4.6l-.26,230.13c-2.23,3.02.56,5.48.56,5.48l29.95.45-1.45,4.81-107.28-.6v-19.7c5.91-5.25,6.24-28.23,5.91-52.86-.33-24.63,2.95-39.4,2.95-39.4l5.25-28.56s5.92-45.64,6.24-54.5c.32-8.86-8.54-11.49-8.54-11.49l-11.82-.66.33-167.12-177.62-.33.66-70.92v-.05h669.44ZM598.65,568.92l-1.4,4.36,156.13.35-2.09-4.89-152.64.18Z"/>
</svg>