<?xml version="1.0" encoding="UTF-8"?>
<svg id="Layer_1" xmlns="http://www.w3.org/2000/svg" version="1.1" viewBox="0 0 1280 720">
  <!-- Generator: Adobe Illustrator 29.8.1, SVG Export Plug-In . SVG Version: 2.1.1 Build 2)  -->
  <defs>
    <style>
      .st0 {
        fill: #f456b0;
      }
    </style>
  </defs>
  <path class="st0" d="M1287.53,724.65l-77.93-1.15-16.43-9.55,1.15-11.84h61.5l-.38-124.54-20.25-7.64-.38-105.05,20.63-.76v-123.01l-6.88-.38,13.75-94.74-1.15-114.22-10.31-.38-12.14,62.78-5.74.17c2.81-4.29-1.48-6.8-1.48-6.8l-44.64.3-6.65-1.33-13.45-6.36,4.14-1.92,12.42.74,9.31,2.96-2.36-2.96-7.54-4.43-13.01-.3-6.36,3.1-3.84.44,1.18-1.48,6.21-3.99,12.42-1.03-5.17-2.07-10.49,1.33,6.5-2.81,12.12-1.03.44-1.63h-20.1l.74-1.92,10.05-1.03-6.65-.89,5.03-6.06h-8.13l3.25-6.65.89-2.66-3.25,1.63-5.32,4.88-2.66-6.06-3.1-.3-5.91,4.43.15-2.36-5.03,3.25-2.96-6.65-4.14,4.73-.74-2.22-2.96,2.81-2.96-2.96-9.76,6.65-3.84,5.03-4.14-5.17-4.43-3.84,3.84,6.5-9.02-2.96,7.24,3.84,3.84,4.29.74,2.96-5.62-3.1-6.06-.74,12.71,7.69,3.25,4.14-13.15-8.13,5.62,5.62-3.84-1.33-9.76-8.57-1.33.44,7.24,9.16-9.76.74,9.61,2.51,1.77,2.96-13.01-4.88,8.43,5.17-13.6-5.76-2.51.59,3.84,2.22,8.43,4.29-4.88.15-2.51,2.36,6.5-1.03,13.15.89-9.31,1.77.3,2.07-8.13-.15-8.72,5.17-1.92,2.81,5.91-1.77,10.49-2.36,6.65.74-21.14,10.64-3.7,4.58,9.9-5.91v2.51l16.26-7.54-.3,1.92-12.86,7.69-2.07,4.29,13.3-6.8.44,2.22,8.87-4.43,2.81,4.58-7.09,2.51,1.77,28.97-29.27,8.28-.44,106.72,15.37.3-.15,56.61-9.02.44c-7.69-3.55-17-2.22-17-2.22l-3.4-1.03-11.23-.74c-8.57,1.48-16.26,14.93-16.26,14.93l-3.55,10.94-3.55,10.79-3.21,4.18v-180.1c14.08-4.17,13.26-9.28,13.26-9.28-2.21-14.63-12.98-24.28-12.98-24.28l-.1-78.75-1.79-.5-4.56,2.38-.2,2.68-44.23,23.51-.69-.6-3.14.32.05-49.99L1160.75-2.84l.05-.04,122.15-.97,4.58,728.5Z"/>
</svg>