<svg width="1280" height="720" viewBox="0 0 1280 720" fill="none" xmlns="http://www.w3.org/2000/svg">
<path d="M206.5 648.5L275.5 717.5L280 720H253.5L245.5 711V709L243.5 708L242 707.5L236 700.5V691.5L234 688.5L232 690L230.5 689.5L228.5 692L227.5 691.5L209 671.5L201.5 651.5L205 648L206.5 648.5ZM418 709.5L416.5 710.5L419 711.5L417.5 712.5L417 714L415 713.5L414.5 714.5L417 715L416 717.5L414 720H411.5L408 719L405 719.5L404 718.5H403L401 717L401.5 719.5L399.5 719L399 717L398 717.5V719.5L396.5 718.5L395 720H374L418 707.5V709.5ZM443 622.5L471.5 635.5V665.5L356 696L308.5 660.5V631.5L325.5 627.5L326 628.5L328.5 627.5L331.5 627L332 628.5L334 626.5V628.5L336 626.5L337.5 627L335.5 630L334.5 629H332.5L330.5 633L328.5 631.5L327 633H324L325.5 634.5L328.5 636.5L329 637.5H327L326 638.5L323 639.5H325L325.5 641H327.5L327 642L325.5 643V645L323 644L323.5 646.5L322 645.5L320 644V645L322.5 647.5L321 650L322.5 649L323 650.5L324 652L325 651.5L326.5 653H329L328 656L329 656.5L331 654.5V656L332 657.5L333.5 656V658L335 658.5H336.5V656L338 655L338.5 657.5L339 659.5L340.5 658L342 657.5L343.5 656L342.5 654.5L344.5 653.5V652H340.5L339.5 651L342.5 650.5L342 649L344.5 650L345 651.5L349 652L350 651.5L351.5 652L362 658.5L362.5 658L457 636L446.5 630.5V628L447 627L445.5 628L443.5 627L444 625H442L437.5 624L437 623L439 620.5L443 622.5ZM833 593L832 595L832.5 595.5L831.5 597L829.5 598L830 600.5L828.5 599L827 598.5V602L829 603.5H830L830.5 607L828.5 608L826.5 607L827.5 604L824 605L824.5 602L824 600L820.5 598.5L817 599V602.5H814L812 601.5L811 602L808 606L805.5 605L804 606L803 607L802 608.5L800.5 607L798 606.5L795.5 605L793.5 607.5L791 607L793 606L792 604L788.5 604.5L787.5 606L786.5 603.5L785 605L783 603.5L781.5 604L782 606L778.5 605.5L776.5 606.5L776 609L774.5 608.5H772L773.5 610.5L770.5 607.5L769.5 608L768.5 610.5L766.5 611L764.5 609.5L763 610.5L762 612.5L763 613.5L761 614H759L757.5 614.5L755.5 615L752.5 616L751.5 617L750.5 617.5L749.5 618.5L749 619.5L748.5 621.5L747.5 619.5L747 621.5L744.5 620L742.5 622L739.5 620L739 618.5L738.5 620.5L738 623L735.5 626L733.5 624.5V623.5L732 623V619.5L730.5 624.5L728.5 622.5L726.5 621L726 624V625.5L723.5 625L722.5 622.5L720.5 624L719 624.5L717.5 627.5L716 626L714 625.5L714.5 627L713.5 628L714.5 629.5V633H713.5L713 630L712.5 629L710.5 630.5L709 631.5L708.5 633L710.5 634L708 637.5V635L706 634.5L707 633L705 632H702.5L701.5 633.5L699 632L699.5 635L701 637L699.5 637.5L699 639.5H696.5L698.5 636L696 635V633.5H695L694.5 637L691 640.5L689 638L686.5 640L685 639L683 643.5L682.5 639.5L682 638.5L678.5 638L679.5 641.5L677.5 639.5H676.5V638L674 637H672L672.5 638.5L671 639.5L669.5 639L668.5 640L669 642L667.5 641.5V640L664.5 639L664 640V642L663.5 644.5L661.5 643L659.5 643.5V645L656 644.5L655 645.5L653 648L652 646.5L651.5 648L648 647L645.5 649L645 647.5L643.5 647L643 646L640.5 646.5L639 648.5L637.5 648V649L634 650L632.5 650.5L631 650L627 654L626.5 655L628.5 656L627.5 658.5L625 659.5V658.5L626 656L622 655L620.5 657L618.5 658L619 655L616.5 654.5H615L613 656.5L610.5 657L609.5 658L606.5 659L607.5 656.5L605.5 656L604.5 659L601 662V660L599 663.5L599.5 664.5L597.5 665V663L596 664L594.5 666L592.5 664.5V662.5L590.5 663L586.5 666L587.5 668.5L584 666L585 664.5L584 663L582 666L580.5 667.5L581 669.5H578.5L577.5 668.5V672.5H576.5V670H575.5L574 672.5L571.5 670.5L570.5 669.5L569 670L568 671.5L566.5 670.5L565.5 672L563.5 674H561V675L557 673.5V675L554.5 676.5L555.5 678.5L553.5 677L552 678.5H550.5L550 680.5L552 682.5L549 683.5H547L545.5 682L544 682.5V681L541.5 680L539.5 682.5V681L536.5 682L537 680L535 679.5L533.5 680L533 682.5L531.5 680L529 682.5L528.5 684.5L527 683H526L524.5 685.5L523 687.5L520 687L518 688.5L515.5 687.5L514 690L512.5 688L510 690.5L509 688.5L507.5 692L506 694L504.5 692.5L506.5 691L504 689.5L501 691.5V689L498.5 690.5L497 688L495.5 690L495 688.5L492 688L493.5 685.5L833 587V593ZM819.5 573L532 649.5L478.5 625L480.5 623L497.5 619L498 619.5V621.5H497L495 620.5L494.5 622L492 623H489.5L485 624L515 637L519 638.5L524.5 641.5V644L532.5 647.5L544 643L812 572.5L819.5 573ZM272.5 600L331.5 590L345 587.5H352.5L355.5 588L360.5 591L361.5 593.5L367.5 595.5L364.5 599L366 600L363 604.5L361.5 606.5H347.5L339 607.5L346 608L354 611L349.5 613L343 614L266.5 629L260 624L258 620.5L254.5 613.5L253 610L250 601L249.5 599L248.5 596.5L248 594.5L247 592.5L246.5 591L247 589H251L248.5 586.5V584.5L272.5 600ZM336 572L353 580L348 579V581.5H346.5L345.5 580L342.5 580.5L341.5 581.5L340 580.5L339.5 578L338.5 580L337.5 578.5L335.5 579L334.5 578L333 577.5L331 576L332.5 574L331 574.5L329 573H327.5L326.5 571.5L328 571H330L331 570L333 570.5L334 570L336 572ZM998.5 539.5L999.5 541.5L991.5 544L988 543L986.5 544L985.5 546L982.5 547.5L973 550L970.5 551L969.5 552.5L967 551L965.5 553L964.5 551.5L964 553L962 552H960L958.5 554L955.5 556L954.5 554L953 556.5L949.5 557L947.5 558.5L946.5 559.5L945.5 558L942.5 560.5L940 559.5L939.5 561.5L938 559.5L935.5 559L933 560.5L932.5 562L930.5 561L929.5 560L929 562L927 566L925 562L926 560H929L930.5 558.5H933.5L994.5 540.5L965.5 536V534.5L998.5 539.5ZM942 541L911.5 549L907 548.5L934.5 541L903.5 536V534.5L942 541Z" fill="#FF00BB"/>
</svg>
