<svg width="1280" height="720" viewBox="0 0 1280 720" fill="none" xmlns="http://www.w3.org/2000/svg">
<path d="M774.5 614L777.5 615L780 616L783 617.5L792 623L794 624.5L796.5 626L797.5 627L798 628.5V639H797.5L782.5 644L781.5 644.5L781 645.5V652L773 655L778.5 655.5L780 656L781 657V660.5L785.5 661.5L792 662.5L797.5 664L805 665.5L812 666.5L817.5 667.5H826.5L828 670L827.5 679.5L829.5 680.5L830 684L829.5 686.5H831L831.5 688L833 720H831L829.5 689H829L817 697.5L816 698.5L815.5 699.5L813.5 720H811.5L812.5 700L810.5 698H800L796.5 697.5L793.5 697L790.5 696L787.5 695.5L785.5 694.5L783 694L779 692L777 690.5L776 689L775.5 688H774.5L773.5 689L773 690.5L769 719.5H768L767 719L771.5 687.5L772 686.5L773 685L774 684.5V681L772.5 679.5L772 678V671.5L771 666.5L766.5 657L760 655.5L757.5 655L756.5 655.5L756 656.5L750 685L749 685.5L748 685L753.5 659L755 654L755.5 653.5L759.5 653L757 652.5L756 651.5L755.5 649.5V648L756 646.5L757.5 645.5H756L755 645L754 643.5V636.5L753.5 635L752 629L751.5 627.5L750 626L749 624L748.5 622.5V621.5L749 619.5L749.5 618.5L750.5 617.5L751.5 617L752.5 616L755.5 615L757.5 614.5L759 614H761L763 613.5H771.5L774.5 614ZM886.5 618L889 618.5L893 619L896 620L898 620.5L901 621.5L902 622.5L903.5 623.5L905 624L906 625L906.5 626L907.5 627V631L907 632.5L906.5 633.5L903.5 636.5L902.5 640.5V650.5L898 653L915.5 652H921L924.5 652.5L926 653L928 655V657L926.5 659L925.5 660L924.5 661.5L921.5 667.5L921 670L920.5 673L920 676.5V679.5L919 681.5L918 683V688L917.5 690L916.5 691L917.5 692.5L918 694.5L918.5 697L919.5 701L921 705L922 708.5L922.5 712L924 717.5L925 720H923L922 717L921.5 713.5L920 708.5L916 692.5L915.5 692L914 693.5L911 695.5L909 696L904 696.5L895.5 695.5L897.5 697L898.5 696.5L899 697L898 698L903.5 720H901.5L898.5 706.5L897 699.5L896.5 698.5L895.5 697.5L894 696.5L891 696L890 695.5L887 694.5L883 693L879.5 692L873.5 690L868.5 689.5L865.5 689L864.5 720H862.5L863.5 690L865 687L863.5 685L863 684L862.5 682.5V680L868.478 675.841L866.5 661.5L868 661L869.972 674.802L874 672V669L873.5 668L874 667L894 666.5V663.5L889.5 665L889 655V650L888 648.5L886 646.5L885 646L852.5 637.5V631L853.5 629L859 623.5L865 619.5L867 619L869.5 618L872.5 617.5L873.5 617H883.5L886.5 618ZM884 664H883L880.5 663.5L870 660L874 658.5L877 657.5L882 655.5L883.5 654.5L884 664ZM769.5 637.5V642L774 641L780 640.5L785.5 641L787.5 642L795 639.5L789 638L785 637.5L780 637L769.5 637.5ZM762 615.5L761 618L759 616L755.5 617L753 618.5L751.5 619.5L750.5 621L751 623L752.5 621H754L756.5 622L758 622.5L761 623L763 624H764L766.5 623.5L769 621.5L771.5 621V619.5L774 619V621.5L776 622L778 624.5L779.5 625L779 620.5L779.5 619.5L782 620.5L783.5 622L784.5 625L787 625.5L789 627.5L790 623.5L785.5 621L781.5 619L779 618L776 616.5L772.5 615.5L768 615H765.5L762 615.5Z" fill="#00E1FF"/>
</svg>
