<svg width="1280" height="720" viewBox="0 0 1280 720" fill="none" xmlns="http://www.w3.org/2000/svg">
<path d="M888.5 332L890 333L891 340.5L890 341.5H885V335L885.5 333L886.5 332H888.5ZM880 340.5H872.5L873.5 339V332L875.5 331H879L880 340.5ZM869.5 337V340H863L862.5 338V332L864 330H868.5L869.5 337ZM840 337.5H833.5V334L835 327.5H839.5L840 337.5ZM827.5 327L829 336.5H821.5L822 330.5L822.5 328L823 326.5L823.5 326H826L827.5 327ZM896.5 326L898 330.5V335H892V329L893 326L894 325.5H895L896.5 326ZM783 323L783.5 327L784 332.5H776V329L776.5 326.5L777 323.5L777.5 322.5L778.5 322H781.5L783 323ZM858 323.5L859 331.5H852V328L852.5 324.5L853.5 322.5L854 322H857L858 323.5ZM759.5 321L760 323.5L761 330.5H752.5L753 327.5L753.5 324L754 321L754.5 320H758L759.5 321ZM727 317.5L728 328.5H720.5L721 318L722.5 317H724L727 317.5ZM710.5 316L712 327L703.5 327.5L704.5 316L706 315.5H708.5L710.5 316ZM810.5 317.5L811.5 321.5V327.5H804.5V322L805 319L805.5 317.5L806.5 316.5H809.5L810.5 317.5ZM693 314L695 326H687.5V321.5L688 314.5L690 313.5L693 314ZM795 316L795.5 317.5L796 320L796.5 326H789L789.5 320L790 317.5L790.5 316L791 315.5H794L795 316ZM743 315L743.5 320.5H736L736.5 315L737 312V310H742L743 315Z" fill="#0501FF"/>
</svg>
