<svg width="1280" height="720" viewBox="0 0 1280 720" fill="none" xmlns="http://www.w3.org/2000/svg">
<path d="M957 427L689.5 445L649.5 441.5V420L689.5 421.5L957 411.5V427ZM957 183.5V226.5L903.5 236V228L935 223L539.5 109.5V253.5L690 274.5L689 273.5V232.5L690 231.5L716.5 236.5V278L750.5 282.5L790 288V253.5H790.5V251.5L792 251L812 255V291L869 299V268L870.5 266.5L887 269.5V302L957 311.5V326.5L912.5 330H903.5V326L920.5 324.5L534.5 281L393 307.5H386L381.5 308V310.5L368.5 312.5L360.5 311.5V133.5L532 27H533.5L957 183.5ZM409.5 165L409 245L417.5 246L465 231V144L456.5 142L409.5 165ZM385.5 171.5V192L405.5 182.5V161.5L385.5 171.5Z" fill="black"/>
</svg>
