<svg width="1280" height="720" viewBox="0 0 1280 720" fill="none" xmlns="http://www.w3.org/2000/svg">
<path d="M672.5 610L713 599L712.5 594L708.5 592V594H706V591.5H705V588L697 585.5V582L689 579V575.5L681 573V569.5L678.5 568H676.5V569.5H675L672.5 568V563L664 561V556L655.5 554.5V549.5L646.5 547.5V543L645.5 542H643.5L642.5 542.5H641V541.5L637 540.5V536L628 534V529L618.5 526.5V521.5L608.5 519.5V514.5L606 513.5H604L598.5 511.5V506L588.5 504.5V499L586.5 498H584V497.5L549.5 492.5V483.5H547L534.5 465V486H534V504.5H532.5V486L531.5 485.161V464.5L529 464V456L502.5 452.5V457L503 457.5L502.5 480.5L502 481.5V498H500V481L499.5 479.877V457.5L500 457V452.5H499L476.5 421V440.5L476 441V458H473.268V442L473 441V420.5H452V422H449.5V420H438L424.5 419V420.5H422V418H400V419H397.5V418L388.5 418.5H387H385V438.5L386 529L389 538.5L395.5 544V439.703L433 444L456 447L495 506L525 513L524.5 644L532.5 647.5L544 643L543.5 513L554 511.5L632.5 569V592L635 594L636 596H637L638 592L638.5 590.5L640 590V586.5L644 584V590L645.5 589L644 592.5V595.5V598.5L647 596V594L651 592L656 592.5L653 595L650.5 597.5L648 600.5L647 603L652 600.5L657 601L659 602.5H652L649.5 604L648.5 605L650.5 606L653.5 603.5L654 605.5L651.5 607.5L653.5 609L651.5 609.5L652 610.5L649 611L652 612.5V611.5H653L654.5 613H655.5L656.5 612L655 611L652 609.5H654.5L657.5 610.5L655.5 608.5L653 607.5L655.5 607L658 606L658.5 607L660 606.5V605.5L660.5 607L661.5 608L663 608.5L664 608L665.5 609L667 608L667.5 610H672.5Z" fill="#6FFF00"/>
</svg>
