<svg width="1280" height="720" viewBox="0 0 1280 720" fill="none" xmlns="http://www.w3.org/2000/svg">
<path d="M829.5 631L833 632V646.5H835V633.5L835.5 633L885 646L886 646.5L888 648.5L889 650L889.5 666.5H884L883.5 654.5L883 655L882 655.5L877 657.5L874 658.5L852.5 668L850.5 669L849.5 670L849 671L848.5 720H842L841 671.5L840.5 670L839.5 669L838 668L836.5 667.5L787 652.5L785.5 653V661.5L783.5 661L781 660.5V645.5L781.5 644.5L782.5 644L796 639.5L817 632L821.5 630.5H827.5L829.5 631ZM890 695.5V708.5L887 709.5V694.5L890 695.5ZM783 694L782.5 702.5L781 704.5L779.5 703.5L779 692L783 694Z" fill="#FFD000"/>
</svg>
