<svg width="1280" height="720" viewBox="0 0 1280 720" fill="none" xmlns="http://www.w3.org/2000/svg">
<path d="M927.5 557L928 553.5L924 552.5L919.5 551L915.5 550L911.5 549L907 548.5L903.5 547L893.5 544L888 542L881.5 540.5L874 537.5L865.5 535L860 533.5L847 531L837.5 528L837 526.5L836 525.5H832L831 526V527L825.5 527.5L821 528L815 529.5L806.5 531.5L800.5 532L790.5 533.5L778 535.5L772 537L760 538.5L745.5 548.5L744 549.5L742.5 550H740.5L738 551.5L739 552.5L741 553.5L743 554.5L745 555.5L745.5 556L750 558L752.5 559.5L753.5 560L754.5 560.5L755.5 561L759 562.5L764 564.5L766.5 565.5L768.5 566L770 566.5L770.5 567H772L774.5 568L778.5 568.5L785.5 569L793 570L803 571.5L812 572.5L819.5 573L822 573.5L834.5 574.5L843.5 575L852.5 575.5H863L865 574.5H879H884L889 573.5L893 574L896.5 573L904 572L909.5 570.5L915 570L920 569.5L922 567L924 564.5L925 562L926 560L927.5 557Z" fill="#03FFAF"/>
</svg>
