<svg width="1280" height="720" viewBox="0 0 1280 720" fill="none" xmlns="http://www.w3.org/2000/svg">
<path d="M632.5 569V592L630 589.5L627 587.5L626 588L628.5 591.5L625 590L628.5 593L630.5 596L628.5 597.5L626.5 595.5L625 599.5L624.5 595L622.5 592.5L623 596L621 595.5L619.5 597L614 596.5L619.5 595L614 594.5L615.5 593L613.5 592.5L609 594L611.5 591.5L616.5 592L613 590.5L617 589L612.5 588.5L613.5 587.5H609.5L608.5 586.5V585.5H612L613.5 584H620L613.5 582.5L612 583L610.5 582.5L611 580.5H613.5L614.5 582L617 580.5L616.5 579.5L622.5 579L620 577H617L613.5 576.5L612.5 575.5L613.5 574.5L611 575L610.5 576L608 574.5L609.5 574H616.5L620 575.5L623.5 578L622 575.5L619 574L613 573L613.5 572L619.5 570H621L619 569L615.5 570L612.5 571.5L610.5 573L606.5 573.5L607.5 572L612.5 569.5L607.5 570.5L607 569.5L604 569V568L608.5 567.5L612.5 568.5L614 567L612.5 566.5L606.5 566L603 567L602.5 565.5L601 565L598.5 562.5V564L600 568.5L598.5 567.5L596 567L595.5 564.5V562L593.5 560L592.5 560.5L594.5 562V564.5L593 563L589.5 561.5L587 561L585.5 562L588 562.5L589.5 564L585.5 563.5H582V564.5H585.5L587.5 565L585 567L589.5 566.5L593 567.5V566L597.5 568.5L600.5 570.5L601 573L599 573.5L597.5 572.5L594 569.5L593.5 572L592 571L589 574.5L592 573.812L593 576L594.5 575.5L595 577L597.5 578V580.5L596 583L594.5 580L593.5 580.5L590 578.5L588 578L586.5 576L585 576.5L584.5 579L585.5 580.5H586.5L587.5 581.5V583H586.5L585 581.5L583.5 579H581.5L583 580.5L581.5 581.5L580 579.5V581.5L581.5 583L583.5 582.5L586 584L585 585L586.5 586.5L587.5 588.5L590 589.5V592.5L588.5 592L585 591.5L583.5 590L582 589.312L583 588H586L585 586L584.5 584.5L583 584H581.5L579 582.5L575 579.5L572.5 578.5L576 581.5L576.5 582.5H574L572.5 581.5L573.5 583.5L573 585.5L571.5 582L570.5 584.5L569.5 586L567.5 582.5V586.5L567 590L565 587.5L562 583.5V585.5L564 589.5L561 587.5L559.143 585.643L559 585L561.5 587V581.5L563.5 580.5L566.5 579.5L568.5 579L569.5 577.5L577.5 573L566 577.5L566.5 577L569.5 573.5L575.5 568.25L568.5 573L574.5 567L567 572.5L573.5 565L573 564L567 570L568.5 567L574.5 560L567 566.5L568 564L566 565V567L564.5 570H563.5V568.25L564 566L566.5 560L563.5 564.5L563 563L565.5 556.5L562.5 561.5L562 560.5L562.5 553.5L560.5 554.5L559 564H558L557 557L555.5 552.5V563L552.5 556.5L555.5 569L551 559.5L552 564L547 560L554.5 572.5L547 566.5L551.5 573L545.5 569L547 571.5L555.5 577L549 576L557.5 579V581.5L558 583.5L559 591.5L560 591V589.5L559.5 587.25L560.5 589.5L560 591.5L557.5 592.5L559.5 594.5V613.5H558.5L556 612L554.5 610.5L552.5 612L551 609.5L549.5 609L549 610.5L547 611L546 613H544.688L547 615L544 615.5L543.5 513L554 511.5L632.5 569ZM525 513V609L521 610L522 611.5L521.5 613H519.5V610L521 609L518.5 608.5V607.5L520.5 607L524.5 604V600L521.5 601.5L520.5 601L519.5 601.5L518 601L517 603.5L515.5 602L514.5 601.5L513 603L512 604.5V606.5L510 605L507.5 604.5V605.5L504 604V508L525 513ZM563 597.5L565.5 600L566 601.5L567 604V605.5L568 608L565.5 610.5L562.5 611L561 612.5V596L563 597.5ZM581 596L583.5 597.5L582.5 599L581 600.5L578.5 601L579 604L577.5 606L576.5 605.5L575 606.5L571.5 608L570.5 604.5L571 601L574 599.5L577 598.5L579.5 599L581.5 598L578 597L575 597.5L576 596L578 595.5L581 596ZM750 558L752.5 559.5L755.5 561L759 562.5L766.5 565.5L768.5 566L770 566.5L770.5 567H772V583L751 589L745.5 590.5V556L750 558ZM456 447L475 475.5L438 469.5V489L465.5 494.5V587L463 583.5L461.5 586L448.5 580.5L446.5 578L445 579.5L433 574.5V444L456 447ZM604 583L605 583.5L605.5 581.5L608 582.5L606.5 584H604.5L603 585L602 584L601 583.5L601.5 582.5L603 581L604 583ZM608 578L607 579L603 580V579L605.5 577.5L605 575.5L608 578ZM675 528.5V532.5H674V553.5H675L674.5 568L672.5 567.5V563L664 561V556L655.5 554.5V549.5L646.5 547.5V543L645.5 542H643.5L642.5 542.5V528.5L643.5 525.5V505L642.5 504L643 501.5L675 528.5ZM903.5 323.5V382H893V360.5L892 353.5L891.5 350.5L890.5 347L890 344.5L889 341.5H884.5V343L883 344.5L884 349L882.5 347L880.5 345L881.5 344L879.5 343.5L880 340.5L879.5 336L883 339.5L883.71 340.447L884 339V333L880.5 329.5L876.5 326.5L874.5 325.5L871.5 324.5H869L866.5 325L864.5 325.5L867 325L869.5 326L871 326.5H872L873.5 327.5L875 329L875.5 330V331L873.5 332V338H869.5L868.5 330.5H864.5L863 332.5L862.5 338H853.2L853 338.5L850 344.5L849.5 347L848.5 351.5L847.5 357.5V381.5L830.5 381V360L830 355.5L829.5 351.5L827.5 345.5L826.5 343.5L823.574 336.585L821.5 337V331.682L821 330.5L819.5 328.5L813.5 322.5L811.5 321L805 318L802.5 317.5L799.5 317L797 318L789.5 321.5L788 322.5L784.5 326L784 326.25V331L812.5 329L814 329.5L815 330L816.5 332L817.5 334.5L817 337.5L808.5 338.5H802L798.5 339L795.5 340.5L793 342L786.5 352.5L785 355L783.5 358.5L783 361L782 364.5V380H751V359.5L750.5 353.5L749.5 349L748.5 345L747.5 342L746.5 338.5L742 329.5L739 324.5L735.5 320.5L730.5 315.5L726 312.5L722 310.5L719.5 309.5L713.5 308.5L709 309L706.5 309.5L704.5 310L698.5 313L697 314L695 315.5L694 316.5L688 320.5V319L687.5 317.5L687 314.5L685.5 313.5L681.5 309.5L679 309L677.5 309.5L677 308H676L676.5 309.5L676 311L675 313L674 315.5L675 319L675.5 320V326.5L674 326L673 325H671.5V326L673.5 328L672.5 329.5L670.5 326.5L669 323.5L668.5 321.5L666.5 319.5H664.5V318.5L659 314.5L658 314H657L656 313H654V311.5L654.5 311L653.5 310H651.5L649.5 308.5H648.5V307.5H647.5V308.5L649.5 311L651 313L653 314L655.5 316L656.5 317.5L657 319.5L660 322.5L662 324L662.5 325.5L664.5 328.5L666 328L667 330L669 336L670.5 339.5L671.5 342.5V336H675L676 337L675.5 339L676 342V346L674 345L672 344.5L671.5 343.5L669.5 341.5L667.5 341L664.5 340.5L666 342.5L667.5 345V347.5L669 348L668.5 354L669 354.5L669.5 357L671.5 359.5L673 360H674L674.5 362.5L675.5 370.5L676 375.5V379.5L652.5 380V382.5L653 383L653.5 420.5L649.5 420V441.5L689.5 445L903.5 430.5V547L893.5 544L888 542V536.5L887.5 535.5H886L886.5 471L884.5 467L883.5 464.5L882.5 462.5L881.5 460L880.5 458.5L875.5 453.5L874 452.5L873 451.5H871.5L870.5 450.5L867.5 451.5L866.5 452L865 453L863.5 453.5L859.5 457.5L858.5 459L857 460.5L856 462L855 464L854 466.5L853 468.5L852 471.5L851 473.5L850.5 475.5L849.5 478.5L849 481.5L848 490.5L847.5 494.5V531.229L837.5 528L837 526.5L836 525.5H832L831 526V527L825.5 527.5V494L824.5 488L823.5 483L822.5 480L821.5 477.5L820.5 474.5L817.5 468.5L816.5 467L813.5 464L812.5 462.5L810.5 461L809.5 460L808 459L806 458L804.5 457.5L802.5 456.5L800 457.5L794 459.5L792 461.5L789 463.5L788 465L784 469L783 470.5L781 474.5L779.5 476.5L778.5 479L777.5 481L776.5 483.5L774.5 489.5L774 492.5L773 495.5L772 499.5V537L760 538.5L745.5 548.5V504L745 500.5L744 498L743 495L742 491L740 486L739.5 484L738 482L737.5 481L736 479L735 477.5L733.5 475.5L732.5 474L731 473L728 470L725.5 468.5L723.5 467.5L721 466L718.5 465.5H716.5V547H713L706.5 540.5V467.5L705 468L702.5 469.5L699.5 471.5L698 473L696.5 474L693 477.5L692 479L690.5 481L689 482.5L688 484L686 488L684.5 490L683.5 492L682.5 495L681 498L680 500.5L678 507.5L677.5 511L676.5 515L676 518.5V525.5L586.5 450.5L533 454L503 450.5L452 379L386.5 380V382L387 384.5V418.5H386V529.5L385 520L384 526V389.5H381.5V308L386 307.5H393L415 303.5L433.5 305.5L550 285L903.5 323.5ZM641 500.5V504L640 505V526L641 527V541.5L637 540.5V536L628 534V529L618.5 526.5V521.5L608.5 519.5V514.5L606 513.5V497L606.5 496.5V474L606 473.5V470.5L641 500.5ZM604 468.5V473.5L603.5 474V496.5L604 497.5V513.5L598.5 511.5V506L588.5 504.5V499L586.5 498V481L587 457.5H586V454L604 468.5ZM584.5 457L583.5 458V480.5L584 481V497.5L549.5 492.5V483.5H547L534.5 465V461.5H534V456L584.5 452.5V457ZM633.5 430V486L649 484V429L633.5 430ZM532.5 456.5V460.5L531.5 461.5V464.5L529 464V456L532.5 456.5ZM473.5 416V417.5L473 420.5H452V407L452.5 405V386.5L473.5 416ZM449.5 381.5V385.5H448.5V406.5L449.366 407V420H438L424.5 419V405.5H425.5V385.5H424.5V381.5L448 381L449.5 381.5ZM677 384.5L677.5 386.5V388.5L679.5 400.5L677.5 401L676 402L674 404L673.5 406L673 411V416.5L674 418V419.5L654.5 420V406L655 405.5V385.5L654.5 385V382L655.5 381.5H676.5L677 384.5ZM397.5 418L388.5 418.5V404L389 403.5L389.5 386.5L388.5 386V382H397.5V418ZM423 385.5H422V418H400V405L400.5 404.5V386L400 385.5V382L423 381.5V385.5ZM772 416L751 416.5V382H772V416ZM710 410H712V413L706 413.5V409.5L707.5 403.5H710V410ZM716.5 413.5L713 413V410H716.5V413.5ZM846 386H845.5V402.639L846 403.5V412.5L830.5 413.5V382.5H846V386ZM825.5 412.5H822.5L822 383H825.5V412.5ZM904 386H903.5V402H904V410.5L893.5 411.5L893 383.5H904V386ZM876 383.5V386H875L875.5 410.5L848 410V386.128L847.5 383L876 383.5ZM917.5 384V410L905.5 410.5V402.5L906 402V386.5H905.5V383.5L917.5 384ZM887 410H878V403L879 402L878.5 386.5L878 386V383.5H887V410ZM579.5 387H647.5V347.5L579.5 344.5V387ZM716.5 384.5H705.5L705 385L704 383L702.5 381.5H714.5L716.5 384.5ZM468.5 356V380.5L518.5 380V353L468.5 356ZM824 351L825 355L825.5 357.5V380.5H822V349L824 351ZM740 336L740.5 337.5L729 336L727.5 337L726 339L723.5 341L721.5 343.5L719 346.5V343.5L719.5 342.5L717.5 341L717 340L714.5 342.5L712 343.5V351L716.5 351.5V380L702 379.5V369H702.5L703 366H704.5V363.5L704 361L703 358.5L701.5 354L700 351.5L699 349.5L698 348V346L699.5 344.5V341L701 341.5L702.5 340.5L701 339L701.5 336.5H702.5L703.5 339.5H705L707.5 337L711 337.5L713.5 338H723.5L730 334H739L740 336ZM679.5 375.5L678.5 373L676.5 360.5H679.5V357.5H681L679.5 375.5ZM681 351.5V356H679.5L678.5 355L679.5 353.5L677.5 351.5L679.5 350.5L681 351.5ZM703.5 327.5L712 327V326L720.5 327.5V328.5H735.5L736.5 329L738.5 331.5V333L729.5 334L724 335.5H701L696.5 336.5H692.5L694 333V328.5L694.5 326H703L703.5 327.5ZM903 291.5V304.5L891.5 302.5V289L903 291.5ZM866 285L866.5 288H867.5V299L850.5 296.5V285.5L851.5 283L866 285ZM848.5 282.5V296.5L831.5 294V279.5L848.5 282.5ZM903 286.5V290L891.5 288V284.5L903 286.5ZM787.5 272.5V275.5L788 276.5V288L764.5 284.5V271H765V269L787.5 272.5ZM903 282V285.5L891.5 283.5V280L903 282ZM762 268.5V271.5H762.5V284.5L750.5 283L751 266.5L762 268.5ZM866 280V284L851.5 282V278L866 280ZM848.5 277.5V281L831.5 278.5V274.5L848.5 277.5ZM903 274.5V280.5L891.5 279V273L903 274.5ZM866 275.5V279L851.5 276.5V272.5L866 275.5ZM833.5 269.5L837 270.5H841.5L848.5 272V276L831.5 273.5V269L833.5 269.5ZM686 256V260.5L686.5 261V274.5L655.5 270V253.5L656 252.5V251L686 256ZM867.5 268V271.5L866 272V274L851.5 272V270.5H852.5L854.5 268L856 269.5L856.5 268L862 267L867.5 268ZM903.5 222.5V272.5L893.5 270.5H891.5V248L883.5 246V244.5L882 243L881 240.5L879 239L877.5 240L876.5 238.5L875.5 236.5L873 234.5L871 236L869 233.5H867L866 234.5L865 236.5L864.5 238H861L861.5 236.5L863 235.5L864.5 235L865 233.5L863.5 231.5L861.5 233L859.5 233.5L857.5 235H854L853 236L847.5 235V256.5L846.5 257.5V258.5L844 258V261.5L838 260.5V259.5H836V260L828.5 258.5V233.5L807 228L807.5 225.5L806.5 221.5L804.5 218L803.5 217.5L801 216.5L799 217L797.5 216.5L795.5 217.5L794 218.5L792 220L791 221L790 219.5L788.5 218L787 218.5L786 221L785 219L784.5 217.5L782.5 216L780.5 216.5L778.5 219.5L778 217.5L776 217L774.704 218.5L771.5 217V238.5L770 239.5L771 241.5L770 244L768 242.5L767 244L765 246.5L748.5 243.5V216L709 206.5V205L707 204L705.5 201.5L707.5 201L708.5 202L709.5 201L702.5 194H699.5L698.5 196.5L698 199.5L697.5 196L696.292 194L694.5 192.5L693.5 193.5L692.5 195.5L694.5 198L692 197.5V199L691.5 199.5L690.5 199L689 197.5H687.5L685.5 199.5L684.5 202L683 200L681 198.5L678.5 200.5L677.5 199.5V196.5L674 193H672.5L671 194V196.5L670 197L669.5 195L668 193.5L666 195.5L663 201.5V203L665 202L664 204V207.5L665 210L665.5 204.5L666.5 209L667.5 208.5L666.5 210.5L665 212.246V215.5L665.5 219L667 221L667.5 218.5L669 220.5L670.5 216.5L672 214V216L673 217.5L670 221.5L670.5 223.5L668 222L667 223.5H664.5L663.5 225.5H661.5V227L646 224V188.5L570 170.5V209.5L539.5 203.5V123L903.5 222.5ZM787 267L787.5 269.5V271.5L765.5 268V263.5L787 267ZM848.5 270V271.5L840 269.5L848.5 270ZM653 250.5L653.5 269.5L649.5 269V250L653 250.5ZM842 263.5L839.5 266H836L834 268H831.5V261.5L842 263.5ZM762 262.5V267.5L751 265.5V262L752 261.5L754 264L756.5 261.5L762 262.5ZM787 261.5V263.5L785 265.5L765 262.5L765.5 257.5L787 261.5ZM788 253.5V257L787 258.5V260L767.5 257L768 254.5L770 255.5L771.5 254.5L775 254L781.5 252.5L788 253.5ZM570 237.5V258L539.5 253.5V232.5L570 237.5ZM686 249.5V254.5L656 250V244.5L686 249.5ZM760.5 248.5L755 249.5L752.5 251L750.5 250L751 246L760.5 248.5ZM653 244V249.5L649.5 249V243.5L653 244ZM673.5 242.5L674.5 243V241.5L686 243.5V248.5L656 243.5V241L657.5 242.5L662 244L664 243L665 244L667.5 242.5V244L668.5 242L670.5 241.5L671 243L672.5 241L673.5 242.5ZM653 238V243L649.5 242V237L653 238ZM686 234.5V242L677 240.5L676.5 239.5L677.5 238.5L679 238L680.5 238.5L680 237V236H681L680.5 233.5L686 234.5ZM669 231L669.5 232L665.5 232.5L662 230H660.5L660 232L661 233.5L659 235.5L658.5 234L657.255 233.5V235.5L658 236L657.255 237.5H656V232.5L655 232V228.5L669 231ZM653.5 228V237L649 236V227L653.5 228ZM570 230.5V236.5L539.5 231V225L570 230.5ZM570 223V229L539.5 224V217.5L570 223ZM570 212.5V222L539.5 216.5V206.5L570 212.5Z" fill="#FF0000"/>
</svg>
