<svg width="1280" height="720" viewBox="0 0 1280 720" fill="none" xmlns="http://www.w3.org/2000/svg">
<path d="M739.5 193H742.5L770.5 206.5L772 207.5L772.5 209L771 490H766L764.5 492H763.5L761.5 491L759.5 490.5L756 490H754.5H744L736 489.5L727.5 488.5H720.5L701.5 487.5L677.5 487L663 486.5L654 486L642 485.5L631 484L616.5 483L609 482L603 481L596.5 480L593.5 479L591.5 480C593.5 477.2 592.333 474.833 591.5 474V462.5L592 461L593.5 462L595 462.5L596.5 462L598 461.5V460L597.5 458.5L596 457.5H595L594 456L594.5 454.5V452.5L594 451V449.5V448L594.5 446.5V444.5L595 442.5L595.5 441L597 440.5L596.5 438V436L595.5 435.5H594L593 435H591.5V433H592L593 432.5L593.5 431.5L594 430.5L596 430L600 430.5L600.5 429.5V428.5L599.5 428V427L600.5 426.5L601.5 425.5L602 424.5V423V422L603.5 422.5L604 421L604.5 420H606.5L605 418.5L605.5 417.5L605 416.5L606.5 415.5L607.5 414.5L604.5 410V411L603.5 412.5L602.5 413L601.5 412.5V411L601 410L600.5 409L599.5 408L599 406L598.5 404L597.5 403V402H598.5L600 402.5L601.5 403L601 401.5L600 400L599 398.5L597.5 398H596.5L594.5 399L593.5 397.5H592.5L591.5 398L593 235L619.5 212L734 193.5L739.5 193Z" fill="#3C00FF"/>
</svg>
