<svg width="1280" height="720" viewBox="0 0 1280 720" fill="none" xmlns="http://www.w3.org/2000/svg">
<path d="M1280 82.5L1153.5 110L1152.5 188.5L1280 168V176L1152.5 195.5V245.5L1280 230.5V238L1152.5 252.5L1152 326L1280 317V324.5L1152 333L1150.5 437L1280 439V454.5L1150.5 452L1150 515.5L1280 524.5V532L1150 522.5L1148.5 605.5L1280 621.5V629L1148.5 612.5L1147.5 661L1237.5 676L1236.5 676.5L1235 679L1233.5 682L1148 668L1147.5 699.5L1129.5 696L1130 664.5L1127 664L1126.5 695.5L1109.5 691.761V661.5L993 641V669.5L978.5 667L979 622V615L980 563L980.5 536.5L981 489L981.5 432V363.5L981 131L982 130L995.5 127L996 128L1280 65.5V82.5ZM993 635L1110 655L1111 607.5L994 591.5L993 635ZM994 585.5L1111 601L1113 520L995.5 511.5L994 585.5ZM995.5 505L1113 513L1114 450.5L996 448L995.5 505ZM997 339.5L996 435L1114.5 437L1115 334.5L997 339.5ZM996.5 268.5L997 333L1115 328V256.5L996.5 268.5ZM996.5 217.5V262L1115.5 250V201L996.5 217.5ZM996 140L996.5 211L1115.5 194L1116 115.5L996 140Z" fill="#FF008C"/>
</svg>
