<svg width="1280" height="720" viewBox="0 0 1280 720" fill="none" xmlns="http://www.w3.org/2000/svg">
<path d="M1168.5 2.5L1164.5 5L1161.5 7L1158.5 9.5L1156.5 11.5L1155.5 13.5L1154.5 16.5L1155 20.5L1156 25L1157.5 27.5L1160 30.5L1163 32L1165.5 33L1168.5 33.5L1175.5 32.5L1174 35L1172 34.5L1170.5 36.5H1169.17L1168.5 37.5V39H1167L1166.5 40V41L1168.5 44L1170.5 47.5L1173.5 56.5L1174.5 62L1175 65L1175.5 68.5V75.5L1174.5 77.2627L1173 81L1171 84.5L1169.5 87.5V90.5L1115 101.5L1112.5 98.5L1111 95.5L1109 95L1108 92V87L1110.5 86.5L1109 83.5L1107.5 82V81L1111 67L1112.5 65L1113 62V55.5H1111.5V52L1114 51L1117 49.5L1119.5 47.5L1122 44.5L1124.5 41L1126 38.5L1127 35.5L1127.5 33L1128.5 25.5L1128 23.5L1125.5 21.5L1123 20.5H1115.5L1110.5 21L1103.5 23L1098.5 25L1094 27L1089 30L1086 32L1084 34L1082.5 36L1081.5 38.5V41.5L1082 44.5L1083 47.5L1084 50L1085.5 52.5L1087 54L1091 56H1093L1094 56.5H1098.5L1100 56V57L1099.5 58.5L1095 63.5V66.5L1095.5 70L1096.5 74L1097.5 77L1099 80.5L1101 83L1100 84.5L1099.5 85.5V87L1098.5 88V89L1099.5 89.5L1101.5 89V95L1100 97L1097.5 101.5L1093.5 106L996 128L995.5 127L982 130L981 131V231L981.5 294V421.5L981 479.5L980.5 535L979 602L978.5 667L974.5 666.5L976 604L977 540L978 493V187.5L977.5 186L976 183.5L973 176.5L972 172.5L968.5 163L964.5 153.5L961.5 145.5L960.5 141.5L956.5 131L956 130H953.5V125L952.5 124.5L951 124L934 124.5L913.5 125L896.5 126L885.5 127L876.5 128L868 129L865.5 129.5H865L858.5 119L852.5 108.5L847.5 100.5L843.5 94L841 89L839.5 86.5L838.5 86L804.5 95.5L773.5 104L753 109.5L752 110L751.5 111.5L750.5 120L751 121L752 122.5L752.5 123L751.5 136L752 141.5L751.5 142L751 150.5L752.5 152V153L653 175.5L607.5 186L571.5 195L562 197.5L551 201L542 204.5L534.5 208L531.5 210L527.5 213.5L524 216.5L523 217.5V220L521 222V224.5L518.5 227.5L517 230L516.5 231V259L506 261.5L507 360.5L516 360V376H514V377.5H513.5L514 379.5L513 382.5L511.5 379L512.5 382.5L512 384L511 382L512.5 387.5L511 387L511.5 389.5L512.5 391.5H511.5L513 393.5V394.5L512 394L513 396H515V395L514.5 394.5L516 393.5V398.5L511.5 399V395H507.5V403H516V484.639L502.5 482.5L497.5 482H495V471L478 469.5L476.5 470L476 477L475.5 477.5L475 462L471.5 461.5H466.5L457 462.5V475L457.5 480.5L456.5 480L456 474L455.5 470.5L455 468V379.5L482 378V369.5L474 368.5L479 323L478.5 321H477L467 322.5L468 310L466 309.5L455 311.5V94.5L459.5 92L460 88.5L461 88L460 85L460.5 83L462.5 79L463.5 77.5L466 75L467 74.5L468.5 74H469V73L470 72.5L470.5 71.5L470 70.6211L469 70L455 63V57L455.5 54L456.5 50L457.5 47.5L458.5 45.5L461.5 42.5L463 41.5L549.5 0.5H1173L1168.5 2.5ZM539 130L537 131.5L534.5 134L532.5 136.5L531 135.5L530 135H527.5L525 134.5L523 135L520.5 135.5L519 136.5L517.5 138L516 140L515 141.5L514 143.5L513.5 146L513 149.5V155L513.5 158.5L514.5 161.5L516 164.5L518 168L520 171L525 178L527 180.5L529.5 182.5L532.5 185L534 186L534.5 185.5L536 184.5L537.5 182.5L539.5 180.5L541 178.5L543.5 175L546 172.5L545.5 172L546.5 170.5H548V167.5L550 164L552 160L554 155L555 151L555.5 147.5V139L555 136.5L553.5 133.5L552.5 132L551 130.5L549.5 129.5L548 129H542L539 130ZM1280 65.5L1192 85.5V81.5L1190 79L1187 75.5L1185.5 73V65L1187 57.5L1188.5 51.5V49L1190 41.5L1191 38.5L1192 36L1194 32.5L1193 31L1191.5 32V29.5L1188.5 31L1185 30.5L1185.5 29.5L1191 27.5L1194.5 25L1197.5 22.5L1200.5 19.5L1203 16L1205 12L1206.5 7.5L1207.5 3V0.5H1280V65.5Z" fill="black"/>
</svg>
