<svg width="1280" height="720" viewBox="0 0 1280 720" fill="none" xmlns="http://www.w3.org/2000/svg">
<path d="M455 94.5V311.5L444 313.5L443 314L442.5 327.5L434 328L431.5 318.5L431 317.5L428.5 317L421 316.5H419L415 317L414.5 317.5L411.5 333L404.5 334H402.5L397 333.5H393L389 334L382.5 335L381.5 335.5V336L382 336.5V338L382.5 339.5L383 341.5L383.5 344L382.5 351V353.5L383 356L384 357.5L386 359.5L387 361L387.5 362L388 363.5L350 361V344.229L351.5 343.5V336L344 335L343.5 334L342 333.5H340V319L336.5 318.5V318L338 317.5H340L341.5 318L342 317.5L341 316.5L338 316H328.5L328 315H323L322.5 314L321 313H320L318.5 313.5L318 314.5L316 313.5L314 312L312.5 311.5H306.5L305 312.5L304.5 311L302.5 310L299 310.5L297.5 309.5L295.5 309H294L293.5 308L292.5 307L291 306.5L287.5 307H287L286.5 306.5L284 306L279 305.5L278 305L276 304.5L272.5 303.5L271.5 305L269.5 306.5L267.5 307.5L266.5 308.5V310L265 309.5H262.5L261.5 310L262 311L261.5 311.5H256.5L255 312L256 313L259 314.5L258.5 316.5L258 318V329.5L260 330.5L258 331H254.5L254 331.5V358L255 359L253.5 359.5V370.5L254.5 371L275.5 371.5L276 390L284.5 389.5V375H290V372L365.5 375.5L366 391.5H373V378.5L379 378V376L437 378.5V393H443L444 381.5L449.5 381V379L455 379.5V468L455.5 480H450.5L446.5 480.5L443.5 481H434L429.5 482.5L425 483.5L420 485L415 487L413 487.5H409.5L405 489L401 490.5L397 492.5H394.5L390.5 493.5L387 494.5H381.5L376 496L370.5 496.5H367L364.5 497L362.5 498L360 498.5L357 499.5H355.5L353.5 500L352 499.5L350.5 498.5L350 497.5L349 496.5L348.5 495.5H350L352 496.5L354 496L356 494.5L356.5 492L355 490L353 489L349.5 488L342 485.5L338.5 485L339.5 483.5L340.5 481L340 478L339.5 476.5L340.5 474V472.5L339 470.5L337.5 469.5H332L329.5 468.5H327L324 469L321.5 470.5L320.5 471.5H318L315.5 472.5L314 473.5L312.5 475.5L313 478L314 480L315.5 481.5L316 483.5L317 485.5L318.5 487.5L320 489L321 489.5L318 491.5L316.5 493L315.5 495L314.5 497.5L314 500L313 502L312 504.5L311.5 506L312.5 507.5H301L296.5 508L292.5 509L286.5 510H282.5L275.5 510.5L270.5 512.5H258L255 513.5H249.5L243 514.5L236.5 516L232 517L226 517.5L222.5 518H217L208.5 519.5L201.5 520L196 520.5L192.5 522L184 523.5L178 523L171 524L165.5 524.5L160 525.5L156 527H153L151 527.5L147 529L143.5 529.5H137L132.5 530L123.5 532L115.5 532.5L107 535L99.5 536L94.5 537.5L90.5 538.5L87.5 539.5L82.5 540L77 541L73 542.5L69 544.5L64.5 547L61 548.5L59 550L56 551.5L53.5 552.5L48 550L39 545L34.5 543L28.5 541L23.5 540L19 539L13.5 538L6 537L0 536.5V297.5L2 297L4.5 296L8 294.5L9.5 293.5L12.5 290.5L14 287.5L15 284.5L15.5 281.5V277.5L15 274L14 270.5L12.5 266.5L14.5 268L17 270L21.5 273L23.5 274L26 275L28 276L30 276.5L32.5 277L34.5 277.5L39.5 278.5H46.5L49.5 278L52 277L53.5 276L55.5 274.5L57.5 273.5L58.5 272.5H60.5L60 270.5L59.5 269V267.5L60 265.5L59 263L58 261L56.5 258.5L54.5 256.5L51.5 254L48.5 252L41.5 248.5L34 246L30.5 245.5L27.5 245H24L22.5 244L23.5 243L25.5 242.5L28.5 242L33.5 239.5L35.5 238L37.5 236L39.5 233.5L41 231.5L42 229L42.5 226V223L42 220L41 218L39 215.5L37.5 214L36.5 213.5V211H35.5L34.5 211.5L32 210L26 208L18 207L14 207.5L11 208L8 209L6 210L3 211L1 212L0 213V188.5L60.5 200L61.5 199.5L63 200H63.5L64 193L59 96.5L58 71L56 70L4 53.5L2.5 52.5L0 50V0.5H263.5L455 94.5ZM55.5 324L51 324.5H48L47.5 326L46 327.5L44.5 329.5L43 331L42.5 332.5L42 334.5V339L43 342L44 344L45 346.5L46.5 348.5L51 353L55 356L57.5 357.5L60.5 359L63 360L55.5 359.5H51L45 360L41 361L38 362L34 363.5L31.5 364.5L29 366L27 368L26 369.5L23.5 374.5V375.5L25.5 376L27 377L27.5 378L29 382L30.5 386.5L33.5 388L36 389L40.5 390H48L51 389.5L55.5 388.5L59.5 387.5L62.5 386.5L69.5 383.5L72.5 381.5L71 384L70 385.5L69 387.5L68.5 389L68 391V399.5L69 402.5L70 405L71.5 407L75 410.5L79 412.5L80.5 413L82.5 413.5L85.5 415H86.5L88.5 414.5L89.5 414L91 413.5L93 413L97 411L102 406L103 404.5L104 402.5L104.5 401L105 398V391.5L104.5 389L103 385.5L102.5 383.5L105 386L107.5 387.5L110.5 389L116.5 391L121.5 391.5H125L128.5 391L131 390.5L134 389L136.5 387.5L139 385.5L141 384L142 383L141.5 382V376L140.5 374.5L139 372.5L136.5 370L134 368L132 366.5L128.5 365L123.5 363.5L119 362.5L113.5 362L110.5 362.5L109 362L110.5 360.5L115.5 358.5L118 357L120.5 355L122 353.5L124 350.5L124.5 349.5L126.5 344.5V340.5L125.5 337L124 335L123 334L121 332.5V330L116.5 329.5L114.5 329L111.5 328L108 327.5L101.5 329L97.5 330.5L94.5 332.5L89 338L87.5 341L86.5 344L85.5 342.5L85 342L83.5 339L81.5 336.5L80.5 335L79 333L76.5 331L72.5 328L70 326.5L67.5 325.5L64 324.5L61.5 324H55.5ZM152 265L150 266L148.5 268.5L147.5 271L147 275L148 279L149 281.5L149.5 284L151.5 286.5L153.5 288.5L155.5 291L158 293L160 294.5L164 296.5L160 295.5L156.5 295H151.5L146.5 295.5L142 297L138.5 299L135.5 301L134 302.5L133 304L132.5 306L132 309.5L131.5 311L131 312L131.5 313L133 314L135.5 316.5L137.5 318L140 319.5L142.5 320.5L144.5 321.5L147 322L150.5 322.5H154L158 322L161.5 321L165 319.5L167 318.5L168.5 317.5L171 316.5L170.5 317.5L169 319L168 322L167.5 324L167 329.5L168 335L169 337.5L170.5 340L172 342L173.5 343.5L175 344.5L181 347.5L182.5 348.5L184 347.5L190 345.5L192 344L194.5 341.5L196 339.5L197 337.5L197.5 335.5L198 332V329L197.5 325L197 322L199 324L201 325.5L202.5 326.5L204.5 327.5L207 328.5L210 329.5H218L220.5 328.5L223.5 326.5L225.5 325L226.5 323.5H228L228.5 323L227.5 322L228.5 318L228 315.5L227 313L223.5 309.5L220.5 307L218 305.5L215 304L211.5 303L208.5 302.5L205 301.5H202.5V301L208.5 298L212.5 294L213.5 292.5L215 290.5L216 288L217 283.5L216 279.5L214 276.5L212 274.5V274L211.5 273.5L209.5 272.5L206.5 271.5L203 270.5H199.5L195.5 271L193 272.5L190 274L188 275.5L185.5 277.5L184 280L183 281.5L181.5 279L180.5 277.5L179 275L175 270L172.5 268.5L169.5 266.5L166.5 265L163.5 264L159.5 263.5L156.5 264L155.5 263.5L152.5 263L152 265ZM275.5 136.5C261.5 122 247.333 119 241.5 119.5C224 119.5 214 134 214 146.5C214 159 223.5 175.5 235.5 182C247.5 188.5 262.5 193 276.5 186.5C290.5 180 293.672 155.322 275.5 136.5ZM463 41.5L461.5 42.5L458.5 45.5L456.5 50L455.5 54L455 57V63L339 0.5H549.5L463 41.5Z" fill="#FF0000"/>
</svg>
