<svg width="1280" height="720" viewBox="0 0 1280 720" fill="none" xmlns="http://www.w3.org/2000/svg">
<path d="M830 293L837 293.5L842 295L848 297.5L857 302L866 309L868 312L875.5 321.5L879 325.5L886 321.5L890 319.5L893 318.5H897L900.5 319.5L904.5 321.5L909 324L916 328L922.5 331.5L937.5 339L953.5 346.5L961.5 349.5L978 356L986.5 358.5L1003 362L1009.5 362.5H1013L1010.5 364.5L1009 367L1007.5 368.5L1004 373L1001.5 377L998.5 380.5L997 382.5L993 387L990.5 390L988.5 392.5L985 396L985.5 398.5H983.5V395.5L982.5 392.5L980.5 389L978 385L976.5 382.5L975.5 381.5H974.5L974 383L972 386L968 390.5L966 394L963.5 397L959.5 403L959 403.5L960 404L983 399L988.5 398L1025 390L1013.5 363.5V362.5L1026 363.5H1045.5L1054 363L1064.5 362L1073.5 360.5L1081.5 359.5H1086.5L1089 360.5L1093.5 363H1096L1099 364L1109 372.5L1117.5 371L1126 372L1140 372.5V379L1131 382L1148 609V613.5L1147 617L1145.5 620.5L1143.5 623L1141 625.5L1138 627.5L1134 629L1130.5 630L1127.5 630.5H1125L1121 629.5L1116 627.5L1114 625.5L1110 622.5L1108 620L1106.5 618L1105 615.5L1104 612.5L1103 609L1102.5 606.5V603.5L1103 600L1104 597L1105.5 595L994.5 650L997.5 692.5V696L997 699.5L996 702.5L995 705L992 710L990 712L986 715L983.5 716L979 717L976 717.5H972.5L969.5 717L967 716L964 714.5L960 712L955 708L953.5 706L951 702.5L949 699L947.5 695.5L946.5 691L946 687V681L946.5 677L947.5 674.5L951.5 667.5L953 664.5L954 662L954.5 659L954 655L952.5 652L950.5 649.5L948 647L945.5 645L942.5 643L935.5 638.5L931 636.5L923.5 633L915 630L899.5 625L889.5 622L878.5 620L864.5 617L842.5 612.5L823 608.5L794.5 603L771 598.5L740.5 592L720.5 588.5L678 579.5L635 571L585.5 560L543.5 551L518 546L496 541.5L471.5 536L451 532L440.5 530L433 529H430L424.5 530.5L417 532.5L411.5 533L408.5 534L407 536V538.5L407.5 542L409 547.5L410.5 551L411.5 555.5L412 559L411.5 562.5L411 565.5L410.5 568L409 569.5L408 570L406.5 568.5L406 572L402 574L401 572.5L398.5 569.5L397 571.5L394.5 569H393L390.5 572L389 572.5L387.5 572L386.5 570L385 568L383.5 565L382 561L381.5 554L383 527L384.5 501.5L386.5 465.5L388 427.5L389.5 395.5L391.5 358L386 357.5L385 356V352.5L386 351L443.5 346L494.5 341.5L481.5 359.5L463.5 383L461.5 387L459.5 391.5L456.5 393L453.5 395.5L440.5 409.5L434.5 416L432 418L425.5 423L422 427L421 428.5L422 429.5H427L434.5 431L430.5 432L426 434.5L421 436.5L416.5 438.5L413.5 440.5L416.5 443L421 445L416.5 446L414 447L412 448.5L410.5 450.5L409.5 454L410.5 472L952.5 566H954.5L956 564.5L957 412.5L956 408.5L955.5 409L954.5 411L951 417.5L942.5 431.5L927 387.5L921 374L911.5 356L904.5 364.5L896.5 374.5L877.5 402L869 416L864.5 423.5L857.5 438.5L855 446.5L852 443L848.5 441L842 438.5L837 438H833.5L830 438.5L825.5 439.5L820.5 440L817 441.5L816 442.5L817 436.5L816 406V399.5L819 408L821.5 418.5L823.5 429L824.5 434.5V437L826 438L827.5 438.5L833 437L833.5 435L832.5 431.5L830.5 423.5L827.5 410.5L825 403L823.5 396.5L821 391.5L819 388L816.5 385L816 383.5L817.5 382.5V379.5L816.5 378L816 369V364.5L817 362.5L819 360L822 358L826.5 355.5L831 353.5L836.5 350L839.5 347.5L839 344.5L837.5 339.5L833.5 326.5L832.5 321L833 315.5L833.5 309L833 308H831.5L830 310L826.5 314.5L824 317.5L822 319.5L818.5 322L815 323.5L810 324H802.5L799.5 323L797.5 321.5L796 320.5L794.5 319L793 317L791 313L790 310.5L789 306.5L787.5 307.5L786 311.5L785 313.5L784 316.5L783 318.5L782 320L781.5 322V327L781 329L780 331.5V333.5L779.5 334.5L778.5 336L778 338V340.5L777.5 341.5L777 344L778.5 345.5L779.5 347L780.5 348H781.5L781 349.5L780.5 350.5L778 352H769.5L764 351.5L759.5 350.5L757 349L755 346L754 344L753 341V339L750.5 339.5L748 343.5L746 349L744 353.5L742 359.5L741 362L740 363.5L739 367L738.5 368.5L738 370.5L738.5 372.5L739.5 374.5L742 376.5L744 378.5L747 380.5L748.5 383.5L750 387V390L749 392.5L748.5 395V396.5L747 398V400L745 402L744 403.5L742 406L741 410H739.5V401L739 387.5L738 378.5L737 374L733.5 367L730.5 363.5L728 361.5L730 357.5L733.5 353L736.5 349.5L739 346L742 341L744 337V330.5L743 323L738 325.5L735 328L732 331.5L730 333.5L728.5 337L726 343.5L724 348L721.5 352.5L720 355.5L719 358.5L713.5 358H708V350.5L709.5 347L711.5 344.5L712.5 341.5L713.5 339.5V329.5L713 326.5L725 321.5L728 320L731.5 318L739 313.5L745 310.5L747 310L749 310.5L752 311.5L756 313.5L762.5 317L763.5 317.5H765L766.5 317L768 315.5L770 313L771.5 310.5L773.5 307.5L775 305.5L777.5 303L781.5 300L788.5 296.5L795.5 294.5L801.5 293.5L807.5 293H819.5V292.5H822L830 293ZM702.5 332L702 334L700.5 336.5L700 339L699.5 344V356L699 357V358.5L697 360L692 364L690.5 366L689 370.5L687.5 375.5L686.5 380L686 385.5V398.5L685.5 401L684.5 402.5L681.5 405H680.5L672.5 398.5L660 387L649 377L643.5 375L642 373.5L641 369L639 364L629 346.5L621.5 332L621 331L622.5 332L625 332.5L632 334.5L642 336.5L648.5 337.5L656.5 338H671L675.5 337.5L680.5 336.5L692.5 333.5L696.5 332L701.5 330.5L703.5 329.5L702.5 332ZM613 334L612.5 337L610.5 338.5L606 344L593 362L588.5 367.5L584 373.5L582 376.5V378.5L580 379L574 384.5L569.5 388.5L563.5 394.5L559 398.5L555 402.5L552.5 403.5L545.5 397L541 393L537.5 390L535 388.5L533.5 384.5L531.5 381.5L527.5 376.5L523.5 371L520 366.5L513.5 360L512 359L510 358.5L510.5 357V355L510 353.5L509.5 349.5L508.5 347L507.5 343.5L506 340L597.5 334L600 332.5L604.5 330.5L612 328L615 327.5L613 334Z" fill="#FF0000"/>
</svg>
