<svg width="1280" height="720" viewBox="0 0 1280 720" fill="none" xmlns="http://www.w3.org/2000/svg">
<path d="M449.5 11V22L443.5 25.5V346L386 351L385 352.5V356L386 357.5L391.5 358L384.5 502.5L344.5 510.5L344 509.5V358.5L351 357.5V347.5L343 346.5L335 347L271 340.5L269.5 338L270 286L275 285L282 283.5L287 281.5L293.5 280L295.5 278.5L292 279H288.5L282 280L280.5 281.5H278L276 281L277 280L278.5 278.5L277 278L275 280L273 281.5L271.5 280L276.5 277.5H279L281.5 278.5L284 279L288 278.5L291 276H294.5V273.5L292.5 272.5L295 269.5L297 268V267L294.5 265.5H291L287 268L286 269.5L284 270.5L282 271.5L279 274L278.5 276.5H277L272 279L269.5 280L271 277.5L273 275L275 273.5L276.5 271.5L284.5 264L287 262L289 259L282.5 263L281 264L280 263L282.5 260.5V259L284 257V255L282.5 254L281.5 253L279 252L276 254H274L271 256.5L269 258L268.5 257V252L269.5 250V248H267.5L267 247V244.5L265.5 244L263.5 243V4L291.5 0H381L443.5 8.5L447 9.5L449.5 11Z" fill="#0040FF"/>
</svg>
