<svg width="1280" height="720" viewBox="0 0 1280 720" fill="none" xmlns="http://www.w3.org/2000/svg">
<path d="M1280 0V633L1148 609L1131 382L1140 379V372.5L1126 372L1117.5 371L1109 372.5L1099 364L1096 363H1093.5L1089 360.5L1086.5 359.5H1081.5L1073.5 360.5L1064.5 362L1054 363L1045.5 363.5H1026L1016 363L1003 362L996 360.5L986.5 358.5L978 356L969 352.5L961.5 349.5L953.5 346.5L946 343L937.5 339L922.5 331.5L916 328L909 324L904.5 321.5L900.5 319.5L897 318.5H893L890 319.5L886 321.5L879 325.5L875.5 321.5L872 317L868 312L866 309L860.5 304.5L857 302L848 297.5L842 295L837 293.5L830.5 293L822 292.5H819.5V293H807.5L801.5 293.5L795.5 294.5L788.5 296.5L781.5 300L777.5 303L775 305.5L773.5 307.5L771.5 310.5L770 313L768 315.5L766.5 317L765 317.5H763.5L760.5 316L755 313L752 311.5L749 310.5L747 310L745 310.5L739 313.5L732.5 317.5L729 319.5L725 321.5L718 324.5L713 326.5L712 324L710 321.5L709 321L707.5 322L704.5 327L703.5 329.5L701.5 330.5L696.5 332L692.5 333.5L680.5 336.5L675.5 337.5L671 338H656.5L648.5 337.5L642 336.5L632 334.5L625 332.5L622.5 332L621 331L617.5 323.5L615 327.5L612 328L604.5 330.5L600 332.5L597.5 334L506 340L504.5 337.5L502 332.5H500.5L494.5 341.5L443.5 346V25.5L449.562 22V11L446.5 9.5L443.5 8.5L436.5 7.5L380.5 0H1280ZM1038.5 240L1037.5 242.5L1037 246L1036.5 251.5L1036 255.5L1035 258.5L1033 261.5L1032 264L1031 267L1030.5 270V272L1031.5 274.5L1033 276.5L1034.5 278L1036.5 279L1039.5 279.5L1044.5 278.5L1046.5 276.5L1048.5 273L1049.5 269.5L1048 265.5L1046.5 262.5L1044.5 260L1043 254.5L1042 250.5L1041.5 247V240.5L1040.5 238L1038.5 240ZM605.315 234.591L604.526 236.578L604.132 239.361L603.737 243.735L603.342 246.916L602.553 249.301L600.974 251.687L600.185 253.675L599.395 256.061L599 258.445V260.036L599.789 262.024L600.974 263.614L602.158 264.808L603.737 265.603L606.105 266L610.053 265.205L611.632 263.614L613.211 260.831L614 258.048L612.815 254.867L611.632 252.481L610.053 250.494L608.868 246.12L608.079 242.939L607.685 240.156V234.988L606.895 233L605.315 234.591ZM1020.5 118L1017.5 118.5L1015.5 119.5L1013.5 121L1013 122.5L1012.5 125L1012 130.5L1010 169.5L1010.5 170.5L1012.5 171H1029.5L1030 176L1027.5 177L1025.5 178.5L1024 180L1021.5 182L1020 184V186.5L1021 188.5L1023.5 191L1026 192.5L1029 193.5L1028 195L1027 197L1026.5 199L1027.5 201L1028.5 202.5L1030 203L1030.5 204L1031 206.5H1026.5L1022 207L1016.5 208L1022 209.5L1026.5 210.5H1030.5V221L1031 224.5L1031.5 227.5L1032.5 231L1034 233.5L1035 235.5L1037 237L1040 237.5L1042 236.5L1044.5 234.5L1046.5 232L1047.5 228.5L1048.5 224.5L1049.5 219L1050.5 213L1051 210.5C1052.5 210.833 1056.1 211.5 1058.5 211.5C1062.83 211.167 1071.9 207.7 1073.5 196.5C1075.5 182.5 1060 177.5 1056 177.5C1052.8 177.5 1047.67 180.5 1045.5 182L1042.5 180L1039 178.5L1037.5 177L1036.5 174.5L1036 173V171H1055.5L1057 170.5L1056 120.5L1054.5 118.5L1051.5 117.5L1020.5 118ZM1045.5 219.5L1044.5 226L1043.5 229L1042 231.5L1040.5 233H1039L1037.5 231.5L1036 229L1035 226V210.5L1046.5 209.5L1045.5 219.5ZM595 136.5L590 137L586 137.5L584 138.5L583 140L581 179.5H595L595.5 180V182L594.5 184L588.5 188.5L587.5 191L588 192.5L589.5 194L591.5 195.5L594 197L596.5 197.5V199L596 200L594.5 200.5L593.5 201.5V203L594 203.5L596 204L597 205.5V208H587.5L585 209L587 210L597 211V222L597.5 225.5L599 228.5L601 230.5L604 232.5H607L609.5 232L611.5 231L614 228.5L615.5 225.5L617 221L618 214.5L618.5 208.5L621.5 211L623.5 212L626.5 212.5L629.5 212L632 210L634.5 207.5L636 204.5L637 201V197.5L636.5 194L634.5 190L632 187L629.5 185L624.5 184L622 185L620 186L617.5 187.5L616 189L615 191.5L614.5 195V200.5L615.5 203.5L616.5 206V208L616 212.5L615.5 216.5L614.5 221L613.5 223.5L612.5 225.5L611 227.5L609.5 229L606.5 230L603.5 229.5L602 228L600.5 225.5L600 223.5L599.5 221V211L601 210.5H604.5L609 209.5L612.5 208H600.5L600 207L600.5 206V204.5L602 203.5L603 203L603.5 201.5L602.5 199.5L601.5 198L601 197L602 196L604 195.5L605.5 195L607 194L608 192.5L608.5 191L608 189.5L607 188L605 187L602.5 185.5L601 184L600 181.5V179.5H616L615 139L613.5 138L611 137L606.5 136.5H595ZM899.5 125L896.5 126.5L894 128.5L892.5 131L891 135L890.5 140L891 145L892 148.5L893.5 152.5L896 157L898 161L901 165.5L904.5 169.5L907 171.5L913 158.5L915 152.5L916 149L916.5 144V140.5L916 138L915 135L913 131.5L910.5 128.5L908.5 126.5L905.5 125L902 124.5L899.5 125ZM687 87L685 88L683.5 89.5L682 91.5L681 93.5L680 96.5L679 101.5V106.5L680 117L682 125.5L685 122L690.5 116L693 113L695 110L696.5 106.5L697.5 102.5V98.5L696.5 94.5L695 91.5L693.5 89.5L691.5 88L689 87H687ZM574 94.5L576.5 103L579.5 108.5L582.5 113L585.5 116L588 118L591.5 119.5H594.5L598 118.5L601 116L602.5 114.5L604.5 111L606 107V103L605.5 99.5L604 96L601 92.5L598 89.5L593.5 87L588 86L571.5 85L574 94.5ZM1059 52L1055 53L1051 54.5L1047 57L1044.5 59L1042.5 62L1041 66L1040.5 71L1041 74.5L1043 77.5L1047 81.5L1050.5 83L1055 84H1059L1065.5 83L1070 81.5L1074 80L1078.5 77.5L1085 72.5L1092.5 66.5L1086.5 62L1081.5 59L1070.5 53L1065 52H1059Z" fill="black"/>
</svg>
