<svg width="1280" height="720" viewBox="0 0 1280 720" fill="none" xmlns="http://www.w3.org/2000/svg">
<path d="M177 505L85.5 521.5V415.5L177.5 405.5L177 505ZM11.5 324.5V336L12 338L13.5 339.5L16.5 340.5L72 338L70.5 345L69.5 349.5V352.5L69 354.5L47 356H44.5L43 357.5V358.5L0 362V302H10.5L11.5 324.5ZM269.5 338.5L271 340.5L269.5 344.5H264L264.5 340.5L265 336L266 332.5L265 331.5L249.5 331L237.5 331.5L234.5 332L235 335.5H233.5L231.5 336L230 336.5L228 340.5H227.5L226 340V344.5L124.5 351.5L116.5 350L114 346.5L112.5 342.5V336L185 332L188 330.5L189.5 329V315.5L187.5 293.5L217.5 292L216.5 294.5V295.5L218.5 294.5L221 292L225.5 291.5L270 288.5L269.5 338.5ZM235.5 337L236 338.5V343L232 343.5L230.5 341.5V340L231 338.5L232.5 337L234 336.5L235.5 337Z" fill="#22FF00"/>
</svg>
