<svg width="1280" height="720" viewBox="0 0 1280 720" fill="none" xmlns="http://www.w3.org/2000/svg">
<path d="M351 357.5V347.5L343 346.5L335 347L271 340.5L269.5 344.5H264L263 347.5L269.5 346L272.5 345H275.5L277 346.5L274.5 348L272.5 349.5L264 351L253.5 351.5L240.5 351L235.5 350H234.5L230.5 349.5L228.5 347.5L229.5 347L231.5 346.5L229.5 345L228.5 344L226 344.5L167 348.5L154.5 349.5L146.5 350L133 351L124.5 351.5L125 352.5L129 353L132.5 354L132 355.5L131.5 356.5L133 358.5V360.5L78.5 363.5L51 364.5L50 362.5L48 361H46.5L44 361.5L43 360.5V358.5L5.5 361.5L0 362V579L69 565.5L68.5 579L74.5 581.5L85.5 579V415.5L177.5 405.5L177 505L177.5 521.5L183.5 523.5L191 521.5V520.5V510.5L258 525.5L258.5 541.5L262 542.5L264 543H268.5L270.5 541H273.5V525L325 515V521.5L330 522L331 526L336 528.5L344 528L343.5 510L344 509.5V358.5L351 357.5Z" fill="#FF00AE"/>
</svg>
