<svg width="1280" height="720" viewBox="0 0 1280 720" fill="none" xmlns="http://www.w3.org/2000/svg">
<path d="M632.5 485H862.5L863.5 353L869 353.5V351.5L863.5 347V180.5L864 178H869V172.5L864 172V3.5L866 2L868.5 0H85.5L84.5 387L99 379.5C101.5 378.167 108 375.3 114 374.5C121.5 373.5 128 374 137 374.5C144.2 374.9 148.333 379.334 149.5 381.5L154.5 390L263.5 391H347.5C353.9 391 355.5 395 355.5 397L354 483L578.5 484L580.5 481L587.5 478.5V477L583.5 475.5L563 470.5L576.5 469.5L592 470.5L590.5 465L589.5 462L591.5 458V454.5L578.5 425.5L594 452.5L585.5 429.5L589 432.5L596.5 444L608.5 449.5L611 433.5L613.5 441L629 433.5L621.5 449.5H623H631.5L638 445L657.5 446.5L639.5 451.5V456.5L641 458L652.5 453.5L646.5 457L651.5 458L654 457L654.5 458L650.5 461.5L646.5 462L643 466.5H639.5L636.5 469.5L636 472H638L641 471L643 472L645.5 471L649 473.5H652.5L654.5 476H657.5L659.5 478.5H658L650 476L648.5 477.5L647.5 479H643L636 477.5L632.5 479.5H629.5V481L632.5 485Z" fill="black"/>
</svg>
