<svg width="1280" height="720" viewBox="0 0 1280 720" fill="none" xmlns="http://www.w3.org/2000/svg">
<path d="M484 405.5L533 411.5L532 0H468V323L289.5 321V0H0V720H94.5L115 713V711.5V706.5L111 696L109 692L108 687V685L106.5 681L106 678L102.5 670L97 657.5L83.5 629.5L77.5 617.5L76.5 614.5L76 605L75 567.5L75.5 483L73.5 480V472L74 469L76 466L79 464.5L82 464L95.5 462.5L122 460L183 453L226 448H229.5L232 448.5L243.5 455L245 457L246 461.5L246.5 466.5L245.5 468.5L248 566.5L250 577C250.333 576.667 254.9 577.7 270.5 584.5C286.1 591.3 293 602.333 294.5 607L296 613.25V429L295 425.5L290 424V419L431 407L453 405L453.5 404.5L453 403.5L453.5 403V402V400L454.5 398.5V397V395L453 394.5L452.5 393L452 391.5L453 389.5L453.5 388.5L454 386V384.5V382.5L453.5 380V379V377.5L453 376V374V371L452 370.5V374.5L451.5 375L450.5 376.5L450 375.5L450.5 373.5L450 373L448.5 371.5L448 370L446.5 371L444.5 372.5V369H443.5L442 368L440 369L439 372L438.5 371L439 369.5L440 368L442 367L440.5 366H442.5L442 365.5L441.5 364L440.5 362.5H438L439.5 361L438.5 360.5L434.5 363V361.5L435.5 360.5L437.5 359.5L440 360L440.5 357.5L442 355.5L440 355H439L438.5 354L439 352.5L440.5 353.5L443 354.5L444 352L445.5 351H444L441 350L443 349L446 348.5L448 349L448.5 347.5L450 347L450.5 346L451.5 344.5L453 344V345.5L454 347L454.5 345.5L457.5 344.5L455.5 347L458 346.5L456 348L458.5 349L460 350L461.5 349.5L460.5 347.5V344.5L461 343L462.5 341L464.5 340L466 341L467.5 343L467 340L468 337.5L469.5 336.5L472 336V336.5L471 339L468.5 342V343H469.5L471 342L469.5 344L470.5 345L471.5 344.5L474.5 344L476.5 343L475.5 345.5V346L477 347L478.5 345L480.5 344.5H482L484.5 346.5L481.5 349.5L482 350.5V351.5L483.5 352L485 354L486 351.5V348.5H488L489 350.5V352.5H490L491.5 350.5L492.5 351.5L493.5 351L495 352.5L496 354L498 353.5L499 356L498 356.5L497.5 356L495.5 356.5L497 358.5L494.5 359.5L495 361.5L494 360L491.5 359L493 361L490.5 363H488L487.5 366L490 366.5L491.5 368V369.5H490.5L487.5 367.5L486 370L489.5 369V371L487 373.5V375.5L484.5 376V377.5L487.5 376L489 376.5L487 379.5L484.5 378.5L482.5 379.5L480.5 379V380H483V381.5L482.5 383.5L483 385.5L482.5 388L483 389V393L482 395V396L483 398.5L482 400V402L483.5 403L484 405.5Z" fill="black"/>
</svg>
