<svg width="1280" height="720" viewBox="0 0 1280 720" fill="none" xmlns="http://www.w3.org/2000/svg">
<path d="M873 599L691 548L676 542.5L584.5 576L556.5 565.5L551 567.5V470L548 469L552 467.5V422.5L547 421.5L557 419.5V414.5L533 411.541L532 2L675 64L856.5 0H873V599ZM728 318C725.6 318 724.333 319.333 724 320H721.5C715.9 321.2 714.5 328.833 714.5 332.5V363.5C714.5 370.3 719.167 373.667 721.5 374.5H724.5C725.3 375.7 726.5 376.333 727 376.5L730 376C731.6 375.571 732.667 374.488 733 374C739.8 373.2 741.833 366 742 362.5V331.5C742 323.9 736.333 320.667 733.5 320C732.3 318.4 729.333 318 728 318ZM733 326C734 325.833 736 326.7 736 331.5C736 336.3 736.333 354.167 736.5 362.5C736.333 363.667 735.6 366.3 734 367.5H733C732.5 367 730.9 366 728.5 366C726.1 366 724.5 367.333 724 368C723.5 368.167 722.2 367.8 721 365L720.5 360V330.5C720.5 329.167 721.1 326.4 723.5 326C723.667 326.667 724.8 328 728 328C731.2 328 732.667 326.667 733 326ZM466 121V321.5L362.5 319.5L365 95L466 121ZM616 66.5C614 66.5 612.167 67.1667 611.5 67.5L613 68C613.333 68.5 614.4 69.5 616 69.5C617.6 69.5 618.667 68.8333 619 68.5L621 68L619.5 67.5C619.167 67.1667 618 66.5 616 66.5Z" fill="#FF0000"/>
</svg>
