<svg width="1280" height="720" viewBox="0 0 1280 720" fill="none" xmlns="http://www.w3.org/2000/svg">
<path d="M1184.5 526.5L1186 527V529.5L1188 530.5V534L1190 535V548L1146.5 547.5V534.5H1148V530H1150V526.5H1151.5L1151 252L1151.5 251.5L1165.5 250.5L1170.5 250L1184.5 249.5V526.5ZM783.5 274.5L783.715 388.498L783 389.5L783.719 390.458L783.728 395H783L781 393L782 396L781.5 397H780L780.5 399L783 401.5L782.5 402.5H781.5L780.5 400L781 403.5L780.5 404L781 405.5L780.5 407L782 409L780.5 410L781 412H780V413.5L779.5 414L780 415L779 416L780 416.5L779.5 417.5V419.5L780 420.5L779 422L778 421.5V422.5L778.5 425L778 427V428H777.5V429.5L776.5 431.5L775.5 431L775 431.5L775.5 432.5L776.5 433.5L776 435L774.5 435.5V436L775.5 438L774.5 438.5L775 439.5L776 442.5H775L776.5 445L774 443.5L775.5 446L774 448V449L775 450H774V451.5L772.5 450V451L774 455L772.5 454.5L773 456.5L771.5 456L773.5 460.5H772.5L772 463.5V465.5L771 466L772 469H770.5L771 470L771.5 471.5V472.5H770.5V476L771.5 476.5L770 477L771 480H770V482.5L770.5 484.5H769.5V487L770.5 489L769 489.5L770 492.5H769V493.5L770.5 497L771 498L769 499L770.5 502V505H769.5L771 507.5L770.5 508.5L771.5 510L770.5 509.5V510.5L771.5 512L772 513V514L771 513.5L772.5 516.5V518L771 517.5L771.5 518.5L773.5 520V521.5L775 522.5L776 524.5L778 526.5H778.5V533L777.5 535L777 534L775.5 535L774.5 537L774 537.5L774.5 538.5L776 539H777L776.5 539.5H758.5V533.5H749.5V530.5H752V526.5H753.5V523H755.5V276.5L753.5 275.5L767.5 275H771L782.5 274L783.5 274.5ZM611.5 276V280H603L602 280.5V285L601 286L600.5 287L600 287.5H599.5V288.5H598L597 290L599.25 403.25L599.5 516.5L600 517.5L601.5 519L603 520L602.5 520.5L604 521.5L604.5 523V524L604 525.5H611V533.5L595.5 535H582L581.5 534L583 532.5H584L584.5 532H585L584.5 531.5L584 530.5L578 527.5L578.5 527L578 526.5H577L578 525L577.5 524.5L578 524L579 523.5L577.5 522L576 521L574.5 521.5L573.5 520.5L571 519L570 519.5L567 518V517.5H570V517L571.5 516.5L570.5 515L568.5 514.5L567.5 514L568 398.5L570.5 290L570 289.5H569L568.5 289L568 288V287.5L567 287L566.5 286.5L565 283.5V280L563 279L562.5 278H561L560 277.5L558.5 277L557.5 276.5V276H555.5V271L595 268.5L611.5 276ZM69 517.299H70V520H70.5V523H71.5V531L70.5 531.5L68.5 530.5H67L65.5 531L66.5 532.5L64.5 531.5L65.5 532.5H59.5L59 532H58.5L56.5 530.5H58.5L58 529.5L57 528.5L54 527.5L53.5 527H55V525.5L51.5 524V523L52.5 523.5L53.5 523V521.5L51 520H48.5L47 519.5L47.5 518.5L48 518L49 518.5H50V517.5L48 516V515H49L48.5 514L48 318.5L56 318H69V517.299ZM434 287V292H424L423.5 293V294L424 295V295.5L423.5 296.5L421.5 298.5H421V299.5H420.5L420 300.5L421.5 516L422 516.5L423 517H423.5L424 517.5V518H424.5V518.5L423.5 519H424.5L425.5 519.5L426 520L426.5 521V522.5L425.5 523.5L424.5 524H430.5L431.5 524.5L432.5 525.5L433 526.5L433.5 528V532.5H377.5V529H378V524.5L386.5 524L386 523.5L385.5 522.5V520.5L387.5 518.5V518H388V517.5H389L389.5 516.5L390.5 515.5L393 300L391.5 299.5L391 298.5L390 298V297.5L389 296L388 295L387.5 293.5V291L387 290.5L386.5 289.5V288.5L378.5 286V282.5L413 280.5L434 287ZM331.5 305L331.729 403.324L331 401.5H330.5L330 399L330.5 397V395L330 394L330.5 393L330 392L331 390.5H328V392L327 392.5L326 392L325 391H324.5V391.5H324V392.5L323.5 394L324.5 394.5L324 396.5L325 397.5L324.5 398.5V400.5L323.5 401.5L324 403L323 403.5L324.5 408L323.5 408.5L324 410L323.5 410.5V416L322.5 418.5V420L321.5 421L322.5 422L322 424L321 423.5L321.5 427.5L320 426.5L321 428V430L321.5 432L320.5 433.5L321 435.5L321.5 438L321 439.5L322 441.5L322.5 445L321.5 446L321 447L321.5 449.5L319.5 448L320 450H319.5L320.5 452.5L321.5 454L320.5 454.5L320 453.5L321 456L320 456.5L321 458.5L320 459L321 461.5L321.5 465.5L322 468.5L321 469.5L322.5 471.5V472.5L322 473L323.5 477L324.5 482L323 482.5L324 485L323 487L324 489.5V492L323.5 494L324.5 497L324 498L325 500L326 499.5L327.5 501L326.5 501.5L327.5 502.5V504H327L325 500.5H324L327 505H326L326.5 506H326L327 508.5H326L328 511L330 513V513.5L331.992 515.891L332 519H333.5V527L332.833 529H291.5V525.5H294V521.5H296V519.5H298V303.216L318.5 302L331.5 305Z" fill="#2200FF"/>
</svg>
