<svg width="1280" height="720" viewBox="0 0 1280 720" fill="none" xmlns="http://www.w3.org/2000/svg">
<path d="M567.966 431.016L471.5 432.5V529L483.04 529.217L463 529.5V428L567.993 426.157L567.966 431.016ZM578.5 525.5L578.018 526.464L577 526.5L578 525L578.25 524.75L578.5 525.5ZM605.5 525.5L603.945 525.554L604 525.5L604.5 524V523L604 521.5L602.5 520.5L603 520L601.5 519L601.084 518.584L601.5 518.5V430.5L599.144 430.536L599.123 425.611L605.5 425.5V525.5ZM579 523.5L578.727 523.636L578.383 523.178L578.628 523.128L579 523.5ZM1144.5 518.5L1079.5 517.5L1079 420.5L1144.5 419.5V518.5ZM915 517.5L857.5 516.5V424.5L915 423.5V517.5ZM988.5 517.5L928.5 516.5V423.5L988.5 422.5V517.5ZM1064.5 517.5L1002.5 516.5V422.5L1064.5 420.5V517.5ZM795 511H806L806.693 510.979L806 511.5L807 512L805.5 513.5L804 514.5H802L800.5 516L800.731 516.115L793.455 516.052L793.5 516L792 515L793.5 510.5L795 505.5V511ZM199.5 512.5H159.5V438L199.5 437.5V512.5ZM245.5 512.5H206L207 438L246.5 437.5L245.5 512.5ZM296.5 512.5H259.5V436.5L296.5 435.5V512.5ZM1008.5 427.5V512L1059.5 512.5L1059 426L1008.5 427.5ZM1085.5 426L1085 512.5H1138.5V425L1085.5 426ZM934.5 428.5V511.5L983.5 512V427.5L934.5 428.5ZM108 511.5H70.5L71.5 439H108V511.5ZM153 511.5H115V439L153.5 438L153 511.5ZM863.5 430V511.5H910.5V429L863.5 430ZM844.5 511L842 510L840 509.5V430L796.087 430.976L796.5 428.5L795.5 426.5L795.527 426.358L844.5 425.5V511ZM166.5 441.5V508L195.5 508.5V441L166.5 441.5ZM213 441V508.5H243V440.5L213 441ZM263.5 440L263 508.5H292.5V439.5L263.5 440ZM77.5 443.5V508H104.5V442.5L77.5 443.5ZM121 442.5V508H149V442L121 442.5ZM795 435.5H794.5L794 434L795 432.75V435.5ZM108.5 403.5L71.5 405L70 333L108.5 330.5V403.5ZM153 402L115 403.5L114 330.5L153 328.5V402ZM198.5 400.5L160 402V327.5L198.5 326V400.5ZM77.5 337L77 401L104.5 399.5V335.5L77.5 337ZM247 399L207 400.5L206.5 325L247 323V399ZM121 334.5L121.5 399.5L149.5 398.5L149 332.5L121 334.5ZM296 398L254.5 399V322.5L296 320.5V398ZM166 332V398L195.5 397V330.5L166 332ZM213 329.5V396.5L243 395.5V328L213 329.5ZM261 327V395L292.5 394L292 325L261 327ZM569.833 313.665L470 319L469.5 390L568 387.015V391.566L463.5 394.5V313.5L569.968 308.27L569.833 313.665ZM606 390.5L598.885 390.699L598.785 386.082L601.5 386L601 312L597.188 312.203L597.074 306.938L606 306.5V390.5ZM844.5 381.5L793.5 382.418V379.5L792.5 378L794 375.5L792.5 372.5L790.5 372L789 373.199V293L844.5 290.5V381.5ZM915.5 378.5L857.5 380.5V289L915.5 286V378.5ZM988.5 376.5L928.5 378.5V285L988.5 282.5V376.5ZM795 298V377.5L840 376V296L795 298ZM1064.5 374L1002.5 376V281L1064.5 278.5V374ZM863.5 294.5V375.5L910.5 374V292L863.5 294.5ZM1144.5 372L1079.5 374V276.5L1144 273L1144.5 372ZM934.5 290.5V373L983 371.5V288L934.5 290.5ZM1008.5 286.5V371L1059.5 369L1059 284L1008.5 286.5ZM1085.5 282.5V368.5L1138 367V279.5L1085.5 282.5ZM334 298V299H333V304L333.5 304.5V305H331.5L318.5 302L299 303L298 304L68.5 318H56L48 318.5V319H46.5L45.5 318.5V317.5L46 317V313.5L44 312.5V311.5L44.5 311L65 310L67.5 310.5L294 296V295L318.5 294L334 298ZM604.5 243.5V244L650 267H651L652 267.5V269L651 268.5V270L652 270.5V272L651 271.5V278L652 278.5V279H651.5V281L653 282V282.5H652V285.5L653 286.5L651.5 287L650.5 287.5L597 290L598 288.5H599.5V287.5H600L600.5 287L601 286L602 285V280.5L603 280H611.5V276L595 268.5L555.5 271V276H557.5V276.5L558.5 277L560 277.5L561 278H562.5L563 279L565 280V283.5L566.5 286.5L567 287L568 287.5V288L568.5 289L569 289.5H570L570.5 290V292H570L422.5 301L420.5 300L420 300.5L420.5 299.5H421V298.5H421.5L423.5 296.5L424 295.5V295L423.5 294V293L424 292H434V287L413 280.5L378.5 282.5V286L386.5 288.5V289.5L387 290.5L355 281.5L354 281V280.5H355L355.5 276.5H354.5V275.5H356V274L330.5 275.5L339.5 278V280H338.5V281H338V283H337V284.5L337.5 285.5L336.5 286.5H335.5V288H334V291L319 287L295 288.5V289.5L67.5 304H65L44.5 305L44 303L41.5 302V300.5L39.5 300L39 298L38 297L37.5 295.5L34.5 294V292.5L197 281L241.5 278L273.5 275.5L273 275L271.5 274.5L271 273.5L269 272.5L268.5 271.5L267 270.5L266 268L265 267.5L264 265L262 264V262.5L357 255.5V261L603.5 243L604.5 243.5ZM663 214.5V217.5H661V221H659.5V222.5L681 220.5L695 230L850 218.5L864 234.5L1198 210.5V213.5L1188 240.5L1186.5 245L1187 249L1184.5 254.5V249.5L1170 250L1151.5 251.5L1151 252L783.5 274.5L782.5 274L771 275L753.5 275.5V269L752 268V266.5H753L784 264.5H785L785.5 265L1148 242V241.5L1149 241V241.5L1188 239H1187V230L1149 232.5V233L784 257V256.5L753.5 258.5H752V256.5L750 255V253.5L747.5 252V250L746 249V247L651 253.5V246L650 245.5V244L649.5 242.5L604.5 217L356 237V230.5L354 229V228L355 227.5V220.5L354 219.5V218L351.5 216.5V215L349 214V212L347 210.5V208.5L346.5 208L344 207.5L343.5 204.5L609.5 180L663 214.5Z" fill="#FF0000"/>
</svg>
