<svg width="1280" height="720" viewBox="0 0 1280 720" fill="none" xmlns="http://www.w3.org/2000/svg">
<path d="M1151.5 526.5H1150V530H1148V534.5H1146.5V547.5L879.103 543.024L876.5 541L874.5 539.5L873 537.5H872L872.5 536L874.5 537L877 538L878 534.5L874 532.5H870L865.5 531L868.5 531.5L869 529.5L871 531L872 530L870.5 528.5L873.5 528L870.5 525L867.5 523.5L864.5 522.5L861 522H859V520L856.5 518L853.5 516.5L849.5 515.5L847 513L844.5 511V425.5L795.527 426.358L796.5 421.5L797.5 419.5L796.5 418.5L797.5 413.5L796.5 412.5V409L797 406L796.5 405.5V404L797 403L795 402L794.5 400.5L795.5 399.5L795 398.5L796 395.5L794.5 396V391L794 390.5L795 387.5H793.5V386.5L794.5 384L793.5 383V382.418L844.5 381.5V290.5L789 293V373.199L788 374L786 371.5L787 375.5L786.5 378L785.5 380L785 381.5L786 382.5L785.5 385.5V386L783.728 388.479L783.5 274.5L1151 252L1151.5 526.5ZM298.5 519H296.5V521.5H294.5V525H291.5V529L286 529.5L262 531V520.5L262.5 520V519L264 518.5L265 517L266.5 516.5L266 515L268.5 513L268.333 512.5H296.5V435.5L266.802 436.302L265.5 435L267 433.5L266 432L267.5 429L266 430L267.5 426.5L266 427.5V426L267 425L266.5 423.5L267.5 420.5L267 420V416.5L267.5 415L266.5 414.5L267 412.5L266.5 409L265.5 410L265 409L266 408V405H264.5L265 402H264L264.5 400.5L264.211 398.766L296 398V320.5L254.5 322.5V399L257.062 398.938L257 399L257.5 401.5L258 403L256.5 403.5V404.5L257.5 405.5H256V408L254 406L255 408L254 409.5L255.5 412.5L255 414V417H253.5V417.5L254.5 418.5L253.5 419.5V420L252 420.5V422.5L252.5 424L252 425.5L251.5 428L250.5 429.5L250 431.5L250.5 432.5L250 433L251 435L249 435.5V436.5L248.5 438L250 440.5V442L249.5 443V445L250 446.5V449.5L249 450.5V452.5L248.5 454L249 455L248.5 456V457L249.5 457.5L249 459L248 459.5L247.5 460L248 460.5V461.5L247.5 462.5V463.5L248 465V465.5L247.5 466.5V467.5L248 468.5L249 469L248 469.5L247.5 470L247 471.5L247.5 472V475L248 475.5L247.5 476L247 477.5L247.5 478.5V480.5L247 481.5H246V482.5L247 483.5V484.5L246.5 485L245.862 485.318L246.5 437.5L207 438L206 512.5H245.5L245.724 495.724L246 496L246.5 497L246 498L247 499L247.5 500V501.5L249 502.5L248.5 503.5V504L249.5 505.5L250 506.5L249.5 507.5L250 508.5V509.5L248.5 510L249.5 511.5V512.5L251 514V515L252 516.5L252.5 517V518L253 518.5L254 519L254.5 520H255.5L256.5 520.5V531H255V533L224.5 534.5L225.5 532.5L222.5 533.5H219L221.5 531L221 529.5L216 532L218.5 529L216.5 528.5H215V526L212.5 530L214 526H213L211.5 528L211 525.5L209 528.5L208 526L207 524V528.5L205.5 524.5L206 528.5L203.5 525.5L205 530L202.5 528L204 530.5L201 529.5L203.5 531.5L200.5 531L199.5 530L198 531V532.5L199.5 534H194L140.5 533.5L139.5 531.5H142L140.5 530.5L138.5 529.5L135.5 528.5H137.5L137 527.5L138.5 525.5L135.5 523.5L136 521.5L135 521L133 520.5L129.5 519L131.5 518.5L130 517L127 515.5L126 514L123.5 513.5L122 512.5L119.5 511.5H153L153.5 438L115 439V510.6L114.5 510.5V509L113 509.5L112.5 511H111L110 510L108 510.5V439H71.5L70.5 511.5H106L105 512L103.5 513.5L104.5 514L104 515L103 515.5L102 515L99.5 515.5L98 517L96.5 518L97 519L95.5 519.5L97.5 520.5L97 521L95 521.5L92 522.5L90.5 524L92.5 524.5V525.5L91 526H89.5L88.5 527L90 527.5L89 529L88 530L86.5 530.5L87.5 532L87 533L73 532.5L74 532H77L77.8047 531.5L78.3555 529.5H76.5L74.5 530.5L73.5 531.5H71.5V523.5L70 523V520H69.5V517.5H68.5V317.756L298 304L298.5 519ZM649.5 242.5L650 244V245.5L651 246V253.5L746 247V249L747.5 250V252L750 253.5V255L752 256.5V258.5H753L784 256.5V257L1149 233V232.5L1187 230V239L1149 241.38V241L1148 241.5V242L785.5 265L785 264.5H784.5L784 257V264.5L753 266.5H752V268L753.5 269V275.5L755.5 276.5V523H753.5V526.5H752V530.5H749.5V532.5H745.5L745 532L744 531.5L742.5 531L741.5 532H739.5L739 530H737.5L737 531.5H735.5L734.5 530L734 531.5L733.5 530L732 530.5L731 530L727.5 530.5L726.5 531.5L726 530.5L723 531H717.5L716.5 531.5L714.5 531L714 532L713 531H710L707.5 530.5L706.5 531L704 530.5L700.5 531.5L698 531L695 531.5H693L691 531L690 531.5L689.5 530.5L687.5 531.5L686.5 531V519L688.5 518.5V517.5L689.5 516.5V515.5L689 515L690.5 514.5V513.5L691 513L691.5 512V511L692 510.5V510L691.5 509.5L692.5 508.5V507.5L692 507L693 506L692.5 505.5V504.5L693.5 503.5L692 503L693.5 502L694.5 501L694 500L694.5 499L694 498L695 497.5L696 496L695 494.5L694 492.5L694.5 490.5L695.5 489V488L694.5 488.5V485.5L694 484.5L695 481.5H695.5V480H694.5L695 479L694 478L696 476.5L695.5 475.5L694 476L695 473.5L694.5 473L693.5 474.5L693 476L692.5 475.5V474.5L694.5 471.5V469.5L693 468.5L694 466.5V465L694.5 462.5L692 463L691 462.5L692.5 461.5L691.5 459.5V459L690.5 457L690 456.5V455L690.5 453.5L690 453L691 451V450L690 449.5L688.5 450.5V452L688 452.5L687.5 452V451L689 449.5L690 447.5V446H688.5L687.5 444L688 441.5H686.5L687.5 440L687 437.5L688 435L687.5 433.5L685.5 435L685 435.5L684.5 433.5L686 432L685 430.5V429.5L684.5 428.5L683 429.5L682.5 428L683 426L682.5 424.5L683 422L682 419.5L682.5 418L683 416L682 415L682.5 414L683 411L682 409L681.5 406.5V404L681 402L680 399.5V396L679 395L679.5 392.5L677.5 391V390L678 388.5L676.5 387L677.5 385V383.5H682V307L641.5 309.315V384.5L670.5 384V384.5L671 386.5L670.5 390V398L670 400L669.5 402.5V405.5L670 406.5L669.5 408.5L670 410L669 411L668 413L669 414.5L668.5 415.5L667 416L667.5 419H666.5L667 422L665.5 421.5L666.5 425L666 425.5V428L667 429V430.5L666.5 431L667 432.5L666.5 433L667 434.5H641.5V510H673.5L674 511L675 511.5V512.5L677.5 515L677 515.5L677.5 516V516.5H678.5V518L679.5 518.5V520H681L680.5 532H665L611 531V525.5H605.5V425.5L599.399 425.606L598.84 390.7L606 390.5V306.5L597.494 306.917L596.5 290.5L597 290L650.5 287.5L651.5 287L653 286.5L652 285.5V282.5H653V282L651.5 281V279H652V278.5L651 278V271.5L652 272V270.5L651 269.833V268.5L652 269V267.5L651 267H650L604.5 244V243.5L603.5 243L357 261L356.5 237.5L356 237L603.5 217H604.5L649.5 242.5ZM570 308.5L463.5 313.5V394.5L568 391.5V426L463 428V529.5H433.5V528L433 526.5L432.5 525.5L431.5 524.5L430.5 524H424.5L425.5 523.5L426.5 522.5V521L426 520L425.5 519.5L424.5 519H423.5L424.5 518.5V518H424V517.5L423.5 517H423L422 516.5L421.5 516V451L420.5 382L420 359V347.5L419.5 330L419 321L418.5 301.5L419.5 301L420.5 300L422.5 301L570 292V308.5ZM356 275.5H354.5V276.5H355.5L355 280.5H354V281L355 281.5L356.5 282L387 290.5L387.5 291V293.5L388 295L389 296L390 297.5V298L391 298.5L391.5 299.5L393 300L390.5 515.5L389.5 516.5L389 517.5H388V518H387.5V518.5L385.5 520.5V522.5L386 523.5L386.5 524L378 524.5V529H338.723L338.5 527V516L339.5 515.5L340 514.5L341 514V512.5L342.5 510L343.5 509.5L343 507.5L344.5 506H343.5V504.5L345 503L344 502.5L345.5 500.5L345 498.5L345.5 497.5L347 495.5H345.5V492.5L346 490L345.5 488.5L346.5 486L345.5 485.5V484.5L346.5 483.5L345 482.5L344.5 481L345 480L346 480.5L345.5 479L344.5 477L345 475L344.5 473.5L345 472.5L344 471.5L345.5 468L345 467L345.5 466H342.5L343 465H344V464L343 463.5L342.5 462V459.5L341.5 457.5L343.5 455.5L343 454.5L342 455.5L341.5 454.5L340 455L341.5 453.5V451.5L339 449.5L339.5 448.5H340L340.5 447.5H339L340 445L339.5 444.5L339 443L340 440L338.5 441H337V440L338.5 439L337 437L338 436L337.5 435L336.5 436L335.5 435.5L335 432V423L334.5 421L336 419L335 418.5H334.5V413.5L333.5 414.5L334.5 411.5L332.5 409.5L333.5 409L333 408L332.5 406L333 404.5L332 404L331.729 403.324L331.5 305H333.5V304.5L333 304V299H334V298L318.5 294L295 295H294V296L67.5 310.5L65 310L44.5 311V305L65 304H67.5L295 289.5V288.5L319 287L334 291V288H335.5V286.5H336.5L337.5 285.5L337 284.5V283H338V281H338.5V280H339.5V278L330.5 275.5L356 274V275.5ZM771 523.5H767L767.5 275H771V523.5ZM800.731 516.115L801.5 516.5L800.5 517.5L799 517L795.5 518.5H794L791.5 520L790.5 519.5L793.455 516.052L800.731 516.115ZM309.5 519H307V302.5H309.5V519ZM332.5 516.5L333 517.5L333.5 518V519H332L331.992 515.891L332.5 516.5ZM1079 420.5L1079.5 517.5L1144.5 518.5V419.5L1079 420.5ZM857.5 424.5V516.5L915 517.5V423.5L857.5 424.5ZM928.5 423.5V516.5L988.5 517.5V422.5L928.5 423.5ZM1002.5 422.5V516.5L1064.5 517.5V420.5L1002.5 422.5ZM159.5 438V512.5H199.5V437.5L159.5 438ZM703 434V510.5H745.5V433L703 434ZM347 439.5V508.5H380V439L347 439.5ZM246.5 494.5L245.734 494.882L245.759 493.019L246.5 494.5ZM246.5 490.5L246 491.5L246.5 492.5H245.767L245.802 489.802L246.5 490.5ZM246 487L246.5 488V488.5L245.811 489.188L245.846 486.538L246 487ZM70 333L71.5 405L108.5 403.5V330.5L70 333ZM114 330.5L115 403.5L153 402V328.5L114 330.5ZM160 327.5V402L198.5 400.5V326L160 327.5ZM206.5 325L207 400.5L247 399V323L206.5 325ZM784.5 391.5V395H783.741L783.731 390.476L784.5 391.5ZM347 325V394L380 393V323L347 325ZM703 306V382.5L745.5 381.5V304L703 306ZM857.5 289V380.5L915.5 378.5V286L857.5 289ZM928.5 285V378.5L988.5 376.5V282.5L928.5 285ZM1002.5 281V376L1064.5 374V278.5L1002.5 281ZM1079.5 276.5V374L1144.5 372L1144 273L1079.5 276.5Z" fill="black"/>
</svg>
