<?xml version="1.0" encoding="UTF-8"?>
<svg id="Layer_2" xmlns="http://www.w3.org/2000/svg" version="1.1" viewBox="0 0 1280 720">
  <!-- Generator: Adobe Illustrator 29.8.1, SVG Export Plug-In . SVG Version: 2.1.1 Build 2)  -->
  <defs>
    <style>
      .st0 {
        fill: #42f4c1;
      }
    </style>
  </defs>
  <path class="st0" d="M461.51,130.81l-106.56-30.82L240.46-5.7-3.82-6.79l.54,201.97h146.89l-2.16-82.08,167.95,86.94,42.66,30.24v19.98l-181.99-1.08,1.08,82.08h-6.48v18.9l1.62,3.78,554.07,2.16,1.08-68.04,164.71.54.54,69.12,43.74-1.62,244.11.8,3.82-2.46.27-14.47,4.09.27,3-103.72,15.83-.27,4.91-1.91h62.23v-6.28l15.33-5.34,1.8-91.93H461.51ZM257.85,143.57c-1.29.83-3.42.34-4.1-1.08-.82-1.71-1.29-3.55-1.09-5.45.17-1.68,1.24-2.92,3-3,1.5-.07,3.16,1.43,3,3,0,.05,0,.1,0,.15.53.76.67,1.77.44,2.68.49,1.4.09,2.84-1.23,3.7ZM324.11,317.15c-3.87,0-3.86-6,0-6s3.86,6,0,6ZM452.02,327.62c-3.87,0-3.86-6,0-6s3.86,6,0,6ZM706.52,328.93c-3.87,0-3.86-6,0-6s3.86,6,0,6ZM816.53,257.78c-3.87,0-3.86-6,0-6s3.86,6,0,6ZM837.92,257.78c-3.87,0-3.86-6,0-6s3.86,6,0,6ZM1050.07,327.76c-3.87,0-3.86-6,0-6s3.86,6,0,6ZM1072.31,328.29c-3.87,0-3.86-6,0-6s3.86,6,0,6Z"/>
</svg>