<?xml version="1.0" encoding="UTF-8"?>
<svg id="Layer_1" xmlns="http://www.w3.org/2000/svg" version="1.1" viewBox="0 0 1280 720">
  <!-- Generator: Adobe Illustrator 29.8.1, SVG Export Plug-In . SVG Version: 2.1.1 Build 2)  -->
  <defs>
    <style>
      .st0 {
        fill: #36abf2;
      }
    </style>
  </defs>
  <path class="st0" d="M1107.84,414.96l.57-58.04-221.72.81-.54-69.12-164.71-.54-1.08,68.04-554.07-2.16-1.62-3.78v-18.9h6.48l-1.08-82.08L-11.49,202.14l5.16,374.81,189.09-63.66-11.47-1.17.6-8.34,25.02-6.95,3.18-89.97,2.78-23.24.99-16.09h8.54v-4.97l6.55-.6-.6,5.36,7.94.2,1.19,19.26v21.65l-.2,80.43,33.37-11.72c-5.36-5.56-4.17-27.41-4.17-27.41l-4.77,3.77,1.79,3.38-3.38.4-5.56-3.77-.99-3.77-4.37-2.58,1.79-4.37-.79-2.98,2.78-2.38,3.57,1.79-.6-4.17h2.18l2.18-2.78,3.57-.4,3.18-1.59,5.56,3.57,2.98-5.36,7.55-6.55,3.18.99,8.34,1.99,3.18-.6-.79-3.57,4.77.79,5.76,3.18,2.78-.79,5.36-.2-.2-24.43,2.18-1.59,115.59-2.98,14.3,5.16,2.18,2.18v55.01l105.66-.4-.2-29,2.38-1.59.79-4.17,17.28-.2.6,4.57,2.78.79.2,30.19,5.16-.4,1.19-42.7,1.39-.99,1.59-3.77,17.08-.79.2,3.77,2.58.2v43.89h6.16l-.99-2.78-.6-22.84c-2.78-2.78,1.39-4.57,1.39-4.57,11.32-3.97,39.72-1.79,39.72-1.79l3.57,3.38-1.19,1.99v26.22h143.39l2.18-.79,1.79-22.04,1.39-5.16.2-38.33c4.97-23.44,22.04-22.84,22.04-22.84,19.46,1.59,24.23,28.2,24.23,28.2l.79,2.38,10.92,19.86-4.97,4.97-7.75.6-2.98-1.39c.79-5.76-2.98-23.63-2.98-23.63-4.97-25.22-17.87-23.63-17.87-23.63-12.71.79-14.3,15.89-14.3,15.89l-.4,39.12,1.79,6.55,8.74.79,1.39,1.39,8.14.6c7.55-2.38,6.36-13.9,6.36-13.9l1.99-1.59c.99,12.11-2.38,17.68-2.38,17.68-6.36,11.72-23.44,8.74-23.44,8.74l.2,6.95,179.93.6s-5.85-4.51-6.46-14.46c-.61-9.95,14.36-17.74,14.36-17.74,8.51-7.28,8.31-14.77,8.31-14.77l8.82.21c-.62,6.26,2.77,10.77,2.77,10.77,0,0,15.8,13.23,18.57,20.31,2.77,7.08-3.39,14.67-3.39,14.67l8.62.82.21-3.8,1.74-6.46-1.33-1.44-2.36-4.31-.72-3.8,3.59-4.51,4.82-.72,7.18.41,8.21-1.33c0-8.41,6.26-7.9,6.46-13.44.21-5.54-5.95-9.13-5.95-9.13l6.58-.29,8.29,2.86,26.88-.57c-4.86,2.86-2.86,10.01-2.86,10.01l3.43-.29,7.15-5.15ZM495.46,426.8l-.31-29.76h29.76l.46,30.07-29.91-.31ZM914.05,427.75h0l-.8-29.7,30.34-.48.64,29.54-30.18.64ZM1099.76,423.92s0,0,0,0c0,0,0,0,0,0h0ZM1105.51,421.69l2.55,3.03v25.55l-1.6,3.51-8.14-2.24c7.32-17.98,1.48-27.55,1.44-27.62.33-2.55,5.75-2.23,5.75-2.23ZM1061.91,447.71l4.79,9.58-5.43-1.27-1.28-7.03,1.92-1.28Z"/>
</svg>