<?xml version="1.0" encoding="UTF-8"?>
<svg id="Layer_1" xmlns="http://www.w3.org/2000/svg" version="1.1" viewBox="0 0 1280 720">
  <!-- Generator: Adobe Illustrator 29.8.1, SVG Export Plug-In . SVG Version: 2.1.1 Build 2)  -->
  <defs>
    <style>
      .st0 {
        fill: #b0f741;
      }
    </style>
  </defs>
  <path class="st0" d="M1284.07-6.59h0s-1043.61.89-1043.61.89l114.49,105.68,106.56,30.82h824.32l-1.76-137.39ZM363.95,28.84c-7.59,1.51-14.98,1.46-22.54-.21-1.99-.44-3.08-1.71-3.45-3.2-2.6-1.28-4.95-3.01-6.83-5.42-2.21-2.85-1.77-7.29,2.21-8.36,11.79-3.16,24.22.16,32.82,8.83,2.5,2.52,1.57,7.6-2.21,8.36ZM502.95,70.52h0c-3.32,4.8-8.17,4.31-13.43,4.01-4.83-.27-12.35.77-16.07-3-3.44-3.49-2.11-9.36,2.57-10.9,1.99-.66,4.26-.2,6.28-.04.05,0,.11,0,.16.01.32-.08.66-.14,1.03-.17,6.23-.43,11.96.8,17.67,3.25,2.36,1.01,3.2,4.81,1.79,6.84ZM665.12,73.35h0c-.29-.01-.57-.01-.86-.01-5.55,2.26-11.45,3.07-17.41,2.39-1.26-.14-2.34-.76-3.17-1.61-1.02.17-1.93-.05-2.69-.52-3.91-1.52-3.57-8.23.93-9.51,2.46-1.32,5.76-2.53,8.78-2.55,6.66-1.41,14.23-1.5,17.95,3.27,2.5,3.21,1.22,8.6-3.54,8.54ZM832.77,70.2h-.44c-2.65,2.12-5.88,3.04-9.3,3.03-4.6,1.08-9.25,1.4-14.03,0-4.26-1.25-4.76-6.79-1.19-9.14,6.49-4.27,14.21-5.89,21.76-4.74,1.37-.46,2.8-.04,3.95.87.19.06.39.1.58.16,5.35,1.65,4.39,9.85-1.33,9.82ZM966.92,74.67h0c-1.36-.5-2.92-1.57-3.14-3.15-.01-.08,0-.16-.02-.24-1.44-2.4-.99-5.81,2.48-6.32.03,0,.06,0,.09-.01,2.56-2.32,6.52-3.73,9.65-4.74,5.05-1.63,11.69-2.57,17.14-1.14,2.52-1.26,6.67.02,7.12,3.81,1.59,13.45-24.99,14.78-33.32,11.79ZM1156.18,65.11h0c-4.84,2.85-19.29,9.13-27.24,6.83-.64.23-1.28.45-1.92.69-5.12,1.91-7.48-5.68-3.26-8.26.43-1.47,1.84-2.65,3.18-3.12,7.77-2.72,15.67-4.42,23.84-5.37,1.42-.16,2.48.26,3.19,1.01,4.06.45,6.53,5.69,2.22,8.22Z"/>
</svg>