<?xml version="1.0" encoding="UTF-8"?>
<svg id="Layer_1" xmlns="http://www.w3.org/2000/svg" version="1.1" viewBox="0 0 1280 720">
  <!-- Generator: Adobe Illustrator 29.6.1, SVG Export Plug-In . SVG Version: 2.1.1 Build 9)  -->
  <defs>
    <style>
      .st0 {
        fill: #2fc6f4;
      }
    </style>
  </defs>
  <path class="st0" d="M334.18,180.33l.66,328.7-96.61,14.13-.76,2.67L-2.34,561.73-3.45,108.16l240.64,45.04.53,5.32,96.11,18.26.35,3.55h0ZM748.68,194.34h0S221.88,39.97,221.88,39.97l-25.43,62.08,508.31,116.22.29,260.61,44.09-9.75-.46-274.79ZM640.19,234.11l1.76,230.97-92.36,13.45v8.56l-214.28,33.11-.37-8.18,201.19-29.93v-251.64l5.83-2.37.05-9.26,6.03-1.95,92.15,17.25h0ZM594.6,452.32l-.43-12.97-6.49,1.01v12.83l6.92-.86h0Z"/>
</svg>