<?xml version="1.0" encoding="UTF-8"?>
<svg id="Layer_1" xmlns="http://www.w3.org/2000/svg" version="1.1" viewBox="0 0 1280 720">
  <!-- Generator: Adobe Illustrator 29.6.1, SVG Export Plug-In . SVG Version: 2.1.1 Build 9)  -->
  <defs>
    <style>
      .st0 {
        fill: #e2cb24;
      }
    </style>
  </defs>
  <path class="st0" d="M1063.56,650.98c-.62,30.71-24.06,37.65-24.06,37.65l-25.19,14.15c-3.96-5.53-12.14.33-12.14.33l-4.73-.47c5.68-26.98-7.1-32.19-7.1-32.19-21.3,17.51-24.61,31.24-33.61,35.03s-16.57,10.41-16.57,10.41c-56.33,0-99.41-19.41-104.61-32.19s17.04-24.14,43.08-32.19,36.79-36.02,36.79-36.02l7.59-16.31v.02s18.55-45.32,18.55-45.32c21.87-48.82,33.41-47.53,33.41-47.53,62.81.24,73.59,5.94,73.59,5.94,7.1,3.91,6.9,18.49,6.55,22.33s1.09,29.46,1.09,29.46c12.37,77.78,7.36,86.9,7.36,86.9Z"/>
</svg>