<?xml version="1.0" encoding="UTF-8"?>
<svg id="Layer_1" xmlns="http://www.w3.org/2000/svg" version="1.1" viewBox="0 0 1280 720">
  <!-- Generator: Adobe Illustrator 29.6.1, SVG Export Plug-In . SVG Version: 2.1.1 Build 9)  -->
  <defs>
    <style>
      .st0 {
        fill: #23a4e5;
      }
    </style>
  </defs>
  <g id="Layer_2">
    <path class="st0" d="M502.26-10.56v295.45l8.82-.86,5.69-1.55,4.91-4.39h3.62s-2.07-11.63,5.43-10.08c7.49,1.55,11.11,3.36,11.11,3.36,0,0-1.67-5.89,1.44-8.22s13.42-10.5,13.42-10.5c0,0,2.53-1.56,7,.97s7.59,4.47,8.75,7.59,6.42,8.75,4.28,8.95c0,0-12.45-4.47-22.56-1.94,0,0-4.47,2.72-1.17,4.08,3.31,1.36,4.47,2.53,4.47,2.53l15.36-.39-7.78,8.75-7.59,3.7s-3.31-3.89-3.31-6.81-3.89-3.5-5.45-.19,2.14,7.59,5.64,8.56l-4.86,1.36s-5.06-5.06-2.14-11.86c0,0,.97-6.22-3.7-2.14,0,0-3.89,9.72,3.5,15.75l-7.09-1.83-4.55,37.79-1.74,27.07c3.26.61,7.35,2.15,7.35,6.01,0,6.42-8.17,8.75-8.17,8.75,0,0,0,6.81-.97,10.89s-9.72,20.03-9.72,20.03l6.96,15.59,14.14,2.29,19.16,40.27,2.91,1.7.97-31.05,14.8-1.21,337.42,72.29-3.22,115.38,7.19-15.17,16.7-41.33s22.08-52.08,35.66-52.65c13.59-.57,63.97,1.7,73.59,5.94,9.62,4.25,5.09,29.44,7.64,51.8s9.91,66.23,7.36,86.9c-2.55,20.66-9.62,30-24.06,37.65s-25.19,14.15-25.19,14.15c0,0,8.21,12.45,5.94,20.95-2.26,8.49,8.21-1.7,8.21-1.7l3.68-9.34,7.64-1.98,3.4-3.96,4.53-.28,6.23-1.98,11.04,3.11,4.25,3.68-3.96,5.1s11.04.57,11.61,6.79c.57,6.23,8.77-.85,8.77-.85,0,0-3.68-8.77-13.59-11.61l2.26-5.94s8.21-8.77,15.57-6.79c7.36,1.98.28,6.23.28,6.23,0,0-2.83,1.7,0,3.68s-1.7,4.53-1.7,4.53l-.28,10.47,14.15-.85,4.25-8.49.57-4.25,10.19-5.94-4.53-1.7-5.38-4.81,6.51-3.96,2.26,1.7,1.42-5.09v-5.66s2.55-6.23,12.17-8.77,20.95-11.04,20.95-11.04l15.57-1.42,18.4,9.34,5.66,1.42,16.98,5.38-.57,6.51-10.47,5.94-7.64,2.55s3.68-5.38-1.98-9.62c-5.66-4.25-29.72-16.98-36.23-11.89s-6.51,6.79-6.51,6.79c0,0-11.04-5.94-15.85,5.66l-3.4,5.09-2.55,9.06s6.51-8.49,16.13-1.7l21.23-.28,5.94,3.4,14.15,8.49s7.08-1.42,11.89-8.21l8.49,4.25,5.38-4.25,5.38,10.47.28,6.79-6.23-2.26-4.68,15.17h40.96l41.45-375.51,9.75-360.88-790.04-4.88.05-.04ZM666.12,377.24l-9.85,2.11-58.37-10.9,1.05-132.21,68.57,2.46-1.41,138.54h0ZM669.64,183.5l-68.92-1.41,1.05-136.78,60.83-5.27,8.79.35-1.76,143.11h.01ZM777.59,393.77l-10.55,1.41-68.92-9.14.35-144.87,79.12,2.11v150.5h0ZM780.4,185.61l-80.17-.35.7-148.03,69.97-7.74,10.2,1.41-.7,154.72h0ZM901.01,414.17l-10.2,1.41-80.52-12.66,2.46-155.77,92.13,2.81-3.87,164.21ZM909.1,186.31h-93.18l1.76-160.34,84.04-8.44,9.14.7-1.76,168.08Z"/>
  </g>
</svg>