<svg width="1280" height="720" viewBox="0 0 1280 720" fill="none" xmlns="http://www.w3.org/2000/svg">
<path d="M239 387.5H229.5V408H220.188L223.5 404.5L224.5 403L225.5 400.5V399L224.5 396.5L223 393.5L221 390.5L222 389.5L221 388.5L219.5 389.5L215.5 385.5L212.5 383.5L210 382.5L207.5 382L204.5 383L201.5 385L198.5 388L197 391L196 395.5L199.5 398H201.5L205.5 397L210.5 395.5L215.5 394.5L217 393.5L219 392.5L220 393.5L223 399V401.5L218 408L190.5 407L172 406L173 384.5L153 385.5L152.5 198L170 200L190.5 198L207.5 196H239V387.5Z" fill="#00FF0D"/>
</svg>
