<svg width="1280" height="720" viewBox="0 0 1280 720" fill="none" xmlns="http://www.w3.org/2000/svg">
<path d="M1026 266L1034 270.5V277.5L1032.5 278H1026.5L1003 267L535 276.5L492.5 273.5V265.5L986 251.5H996.5L1026 266ZM1207.5 0L1201.5 32H1197.5L1170 163.5V169L1162 197.5L1156 237V241H1154.5V252.5H1147V259H1135.5L1125 0H1207.5ZM942.5 205L942 213.5L459 236L253.5 210V202L272.5 200V199L857.5 153.5L942.5 205ZM417.5 222.5L443 227L471 224.5L448.5 219.5L417.5 222.5ZM651.5 209.5L667.892 214.007L626.5 217L645 224L683.5 220.5L668.26 214.108L671.5 215L711.5 211.5L693.5 206L651.5 209.5ZM567 214.5L593.5 219L622.5 215.5L604.5 211L567 214.5ZM324.5 210L356 215L386.5 212.5L357.5 206.5L324.5 210ZM843.5 199L857.5 205.5L897.5 203.5L900 202.5L887.5 195.5L843.5 199ZM484 198L485 199L512.5 205L551.5 201L526 194.5L484 198ZM817 128.5V143L272.5 189L170 200L0 179V66.5L299 0H592L817 128.5ZM575.5 192L603.5 199L647 194.5L624 188L575.5 192ZM517 191L533 196L573 192.5L557 188L517 191ZM793.5 177L813 187.5L861.5 184.5V182.5L845.5 173.5L793.5 177ZM64 175.5L116 183.5L149.5 179.5L151 178L103.5 171L64 175.5ZM341.5 159.5L388.5 167L434 161L395.5 153L341.5 159.5ZM244.5 153.5L242.5 154.5L244.5 155.5L289 163L336.5 158L290.5 148.5L244.5 153.5ZM353.5 140L352.5 141L353.5 142.5L399 152L452 147L454 146L452.5 144.5L409 133.5L405.5 133L353.5 140ZM28 94.5L88 109.5L91 109L42 117.5L40.5 118.5L42 119L111.5 131.5L161.5 123.5L95.4365 109.912L147.5 99.5L82 83L28 94.5ZM630.5 108.5L629 109.5L630.5 111L664 124L732 117.5L698 100L630.5 108.5ZM158 97.5L155.5 98.5L156.5 99.5L224.5 114L286 105L284.5 104L217.5 86.5H215.5L158 97.5ZM467 43.5L527.5 68.5L606.5 56.5L549.5 28.5L467 43.5ZM309 39.5L369.5 60L456 45L455.5 43.5L401 21L309 39.5Z" fill="#3C00FF"/>
</svg>
