<svg width="1280" height="720" viewBox="0 0 1280 720" fill="none" xmlns="http://www.w3.org/2000/svg">
<path d="M272.5 200L253.5 202V210L360.5 224L360 360.5H359V368.5L358 369.5V360.5H345.5L346.366 359H340L339.33 361.5H332V371L295 373V385L267 389.5V374H239V196L272.5 194V200ZM152.5 198L153 385.5L109 387.5L104.5 374L66 374.5L68.5 384.5H55.5V375.5H45V367L43 185L152.5 198ZM492.5 273.5L535 276.5V355H484.5V353.5H481L481.5 234.5H492.5V273.5ZM458.5 236H461.779V331.5L460 334.581L458.438 335L457.5 338.5V352.5H412.5V230L458.5 236ZM1005 162H1010L1014 166.5L1022 176L996 177.5L995 180L993.5 190L992.5 202L993.5 218.5L995 224L997 226.5H1014L1014.5 230.5H1026V266L997 251.5H986V159L1005 162Z" fill="#FF0000"/>
</svg>
