<svg width="1280" height="720" viewBox="0 0 1280 720" fill="none" xmlns="http://www.w3.org/2000/svg">
<path d="M1002.5 418.5L1001 420L992.5 419.5L993.5 367.5L992 368.5H969L970 365.5H965.5L964.5 367.5H962L963.5 364.5H959.5L957.5 367.5H934.5V364.5H937L935.5 361L937 358.5L938 356L939.5 352L938 349.5L935.5 346.5L932.5 345.5H930L928 346.5L926.5 348.5L925 352L920 361L816.5 359L751.5 357.5L750.5 349.5L718 349L717 352V357.5L641 356L635.5 355.5L622 354H611.5L610.964 356L535 355V276.5L1003 267L1002.5 418.5ZM1135.5 259H1147L1147.5 307.5L1147 369.5V406.5H1140L1142.5 275.5L1034 277.5V270.5L1026 266V230H1050.5L1049 231.5L1047.5 232.5L1047 234.5V236L1048 238.5V239.5L1055 247L1057 247.5H1058.5L1060.5 246.5L1062 244V242L1059 238L1055 233L1054 231.5L1052 230.5V230H1078L1078.5 239H1070V240L1075 244.5H1092L1098 243.5L1100.5 242L1105 241L1108 237.5H1098.5L1097.5 229.5L1134 227.5L1135.5 259ZM1032 403H1026L1026.5 278H1032.5L1032 403ZM481 353.5H466L466.866 352V339.5L463.402 337.5V335.5L461.67 334.5L462 235.5L481.5 234.5L481 353.5ZM1076 264L1074 265V274.5L1074.5 275H1096L1097.5 273V263.5L1076 264ZM951 157V160L952 162V163L950.5 164.5V168.5C947.833 168.5 942.5 169.2 942.5 172C942.5 174.8 949.833 178.833 953.5 180.5H963L975.5 179L977 177L981.5 174.5L983 172.5L981.5 169.5L978 168V164.5L977 162L978 158L986 159V251.5L492.5 265.5V234.5L942 213.5L942.5 205L926 195.5V154L951 157ZM1076.31 262.5H1095V248.5H1076.31V262.5ZM1063 246.5L1061 249V252.5L1067.5 258.5L1069 259H1070L1071.5 258L1073 256V254L1072.5 252L1067 246.5L1065 246L1063 246.5Z" fill="black"/>
</svg>
