<?xml version="1.0" encoding="UTF-8"?>
<svg id="Layer_1" xmlns="http://www.w3.org/2000/svg" version="1.1" viewBox="0 0 1280 720">
  <!-- Generator: Adobe Illustrator 30.0.0, SVG Export Plug-In . SVG Version: 2.1.1 Build 123)  -->
  <defs>
    <style>
      .st0 {
        fill: #e256a9;
      }
    </style>
  </defs>
  <path class="st0" d="M372.56,519.85c.21-.33.44-.65.71-.92l-.71.92ZM421.57,361.35l.39,159.48-6.58,1.47-2.7-6.68s7.96-.64,7.32-6.8c-.64-6.17-7.83-5.78-7.83-5.78,0,0,.13-3.21-1.41-4.24-1.54-1.03-17.33-3.21-27.73-1.54-10.4,1.67-10.4,5.01-10.4,5.01,0,0-3.34-.39-5.52,1.28s.9,3.08.9,3.08c0,0,1.93.9,0,3.85-1.92,2.95,1.03,6.42,1.03,6.42l-6.16,9.63s-1.28,1.93.39,2.95c1.67,1.02,3.85-2.57,3.85-2.57l5.45-7.04c-2.6,3.97-1.71,11.46-1.71,11.46l-132.49,26.35c-7.95,3.48-4.47,11.68-4.47,11.68l-131.44-24.29-4.51-1.44-.72-462.96.7-3.48,138.82-43.61,9.38-.22,82.19,30.6-.45,274.5,2.23.45-.13,16.43c-.24,6.27,5.07,6.03,5.07,6.03l86.53-.04v.02ZM230.86,557.7l-.63-3.3s-7.06.48-7.85-17.27c-.78-17.75,8.17-20.73,8.17-20.73,0,0,.79-8.48-1.41-8.64-2.19-.16-2.98,2.98-2.98,5.18s-6.29,8.16-8.17,19.47,5.81,22.3,5.81,22.3c0,0,2.04,3.76,3.3,6.12,1.25,2.36,3.45.63,3.45.63h0s.31-3.76.31-3.76ZM1130.81-2.47h-.01l.5,358.91v252.15l1.64,120.12,21.69-2.85s-.69-5.9,3.59-7.98l-.23-6.02-2.66-16.08-.35-17.81,2.31-21.86,1.04-6.48-2.89-5.44-1.5-6.02s.12-6.71,5.78-8.1,7.75,10.18,7.06,12.84-4.4,4.51-3.59,10.64,3.7,25.8,3.7,25.8v14.11l-2.66,17.58s-1.39,5.9-.23,7.87l1.16,1.97,117.08,1.02.69-725.72-152.12,1.35Z"/>
</svg>