<?xml version="1.0" encoding="UTF-8"?>
<svg id="Layer_2" xmlns="http://www.w3.org/2000/svg" version="1.1" viewBox="0 0 1280 720">
  <!-- Generator: Adobe Illustrator 30.0.0, SVG Export Plug-In . SVG Version: 2.1.1 Build 123)  -->
  <defs>
    <style>
      .st0 {
        fill: #9b55e5;
      }
    </style>
  </defs>
  <path class="st0" d="M97.94,543.62l4.51,1.44-.54,1.26-4.35-.73.02,183.14-9.11,11.27V83.35l8.75-2.69.72,462.96ZM422.52-1.07l-252.99-7.34,37.56,13.66,27.73-8.76,85.77,34.91L422.34.56l.18-1.62ZM955.41,357.59l-20.31-2.68.77,158.64,1.92,8.43,2.3,1.92,3.45,5.36c12.65-.38,15.71,5.36,15.71,5.36l-.77,52.88,172.82,21.08v-252.15l-175.89,1.15ZM890.65,577.16l.38-17.63-11.88-1.92s11.5,11.88,11.5,19.54ZM549.02,74.22l-17.34,5.52.14,258.57-1.48,7.24s-.19,6.87.19,10.76c.37,3.9-5.01,4.64-5.01,4.64l-15.4.19.74,30.99-3.16,4.08-18.19.37-4.83-3.53-.56-31.55-62.55-.19.39,159.48,15,2.08-4.47-33.04-1.14-2.28-2.13-3.88-5.63-2.89,1.22-3.35h3.58l.69-3.27-4.87-2.82-1.52-5.63,4.64.61,5.18,6.09.84-1.29-2.21-2.82,1.14-3.96,4.42,1.75,4.19-.23,1.07-2.67h-4.19l-1.22-1.75,6.17-3.5,1.68.76,1.75-4.26,5.33-4.04.91,3.35-4.34,4.42,4.04-.69.23-1.68,2.59-1.83.15,4.19,1.83,2.67,2.7-3.93,4.18,2.46.74,3.2,2.46.74.49,3.69,4.92-1.97c-.74-4.67,2.21-5.41,2.21-5.41v-3.93l1.47-2.46,3.69,1.72v-5.65l4.42-1.47,7.86.98.25,8.36.49,10.57,2.21-1.47c4.18,1.23,2.21,4.67,2.21,4.67l2.46.25.49,2.46-3.93.98v56.04l297.13,36.95c5.75-12.65,19.16-17.63,19.16-17.63l-262.41-29.09-1.05-446.65Z"/>
</svg>