<?xml version="1.0" encoding="UTF-8"?>
<svg id="Layer_1" xmlns="http://www.w3.org/2000/svg" version="1.1" viewBox="0 0 1280 720">
  <!-- Generator: Adobe Illustrator 30.0.0, SVG Export Plug-In . SVG Version: 2.1.1 Build 123)  -->
  <defs>
    <style>
      .st0 {
        fill: #aee058;
      }
    </style>
  </defs>
  <path class="st0" d="M935.1,354.91l-1.27-1.34.14-7.66s2.89-4.34,1.3-10.41-1.88-10.27-1.88-10.27l.72-3.33-3.04-.43-2.22-329.2-379.85,81.95,1.05,446.65,262.41,29.09s22.51-10.86,38.06-4.28c0,0,13.71-3.99,20.4,7.99,0,0,4.89-.18,8.22,3.96l11.88,1.92-.67-7.38-.81-6.48s-1.89-5.94,3.51-5.94h5.4s-1.89-5.67,1.89-6.48,5.67-3.78,5.67-3.78l-.27-2.16-4.59.54s0-4.59,5.94-4.59l-2.43-3.51s.81-2.43,5.13-1.08l1.35-3.51,1.62-2.16h3.51l1.08,4.05s4.05-2.43,6.48.54l4.05,5.67s.39-5.22,5.13-3.24c0,0-3.27-7.5,2.82-6.45l.04-.04-.77-158.64ZM904.37,497.02h0s-190.56-13.41-190.56-13.41l-1.19,8.04s-.3,13.1-5.36,16.97l-13.4-.6-5.06-6.25-1.79-.3-4.17,2.08-24.41,1.19-18.16-1.49-2.98-4.47-1.79-5.95-2.68-16.38-8.34-.3v-138.75l-5.95-1.79,5.06-5.36-16.67,6.85,14.89-8.63,1.19-4.76-3.99-.59-4.48.68-8.96,10.03-2.53,2.73,1.07-3.02,8.47-10.42-3.21-3.6,1.85.29,2.63,2.43,3.51-.68-1.07-3.21,1.17-.49,3.02,2.92,4.28-.29-2.34-7.85-3.17-4.39-9.75-1.22-5.61,9.26-3.9,10.72-1.46,11.21,2.44,8.29,1.95,6.09-5.85-8.53-1.95-11.21,1.71-11.94,1.71-4.87-8.04,10.48-9.51,9.26-4.39,8.04-1.22,10.97-3.41,5.36,1.95-15.6,1.95-10.72,6.09-11.21,8.53-6.34-9.02,13.89,8.29-8.04,7.07-8.77,7.56-6.82-13.89,5.61-11.94,9.26-2.92,8.04-5.36,1.95h-5.61l9.26-3.41,2.68-5.85-6.34,2.92,9.75-10.48,3.66-3.41-7.07-3.41-2.92-5.12,5.85,3.41,6.09-4.63-11.46-11.21,11.46,8.04-.24-5.61,2.92,3.41-.24,3.9,4.87,1.71,2.19-2.68,5.36.97-5.61-6.09,4.87,1.46,8.29,7.31,7.07.24,7.56,3.9-9.26-8.04,11.94,6.34.73-1.71,3.9.97,3.41.49-5.61-3.41,4.14-.97-6.09-2.68,3.17-.97-5.61-1.95,1.95-2.92-6.34-2.44-7.8-.73-6.34,2.92-2.19,1.22,3.66-4.87,8.04-2.92h-7.8l-5.36,2.19-5.12.49,9.26-4.39,7.8-1.22h5.85l2.44.73-4.14-3.17-2.44-3.41,2.92-1.46-3.17-1.46.97-1.46-4.87-3.9,3.17-.24-3.41-3.66,2.44.24-1.95-4.63,1.71-2.92,4.39,7.56,6.84,11.98V123.64l280.47-48.23v421.61Z"/>
</svg>