<svg width="67" height="67" viewBox="0 0 67 67" fill="none" xmlns="http://www.w3.org/2000/svg">
<path d="M16.7791 61H49.7791C51.9671 61 54.0655 60.1308 55.6127 58.5836C57.1599 57.0365 58.0291 54.938 58.0291 52.75V19.75C58.0291 18.2913 57.4496 16.8924 56.4181 15.8609C55.3867 14.8295 53.9877 14.25 52.5291 14.25H47.0291V8.75C47.0291 8.02065 46.7393 7.32118 46.2236 6.80546C45.7079 6.28973 45.0084 6 44.2791 6C43.5497 6 42.8502 6.28973 42.3345 6.80546C41.8188 7.32118 41.5291 8.02065 41.5291 8.75V14.25H25.0291V8.75C25.0291 8.02065 24.7393 7.32118 24.2236 6.80546C23.7079 6.28973 23.0084 6 22.2791 6C21.5497 6 20.8502 6.28973 20.3345 6.80546C19.8188 7.32118 19.5291 8.02065 19.5291 8.75V14.25H14.0291C12.5704 14.25 11.1714 14.8295 10.14 15.8609C9.10852 16.8924 8.52905 18.2913 8.52905 19.75V52.75C8.52905 54.938 9.39825 57.0365 10.9454 58.5836C12.4926 60.1308 14.591 61 16.7791 61ZM14.0291 34.875C14.0291 34.5103 14.1739 34.1606 14.4318 33.9027C14.6896 33.6449 15.0394 33.5 15.4041 33.5H51.1541C51.5187 33.5 51.8685 33.6449 52.1263 33.9027C52.3842 34.1606 52.5291 34.5103 52.5291 34.875V52.75C52.5291 53.4793 52.2393 54.1788 51.7236 54.6945C51.2079 55.2103 50.5084 55.5 49.7791 55.5H16.7791C16.0497 55.5 15.3502 55.2103 14.8345 54.6945C14.3188 54.1788 14.0291 53.4793 14.0291 52.75V34.875Z" fill="white"/>
<rect x="13.7791" y="33.5" width="39" height="22.5" rx="1.5" fill="#ED276E"/>
</svg>
