<?xml version="1.0" encoding="UTF-8"?>
<svg id="Layer_1" xmlns="http://www.w3.org/2000/svg" version="1.1" viewBox="0 0 1280 720">
  <!-- Generator: Adobe Illustrator 29.5.1, SVG Export Plug-In . SVG Version: 2.1.0 Build 141)  -->
  <path d="M0,32.99V0h260.07l167.99,183.28,590.7,3.29,31.84-16.47,229.4-1.1v310.65l-18.83,1.45,3.38-281.88-142.71-1.29-4.19,305.4,52.19.64,2.26,5.15,4.51,6.77,6.44,4.51,1.29,5.48h-139.81l-20.94-7.09-2.58-53.48,2.58-27.06v-9.5l-42.64-3.5-86.38-.36v-31.65h-24.16v6.77l-6.52.48v24.4l-5.32,1.21v-3.14l2.17-.48.97-3.14-1.21-3.38-3.14-1.93v-13.53l-12.56.24v12.32l-2.66-2.66-3.14-.48-3.38,2.66-2.66-2.42-4.11,1.69-1.93,4.11,1.45,4.59,4.59,4.11h-145.69l-35.28-.48-1.21-39.87v-14.01l-4.11-11.6-3.38-6.28-6.04-3.38-5.56,1.21-4.83,4.83-3.87,9.18-1.69,14.74v34.07l-.48,7.25,2.9.72.97-2.17.24-16.43,21.74.97v21.5l-51.46.24-8.21.24-160.43.24,3.14-3.62,1.93-3.62-4.59-3.87-2.42-2.66-6.77.97-2.17,2.66-6.04.72-.48,4.59,5.32,5.07h-126.12l-27.06,2.9-3.38-251.76L0,32.99M646.92,400.97v-30.6l-2.26-8.7-3.22-6.44-3.87-2.26h-3.54l-3.54,3.7-3.38,5.8-2.26,5.48v32.38l22.07.64ZM793.98,183.39v40.11l-10.31,2.58v5.41l24.6.05-.28-5.94-2.58-2.9h-8.38v-39.3h-3.06ZM702.97,183.39l-.32,39.46-9.66,2.74-.13,5.64,24.12.11-.15-6.23-2.74-2.09h-8.21v-39.62h-2.9ZM611.16,183.39l-.16,39.3-8.7.16-2.42,2.42-.06,5.26,24.08.18-.17-5.28-3.06-2.26-6.93-.81v-38.98h-2.58ZM267.99,228.01l1.21,141.83,1.81,1.81h300.68v-36.93l130.15-1.61,1.61,38.54h297.99l1.61-139.69-299.92-.64-435.14-3.3ZM1023.83,527.36v11.11l19.17,7.73h149.64s2.42-3.7,2.42-3.7v-2.42l-8.21-1.13-4.67-2.9-2.9-2.42-136.75.32-18.68-6.6ZM1202.3,546.21h8.86l-3.06-3.06h-5.15l-.64,3.06ZM260.53,370.48h-108.59v58.95l109.37-.68-.78-58.27Z"/>
</svg>