<?xml version="1.0" encoding="UTF-8"?>
<svg id="Layer_1" xmlns="http://www.w3.org/2000/svg" version="1.1" viewBox="0 0 1280 720">
  <!-- Generator: Adobe Illustrator 29.5.1, SVG Export Plug-In . SVG Version: 2.1.0 Build 141)  -->
  <path d="M21.93,0h1258.07v159.18l-1.94,5.32-5.07,7.49-6.04,3.62-.72,8.46,2.17,9.18-2.17,28.99-.48,22.47,7.01,7.25-.48,7.73-2.17,9.91,2.42,5.56,2.9,8.21,4.59.72v372.32l-141.34-67.17h-23.19l-2.9-9.66-1.93-12.08,2.17-7.97,3.62-9.91-1.45-8.94-3.14-3.62-4.59,1.45-3.62,6.28-2.9,7.73-2.66-1.93-.48-222.76,36.97.24,19.09-3.62v-56.3l-9.18-2.42-37.93-.24-31.41.97-36.48,3.87.48,54.6.48,2.9,51.46.24v221.07s-4.83,3.38-4.83,3.38l-7.25-.48-21.02-1.21-18.85,1.45-4.11-8.94-3.87-5.56-4.35-1.21-2.17,4.35,1.21,8.21,3.14,7.97,2.17,7.25-1.69,5.32-5.32,13.29-2.66,5.32h-17.64l1.69-109.45-43.25-16.19-16.67.97-9.42-9.42,6.77-17.15-14.5,3.38-27.06,4.11h-22.47l-14.26-2.17-12.56-4.59-13.05-5.56v16.91l-34.79.48-10.15-3.87v-7.25l-40.35-.24-4.59,3.38-10.63-3.38-12.81.97-3.87-3.62-3.87,1.93-8.21.72-5.56-2.9-6.04-1.69-5.56,4.59-16.19.72-4.35,7.73-24.16-.24-5.07-15.95-14.26,7.49-30.68,2.66-24.16.97v-8.7l-3.38.24-12.08,5.8-12.32-3.38-6.28-2.42,3.87,11.84h-12.81l-22.23-1.45-29.48-5.32h-3.62l7.01,20.3-28.27,1.69-37.21,17.64,4.59,108.48h-53.64l-1.21-118.15-2.42-1.69,2.66-7.01,3.38-6.52,6.04,6.77-.48-8.7,6.28-7.97,5.56-10.39,12.08-7.97,6.52-8.94,6.04-5.56-.97-12.56,5.8-4.83,6.04-6.52,3.38-3.38-.97-5.32,3.62-2.17,1.93-4.35.48-9.18,4.11-4.35,4.83-4.11.97-2.66-5.8-3.14-6.04-.72,2.66-7.49-.24-7.01-14.98,11.11-6.52,7.97-7.01,3.87,2.17-9.66,5.07-9.18-.48-8.94-4.59-3.62-2.66,5.32-3.62,7.73-4.35,13.53-13.05,19.33-2.42-7.25-.48-8.21,2.66-7.01,4.35-2.66-3.14-10.39,4.11-3.38,2.66-4.35-4.83-1.21,1.21-8.21,1.45-7.25,5.07-4.11-2.42-1.93-5.32.97.72-4.35-8.94-5.32,1.21-5.8-8.46,7.25-4.35,7.25-6.04,10.39-2.9-4.59-1.45-6.28,2.66-8.46-2.17-8.21.72-6.77-3.62,1.93-3.87,5.07-1.69,10.87-1.69,3.62-.72,10.15-6.77,1.21-3.62,3.62-4.11-1.45-.24-8.46-2.42-13.05-2.17-12.08-4.59-7.73.72,7.73-4.11,6.04,3.14,9.66-4.59,1.21v4.11l5.32,5.32.97,4.35-2.66,6.28-9.42-11.36v-7.49l-5.32-7.25-.24-5.56-12.56-8.94-3.14,3.38,3.38,4.35-5.32,4.11-3.87-2.17-4.83-1.21-5.56,6.04-1.21,4.35,7.97,7.01h3.38l2.42,3.62-1.93,3.62,4.11,13.05-5.56-2.9-4.83-1.21-6.52.72,6.28,6.77-5.32,2.17-2.17-.97-5.07-2.42-3.87-.72-3.38,5.56v9.18l9.42,9.66-.72,4.83,1.45,7.01,3.38,2.17,5.07,5.32-6.77,4.59,11.36,4.59,5.32,3.38-5.56,2.42-2.17,3.62,9.91-1.93v6.04l3.14,1.21,4.83,5.07-2.17,1.69-6.04,2.42-3.87,4.59.48,6.04,10.63-4.59,6.52-4.83,2.9,2.9-7.25,6.04-.48,7.25-11.6.97-5.32,4.83h10.63l9.91,6.04,7.25,12.56,7.97,8.21,1.93,6.28-4.59,9.42-1.21,57.74-60.4-7.73-1.21-6.28-2.66-7.97-4.35-5.32-7.25-7.25-7.73-5.4-7.97-.89h-20.54v-2.42l-4.35-4.83-8.21-6.04-7.01-3.38-10.15-2.66-14.01-3.62-15.14-2.58-22.87-.64-24.48,1.93-19.65,3.87-12.89,2.9-9.34,2.9-17.07,7.73-12.56,7.73L21.93,0M283.6,341.03l11.36,11.84h5.8l-2.66-5.92-14.5-5.92ZM352.21,459.18l3.87-7.25-3.38-8.7-3.62,5.32-5.56,2.17-2.17,7.25,3.62,8.7h7.73l-.48-7.49ZM1112.08,541.45h-2.9l-2.9,4.47-3.26,7.25-.97,3.62,8.58,5.44,1.45-8.82v-11.96ZM1030.05,541.45h-2.17v8.58l3.99,6.4,5.68,3.38h1.81l-1.21-4.23-3.74-8.7-4.35-5.44ZM789.17,90.36c-56.84,0-102.93,46.08-102.93,102.93s46.08,102.93,102.93,102.93,102.93-46.08,102.93-102.93-46.08-102.93-102.93-102.93ZM610.86,190.87c-56.84,0-102.93,46.08-102.93,102.93s46.08,102.93,102.93,102.93,102.93-46.08,102.93-102.93-46.08-102.93-102.93-102.93Z"/>
</svg>