<?xml version="1.0" encoding="UTF-8"?>
<svg id="Layer_1" xmlns="http://www.w3.org/2000/svg" version="1.1" viewBox="0 0 1280 720">
  <!-- Generator: Adobe Illustrator 29.8.1, SVG Export Plug-In . SVG Version: 2.1.1 Build 2)  -->
  <!-- Combined from Living Room 7 walls: front-wall, right-wall (excluding table and roof) -->
  <path d="M535.19,539.81l5.64,3.13v8.46l-42.64-.63.31-5.33-.94-5.64-3.13-.31-1.25,4.08h-3.76l-.31-99.38,5.64,3.13,3.76,1.25,3.76-3.45v-5.02s-2.82-6.27-9.48-1.74l-2.4-.53-2-3.2-353.69.48-1.93,2.9.24,32.4h-40.37l-3.38-15.71-1.45-10.64-2.18-7.01-5.08-5.56-12.57-2.42,1.69-42.79,6.29-39.65,3.63-47.63,3.14-53.91-.48-66.24-.82-79.53,454,1.99,1.78,12.75-1.03,36.68-3.1,22.22-397.31-2.58-1.03,245.93-40.82,1.55,4.65,7.23,415.3,1.55,4.7,5.64.63-5.02,3.45-.94,15.99.63.94,31.04s-6.9,2.19-9.09,15.99-6.27,32.6-6.27,32.6l-4.7,5.33-2.19,2.51,3.13,2.19s-10.97,15.36,6.58,16.93l8.15,6.27ZM81.41,99.32h.02s0-.02,0-.02l-.02.02ZM777.83,82.61l-9.24.3,3.45,108.36,5.97,167.72-.18-276.38Z"/>
  <path d="M1284.78,220.23l-202.36,45.82.55,244.36,189.27,37.09-7.64,10.91-241.01-47.17.64-8.9s14.44-5.17.65-12.72v-22.42s4.53,1.08,4.96-3.02,0-65.1,0-65.1l-4.1-5.17-1.08-3.88-2.16.43-2.16,5.39-2.8,3.66-.43,63.81s.65,3.88,4.53,3.88l-.22,22.2s-7.76.86-6.68,6.68c1.08,5.82,6.47,5.6,6.47,5.6l-.13,9.06-75.19-14.72-.13-3.18s8.62-3.88-.43-10.78l-.22-19.19s4.74,1.72,3.66-9.92l-.43-53.46-2.8-3.23-1.08-8.62-1.51-1.29-3.66,11.64-1.72,1.29.43,61.87,4.74,2.37.43,18.97s-7.76-1.29-6.04,5.39c0,0-.65,4.31,6.25,5.17l.22,2.51-48.01-9.4.5-19.4-5.29-4.03h-10.08l3.78-11.84,8.31,10.33,5.54,4.79,5.54.25,8.31,6.8,4.28-3.78-8.06-11.59,9.82,6.3v-8.31l-6.05-11.84,4.03,1.76,1.76,5.79,8.31,5.04-2.77-5.54-4.03-16.37-6.3-4.79,4.79-8.56-2.27-.25-11.84-11.08-5.54-.25-6.05,5.79-1.01,6.8,3.78,5.04-4.03.5v2.77l-6.05-1.01-3.27-3.78-4.53-7.05,4.53-2.52v5.54l1.76-3.53,3.53-8.06,4.03-1.76,10.08-7.31,2.27-3.78,4.28-1.01,3.78,2.77-1.51-5.54-7.31.25-16.12,13.35-7.31,1.76-2.27,5.79-2.27-3.27-1.26-6.05,5.54-9.57,5.29-6.3s-10.33,8.06-16.12,9.82c-5.79,1.76-13.1,13.6-13.1,13.6-1.62-.61-3.08-.61-4.37-.23l-6.21-5.06c-3.78-5.29-9.82,1.01-9.82,1.01l-6.05,3.02-7.31,7.81-6.8,8.06-4.28-2.52c.25-12.34,14.11-14.11,14.11-14.11-3.27-5.29-11.84-1.01-11.84-1.01l-.25,3.78-2.02,3.02-2.02,5.79.76,5.79,3.78,1.51,2.02,2.02-5.04,3.02-5.79,7.05-1.01,8.31,4.79-3.53v-5.04l2.02-2.77.5,4.03,5.04,1.76,6.3-5.54,1.26-4.79,2.27.76,7.31-9.82,4.75,2.05-2.84,4.93-4.18.45-5.08,5.08-4.18,4.63,1.49,7.76-4.48,11.5.15,5.97-2.09,4.93-19.98-4.66,9.33-48.96-.74-1.86h-14.33l4.65-5.58,10.61-6.33,13.03-1.12.93-4.65-8.93-.93,5.03-3.54-8.38.56,3.54-2.05-5.58-.56,12.66-4.09,19.92.19,11.54,3.35-5.58-4.28,5.77.56-3.16-1.68-14.52-2.42-15.08.19,22.52-9.86-20.1,3.16-14.33,5.96-6.14-3.91-3.35-7.82,14.33-.37-15.26-3.72,18.61-5.58-15.26.74,4.47-4.09,15.26-9.31,14.7-4.28-4.47-.37-11.17,2.61,11.91-6.89-16.19,1.3-10.8,6.7,2.79-4.84-5.21,4.09-6.33,6.89,1.12-8.93-2.05,1.68-2.61,6.7-2.05-5.96-1.86,7.63-2.79-2.79-.74,7.44-3.62-1.82-.18-276.38L858.29-6.2l427.03.07-.55,226.36ZM846.04,439.49l-3.39-2.32-9.64,8.21-3.03,3.21-4.46,2.86-.36,2.5,5.53.18-.89,3.57-3.93,2.32h-2.86l-1.96,4.11.18,9.61,20.53,3.77-.89-17.13,3.03-.54.89-9.46-.71-3.93,4.28-3.03-2.32-3.93Z"/>
</svg>
