<svg width="67" height="67" viewBox="0 0 67 67" fill="none" xmlns="http://www.w3.org/2000/svg">
<path d="M65.1421 11.3626C64.8227 9.92643 64.8029 9.74031 61.5781 9.74031H58.3362L57.6881 7.95963C56.8327 5.37639 53.9577 2.91459 51.0933 2.19651C49.4354 1.78203 43.5297 1.70943 29.1167 1.80975C10.997 1.93647 9.25066 2.03943 7.4581 2.84595C3.4453 4.64907 1.2343 9.19515 2.41966 13.1987C3.2473 15.9892 4.98706 18.055 7.4581 19.1651C9.24934 19.9703 10.9957 20.0548 29.1153 20.1802C43.5271 20.2818 49.4341 20.167 51.0907 19.7512C53.9643 19.0318 56.8314 16.4815 57.6947 13.8745C58.3454 11.9143 58.3745 11.8945 60.4997 12.0345L62.6447 12.1757L62.7872 18.942L62.9285 25.707L56.6413 27.192C53.1882 28.0091 48.8625 29.0532 47.0317 29.5139C45.2022 29.9733 40.7683 31.0517 37.1792 31.9097L30.6531 33.4713L30.6518 36.898C30.6505 40.3036 30.9488 40.3353 28.9147 42.0354L27.1802 43.7448V65.1803H36.4202V43.7448L34.5313 42.013C32.517 40.3287 32.5539 40.2059 32.7071 37.6147L32.9064 34.951L35.2349 34.3715C36.5034 34.0507 40.5439 33.0687 44.2043 32.1829C47.8646 31.2999 54.1491 29.7832 58.1633 28.8117L65.4602 27.0481V20.0152C65.4602 16.1502 65.3163 12.1599 65.1421 11.3626ZM33.4832 59.4198C33.4832 60.5313 33.2733 60.7609 32.1434 60.8784C30.7205 61.0236 30.1053 60.3187 30.4089 58.8931C30.5277 58.3374 31.0175 58.0972 32.0312 58.0972C33.3195 58.0985 33.4832 58.249 33.4832 59.4198Z" fill="white"/>
</svg>
