<svg width="33" height="35" viewBox="0 0 33 35" fill="none" xmlns="http://www.w3.org/2000/svg">
<path d="M1.94118 35C1.39118 35 0.930471 34.8133 0.559059 34.44C0.186353 34.068 0 33.6065 0 33.0556V25.2778C0 24.7269 0.186353 24.2647 0.559059 23.8914C0.930471 23.5194 1.39118 23.3333 1.94118 23.3333C2.49118 23.3333 2.95253 23.5194 3.32523 23.8914C3.69665 24.2647 3.88235 24.7269 3.88235 25.2778V33.0556C3.88235 33.6065 3.69665 34.068 3.32523 34.44C2.95253 34.8133 2.49118 35 1.94118 35ZM7.76471 31.1111C7.21471 31.1111 6.75335 30.9244 6.38065 30.5511C6.00924 30.1791 5.82353 29.7176 5.82353 29.1667C5.82353 28.6157 6.00924 28.1543 6.38065 27.7822C6.75335 27.4089 7.21471 27.2222 7.76471 27.2222H15.5294C16.0794 27.2222 16.5408 27.0356 16.9135 26.6622C17.2849 26.2902 17.4706 25.8287 17.4706 25.2778V19.4444H7.76471C7.11765 19.4444 6.6 19.1936 6.21176 18.6919C5.82353 18.189 5.72647 17.6134 5.92059 16.9653L10.5794 1.40972C10.7088 0.988426 10.9353 0.648148 11.2588 0.388889C11.5824 0.12963 11.9706 0 12.4235 0H26.4C26.8529 0 27.2412 0.12963 27.5647 0.388889C27.8882 0.648148 28.1147 0.988426 28.2441 1.40972L32.9029 16.9653C33.0971 17.6134 33 18.189 32.6118 18.6919C32.2235 19.1936 31.7059 19.4444 31.0588 19.4444H21.3529V25.2778C21.3529 26.8981 20.7868 28.2755 19.6544 29.4097C18.5221 30.544 17.1471 31.1111 15.5294 31.1111H7.76471Z" fill="#DF1525"/>
</svg>
