<svg width="33" height="39" viewBox="0 0 33 39" fill="none" xmlns="http://www.w3.org/2000/svg">
<path d="M21.0567 39C20.577 39 20.0974 38.9126 19.6177 38.7378C19.1381 38.5617 18.7064 38.2822 18.3227 37.8994L15.6366 35.2196C15.2849 34.8687 15.0214 34.4782 14.8462 34.0482C14.6697 33.6169 14.5654 33.1779 14.5334 32.7313C14.5015 32.2847 14.5571 31.838 14.7003 31.3914C14.8449 30.9448 15.061 30.5301 15.3488 30.1472L15.6366 29.7644L0 7.46503L7.48256 0L31.8968 24.3571C32.2805 24.7399 32.5606 25.1623 32.7372 25.6242C32.9124 26.0874 33 26.5583 33 27.0368C33 27.5153 32.9124 27.9939 32.7372 28.4724C32.5606 28.9509 32.2805 29.3816 31.8968 29.7644L23.7427 37.8994C23.359 38.2822 22.935 38.5617 22.4707 38.7378C22.0077 38.9126 21.5363 39 21.0567 39ZM21.0567 35.1718L29.1628 27.0847L26.4767 24.3571L18.3227 32.492L21.0567 35.1718Z" fill="#DF1525"/>
</svg>
