<svg width="1280" height="720" viewBox="0 0 1280 720" fill="none" xmlns="http://www.w3.org/2000/svg">
<path d="M980.5 0L979 3L977.5 7.5L976 12.5L979 9H981.72L981.5 520L978.5 515.5L975 512.5L973 511L970.5 510.5L972.5 515.5L974.5 518.5L978 521.5L979.5 523.5L981.5 525V529.5L977.5 528L973.5 526L976.5 529L980.5 531.5L979 532H954.5V527.5L956 524.5L956.5 521.5L957 520L957.5 515.5L958.5 510.5L955 514L952.5 517.5L951 521.5V523.5L949.5 526.5L947.5 529.5L946.5 532H930.5V524L930 520V517.5L930.5 513V509L931.5 506L929 507.5L926 510.5L924 513.5L923 518.5L922.5 522.5L921.5 532H897.5L895 528L892 524H889.5L887.5 524.5L883.5 532H879.5V458.5L879 456.5L878.5 452.5L879.5 417L879 411H866V405.5L865.5 373L863.5 370H854.5L853.5 3H854.675L858.5 8L863.5 14L871 21L875 26L878 28.5L875.5 24.5L872.5 17.5L870.5 11.5L869 7.5L867 2L865 0H980.5ZM291.5 0L293 91.5V156L294 255L294.5 361.5V480L285 479L277 483L274.5 485V487L281 485.5L287.5 485L294.5 484.5V500.5L291.5 507L287 505.5L285.5 503.5L280.5 498.5L277 497.5H274L269.5 494.5L268 493L269 490.5L264.5 493L258.5 492.5L255.5 493L249 497.5L252 498.5V503.5L254.5 498.5L257.5 497.5L258.5 502L261 503.5L263 507L264.5 498.5L272.5 502V505L268 506.5H265.5L261 509L263 512.5L261 514.5L263 517.5H259.5L255.5 515.5V512.5L258.5 509V505.5L256.5 508L253.5 505.5L251 512.5L253 514H238.5L241 509L246 503.5L249 498.5L247 494.5L242 489.5L238.5 490.5L234 487.5V492.5L231.5 494.5L235.5 496.5L238.5 500.5L238 503L235.5 503.5L231.5 507L234 509L232.5 510.5H224L222.5 511.5L221 105.5L217.5 0H291.5Z" fill="black"/>
</svg>
