<svg width="1280" height="720" viewBox="0 0 1280 720" fill="none" xmlns="http://www.w3.org/2000/svg">
<path d="M706 504H650.5V452H706V504ZM641.5 503.5H586V451.5H641.5V503.5ZM664.5 465V490H692V465H664.5ZM599.5 464.5V489H628V464.5H599.5ZM642 435H586V359H642V435ZM705.5 435H650V359H705.5V435ZM663 372.5V421.5H692V372.5H663ZM599.5 372V421H629V372H599.5ZM642 338.5H585.5L586.5 221H641L642 338.5ZM706 338.5H650.5V221H705.5L706 338.5ZM594 228.5V329.5H633.5V228.5H594ZM657.5 228.5V329.5H698V228.5H657.5ZM641.5 152.5V202.5L640.5 204H588L586 202.5V153.5L587 152L640 151.5L641.5 152.5ZM705.5 152V202L704.5 203.5H651.5L650 202L649.5 152.5L650.5 151H703.5L705.5 152ZM662.5 164.5V191.5H693V164.5H662.5ZM599 165V190.5H628.5V165H599Z" fill="#6FFF00"/>
</svg>
