<svg width="1280" height="720" viewBox="0 0 1280 720" fill="none" xmlns="http://www.w3.org/2000/svg">
<path d="M727.5 132.5L726 134.5L726.5 154L727.5 154.5V169L726.5 172L726 189.5L726.5 192H727.5V337L726 338.5V353.5L726.5 355.423L727.5 356V501.5L729 502.5V521L727.5 521.5V537.5L568.5 537L565.5 536L564.5 117H727.5V132.5ZM650.5 452V504H706V452H650.5ZM586 451.5V503.5H641.5V451.5H586ZM692 465V490H664.5V465H692ZM628 464.5V489H599.5V464.5H628ZM586 359V435H642V359H586ZM650 359V435H705.5V359H650ZM692 372.5V421.5H663V372.5H692ZM629 372V421H599.5V372H629ZM586.5 221L585.5 338.5H642L641 221H586.5ZM650.5 221V338.5H706L705.5 221H650.5ZM587 152L586 153.5V202.5L588 204H640.5L641.5 202.5V152.5L640 151.5L587 152ZM650.5 151L649.5 152.5L650 202L651.5 203.5H704.5L705.5 202V152L703.5 151H650.5ZM693 164.5V191.5H662.5V164.5H693ZM628.5 165V190.5H599V165H628.5Z" fill="#4400FF"/>
</svg>
