<svg width="1280" height="720" viewBox="0 0 1280 720" fill="none" xmlns="http://www.w3.org/2000/svg">
<path d="M532 296H533L534.5 299V343.5L537 530V546.5L526.5 549L512.5 551.5L504 552.5L504.5 567.5V607.5L506 609L507.5 642.5L502.5 649.5L496.5 653.5L495 656L495.5 686.5L485.5 691L474.5 695L463 697L450.5 700L450 703V720H305.5V699.5L307.5 697.5L314 695.5L318 695L323 694.5L330 692.5L337.5 692L344 691L352 690L356 688.5L359 686.5L359.5 684.5L358 682.5L349.5 681.5L331 684.5L317 688.5L310.5 692L305.5 692.5V682L310.5 679L313 675.5L312 670.5L308 673L305.5 673.5V625.5L306.5 624.5L309.5 623L311 622.5L310.5 625.5C315.5 631 328 634 341 634C351.4 634 367.333 624.667 374 620L378.5 615.5L386 608.5L398.5 595L409 584L420.5 573.5L448.5 546.5C454.333 540.333 468.9 524.9 480.5 512.5C495 497 501.5 482 504.5 473.5C506.9 466.7 480.5 460.333 467 458L465 457L465.5 413H478L479 410.5L480 378L481 375L482 373.5L484.5 373H502.5L501.5 336.5L502.5 333.5L518.5 334L521.5 333.5L522.5 331.5L524 323.5V308.5L523.5 295L532 296ZM762 330.5L763.5 332.5L781.5 331.5V372L804 371V412L818.5 411.5V456L799.5 461L781.5 465C763.1 469 767.833 480.667 772.5 486L775.5 491L783.5 503.5L794.5 519.5L804 533L805.5 535.5L821.5 561L828 569L846.5 587.5L868 604.5L893.5 619.5L903.5 625L912 629L924.5 633L932 634.5L939 635.5H944L952.5 634.5L953.5 634H959L964 633L967.5 631.5L971 630.5V634L967.5 637V639L970.5 638V645L965 644L952.5 643L949 645L952.5 646L960.5 646.5L969 648L969.5 662H966.5L968.5 665.5L962.5 663.5L957.5 656.5L951.5 649L953.5 653L957.5 664.5L962.5 671.5L960.5 673.5L959.5 677.5L955.5 674L949.5 671L942 668.5L937 670.5L934 674L931.5 679.5H935.5L943 681.5L947.5 684L952.5 686L957 690L958 695L951 699.5L942 705V707L951 703.5L959.5 699.5L962.5 706L954.5 708.5L944 709.5L941 711H950L944 714.5H938.5L934 719H939.5L948.5 717L960.5 712L964 717L961.5 720H817.5L817 701.5L775.5 688V655.5L770 646.5V552.5L753.5 549V293.5L762 293V330.5ZM879.5 577.5L877.5 578L876.5 580L875.5 582.5L874 584L873 585.5V595.5C870.167 592.5 863.2 582 858 564C852.8 546 849.5 537.167 848.5 535L838.5 502L836 494.5L835 488L836 483.5L837.5 479.5L839.5 477L850 471.5L864 465L867 469.5L869 464L872 461.5L874.5 463.5V461L879.5 458.5V577.5ZM423.5 464.5L428.5 466.5L432.5 467.5L435.5 469L437.5 471L438.5 472.5L439 477L438.5 481L437.5 485L434.5 492.5L424.5 508.5L411.5 537.5L405 557L404 459L423.5 464.5Z" fill="#FFF700"/>
</svg>
