<svg width="1280" height="720" viewBox="0 0 1280 720" fill="none" xmlns="http://www.w3.org/2000/svg">
<path d="M504.5 0L501 3L497.5 7L493.5 12L489.5 20L487.5 22L484.5 26.5L481 34L478.5 39.5L475.5 44.5L470 52L468 57L461 68.5L458 73L456 78.5L460.5 72L466.5 63L470.5 58L475.5 52L475 57V63L475.5 68L477.5 63L479 59L487 46.5L493.5 36L499 26.5L502 21.5L506 16.5L511.5 12L521.5 7L522 8.5L521.5 13.5L522 17L523.5 21.5L519.5 26.5L515.5 34.5L511.5 42L510 46.5L509 52V57L508.5 61.5L512 56.5L516.5 55.5L513.5 60L512 64.5L511.5 69V75L511 79.5L510 84L509 91L509.5 94L510 90L513 84L514.5 81.5L517 79.5L517.5 83L517 88V95.5L517.5 101L518.5 94L522.5 84.5L524 79L527 74.5L532 62.5L542 32L543 33.5L543.5 41L544.5 43L547 44.5L548.5 46L550 48.5L549.5 50.5L546.5 54L546 55.5L548 54.5L550.5 51.5L552.773 50.5L555 48.5L556.5 45.5L559 42.5L561.5 38L566 24.5L567.5 26L569 27L570 26.5L569 24L568 22.5L569 20.5L571.5 18L575 13L576.5 15L579 16.5L581 17L580 14.5L579 13L578.5 11.5L579.5 9.5L581 7.5L582 6L581.5 4L582 3L584 5L592 11L595.5 11.5L596 9L595 6.5L594 5L594.5 2.5L600 4L602.829 5L605.5 6.5L607 9.5L613.5 10L615.5 12.5L617 15.5L619 17.5L619.5 20L620.5 22.5L624 25.5L625.5 27L626.5 25.5L625.5 22.5L626 19L628 16L632 9V0H638.5L642.5 3L647.5 6L653.5 9L660 10.5L663.5 11L661.5 8L659 5L654 0H659.5L662 2.5L664.5 5.5L666.5 6.5L666 4.5L663 0H728.5L724.5 4.5L723.5 9L722 14.5L716.5 23L724.5 13.5L725.5 12.5L724.5 19L723 27.5L722 31.5L721 37.5L720.5 42.5L724 35.5L727 33L731.5 25.5L738 16.5L741 13L745.5 6.5L749 0H773L783 14V15.5L779.5 22.5L775.5 32L773.5 39L773 44.5L771.5 51.5L774 45L776 44L778 42.5L780.5 38L782 34L785 30.5L787 26.5L790 23L794 27L798.5 30.5L803.5 36.5L800.5 27L798 18.5L799 15.5L799.5 10.5L800.5 7.5L804.5 0H819L821 3.5L823 6.5V9L827 15L831 20L837 26.5L841 28L844 30L850.5 36L851 31.5L850 26.5L850.5 23V18.5L848.5 11.5L846 7L844.5 4.5L842 1L841 0H852L853.5 3L854.5 370H842L839.5 369L841 360.5L839.5 356.5V350.5L841 348L840 340V337.5L841 336L839.5 331L820 330.5V312.5L820.5 309.5V301.5L820 300V293.5L770 293L768 277.5L767 60.5L532.5 62.5L527.5 74.5L524.5 79L523 84.5L519 94L518.5 97.5L520 294.5H467.5L466 295L464.5 297L464 298.5L463.5 332L462.5 333H443.5L442.5 336.5V372L424.5 371.5H422L419 374.5V410L417.5 411.5H406L404 414L403.5 416.5L404 459L405 539L403.5 538.5L402 534.5L395.5 529L389.5 524L384.5 523.5H380V524.5H383.5L388.5 526.5L393 530L398 535.5L400 538.5L386 537.5L381.5 535.5H374L370.5 536L365.5 538.5L363.5 537L360 536L359 535.5L358 531L357.5 524L360 521.5L362 519L362.5 517.5L364.5 514.5L366.5 509.5L367.5 505L366.5 501.5L364.5 500L361.5 499H353.5V492.5L355 487.5H356.5L359 484.5L361.5 482.5L365 479.5L369.5 475.5L373 471L377 466.5L382 459L384.5 456L385.5 455L383 456L378.5 459.5L373 464.5L369.5 465.5L365 466.5L362 468L358 471L356.5 473L357.5 468V462L358 455.5L357.5 451L358.5 445.5L356 447.5L353.5 451L349.5 461L348.5 465.5L347 471.5V473.5L344.5 473L343 473.5H339.5L337.5 474.5L331.5 469L325.5 464L320 461L312.5 456L320 464L330 473L336 478.5L337 479L338 482L339.5 486L340.5 489.5L337.5 489L334.5 486.5L330 482.5L326.5 481.5L322.5 482.5L317 484L314 485.5V486.5L315.5 486L321.5 489L318 492.5L317 495L316 498L314 500.5V503L317 501L324.5 497.5L331.5 493.5H333L336 495.5L339 496L341 499L345 508L348 516L349 520.5H346V517L345 516.5L339.5 516L337 514.5H334L331 516L329 518.5L327.5 520.5L326 524L325 527L324 532L323 535.5L316 536.5H315L314 534L312.5 532.5V531L318.5 529L317.5 527.5L312.5 526.5H309L304 529L300.5 529.5L299 531L297 532.5L296 534H294.5V521L298.5 516L301 517L304 518L306.5 521L309.5 522.5L313 524V520.5L311 519.5L309.5 517.5L307.5 516.5L305.5 514.5L306.5 513L313 511L320.5 508.5L318 508L313.5 508.5L310 509.5L304.5 511.5L301 513L294.5 518L292.5 519L293 516L295 512L298 509.5L304 506L302 505.5L299.5 506L298 507L295 507.5L297 501L299.5 495.5L301 493L304.5 489.5L302 490.5L299.5 493L297.5 495.5L296 497.5L294.5 500.5V484.5L295 484H300.5L304.5 483L307.5 482L302.5 480.5L298.5 480L296 479.5H294.5V349L294 265L293 174.5V112L292.5 48L291.5 0H504.5Z" fill="#00D0FF"/>
</svg>
