<svg width="1280" height="720" viewBox="0 0 1280 720" fill="none" xmlns="http://www.w3.org/2000/svg">
<path d="M820 293.5V300L820.5 301.5V309.5L820 312.5V330.5L839.5 331L841 336L840 337.5V340L840.5 344.5L841 348L840 350L839.5 356L841 360.5L840 369L841.5 370H863.5L865.5 373L866 411H879L879.5 417L878.5 452.5L879 456.5L879.5 458.5L874.5 461V463.5L872 461.5L869 464L867 469.5L864 465L850 471.5L839.5 477L837.5 479.5L836 483.5L835 488L836 494.5L838.5 502L842.5 516.5L847.5 532L851 541C853 547.833 857.9 564.2 861.5 575C865.1 585.8 872 594.5 875 597.5L876 594L879.5 590L883.5 586L888.5 580.5L893.5 577L898 575L902 573.5L906.5 572H921L930.5 574.5L938.5 577.5L944 582L948.5 585.5L952.5 590.5L957 596L960 602.5L962 607.5L963.5 616.5L964.5 626.5L962.5 627.5L959 629.5L955.5 632L953 634.5L944 635.5H939L931.5 634.5L924.5 633L918 631L912 629L904.5 625.5L889.5 617.5L868 604.5L846.5 587.5L828 569L821.5 561L804 533C793.833 518.833 772.6 488.3 769 479.5C765.4 470.7 775.833 466.167 781.5 465L799.5 461L818.5 456V411.5L804 412V371L781.5 372V331.5L763.5 332.5L762 330.5V293H770L820 293.5ZM520 294.5L523.5 295L524 308.5V323.5L523 328.5L522.5 331.5L521.5 333.5L518.5 334L502.5 333.5L501.5 336.5L502.5 373H484.5L482 373.5L481 375L480 378L479 410.5L478 413H465.5L465 456V457L467 458C480.5 460.333 506.9 466.7 504.5 473.5C501.5 482 496.5 494 484.5 508C474.9 519.2 456.833 538 449 546L434 560.5L421 573L408.5 584.5L396.5 597L385 609.5L374.5 619C368.5 624 353.2 634 340 634C323.5 634 310.5 627.5 310.5 625C310.5 622.5 314 576 360.5 574C366.833 573.833 381.9 576.5 391.5 588.5L405 557L412 536.5L415 529.5L424.5 508.5L434.5 492.5L437.5 485L438.5 480.5L439 476.5L438.5 473L437.5 471L435.5 469L432.5 467.5L428.5 466.5L423.5 464.5L412.5 461.5L407.5 460L404 459L403.5 416.5L404 414L406 411.5H417.5L419 410V374.5L422 371.5H424.5L442.5 372V336.5L443.5 333H462.5L463.5 332L464 298.5L464.5 297L466 295L467.5 294.5H520Z" fill="#FF00C3"/>
</svg>
