<svg width="1280" height="720" viewBox="0 0 1280 720" fill="none" xmlns="http://www.w3.org/2000/svg">
<path d="M480 628L480.5 632.5L481.5 640.5L483 656.5L483.5 665L455 720H46.5V685H44.5L44 684.5C44 679.3 40 677.333 38 677V672L49 665.5H68.5L70 667L72.5 667.5H429.5L432.5 667L434 666H435V670.5L434.5 672L433.5 674L432 676L431.5 679L431 680.5L429 682.5V695.5L436 682.5H439L444.5 673.5L447 671L478 622L480 628ZM472.5 361.5L473.5 362L474.5 363.5L475 365L475.5 370.5L476 371H483C484.2 401.4 504.5 406.667 514.5 405.5V425L512 423.5H508.5V418H504L501 417.5L498 416.5L495.5 415.5L490.5 412.5L488.5 411L486 408.5L484 406L482 403L479.5 398.5L478 395.5L475.5 388L475 386L474.5 384.5L473.5 384H470L468.5 383L468 380.5L467.5 377.5L466.5 375L465.5 374L464.5 373.5L462 373H338.5L336.5 373.5L334.5 374.5L333.5 376L333 378L332 383.5H329L327.5 384L326.5 384.5L326 385L325.5 386L325 387.5L324 391.5L322 397.5L319.5 402L316 407L313 410.5L309.5 413.5L304.5 416L299 417.5L292.5 418L291.5 419V424L290 423.5L287.5 424L284 425.5V405H296C312.8 401.8 318 381.333 318.5 371.5L319 371H326V366L326.5 364.5L327.5 362.5L329 361H469.5L472.5 361.5Z" fill="#FF00CC"/>
</svg>
