<svg width="1280" height="720" viewBox="0 0 1280 720" fill="none" xmlns="http://www.w3.org/2000/svg">
<path d="M857.5 449.5L858 450L858 613V620H840.5L847 664.5L846.5 665L844 665.5H842L839.5 664.5L832.5 630L705 620H671L646.5 622L643 620L642.5 619.5L640.5 618L639 617.5L637.5 617H635.5L634 616H632L631 615.5L629.5 614.5H627.5L625.5 614L624.5 613.5L624 612.5H620.5L617.5 613L616 612.5H614.5H613.5L611 612H610.5L603 611H590.5H585.5H579.5L578.5 611.5H574.5L571.5 612H568.5L566.5 612.5H564.5L563 613L561 613.5H559.5L559 614L558.5 614.5L557 615H554.5H553.5H552.5L550 616L549 615.5L547.5 616L545 617.5L542.5 618L541 619L538 620H521V449.5L532 441H542L543.5 441.5H548.5H551L552.5 441H563L565 441.5H570.5L571 441H588H601H602.268L602 442H601.17L601.5 443.232L602.5 443.5V445H604.366L604 443.634L605.5 444.5H609.768L609.5 445.5V446.598L611 447L612 446V444.5H616.768L618.5 443.5V445H620.345V444L621.5 442V441H626V443.232L627 443.5V445H628.5V443.634L630 444.5H634.5V446.474H636.526L637 446V444.01H641.5L643.402 443.5L643 445H644.562V444L645.5 443.062V441H650.5V442.5L651.5 443.5V445H653.455V443.062L655 444.608H659.5L660 446.474H661.5L662 444.608H663L668 443.268L669 445V442.5V441.268L670 441H675L677.614 444.5L678 443.062L680 444.217H691L693.923 445L695.366 442.5L694.5 441H701L702 442.5L703 443.5L704 444.5L705.5 446L707 446.5L709 447H720L836 447.5L838.5 447L841 446L842.5 445.5L844 445V444L857.5 449.5Z" fill="#00D5FF"/>
</svg>
