<svg width="1280" height="720" viewBox="0 0 1280 720" fill="none" xmlns="http://www.w3.org/2000/svg">
<path d="M1009.5 60V402.5L1006 401L1000.5 400.5L995 401L988 401.5L989 403.5L993.5 406L997.5 408.5L1006.5 411L1005.5 413L1002.5 412.5L998 410.5L991.5 408.5L990 408H989L988.5 409.5L989 413L990.5 422L870.5 421.5L869.5 422.5V496L869 500.5L868 501.5L867.5 507.5L865.5 508.5L864.5 509.5L864 511.5V614L857.5 613L858 450L857.5 449.5L844 444V435.5L843.5 432L842 430L839.5 428.5L835.5 426.5L828 424L823.5 423L818.5 422.5H770.269L770 371.5L771.5 372.5H781.5L783.5 371V347L784 344L786 343L786.5 342L789.5 341.5V339.5L787 339L786 338.5L822.5 286.5L823.5 285.5L824.5 285L826 284.5L828 284L828.5 284.5L840 282V284.5L840.5 285L843 293L845.5 296H846.5L857.5 294V292.5L853.5 272.5L853 271L852 269.5L851 268.5L848.5 267H845C843 267.167 839 268.9 839 274.5L839.5 277L839 278V280H836.5L827.5 281.5L828 282L825.5 282.5L822.5 283.5L821.5 284.5L819.5 287L784.5 337.5H782L781 338.5L780.5 339.5H777.5L776 339H772L769.5 340.5L767.5 161V155.5L768.5 131L767 130.5H761.5L759 130H754L750 131L746.5 130.5H743L738 129.5L734 129L730.5 129.5L727 130.5L725 131H721.5L718.5 130L715.5 129.5H714L711.5 130.5L708.5 131.5H704L703 130.5H701L700.5 126L700 122L699.5 116L699 108.5L698 100L695.5 91L693.5 86.5L691.5 81.5L689 76.5L686.5 72.5L683 67L678.5 62.5L676.5 60H1009.5ZM615.5 60L613 62.5L608 68L605 72.5L601 80L598 86L596 91L594.5 96L593.5 100.5L592.5 110.5L591.5 120L591 128.5L584 129L581.5 130L579.5 129L575 129.5L573.5 130.5L570 129L564 128L562.5 129L561 132.5L559 131.5H557.5L554.5 130L550.5 129L545.5 129.5L544.5 130.5L539.5 131.5L538 131L532.5 129L528.5 127.5L521.5 128L518 129L516.5 131V143.5L517 174.5L516.5 214L516 272L515 352L511 346.5L512 345.5H514.5V343.5L511.5 343L511 342L510 341.5L508.5 341H507.5L472.5 290.5L471.5 289L469.5 287.5L468 286.5L465 285.5L456.5 284V283.5H455.5L453.5 284H452.5C452.667 283.167 453 280.7 453 277.5C453 273.5 450 270.5 445 270.5C441 270.5 439 274.833 438.5 277L435 296.5V297.5L439 298.5L445.5 299.5H449L452 285.5L458 287L467 288.5L469 289.5L470 290.5L505.5 342V343L502.5 343.5V345.5H505.5L506 346.5L507 347.5H508L509.5 355.5H508V374.5L509 376H515L514.5 390.5V405.5H511C488.2 405.1 482.833 382.333 483 371H476L475.5 370.5L475 365L474.5 363.5L473.5 362L472.5 361.5L469.5 361H329L327.5 362.5L326.5 364.5L326.289 366V370.5L326 371H319L318.5 371.5C316.5 397.1 303 404.5 296.5 405H284V425.5L279.5 427.5L279 428.5L280.5 433L281 442L282.5 455L284 467.5V483L283.5 486L283 491L282.5 495L282 501.5L281 504L280.5 507L279 509L278.5 59.5L615.5 60Z" fill="black"/>
</svg>
