<svg width="1280" height="720" viewBox="0 0 1280 720" fill="none" xmlns="http://www.w3.org/2000/svg">
<path d="M445 270.5C450.5 270.5 453 274 453 277C453 280 453.107 282 452.5 284H453.5L455.5 283.5H456.5V284L465 285.5L468 286.5L471.5 289L507.5 341H508.5L510 341.5L511 342L511.5 343L514.5 343.5V345.5H512L511 346.5L515 352L526.5 368L528 367.5L530 368C531 368.333 533 369.7 533 372.5C533 376 530.5 377.5 528 377.5C525.5 377.5 523 375.5 523 373C523 371 524 369.5 524.5 369L516 356.5L515 376H509L508 374.5V355.5H509.5L508 347.5H507L506 346.5L505.5 345.634H502.5V343.5L505.5 343V342L470 290.5L469 289.5L467 288.5L458 287L452 285.5L449 299.5H445.5L439 298.5L435 297.5V296.5L438.5 277C438.833 274.833 440.6 270.5 445 270.5ZM848.5 267L851 268.5L852 269.5L853 271L853.5 272.5L857.5 292.5V294L846.5 296H845.5L843 293L840.5 285L840 284.5V282L828.5 284.5L828 284L826 284.5L824.5 285L823.5 285.5L822.5 286.5L786 338.5L787 339L789.5 339.5V341.5L786.5 342L786 343L784 344L783.5 347V371L781.5 372.5H771.5L770 371.5V362L767 365.5C767.667 365.833 769 367.1 769 369.5C769 372.5 766 374 764 374C762 374 758.5 372.5 758.5 369C758.5 365.5 761.5 364 763.5 364C765.1 364 765.5 364.333 765.5 364.5L770 358.5L769.5 340.5L772 339H776L777 339.5H780.5L781 338.5L782 337.5H784.5L819.5 287L821.5 284.5L822.5 283.5L825.5 282.5L828 282L827.5 281.5L836.5 280H839V278L839.5 277L839 274.5C839 272 840.2 267 845 267H848.5Z" fill="#FF7700"/>
</svg>
