<svg width="1280" height="720" viewBox="0 0 1280 720" fill="none" xmlns="http://www.w3.org/2000/svg">
<path d="M207 0L278.5 59.5L279 509L277.5 511.5L276.5 515H275.5H274.5L272.5 515.5L271.5 517L269.5 519L267.5 521L264 523.5L262.5 524.5V525.5L260 526L258 527L254 528L251.5 528.5L243 532.5L231.5 532L219.5 537L215 539H212.5L208.5 539.5L205.5 540.5L202.5 541L200.5 542L198 543.5L195.5 546L195 547L188.5 548.5L181 550L167.5 555L163 559L160 561L155 563L151.5 565L148 567.5L146.5 569L139.5 571.5C128.7 575.1 125.667 581 125.5 583.5L96.5 596C91.7305 596 88.5408 598.962 87.5193 600.471C87.6379 600.448 87.6103 600.463 87.5 600.5C87.5064 600.49 87.5128 600.481 87.5193 600.471C87.1006 600.555 84.8586 601.129 78 603C69.2 605.4 67.3333 613 67.5 616.5L66.5 618.5L65.5 621.5L65 626V632.5V659L65.5 665.5H49L38 672V677C43.2 678.6 44.1667 682.667 44 684.5L44.5 685H46.5V720H0V0H207Z" fill="#3C00FF"/>
</svg>
