<svg width="1280" height="720" viewBox="0 0 1280 720" fill="none" xmlns="http://www.w3.org/2000/svg">
<path d="M1280 720H1254.5V451.5L1207.5 444.5L1202.5 438.5L1196.5 432H1195.5L1195 431L1193.5 431.5L1191 433L1186 435.5L1181.5 437.5L1178 436L1172.5 439.5L1160.5 437.5L1150.5 436L1144 435H1142L1140 428L1139 425.5L1137.5 424.5H1136.5L1134 425L1130.5 426L1117 430.5L1115 431H1112.5L1110 430.5L1109 430L1107.5 429L1106.5 428.5L1105 428L1104 427.5L1098 423.5V417L1097 416.5L1095 417L1087.5 419L1076.5 421.5V420.5L1077 419L1077.5 416L1078 414.5L1079 412V410.5H1077.5L1071 412L1063 414.5L1054.5 416L1053.5 414L1051.5 411L1050.5 410L1048.5 408.5L1045.5 407.5H1040.5L1035.5 405.5L1031.5 405H1027.5L1023 406L1019.5 406.5L1017.5 406H1013.5L1013 404.5L1009.5 402.5V60L1010 59L1083 0H1280V720ZM1079 251.5L1037.5 261.5L1034.5 263V404.5L1078.5 410H1083.5L1084 251.5H1079ZM1257 241.5L1177.5 257V396.5L1180.5 397L1257.5 402H1263.5V241.5L1261.5 241L1257 241.5ZM1099 249.5V368L1107.5 368.5L1141.5 369H1146.5V239L1141 238.5L1099 249.5ZM1062.5 146.5L1022 166.5V240.5H1026.5L1067.5 228V146L1062.5 146.5ZM1218 96.5L1168 119.5V210.5H1175L1225 196.5V96.5H1218ZM1138 65.5L1100 88.5V168.5L1100.5 169H1107.5L1146.5 153V65.5H1138Z" fill="#FF0000"/>
</svg>
