<svg width="1280" height="720" viewBox="0 0 1280 720" fill="none" xmlns="http://www.w3.org/2000/svg">
<path d="M645 0V8L642.5 10.5L641.5 12L641 15V19L640.5 19.5L640 24V28L640.5 29L641.5 30L640.5 32.5V37.5H290L249 0H645ZM648 34L649 35V37.5H646.5V33.5H647L648 34ZM998.5 37.5H651.5V35.5L651 33.5L649.5 32L647.5 31H646.5V18L648.5 14.5L649.5 11.5L649 9L648 8H646.5V0H1040L998.5 37.5ZM645.5 31.5H645.098L644.5 31V30.5L645.098 30L645.5 31.5ZM645 17L644.5 17.5V19H644V12.5L645 11V17Z" fill="#3CFF00"/>
</svg>
