<svg width="1280" height="720" viewBox="0 0 1280 720" fill="none" xmlns="http://www.w3.org/2000/svg">
<path d="M636 432L636.5 440H633.5L634 430L635 429.5L636 432ZM640 440H637.5V434.5L638 431L640 440ZM643 437.5L641 428L641.5 427L643 425.5V437.5ZM631.5 426.5V427L630.5 431.5V425.5L631.5 426.5ZM641 422V424L640.5 425L640 423L640.5 421L641 422ZM633 423.5L632.5 422L633 421H633.5L633 423.5ZM683 263.5H642.5V419L641 416L640.5 415.5L640 416L639 418H634.5L633.5 416.5L632.5 416L631.5 417L630.5 419V415L631 413V394L628 392.5L630.5 377.5V269H600L599.5 254.5H683V263.5ZM684.5 174L598.5 175L598 163H684.5V174Z" fill="#B27CFF"/>
</svg>
