<svg width="1280" height="720" viewBox="0 0 1280 720" fill="none" xmlns="http://www.w3.org/2000/svg">
<path d="M727.5 468.5V472L671.5 471.5V468L727.5 468.5ZM993.5 440L997.5 439H999L998 440H996L991.5 440.5L988.5 444L993 441.5L994 441L993.5 443H995L995.5 441.5L996 441H998V441.5L996 443L994.5 444.5L993 443.5L991.5 444L985.5 448.5L991 445.5H992.5L991 446L988.5 448L986.5 449L988 449.5L986 451.5L991 449L992.5 448L994 446L996.5 445.5L998 446L996.5 447.5L999 446.5L997 448.5H994L993.5 450.5L991.5 451.5L989 452.5L985 455L989.5 453L991 452.5V453L990 453.5C988.454 454.484 985.534 456.296 984.416 456.841C984.041 456.931 983.819 457 984 457C984.063 457 984.208 456.942 984.416 456.841C984.869 456.732 985.544 456.591 986 456.5L985.5 458.5L986.5 457L988 455.5L990 455L989.5 457.5L990.5 456.5H991.5L989.978 458.401L915.5 462.5H899.5L893 444.5L933.5 442.5L991.695 438.098L993.5 439L995.663 437.798L998.303 437.598L993.5 440ZM1094 436L1093.1 452.729L1014.63 457.047L1014.5 455.5L1014 452V444L1016.5 446.5L1015.5 443.5L1015 440.5L1015.5 439.5V438L1016 439V443.5L1020 449L1017 443.5L1017.5 440.5V439L1018.5 440.5L1018 443L1022 447.5L1019.5 443.5L1020 441L1018.5 438L1019 437L1020.5 438.5L1021.5 440.5H1022V437.5L1020.8 435.896L1022.08 435.8L1022.5 436.5L1026 440L1027 436L1026.89 435.436L1028.3 435.329L1029 436.5L1030.5 439.5V435.163L1032 435.05V435.5L1034 437L1033.65 434.924L1038.5 434.558V435.5L1039.5 437L1041.5 434.5L1041.53 434.329L1044.72 434.087L1045 434.5L1045.47 434.03L1048.17 433.826L1047.5 434.5L1046.5 435.5L1044 435L1043 436.5L1045 436V438L1048 436H1049V437.5H1050.5L1050 438.5L1045 439L1044 441.5L1043.5 442.5L1044 444L1046.5 445V447L1049 445.5L1049.5 447L1049 448.5H1047.5L1047 450L1049.5 451L1051.5 451.5L1050.5 449.5L1051 447.5L1052 446.5V445L1051 443L1052 441.5L1052.5 442.5L1053.5 447L1054 444H1056L1055 440.5L1059.5 445L1055.5 438C1055 437.5 1053.9 436.501 1053.5 436.5C1053.1 436.5 1053.67 435.167 1054 434.5L1055.5 435L1058 437.5L1061.5 442L1060.5 437.5L1060 436.5L1060.5 436L1061 435L1062 436V433.5L1061.03 432.854L1063 432.705V434.5L1063.52 432.665L1064 432.629V435L1064.5 433.5L1066.5 435L1066 433.5L1065.51 432.516L1066.97 432.404L1067 432.5V435.5L1068 434.5L1069.5 435.5L1068 432.5L1068.07 432.321L1069.03 432.249L1069 432.5L1069.07 432.246L1070.89 432.108L1071 433L1071.31 432.076L1073.08 431.942L1074.5 434.5V432L1074.56 431.831L1076.14 431.711L1076 432L1078 433V431.57L1078.84 431.507L1080.5 432.5V431.5L1080.42 431.388L1082.13 431.258L1082.5 432V431.23L1084.23 431.099L1084.5 431.5L1084.72 431.062L1087.72 430.835L1088.5 432L1088.16 430.803L1094.47 430.325L1094 436ZM1007 456V457L1005 454.5L1005.5 454L1007 456ZM1160 427L1157 431.5L1159.5 428.5L1158.5 432.5L1160.5 429L1161 429.5L1161.5 427L1164 425.5L1162.5 427.5V429.5L1161.5 431V434L1160.5 436.5L1163 434L1164 434.5L1162.5 437L1165.5 434L1167 433.5L1167.5 437.5L1169.5 434L1171.01 432.269L1170.8 435.647L1169 437L1170.5 436.5V438.5L1170.63 438.366L1170 448.5L1101.78 452.253L1101.5 439V434L1103 431V429.681L1144.5 426.542V427L1145 426.504L1146.71 426.374L1146.5 427L1146 429.5L1148 426.5V430L1150.75 426.068L1151.5 426.012V428L1150.5 430.5L1153.5 426.5L1153.83 425.836L1156.5 425.634V427L1157.5 426L1156.5 430L1159.45 425.411L1160.85 425.306L1160 427ZM1050.5 434.5L1049.02 433.762L1050.94 433.617L1050.5 434.5ZM388.5 410V414.5L309.5 413.5V409L388.5 410ZM291 393V407L174 405.5V406.5L173 408.5L172.5 409L171.5 409.5L171 409V413.5H168L155 405V391L291 393ZM596.5 386V386.5L599 385.5L813 391V405L599 401L593.5 403.5L405.5 400.5L406 382.5L596.5 386ZM170.5 367.5L155 367V364H170.5V367.5ZM727.5 363V366.5L670.5 365V361L727.5 363ZM247.5 360L219.5 359.5V356H247.5V360Z" fill="#FF0000"/>
<path d="M1193 484.5L1192.5 485.5L1192 485L1193 483.5V484.5ZM1194 480V479.5L1195.5 477L1194 480ZM1194 472.5L1192 474.5L1191.5 472.5L1194 471.5V472.5ZM1201 467L1201.5 468.5L1200 467.5V466.5L1201 467ZM998.5 466L997 467.5H996.5V466.5L997.5 465.5H998.5V466ZM1001.5 465.5L1002.5 467H1001V465L1001.5 465.5ZM1000.5 465.5V466.5L999.5 466L999 465L999.5 464.5L1000.5 465.5ZM1201 463.5L1202 465V466L1200 465L1199.5 465.5V463.5L1200.5 461.5L1202 460.5L1201 463.5ZM1000 462.5L1000.5 463.5L999.5 464L999 463L999.5 462L1000 462.5ZM1196 463L1195 464H1194L1194.5 463L1196.5 462L1196 463ZM1194.5 461.5L1193.5 462.5L1193 462L1195 460.5L1194.5 461.5ZM1001 460V461L1000.5 462L999.5 460.5L1000 459.5L1001 460ZM995 459.5L993 461L991.5 461.5H991L991.5 460.5L993.5 459.5L994 459L995 459.5ZM1199 460.5L1198 461L1197.5 459L1199 456.5V460.5ZM1204.5 458L1205 459L1206 460L1205.5 461L1203.5 458.5L1201.5 456.5L1202 456L1204.5 458ZM1195.5 459.5H1194.5L1196 457.5L1195.5 459.5ZM995.5 456.5H994L995 455.5L996 455H997L995.5 456.5ZM1196.5 455.5L1195 456.5L1196.5 454V455.5ZM993.5 454.5L992.5 455.5H991.5L992 454.5H993.5ZM1003 454H1004L1003.5 455H1003L1002.5 454.5H1002V453.5H1003V454ZM1194.5 453.5L1193.5 454H1192.5L1193.5 453L1195 452.5L1194.5 453.5ZM995.5 453L994.5 453.5L993.5 453L995.5 452V453ZM1200 448L1198.5 449L1199.5 450.5L1199 452.5L1198 453.5V450.5L1197 446.5L1200 448ZM1201.5 452.5V453.5L1200 453L1199.5 452L1200 451L1201.5 452.5ZM1002.5 451L1003 452H1002V450.5L1002.5 451ZM999 449.5V450.5H997L998.5 449L999 449.5ZM1006.5 450L1006 450.5L1005.5 449L1006.5 450ZM1192 449.5L1191.5 448L1192 446.5H1193L1192 449.5ZM1192.5 441.5L1192 442.5L1191.5 445.5L1190.5 446.5H1189L1190.5 444L1191.5 442V440.5H1192L1192.5 441.5ZM1006.5 446H1005.5L1006 444.5L1006.5 446ZM1193.5 445L1193 445.5H1192.5V444.5L1194 444L1193.5 445ZM1198.5 444.5L1198 445.5L1196.5 444.5L1196 443L1198.5 444.5ZM1202.5 444.5L1202 445.5L1199 444L1200 443L1202.5 444.5ZM1185.5 440L1182.5 442.5V441.5L1185.5 439V440ZM1197.5 440.5L1197 442V442.5L1195.5 440L1197.5 440.5ZM1188.5 439.5L1187 442L1187.5 438L1188.5 439.5ZM1183 440.5V439.5L1186 437L1183 440.5ZM1194 437.5H1195.5L1196.5 438L1198 438.5L1198.5 440L1196 438.5L1194 438H1193.5L1192 436.5H1193.5L1194 437.5ZM1200 439.5L1199.5 439L1199 438H1200V439.5ZM1174.5 438.5L1173.5 439L1175.5 436.5H1176.5L1174.5 438.5ZM1014.5 435.5L1015 438L1014 437V435L1014.5 435.5ZM1184.5 431L1185.5 432.5V434.5L1184.5 436.5L1182.5 438L1184 435V434L1183.5 432.5V431.5L1184 430L1184.5 431ZM1190.5 437L1190 438L1188.5 437V436H1189L1190.5 437ZM1197.5 436.5L1198 437H1197L1195.5 436.5L1195 436L1196 435.5L1197.5 436.5ZM1018.5 434L1018 435.5L1017 436V435.5L1017.5 434.5V431.5L1018.5 431V434ZM1180 431L1177 436H1176.5L1177.5 434.5L1176 435V434.5L1176.5 434L1178 433L1179 432L1179.5 430.5L1180.5 429.5L1180 431ZM1180 434.5L1178.5 436L1179.5 434L1180 432.5L1181 431.5L1180 434.5ZM1187 435L1185.5 436L1187 433V435ZM1175 434L1174 434.5L1173.5 433.5L1175 432.5V434ZM1183 433.5L1182 434.5V433L1183 432V433.5ZM1191 432.5V434L1189 432L1188.5 430L1191 432.5ZM1199.5 431.5L1201 432L1198.5 432.5L1196.5 432H1195L1196 433V434L1194.5 433.5H1192.5L1194.5 432.5L1194 432L1197.5 430.5L1199.5 431.5ZM1016.5 433L1015.5 432V431H1016.5V433ZM1030.5 429.5L1031.5 431L1031 433L1030.5 432.5L1030 431.5H1029.5V430L1030 429L1030.5 429.5ZM1034.5 430L1034 431.5L1035.5 429.5L1035 431.5L1033 432.5V431L1033.5 429L1034.5 430ZM1074 432.5L1073 431L1073.94 429.129L1074 432.5ZM1027.5 431L1027 432L1026.5 430L1027 429.5L1027.5 431ZM1078.5 427L1078 428V430L1077.5 432L1077 430.5L1077.5 429L1077 428L1078 426L1078.5 427ZM1195 431L1194 430.5V431.5L1192 432V430.5L1196 430L1195 431ZM1176 431.5L1174 430L1176.5 428.5L1176 431.5ZM1173.5 427.5L1171 431L1171.5 429L1172 426.5L1173 425.5L1173.5 427.5ZM1019 429.5L1018.5 430L1018 429.5V428.5L1019 429.5ZM1068.5 428L1068 429.5L1067.5 430V427.5L1068.5 427V428ZM1073.5 428V428.5L1072.5 430V427.5L1073.5 428ZM1180.5 427.5L1179 429.5L1179.5 426.5L1180.5 427.5ZM1026 428V429L1024.5 427.5L1025 426.5L1026 428ZM1197.5 427H1194.5L1191.5 428L1193.5 426.5L1191.5 427V426.5L1192 426L1193.5 425.5L1194.5 426L1196.5 425.5L1199 425L1202 424L1197.5 427ZM1042.5 427L1041 426.5L1042.5 425.5V427ZM1076.5 426V427L1075 426.5L1076 425.5L1076.5 426ZM1171 426.5V426L1172 424H1173L1171 426.5ZM1069 425V426H1068.5L1068 425L1069.5 424L1069 425ZM1078 424.5L1077.5 426L1077 425V423L1078 424.5ZM1082 423L1083 426L1081.5 424L1080.5 423V422L1082 423ZM1146.5 424L1145.5 425.5L1145 423.5L1146.5 422.5V424ZM1148.5 425L1148 425.5L1147.5 423L1149 421L1148.5 425ZM1151.5 423.5L1150 425.5L1150.5 423L1152 422L1151.5 423.5ZM1017 424.5L1016 425L1015 423.5V423L1017 424.5ZM1181 424.5L1180 425V424L1180.5 423.5L1181 424.5ZM1067 424.5H1066.5L1065.5 423.5L1066 423H1066.5L1067 424.5ZM1154.5 421.5V423L1154 424.5V421.5L1154.5 420.5L1156 419L1154.5 421.5ZM1159.5 421.5L1158 424.5V420L1159.5 418V421.5ZM1163 423L1162 424.5V423L1163 422.5V423ZM1169.5 422.5L1168 424L1169.5 421.5V422.5ZM1179.5 423L1178 424L1177.5 423.5L1179.5 422.5V423ZM1188 422.5L1186 423.5L1182.5 424L1186 421.5L1188 422.5ZM1177.5 421L1177 421.5L1176 423L1174.5 422L1177 420.5L1177.5 421ZM1181 422H1180.5L1184.5 420.5L1181 422ZM1146.5 419.863L1145.5 421.5V419L1146.5 417.5V419.863ZM1173 421.5V420.5L1174.5 420L1173 421.5ZM1074 421H1073L1074 420.5V421ZM1165.5 418L1164 420H1163.5L1164 417L1165.5 418ZM1149.5 418.5L1148.14 419.863L1148 418.5L1149.5 417.5V418.5ZM1180.5 418.5L1179 419.5H1177.5L1181 417.5L1180.5 418.5ZM1135 415L1134.5 419H1132.5L1133.5 416.5L1134 416L1134.5 413.5L1135 415ZM1156.5 415.5L1155.5 417L1156.5 417.5L1154.5 419L1155.5 414L1156.5 415.5ZM1163 418L1162 418.5L1161.5 417.5V416.5H1162.5L1163 418ZM1160 416L1158.5 418V415L1160 416ZM1137.5 415.5L1136.5 417.5L1136 416L1137 413L1137.5 415.5ZM1149.5 415L1148.5 417.5L1148 417L1148.5 415.5L1149.5 413.5V415ZM1146.5 416.5L1145.5 417V414.5L1146.5 414V416.5ZM1129 412L1128.5 414.5L1127.5 415.5V414L1129 411V412ZM1140 412.5L1139 415L1138.5 413V410.5H1140V412.5ZM1145.5 412.5L1144.5 413.5L1144 411L1145.5 412.5ZM1130.5 408.5L1129.5 409L1128 410.5L1127.5 410L1128 409L1129 408H1130.5V408.5ZM1135.5 407.5L1135 409.5L1132 408.5L1133.5 407H1134L1135.5 407.5ZM1149 407L1147.5 408.5L1145.5 409H1145L1145.5 407L1146.5 407.5L1147 406.5L1149 407ZM1144.5 407L1142.5 408L1144 405.5L1144.5 407ZM1155.5 406L1152.5 406.5L1153.5 405.5V405H1156L1155.5 406Z" fill="black"/>
</svg>
