<svg width="1280" height="720" viewBox="0 0 1280 720" fill="none" xmlns="http://www.w3.org/2000/svg">
<path d="M1092.54 463.296L1066.5 464.5L1067.5 558L1035.5 564V466L1015.45 466.907L1014.63 457.047L1093.1 452.729L1092.54 463.296ZM1280 407V557.5H1279L1278.5 556L1277.5 555.5L1276.5 557L1275 556.5L1274 557L1273.5 558L1272 557.5H1271L1270 557L1268.5 558H1267L1266 557L1264 558L1263 557.5H1256.5L1255.5 558H1253L1252 559L1250.5 558H1248.5L1247.5 559L1227 558L1225.5 558.5L1224 558H1220.5L1216.5 558.5L1214.5 559.5L1212 558.5L1210.5 558L1209.5 559L1208.5 559.5H1207L1205.5 558.5L1204 559.5L1203.5 560L1201.5 559.5L1200.5 559L1198.5 560L1198 560.5L1195 559.5L1192.5 559L1153 558V460.5L1102 462.858L1101.78 452.253L1170 448.5L1170.63 438.366L1172.5 436.5L1172 438.5L1170.5 441L1175.5 438.5L1170.5 443.5L1175 440.5L1174.5 443L1173.5 445L1175 444.5L1176.5 441V439.5L1180.5 436L1180 437L1176.5 442.5L1180.5 438V439L1176 444.5L1173.5 449L1176 445L1180.5 440.5L1181 441L1178.5 444L1179.5 443.5L1181 442L1181.5 443.5L1181 444.5L1174.5 450.5L1176.5 450L1179 447.5L1180 448L1182 445L1184 443.5L1182.5 447.5L1184.5 443.5L1185 443H1186L1187.5 442V443L1187 444.5L1185.5 445.5L1180 451L1186.5 445.5L1187 446.5V448L1186 447L1183 450L1176.5 454.5L1182 451.5L1185 449H1186.5V452.5L1187.5 452L1188.5 449L1189.5 449.5L1188.5 452L1187 454L1184.5 457L1191.5 452.5L1194.5 446.5L1195.5 449V451L1193.5 452L1191.5 453.5L1184 458H1187.5L1192 455L1192.5 455.5L1191.5 457L1192 458L1195 455L1192.5 460L1182.5 470L1189.5 466L1188 469.5L1189 470V472L1191.5 469L1193.5 466V468L1195 466V467L1186.5 478L1187 480L1191.5 474.5L1189 478.5L1189.5 481.5L1190.5 483L1191.5 484L1189.5 487.5L1193 486L1192.5 488L1193 489.5L1193.5 487.5L1194 486.5L1194.5 488.5L1195 489.5L1196 487.5L1196.5 486L1196 484L1196.5 482L1197 481.173L1197.5 476.5L1198.5 479.5L1199 481.173L1199.5 483L1200 479L1199.5 475L1199 473V471.5L1200.5 474L1201 475V477H1202L1203 476L1203.5 475L1200.5 470.5L1202.5 470L1202 472L1203.5 474L1203 470.5V469.5L1204 469L1205 470.5L1206 470V468.5L1205 466L1203.5 464.5V463L1204.5 463.5L1206 465.5L1206.5 467.5L1207.5 467L1210 468.5L1208 466L1207.5 464L1209 464.5L1206.5 461.5L1207 461L1210.5 462L1207.5 460.5L1208 458.5L1212.5 460.5V460L1211 458.5L1211.5 457.5L1208 455.5L1205 453.5L1204 451.5L1204.5 451L1206.5 453.5L1207 452.5L1209.5 453V452L1209 450.5L1211.5 452L1211 450L1205.5 447V446L1208 446.5L1209.5 446L1207 444.5V444L1210 443.5L1207 443L1202.5 440L1204 442.5L1203 442L1200.5 440V438L1205.5 439.5L1209 439L1206 437.5L1201 436.5L1200.5 435L1204 436.5L1206 436H1207V435L1206.5 434L1202.5 433L1204 432.5L1209 430.5H1207.5L1207 429L1206 428L1202.5 427.5L1200 427L1197 426L1203.5 425L1205.5 423.5L1205 422.5L1201 423.5H1198L1202.5 419.5L1199 421.5L1196 422L1194.5 421.5L1199 418.5L1194.5 419L1196.5 418V416.5L1192.5 417L1195 415L1191 416.5L1193.5 414H1191.5L1188 415L1192 412.5V411.5L1190.5 410.5L1189 410H1186V408.5H1184L1182 409.5L1180.5 410.5L1181 408.5L1184 404.5H1182L1179.5 407.5L1177 406L1177.5 404.5L1179.71 401.409L1184.5 401L1280 407ZM405.5 290.5V310.5L511 314L513 311.5L596.5 314L609.5 301L786 307V325.245L886.5 328.5L886 404L835.5 410.5L787 410V428L809.5 428.5L877.5 423L959.946 418.212L959.5 420L960 421L960.5 420L963.5 419.5L964 420.5L964.5 420L966.5 419.5L966 421L966.5 422.5L968 421V419.5L970 419L969.5 422.5L970.5 419.5L971.5 419V420.5L972.5 419.5L974.5 418.5V421L973.5 423.5L976.5 421L977 422L977.5 420.5L981.5 418V419L977.5 422.5L977 424L979.5 422L982.5 419L983 420L980 423L984 421L987.5 418.5L984.5 423L983 425.5L986 422.5L985.5 424L988.5 421.5L989 420.5L991 419.5H993V420L991.5 421L989.5 422L987.5 424H988.5L989.5 423.5L992.5 421.5L989 425.5L994 421.5L995 421L993.5 423.5L995.5 421.5L996 422L998.5 423.5L999.5 425H998L997 426.5H999.5L1000 426H1001L1001.5 427.5L1001 428H1000.5L1000 427.5H999L998.5 428.5L999.5 429.5L999 430L996.5 428.5L994.5 430L995 431.5H992L995.5 432.5L994 433L995.5 434L997 434.5L1000 434L1001 433.5L1000 433V432.5L1002 431L1004 431.5V432.5L1001.5 433.5H1003.5L1005.5 432H1006.5V433L1002.5 434L1002 435.5L1003.5 434.5L1005 435.5L1001.5 436.5L1001 434.5L998.5 435L996 434.5L993.5 435L993 435.5L995.5 436L991.5 438L991.695 438.098L933.5 442.5L893 444.5L899.5 462.5H915.5L989.978 458.401L989.5 459L986 461H987.5L985.5 464L990.5 459.5L991.5 459V460L987 463.5L986 465L989 463H989.5L990.5 462.5L992 462L992.5 461.5L995 460.5H996L997 459H997.5V460L997 460.5L993 463L993.5 463.5L996.5 461L997.5 461.5L995 463.5L993.5 464H992L990 465L988 467.5H990L993.5 465L996.5 463.5H997.5L997 464.5L995 466.5L992.595 467.942L892 472.5V553.5H887.5L878 552.5V540L877.5 537V514.5L877 511V506L876 497.5L874.5 479.5L872.5 469.5L872 461.5V453.5L866.5 455.5L867 469L866 479.5V496L865.5 504.5L865 510.5V522.5L865.5 537V540L866.5 540.5L867 542L866 544V546L866.374 550.498L787 549.5L768.5 550.333V541L768 532.5V522L767.5 516.5L767 510L766.5 503L766 495.5L765.5 489.5L765 480L764.5 477.5L764 474L761 472.5L761.5 475V481.5L762.5 491.5L763 499L764 508.5L764.5 519L765 525.5V532.5L765.5 539.5V550.468L731.5 552V510L636.5 509.155V476L636 468L636.5 457L636 448.5V439L635.5 435.5L635 426L633 425.5V431L632.5 440V443.5L633 445.5L632.5 459.5L633 463V485L633.5 496V509L633.506 509.129L619 509L610 508.5L595.5 509V417L521.5 415.5V508.5H393V533.5L292.118 533.979L292.5 527.5V506.5L292 494.5V487.5L291.5 471L291 455L290.5 441.5L289.5 427.5L289 422.5L289.5 421.5L291 420.5L288.5 421L288 414V407L287.995 406.961L291 407V393L286.437 392.933L286 389L286.103 392.928L155 391V405L168 413.5H171V409L171.5 409.5L172.5 409L173 408.5L174 406.5V405.5L283.779 406.907L284.5 409.5L285.5 413.5L286.5 418L287 421L287.5 423.5V432L288 436.5L288.5 450.5V505.5L288 517.5V528L287.823 534H236V558.5L180 557L178.872 557.018L178 543.5V535.5L178.5 531L179.5 527.5L181.5 524L183 521L185.5 518L191 512.5L189 513L186.5 515L185 516.5L183.5 518.5L181 522L184 515L186 510.5L188.5 506L190 503L192.5 499.5L196.5 496.5L195 496L201 489L196 492L191 498L188 505L185.5 509L182 516L179.5 522.5L177.5 527.5L174 522L171.5 515L167.5 507L163.5 499.5L161 496L158 492.5L154 488.5L150 485.5L156 491.5L159.809 496.5L162.5 500L165 504L166.5 506.5L168.5 510.5L171 517L172.5 521L173.5 524L174.5 527.5V532.5L173 530.5L170.5 527L164 520.5L159.5 517L155 514.5L150.5 511.5L143.5 508L138.5 506L131 504.5L140.5 507.5L145 509.5L152 513.5L158 517L163 520.5L166.5 524.5L171 529.5L172.5 532L173.5 534V544H171.5V547L172 550L172.5 555L172.075 557.123L84 558.5L79.5 558.256V556.5L80 555V554L79 552L78 549L77 547V543L77.5 540.5V533.5L78 532L77.5 531.5L76.5 532.5V527.5L77 524.5L78 522.5L79 519.5L80 517L82 514L84.5 509L86 507L88 504L90.5 501L92.5 498.5L95 496L98 493.5L100.5 492L105.5 489.5L108 489L112 488.5L110.5 488L106.5 488.5L103 490L99 492L95.5 494.5L89 501L87 503.5L85 506.5L83.5 508.5L81.5 512.5L80 515L77.5 520L76.5 521.5L75.5 524L75 525.5L74.5 523.5L73.5 522.5H72.5L70.5 515.5L69 513L67 508L65.5 505.5L64 503.5L59.5 499L59.2285 498.819L59.5 429.5L49 425.5V340.5L34 330V329H59.2148V321.268L141.5 323V317.5L170.5 318.5V306.5L291 309.5V287L405.5 290.5ZM77.5 558L77.6562 558.156L74.75 558H77.5ZM61 501L63 503.5L65 506.5L66 508.5L67 511L68.5 514.5L69.5 517.5L70.5 521L71 523L72 526L72.5 529V532L72 533L71.5 533.5V536.5L72 538.5L71.5 539.5L72 541.5V543.5L71.5 547L70.5 548V550.5L69.5 552L69 554L68.5 555.5L69 556.5L70 557.5L71.2412 557.81L65.5 557.5H59L59.2275 499.228L61 501ZM866.624 553.488L866.5 553.5V552L866.624 553.488ZM209 509.5H262V434.5L209 434V509.5ZM447.5 501H496V419.5L447.5 419V501ZM1045.5 463V471H1043L1041 474L1042 475.5L1043 476.5H1045.5V480.5H1044L1043.5 483H1045V485H1052V462.5L1045.5 463ZM1165 459.5L1163 461.5L1162 464L1160.5 470L1162 470.5H1165L1167.5 469V466.5L1166.5 465.5L1162 466L1164 461.5H1165V465L1167.5 465.5L1168.5 468.5L1165 471.5V475.5H1163L1163.5 477L1165 478V480H1172.5V456.5H1165V459.5ZM671.5 471.5L727.5 472V468.5L671.5 468V471.5ZM672 468H726V430.5L672 430V468ZM1001.5 463H1002L1005.5 464.5L1007 465.625V467.29L1006.8 467.299L1006.5 467H1004.5L1004 466.5L1003.5 465.5H1002L1003 464.5L1001.5 464L1000.5 465L1000 464V462.5L1001 462L1001.5 463ZM1006 462L1007 463V464.125L1003.5 461.5L1003 460.5L1006 462ZM193 451L200 451.5V432.5H193V451ZM271 451.5H277.5L278 433H271V451.5ZM734 430.5V448.5H740V438L742 437V435.5L746.5 433.5H744.5L745.5 431L740.5 434V430H735L734 430.5ZM658 447H664L664.5 428H658V447ZM998.5 437.5L998.303 437.598L995.663 437.798L998 436.5L998.5 437.5ZM1022.08 435.8L1020.8 435.896L1020.5 435.5L1021 434L1022.08 435.8ZM1171 435.5L1170.8 435.647L1171.01 432.269L1173 430L1171 435.5ZM1027.5 434L1028.3 435.329L1026.89 435.436L1026.5 433.5L1027 431L1027.5 434ZM1032.5 433L1032 433.5V435.05L1030.5 435.163V432.5L1031.5 431L1032.5 433ZM1037.5 433.5L1039 432L1040 431.5L1040.5 433L1038.5 434V434.558L1033.65 434.924L1033.5 434V432.5L1034.5 431.5L1036 431L1037.5 433.5ZM1046 428.5L1043.5 430.5L1045 432L1044 433L1044.72 434.087L1041.53 434.329L1042 431.5L1042.5 429.5L1045.5 427.5L1046 428.5ZM1050.5 430.5L1051 433.5L1050.94 433.617L1049.02 433.762L1048.5 433.5L1048.17 433.826L1045.47 434.03L1046.5 433L1048.5 432L1047.5 430.5L1048.5 430L1050.5 430.5ZM1063 431V432.705L1061.03 432.854L1060.5 432.5L1061.5 432V430.5L1062.5 429.5L1063 431ZM1064 432.629L1063.52 432.665L1064 431V432.629ZM1066.5 431L1066.97 432.404L1065.51 432.516L1065.5 432.5L1065 431L1066 430L1066.5 431ZM1069.03 432.249L1068.07 432.321L1069.5 428.5L1069.03 432.249ZM1070.89 432.108L1069.07 432.246L1070 429H1070.5L1070.89 432.108ZM1073.08 431.942L1071.31 432.076L1072 430L1073.08 431.942ZM1076.5 428.5V431L1076.14 431.711L1074.56 431.831L1075 430.5L1075.5 428L1076.5 428.5ZM1078.84 431.507L1078 431.57V431L1078.84 431.507ZM1081 428L1081.5 430L1082.13 431.258L1080.42 431.388L1079 429.5L1080 427L1081 428ZM1083 428L1083.5 430L1084.23 431.099L1082.5 431.23V429.5L1081.5 427.5L1080 425.5L1080.5 425L1083 428ZM1084 422L1084.5 423.5V426H1085.5L1085 424L1086 423L1086.5 424.5V426.5L1085.5 427.5L1087.72 430.835L1084.72 431.062L1085.5 429.5H1084.5L1083.5 427H1084.5L1083.5 423.5L1083 422.5L1083.5 421.5L1084 422ZM1089.5 422L1090.5 424.5V426.5L1091.5 429.5L1092.5 427.5V425H1093.5L1094 426L1094.5 430L1094.47 430.325L1088.16 430.803L1087.5 428.5V426.5L1089.5 429.5V427.5L1087.5 423.5L1086.5 420L1089.5 422ZM1124.5 413L1125.5 415.5L1128 419.5L1128.5 417L1129.5 419V415L1131.5 420L1131 417L1133.5 421V418L1134.5 419.5L1136 417V421.5H1137.5L1137 418.5L1138 415.5V419.5L1138.5 425L1139.5 421L1141.5 417V425L1142.5 421.5L1143.5 425L1144 421.5L1145 420L1144.5 425V426.542L1103 429.681V429.5L1102.5 427.5V422L1104 420L1107 418L1109.5 416L1114.5 413.5L1117 412.5L1117.5 415V417.5L1119 419V417.5L1119.5 415.5L1120.5 417L1122.5 419L1125 420.5L1124 419L1122 417L1120 414.5V411.5L1121 412.5L1121.5 415L1123 416.5V413L1122 410.5H1124.5V413ZM1147 425.5L1146.71 426.374L1145 426.504L1147 424.5V425.5ZM1151.5 426.012L1150.75 426.068L1151.5 425V426.012ZM1156.5 425.634L1153.83 425.836L1155 423.5L1155.5 425L1156.5 422V425.634ZM1161 425L1160.85 425.306L1159.45 425.411L1161 423V425ZM1005.5 416L1007 418V421H1006.5L1006 422.5H1007.5L1009 424L1007.5 424.5L1006 423.5L1005.5 424H1004.5V422.5L1005.5 421.5V416.5L1004.5 416L1004 417.5L1002 418L1002.5 419L1004 420L1003.5 422V423.5L1001.5 423L999 422.5L997 421.5L994 418.5L992 418L992.5 417V416.322L1005.5 415.567V416ZM1095.5 410.5L1095 415.5L1094.5 416.75V414L1093.5 416L1094.31 417.219L1094.09 417.772L1093 418.5L1093.48 421.87L1093 421.75L1091.5 421L1090 419.5L1089 417L1087 415.5L1088.5 414.5L1087 413.5L1086 414.5L1084 414L1087 411.5L1088 413L1089.5 414L1091.5 415H1093V413L1090.5 411.5L1089 410.5L1086 410L1086.24 409.403L1095.5 408.611V410.5ZM1134.5 406L1133.5 407L1131 408H1128.5L1121.5 409L1118.5 410L1113.5 412L1108.5 415L1108.59 415.091L1107 416L1104.5 417.5L1101.5 420L1101 416.5L1101.5 412.5L1102.4 408.021L1134.6 405.267L1134.5 406ZM309.5 413.5L388.5 414.5V410L387.999 409.993L387.5 311L309.5 308.5V413.5ZM286.472 406.941L286.5 408L285.698 406.932L286.472 406.941ZM285 406.923V407L284.964 406.922L285 406.923ZM449 383.289L406 382.5L405.5 400.5L593.5 403.5L599 401L813 405V391L599 385.5L596.5 386.5V386L499 384.208V323L449 321.5V383.289ZM520.5 383.5L595.5 384.5V323L520.5 321V383.5ZM792.5 370H808.5V340L792.5 338.5V370ZM155 367L170.5 367.5V364H155V367ZM670.5 365L727.5 366.5V363L726.5 362.965V314.5L670.5 312.5V365ZM155.5 363.5L170.5 364V327.5L155.5 327V363.5ZM220.5 356H219.5V359.5L247.5 360V356H247V317.5L220.5 317V356Z" fill="black"/>
<path d="M1193 484.5L1192.5 485.5L1192 485L1193 483.5V484.5ZM1194 480V479.5L1195.5 477L1194 480ZM1194 472.5L1192 474.5L1191.5 472.5L1194 471.5V472.5ZM1201 467L1201.5 468.5L1200 467.5V466.5L1201 467ZM995 459.5L993 461L992.625 461.125L992.714 461.214L994.5 460.5L995 460L997 459.5L998 460L996.5 461L998 461.5L996 463.5L993 464.5L992 464L991 464.5L988 468L986.5 464.5L988.5 463H989.5L990.5 462L991.09 461.804L991.245 461.5H991L991.5 460.5L993.5 459.5L994 459L995 459.5ZM996.5 466L995.5 466.5L993 468L989.5 467.5L992.5 465L993.5 464.5L995 464L997.5 463.5L996.5 466ZM998.5 466L997 467.5H996.5V466.5L997.5 465.5H998.5V466ZM1000 462.5L1000.5 463.5L1003 464.5L1005 467H1004L1003.5 466H1001.83L1002.5 467H1001V465L1001.5 465.5V464.5L1000.5 463.5L999.5 464L999 463L999.5 462L1000 462.5ZM1000.5 465.5V466.5L999.5 466L999 465L999.5 464.5L1000.5 465.5ZM1004.5 464H1005.5L1006.5 465V466L1001.5 463H1003.5L1004.5 464ZM1201 463.5L1202 465V466L1200 465L1199.5 465.5V463.5L1200.5 461.5L1202 460.5L1201 463.5ZM998 465L997 465.5L997.5 464.5L998 464V465ZM1196 463L1195 464H1194L1194.5 463L1196.5 462L1196 463ZM1194.5 461.5L1193.5 462.5L1193 462L1195 460.5L1194.5 461.5ZM1001 460V461L1000.5 462L999.5 460.5L1000 459.5L1001 460ZM1005.5 461.5L1006 462L1004.27 461.804L1003.5 461L1004 460.5L1005.5 461.5ZM1199 460.5L1198 461L1197.5 459L1199 456.5V460.5ZM1204.5 458L1205 459L1206 460L1205.5 461L1203.5 458.5L1201.5 456.5L1202 456L1204.5 458ZM1003.5 458.5L1004.5 459L1005 460L1002.5 459.5L1003 458L1003.5 457V458.5ZM1195.5 459.5H1194.5L1196 457.5L1195.5 459.5ZM995.5 456.5H994L995 455.5L996 455H997L995.5 456.5ZM1196.5 455.5L1195 456.5L1196.5 454V455.5ZM992.5 455.5H991.5L992 454.5H993.5L992.5 455.5ZM1003 454H1004L1003.5 455H1003L1002.5 454.5H1002V453.5H1003V454ZM1194.5 453.5L1193.5 454H1192.5L1193.5 453L1195 452.5L1194.5 453.5ZM995.5 453L994.5 453.5L993.5 453L995.5 452V453ZM1200 448L1198.5 449L1199.5 450.5L1199 452.5L1198 453.5V450.5L1197 446.5L1200 448ZM1201.5 452.5V453.5L1200 453L1199.5 452L1200 451L1201.5 452.5ZM1002.5 451L1003 452H1002V450.5L1002.5 451ZM999 449.5V450.5H997L998.5 449L999 449.5ZM1006.5 450L1006 450.5L1005.5 449L1006.5 450ZM1192 449.5L1191.5 448L1192 446.5H1193L1192 449.5ZM1192.5 441.5L1192 442.5L1191.5 445.5L1190.5 446.5H1189L1190.5 444L1191.5 442V440.5H1192L1192.5 441.5ZM1006.5 446H1005.5L1006 444.5L1006.5 446ZM1193.5 445L1193 445.5H1192.5V444.5L1194 444L1193.5 445ZM1198.5 444.5L1198 445.5L1196.5 444.5L1196 443L1198.5 444.5ZM1202.5 444.5L1202 445.5L1199 444L1200 443L1202.5 444.5ZM1185.5 440L1182.5 442.5V441.5L1185.5 439V440ZM1197.5 440.5L1197 442V442.5L1195.5 440L1197.5 440.5ZM1188.5 439.5L1187 442L1187.5 438L1188.5 439.5ZM1183 440.5V439.5L1186 437L1183 440.5ZM1194 437.5H1195.5L1196.5 438L1198 438.5L1198.5 440L1196 438.5L1194 438H1193.5L1192 436.5H1193.5L1194 437.5ZM1200 439.5L1199.5 439L1199 438H1200V439.5ZM1174.5 438.5L1173.5 439L1175.5 436.5H1176.5L1174.5 438.5ZM1014.5 435.5L1015 438L1014 437V435L1014.5 435.5ZM1184.5 431L1185.5 432.5V434.5L1184.5 436.5L1182.5 438L1184 435V434L1183.5 432.5V431.5L1184 430L1184.5 431ZM1190.5 437L1190 438L1188.5 437V436H1189L1190.5 437ZM1197.5 436.5L1198 437H1197L1195.5 436.5L1195 436L1196 435.5L1197.5 436.5ZM1018.5 434L1018 435.5L1017 436V435.5L1017.5 434.5V431.5L1018.5 431V434ZM1180 431L1177 436H1176.5L1177.5 434.5L1176 435V434.5L1176.5 434L1178 433L1179 432L1179.5 430.5L1180.5 429.5L1180 431ZM1180 434.5L1178.5 436L1179.5 434L1180 432.5L1181 431.5L1180 434.5ZM1187 435L1185.5 436L1187 433V435ZM1175 434L1174 434.5L1173.5 433.5L1175 432.5V434ZM1183 433.5L1182 434.5V433L1183 432V433.5ZM1191 432.5V434L1189 432L1188.5 430L1191 432.5ZM1199.5 431.5L1201 432L1198.5 432.5L1196.5 432H1195L1196 433V434L1194.5 433.5H1192.5L1194.5 432.5L1194 432L1197.5 430.5L1199.5 431.5ZM1016.5 433L1015.5 432V431H1016.5V433ZM1030.5 429.5L1031.5 431L1031 433L1030.5 432.5L1030 431.5H1029.5V430L1030 429L1030.5 429.5ZM1034.5 430L1034 431.5L1035.5 429.5L1035 431.5L1033 432.5V431L1033.5 429L1034.5 430ZM1074 432.5L1073 431L1073.94 429.129L1074 432.5ZM1027.5 431L1027 432L1026.5 430L1027 429.5L1027.5 431ZM1078.5 427L1078 428V430L1077.5 432L1077 430.5L1077.5 429L1077 428L1078 426L1078.5 427ZM1195 431L1194 430.5V431.5L1192 432V430.5L1196 430L1195 431ZM1176 431.5L1174 430L1176.5 428.5L1176 431.5ZM1173.5 427.5L1171 431L1171.5 429L1172 426.5L1173 425.5L1173.5 427.5ZM1019 429.5L1018.5 430L1018 429.5V428.5L1019 429.5ZM1068.5 428L1068 429.5L1067.5 430V427.5L1068.5 427V428ZM1073.5 428V428.5L1072.5 430V427.5L1073.5 428ZM1180.5 427.5L1179 429.5L1179.5 426.5L1180.5 427.5ZM1026 428V429L1024.5 427.5L1025 426.5L1026 428ZM1197.5 427H1194.5L1191.5 428L1193.5 426.5L1191.5 427V426.5L1192 426L1193.5 425.5L1194.5 426L1196.5 425.5L1199 425L1202 424L1197.5 427ZM1042.5 427L1041 426.5L1042.5 425.5V427ZM1076.5 426V427L1075 426.5L1076 425.5L1076.5 426ZM1171 426.5V426L1172 424H1173L1171 426.5ZM1069 425V426H1068.5L1068 425L1069.5 424L1069 425ZM1078 424.5L1077.5 426L1077 425V423L1078 424.5ZM1082 423L1083 426L1081.5 424L1080.5 423V422L1082 423ZM1146.5 424L1145.5 425.5L1145 423.5L1146.5 422.5V424ZM1148.5 425L1148 425.5L1147.5 423L1149 421L1148.5 425ZM1151.5 423.5L1150 425.5L1150.5 423L1152 422L1151.5 423.5ZM1017 424.5L1016 425L1015 423.5V423L1017 424.5ZM1181 424.5L1180 425V424L1180.5 423.5L1181 424.5ZM1067 424.5H1066.5L1065.5 423.5L1066 423H1066.5L1067 424.5ZM1154.5 421.5V423L1154 424.5V421.5L1154.5 420.5L1156 419L1154.5 421.5ZM1159.5 421.5L1158 424.5V420L1159.5 418V421.5ZM1163 423L1162 424.5V423L1163 422.5V423ZM1169.5 422.5L1168 424L1169.5 421.5V422.5ZM1179.5 423L1178 424L1177.5 423.5L1179.5 422.5V423ZM1188 422.5L1186 423.5L1182.5 424L1186 421.5L1188 422.5ZM1177.5 421L1177 421.5L1176 423L1174.5 422L1177 420.5L1177.5 421ZM1181 422H1180.5L1184.5 420.5L1181 422ZM1146.5 419.863L1145.5 421.5V419L1146.5 417.5V419.863ZM1173 421.5V420.5L1174.5 420L1173 421.5ZM1074 421H1073L1074 420.5V421ZM1165.5 418L1164 420H1163.5L1164 417L1165.5 418ZM1149.5 418.5L1148.14 419.863L1148 418.5L1149.5 417.5V418.5ZM1180.5 418.5L1179 419.5H1177.5L1181 417.5L1180.5 418.5ZM1135 415L1134.5 419H1132.5L1133.5 416.5L1134 416L1134.5 413.5L1135 415ZM1156.5 415.5L1155.5 417L1156.5 417.5L1154.5 419L1155.5 414L1156.5 415.5ZM1163 418L1162 418.5L1161.5 417.5V416.5H1162.5L1163 418ZM1160 416L1158.5 418V415L1160 416ZM1137.5 415.5L1136.5 417.5L1136 416L1137 413L1137.5 415.5ZM1149.5 415L1148.5 417.5L1148 417L1148.5 415.5L1149.5 413.5V415ZM1146.5 416.5L1145.5 417V414.5L1146.5 414V416.5ZM1129 412L1128.5 414.5L1127.5 415.5V414L1129 411V412ZM1140 412.5L1139 415L1138.5 413V410.5H1140V412.5ZM1145.5 412.5L1144.5 413.5L1144 411L1145.5 412.5ZM1130.5 408.5L1129.5 409L1128 410.5L1127.5 410L1128 409L1129 408H1130.5V408.5ZM1135.5 407.5L1135 409.5L1132 408.5L1133.5 407H1134L1135.5 407.5ZM1149 407L1147.5 408.5L1145.5 409H1145L1145.5 407L1146.5 407.5L1147 406.5L1149 407ZM1144.5 407L1142.5 408L1144 405.5L1144.5 407ZM1155.5 406L1152.5 406.5L1153.5 405.5V405H1156L1155.5 406Z" fill="black"/>
</svg>
