<svg width="1280" height="720" viewBox="0 0 1280 720" fill="none" xmlns="http://www.w3.org/2000/svg">
<path d="M773 675.5H670.5L669.5 523H677.5L681.5 531.5L686.5 540L697 549.5L708.5 554L723.5 555.5L737 552L750.5 543L759.5 530.5L763.5 522H771.5L773 675.5ZM821 530.5L827.5 539.5L833 544.5L843.5 550.5L855.5 553H868.5L880.5 548.5L891 539.5L898.5 530.5L902.5 520.5H911L913.5 674.5H810L807.5 520.5H817L821 530.5ZM752.5 556L741.5 561.5L729.5 565.5L716.5 566L698 561.5L686.5 554.5L680 547L681.5 665.5L763.5 664.5L762.5 547L752.5 556ZM891.5 553.5L884 557.5L876.5 561L866 563.5H855L845 561.5L838.5 559.5L829.5 554.5L822.5 549.5L819 546L821 664L903 663L901 546L891.5 553.5ZM772 498H764L757 487L742.5 473L725.5 467.5L707.5 468.5L696 474L684.5 485.5L677 498L669 499L667.5 256L768.5 254.5L772 498ZM910.5 496H902L899 489.5L896.5 483.5L887 474L877 468L866 465H856L846.5 466.5L834 472L823 481.5L816.5 497H808L804.5 252.5L906.5 250.5L910.5 496ZM678 266L679.5 475.5L686.5 468.5L696 462L705.5 458.5L714 457H727.5L744.5 462L754 467.5L761 474.5L758.5 265L678 266ZM815 263.5L817.5 472L824.5 464.5L838 456.5L854.5 453H865L877.5 455.5L888.5 460.5L894.5 466.5L899 470L896 262L815 263.5Z" fill="#FF00BB"/>
</svg>
