<svg width="1280" height="720" viewBox="0 0 1280 720" fill="none" xmlns="http://www.w3.org/2000/svg">
<path d="M964.5 138.5H966.5L964 139.5L961.5 139L962 166.5V184.5L961 237.5L958 246L954 248L958 237.5L959 232V219.5L958 208L956.5 205.5L954 203L951 202L946 201L940.5 202H928.5L917.5 203L871 204L833.5 205L803 206L798 205L787.5 207.5H708.5L679.5 208.5L637 206.5H624.5L617 207.5H613L612.5 209V212L611 238.5V254.5L609 255L607.5 253H606.5L605.5 252.5V243L603.5 195.5V194L603 148L612 148.5L617.5 148H626L637.5 147L643 148L656.5 146.5L674.5 146H694L713.5 146.5H742L743 145L745.5 146.5H770L775 145L798 142.5L812.5 141.5H852L877.5 141H959.5L960.5 138.5L962 137L964.5 138.5ZM654 193.5L632.5 194L619.045 194.363L656.199 193.449L654 193.5ZM724 192.5L702.5 193H708.5L753.5 192.5H724ZM906.5 187L875.5 188.5L864.591 188.772L878.5 188.5L920.938 186.312L906.5 187ZM946 184.5L936.75 185.25L959.5 183.5L946 184.5Z" fill="#4400FF"/>
</svg>
