<svg width="1280" height="720" viewBox="0 0 1280 720" fill="none" xmlns="http://www.w3.org/2000/svg">
<path d="M606.5 253H607.5L609 255L611 254.5H638L642 255H644L646 256H648.5L650 256.5H654.5L658.5 258.5V259L658 260.5L655 263H650.5L646.5 266L646 267.5V270L643 272.5H639L639.5 274L638 277H633.5L631.5 280L633 281L634 283.5H635L634.5 285L633 286.5L634 292L634.5 295L633.5 298.5L632.5 301.5L631.5 303L629 304.5L627.5 308.5L628 325.5V380L620 386L617.5 387.5L610 391.5L607.5 393L605.5 252.5L606.5 253ZM935.5 250L935 251L936.5 252.5L940.5 253L941 251.5H943L947.5 252.5L952 255.5L954.5 257.5L957.5 258.5L960.5 261L962 262.5V293.5L962.5 331.5L964 383V387.5L957 385.5L954 383.5L951 380.5L945.5 372L944 367L942.5 288.5L941.5 282L940 278.5L936.5 272L932 266.5L925.5 261L921.5 259H920L915.5 258.5L912 257.5L910.5 255.5L911.5 253.5L913 252L915 251.5L917.5 251L921 250.5L922 250H926.5L929.5 249.5H932.5L935 248.5L935.5 250Z" fill="#1AFF00"/>
</svg>
