<svg width="1280" height="720" viewBox="0 0 1280 720" fill="none" xmlns="http://www.w3.org/2000/svg">
<path d="M445 440L446 441V442.5L447 443.5L449 444L450 445V447L451 448L453 446.5V449L455 450.5L458 449.5L459.5 447L458 444L459.5 442.5L461 443.5V449L460 456.5L458 472.5L456 497.5L454.5 522L453 544L452 562.5L451.5 563H448.5L446 565V567.5L442 568L441 570L439.5 568L443 564.5L441.5 562.5L439.5 561L437 562.5L434 564L433 566.5L435.5 570V572.5L433 576.5L430 578.5L428 575.5L424.5 571.5L424 567.5H423.5L419.5 569L417 571.5L414.5 575.5L413.5 578.5L406.5 577.5L406 579.5L407 581.5L406.5 583.5H403.5V580.5L402.5 579.5V577.5H405L405.5 575.5L404.5 574H402L401 573.5L404.5 571L402.5 569.5L399.5 571L399 569.5L396.5 567.5L395 566L393.5 566.5L394 568L391 569.5L389 572.5L393 573L392 576H390.5L391 577.5L394 578.5L390 581.5L389 580.5L388.5 578L389 575.5L386 573.5V570.5H385L381.5 571.5L379 569L376.5 568L376 570L379.5 572L381.5 574L380.5 576.5H376L374 578L371.5 577.5L373.5 579.5L376.5 577.5L378 579.5L376 580.5L372.5 583.5L370.5 583L369 580.5L366.5 583L365 582.5L363.5 584L365 590L361.5 588.5L362 591L366 594L369 595L370.5 598L362.5 601.5L353 604L348.5 608L346.5 615V621L354.5 623.5L360.5 626L365.5 631V640L372 644L387 720H356L354.5 717L350 711.5L353 706V703.5L354.5 701.5V699.5L353 698.5L352 695.5L350 693.5L346.5 694.5L340.5 691.5L335 696.5L332 693.5V689.5L327 688.5L326 683.5L331 678.5L330 677H327.5L328 674L326 672L323.5 670.5L321.5 673L318.5 675.5V671.5L316 672L315 676.5L312.5 677L302.5 676L300 675.5L296.5 672L294 675L292.5 673.5L287.5 672.5L290 668L288 667.5L285.5 671L282 669.5L280.5 667.5L283 666L285.5 664L285 661H288V658L287 655.5H285.5L284 653.5L281 654L278 651L275 651.5L275.5 654.5L269.5 655.5L268.5 657.5V662.5L265.5 663L260 667.5L258.5 671L257 668.5L256.5 661V659L257 657L259.5 655H261.5L263 653.5L264 652L263 651L261.5 650.5L260 652.5L255.5 654.5L255 652L258.5 649.5L261.5 647L263 644L260 642L258.5 644L253.5 645H250V651.5L253.5 654.5L247 653.5L250 656.5L252.5 663H250L245 660.5L240 656.5H233L231.5 653.5H227.5L222.5 656.5H220V659L222.5 663L229 666.5L225.5 673L217.5 671.5L216 674L210 673L208.5 677.5L204 673V668.5H197L195.5 674L199 677.5L188 680.5V687L183.5 682.5L178.5 684.5V691L173.5 687L167.5 689L162.5 693.5V700H156L148 703.5V709L150 714L154 720H136.5L126 714V711L133 707.5V703.5L128 702V700L121 702L122.5 709L121 715.5V720H0V449H2.5L3.5 449.5L5 451.5L6.5 452L8.5 453L10 451.5L10.5 449.5L8.5 446.5H18.5L24.5 444L28.5 444.5L30 447.5L28.5 450.5L26 452L25.5 456L27 458.5L29 455.5L32 450.5L34 448.5V450.5L35 453L37 455.5L39 453L40.5 450.5L43.5 448L47.5 447.5L50 448.5L51 448L54.5 448.5L52 451.5L51.5 453L53.5 454L57.5 452.5L62 449.5H65L67 450.5L69.5 449L70.5 451.5L73 455.5L75.5 450.5L75 449L75.5 447.5L78 448.5L80.5 450.5H84L87.5 449.5L91 450.5L95 452.5L96.5 455.5L99.5 460L103.5 455.5V458L106 458.5L108.5 461L109.5 458L108.5 454.5L112 453L114.5 450.5L117 447.5L118.5 449.5V451.5L121.5 452.5L123 450.5L124 447.5L127 444.5L206.5 445L217.5 448H228L229 450L230.5 449.5L233 451L234.5 453L235.5 451V449L236.5 448H247L250 449H254L255 448L259 446L263.5 447L264.5 446.5L269 449H271L271.5 446V443.5H306.5L307.5 445.5L314.5 444.5L317.5 445.5H339.5L347.5 443.5H352L355.5 445.5L357 443.5H372L384.5 443L393.5 442H399.5L402 446.5L407 445.5L406 444L409 443L418.5 451.5H420L413 444L414.5 443L420 441L423.5 439H443L445 440ZM1279.5 720H1221.5L1236.5 639L1243.5 636L1244.5 634V629L1243.5 626.5L1247.5 621L1257 620L1260 617.5L1263 614.5L1263.5 611L1263 606.5L1258 600L1252.5 597L1248.5 596L1247 595.5V593L1242.5 591L1236.5 590H1231L1230 591H1225.5L1221.5 593L1218.5 592L1215.5 589.5L1217 588V585L1215.5 584.5L1213.5 586L1210.5 583L1209.5 581.5V577.5L1207.5 576L1209 574L1211.5 567L1210.5 564L1207.5 567L1204.5 564L1202.5 563.5V557H1204.5L1205.5 559L1213.5 561V556H1210.5V551L1207.5 550L1209 548H1213V549.5L1216.5 548.5V546L1218.5 545L1220 544.5V542.5L1218 539.5L1221 539L1221.5 537.5H1217L1220 534.5L1218 533L1216 532.5L1214.5 534.5L1212 533.5L1209.5 531.5L1205.5 533.5L1203.5 536V537.5L1201 536.5L1199.5 534.5L1192 537.5L1190.5 536.5L1189 537.5L1184.5 539.5L1183.5 541L1184.5 542.5V543.5L1183.5 546L1181.5 545L1178.5 542.5L1176 541H1173L1170 537.5H1166.5V534.5L1167.5 533V530.5L1166 532L1163 531.5L1161 533.5V535.5L1159 536.5V537.5L1162 541L1161 542.5L1158.5 543.5L1156 541H1152.5L1150.5 542.5V544.5L1148 545L1149 546L1145 549.5L1142.5 548.5H1141V536.5L1141.5 527L1142 520L1144 517.5L1142 514.5L1142.5 495.5L1143.5 487.5L1144 477.5L1144.5 468L1146 465L1145.5 456L1144.5 443.5L1145.5 439L1149 432L1149.5 428L1151.5 414V408L1152.5 402L1153.5 393L1152 391H1145L1145.5 395L1144.5 400L1144 404.5L1143.5 408L1144.5 413.5L1143 417L1143.5 425.5L1142 433L1140 442.5L1139 449V462.5L1137 472.5V484L1136 495L1134.5 526L1133.5 528.5L1133 526L1134 487.5V478.5L1134.5 471.5L1135 466L1135.5 441L1136.5 431.5L1137.5 418L1139 402L1138 400L1135.5 400.5L1131 401.5L1130.5 406L1129.5 424.5L1129 462.5L1127 498V517L1126.5 544.5L1123.5 547.5L1121 548.5L1116.5 549.5L1113 551.5L1111 551L1108.5 554.5L1104.5 554L1105 547.5L1106.5 535.5L1107.5 523.5L1109 512.5L1111.5 497.5L1112.5 487L1115.5 469L1116.5 461.5L1117.5 456.5L1118 445.5L1119 437L1120 429.5L1121.5 422V416H1118L1116.5 420.5V427.5L1115 433L1113.5 446L1111 464L1108 483L1107 491.5L1105.5 502L1106 507.5L1103.5 501L1100 499.5L1096.5 500L1094.5 502L1094 506L1094.5 509.5L1095.5 511L1093.59 515.962L1092.5 501.5V459L1092 425V391L1279.5 388.5V720ZM652.5 263L655 634L652 635.5L649.5 637.5L649 641L645.5 639.5L647 637L648 635L645.5 633.5L648 632.5L649 629L642.5 632.5L641.5 634L639 635.5L640.5 638.5L639.5 641L637 640V637H633L631.5 638L627.5 635.5L629 638.5H626L629 644L626 646L627 650.5V655H625L623.5 652.5L620.5 651.5L624 642.5L620.5 641V645L616.5 644L611.5 648.5L614.5 650.5L615.5 653V655L610 655.5V635L613.5 629V623L611.5 619.5L609 616.5L608 582V405.5L611.5 408V413L613 416.5H616.5L620 413L622.5 406.5V402.5L631 404.5H634.5L637.5 408L640.5 411L643.5 413H647.5V408L644.5 402.5L637.5 398.5L633.5 397.5L636.5 395.5L640.5 392.5V390.5H636.5V387.5L632 386L629.5 390.5L630 395.5H622.5L619 390.5L617.5 387.5L620 386L628 380V354L630.5 351.5L633.5 352.5L636.5 354L637.5 353.5V350.5L636.5 349.5L635.5 347L634 345H627L629.5 341.5L631.5 340.5L633 338.5V337.5L630.5 335L631 334L630 332.5V330L631.5 328L631 326L634.5 323L634 321L633 322.5L630.5 323.5L628 325.5L627.5 309L628 307.5L628.5 304.5L631.5 303L632.5 301.5L633.5 298.5L634 295V292L633 286.5L634.5 285L635 283.5H634L633 281L631.5 280L633.5 277H638L639.5 274L639 272.5H642L644.5 271.5L646 270.5V268L645.5 267L646.5 265.5L650.5 262.5L652.5 263ZM925.5 261L928.5 263.5L932 266.5L934.5 269.5L936.5 272L938 275L940 278.5L941.5 282L942 285.5L942.5 288.5V292L944 367L944.5 369L945.5 372L947 374.5L951 380.5L954 383.5L957 385.5L964 387.5L966.5 425L969 497.5L970 529.5L972.5 624.5V647.5L969 648L964.5 643L958.5 642.5L955.5 637L952 631.5L948.5 637V638L947 641.5L944.5 640.5L942.5 641L944.5 644L941 645L937.5 643L935 640.5L931.5 639L928.5 637.5L928 630L927.5 596V583.5L926.5 533L926 504L925.5 459.5L924 396.5L923 342.5L922.5 313L921.5 268.5V259L925.5 261ZM467 446L469.5 461L472.5 476.5L473 487L474 490.5L475 503L476 514L475 538L473.5 554V566.5L472 572.5L470 569.5L467 572L466 568.5H463L461.5 565.5L460 568.5H459L458 563.5V551.5L458.5 538.5L459 532L460 517.5L461.5 495.5L463.5 474.5V463.5L465 462.5L464.5 459.5V455.5L465.5 444.5L467 446ZM1094.5 519.5L1096.5 520V525.5L1097 532L1098 544.5L1099 549.5V553.5L1099.5 554.5L1097.5 556.5L1096.5 554.5L1093.79 518.549L1094.5 519.5ZM954 203L956.5 205.5L958 208L959 220V232L958 237.5L954 248L952 248.5L952.5 246.5L951.5 244L949.5 240.5L948.5 239L945.5 237.5L942.5 236.5L940.5 235L939 233L938 234L937.5 235.5V237.5L938 239L939.5 240.5L940.5 242V244.5L938 244L934 244.5L933.5 245.5H931.5L929 246.5L929.5 247.5L935.5 248.5L932.5 249.5H929.5L926.5 250H922L921 235L789.5 238L788 236H785.5L783.5 238.5L652.5 240.5L652 256.5H650L648.5 256H646L644 255V251.5L645 247L647 244H645L642 248.5L641 251V252.5L642 255L638 254.5H635.5L634.5 253L634 250.5H632.5L630.5 252L630 242.5L629 241L627 238.5H625.5L624.5 237.5L622.5 235L621 233L619 232.5L618.5 233.5L618 236.5L619 239L614 239.5L613.5 241V243.5L612 245L611.5 248.5L612 250L613.5 253L615 254.5H611V239L612.5 212.5V209L613 207.5H617L624.5 206.5H638L679.5 208.5L707.5 207.5H787.5L798 205L803 206L917.5 203L928.5 202H941L946 201L954 203Z" fill="black"/>
</svg>
