<svg width="1280" height="720" viewBox="0 0 1280 720" fill="none" xmlns="http://www.w3.org/2000/svg">
<path d="M719 235.5L718 236.5V257L719 258V282.5L718 283.5V303.5L719 304.5L720 521.5V580H564L565 202.5H719V235.5ZM585.5 538.5H698V482.5H585.5V538.5ZM688 528.5H596V493.5H688V528.5ZM586 452H697.5V396.5H586V452ZM688 442.5H596.5V407H688V442.5ZM574.5 386C572.015 386 570 388.015 570 390.5C570 392.985 572.015 395 574.5 395C576.985 395 579 392.985 579 390.5C579 388.015 576.985 386 574.5 386ZM579.5 392.5L589.5 394H592L592.5 392L591 390.5L579.5 389V392.5ZM574.5 365C572.015 365 570 367.015 570 369.5C570 371.985 572.015 374 574.5 374C576.985 374 579 371.985 579 369.5C579 367.015 576.985 365 574.5 365ZM586 366H697.5V311H586V366ZM688 356.5H596V321.5H688V356.5ZM569 288.5V306L570 307.732H579L580 307.154V288L579 287.5H570L569 288.5ZM642 230.5C600 230.5 586.167 268.5 586.5 287.5H699C698.833 268.5 687.2 230.5 642 230.5ZM632.5 276V277L629.5 278.5H596.5L595.5 278C595.9 267.2 603.667 256.833 607.5 253H609.5L632.5 276ZM676.5 252C684.9 260.8 688.667 271.667 689.5 276V277.5L688 278.5H654L652 277L653.5 275.5L676.5 252ZM640 239V272.5L638 273.5L636.5 273L613 250V248.5C619 243.3 630.5 239.333 635.5 238H639L640 239ZM646 238C652.167 238.5 666 241.3 672 248.5L649 272L647 273L645 271.5V239L646 238Z" fill="black"/>
</svg>
