<svg width="1280" height="720" viewBox="0 0 1280 720" fill="none" xmlns="http://www.w3.org/2000/svg">
<path d="M698 538.5H585.5V482.5H698V538.5ZM596 528.5H688V493.5H596V528.5ZM697.5 452H586V396.5H697.5V452ZM596.5 442.5H688V407H596.5V442.5ZM697.5 366H586V311H697.5V366ZM596 356.5H688V321.5H596V356.5ZM642 230.5C687.2 230.5 698.833 268.5 699 287.5H586.5C586.167 268.5 600 230.5 642 230.5ZM607.5 253C603.667 256.833 595.9 267.2 595.5 278L596.5 278.5H629.5L632.5 277V276L609.5 253H607.5ZM653.5 275.5L652 277L654 278.5H688L689.5 277.5V276C688.667 271.667 684.9 260.8 676.5 252L653.5 275.5ZM635.5 238C630.5 239.333 619 243.3 613 248.5V250L636.5 273L638 273.5L640 272.5V239L639 238H635.5ZM645 239V271.5L647 273L649 272L672 248.5C666 241.3 652.167 238.5 646 238L645 239Z" fill="#0D00FF"/>
</svg>
