<svg width="1280" height="720" viewBox="0 0 1280 720" fill="none" xmlns="http://www.w3.org/2000/svg">
<path d="M383 688L380.5 685.5L381 611L380.5 610.5V609.5L354 588.5L354.5 587.5L355 585L355.5 579.5L354 556L353.5 547.5L352.5 544.5V538.5L353 536L352.5 533L353 528.5L353.5 519.5L353 515.5L353.5 513V503L353 498.5L352.5 495L352 493.5L351.5 491.5L350.5 489L349 490L346.5 491.5L343.5 493L340 495L337.5 497L331.5 499L329.5 500H328L325 498.5L324.5 430L302.5 421L302 357.5L304 357L305.5 356L306.5 355L307.5 353L307 351L306 350L304 349L302 348.5H300.5L298 349.5H296.5L294.5 348.5V348L296 346.5L298.5 344.5L302 341L303 339.5L304 337V333L303.5 332L302 330.5H301L299 331L297.5 332L296.5 333L295 335L294.5 336.5L294 339L293.5 340.5L291.5 342.5L290 343.5L289 342.5L288 341V340L289 338.5L290 336.5V335L289.5 333.5L289 332.5L288 331.5H286L284.5 332L282.5 335V325.5L284 324.5L282.5 323.5V299.5H283.5L282 298.5L282.5 274L284 273.5L282.5 272.5V248L284.5 247L282.5 246.5V222.675L284 221L282 220L282.5 196L283.5 195.5L282.5 194V170L283.5 169L282.5 168.5V144L283.5 143L282.5 142.5V118.311L285.5 115V108L288 102L287.5 299.5H297.5L298.5 320.5L302 316L306.5 334.5L311.5 315.5L314.5 319.5L317 294L316 284.5L315 283V273L316 272.5V271.5L315 271V244.5L316 244V243L315 242V231L317.5 241.5L323 219.5L326 223L325.5 230L324 230.5L325 233.5L325.5 251.5L328.5 248L331 260L334.5 246.5L337 249L338 233L337.5 226.5H336.5L334 210L330.5 218L327.5 212L326.5 222.5L326 222L328.5 199.5L328 186.5L326 187L321.5 161L316.5 174.5L315 171.5V157.811L316.5 157.5V155.5H315V128.813L316.5 128.5V127H315V104L316 99L316.5 93.5L315 92.5V71.6777L316.5 70.5L315 69.5V65L312.5 66L312 63L311 59L309 54L306.5 49L304.5 47L302.5 46H301L299.5 46.5L298.5 47L297.5 48L296 50L295 51.5L292.5 56.5L291 59L285 37.5L284.5 38L284 64.5L282.5 64V39.8066L283.5 39L282.5 38V11.5H282L295 0H385.5L383 688ZM437.5 571L435.5 572L434.5 573.678V575.5L435 576H436L438.5 573.5L437.5 577V578.5L434.5 579V633.5L453 647L553.5 631L552 634L551 637L550 640.5L549 643.5L548 647L546.5 652.5L545.5 658L545 662.5V664.5L430 685L430.5 588.5L432 586.5L431.5 588L431 592L432 594L433 592.5L433.5 589L433 588L432.5 583.5L432 582L432.5 577L433.5 577.5L434 577V575L433.5 572.5L434.5 570L435 569L437.5 571ZM442.5 5.5L442 6.5L442.5 7.5V39.8086L441.5 40.5L442.5 41.5V73.7764L442 74.5L442.5 75.5V107.374L442 108.5L442.5 109.5V141.294L442 142.5L442.5 143.5V175.5L441.5 176.5L442.5 177.5V181L516.5 184V211.668L515.5 212.5L516.5 213.5V244.594L515.5 245.5L516.5 247V278L515.5 278.5L516.5 279.5V296.5L664.5 295.5V276L662.5 273.5V254L839.5 257V294.5L844.5 295L950 294V277L947.5 274V205L990.5 207V205.5L989.5 204L990.5 202.5V179.5L990 178L990.5 177V153.5L990 152.5L990.5 151.5V128.5L990 127L990.5 126V102.5L990 101.5L990.5 100V77L990 76L990.5 75V51.5L990 50L947.5 44V29.5L950 26.5V9.5L893 0H905L954.5 8V7L955.5 6.5L957.5 6L957 2.5L955.5 3L943.5 0.5V0H1009L1029 9L1038.5 10.5V34L1018 38.5V53.5L1017 54.5L1018 55.5V78.5L1017 79.5L1018 80.5V104L1017 105L1018 105.5V129L1017 130L1018 131V154L1017 155L1018 156V179L1017 180L1018 181V204L1017 205L1018 206V229L1017.5 230L1018 231V254.5L1017 255.5L1018 256.5V279.5L1017 280.5L1018 281.5V304.5L1017 305.5L1018 306.5V330L1017 331L1018 331.5V355L1017 355.5L1018 356.5V379.961L1017.5 381L1018 381.5V405.184L1017.5 406L1018 407V430.13L1017 431L1018 432V455.5L1017.5 456L1018 457V479L1016 478L1015 476.5L1014.5 475L1015.5 473V472.5L1013 474L1012.5 473.5L1015 471.5L1014.5 470.5L1013 472L1011.5 471L1012.5 469.5L1010.5 470L1010 469L1008.5 468L1008 467.5L1009 467L1011 465L1010.5 464H1008L1005 466.5L1006.5 464.5V463.5L1005 463L1003.5 464L1002 466L1000 468L997.5 466V468.5L996 469L995.5 470H995L996 471.5H994.5L996.5 473L994.5 472.5L995.5 473.5L994 474L991.5 476.5L993 474L990.5 475V460.209L989.5 459L990.5 458V434L990 433.5L990.5 432.5V408.371L989.5 407.5L990.5 407V383L990 382.5L990.5 381.5V357.5L989.5 357L990.5 356V338.151L901.5 341V359.5L901 360.5L901.5 361.5V386.5L901 387.5L901.5 388.5V413.5L901 414.5L901.5 415.5V440.5L901 441.5L901.5 442.5V467.275L901 468L901.5 469V494.5C900.833 494.333 899.5 494.1 899.5 494.5C899.5 494.9 900.833 495.667 901.5 496L902 497L903 497.5L901 499.5L899.5 501.5L900.5 502L899.5 503.5L896 508L898 506.5L897.5 511L899.5 507.5V504.5L900.5 502.5L903 503L900 507L899 509.5V511L898.5 512L897.5 513.5V514.5L898 515.5V514.5L900 512.5L900.5 510L902.5 506.5L903 509.5L901.5 512.5L900.5 515H901L902 514V517L901 518L899.5 519V561.713L929 570L1018.5 555L1018 579.5L743.5 628.5L740.5 626.5L739 626L737.5 621L736 617L734.5 613.5L733.5 611L732.5 609L731 606.5L730 604.5L729.5 603L728.5 601.5L727.5 600.5L729 599L731 596.5L732 595L733.5 592.5L734.5 590.5L736.5 585.5L737 582.5L737.5 582L738.5 581.5L740 580.5L741 580L742 578.5L742.5 577V574.5L742 572.5L741 571.5L869.5 552.5V300L625 301.5V309L624.5 310L625 311V340.242L624.5 341L625 342V371.184L624 372L625 373.5V402.5L624.5 403.5L625 404.5V433.633L624 434.5L625 436V464.5L624 466L625 467V496L624 497L625 498V524.824L621.5 527.5L603.5 528.5L597 530.5L596 529.5L599 526L596.5 525.5L597 523.5V521.5L598 521L595.5 520.5L595 519L593.5 518L595.5 514L592.5 516L590.5 515V514L592.5 512.5L589.5 513L591.5 511L595 508.5L595.5 507.5L590.5 510.5L593 506L591.5 506.5V505.5L589 507L589.5 505.5L587 508.5L586.5 507H585L582.5 508L581.812 508.5V499.5L582 487V351H575.5L564 351.5L442.5 355.5V379L441.5 380L442.5 381V413L441.5 413.5L442.5 414.5V447L441.5 448L442.5 448.5V481L441.5 481.5L442.5 483L442 515L441 515.5L442 516.5L442.5 540.5L440 539L439.5 540L440 541.5L441 544L441.5 545L439 546L441 546.5H435.5L436 548L437 549L438 549.5L439 550.5L435 555.5H434V564.5L430.5 570.5V0H442.5V5.5ZM434 569L433 572L431.5 575.5L430.5 576.5V570.5L431.5 570L433.5 568L434 569ZM839.5 29L662.5 3.5V0H839.5V29Z" fill="#FF00C8"/>
</svg>
