<svg width="1280" height="720" viewBox="0 0 1280 720" fill="none" xmlns="http://www.w3.org/2000/svg">
<path d="M506 514L505 516L504 516.5L504.5 518L503.5 519H502L499.5 516.5L497 514.5V517L499.5 519L500.5 521.5L497 523L496 522L495 520L492.5 516.5H489L491 519H489L487 517L484.5 516V520L486.5 522.5L485 524L486.5 525L483 528.5L479 531.5V533.5L478.5 535.5L476 535L475.5 537L473 538L474 538.5L476.5 538V536L479 538.5L477.5 541L474.5 540.5L474 542.5L475.5 543.5L473 544.5H471L468 542.5L470.5 545L473 546L475 546.5L474.5 547.5H472L473 549.5L472 550.5H468L470.5 546H469.5L466.5 547L467 544V542L468.5 541L465.5 539.5L465 537.5L468 537L466 535.5L466.5 534L464.5 535.5L462.5 533.5L461.5 532L464 529.5L467 527.5V526.716L462 530L464 526.716L462.5 525.5L460 530L458.5 531V529L460 526V524.5L459 526.716L457.5 527L456 528.5L455.5 526.716V475L506 471V514ZM569 519.5L567.5 519V516L565 511L563.5 510.5L561 509.5L559 508.5L557 506.5L556.5 515.5H555.5V514.5L553.5 517L554 514.5L552 511.5L550 511L547.5 509.5V508L550 510.5H552L551.5 509L547.5 506.5L545.5 503V501.5L547.5 499V498L548.5 496.5L551 494L550.5 493.5L549.5 492H547.5L543.5 499L541.5 498.5L542.5 496.5H540.5L543 492.5L542.5 491L539 493.5L536.5 494.5L536 491.5L533.5 488.5L531 487.5L530 488.5L529.5 491L530 496L529 498.5L528 502L526.5 501.5L527 503.5L522.5 499L525.5 504.5L527 507.5L526 512L525.5 514.5L522 517.5L519 520V469.5H519.5L569 465.5V519.5ZM940 474.5L936 471L935.5 472L932.5 470.5L934 473.5L933 476L931.5 477L930 479L929 477H927L926 476L924 478L923.5 475.5L920.5 479L918 481L917.5 480L916 479.5L915.5 482L913.5 483.5L913 485.5V490L912 491.5L910.5 489.5L910 491L909.5 436L940 433.5V474.5ZM859 359.5L858 358.5L856.5 358H855L853.5 359.5L852 358L852.5 357.5L853 345L854 345.5H854.5V343.5L854 342.5L855.5 339L855 338.5L853.5 338L852 335.5L851.5 335L852.5 334V333L851.5 332L850 332.5L849.5 333.5L850 334.5L851 335V336L850 338L847 339L849 341.5L848.5 346L850 345.5L850.5 346.5L849.5 350.5V354.5L850.5 357.5H848.5L847 358L845.5 359L844.5 360.5L844 362L843.5 364V365H842L841 366L840.5 367.5L840 369.5L840.5 371.5V373L842 374.5L843.5 375L845 374.5L846 375.5L848 376L851 376.5L855 376L857.5 374.5L858.5 373V477.5L817.5 470H813.5L635.5 487.5V314L816.5 311.5H859V359.5ZM981 453L980 454.5V456H981L982.5 458.5L982 459.5L979.5 460.5H977.5L978.5 458.5L979.5 457L979 454.5L980.5 453.5L979.5 452L978 451.5L976.5 453V455L977.5 455.5V456.5L977 459.5L975.5 460.5L975 459.5L977 457.5V456L975 457L972.5 456L974.5 451.5L974 450.5L971.5 452L970.5 454L969.5 452.5L967 450L965.5 450.5L964.5 449L962 447.5L961.5 450L962.5 454L961 456.5L959 458L958 460L959 460.5V461L957 462.5L956.5 466L958.5 471L955 467L953 469.5L954.5 470.5L952.5 474L952 475.5L950.5 474L949 469V432.5L980.5 430L981 453ZM506.5 457L455.5 461V368.5L506 367L506.5 457ZM569 452L519 456V366.5L569 364.5V452ZM940 420L909.5 422.271V351.5L940 350.5V420ZM980.5 416.5L949 419.25V350.5L980.5 349.5V416.5ZM834 335.5L835 336L833.5 339.5L831 341L833.5 343V347L834 347.5L834.5 350V354L834 357V359L834.5 362.5L835 365.5H836V369L835 370.5L836 372L835.5 374.5L835 376.5V381.5L835.5 384L835 386V389L835.5 392H833L831 392.5L830 394L829 396L828.5 398L827.5 398.5L826 399.5L825 401L824.5 403.5L825 405.5L825.5 407L827 408.5H830V409.5L834.5 411L839 410.5L840.5 410L842.5 408.5L843.5 407.5L844 406.5H846L847 405.5L848 403.5L848.5 401L848 399L847 397.5L845 397L844.5 396.5L844 394L843 393H840.5L839 394L837 392.5L838 392V390.5L837.5 388L838 385L837.5 380.5V378L838 376L838.5 370.5L838 369.5L837 366L838 364.5L837 361V353.5L836.5 351L837 347L836 345.5V345L838.5 346H839.5V344.5L838.5 342L839.5 340.5V338.5H837L836 337L836.5 335.5L837 332.5H834V335.5ZM820 334.5V346.5L821.5 348L821 351H818.5L818 351.5L819.5 354.5L818.5 357.5V358.5L820.5 358V360.5L820 362.5L820.5 365.5V372L822 373L823 373.5L823.5 372.5L823 365.5V358.5L824 359.5L825 359V355.5L826.5 353.5V352.5L824.5 351.5L824 351L823 347V333.5H821L820 334.5ZM839.5 40V140.5L838.5 139.5L835.5 137L831 135L824.5 133.5L819.5 134L814 135L810.5 136.5L808 139L805.5 142L803 144.5L800 142.5L796.5 141.5L793 142.5L790.5 145L789 147.5L788.5 154L789.5 156L792 158.5L793.5 159L796 161L798 161.5L798.5 164L801 169L803 172.5L809.5 179L811 180L802.5 182.5L797.5 184.5L793 187L788 190.5L784 194L778 203L777 206L776 210.5L775 217.5L775.5 222.5L776.5 224.5L778 227L779.5 229L782 230.5L785 231L788.5 229.5L790.5 228L791.5 226.5L792.5 224L793.5 222L794 220.449V232L794.5 233.5L795 235.5L795.5 236.5L798 239L767.5 238L768 237L769.5 234.5L771 231.5L771.5 230L772 227.5V225L770.5 222.5L769 220.5V220L770 219V217L768.5 214.5L766.5 213L766 211.5L765 209L761.5 205L760 204L758.5 205L757 203L757.5 202.5L760.5 200.5L761.5 199L762 198L762.5 194.5L762 191L761 189.5L757.5 186L758 185.5L760 184L760.5 183L762 181.5L763 180L764.5 177.5L765.5 175.5L766.5 173L768 170L768.5 168L769 166.5L768 164.5L767 164L762 168L760 170.5L757 175.5L756 177.5L754.5 182L752 181.5L749.5 182L749 178L747 175.5L745 171.5L743.5 169L740.5 166L737.5 164L736.5 165.5L736 167V168.5L736.5 170.5L738 173.5L739 176L740.5 179L742 181.5L743.5 183.5L745 185L745.5 186L744.5 187.5L742 189.5L740.5 191.5L739.5 193.5V198L740.5 200L743.5 203L740.5 205.5L737.5 207.5L734.5 210L732.5 212.5L731.5 213.5L730 214.5L728.5 216L727.5 217.5L727 218.5V219.5L728 220L728.5 219.5L729 220L728.5 220.5L727 221.5L726 222.5L725 224.5L724 228L724.5 230.5L725.5 234.5L726.5 237L662.5 235.5V142.5L665 139.5V130L665.5 128L665 126V120L663 118L662.5 51.126V16L839.5 40ZM980.5 134V196.5L949 194.409V162L950 160.5V152.5H952.5L953 152L953.5 150.5L953 149L952 148.5H950V143.5L949 141.5V130.5L980.5 134ZM506 90.5L507 170.5L455.5 167.5V85.5L506 90.5ZM980.5 60L981 123L949 120V56L980.5 60ZM506 0V76.5L455.5 71.5V0H506ZM813.5 71L813.648 70.9619L757.5 65L813.5 71Z" fill="#FF0000"/>
</svg>
