<svg width="1280" height="720" viewBox="0 0 1280 720" fill="none" xmlns="http://www.w3.org/2000/svg">
<path d="M272.5 10L282.5 11.5V38L283.5 39L282.5 39.816V64L284 64.5L282.5 65.5L282 66.5V86L280 117L281 117.5L285.5 108V115L284.5 116L284 115L282.5 116L284 117L282.5 118.213V142.5L283.5 143L282.5 144V168.5L283.5 169L282.5 170V194L283.5 195.5L282.5 196L282 220L284 221L282.5 222.5V246.5L284.5 247L282.5 248V272.5L284 273.5L282.5 274L282 298.5L283.5 299.5H282.5V323.5L284 324.5L282.5 325.5V348L278.5 351L276.5 348.5L276 345.5L277.5 342.5L273.5 338L272.5 338.5L270 345.5L272.5 354.5L270.5 355L269 354L267 352.5L265.5 352L263.5 353L261 354.5H259.5V353L261.5 345V343L258.5 338L254 343L255.5 347.5L253.5 351L247.5 347.5L247 346.5L248 342L249 338.5L248.5 336L247.5 334L244 332L242 335L243 337.5L244 340.5L243.5 342.5L241.5 344.5L240 344L237.5 342L236.5 340L236 337.5L234.5 335L233.5 333L232 332L229.5 331L229 331.5L227.5 333L227 335L228 338L229 340L230.5 342L232.5 343.5L235 345.5L237 347.5L237.5 348.5L236.5 349.5L235 350.5H232.5L229 350L226.5 350.5L225 351.5L223.5 353L224 354.5L197.5 355V353.5H201V320.5L196 320H184.5L158 216.5H144V232.5L150.5 260V356.5L142 357L141.5 357.278V419.5L146.5 424.5L147 425V483.5H145L142 484L138.5 482.5L135.5 483H132H128.5L125 484H122.5L120.5 483H117.5L115 484L113 486L112.5 488L113 490.5L113.5 492.5L114.5 494L114 496.5L113.5 499.5L113 504L109.5 501.5L106.5 499.5L101.5 496L98.5 494.5H97L96.5 493.5L91.5 491L90 490.5L89.5 489L91.5 487.5L93 486L95 484L96 483L97 480.5L98 478.5L99 475.5L99.5 471.5V470L98.5 469L99.5 467.5L100.5 466L102 462.5L103 461V459V457L102 456.5L101.5 453L100 451L97.5 449.5L94.5 449H90.5L88 449.5L85.5 450.5L83 452L81 453.5L78.5 452.5L73.5 452H66.5L63 452.5L58.5 453.5L56 454.5L53 455.5L51.5 454.5L49 453L45 452.5L41 453L37.5 454L35.5 455.5L34 457L32.5 460L32 461.5V464.5L32.5 467L33.5 469L34.5 471L36 473L35.5 474.5V477L36 481.5L38 485.5L41 489L43.5 491L46.5 493V494.5L44.5 496L42 497.5L40 498.5L36 501.5L32.5 504L28.5 507L26 509.5L23.5 512.5L22 511.5L23.5 509L25 507L26 505L27 503L27.5 501L28 499.5L29 498V496.5L28.5 495.5L27 493L26 491.5L24.5 489.5L22 487L20 485.5L17 484.5L14 483.5L11.5 482.5L8.5 482H3.5L1 483L0 482V0H277.5L272 5L272.5 10Z" fill="#1100FF"/>
</svg>
