<svg width="1280" height="720" viewBox="0 0 1280 720" fill="none" xmlns="http://www.w3.org/2000/svg">
<path d="M1276 532H1279.5V616L1262.5 611.5L1264 531L1276 532ZM1250.5 529.5L1248.5 608.5L1238 605.5L1234.5 590.5L1235 590L1238 589L1240 588L1241 586.5L1241.5 583V578.5L1241 576.5L1240 575L1237 573L1233.5 571L1228.5 569L1224.5 568L1220 567L1219 566.5L1240.5 528.5L1250.5 529.5ZM1114 592.5L1089 597.5L1092.5 586.5L1114 592.5ZM1279.5 296.5L1252 284.5H1231.5L1200 298.139V370.5L1279.5 376V492.5L1272.5 492L1252.5 490.5L1233.5 490L1210.5 488.5H1191L1177.5 489L1170 490L1165.5 491.5L1162.5 493.5L1162 496.5L1162.5 500L1163.5 502L1165.5 504L1169 507L1176 510.5L1180.5 512.5L1186 514.5L1192 517L1197.5 518.5L1203.5 520L1208.5 521.5L1212.5 522.5L1220 524.5L1227 526L1205.5 563.5L1200 562.5L1192.5 561.5L1186 560.5H1181L1176 541.5L1178.5 541L1181.5 539L1182 537.5V531.5L1181 530L1179 528.5L1175.5 527L1170 525L1166 524L1161.5 523L1153.5 521.5L1146 520.5L1138 519.5L1124.5 519H1105L1099.5 519.5L1096 520L1094.5 520.5L1089.5 522.5L1088.5 523.5L1088 524.5V530.5L1088.5 531.5L1089.5 533L1091 534L1093.5 535L1078 596.5L1018 579.5L1018.5 555L1029 553.5V512L1027 511.5L1026.5 509L1027 508.5L1026 504L1025 502.5L1022.5 501L1022 505.5L1023 506.5L1024 508.5L1024.5 506.5V509L1024 511L1021 510.5L1020.5 509.5L1019 507.5V505L1020.5 502.5V501L1021.5 500V498.5L1022 499L1025 501.5L1022.5 497H1022L1021 495L1020.5 493.5L1020 492.5L1021 492V490.5L1020.5 489L1021.5 488.5V487.5L1020.5 485.5L1019.5 485L1020.5 484L1019.5 482.5L1019 481L1018 479V457L1017.5 456L1018 455.188V432L1017 431L1018 430.114V407L1017.5 406L1018 405.139V381.5L1017.5 381L1018 379.785V356.5L1017 355.5L1018 355V331.5L1017 331L1018 330V306.5L1017 305.5L1018 304.5V281.5L1017 280.5L1018 279.5V256.5L1017 255.5L1018 254.5V231L1017.5 230L1018 229.21V206L1017 205L1018 204V181L1017 180L1018 179.21V156L1017 155L1018 154V131L1017 130L1018 129V105.5L1017 105L1018 103.807V80.5L1017 79.5L1018 78.5V55.5L1017 54.5L1018 53.5V38.5L1038.5 34V10.5L1048.5 8L1036.5 1.5L1032 0H1279.5V296.5ZM1135 580.5L1133 587.5H1132.5L1133 579.5L1135 580.5ZM1121.5 584.5L1109 581L1122 579L1121.5 584.5ZM1101.5 553L1103.5 554L1105 555L1107.5 556.5L1110.5 558.5L1112.5 559.5L1115 560.5L1117 561H1122.5L1122 569L1095.5 573.5L1101 552.5L1101.5 553ZM1168.5 560L1165 559.5L1168 557.5L1168.5 560ZM1136 201.5C1123.5 202 1098.5 211.3 1098.5 244.5C1098.5 286 1138.5 287 1143 285.5C1147.5 284 1155.5 282 1159.5 279.5L1159 278.5L1155 278C1147.17 276.167 1131.5 266 1131.5 244.5C1131.5 216.5 1155.5 206.5 1160 206.5C1157.67 205 1152 202 1148 202L1136 201.5Z" fill="black"/>
</svg>
