<svg width="1280" height="720" viewBox="0 0 1280 720" fill="none" xmlns="http://www.w3.org/2000/svg">
<path d="M380.5 609.5L381 611L380.5 685.5L200 718L199 717.5L179 679.5L178.5 628V615L184.5 613.5L213 609L213.5 610.5L214.5 612H217L219 610L220 608L220.5 607.5L229.5 606.5C229.833 607.5 231.2 609.9 234 611.5L234.5 615C233.667 615.833 232 618.5 232 622.5C232 627.5 235 630.5 240.5 630.5C246 630.5 250.5 625.5 250.5 620.5C250.5 616.5 249.833 614.833 249.5 614.5L255 613.5H256C255.5 614.5 254.5 617.3 254.5 620.5C254.5 624.5 258 628.5 264 627.5C270 626.5 274 622.5 274 617C274 611.5 269.5 608 266 607.5L265.5 607L268 603L269.5 604L284 603.5L288.5 602L289 604L290 606.5V607L289.5 609.5V611.5L290 614L291 616L292.5 617.5L295.5 618.5L298.5 619L302.5 618L305.5 616L306.5 614.5L307.5 612.5V608L307 604.5L306.5 603.5L310.5 602.5V603L313.5 603.5C313 604.167 312 606.2 312 609C312 612.5 314.5 616.5 321 616C327.5 615.5 330.5 611 330.5 607C330.5 603 328.5 599 325 598C325 597.167 324.5 595.2 322.5 594L337.5 591.5L339 592.5H340L341.5 591.5L342.5 590.5L352.5 589L354 588.5L380.5 609.5ZM184.5 320H196L201 320.5V353.5H197.5V355L224 354.5L225.5 355.5L228.5 356.5L231 356L237.5 353.5L243 352H244L250 356L250.5 357L247.5 359L242.5 360L239.5 362.5L238.5 365L241.5 366L250 364L255.5 360.5L257 359L257.5 360V361L256.5 363H254.5L252 364.5H256V366L255.5 368.5L255 371.5V377.5L252.5 379.5V383L251.5 387L250.5 389L251 390L249 391L248 392L246.5 395L243 401L237.5 411.5L236 415L235 417.5L234.5 422V427L236 429L236.5 429.5L234.5 430L231 430.5L229 430L226 428L223.5 426L220.5 422.5L220 421L219 419.5L217.5 418L216.5 415.5L215 413.5L211.5 410L209.5 409H206L204.5 409.5L203.5 411L203 412.5L202.5 415L203 417L204.5 420L205.5 422.5L207 424L209 427.5L211 430L212.5 432.5L213.5 435.5L214.5 437.5L216.5 440L218.5 441H222.5L226 440.5L227.5 439L231.5 438L233.5 437L235 435.5L236 435L240 434.5L245.5 433.5L247 433L248.5 434L250.5 435L252 436.5L250.5 438.5L248.5 440.5H257.5L259 439L262.5 438.5L264 436.5L266.5 437L276 437.5V432.5L282 437L283 438L284.5 439H294.5L295.5 437.5L296 435V422.5L297 415.5V410.5L296 408L294 406L291.5 405.5L289 406L288 407L286.5 409L285 412.5L279 398.5L278.5 397.5L278 394.5L277.5 393L278 392L276.5 390L277 389.5L275.5 388.5L275 386.5V380.5L275.5 379L275 378L273.5 377.5L274 374L274.5 369.5L274 365L273.5 363L273 360.5L281.5 356L286 353H286.5L302 357.5L302.5 421L324.5 430L325 498.5L328 500L327.5 501L326 502.5L323.5 503L321.5 503.5L322.5 500.5L318.5 500L314.5 499L311 509.5L311.5 499L303.5 498.5L302 509.5L300.5 505V498.5L294.5 500.5L292 501V503.5L293.5 512L288 502L281.5 506.5L283 509L281 508.5L278 508L276.5 508.5L275.5 509.5L260.5 507L260 502.5V499.5L263 485C263 483.4 262 483.667 261.5 484L257 486.5L239 495.5L227.5 500.5L210.5 506.5L201.5 508.5L196.5 509.5L196 510.5L192 511L180 512L161.5 513V507.5L154.5 499.5V497L154 495.5L153 493L153.5 490.5L153 487.5L151.5 485.5L148.5 483.5H147V425L141.5 419.5V357.5L142 357L150.5 356.5V260L144 232.5V216.5H158L184.5 320Z" fill="#26FF00"/>
</svg>
