<?xml version="1.0" encoding="UTF-8"?>
<svg id="Layer_2" xmlns="http://www.w3.org/2000/svg" version="1.1" viewBox="0 0 1280 720">
  <!-- Generator: Adobe Illustrator 29.7.1, SVG Export Plug-In . SVG Version: 2.1.1 Build 8)  -->
  <defs>
    <style>
      .st0 {
        fill: #1681d8;
      }
    </style>
  </defs>
  <path class="st0" d="M806.24,298.77l.52,22.9-2.2,1.05-2.65,4.29-26.14-.03c6.22-6.3,7.66-22.66,7.66-22.66l-1.57-.21-.31-3.77h-3.77l-.21-1.36,4.39-2.2,3.56-2.61,4.39,2.41,9.1.42,3.35,4.29-.31-3.35,4.18.84ZM752.38,303.8l.1-2.51,3.97-1.36-1.15-1.57-1.78-.52s-3.24-5.33-10.25-3.56c-7.01,1.78-10.35,8.58-10.35,8.58l-.63-1.05s.78-1.75,2.28-3.91l-203.3.36c-3.57,13.54-14.01,24.32-27.41,28.4l254.98.29c-3-3.07-7.74-9.91-7.74-22.5l1.27-.66ZM456.59,308.04l-.54,9.35-.67,9.22,24.5.03c-9.93-3.06-18.22-9.79-23.28-18.6ZM1194.13,155.98l-15.5-8.24-6.62-1.94-5.49.16c.81-4.36,12.6-2.26,12.6-2.26l29.19,7.14.39-147.2,13.24-8.18-706.41.22,16.61,154.24,202.96.36v146.92c3.24-4.35,9.24-9.72,17.72-6.18,0,0-7.63-8.37-16.11-.73,0,0,2.51-7.63,12.86-7.84,0,0-3.14-5.96-12.24-1.36,0,0,2.93-5.23,12.55-5.02l.73-2.2,6.28,1.15s-7.11-8.16-12.13-10.46c0,0,5.54-3.77,20.92,7.43l5.96-1.46,6.9-1.26s7.43-4.08,13.81,3.35c0,0-6.69-2.3-9.31,2.72l2.82,1.67,8.47-2.2h2.41v.94l-6.17,2.93-3.77,3.24,3.14,1.36,6.59.52,4.08.31-5.02,2.93,5.33,3.45,2.82,4.39,2.61,1.46-.42-5.75-1.57-.73-.1-1.26,1.46-.84-.31-5.65-4.92-.73,1.26-2.41,6.8-1.05-.1-1.99-1.99-.1,1.26-1.88,4.5-.52,1.57-4.5,3.35,1.26,5.96,2.3,1.46,2.51-4.92,1.15v1.57l6.69,1.15,2.41,1.57-.21,1.57-4.29,1.36v4.39l1.57.73v1.99l-1.46.73.42,30.96,2.82,3.24.38,1.6h2.35s1.66-2.85,1.66-2.85l1.26-2.09-.84-21.86-1.67-1.05-.21-1.26h1.88l-.21-4.5-3.35-.42,1.15-2.3,3.45-.84,1.26-2.72,3.45-.84.42-3.56,2.41,1.05,5.75,3.87-.73,1.67-3.45.84,6.28.73,1.78,1.67-4.18,2.09.21,3.35,1.36.21-1.26,2.72v22.8l2.2,1.57.82,1.74,12.16.23.48,5.97h-36.28l-.48,105.26,5.01,4.53-.72,5.49h2.15l1.19,3.34-.48,7.88-10.02,9.31,2.39,1.91,5.49-5.01,1.43,2.63-4.77,5.49,1.43,2.39,5.97-7.16-1.19,4.3.95,2.86-2.63,3.58-5.01,5.97.48,8.35.48,6.68,5.49-1.19.72,3.34-1.91,2.39,3.1,7.16h-3.1l-1.43,3.82-2.63-1.67-1.91,2.15.24,62.06h5.73l.48-24.82c-.24-15.75,9.79-15.28,9.79-15.28l42.19-.43.39-32.26,51.51.19,1.36-2.33,6.22-9.13,8.16-8.75,5.44,7.19,9.13,11.66,6.41-1.94,2.92,3.69,11.86-.39-.58-1.75-6.38-7.02,2.53-2.99,5.29-1.84-8.28-8.05-87.33-.48V216.86c21.35-129.43,144.11-130.1,144.11-130.1,96.07,2.67,132.61,75.87,132.61,75.87l3.26-.51,8.56.48,16.8,5.01,15.67,8.24-9.53-10.98-10.5-8.88ZM521.16,149.92h7.26S511.61-4.3,511.61-4.3l-466.66.14-11.54,3.16,9.25,4.84-1.32,448.27,15.65,1.52v-3.96h5.09l.57-227.52C83.59,82.36,210.94,87.46,210.94,87.46c137.53,6.23,147.54,136.24,147.54,136.24l-.36,261.1-74.55-.36c10.08,5.04,13.33,22.69,13.33,22.69l66.63,1.44,1.08,6.12c6.84,2.52.72,11.52.72,11.52l-.72,24.85s30.59,1.98,39.69,2.35c9.1.37,8.35,7.24,8.35,7.24v17.82l10.4.19v-85.4l-1.86-.37-.93-1.67-2.6.93-2.23-2.04-3.71.37v-4.27l-2.23-1.67,1.11-6.13-6.31-4.46.19,2.78-4.46,2.6-2.04,4.83,5.01,1.11,4.08,2.97.19,5.01-3.34-.74,1.11,4.46-4.27-4.46-1.86,2.78-3.16-2.23-3.16,3.53-7.24-2.04.37-4.08-2.6-2.04,7.05-6.68,6.68-3.34,4.46-4.27-1.86-3.16-3.16-3.34-2.97-1.11,1.11,3.9,2.23,1.86-2.04,2.97-3.9,1.11-1.11-3.16-4.83.37,1.86-3.9-4.08,1.67.19-2.78-5.57-.74,1.11-2.78-1.86-4.27,3.53-1.3.56-2.6,3.53-.74,2.04,5.38,1.3-3.16,5.38.19.93-3.53,5.76,8.17-1.49,2.97,2.78,3.34,1.3-3.9,7.05,5.57,2.23,1.86,2.78-5.01,3.53,3.9,2.41-2.97,2.6,3.08.56-138.83h-37.21l-.56-6.66h2.9s3.63-4.72,3.63-4.72l3.27.19-.58-37.9-2.69-.58.19-2.69,2.69-.38-.38-5.58-6.35-1.15-.38-2.12,2.31-1.73,8.08-.96.19-1.73-3.27-.58,2.12-1.92,5.39-.58-.58-3.66,2.31-1.92,3.08,2.31s7.31,1.73,7.89,4.23c0,0-.58,2.31-4.62,1.92v1.54s11.35,1.92,10.77,3.85-6.93,2.31-6.93,2.31v6.16l3.27.58-.19,2.31-2.31.77-.19,37.32,1.92.58,1.73,1.92-.38-15.78-1.54-3.08s-3.08-7.89,7.5-12.31c0,0,9.43-1.15,10.97,7.89,0,0-.19,4.42-1.92,6.73l-.96,1.54-.51,17.27h9.77s-1.18-5.15-1.18-5.15l-1.35-15.01,1.35-1.35s-5.19-2.69-2.89-10.77,13.66-4.81,13.66-4.81l.04.04c-.02-.51-.04-1.02-.04-1.54,0-22.34,18.21-40.45,40.68-40.45,11.48,0,21.84,4.73,29.23,12.34v-109.97ZM1180.98,187.46l3.42,10.5,1.14,6.62,13.47-8.9-18.03-8.22ZM1209.37,264.53l-.23-14.87-19.72-6.51v20.09s14.79-.84,19.95,1.29ZM1188.74,327.14l2.51-2.28.46-8.22,7.76-6.85,10.36-6.32.46-33.56c-12.24,2.12-20.86,7.24-20.86,7.24l-.68,49.98ZM1189.42,381.92l-.46,22.6s8.9-10.04,9.81-14.61c.91-4.56,10.21-9.64,10.21-9.64l-.14-15.33c-11.84,7.21-19.43,16.99-19.43,16.99ZM1202.89,422.09l-10.5,6.62-3.65,1.83.23,20.54,4.11,1.37,2.05-1.14,13.36-.22-.3-34.22-5.3,5.22Z"/>
</svg>