<?xml version="1.0" encoding="UTF-8"?>
<svg id="Layer_1" xmlns="http://www.w3.org/2000/svg" version="1.1" viewBox="0 0 1280 720">
  <!-- Generator: Adobe Illustrator 29.7.1, SVG Export Plug-In . SVG Version: 2.1.1 Build 8)  -->
  <defs>
    <style>
      .st0 {
        fill: #12dda8;
      }
    </style>
  </defs>
  <path class="st0" d="M1281.46,237.61l.61,12.11-5.15-3.33,4.54-8.78ZM1259.06,223.53c-.39.63-.6,1.06-.6,1.06.2-.36.4-.7.6-1.06ZM1282.07,192.19h0s0,0,0,0h0ZM1229.27,173.24s6.04-7.99,15.28-13.68,12.08-7.29,12.08-7.29l7.82-4.62s9.59-8,13.68-8v4.09s-8.7.35-15.1,10.48l-8,22.21s9.24-.35,14.22,5.69l.36,6.4,12.26-13.15-.53-201.15-24.88.53-34.53,20.72-13.24,8.18-.39,147.2h0s17.59,8.17,20.97,22.39ZM1208.85,364.94l.14,15.33,19.79-10.63c-.91-8.48,1.21-19.08,1.21-19.08-8.51,5.39-15.5,10.22-21.14,14.38ZM1259.06,223.53c1.42-2.29,5.18-7.31,9.69-4.7,0,0,2.73,2.73,2.12,7.87l11.2-6.96v-27.55s-7.68,4.44-23.01,31.34ZM1269.95,426.57h0s-.3-9.09-.3-9.09l-4.84-6.06-6.36,3.03-2.12-3.03c-11.51-5.75-21.8-25.74-21.8-25.74l-5.15,2.73-6.06,6.66-6.36,9.99-8.78,11.81.3,34.22,8.78-.91v4.54l-3.94,33.91-2.73,3.03,1.21,2.73.3,12.72-2.42,1.82,6.96,2.42,13.02,3.03.91,8.48-5.45,1.82,6.36.91.61,12.41,10.6-.91,25.13-.91v-13.93l.61-24.22,3.03-23.01,1.51-16.96-1.21-20.59-1.82-10.9ZM1209.14,249.67l.23,14.86c5.39.89,9.42,1.85,9.42,1.85l12.11-2.42-10.6-12.41c-3.81-.37-7.6-1.05-11.16-1.88ZM1254.21,327.84h.01s2.73.01,2.73.01l.3-10.9-6.06,9.99c-7.87-4.24-13.63-2.73-13.63-2.73l-11.51,9.69h17.26l10.9-6.06ZM1216.66,268.5h0c-1.49.14-3.77.68-6.39,1.42l-.46,33.56c2.38-1.32,4.96-2.6,7.75-3.79,16.35-6.96,35.73-3.33,35.73-3.33l-1.82-12.41-7.87-12.72c-2.73-4.24-20.59-3.33-26.95-2.73ZM1282.07,280.9h0s-8.18-4.83-8.18-4.83l-6.96-3.03-6.66,5.75-1.51,15.44,4.84,3.33-3.94,4.84v9.08s10.6-7.57,21.8-4.24c11.2,3.33.61-26.34.61-26.34ZM1209.14,249.67s0,0,0,0h0s0,0,0,0ZM1255.73,213.99l-9.08,5.15v2.42l7.87-.91,1.21-6.66Z"/>
</svg>