<?xml version="1.0" encoding="UTF-8"?>
<svg id="Layer_1" xmlns="http://www.w3.org/2000/svg" version="1.1" viewBox="0 0 1280 720">
  <!-- Generator: Adobe Illustrator 29.6.1, SVG Export Plug-In . SVG Version: 2.1.1 Build 9)  -->
  <defs>
    <style>
      .st0 {
        fill: #ef30d9;
      }
    </style>
  </defs>
  <path class="st0" d="M1284.06,48.84l-535.38,145.5.46,274.79,294.91,50.32,1.29-298.68,2.48-1.1,201.95-31.65.4,363.11,34.64,6.02-.75-508.31ZM828.76,448.18l-.53,13.28-7.97-.53.27-13.82,8.24,1.06h-.01ZM851.62,464.91l-.27-15.14,8.5.53.27,15.14-8.5-.53ZM927.59,242.54l-.53,16.47-13.28,1.59.27-17.27,8.24-3.19,5.31,2.39h0ZM998,328.61v-17l19.93-.27.27,16.74-20.19.53h-.01ZM1019.26,400.08l-20.19-.27-.53-18.33,20.72.53h0s0,18.07,0,18.07ZM704.76,218.27l.29,260.6-16.14-4.11.59-208.37-42.26,7.34-.29,192.52-4.99-1.17-1.76-230.97-92.15-17.25-6.03,1.95-207.83-38.48-.35-3.55-96.11-18.26-.53-5.32L-3.45,108.16-1.32-1.43l240.33-1.59-42.55,105.07,508.3,116.22ZM704.77,218.27h-.01s.01,0,.01,0Z"/>
</svg>