<?xml version="1.0" encoding="UTF-8"?>
<svg id="Layer_1" xmlns="http://www.w3.org/2000/svg" version="1.1" viewBox="0 0 1280 720">
  <!-- Generator: Adobe Illustrator 29.7.1, SVG Export Plug-In . SVG Version: 2.1.1 Build 8)  -->
  <defs>
    <style>
      .st0 {
        fill: #fc5959;
      }
    </style>
  </defs>
  <path class="st0" d="M349.4,345.92l5.24-1-1-178.63h47.9L189.98-3.6-2.11-3.1l-.25,556.09,46.9-15.47v-33.43c3.99-10.48,34.93-13.72,34.93-13.72l3.49-2.74,3.49.5h5.24l-1.25-83.08,1-2,5.99-1.25,20.21-.75.25-4.74-55.38.75-3.24-62.62,7.23-2,19.46-1.75,1.25-144.95,9.98-.5,190.35,61.37-1.5,130.73-110.77,5.74-.25,10.98-53.14,2.25.5,3.99,21.46.5,1.25,3.74,8.73-1,16.22-1.5,20.96-.25,30.69-3.49,23.7-5.24,2.25,2,6.74-1.25,21.21-1.25,14.47-2,24.2-2.74,6.49,5.74.75-4.24h3.24l4.99,1.75,5.49,1.5,4.24-.75,11.23-5.49,4.24,8.23v-17.46l-5.74-.25.25-30.94h-.04ZM181.5,135.11l-.75-50.89,64.61,38.17,1.5,43.41-65.36-30.69Z"/>
</svg>