<?xml version="1.0" encoding="UTF-8"?>
<svg id="Layer_2" xmlns="http://www.w3.org/2000/svg" version="1.1" viewBox="0 0 1280 720">
  <!-- Generator: Adobe Illustrator 29.8.1, SVG Export Plug-In . SVG Version: 2.1.1 Build 2)  -->
  <defs>
    <style>
      .st0 {
        fill: #31a3f7;
      }
    </style>
  </defs>
  <path class="st0" d="M1016.36,131.81l4.42,2.65-1.33,283.39-12.72.6,5.01-263.96-49.22,25.48s-1.96,1.74-.87,5.88,4.79,1.52,4.79,1.52l1.09,2.4,11.76-6.32,4.79,4.14-3.7,215.61-11.98.44,4.79-8.49-.87-2.83-8.28-5.01-3.7-2.18-4.14.44,2.83-197.1-1.31-5.44-35.06,18.95s-1.96,1.09-1.31,4.57c.65,3.48,5.23,1.09,5.23,1.09l.22,2.4.87,1.96,10.45-5.88.87,1.74,2.4.22-2.18,143.96-8.49-.22-1.52,9.8v10.02s-4.79,5.88-.65,8.71l-1.31,3.7-15.46,13.5,2.61-204.5,2.49-3.32,99.47-57.92ZM1202.21,469.18l3.85-393.11-2.89-2.57-25.97,12.18c-5.13,1.92-3.85-3.53-3.85-3.53l4.81-3.53-.64-2.89s-4.81,4.81-8.66.32c-3.85-4.49-1.28-7.7-1.28-7.7l112.55-61.56,4.17-8.66-36.26-4.72-194.53,115.83-3.54,302.85s7.09-10.21,8.61-12.82c1.52-2.61,6.32-1.96,6.32-1.96l32.23-.22,4.36-268.1-2.61-1.09-10.24,4.79s-8.28,4.36-10.67,4.57-1.52-1.74-1.52-1.74l2.4-1.96-.44-5.44c-1.52,1.31-5.44,2.61-7.62-.22-2.18-2.83.92-7.44.92-7.44l88.39-47.63v23.41l-4.84,310.79,2.83,3.23c2.83,3.23-.4,11.71-.4,11.71l-4.84,6.46,25.02,4.04,6.86,2.83,9.28.81,5.25,3.63-1.05,73.12,82.98,23.24-.08-53.46-78.88-13.47Z"/>
</svg>