<svg width="1280" height="720" viewBox="0 0 1280 720" fill="none" xmlns="http://www.w3.org/2000/svg">
<path d="M1150 616L1152.5 617L1154 618L1155.5 618.5L1158.5 619H1179V618.5H1184V633L1126 631V627L1125.5 625L1126.5 624V620.5L1126 619.5L1126.5 618L1127 617V615.5L1150 616ZM1021 611.5L1022 615.5L1022.5 617L1023 617.5V619L1024 621L1025 622.5L1025.5 624.5V626L1026.5 627L990.5 626L991 624.5L992 622L991.5 620L992 617V613.5L992.5 611L1021 611.5ZM896.5 610V612L897 614L897.5 615.5L899.5 619.5L900.5 622.5L901.5 625L768.5 624.5H768L767 623.5L765 619.5V618L765.5 617L762.5 614L761 611.5L760 609.5L770.5 609L771.5 609.5L773 610.5L775 611H793L794.5 610.5V609L896.5 610ZM644 607.5L642.5 609L640.5 609.5L630 612.5L625 614L619.5 616L614.5 618L612 619.5L611.5 620H610.5L609 621L607 622L605.5 623.5H539V619.5L539.5 619V607L644 607.5Z" fill="#0004FF"/>
</svg>
