<svg width="1280" height="720" viewBox="0 0 1280 720" fill="none" xmlns="http://www.w3.org/2000/svg">
<path d="M1279.73 720H1203.5L1207.5 0H1279.73V720ZM1147.5 70L1166 70.5L1182.5 71.5L1186.5 72L1184 618.5H1179L1179.5 604L1173.5 600.5L1171 600L1159.5 599.5H1151L1150 600V616L1127 615.5L1126 611.5V606.5L1125.5 604L1125 603H1124.5L1124 601L1122.5 597L1122 594L1120.5 592.5L1120 591L1119 589L1118 588.5L1117.5 586.5L1116 583.5L1114.5 581.5L1113 580L1110 578L1104 575L1100 573.5L1094.5 571.5L1091 570.5L1088.5 570L1086.5 569.5L1084 569L1077 567L1068.5 565L1060.5 563.5H1057.5L1054.5 564V563L1048 562.5L1043.5 562H1039.5L1035.5 562.5L1033 563L1031.5 564L1030 564.5L1029 566L1028.5 567L1027.5 568L1027 569L1025.5 570.5L1025 572V572.5L1024 573.5V574.5L1023 575.5L1022.5 576.5V578L1021.5 579.5V582L1020.5 583.5V584.5L1019.5 586V588.5L1020 589.5L1019 591V592.5L1019.5 595L1020 596.5L1019 598.5V600.5L1019.5 605L1020 608L1021 611.5L992.5 611L992 609.5L991.5 607L992 604.5L991.5 602.5L991 600L990.5 598L990 595.5L989.5 593.5L989 592L987.5 589L987 587.5L986.5 586.5L986 584L985.5 582.5L984.5 581.5L983.5 580L983 579L982 578V576L980.5 575L978.5 573H978L978.5 102.121L1019 70L1122.5 69.5L1147.5 70ZM1017 71L975.5 104H972.5L971 104.5L970.5 105V569L965.5 567.5L965 562.5L965.5 552.5L966 540L966.5 526L967 521.5L967.5 506H964.5L963.5 525.5L961.5 565.5L958.5 564.5V536.5L959 520L959.5 519L960 501.5L959 499.5L957.5 501.5L957 507.5L956 510.5V516.5L955 518.5L955.5 520.5V564L945 562.5V560.5L945.5 559L945 557.5V539.5L944.5 518.5V501.5H943.5L941.5 503L942 510L940.5 508L941 532.5V553L940.5 555.5L941 558H940.5L941 560V561.5L936 560.5H934.5L933.5 542.5L934 540.5L935 517.5L935.5 507.5L934 511.5L931 516L930.5 533V511.5L930 505.5L927.5 503.5V517L928.5 539.5L929 554.5L929.5 558L927.5 556L926 555.5L925.5 556.5V558L927 560.5H924L918.5 561L914 561.5L907.5 562.5L905.5 564L904.5 565.5L903 567V569L902.5 570L901 571L900.5 572.5L900 575L899 577.5L898.5 579.5L897.5 580.5L898 583H897L896.5 585V587.5L895.5 589V591.5L896.5 593.5H895.5L895 596L896.5 598.5L895 599L896 602L896.5 605.5L896 606L896.5 608.5V610L794.5 609V596L794 594L793 592.5L792 591.5L790 591H772L770.5 591.5L769.5 592.5V607H758.5L758 606V603.5L757 603V596L756.5 591.5L755 584.5L752.5 575.5L750.5 570L748.5 567.5L745 565L741 562.5L737 561L735 560.5L733 561L732 562L731 564.5L729.5 571.5L728.5 579L728 587.5H727L723.5 586.5H722L719 587L716.5 588L713.5 589.5L710.5 591.5L706.5 593.5L703 594.5H701.5L699 595.5L689 598L682 599.5L675.5 601L674 600.5H670L668.5 600L666 597.5V595L667 593L669 591L670 588.5L672 585H682.5L685.5 584.5L688 583.5L689.5 582L690.5 579.5L689.5 576L686.5 574L683 572V571.5L680.5 571L678.5 570L675 568.5L669.5 567L662.5 565.5L656.5 565L651.5 564.5L646.5 565L644 566L641.5 568L641 570.5V573L642 575L644 576.5L648.5 579L652 580.5L656.5 582L657 586L658.5 590L659.5 592L659 593.5L657.5 595L656 597L655 599L653.5 598.5L652 599L648 603L645.5 606L644 607.5L539.5 607L540 435.5L539.5 435H489V432.5L488.5 430.5L488 429L487 428L485 427L481.5 426.5L477.5 426H475L471.5 426.5L465.5 425.5H462L454.5 426L441.5 426.5L436 427H422.5L405.5 428L401 428.5L396 429.5L386 430L379 430.5L370 431.5L365.5 432.5L362.5 433L356.5 433.5L354.5 434L352 435H325.5L326 69.5L1017 71Z" fill="black"/>
</svg>
