<?xml version="1.0" encoding="UTF-8"?>
<svg id="Layer_1" xmlns="http://www.w3.org/2000/svg" version="1.1" viewBox="0 0 1280 720">
  <!-- Generator: Adobe Illustrator 29.8.1, SVG Export Plug-In . SVG Version: 2.1.1 Build 2)  -->
  <defs>
    <style>
      .st0 {
        fill: #c0d813;
      }
    </style>
  </defs>
  <path class="st0" d="M597.49,253.22L98.62,167.08l5.22,336.01,59.37-5.59,2.15,39.58-9.46,21.51,130.78-18.93s2.58-20.22,6.02-24.52c3.44-4.3,38.29-14.63,63.24-19.36,24.95-4.73,52.91,1.72,65.82,3.87s11.62,18.5,11.62,18.5l103.25-14.63s-2.58-24.09-3.44-36.14c-.86-12.05,4.73-11.62,4.73-11.62l61.95-6.88-2.36-195.67h-.02ZM205.59,211.35l83.11,14.09.72,64.68-83.11-7.59-.72-71.18h0ZM207.04,291.21l82.75,7.23.36,66.13-83.47-2.53.36-70.82h0ZM290.87,437.55l-82.39,3.25-.36-70.46,83.47,2.89-.72,64.32h0ZM370.36,237.37l.72,60.71-71.18-7.23-.36-64.32,70.82,10.84h0ZM371.45,366.01l-71.55-2.17.36-64.32,70.46,6.14.72,60.34h.01ZM371.45,434.66l-71.55,2.17.36-64.32,71.55,1.81-.36,60.34ZM378.31,239.18l61.07,8.67.36,56.01-61.79-5.78.36-58.9h0ZM377.95,306.03l61.79,5.06.36,56.01-61.43-.72-.72-60.34h0ZM380.48,433.58l-.36-59.98,60.71,1.08,1.08,56.01-61.43,2.89ZM500.45,257.24v51.31l-53.48-3.97-.36-55.65,53.84,8.31ZM446.97,312.89l53.12,3.97v51.67l-52.76-.72-.36-54.92ZM447.69,431.05v-55.29l53.48.72.36,51.67-53.84,2.89h0Z"/>
</svg>