<?xml version="1.0" encoding="UTF-8"?>
<svg id="Layer_1" xmlns="http://www.w3.org/2000/svg" version="1.1" viewBox="0 0 1280 720">
  <!-- Generator: Adobe Illustrator 29.8.1, SVG Export Plug-In . SVG Version: 2.1.1 Build 2)  -->
  <defs>
    <style>
      .st0 {
        fill: #efce45;
      }
    </style>
  </defs>
  <path class="st0" d="M918.99,61.1h.01S1054.28-2.51,1054.28-2.51L51.27-4.52l67.14,154.46,479.04,89.85,354.86-147.9-3.03-7.57-30.29-23.22ZM474.49,173.99h0c1.56-4.03,12.96-.46,13.85,1.11s-.45,3.13-6.93,2.91c0,0-8.49,0-6.93-4.02ZM511.15,206.39l-175.42-36.42,4.69-9.83,178.77,38.88-8.04,7.37ZM588.7,89.28h0s-8.27-1.11-9.39-6.25c-1.12-5.14,6.48-6.7,15.42-3.58s5.81,11.17-6.03,9.83ZM816.27,139.77h.01s-21.32,2.06-24.82-6.21,19.25-18.14,35.95-16.54c16.7,1.59,25.29,14.95-11.14,22.75Z"/>
</svg>