<?xml version="1.0" encoding="UTF-8"?>
<svg id="Layer_2" xmlns="http://www.w3.org/2000/svg" version="1.1" viewBox="0 0 1280 720">
  <!-- Generator: Adobe Illustrator 29.8.1, SVG Export Plug-In . SVG Version: 2.1.1 Build 2)  -->
  <defs>
    <style>
      .st0 {
        fill: #f99403;
      }
    </style>
  </defs>
  <path class="st0" d="M1019.81,551.98l-25.89-5.67-.53-404.23,287.38-90.53.78,29.87-261.38,77.59-.36,392.97ZM993.94,556.6v40.45l8.88-.99,17.68,5-1.07-37.34-25.49-7.13ZM920.45,197.9l1.27,243.91-4.8-.06-4.24,4.04-2.83-7.88-1.82,10.92-5.86,4.65-3.84-5.05-4.85-2.02-5.15,1.45-5.09-.23-.47-4.86-6.06.2,1.41-4.04,5.46-6.67,21.02.4-1.01-211.04-74.56,18.24-.03.36,1.2,188.51,27.91,1.91-.2,2.63v4.65l-2.83,2.63.2,3.84h-4.19s-98.55-7.4-98.55-7.4l-1.76-2.1-3.44-.81-34.16-2.22-14.76-2.02-8.49-.2-4.65-2.02-14.29-1.49-.51-7.6.51-3.04-1.52-146.9,248.72-71.68,2.28,1.01ZM734.29,263.02l-7.88,1.93.02.07,1.27,156.02-.24.67,9.59.66-.49-.81-2.27-158.53ZM719.95,421.19l-.97-154.41h0s-39.39,9.62-39.39,9.62l1.01,142.11,39.34,2.69ZM798.04,426.53l-1.4-178.63.24-.18-55.38,13.55,1.98,161.09.34.48,54.22,3.71ZM819.13,242.27l-12.76,3.12.09.13,1.27,180.84-.87.77,12.43.85.09-.86-.25-184.85ZM879.05,432.31l-7.86-.22-1.95,2.47.45,3,3.89-3.37-2.1,2.92-2.32,4.04-2.17,1.95v3.07l3.3.3.82-.9,1.72-2.62-.22-2.7,1.65-2.7,4.79-5.24Z"/>
</svg>