<?xml version="1.0" encoding="UTF-8"?>
<svg id="Layer_1" xmlns="http://www.w3.org/2000/svg" version="1.1" viewBox="0 0 1280 720">
  <!-- Generator: Adobe Illustrator 29.6.1, SVG Export Plug-In . SVG Version: 2.1.1 Build 9)  -->
  <defs>
    <style>
      .st0 {
        fill: #9dea39;
      }
    </style>
  </defs>
  <g id="Layer_2">
    <path class="st0" d="M630.02-37.46L546.91-1.6l14.76,488.92-36.12-8.04-2.15-40.21-.48-19.63-.96-18.43,6.22-1.68-.96-9.34-29.68-3.59-3.11-30.16-1.91-1.2-32.08,2.39-1.2,1.68,3.11,27.77-2.91-.71-.39-3.24-1.36-1.04-4.66-.45-5.82-1.23-3.43.91-.18-5.56-1.72-19.7,3.52-.63,1.02-.31s.7-1.09-.08-1.56c0,0,.39-1.56-.94-1.49s-3.05.08-3.05.08l-2.11-24.86,3.83-.55s1.09-.47.23-1.33c0,0,1.64-1.72-.94-1.95l-3.05.16-1.72-24.93,3.91-.63s1.41-.55.16-1.56c0,0,1.09-1.49-.55-1.8l-3.6.31-1.41-25.09,3.13-.39s2.58-1.49-.86-1.64l-.7-2.74,30.91-1.78s17.5-.95,18.77-2.86l-7.32-67.28s-1.11-1.75-3.82-1.27-40.4,2.07-40.4,2.07l.64-2.23s3.18-3.02.48-6.52-8.11-.32-7,3.18,2.7,3.02,2.54,5.57l-42.79,2.39s-1.91-.48-1.75,3.02.32,30.38.32,30.38l.32,30.06s-1.11,5.73.95,5.73,12.41.95,18.61.8,24.18-.64,24.18-.64l-.48,2.86s-4.45-.16-1.43,1.59l3.82-.16,1.11,25.29-3.32.17s-1.58.62.23,1.58c0,0-1.35,1.13.39,1.58s3.04.11,3.04.11l1.46,24.7-2.87.23s-1.97.28-.68,1.91c0,0-1.41,1.24.51,1.69s3.26.17,3.26.17l1.86,24.93-3.04.23s-2.25.39-.62,2.03c0,0-1.07,1.13.68,1.41s3.21.17,3.21.17l1.52,24.87-2.7.11s-1.86-.06-.96,1.58l-4,.17s.62-1.07-1.63-1.07-24.31-3.8-26.27,3.22l.49,9.48-5.88.98-2.45-13.24-1.31-8.34-.98-8.83-2.29-5.56.16-5.88-2.78-9.15-.49-6.7-.65-4.41,1.8-3.92-.82-2.94-1.47-1.31-5.88,2.62-1.96.98-2.78.49,1.14-9.97v-7.85l-.16-8.83-.49-7.19s.33-4.41-1.96-3.92-4.9,1.63-4.9,1.63l-2.29.33-8.99,2.94-6.7,2.29-.6-16.03-.79-14.55s1.32-4.5-5.55-4.23-82.78,4.48-82.78,4.48L-6.86,284.94l5.37-47.83,290.72-10.21-6.99-122.52L-4.71,90.4-2.03-41.79l632.04,4.33h.01Z"/>
  </g>
</svg>