<?xml version="1.0" encoding="UTF-8"?>
<svg id="Layer_1" xmlns="http://www.w3.org/2000/svg" version="1.1" viewBox="0 0 1280 720">
  <!-- Generator: Adobe Illustrator 29.6.1, SVG Export Plug-In . SVG Version: 2.1.1 Build 9)  -->
  <defs>
    <style>
      .st0 {
        fill: #ef3535;
      }
    </style>
  </defs>
  <path class="st0" d="M824.3-35.53V-5.56l-19.84,2.53-1.27,444.5,92.99,14.65-2.11-28.74,3.98-7.22h3.73l1.99-1.24,1.49.75,1.37-.37,1,.5,1.49-1.24,2.49-.12,1.37.37,1.49-30.98-.62-5.22h1.24l1-22.02.5-12.32-1-1.12s-3.48.62-7.46-2.74c0,0-3.11.62-6.97-4.23,0,0-3.61,3.48-6.72-2.24,0,0-2.61-.62-3.36-1.74,0,0-9.83,4.6-15.55,11.32,0,0-2.36,2.36-.87-1.99,0,0,.25-2.61,2.74-4.11s.5-3.61,5.85-5.22l1.49-.87s1.12-1.62,5.47-2.36c0,0,0-2,1.08-3.46,0,0-1.08-.09-1.5-.75s-.89-1.17-1.22-1.08-.66.94-1.88.94-2.26.66-2.44.99-2.21-.09-2.68.33-1.74,1.08-3.52-.23-2.07-2.54-2.54-1.88-1.08,4.56-2.96,5.22c0,0-.52,1.5-1.74,2.77s-1.32,2.82-1.32,2.82c0,0-2.54.66-2.77-1.32,0,0-2.4,1.69-4.56-3.48,0,0-.47-2.02.52-3.85l.23-2.73s-1.55.61-2.54.85-1.36.89-1.32,1.88-.8,1.6-.8,1.6l-.47.66-1.74.14s-1.79.61-2.44-.8,1.97-3.95,1.97-3.95c0,0-.47-2.91.94-5.07,0,0-2.3-.14-2.02,1.93,0,0-2.4-1.46.47-4.04,0,0,.23-2.82,1.5-4.04,0,0-3.24.28.38-3.29l-.89-1.5.66-.85-.52-1.27.23-1.69-2.58,2.54-1.88,2.63-3.05,1.13-1.03,1.17-.14,1.22h-2.11l-1.13-.47-1.46.66-2.02-.94-1.03-1.17.89-1.5.28-.75-.09-4.65,2.87-2.54-1.08-1.36.28-.85-.66-1.17-.38-3.34.66-3.1,1.41-1.6.38-1.55,1.22-1.27,2.02-3.1s1.41-2.4,3.05-3.1c0,0,2.44-4.04,4.75-4.51s3.52-.05,3.38.47-1.46,1.64-.66,1.74,3.24-.19,3.24-.19l.52-.42-.94-.42-.23-.94-3.1-3.57-2.4-1.41,1.32-.09-2.68-1.22-3.57-1.27-1.64-1.36s-2.54-2.07-1.5-4.65,3.05-4.74,3.05-4.74c0,0-1.17-2.6,2.69-3.5s3.41-.36,3.41-.36c0,0-.09-3.23,2.96-3.85s5.92,1.08,5.02,5.56c-.9,4.48-2.69,4.3-.63,7.08s2.69,5.2,2.87,6.63-.72,4.3-.72,4.3c0,0,.63,1.43.27,2.6s-1.25,2.69-1.25,2.69l5.02,5.38-.9-2.78.27-3.5-.18-1.7,2.15-3.85.18-2.06,2.42-5.11s2.42-7.62,4.48-10.13l.81,1.43-1.52,1.88.36,2.69-1.61,3.59-1.88,6.27v3.05l-.45,3.41.72,5.83.63,2.78.54,3.41.18,1.34,3.32,3.94-.45-5.47-1.43-5.02s-.72-2.96.63-6.27c0,0,0-2.78.63-4.3s.27-2.69,1.08-4.39,1.08-4.66,1.08-6.01.54-1.79,2.06-1.43,1.61.99,1.34,1.88-.18,4.03-.18,4.03c0,0,.45-3.23,1.79-3.23s4.39,1.43,3.94,3.32-1.43,6.19-2.24,11.38-.36,14.88-.36,14.88l.54,9.14,1.52,2.24,2.69,2.87,1.08-.18-.9-2.06-.09-1.7s-2.06-3.41,1.61-7.26c0,0-.18-3.76,2.96-5.11,0,0-.9-1.08-1.97-1.34s-.99-2.87-2.87-3.05c0,0,.36-1.7,1.43-1.43s1.43-2.42,1.43-2.42c0,0,.27-1.34,1.34-2.06s.45-2.15,2.51-1.34,3.85,2.06,6.19,2.15,3.05.27,3.05.27l3.14-2.06s1.88-1.7,4.12-2.15v-1.34s-6.45,2.33-9.86-1.97l-4.39-2.15s-1.88-1.88-1.88-3.76,2.42-4.66,4.93-4.12l1.97.54s1.25-1.7,3.5-.81,3.41,2.69,5.29,2.69,3.76,1.97,4.93,1.97,2.96,1.17,3.5,2.06c0,0,3.59-.99,5.29,1.17s-1.79,2.15-1.79,2.15l2.51.99.63-5.2,1.61-6.81v-1.97l-1.52-.9.45-4.84-.36-1.17-1.17.18s-2.6-4.21-5.65-2.6c0,0,.9,3.94-4.03,8.25,0,0-2.42,2.15-4.48,2.33s-3.14.9-4.3.9-3.23.63-4.39-.36-2.06.9-3.5-1.97-.9-4.03,1.17-4.57-.54-2.42,3.05-5.74c0,0,1.34-.45,2.51-.45s2.69-1.88,6.36-1.25,8.87,1.08,9.86.9,1.25-.45,2.33.54c1.08.99,1.88,3.14,2.69,1.88s1.7-2.51,2.87-3.14,1.97-3.32,3.32-2.96,2.6,1.61,3.59,2.96,2.51.36,5.2.54,3.05-1.79,6.36-.99,6.45-.09,8.43,1.88c1.98,1.97-.72-.36-1.61.63s-4.48,1.61-6.63.99-2.6.72-4.93.36-4.12-1.25-5.56.45-3.85.9-5.47,3.05-1.43,5.02-2.78,5.38-3.32,14.07-3.32,14.07c0,0,1.34.81,2.51-.9s3.76-1.43,3.76-1.43c0,0,1.43-1.88,2.42-1.25s2.06,2.6,3.14,2.33.99-.72,1.97,0,1.34,1.25,2.96.45,2.78,1.79,5.83,1.08,2.96,1.52,5.11,1.52,2.15.18,4.39,1.61,5.74.18,6.27,3.59-3.59-1.7-5.47-1.17l-1.88.54s.9-.18,1.7,1.97-1.34,2.06-1.34,2.06c0,0,1.79.9.09,1.52,0,0,2.42,2.33,3.94,2.33s1.17,2.33.99,2.87-.63.54-2.78.36-2.87-1.43-4.03-2.24-2.33,1.7-.54,3.68,4.12,3.85,4.75,7.53,1.61,3.76,1.08,6.19,1.43,1.52,2.06,3.59-.81.81.09,2.33-2.6-.72-4.12-1.17-1.88-.63-2.51-1.43-2.33-1.43-2.33-1.43c0,0,.9,2.33-1.52,3.23s-3.23.9-3.23.9c0,0,2.6,1.97,4.12,1.97s1.25,1.43.63,1.97-4.75-.27-6.1-1.08l-1.34-.81-3.14.36s-2.24.81-3.94-.36-3.76-1.34-5.29-1.17-1.88-.81-4.39-.63-3.41.72-5.38-.36c0,0-.9,1.7-1.88,2.6s-1.34,3.23,1.17,4.03c0,0,.99-.99,2.24-.99s1.7-2.6,1.7-2.6h1.08l2.42,1.7s.45-.72,3.05.63,9.5,4.57,12.1,6.63,7.08,4.57,7.08,4.57l-1.79.9s-2.33-2.06-4.75-2.15c0,0,1.7,1.34,1.17,3.41s2.24,2.06,2.06,5.47-2.06,3.76-2.69,3.5c0,0-.36,1.88-2.15-.36s-3.85-3.94-3.85-3.94c0,0,.18,1.25-2.33-1.17s-3.05-4.03-4.75-4.39-2.15-3.85-3.5-4.75-2.06-3.32-4.3-2.42-1.7.36-1.79,2.51.09,8.43-6.9,12.01l-.9,4.48-.9,24.38-.9,21.24-.54,9.68,1.88.45-2.06,5.56-.36,9.77h.63l1.52-.72,1.61.45,1.52-.18.81.63,1.43.45,3.05-1.08,1.88.9,1.34.99,4.3.45-4.21,39.44,11.2,1.52,2.6-67.77.9-32.36.36-5.29s.18-2.33,3.14-2.78,29.85-5.92,29.85-5.92c0,0,1.7-5.02,4.03-5.92s1.88-2.69,10.13-2.15l2.44-.5,1.07-.61-15.61-1.37-.69-.61s-1.37-.53,0-2.06l-.84-.91s-1.14.23-1.14-2.21.69-5.18-.99-7.16-1.67-3.81-1.67-3.81l-4.87-.38s-.3-.08-.23-1.67,2.28-2.06,2.28-2.06c0,0,.3-.76,1.83-.76h1.52l7-321.02.53-.53,236.04-30.54-396.36-.03-.03-.08h0Z"/>
</svg>