<?xml version="1.0" encoding="UTF-8"?>
<svg id="Layer_1" xmlns="http://www.w3.org/2000/svg" version="1.1" viewBox="0 0 1280 720">
  <!-- Generator: Adobe Illustrator 29.6.1, SVG Export Plug-In . SVG Version: 2.1.1 Build 9)  -->
  <defs>
    <style>
      .st0 {
        fill: #1db4d8;
      }
    </style>
  </defs>
  <g id="Layer_2">
    <path class="st0" d="M1282.24-36.92l-.51,16.88L1004.19,13.48l-8.55,300.27,287.5,18.72.91,29.25-233.68-17.78-1.79-3.88-5.57-5.76-9.14-4.77-7.45-2.68-3.98.1-4.67,3.68-5.17,5.47h-4.07l-2.09,1.49-3.28.3-5.68,1.71-15.61-1.37c-2.41-1.25-.69-2.66-.69-2.66l-.84-.91c-1.25-.16-1.14-2.21-1.14-2.21.2-2.96.4-6.08-.99-7.16s-1.67-3.81-1.67-3.81l-4.87-.38c-1.28-3.27,2.06-3.73,2.06-3.73.58-.94,1.83-.76,1.83-.76l9.06-321.55,236.04-30.54,14-7.56,47.59,6.15v-.03Z"/>
  </g>
</svg>