<?xml version="1.0" encoding="UTF-8"?>
<svg id="Layer_1" xmlns="http://www.w3.org/2000/svg" version="1.1" viewBox="0 0 1280 720">
  <!-- Generator: Adobe Illustrator 29.8.1, SVG Export Plug-In . SVG Version: 2.1.1 Build 2)  -->
  <defs>
    <style>
      .st0 {
        fill: #f9963d;
      }
    </style>
  </defs>
  <path class="st0" d="M936.97,201.87l50.92-21.38-.78,179.19-50.14-2.72-18.55.21-168.61-.77,1.04-156.42,22.66.22v12.38h-9.48v66.72h21.23v-66.72h-9.64v-12.36l136.06,1.31,25.29.34ZM1273.48-4.36l-6.76,727.96-74.32.56-131.74-88.95.56-11.26-67-42.79,2.82-437.45h0L1273.48-4.36ZM1031.55,363.3h-15.68v61.63l15.68,2v-63.63ZM1031.55,309.51h-15.37v38.11h15.37v-38.11ZM1126.56,602.17v-263.8h12.78-.01v-6.11h-33.36v260.57l-2.12-.07.2,5.11,1.92.86v1.8h4.01l11.16,1.05v.59h-2.57l.82,4.91,2.86,2.66,14.31,1.02.61-5.52-5.31-3.07h-5.3ZM1113.46,338.08l-2.2,254.97,5.82.31,2.71,1.37.8-255.37-2.25-1.44-4.88.16ZM462.02,209.46h9.71v66.73h-21.24v-66.73h9.34v-10.81l-136.39-.22-20.22.54-.27,155.07h187.91l.84-155.34-29.68-.05v10.81Z"/>
</svg>