<?xml version="1.0" encoding="UTF-8"?>
<svg id="Layer_1" xmlns="http://www.w3.org/2000/svg" version="1.1" viewBox="0 0 1280 720">
  <!-- Generator: Adobe Illustrator 29.8.1, SVG Export Plug-In . SVG Version: 2.1.1 Build 2)  -->
  <defs>
    <style>
      .st0 {
        fill: #8cea65;
      }
    </style>
  </defs>
  <path class="st0" d="M490.86,419.55l-168.8-3.06.81-62.45h167.99v65.51ZM562.04,415.4l54.74-.53v-16.55s-1.07-29.37,6.41-31.51c0,0,5.07-.53,6.41,8.28l-1.07,2.4h-3.2s-1.07-8.01-1.34,5.61l-.27,21.36s4.01-3.47,5.34-.53l-.53,11.75h53.14l1.07,3.2,25.9.27v-32.26l17.27-.4,1.08,32.78,1.9-.27.81-232.72h-31.7l-1.08,121.64-151.98-.27.03-122.14h-.02s-32.31-.01-32.31-.01v232.57h46.46l2.94-2.67ZM918.42,357.16l.52,63.41h-168.87l-.26-64.18,168.61.78h0ZM868.94,373.54h-10.36v15.98h10.36v-15.98ZM773.37,175.62l-22.47-.22-.05,24.58,22.52.21v-24.57ZM911.69,177.02l-135.88-1.37v24.57l135.87,1.31v-24.51ZM459.73,173.38l-136.29-.26v25.31l136.29.22v-25.27ZM491.7,173.45l-28.97-.06v25.26l28.97.05v-25.25ZM947.34,546.07l-8.01-5.28h-18.41l-.22,19.29,26.77.44-.13-14.45ZM354.94,710.31l526.92,2.47,1.23-197.6-526.92-3.08-1.23,198.21Z"/>
</svg>