<?xml version="1.0" encoding="UTF-8"?>
<svg id="Layer_1" xmlns="http://www.w3.org/2000/svg" version="1.1" viewBox="0 0 1280 720">
  <!-- Generator: Adobe Illustrator 29.8.1, SVG Export Plug-In . SVG Version: 2.1.1 Build 2)  -->
  <defs>
    <style>
      .st0 {
        fill: #da6ef4;
      }
    </style>
  </defs>
  <path class="st0" d="M-2.68-2.28L-4.37.03l327.81,173.1,136.28.26v-93.56c-7.36-.3-13.1-2.75-13.1-5.73,0-3.18,6.53-5.76,14.6-5.76s14.6,2.58,14.6,5.76c0,2.98-5.74,5.43-13.1,5.73v93.57l28.98.06.32-11.69,52.95.97v-5.5l71.83-.09v-15.52c-3.27-.59-5.54-1.85-5.54-3.32s2.27-2.73,5.54-3.32v-55.25c-7.36-.3-13.1-2.75-13.1-5.73,0-3.18,6.53-5.76,14.6-5.76s14.6,2.58,14.6,5.76c0,2.98-5.74,5.43-13.1,5.73v54.92c.38-.02.76-.03,1.15-.03,5.35,0,9.68,1.64,9.68,3.67s-4.33,3.67-9.68,3.67c-.39,0-.77-.01-1.15-.03v15.22l78.81,1-.32,5.85,52.62.32v11.04l22.27.22v-94.92c-7.36-.3-13.1-2.75-13.1-5.73,0-3.18,6.53-5.76,14.6-5.76s14.6,2.58,14.6,5.76c0,2.98-5.74,5.43-13.1,5.73v94.95l135.52,1.37,76.01-38.98v-6.82L1225.13-1.95-2.68-2.28ZM271.3,78.53c-8.56-.8-15.3-3.68-15.04-6.44.26-2.76,7.41-4.35,15.97-3.56,8.56.79,15.3,3.68,15.04,6.44-.26,2.76-7.41,4.35-15.97,3.56ZM361.05,142.05c-5.92,0-10.73-1.7-10.73-3.81s4.8-3.81,10.73-3.81,10.73,1.7,10.73,3.81-4.8,3.81-10.73,3.81ZM889.06,145.5c-5.92,0-10.73-1.7-10.73-3.81s4.8-3.81,10.73-3.81,10.73,1.7,10.73,3.81-4.8,3.81-10.73,3.81ZM977.45,83.25c-8.56.8-15.71-.8-15.97-3.56-.26-2.76,6.48-5.64,15.04-6.44,8.56-.79,15.71.8,15.97,3.56s-6.48,5.64-15.04,6.44Z"/>
</svg>