<svg width="1280" height="720" viewBox="0 0 1280 720" fill="none" xmlns="http://www.w3.org/2000/svg">
<path d="M1122.5 479.5H1116.5L1118.5 478L1116 477L1110 476L1106.5 476.5H1102.5L1101.5 398L974 405L975.5 483.5L1066 484L1068.5 493L1070 500L1070.5 505L1071.5 509L1074.5 514.5L1075 517L1076 520L1076.5 521L1077.5 527L1078.5 530V556.5H1073L1072.5 556L962.5 550L960 406L901 409L902.5 501L901.5 504L895 503.5L894 410L841 412.5L842 502L735 499L734 399.5L733.5 399L735 398H738.5C738.5 398.667 741.9 400 755.5 400C769.1 400 772.5 398.333 772.5 397.5L771.5 396C771.667 392.667 770.3 384.1 763.5 376.5V365L762.5 364L755 363.5L747 365V377L743 383.5L734 381.5L733.5 351H734.5L809 342.5L807 354.5L806 356L805.5 356.5C804.833 358.333 807.2 361.8 822 361C826.993 360.73 832.167 360.385 837.062 359.95L833 360.5V371L831.5 373.5L829.5 376L827.5 380.5L826 385L825 393L824.5 393.5C824 394.5 825.8 396.4 837 396C851 395.5 862 394 862 392.5L861.5 391.5L860.5 391C860.833 387.667 859.6 378.8 852 370L851.507 358.167C857.523 357.101 861.5 355.741 861.5 354L861 353L859.5 352C859.333 348.833 858.5 341.3 856.5 336.5L1121 304L1122.5 479.5ZM902 512V517.5L842 515L775.5 513.5L735.5 518.5V506.5L902 512ZM746 418L746.5 482L830.5 482.5L830 413.5L746 418ZM1247.5 288.5C1261.5 291.7 1275 291.167 1280 290.5V387L1247.5 391.5L1248.5 351.5L1249 326L1247.5 305V288.5Z" fill="black"/>
</svg>
