<svg width="1280" height="720" viewBox="0 0 1280 720" fill="none" xmlns="http://www.w3.org/2000/svg">
<path d="M208 558.5L206.5 560L207 603L205 604L196 607.5L161.5 622.5L131.5 629.5L101.5 641.5L90 653.5L0 656.5V640.5L51 624.5H61L60.5 555L208 554.5V558.5ZM208 371V373.5H204.312V369L208 371ZM184 367L183.5 371H178L179.5 366.5L184 367ZM163.5 366.5V370.5L153.5 370V365.5L163.5 366.5ZM198.5 352.5V353.5L203 355L205.5 354L207.5 355V363L204.5 362.5L198.5 356.5L195.5 351.5L198.5 352.5ZM194.5 353L194 355L193 355.5L193.5 357H195.5L197 361L193 360.5V350.5L194.5 353ZM159.5 332L157 336L157.5 337.5L160.5 334L161 335L160 336.5L161 339L165 341L165.5 344L164.5 348.5L163.5 354.5L163 357V359.5L154.5 359V354L155.5 355.5L156 354L155.5 352L154.5 350V347.5L155.5 345.5L158 341.5L156.5 341L155 343.5L153 343V341L155.5 339.5L153 339V335.5L154.5 335L155 338.5H157L156 332L158 329.5L159.5 332ZM184.5 353.5L182.5 355V352L184.5 353.5ZM201.5 339.5L202.5 339V344.75L203 349.5L204.188 345.5L205 342.5L206.5 345.5L207.5 349.5L208 352H202.5L202 343.5L200 337L201.5 335.5V339.5ZM200.5 347L201 351.5H199.5L196.5 348L195.5 343.5H200L200.5 347ZM182 339.5L182.5 341L180.5 343.5H179.5L181 345L181.5 348H179L177 345L176.5 342L177 338.5L180 337.5L182 339.5ZM207 325.5L208 342L204 332L205 325L205.5 323.5L207 325.5ZM197 336L196.5 339L194.5 341.5L194 340.5V331.5L197 336ZM200 332.5V334L198 332.5V330L200 332.5ZM197 321.5L198 323L200.5 326.5L202 330.5L201 331L199.5 328.5L197 324.5L195 322L194.5 320.5L197 321.5ZM200 317L203 321V328L201.5 322.5L199 317L197.5 315L200 317ZM154.5 323.5L153.5 324.5L153 327V322.5L154.5 323.5ZM174.5 318.5L173.5 319.5L173 320.5L172.5 322.5L171 320L172 314L174.5 318.5ZM207 312L207.5 322.5L203 317.5L199.5 315.5L196 313V309L197 307.5L200 307L207 312ZM161.5 316.5V318L159 321L158.5 319L159 315.5L161.5 316.5ZM169 317L168.5 319.5L167 317.5L166.5 316H168.5L169 317ZM193 314.5V315.5L193.5 316.5L192.5 318.5H192V316L189.5 314.5L191.5 313L193 314.5ZM208 310.5L203.5 307H207.5L208 310.5ZM194 301L193.5 305L192.5 307L190.5 304L191 300.5L194 301ZM207 303V305.5H200L205 301L207 303ZM173.5 299L171 301.5L169.5 299L171.5 298L173.5 299ZM190 300L188.5 301.5L186 298.5L190 300ZM201.5 290L206 291.5V295.5L204.5 298.5L200.5 300.5H197.5L196 301H195V289L201.5 290ZM193 291.5H191.5L193 293.5L190.5 298.5L186.5 298L187.5 296.5L190 297.5L191 296.5L180.5 292H184.5L186.5 290.5L192.5 289L193 291.5ZM186.5 297L185.5 298L182.5 297L181.5 295.5L182.5 294.5L186.5 297ZM173 290.5L171 292L167.5 289L169 288L173 290.5ZM182.5 285.5L179.5 291.5L176.5 287.5L182.5 281.5V285.5ZM160.5 285.5L158 287.5L153.5 288.5L156 283.5L157.5 285.5L158 283L159.5 279L160.5 285.5ZM205 251L206 277L205 279V288.5L199.5 288L195 287.5L194.5 284.5L198 283L202 281.5H204.5V281H198L194.5 282L194 270.5L198 270H200.5L199.5 240L204 235L205 251ZM193 287.5L191.5 288L190 286L193 284.5V287.5ZM110 277.5L106.5 278L110 278.5L117.5 281.5L125 285.5L126 287H119L98.5 277.5V272L110 277.5ZM150 195.5L163 205L170.5 210.5L177.5 215.5L181.5 217.5L191 223.5L191.5 252L193 283L186.5 285.5L188.5 281V277L183 285V279.812L185 277.812L184 264L182 271.5L183 274.5L178 284.5L176 286L175.5 286.5L171 283L171.5 281.5L170.5 280.5L173.5 276.5L180 272.5L172.5 276L168 279.812L164 282.5L161.5 279.812L161 277.812L161.5 276L161 273.5L165 267.5L167.5 265.5L170.5 263.5L166 265L164 267L160.5 271L159.5 273.5L157.5 269V275.5L153.5 271V259.5L154 209L128.5 191.5V186L131 185L135 184L150 195.5ZM128.5 212.5L130 213.5L137.5 217L142.5 219.5L139.5 216L136 212.5L145.5 213.5L144.5 264.5L140 262.5L144.5 266.5V285L141 283L140 281L138.5 277.5L135.5 274.5L133 272.5L130.5 272L126.5 273.5H130L129.5 275L131 274H133.5L136 276.5L137 280.5L133.5 275L135 279L133.5 278.5L126.5 275L127.5 276L128.5 278.5L99 264V241L105 240.5L113.5 241L121 245L123.5 247L126 249.75L129 251L132 253.5L128.5 248L123.5 244L128 245.5L125 242L114.5 237L110.5 236.5L106.5 237L105 236H101.5L110 233.5H113.5L109.5 231.5H114.5V230.5L128.5 235L136 238L140.5 242L136 237L128.5 232.5L121.5 229L112.5 227.5L107 228L99 230.5V227.5L104 225L105.5 225.5L107 224.5L108 222L114 224L116.5 226.5L112.5 220.5L108.5 220L111.5 217L110.5 215H114L116 217L120.5 221L124 224L128.5 229L124.5 223L122 221L119.5 217.5L125.5 218L127 217.5L130 218.5L136 220L129.5 216.5L126 212L128.5 212.5ZM164 283L162 284.5H161.5L161 280.5L164 283ZM85 271.5L84.5 272.5H80.5L78 268H83.5L85 271.5ZM78.5 272H74.5L77 269.5L78.5 272ZM76 268L72 271.5H68L69.5 267.5L76 268ZM61 271L59 270.5V267H60L61 271ZM67.5 267.5L65.5 271H63.5L61.5 267L67.5 267.5ZM81 260.5L75 260V259L77 256.5L78 254.5L81 260.5ZM86.5 260.5H84L86 257L86.5 260.5ZM72.5 258.5L71.5 260L69 257V254H70L72.5 258.5ZM82.5 252L84.5 255L82.5 258.5L79.5 252.5L81 251.5L82.5 252ZM76 253.5L73.5 256.5L71.5 253.5L75.5 252.5L76 253.5ZM83.5 238.5L83 240L80.5 242.5L78.5 241L82 237L83.5 238.5ZM62.5 238L59 239.5L60 236.5L61 235.5L62.5 238ZM203 229.5L199 235V228.5L203 229.5ZM82.5 227.5L81.5 229.5H81L79 224H81L82.5 227.5ZM129 167L136 170.5L144 177L153 185L162 192.5L173.5 201L184.5 209.5L196.5 218.5L190 215.5L189.5 214L185.5 212L185 213L180.5 210L170 201L161.5 194L153 187.5L146.5 180L139.5 175.5L127.5 169.5L127 168.5L125.5 166.5L126.5 165.5L129 167ZM120 211.5L123.5 213.5L127 216L120 214.5L115.5 213.5L111.5 211L120 211.5ZM137 206L129 205.5L123 202.5L123.5 201.5L122 200H121L119.5 197L116 192H117L137 206ZM33 185.5L40 188L39.5 191.5L40 203.5L26 195.5L25.5 192.5L27 188L29 186.5L28.5 183.5L33 185.5ZM102.5 190L101.5 191.5L100 196.5H102L107 194L108.5 195.5L108 200L101 198L99.25 200V190L101 189L102.5 190ZM51 195.5L47 197L48 191L51 195.5ZM14 185.5L15 187L20 191L11.5 187V184.5L14 185.5ZM42.5 186.5L41.5 185.5V181L43.5 180.5H45L46.5 178L47.5 174.5H51.5L42.5 186.5ZM117 177L119 183H116.5L115 178.5L113 173.5L116.5 171L117 177ZM67 178L72.5 179L71.5 181.5L68 180.5L63 176.5L64.5 175L67 178ZM32 174.5L26 175.5L20.5 173L32 174.5ZM8.5 170.5V173.5L4 171.5L2 169L8.5 170.5ZM141.5 160.5L142.5 173.5L138.5 169.5L128 163.5L131.5 164.5L137 168L132 163.5L129 162.5L130 160.5L132 160L141.5 160.5ZM40.5 156.5L42.5 161L43.5 164L38 163.5L35 159.5L32.5 156.5L35 154L40.5 156.5ZM201.5 144.5L112.5 139V123L108 119.5L104 122.5V131L100.5 127L98 122.5L95 119.5L98 124L100 127.75L103 134.5L104.5 137.5L105 157.5V159.5L104 161L102.5 160V157.5L102 152.5L104 151.5H101.5L99 144.5V148L98 150.5L94.5 150L94 149L94.5 146.5L90.5 135.5L86.5 127.75L81 119.5L85 132L87 139.5L89.5 148L86.5 145L83 143.5L77 141.5L78 143.5L83 147.5L81 149.5H77V143.5L76 141L75 136.5L72.5 128L70 120L69.5 114L68.5 116L67.5 119L67 126L68 141L65 142L66.5 144H69V145.5L70 147.5H68.5L64.5 142L60 138.5L55 136L51 132.5H50L58.5 140L62 144L60 145H63L63.5 147L57.5 147.5L52 146.5L47 145L47.5 140L51.5 142.5L55.5 146L52 142L49.5 141L47.5 139V137L47 139.5L44 144L42 140L44 138.5L46 139.5L46.5 138L42.5 134.5L37.5 129L32.5 125L26.5 121L23 119L21 116L22.5 114.5L25.5 116L39.5 122L44.5 125L41 121.5L35.5 119L30 112.5H31.5L35 115.5L41 120.5L37.5 116.5L36.5 114.5L36 113L45 117.5L50.5 121L45 115.5L41.5 111.5L44.5 113.5L50.5 116.5L46 113.5L42 109.5L43.5 109H41L40.5 108.5L33.5 104H32.5L30.5 103.5L25.5 99.5L29 98.5L35.5 102.5L31.5 98L34.5 97L38 96H44L37.5 94.5L29.5 94L25.5 94.5L20 96L16.5 93.5L13 92L14 90.5L19 92L23 94.5L26.5 94L19.5 88.5L16 87L17.5 84L31.5 85.5L44 86.5L33.5 82.5L19.5 80.5L23.5 77.5L14.5 80H10L19 76.5L8 80L6.5 77L14 75L22.5 74H16.5L9 72L7.5 70.5L7 72L4 71L17.5 66.5L5 67H1.5L0 65V0H56L201.5 144.5ZM20 148.5L25.5 154L23 158H20L19.5 155.5L17.5 150.5L12 146L10 144L10.5 142L20 148.5ZM13.5 157.5L8 157L6 157.5L4 156L6 151H10.5L13.5 157.5ZM160 149.5L161.5 152.5V155.5L141.5 154L141 157.5L134 156L133.5 155.5L136 154L138.5 152L141.5 149L160 149.5ZM128.5 148L123.5 155L120 156.5L115 156V147.5L128.5 148ZM43 152L37 153.5L35 149L43 152Z" fill="#2B00FF"/>
</svg>
