<svg width="1280" height="720" viewBox="0 0 1280 720" fill="none" xmlns="http://www.w3.org/2000/svg">
<path d="M1211.5 39.5L1212 72L1213 151L1214 199L1215 258.5V548L1214.5 659.5L1213 659L1182 619L1165 601L1150.5 584L1139.5 572L1140 541.5H1141C1141.5 542 1143.4 543.4 1147 545C1150.6 546.6 1151.83 543.333 1152 541.5H1154.5L1158.5 542L1162.5 544H1164.5L1166 543L1167 542L1168 540.5V538.5L1167.5 536.5L1165 534.5L1153.5 530H1152V518C1152 507.6 1141 505 1135.5 505C1131.5 499.8 1119.5 496.5 1114 495.5L1214 496.5V490L1176.57 485.704L1177.5 488.5L1176 489.5H1156V483.5L1165.06 484.383L1136.5 481.105V489.5H1104.5L1103 488.5V480.5H1118L1116.5 479.5H1122.5L1120.5 286.5L1127 286L1132 274L1131 238.5L1146.5 192L1173.5 116.5L1189 71L1199.5 69L1205.5 50.5L1207 10L1209.5 0H1225.5L1211.5 39.5ZM1141 509.5C1145.4 510.7 1146.83 513.667 1147 515V523L1141 520.5V509.5ZM1132.5 512L1133 513.5V516.5L1131 516V511.5L1132.5 512ZM1124.5 514H1123V509H1124.5V514ZM1120 510.5H1118V509H1120V510.5Z" fill="#FF0000"/>
</svg>
