<svg width="1280" height="720" viewBox="0 0 1280 720" fill="none" xmlns="http://www.w3.org/2000/svg">
<path d="M839.5 288.5L805.5 294.5L800 288.5L797.5 285V262L795 259L781.5 257L764.5 263V286.5L762.5 290.5L756 300.5L718.5 306.5L581 237L734.5 196L839.5 288.5ZM890.5 278.5L867 282.5L772 185.5L806 176L890.5 278.5ZM1099.5 243L922.5 273L851 164L1130.5 86.5L1099.5 243ZM1207 9.5L519.5 222L504.5 215L490 221V230.5L453 243L226.5 156V149L223.5 145.5L201.5 144.5L56 0H1210L1207 9.5ZM270.5 108C265.7 103.2 259.5 103 257 103.5L256 104V105.5L257 107L260 108.5L260.5 110L262 111.5V114L260.5 115.5L257 117.5L256 119L254.5 123L253 126L254 130.5L254.5 134L254 137L254.5 141.5L256 143L259 145.5L261 147.5L265 148.5L269 146.5L271.5 142.5L271 137V128.5L270 122.5L266.5 119L263.5 114L264.5 112H267L266.5 110C269.3 110.4 270.333 108.833 270.5 108Z" fill="#55FF00"/>
</svg>
