<svg width="1280" height="720" viewBox="0 0 1280 720" fill="none" xmlns="http://www.w3.org/2000/svg">
<path d="M1205.5 50.5L1199.5 69L1189 71L1131 238.5L1132 274L1127 286L1120.5 286.5L1121 304L857 336.5L855 333L849 324L848.5 323L847 321.5L846.5 302.5L844.5 301L841 300H833.5L827 301L821 303L819.5 304.5V323C813.1 331 809.833 339.333 809 342.5L734.5 351V338L758.5 334.5C765.7 335.3 777.167 335.5 782 335.5C808.8 334.3 815.5 327.667 815.5 324.5L814.5 323L813.5 322.5C812.3 310.1 807.667 298.667 805.5 294.5L839.5 288.5L734.5 196L581 237L718.5 306.5L756 300.5C751.6 307.7 750.167 320.167 750 325.5L749.5 326.5L748.5 328V329C748.5 332.2 754.833 334 758 334.5L716.5 339.5L702.5 334L702 309L560.5 242.5L533.5 249.5L520.5 244.5L519.5 242.5L519 222L1207 9.5L1205.5 50.5ZM772 185.5L867 282.5L890.5 278.5L806 176L772 185.5ZM851 164L922.5 273L1099.5 243L1130.5 86.5L851 164Z" fill="#FF00D0"/>
</svg>
