<svg width="1280" height="720" viewBox="0 0 1280 720" fill="none" xmlns="http://www.w3.org/2000/svg">
<path d="M1023.5 469L1025 470L1003 602L1002 606H1001.5L994 596H993L987.5 589L987 586.5L980.5 579L979.5 576.5L978.5 574.5V569L981.5 536.5L973 537.5L962.5 538L959.5 536.5H954L943.5 535L937 533.5L932.5 533H930.5L929 534L928.5 535.5L928 537.5L925 565L925.5 566L920.5 619L920 621L918.5 623.5L917.5 624.5H916L914 622.5L913 620.5L911.5 620L909 616V613.5L895 590.5L894.5 591L893 588.5L892.5 586.5L892 585L888.5 578L888 574.5L888.5 571L890.5 566L904 517L908.5 502L904.5 495.5L904 494.5V492.5L905.5 491H908L908.5 490.5L911 490L916 489.5L920.5 490L927.5 490.5L935.5 491H940L941 488L943.5 479.5L945 476L947 472L949.5 470L954.5 468L966.5 469.5L981 470.5L994 471L1003 470L1011.5 469.5L1015 469L1018.5 468H1021L1023.5 469ZM891.5 570.5L890.5 573L891 576L891.5 578.5L894.5 583H896.5L899 587L898 589L911.5 612H914L916 616L915.5 619L916.5 621L917 619L925.5 539L926 535.5L928 532.5L928.5 531.5H926.5L925.5 531L924 529L910 505H909.5L891.5 570.5ZM1002 533H998.5L993.5 534.5L991.5 535.5L990 535L984 536H983L981.5 565.5V570.5L982 574L989.5 584H991.5L998 592L997.5 594.5L1003 602L1010.5 555.5L1010 555L1009 548.5L1007.5 537.5L1006 533.5L1005 532.5L1003.5 532L1002 533ZM779.5 387C780.333 385.167 782.4 382.501 784 386.5C785.6 390.501 787.333 400.167 788 404.5L791 420.5L794 434C794.5 436.501 796.5 441.5 800.5 441.5L801.5 441L806 440L818 439.5L836.5 438.5L850 438C853.5 437.834 860.9 438.801 862.5 444L868 465V467.5L867.5 468.5L868 469.5L866.5 470.5L864 471.5L861 472H857.5L865 547.5L865.5 552L864.5 555L863 556.5L860.5 558L850.5 557.5L850 558H844L843 557L800.5 554L800 554.5L794 554L793 553.5L786.5 552.5L784 551.5L782.5 549.5V547L793 513H789.5L788 512H785.5L784 511L782.5 508.5L782 506L783 503.5L795 470.5L794 469L793 465.5L792.5 463.5L790.5 460.5L788.5 456.5L786.5 449.5L786 446V438.5L784.5 430.5L782 420L780 410.5L779 408V402.5L778 401L777 399L776.5 396.5V393.5L777 392L779.5 387ZM854 474.5L857 510.5V513.5L856.5 515L854.5 516.5H848L846.5 516L846 517L840.5 516.5L839 515.5L795.5 512.5L785.5 544L785 546.5V548.5L786.5 549.5L788 550H794V548.5L800.5 549V551L843.5 554L844 552.5H849.5L850.5 553.5V555H860L861.5 554.5L862.5 552.5V549L855.5 473.5L855 472.5H854V474.5ZM1009.5 529.5L1008.5 529L1007 530L1008.5 532.5L1009.5 534V536L1011 551.5L1014.5 530L1012 528L1009.5 529.5ZM830.5 473.5L807 474V477.5L796.5 510L840 512.5V511L846 511.5L846.5 513.5L853.5 514L855 513L855.5 512V509L852.5 472.5L830.5 473.5ZM795.5 475L785 504.5L784.5 506.5V507.5L785.5 508.5L787.5 509.5H789V508H794.5V509.5L795 509L806 477V474H802L800 473.5L798.5 472.5L797 472L795.5 475Z" fill="#FFE600"/>
</svg>
