<svg width="1280" height="720" viewBox="0 0 1280 720" fill="none" xmlns="http://www.w3.org/2000/svg">
<path d="M996 404L1016 181.5L982.5 180L984 187.5V190.5V194L983.5 196L982.5 197L980 198L974.5 199H971.5L968 198.5V199.5L962 199H955.5L955 198.5L954.5 199H953.5L953 198.5L952.5 199L950.5 198.5L949.5 198L947.5 199L945 198L942.5 197.5L940.5 198.5L936 197.5L934 197L933.5 198.5L920 367L935 368L936 368.5L936.5 369.5L936 383.5L935.5 384H934.5L919 383L918.5 388.5H915L915.5 382.5L909.5 382L909 381L910 366.5L911 366L917 366.5L930 197.5L930.5 196.5H928.5L920 196H916.5L913 195L909 194L901.5 193L898.5 191.5L893 190.5L886.5 188.5L884.5 187L884 185.5V184.5L886 177L656.5 172.5L662.5 191.5H669.5C670.833 191.667 673.5 193.1 673.5 197.5C673.5 201.9 670.5 203 669 203H667L666 203.5L683 259L753 263.5V262.5H755.5V263.5L777.5 264.5L778.5 265L779 266L778.5 268V271H779.5L780 269.5H782L782.5 268.5L783 267.5L784 266.5L785 266H786.5H788L789.5 266.5L790.5 268L791.5 269.5V270.5L791 271.5L790.5 272.5V274L790 274.5L789.5 276L788.5 277.5L787.5 279L786 279.5L784 279L782.5 278.5L782 277.5L781.5 276L779.5 275.5V274L778.5 274.5V276L778 276.5L773.5 373L774.5 374L775 372.5H776V371L777 369.5L778.5 368.5L780.5 368L782.5 368.5L783.5 369.5L784.5 371L785 373V374.5L784 376.5L782.5 378.5L781 379L779 378.5L778 377H777L776.5 378H774.5V377L773.5 377.5L773 378L772.5 382H771.5L771 381.5L770.5 382V382.5L719.5 378L720 381.5L779.5 387C780 386.167 781.2 384.5 782 384.5C782.8 384.5 783.667 385.833 784 386.5L874 394C880.4 389.6 899.333 388.5 908 388.5C942.4 388.5 969.333 398.167 978.5 403L996 404Z" fill="black"/>
<path d="M574 216L580 197L469.5 213L471 266L556.5 247C556.1 246.2 556.333 245.667 556.5 245.5C565.7 239.9 572 223.5 574 216Z" fill="black"/>
</svg>
