<svg width="1280" height="720" viewBox="0 0 1280 720" fill="none" xmlns="http://www.w3.org/2000/svg">
<path d="M886 177L884 184.5V185.5L884.5 187L886.5 188.5L893 190.5L898.5 191.5L901.5 193L909 194L913 195L916.5 196H920L928.5 196.5H930.5L930 197.5L917 366.5L911 366L910 366.5L909 381L909.5 382L915.5 382.5L915 388.5H918.5L919 383L934.5 384H935.5L936 383.5L936.5 369.5L936 368.5L935 368L920 367L933.5 198.5L934 197L936 197.5L940.5 198.5L942.5 197.5L945 198L947.5 199L949.5 198L950.5 198.5L952.5 199L953 198.5L953.5 199H954.5L955 198.5L955.5 199H962L968 199.5V198.5L971.5 199H974.5L980 198L982.5 197L983.5 196L984 194V187.5L982.5 180L1016 181.5L996 404L978.5 403C969.333 398.167 942.4 388.5 908 388.5C899.333 388.5 880.4 389.6 874 394L784 386.5C783.667 385.833 782.8 384.5 782 384.5C781.2 384.5 780 386.167 779.5 387L720 381.5L719.5 378L770.5 382.5V382L771 381.5L771.5 382H772.5L773 378L773.5 377.5L774.5 377V378H776.5L777 377H778L779 378.5L781 379L782.5 378.5L784 376.5L785 374.5V373L784.5 371L783.5 369.5L782.5 368.5L780.5 368L778.5 368.5L777 369.5L776 371V372.5H775L774.5 374L773.5 373L778 276.5L778.5 276V274.5L779.5 274V275.5L781.5 276L782 277.5L782.5 278.5L784 279L786 279.5L787.5 279L789.5 276L790 274.5L790.5 274V272.5L791.5 270.5V269.5L789.5 266.5L788 266H785L784 266.5L783 267.5L782 269.5H780L779.5 271H778.5V268L779 266L778.5 265L777.5 264.5L755.5 263.5V262.5H753V263.5L683 259L666 203.5L667 203H669C670.5 203 673.5 201.9 673.5 197.5C673.5 193.1 670.833 191.667 669.5 191.5H662.5L656.5 172.5L886 177ZM574 216C572 223.5 565.7 239.9 556.5 245.5C556.333 245.667 556.1 246.2 556.5 247L471 266L469.5 213L580 197L574 216Z" fill="black"/>
</svg>
