<svg width="1280" height="720" viewBox="0 0 1280 720" fill="none" xmlns="http://www.w3.org/2000/svg">
<path d="M97 511.5V515L98 518L99 519.5L101.5 521.5L103.5 522.5L114 612L85.5 631.5L76 568.5L82.5 566.5L83.5 565V563L82.5 554.5L80 538L78.5 537.5L78 535L79 531.5L78 529H76L69.5 530.5L67 515.5L74.5 514V511.5L73.5 504V500.5L97 496H97.5L97 511.5ZM453.5 134L319 140.5V139.5H318V138L317.5 137.5L316 136.5L315 137L314 138L313 138.5L312.5 139.5L311.5 141L299 142L304.5 113L307 98L308.5 92.5V90L308 87L306.5 84.5L304.5 82.5L302.5 82H300L297.5 83.5L296 86L290 120L282 91L280 84.5L278 82.5H272.5L270.5 84.5L270 87L269.5 90.5L270 93L285 148.5L269 240L263.5 239H260.5L258 240.5L257 242.5V250L258.5 253L260.5 254.5L266.5 256L227.5 486L228 488L229.5 492.5L232.193 494.5H233.5L236.5 493L237.5 491.5L238.5 486L240 485.5L241.5 486L244.5 521L120.5 607L110.5 520V519L112 517.5L113 514V509.5L112 483.5L111.5 482.5L110 482L106.5 481.5L85.5 280.5L91 279.5H96.5L101 278L106 277.5L109.5 278L110.5 276.5H114.5L120 275L124 274.5L127 275L131.5 273L136 272L140 271.5L141.5 270H143.5L145.5 269.5L149.5 269L151.5 268L163 264.5L174 260L180 256L184.5 252V242L184 236.5L180 226L175 210L172.5 206L163.5 180.5V177L160.5 169L148.5 136.5L143.5 123L139 112.5L134 101L130 99L119.5 97L110.5 96.5L107.5 98L101 97H95L92.5 98H81L64.5 98.5H58L51 97.5L48 99.5L42 97.5L39 99.5H34L29.5 97.5L23 99.5L13 0H392L453.5 134ZM98.5 482L73.5 487L72 486.5L71.5 484V480L72 477V474.5L70.5 473.5L66 474.5L42.5 285H51.5L54 284H58L60.5 283H63L67 282H69.5L71 283H72.5L75 282L77 281.5L98.5 482ZM471 266L410.5 279.5L407 267C406 263.5 404 259 404 245C404 230.5 408.333 224.333 411 222.5L469.5 213L471 266Z" fill="#001AFF"/>
</svg>
