<svg width="1280" height="720" viewBox="0 0 1280 720" fill="none" xmlns="http://www.w3.org/2000/svg">
<path d="M1192 691.5V720H1164L1155.5 708L1154.5 705L1148 694.5L1147 691.5L1142 684L1192 691.5ZM1279.5 720H1211.5L1212 694.5L1213.5 695L1215 694.5L1216.5 693.5L1217 692V688.5L1212 679.5L1215.5 529.5L1226.5 530.5H1228.5L1229.5 529.5V524.5L1227 522L1215.5 509L1218.5 364L1241.5 366H1242.5L1243.5 364.82V362.5L1242.5 360L1241.5 358L1218.5 342L1219 341L1221 216L1226.5 195L1251 196H1253.5L1254.5 194.5L1255.5 191L1255 189L1254 188L1229 183L1255 70V67.5L1253.5 65.5L1249.5 62.5L1248 62H1240L1238 62.5L1237 63.5L1221.5 129.12V69.5L1221 67.5L1220 65.5L1219 65L1210 65.5L1208.5 66L1204.5 70L1203.5 71.5L1203 75L1203.5 177L1175.5 171L1085.5 168L1101 67.5L1100.5 65L1098.5 61.5L1096.5 60.5H1088.5L1087 61.5L1086.5 63L1082 93L1082.5 67.5V65L1080.5 63.5H1072.5L1071.5 64.5L1068.5 68.5L1068 72L1067 167.5L1060.5 166.5L1059.5 167.5L1059 172L1060 173L1066.5 175.5L1065.5 208.5L1052.5 291.5H1046.5L1045.5 292.5L1045 296.5L1051 303L1026.5 460L996 404L1016 181.5L1071 0H1279.5V720ZM1196.5 528L1193.5 649.5L1153.5 582L1155.5 566.5L1159.5 567L1160.5 557L1145.5 534.5L1149 522.5L1196.5 528ZM1052.5 454.5L1046.5 455.5L1045 466L1047.5 471L1045 496L1036 479L1040 453L1052.5 454.5ZM1200.5 364L1197.5 487.5L1166.5 451.5L1187.5 363L1200.5 364ZM1171 361.5L1153.5 436.5L1135.5 415.5L1071.5 411L1074 354L1171 361.5ZM1013 397.5L1012.5 399L1011.5 406.5H1008L1007.5 405.5L1007 406.5V408.5L1008 408H1009L1011.5 409L1011 412V413L1018 424.5L1020 406.5L1014.5 397.5H1013ZM1057 409.5L1047 409L1059 336.5H1061L1057 409.5ZM1201 330L1195.5 326L1202 301.5L1201 330ZM1203.5 209L1204 214L1183.5 304L1136 295L1108.5 300.5L1107.5 306.5L1081.5 304L1079.5 307.5L1080.5 309.5H1078.5L1077.5 311.5L1079 314H1075.5L1078.5 210L1080.5 203L1203.5 209Z" fill="#FF0000"/>
</svg>
