<svg width="1280" height="720" viewBox="0 0 1280 720" fill="none" xmlns="http://www.w3.org/2000/svg">
<path d="M1016 181.5L1071 0H903L891 105L695.5 101L682 0H392L453.5 134L632 126L622.5 96L622 93.5L622.5 91.5L623.5 90L624.5 89L625.5 88.5H628.5L630 89.5L631 91L638 114.5L645.5 91.5L646.5 90L647.5 89L648.5 88.5H650L652 89L653.5 90L654.5 92L655 94L654 97L643 130L656.5 172.5L886 177L887.5 173L890 164.5L892 157L895 146.5L897 139.5L899 132.5L900.5 128L902 124L904 118L906 112.5L907 110L908 109L909 108.5L915.5 107.5L916.5 108H919.5L920.5 108.5L923.5 108L926.5 108.5L931 109L933 108H934L937.5 109H940.5L944 110L946.5 109.5L948 110L950.5 109.5L951.5 110L958 110.5L962 111.5L964.5 111L967.5 112L972 112.5L974 114L974.5 115.5L975.5 118V121L976 123V127L976.5 131.5L977.5 135L978 139L979 143.5L979.5 149.5L980.5 155.5L981 162.5L982 169L982.5 180L1016 181.5Z" fill="black"/>
</svg>
