<svg width="1280" height="720" viewBox="0 0 1280 720" fill="none" xmlns="http://www.w3.org/2000/svg">
<path d="M1047 614L1046.5 619.5L1041.5 620.5L1037.5 621L1032.5 622L1030.5 623L1027 623.5L1024.5 624L1022.5 623H1020.5L1020 624V625.5L1021.5 627.5L1024 630.5L1026 632.5L1031.5 640L1032 641.5L1033.5 645.5L1038.5 653L1039 655.5L1040 658.5L1040.5 659.5V661L1041.5 663V668.5L1042 670.5L1042.5 672L1043 672.5L1040 720H1032L1010 631.5L1009.5 629L1010.5 626.5L1010 624.5V623L1012.5 609.5L1047 614ZM1072 564.5L1071 580.5L1083.5 610L1086 611.5L1100.5 612.5L1099 624L1098 633L1107.5 657.5L1155.5 664.5L1162 629.5L1165 632L1167.5 621.5L1151.5 592.5L1153.5 582L1193.5 649.5L1212 679.5L1217 688.5V692L1216.5 693.5L1215 694.5L1213.5 695L1212 694.5L1072 674L1059.5 639.5V634L1064.5 563L1072 564.5ZM1043 516L1041.5 530L1050 549.5L1047 601L1025.5 540L1027 535.5L1026.5 533.5L1029.5 514L1043 516ZM1135.5 415.5L1153.5 436.5L1166.5 451.5L1197.5 487.5L1215.5 509L1227 522L1229.5 524.5V529.5L1228.5 530.5H1226.5L1215.5 529.5L1196.5 528L1148.5 523L1085 517.5L1068.5 486.5L1068 477.5L1071.5 411L1135.5 415.5ZM1057 409.5L1055.5 459.5L1055 459L1043 436L1043.5 429.5L1047 409L1057 409.5ZM1103.5 342L1105 343.5L1106.5 344L1108.5 344.5L1211 352L1213 351.5L1214 350.5L1213.5 349L1212.5 347.5H1214.5L1216 345.5V344H1217V342.5L1187.5 322.5V321L1188 320.5L1195.5 326L1201 330L1218.5 342L1241.5 358L1243.5 362.5V365L1242.5 366H1241.5L1218.5 364H1200.5L1187.5 363L1171 361.5L1096 356L1075 332V324L1075.5 314H1079L1103.5 342ZM1051 303L1045 296.5L1045.5 292.5L1046.5 291.5H1052.5L1051 303ZM1175.5 171L1254 188L1255 189L1255.5 191L1254.5 194.5L1253.5 196L1106.5 191L1084 182L1084.5 174.5L1085.5 168H1087L1175.5 171ZM1067 167.5L1066.5 175.5L1060 173L1059 172L1059.5 167.5L1060.5 166.5L1067 167.5Z" fill="#FF00AE"/>
</svg>
