<svg width="1280" height="720" viewBox="0 0 1280 720" fill="none" xmlns="http://www.w3.org/2000/svg">
<path d="M937 533.5L943.5 535L954 536.5H958.5L958.864 536.784C960.778 538.375 964 542.5 964 548.5C964 556.5 954.5 566 931 566C929.202 566 927.324 565.925 925.391 565.782L925 565L928 537.5L928.5 535.5L929 534L930.5 533H932.5L937 533.5ZM924 529L925.5 531L926.5 531.5H928.5L928 532.5L926 535.5L925.5 539L922.68 565.54C913.601 564.595 903.556 562.222 894.724 558.767L906.23 516.895C908.594 516.973 910.876 517.178 913 517.5L913.5 511L924 529ZM904 517L892.717 557.953C880.147 552.684 870.5 545.18 870.5 536.5C870.5 522.358 888.493 516.867 904.042 516.859L904 517ZM867 402C869.8 389.6 896.333 387.833 909 388.5C972.5 390.5 994 409.5 994 418C990.499 436 951.5 437.833 933 436.5L928.5 490.5L921 490L915.5 489.5L921 434.5C902.5 432.5 863.501 417.5 867 402ZM907 392.5L870.5 399.5V401.5L905.5 417.5L907 418.5L914.5 426V426.5C921 428 938 430.5 951.5 430.5C962.3 430.5 969 429.833 971 429.5L963.5 406.5L962.5 405L943.5 403L936.5 397.5H922.5L909 392L907 392.5Z" fill="#00D0FF"/>
</svg>
