<svg width="1280" height="720" viewBox="0 0 1280 720" fill="none" xmlns="http://www.w3.org/2000/svg">
<path d="M639.5 126.5L640 127.5L641 130L657 181.5L657.5 185H658L660.5 192.5L663.5 203L703.5 333L712.5 362.5V364.5L713.5 365.5L721.5 391.5L722 393.5L721.5 394.5L713.5 399.5V408L712.5 409L711.5 409.5L704.5 414L681.5 428.5L654.5 445L597.5 479.5V479L597 477L598 475L597.5 472L598 471.5L597.5 468.5L597 467.5V464.5L596 462.5L596.5 461L595.5 460V455L594.5 452.5V451L593.5 449V445L592.5 442.5V440L591 437L590.5 435.5L589.5 432L588 429L621.5 412L622.5 412.5L624.5 412L626 412.5L627.5 413.5L628.5 413L629.5 414.5L630.5 416.5L631.5 417.5L632 416.5L633.5 416L634 416.5V414L633.5 413V412.5L636 413.5L636.5 412L634.5 410.5L636 410L635 409L633.5 408L635 407L633.5 406L634 405.5L635.5 404.5L674 384.5H672.5L672 384L673 382.5L674 378.5V375.5L671 373.5H666.5L665.5 372.5L660 371.5L656.5 370L653 369L653.5 364.5L654.5 363.5L655.5 360L656.5 356L656 355L655.5 354.5L654 355L650 353.5L647 353H642L639 352.5L637 352L636.5 351V349.5L637 346L636 344L634.5 342.5L633 341.5L629.5 341L626.5 341.683V340.5L627 337L628 333C626.667 331.833 624.8 330.1 628 332.5C631.2 334.9 637 335.5 639.5 335.5C651.5 335.5 659.167 325.167 661.5 320L642.5 258.5L637 257L633.5 256.5H631C614.5 256.5 606.5 277.5 606.5 293C606.5 305.4 612.5 316.5 615.5 320.5L613.5 321L608.5 321.5L600.5 321H590L584.5 321.5L582.5 322L580 320.5L578 321L572.5 320.5L569 320L565 318.5L562.5 317L559.5 315.5L556.5 313.5L555 312L554 311.5L552.5 312.5L551.5 313.5H550L549.5 314.5L550 315.5L552 319L553 322L553.5 324.5L554 328L555 332L555.5 334.5V342.5L555 345.5L553 344.5L552 345.5L550.5 345V346L548.5 346.5H547L545 345.5L542 344.5L538 344H533L532 346V346.5L530.5 348V351L531 352L531.5 354V355L531 357L513 363L489.5 371.5L466.5 381.5L450 388.5L443 390.5L460.5 448C466.5 466 476.333 475.167 480.5 477.5L481.5 478L484.5 477.5L486 477L489.5 477.5L494 479L496 481L498 483.5L500 487L503.5 492L505 495L505.5 497L507.5 498L508.5 500.5L508 503L509 505L510 509L510.5 514.5L511.5 518L512.5 520.5L513 524.5L512 527V530.5L418.5 585L417 586L413.5 584.5L411 583L410.5 575H416L418.5 573L419.5 570.5V566.5L330.5 266C332.5 264.4 333 260.667 333 259C333 253.4 330.333 250.667 329 250L328 249.5L325.5 249L297.5 149L299 142L311.5 141H313L313.5 142L316.5 143L318 142.5L318.5 141.5L319 141V140.5L453.5 134L632 126H639L639.5 126.5ZM317 265.5L400 547L395 545L396.5 576.5L255.5 512L252.5 483.5L240.5 478.5L279 258.5L317 265.5ZM320 363L315.5 365L311 368L305 369H299.5L295.5 369.5L291.5 370.5L288.5 371.5L286 370L283 369.5L280.5 373.5L279 376.5L278.5 378.5L278 385.5L278.5 389.5C282.1 446.7 309.667 463 323 464C329 464 344.5 458 344.5 422.5C344.5 394.1 331.5 369.333 325 360.5L320 363ZM469.5 213L411 222.5C405.4 226.5 404 237.5 404 242.5V250L404.5 255L405 259L405.5 262L410.5 279.5L556.5 247C556.1 246.2 556.333 245.667 556.5 245.5C564.5 241.1 570.833 226.333 573 219.5L580 197L469.5 213ZM312 247L281.5 242L287.5 208V205.5L286.5 202V200.5L288.5 199.5L289 198.5L293 179L312 247Z" fill="#A2FF00"/>
</svg>
