<svg width="1280" height="720" viewBox="0 0 1280 720" fill="none" xmlns="http://www.w3.org/2000/svg">
<path d="M766.5 673L764 666.5L766.5 132L507 130.5V147V195.5L507.5 261.5V349.5L508 466V508L508.5 613.5V670L507 676L505 687L504.5 691L503 699L502 704.5L501.5 711.5L501 718V720H424.5L425.5 681L426 628L426.5 569.5L427 203L427.5 150.5L426.5 61.5L427.5 58L430.5 56L434.5 55H471.5L529 56H729.5L733 57L740.5 56H814L840 57L843 58L846.5 57H850.5L853 59L851.5 156V188L851 251.5V290V317L847.5 629.5L848.5 664.5V697V720H772.5L771.5 711L770 694.5L767.5 684.5V679L766.5 673Z" fill="#FF0000"/>
</svg>
