<svg width="1280" height="720" viewBox="0 0 1280 720" fill="none" xmlns="http://www.w3.org/2000/svg">
<path d="M643 175C660.673 175 675 189.327 675 207C675 224.673 660.673 239 643 239C625.327 239 611 224.673 611 207C611 189.327 625.327 175 643 175ZM643 181C628.641 181 617 192.641 617 207C617 221.359 628.641 233 643 233C657.359 233 669 221.359 669 207C669 192.641 657.359 181 643 181ZM643 200C646.866 200 650 203.134 650 207C650 210.866 646.866 214 643 214C639.134 214 636 210.866 636 207C636 203.134 639.134 200 643 200ZM643 203C640.791 203 639 204.791 639 207C639 209.209 640.791 211 643 211C645.209 211 647 209.209 647 207C647 204.791 645.209 203 643 203Z" fill="#FF00B7"/>
</svg>
