<svg width="1280" height="720" viewBox="0 0 1280 720" fill="none" xmlns="http://www.w3.org/2000/svg">
<path d="M1279.5 694.5H1212.5L1160 694L1090.5 695H1016L947.5 696H898.5L848.5 697V675L847.5 629L848.5 577L849 504L850 393.5L851 310V233.5L851.5 159.5L853 61V59L850.5 57H846.5L843 58L840 57L813.5 56H740.5L733 57L729.5 56H533L473 55H434.5L430.5 56L427.5 58L426.5 61.5V74.5L427.5 149L426.5 244.5V563.5L425.5 681L338 680L336 681H332.5V644.5L333.5 623V607L316.5 608.5L291 610L276.5 607L268 610L215.5 611.5L154 614H88L20.5 617H0V0H1280L1279.5 694.5ZM766.5 132L764 666.5L753.5 668.5L744 666.5L743 661V611.5L742 610V588.5L744.5 570.5L745.5 341.5L743.5 339V315L745 312.5L745.5 306.5V254.5L544.5 253.5L542 255L540.5 656L541 658.5L542 661.5L543 662.5L541 665.5L544 670H508.5L507 130.5L766.5 132Z" fill="black"/>
</svg>
