<?xml version="1.0" encoding="UTF-8"?>
<svg id="Layer_1" xmlns="http://www.w3.org/2000/svg" version="1.1" viewBox="0 0 1280 720">
  <!-- Generator: Adobe Illustrator 29.8.1, SVG Export Plug-In . SVG Version: 2.1.1 Build 2)  -->
  <defs>
    <style>
      .st0 {
        fill: #f7e15e;
      }
    </style>
  </defs>
  <path class="st0" d="M927.94,512.48l-6.53,1.11.14,7.64h-8.75l-3.61-2.22c-7.64,1.11-5.42,8.47-5.42,8.47l14.86,10.14,2.36.56.28,139.76,3.06,3.47-2.78.69.42,10.98-9.59.28c-2.92-4.03-6.53-1.81-6.53-1.81l-44.01-50.75-342.46,4.97-1.06-20.58,1.06-168.57-141.95-.35-.35,8.16c-5.67,2.84-.35,8.52-.35,8.52l-1.06,161.83h5.68l-.71,12.07-20.01.51-64.21,75.07.49-130.5,3.95-1.24s12.36-9.39,15.57-12.36,1.48-8.65,1.48-8.65c-2.47-3.21-9.64,0-9.64,0l-11.37-.25-.99-11.37-8.65-.25,8.65-5.68.25-62.78h0l73.94-32.23v.38l5.44-5.96,155.49-.22c-3.09,1.32-2.65,4.63-2.65,4.63,0,0,.44,28.22.44,37.49s7.06,10.37,7.06,10.37c0,0,147.99-.44,156.37-1.1,8.38-.66,7.94-8.82,7.94-8.82v-42.57l150.2-.66,71.02,29.77.26,4.68c-5.55-.28-5.83.97-5.83.97,0,0,.28,12.09.56,14.73s5,2.5,5,2.5l.42,5.97,6.11,3.2ZM1283.78,645.53l-181.97-80.95-.71,136.92,8.1,6.33.35-3.16,8.1,4.22-.36,10.21-5.28-3.17-.7,8.09-10.91-8.8v9.16l185.14-1.41-1.76-77.44Z"/>
</svg>