<?xml version="1.0" encoding="UTF-8"?>
<svg id="Layer_1" xmlns="http://www.w3.org/2000/svg" version="1.1" viewBox="0 0 1280 720">
  <!-- Generator: Adobe Illustrator 29.8.1, SVG Export Plug-In . SVG Version: 2.1.1 Build 2)  -->
  <defs>
    <style>
      .st0 {
        fill: #3ebde5;
      }
    </style>
  </defs>
  <path class="st0" d="M1295.46,302.1l-39.72,2.96-24.08-2.96-2.96-206.2-7.61-.42-204.08,84.08-55.77,37.18v19.44l152.11,2.54v79.01l-53.66,3.38-.42,5.07-111.55,4.65-.85-2.96-14.37.85v-3.8l-28.67,1.48-.63,5.71-121.8.21-3.17-3.38-34.47.21,1.06-171.92c-4.86-7.19-10.57-8.46-10.57-8.46l-.42-1.69,13.32-23.05,85.3,1.83,80.46-20.49L1046.84-3.07h-.01s237.64-2.01,237.64-2.01l10.99,307.18ZM395.91,120.85l-83.36-21.73-23.38-19.36,1.42-68.48h2.6s2.13-10.86,21.25-7.79l1.42-4.49L-2.23-1.47l-.96,59.56,6.07,4.55s1.52-4.05,12.64-2.02v-6.58l10.62-.51,172.11,87.87.94,2.83,2.6-.47,95.88,47.7-.71,130.59,187.03,5.67,3.78.47v-145.7l-3.78-1.42.71-26.68,3.78-.24s2.83-7.79,8.74-7.56l-14.88-25.5-86.43-.24Z"/>
</svg>