<?xml version="1.0" encoding="UTF-8"?>
<svg id="Layer_1" xmlns="http://www.w3.org/2000/svg" version="1.1" viewBox="0 0 1280 720">
  <!-- Generator: Adobe Illustrator 29.8.1, SVG Export Plug-In . SVG Version: 2.1.1 Build 2)  -->
  <defs>
    <style>
      .st0 {
        fill: #afea49;
      }
    </style>
  </defs>
  <path class="st0" d="M858.61,119.2l-26.17,6.66-85.3-1.83-13.32,23.05.42,1.69c5.8,1.52,10.57,8.46,10.57,8.46l-75.82-1.47-.56-6.87s-1.69-6.45-9.4-7.15c-7.71-.7-10.8,6.31-10.8,6.31l-.98,7.44-58.5-.84-.4-5.87s-1.69-7.56-9.73-8.04-11.34,7.32-11.34,7.32l-.74,6.78-78.05-.68h-.02c3.54-8.38,8.74-7.57,8.74-7.57l-14.88-25.5-86.43-.24-29.62-7.88,249.72-79.12,242.61,85.35Z"/>
</svg>