<?xml version="1.0" encoding="UTF-8"?>
<svg id="Layer_1" xmlns="http://www.w3.org/2000/svg" version="1.1" viewBox="0 0 1280 720">
  <!-- Generator: Adobe Illustrator 29.8.1, SVG Export Plug-In . SVG Version: 2.1.1 Build 2)  -->
  <defs>
    <style>
      .st0 {
        fill: #f2366c;
      }
    </style>
  </defs>
  <path class="st0" d="M742.71,371.95h-.04l2.15-214.71-75.82-1.47s7.99,6.19-11.21,5.97c-19.2-.22-10.53-6.25-10.53-6.25l-58.5-.84c1.96.95,4.85,7.87-11.67,6.2-16.52-1.67-10.54-6.01-10.54-6.01l-78.05-.68-3.78.24-.71,26.68,3.78,1.42v145.7l.06,43.75-5.84.33v3.84h5.51l.17,15.7,125.58,1.34.33-24.05c1.5-9.15,5.12-12.7,8.79-13.18v-73.57h43.18v79.6h-33.74c-.44-1.27-1.12-2.44-2.14-3.36-2.04-1.86-4-2.52-5.6-2.66,3.5.41,6.75,3.31,7.89,6.5,2.5,7.01,3.01,22.21,3.01,22.21h-5.34c0-10.16-.73-19.07-3.51-22.69h-3.73v-1.51c.21-.09.42-.15.62-.2-4.64.29-5.9,15.04-5.9,15.04l-.17,17.7,125.91-.17.17-16.53,4.68.17.17-4.51h-5.18ZM565.35,361.95h-43.18v-79.72h43.18v79.72ZM565.35,279.74h-43.68v-38.37h43.68v38.37ZM565.36,238.89h-.01s-43.51-.34-43.51-.34l.13-27.82,44.05.09-.66,28.07ZM610.69,361.95h-42.68v-79.72h42.68v79.72ZM611.19,279.91h-43.18v-37.7h43.18v37.7ZM611.52,238.88h-43.02v-28.07h43.02v28.07ZM666.16,279.74h-43.68v-38.37h43.68v38.37ZM666.17,238.89h-.01s-43.51-.34-43.51-.34l.13-27.82,44.05.09-.66,28.07ZM711.83,361.95h-43.18v-79.6h43.18v79.6ZM712,279.91h-43.18v-37.7h43.18v37.7ZM712.34,238.88h-43.02v-28.07h43.02v28.07ZM720.5,200.81l-209.51-2v-6.54l209.51,2v6.54Z"/>
</svg>