<svg width="1280" height="720" viewBox="0 0 1280 720" fill="none" xmlns="http://www.w3.org/2000/svg">
<path d="M1280 633L1132 597V596.5L1134.5 590.5L1133 472V471L1132 470.5H1130L1083 465L1083.5 464.5L1086 461.5L1087.5 458.5L1088.5 454V451.5L1087.5 448L1086 444L1084.5 441L1081 437L1078 434L1073.5 431L1069 429L1067.5 428.5L1064.5 429.5H1060.5L1057.5 428.5L1055 427.5H1053.5C1040 429 1034.5 439.5 1034.5 447.5C1034.5 453.9 1038.17 458.5 1040 460L1027 458.5V455L1026 454L1024.5 453L1017.5 451.5L1007.5 450V448.5L1008 448V446.5L1007.5 446L1008 445L1007 444L1003 333L1002.5 330.5L1001 328L999.5 327L998 326.5H986L983 328L981.5 329.5L980.5 332V339.5L976.5 340L977.5 355.5H983.5V357L982.5 357.5V358L983.5 359.5V362L982.5 362.5L983 364.5L981 365L980 366.5L980.5 369.5L982 372.5L983 373.5H985.5L986.5 374.5H987.5L989 373L989.5 371V367L989 365.5L987 364.5L986 363.5L985.5 362.5L984 362V359.5L984.5 359L986 358.5V357.5H984V355.5H985.5L989.5 355L988 339.5H983.5L983 333L983.5 331.5L985.5 328.5H998L999 329.5L1000 332L1000.5 334L1004 448L1003 448.5V450.5H1002V444L1001 443.5V442L1002 441L1001.5 438L996.5 437.5V443L995.5 444V449.5C989.5 448.7 986.333 450.167 985.5 451V453.5L983.5 453H982.5L980.5 453.5L978.5 454.5L955.5 464.5L954 465L952 270.5V265.509L1194 248.5L1195 248L1196 247L1196.5 246L1200.5 36L1198 35H1196L571.5 194L567.5 195L566.5 195.666V292L568 292.5L628 288.282V290L627.5 293.5L627 300V308.5L627.5 315.5L628 320L628.5 320.5L627.5 323.5L627 330V341L627.5 350L628 353L628.5 354.5L628 355.5L627.5 357.5L627 369L625.5 370L617.5 373.5H617V333L616.5 332L615.5 330.5L614.5 329.5L612.5 329L603 328.5L601 329.5L600 330.5L599.5 333.5V336H597.5L597 336.5V346H599V351L598 351.5L597.5 352.5V356L598.5 357.5L599.5 358L601.5 357.5L602.5 357L603 355.5V354L602 352L601 351V346H603.5V336.5L603 336H601V332L603 330H613L614 331L614.5 332L615 333.5L615.5 374L610 376.5L607 375H605L600 372L595.5 369.5L593 367.5L591 366.5L587.5 364L586.5 363.5L581.5 360.5L580.5 360L579 361L578 363L577 366.5L575 371.5L573.5 376L572 382L571.5 386V393L572 398L571 403.5L567 403H564L560.5 404.5H557L555 404L556 396L556.5 394.5L556 394V387.5L557 389L557.5 386L555.5 384L555 382L553.5 381L552 378.5L550.5 377H547L541 375.5L533 375L528.5 374.5L526.5 373.5H523.5L521.5 372.5L520 372L520.5 185L1142.5 0H1280V633Z" fill="black"/>
</svg>
