<svg width="1280" height="720" viewBox="0 0 1280 720" fill="none" xmlns="http://www.w3.org/2000/svg">
<path d="M435 191.5L156 141.5L155 505.5L0 529V79.5L520.5 185L520 372H516L514 372.5L512 374L511.5 375H510H505L499.5 375.5L493 377.5L487 380.5L483 383.5L478.5 388L476 390.5L475 391.5H473.5L472 390.5L469 389L464 388L458.5 387.5L449.5 386.5L445.5 386L445 389.5L445.5 390L446 391.5L447 392.5L445.5 393.5L445 395.5V398L442 399.5L442.5 400.5H444L444.5 402.5L446 403L446.5 403.5L447.5 403L448 402V404.5L440 406L434 407L435 191.5Z" fill="#FF0000"/>
</svg>
