<svg width="1280" height="720" viewBox="0 0 1280 720" fill="none" xmlns="http://www.w3.org/2000/svg">
<path d="M1142.5 0L520.5 185L0 79.5V0H1142.5ZM518 131.5L516.5 132L516 133L517 133.5L520 132V133L519.5 133.5H518.5L519 134.5L518 135.5L519 136H520.5L521.5 135.5H522.5L524 134.5L525.5 135L527 134.5L527.5 133.5V132.5L526.5 132V131L525 131.5L524 132.5L523 132L521.5 132.5L521 132L520 130.5L518 131.5ZM478 82.5L477 83.5L475.5 84.5L473 86.5L472 88.5L471.5 91.5L471 94L471.5 96L472.5 98.5L474.5 102L477 104L479 105L481.5 106H486.5L490.5 104L492 102.5L493 101L494 99L494.5 96V93.5L493.5 91L492 88L490.5 86L488 84V80.5L487.5 79.5L486 80.5H484.5L482.5 80L481 79.5H479L478 79V82.5ZM56.5 3C55.1667 3 52.5 3.4 52.5 5C52.5 7 62.5 15 77.5 15C79.5 15 83.2 14.6 82 13C79.6667 9.66667 71.3 3 56.5 3Z" fill="#FFEA00"/>
</svg>
