<svg width="1280" height="720" viewBox="0 0 1280 720" fill="none" xmlns="http://www.w3.org/2000/svg">
<path d="M983.5 453L985.5 453.5V458C988.333 459.667 998.5 463 1016.5 463C1020 463 1027 462.6 1027 461V458.5L1040 460C1041.17 461 1044.4 463.2 1048 464V464.5L1054.5 465.5L1065 467L1072.5 467.5L1075 467C1077 467 1081.4 466.6 1083 465L1130 470.5H1132L1133 471L1134.5 590.5L1132 596.5V597L1118 629.5L951 585L949.5 584.5V583.5L948.5 467.5L960 462.5L980.5 453.5L982.5 453H983.5ZM955 580.5L1111 621L1110 495.5L954 473L955 580.5Z" fill="#FF00AA"/>
</svg>
