<svg width="1280" height="720" viewBox="0 0 1280 720" fill="none" xmlns="http://www.w3.org/2000/svg">
<path d="M1200.5 36L1196.5 246L1196 247L1195 248L1194 248.5L951.688 265.531L951 264.5L949 263.5L947 263L944.5 261.5L939 261L925.5 262L643.5 284.5L633.5 285.5L630 286L629 286.5L628 287.5V288.282L568 292.5L566.5 292V195.666L567.5 195L571.5 194L1196 35H1198L1200.5 36ZM597 215.5L596.5 273.5L662.5 267.5L663 202.5L597 215.5ZM682 198.5L681.5 265.5L918.5 241.5V150.5L682 198.5ZM950.5 143L950 238.5L1148 217L1149 101L950.5 143Z" fill="#5100FF"/>
</svg>
