<svg width="1280" height="720" viewBox="0 0 1280 720" fill="none" xmlns="http://www.w3.org/2000/svg">
<path d="M412 344V346L408.5 346.5V347.5L407.5 348.5V350.5L407 351V354L407.5 354.5L407 355.5V432L408.5 434.5H412V437H413V439L452.5 439.5H469.5V438L470.5 437.5V435.5H474L476 433L479 357V355H478.5V352L477.5 351.5V350.5L474.5 350V348.5L482 347.5L498 348.5V350.5H494.5V351.5L493.5 352.5V355L492.5 355.5V358H493V359L492.5 359.5L493 433L495 435.5H498.5V437.5H500V439.5L582 440V438.5L592.5 438L611 438.5V440.5L683 441V440L684 439.5V438H688.5V437L690 435.5V366.5L690.5 365.5V363L690 362.5V361L689 360V359H685.5V357.5L694.5 356.5L707.5 357.5V359H704V360L703.5 360.5V363L703 363.5V366L703.5 366.5L703 367.5L703.5 372.5L705 436L706.5 437.5H710V439.5H711V441.5L780.5 442L781 439H783.5L785 437V370L784.5 369.5L785 369V367.25L785.5 367L785 366.5V365.5L784.1 364.899L784.5 364.5V364L784 363.5V362.5H780.5V361H790L802 361.5V362.5L798.5 363L797.5 364V369.5H798V370H797L797.5 372V376.5L797.693 376.505L799.5 437L801.5 439H805V441L805.5 441.5V442.5L864.5 443V442L877 441.5L891 442V444H944.5V443H945V441.5H948.5L950 439L950.942 380.998L951 381V377.5L950 376.5L951 376V374H950.5V372L949.5 371V370.5L946.5 370V369L956 368.5L966.5 369V370.5H963.5L962.5 371.5V382L964 439L966 441H969L969.5 442.5L970.5 443V444.5H1017.26V443.5L1027 443H1030L1041.5 443.5H1042V445L1068 444.5L1068.5 443H1071.5V442L1073 441V378L1071.5 376L1069 375.5V374H1088.5V375.5H1085V377H1084V381L1084.5 381.5L1084 382.5L1086 441L1087.5 443H1090L1092 445V447L1091 447.5V467.5L1127 502.5H1138.5L1139 503L1141 503.5L1142 504.5L1141 506L1139 504.5L1138.5 506L1136.5 505.5L1138.5 506.5L1139 507.5L1138.5 508L1137 507.5L1140 509.5V511L1135.5 509.5L1141 512L1139.5 512.5L1141 513.5L1141.5 514.5L1140 517L1141 516.5V519H1139.5L1138.5 519.5L1138 519L1137.5 519.5L1136.5 519L1135.5 520V518.5L1133 517.5L1133.5 520L1131.5 518.5H1129L1131 519.5L1133 521.5H1131L1129 520.5L1127.5 520L1128.5 519L1129 518L1126.5 518.5V517L1125 518L1124 517.5L1123.5 516L1124 515H1126.5L1128.5 514L1126.5 513.5L1129 512L1126 512.5L1125 513H1124L1126.5 511L1124.5 511.5V511L1127 509.5L1124.5 510L1127.5 507.5H1126L1125.5 507L1126.5 506.5V505.5L1128.5 504.5L1125.5 505L1128.5 503.5H1125.5L1124 504.5V506L1125 505.5L1125.5 506L1123.5 507.5H1121.5L1120.5 510.5L1118.5 511L1116 511.5L1117 515L1118 517H1115L1113.5 516.5L1114 518.5L1114.5 520L1113.5 521L1111.5 519.5L1108.5 517.5L1107 520.5L1107.5 521V522.5H1105.5L1103 522L1101 521.5L1100.5 520.5L1098.5 521.5L1098 522.5L1097.5 525.5L1097 527.5L1095.5 528.5L1096 531.5L1098 532L1096.5 534L1096 532.5L1094 533V534L1092.5 534.5L1090 541L1090.5 544.5L1089 545L1086.5 543L1069 545H1064.5L1038.5 547.5H1030V543.5H1026.5V548H1024V544H1018.5V548H1015.5V544.5H1010V548.5H1007L1007.5 545H1003.5V548.5H999.5V544H996V548.5L945 550.5L923.5 553L916 553.5H914V554L899 555H892L878.5 557L877 557.5H861.5L762.5 560H750.5L709 564H667.5L625.5 566L620 560.5L619.5 556.5L617.5 552L614.5 549L612.5 550L611 548L608.5 547L604.5 549L602 547H598L596.5 548.5L592.5 549L588 550H583.5L580 549V550L576 551.5L575.5 553.5L573 552H569.5L568 549.5L564.5 549L563 550L559 548H555.5L553.5 547L550 548L547.5 549.5H542.5L535 552.5L529 552H525L519.5 550.5L513 551.5L508.5 551L505 552.5L500 554L494 555L489.5 556L487.5 555L485 556H476.5L474.5 557H471.5L465 558L460 559L456 559.5L452.5 558L447 560H436L434 561H430L427 561.5L425 560.5L423 561.5L422 561L416 562L413.5 561.5L410.5 562L408 563L406 564L405 566L403.5 565L401.5 567L399.5 566H394.5L390.5 564.5L382.5 565.5L380 565L378 563.5L376.5 564.5H368L367 563L365.5 562.5L363 564H358.5L357.5 562.5L353.5 564L352 565L350.5 564L346.5 565L346 564L343 564.5L339 562.5L335.5 564H329L327 564.5L326 563L322.5 562L321 562.5L320 563.5L316 562.5L313.5 563.5L311 562.5L305 564L298.5 564.5L294 564L291 563.5L288.5 564.5V563L286.5 564L284 563.5L282 562.5L280.5 564.5L277 563.5L274.5 564.5L272.5 566L271.5 565V566.5L268.5 566H265.5L263 566.5L260 568L259 567.5H257L254 569L251.5 567.5H247.5L245 568.5H243.5L240 569.5H237L234 571H230L228.5 570.5H227.5L227 572L220.5 574.5H198L191.5 572L195.5 413L197 386L196 385.5L197 384.5V379.5L196.5 379L195 378.5V377.5L203 376H216.098L216 378H214.5L213.5 379V384L214 385L213 385.5V407.817L214 408.5L216 407L218 409.5L220 407.5L222 408.5L223.5 406.5L224 405L226.5 405.5L227.5 403.5L229.5 405.5V403.5L232.5 402L233 405.5H235.5L236.5 404.5V406L238 404.5L240 406.5L241.5 378.5L240.5 377.5L241 377V374L240 373.5L241 372.5L240 371H238L238.5 370L244.5 369H256V371H254.5L253.5 372.5L253 377V402.5L254 403L255 402.5L254 401L255 400L255.5 400.5L255 402L256.5 403L257.5 402.5H260.5V401.5H261L261.5 400L264.5 401V401.5H265.5V402L267 401.5L268 401L267.041 399.562L267.042 399.485L268.5 399V398L269.5 397H270.5L271 376V373.5L270.5 373L271.5 372V371H271V370L270.5 369.5V367.5L270 366.5L267.5 366L269 365L275 364H287V366H285L284 367.5V370L283.5 370.5V398H284.5V398.5L283.5 401.5L284 402.5L283.5 404V404.5H284.5L287 407L288 405.5L290.5 407L292 407.5L291.5 406L288.5 404L289 402.5L288.5 402L289.5 401L288.5 400L289 399.5L290 399L288.5 397L291 396.5L289 395.5L290 395H292L292.5 393L293.5 392.5V391.5H295L294.5 392.5L296 393.5V394L295 395L295.5 396L294 397.5L295 398.5L294 400L294.5 401.5L295 402.5L296 403L298 402.5L299 403L298 404H300V403L302 402.5L302.5 403L301.5 404.5L304.5 403.5L306 404.5L305.5 406L304.5 407L303.5 407.5L303 409L302 409.5L302.5 410L302 411L300.5 412.5L301.5 414V415.5L303 414.5L302 416.5L304 418L304.5 418.5V422L305.5 424V425.5C305.333 425.833 305 426.6 305 427C305 427.4 306 429.167 306.5 430L308 432.5V433L308.5 435.5L310 439V441.5L308.5 442L306.5 439L306 440L307 443.5L308 443L316.5 439H322.5L323.39 374.014L323.5 374V369L323.458 369.004L323.5 366L323 365L323.5 364.5V359.5L322.5 358H320V357L329 355.5H333V355L337.5 354L349 354.5V356.5H346.5L345 358L345.5 358.5V360.5L345 361V364H345.5V440H349L354.062 439.906L382.5 439.5V437L383.5 436.5H384V434.5H387L389 432L392 364.5V355.5L391.5 354.5L392.5 354V351L392 350.5V348L391 347V346L389 346.5H387.5V344.5L394.5 343.5L412 344ZM412 487.5V491H411V492H410.5V492.5L477 491V490L471.5 489V486.5L412 487.5ZM547 485V488.5H545L542.5 488V485.5L499 486V489.5H497.5V491L588.5 489.5L588 488H584V485H547ZM610.5 485V488H609.5V489L650.5 488.5V487.5L648.5 487V484.5L610.5 485ZM428 470.5L427.5 475V484H429V464.5L428 470.5ZM432 444V484H436V444H432ZM438.866 444V484H443V444H438.866ZM446 444V484H449.5V444H446ZM452.5 455.5V484H456.5V455.5H452.5ZM459.144 455.5L459.5 484H463V455.5H459.144ZM466 455.5V484H470V455.5H466ZM508.5 456H507.5V483.222H504.5V456H501V483H498L498.346 456H497.5V483.5L524.443 483.032L524 483V444.5L525.169 444.305L520.5 444.217V483H517.5V444.16L514 444.094V483L511 483.222L511.269 444.042L509 444L508.5 456ZM527 482.988L530.5 482.928V444.5H533V482.884L536.502 482.823L536.851 456H535.5V444.5L527 444.339V482.988ZM539.5 456V482.771L543 482.711V456H539.5ZM546 456V482.5L544.935 482.677L555.5 482.494V456H552.151L552.5 482.5H549.5V456H546ZM558.5 456V482.441L562 482.381V456H558.5ZM565 456V482.329L568 482.277V456H565ZM570.651 456L570.996 482.225L574.495 482.164L574.151 456H570.651ZM577.151 456L577.494 482.112L580.5 482.061V456H577.151ZM583.151 456L583.493 482.008L584 482V456H583.151ZM614 445V456H610.633V482H614L614.5 445H614ZM617 445V482H620V445H617ZM623 445L622.5 482H626V445H623ZM629 445L628.5 482H631.5L632 445H629ZM634.5 456V482H637.5V456H634.5ZM970 480H993.5L992.5 448.5L969 448L970 480ZM640.5 456V462.369L643.5 462.238V456H640.5ZM646.5 456V462.108L649 462L647.5 456H646.5ZM425 444V453L429 454.5V444H425Z" fill="#0000FF"/>
</svg>
