<svg width="1280" height="720" viewBox="0 0 1280 720" fill="none" xmlns="http://www.w3.org/2000/svg">
<path d="M950.942 380.998L950 439L948.5 441.5H945V443H944.5V444H891V442L877 441.5L864.5 442V443L805.5 442.5V441.5L805 441V439H801.5L799.5 437L797.693 376.505L950.942 380.998ZM308.5 442L310 441.5V442.059L308 443L307 443.5L306.883 443.093L306.388 439.224L306.5 439L308.5 442ZM783.5 375.5L785 375.606V437L783.5 439H781L780.5 442L711 441.5V439.5H710V437.5H706.5L705 436L703.5 372.519L783.5 375.5ZM690 372V435.5L688.5 437V438H684V439.5L683 440V441L652 440.784V372.5L651.5 372V370.5L690 372ZM649 365.5V366L648.5 366.5V367.5H647.5V438.5L645.5 439.5L645 440L645.369 440.738L644.5 440.732V377L635.5 375V440.67L633.5 440.656V362H635L649 365.5ZM616 361L615.5 363H614V440.5H611V438.5L592.5 438L582 438.5V440L535.503 439.716L536.5 360L535.5 359.5V358L536 357.5L616 361ZM350 372L349.5 372.5L349 375L347.5 440H345.5V371L350 370.5V372ZM967.5 383.5H966.5L968 440H965L964 439L962.5 382H967.5V383.5ZM476 433L474 435.5H470.5V437.5L469.5 438V439.5H452.5L454 359.5H453V357.5L478.997 357.052L476 433ZM511 359H510L509 439.5H500V437.5H498.5V435.5H495L493 433L492.5 359.5L493 359V358H492.5V356.818L511 356.5V359ZM311.5 376V377.5H311L310 437.5V439L308.5 435.5L308 433V432.5L306.5 430C306 429.167 305 427.4 305 427C305 426.6 305.333 425.833 305.5 425.5V424L304.5 422V418.5L304.133 418.133L304.438 407.031L304.5 407L305.5 406L306 404.5L304.533 403.521L305 386.5H283.5V376L311 375.5L311.5 376ZM322.5 439H319.5L321 376.5H319.5V374.5L323.39 374.014L322.5 439ZM417 362.5L415 363L414 439H413V437H412.5L413.5 374L407 375V362.088L414.5 361H417V362.5ZM392 364.5L391.466 376.504L388 377L387.501 433.873L387.267 434.166L386.8 434.5H384V436.5H383.5L384.5 367.5H383.5V365.5L392 364.266V364.5ZM540 390.5H540.5L541.5 390L540.5 389.5V388L543.5 389V387.5L544.5 387L545.5 388H546.5V387.5L545.5 386.5L543.5 386L542 384L541.5 383H542.5L544.5 386H546.5L547 387L548.5 386L547.5 385L548.5 384.5L549 383.5H549.5L550 385L549.5 386L551 387.5V386.5L550.5 384.5L551 384V382.5H552.5L552 383.5L551.5 385L552 386L553 385L554.5 385.5L553.5 386L554 387V387.5L555.5 388.5L555 390L556 390.5L557 388H558.5L562 386.5L559.5 388H563L559.5 388.5L558 389.5L559.5 390.5L560 389L560.5 390V391L561 392.5L562 393.5L565.5 392.5L565 393.5H567.5L564.5 394.5L567.5 395L566 395.5L568.5 397H566L565 396V397L567 398H568L569.5 399.5L570 400.5L573.5 402L570.5 401H569L572.5 403L573.5 404L575 404.5L575.5 405.5L574.5 407L575 407.5L577.5 407L579.5 409V410.5L580.5 411L582.5 410.5L583.5 409L584.5 408.5L586.5 408L588 408.5L590 409.5L591 410.5H599L604.5 411V409.5L593 409L592 403L591.5 406H591L590.5 402L590 402.5L590.5 404.5L590 405.5L589 405L588.5 406.5L587.5 407.5V405L587 404L585.5 406.5V403.5L586 402L585.5 401V402.5L585 402H583.5V401.5L581 402.5L584 399.5V398.5L582.5 399L584 397L581 396.5L583.5 396L584.5 396.5H585.5V395.5L584 395H582.5L584 394.5H585L583.5 393.5H581L581.5 393H583L584.5 393.5L583.5 392L583 391H583.5L586.5 393L587 392.5V392L585 391H587L584.5 390L581.5 390.5L583 389.5L585 389L586.5 389.5L587 390L588 389.5L587.5 388.5H588.5L590 389L591 388L587.5 384.5L585.5 384L584.5 383.5H586.5L589.5 384L592 385.5L591.5 386V387H592.5L593 386L595.5 385.5L596.5 383V381.5L597 382.5L599 383.5L598.5 384L599 385L600.5 383.5L601 382.5L601.5 383L602.5 382L604 383L604.5 382V373.5L540.5 371L540 390.5ZM268 401L267.01 401.494L267.05 399.575L268 401ZM270.5 397H269.5L268.5 398V399L267.052 399.482L267.5 378H266.5V376H271L270.5 397ZM694 330L688.5 329.5L687 328.5H678.5L677.5 327.5L672 327L526 157.5L356.5 309L353 308.5L351.5 309.5L342 309L341.5 309.5H335L333.5 310L450.5 316.5L693.5 330.5V332H697.5V331.5L733.5 334L734 333.5L987.5 346.5L992 346L1010 348.5H1010.5V349L1007 352.5H1001L998.5 353V356.5L987.5 355.5L811.5 346L810 345.5V345L449 327L395 324H393.5L353 333L339.5 332.5L333 336L332 336.5V338L331 339V339.5L343 337L332 339.5V340L394.5 327.5L1095 362.5V365.5L1091.5 366V368.5L1089 369L1088.5 368L1088 367.5L1087 367L1085 367.5L1084 368.5V372L1086 372.5L1088 372L1088.5 371.5V370.5H1089.5L1091.5 372.5L1092.5 374H1069V375.5L993 380L982 379.5V371L966.5 369L956 368.5L946.5 369V370L949.5 370.5L940 371V369L930 368.5L905.5 370V367.5L893 367L869.5 368.5V366L857.5 365L832 366.5V364L818.5 363.5L797.5 365V364L798.5 363L802 362.5V361.5L790 361H780.5V362.5H784V363.5L721 371L708.5 370.5V366.5L752 361L704 359H707.5V357.5L694.5 356.5L685.5 357.5V359H689V360L690 361V362.5L690.5 363V365.5L690 366.5L649 364.5V360L637 356.5L498 350V348.5L482 347.5L474.5 348.5V349.5L412 346.5V344L394.5 343.5L387.5 344.5V344.594L337.731 354.01L337.5 354L335.863 354.363L332.5 355H330L192.5 377.5L193 369H192V366L193 365V354.078L189 354V349.5L185.5 350.5H181L177.5 347L185 343.5H186L253 156.5L326.5 309.5H331.5L529 135.5L694 330ZM998 346L993.5 345.5L992.5 345H983.5L983 344H979.5L867.5 200.5L748.5 331.5L746 331L745 332H739.5L738.5 333H732.5L733 331.5L871 181L998 346ZM258 211L258.5 211.5L257 212.5H255.5L243 218.5L198 341L312 314.5V313H311V311.5L321.5 309.5L271 204.5L258 211ZM897.5 265.5V267.5H896L897 332H897.5V333.5L840 330L839.5 263L839 262.5V261L839.5 260.5L897.5 265.5ZM565 234.5V237H563.5L562.5 311.5L563.5 312V313.5L486.5 308.5L487 229.5H486V228L486.5 227L565 234.5ZM653.5 215.5L659.5 216.5H661L664.5 217L666 217.5L668 218L669.5 218.5L673.5 220.5L675 221.5L676 222L677.5 223L678.5 224L679.5 224.5L681 225.5L686 230.5L687.5 232.5L689.5 234.5L691.5 237.5L696 246.5L697.5 250L698 251.5L698.5 253.5L699 255L699.5 257.5L700 258L699.5 259H700L700.5 260L701 260.5L700.5 261L701.5 262.5L702.5 263.5L704.5 266.5L706 268.5L707 269.5L707.5 270.5L708.5 271L712 274.5H708L707 274L644.5 269L637.5 261.5L688.5 266L688 263.5L687 257.5L685.5 253L684.5 251L684 249.5L683 247.5L681.5 245.5L679.5 242.5L676.5 238.5L675 237L671 234L669.5 233L665.5 231L661 229.5L658.5 229H651.5L649.5 229.5L647 230L644.5 231L643 231.5L638.5 234.5L634.5 238.5L634 239.5L632.5 241L632 242.5H631.5L631 244L630 246L629.5 247.5L629 248.5L628.5 250H628L616.5 237L615.5 236V235L613.5 233L608 226.5L610 225.5L613 224.5H614.5L618.5 224H619.5L620.5 223.5L626.5 222L628 221.5L630.5 221L634.5 220L637 219L639 218.5L640.5 218L642.5 217.5L644 217L648 216H650.5L651 215H653.5V215.5Z" fill="#FF0000"/>
</svg>
