<svg width="1280" height="720" viewBox="0 0 1280 720" fill="none" xmlns="http://www.w3.org/2000/svg">
<path d="M333 355V355.5H329L320 357V358H322.5L323.5 359.5V364.5L323 365L323.5 366L323.458 369.004L315 370L283.5 370.5L284 370V367.5L285 366H287V364H275L269 365L267.5 366L270 366.5L270.5 367.5V369.5L271 370V371H262.5L253.5 372.5L254.5 371H256V369H244.5L238.5 370L238 371H240L241 372.5L240.5 373L216.049 376.991L216.098 376H203L195 377.5H192.5L330 355H332.5L336.048 354.322L333 355ZM752 361L708.5 366.5V367.5H703L703.5 366.5L703 366V363.5L703.5 363V360.5L704 360V359L752 361ZM387.5 344.5V346.5H389L391 346V347L392 348V350.5L392.5 351V354L391.5 354.5L392 355.5V359L345.5 365.5V364H345V361L345.5 360.5V358.5L345 358L346.5 356.5H349V354.5L337.693 354.008L387.5 344.5ZM412 346.5L474.5 349.5V350L477.5 350.5L445.5 351L407 357V355.5L407.5 354.5L407 354V351L407.5 350.5V348.5L408.5 347.5V346.5L412 346V346.5Z" fill="#00FF04"/>
</svg>
