<svg width="1280" height="720" viewBox="0 0 1280 720" fill="none" xmlns="http://www.w3.org/2000/svg">
<path d="M471.5 489L477 490V491L410.5 492.5V492H411V491H412V487.5L471.5 486.5V489ZM584 488H588L588.5 489.5L497.5 491V489.5H499V486L542.5 485.5V488L545 488.5H547V485H584V488ZM648.5 487L650.5 487.5V488.5L609.5 489V488H610.5V485L648.5 484.5V487ZM429 484H427.5V475L428 470.5L429 464.5V484ZM429 444V454.5L425 453V444H429ZM456.5 455.5V484H452.5V455.5H456.5ZM463 455.5V484H459.5L459.144 455.5H463ZM470 455.5V484H466V455.5H470ZM511.269 444.042L511 483.222L514 483V444.094L517.5 444.16V483H520.5V444.217L525.169 444.305L524 444.5V483L524.443 483.032L497.5 483.5V456H498.346L498 483H501V456H504.5V483.222H507.5V456H508.5L509 444L511.269 444.042ZM535.5 444.5V456H536.851L536.502 482.823L533 482.884V444.5H530.5V482.928L527 482.988V444.339L535.5 444.5ZM543 456V482.711L539.5 482.771V456H543ZM549.5 456V482.5H552.5L552.151 456H555.5V482.494L544.935 482.677L546 482.5V456H549.5ZM562 456V482.381L558.5 482.441V456H562ZM568 456V482.277L565 482.329V456H568ZM574.151 456L574.495 482.164L570.996 482.225L570.651 456H574.151ZM580.5 456V482.061L577.494 482.112L577.151 456H580.5ZM584 456V482L583.493 482.008L583.151 456H584ZM614.5 445L614 482H610.633V456H614V445H614.5ZM637.5 456V482H634.5V456H637.5ZM992.5 448.5L993.5 480H970L969 448L992.5 448.5ZM643.5 456V462.238L640.5 462.369V456H643.5ZM647.5 456L649 462L646.5 462.108V456H647.5ZM982 371V379.5L993 380L994 441.5L993 441L991 444.5H976L974.5 440.5L973 440H968L966.5 383.5H967.5V382H962.5V371.5L963.5 370.5H966.5V369L982 371ZM637 356.5L649 360V364.5L690 366.5V372L651.5 370.5V372.211L652 372.5V440.5H651.5V440L650.5 439L649 438.5H647.5V367.5H648.5V366.5L649 366V365.5L635 362H633.5V440.5L614 440.345V363H615.5L616 361L536 357.5L535.5 358V359.5L536.5 360L535.5 439.5H509L510 359H511V356.5L492.5 357V355.5L493.5 355V352.5L494.5 351.5V350.5H498V350L637 356.5ZM392 364.5L383.5 365.5V367.5L376.5 368.5L376 439.5L349 440H347.5L349 393L350.5 392.5H354V381.5H351.5V383.5L351 384H349V375L349.5 372.5L350 372V370.5L345.5 371V365.5L392 359V364.5ZM477.5 351.5L478.5 352V355H479V357L453 357.5V359.5H454L452.5 439.5L422.5 439L424 362L417 362.5V361H414.5L407 362V357L445.5 351L477.5 350.5V351.5ZM323.5 374L319.5 374.5V376.5H321L319.5 437.5H310V398.5H313V396.5H310.5V392.5H313V388L311 385L311.5 384.5L312 383.5L311.5 382V381L311 380V377.5H311.5V376L311 375.5L283.5 376V370.5L315 370L323.5 369V374ZM271.5 372L270.5 373L271 373.5V376H266.5V378H267.5L267 401.5L265.5 402V401.5H264.5V401L263.5 400.5L261.5 400L261 401.5H260.5V402.5H259.5L260 388.5L260.5 387H259.5L260 385.5L261.5 384.5V383.5L261 382.5L263 380.5V380L263.5 379.5V378.5L264 377L262 374.5L260.5 375L259.5 377L259 376.5L253 377L253.5 372.5L262.5 371H271.5V372ZM832 364V366.5L857.5 365L869.5 366V368.5L893 367L905.5 367.5V370L930 368.5L940 369V371L946.5 370.5H949.5V371L950.5 372V374H951V376L950 376.5L951 377.5V381L797.5 376.5V372L797 370H798V369.5H797.5V365L818.5 363.5L832 364ZM784.5 364.5H783.5L785 365.5V366.5L785.5 367L784.5 367.5L784 368.5L783.5 370V375.5L721 373L703.5 372.5L703 367.5H708.5V370.5L721.5 371L784 363.5L784.5 364.5ZM979.5 344L748 331.5L867 200.5L979.5 344ZM321.5 309.5L311 311.5V313H312V314.5L198 341L243 218.5L255.5 212.5H257L258.5 211.5L258 211L271 204.5L321.5 309.5ZM672 327L356.5 309L526 157.5L672 327ZM620 445V482H617V445H620ZM626 445V482H622.5L623 445H626ZM632 445L631.5 482H628.5L629 445H632ZM436 444V484H432V444H436ZM443 444V484H438.866V444H443ZM449.5 444V484H446V444H449.5Z" fill="black"/>
</svg>
