<svg width="1280" height="720" viewBox="0 0 1280 720" fill="none" xmlns="http://www.w3.org/2000/svg">
<path d="M1280 476.5L1198 466L1195 454.5L1193 438.5L1192 423L1193 410.5L1195 398L1200 384L1206.5 369L1213.5 358L1220.5 350.5V347L1165.5 343.5V333H1160.5L1158 329.5H1154.5L1151.5 331.5L1148.5 333L1147.5 337L1150.5 342.5H1098.5L1097 343.5L1098.5 347L1105 361L1111 378.5L1114.5 398V418L1110 439.5L1104.5 453.5L964.5 435L972.5 206.5L1280 173.5V476.5ZM861.5 261L841 263L839 331H833.5L835.5 263L773 266.5L771.5 328.5H740.5L741.5 270H709.5V328H701.5L703 270L661.5 272.5L660 326.5H655.5L656.5 272.5L623 274.5L621.5 326.5L610.5 325L612.5 274.5L577 276.5L575.5 325L557.5 323.5V252L863 218L861.5 261Z" fill="#FF0000"/>
</svg>
