<svg width="1280" height="720" viewBox="0 0 1280 720" fill="none" xmlns="http://www.w3.org/2000/svg">
<path d="M867.479 50.9932L738 11L658 43.5L811.5 84.5L866.982 67.6562L862.5 218L557.5 252.5L465.5 243V167L460 165.5V155L528.5 164L562.5 151.5L460 135V49.5L230 0H869L867.479 50.9932ZM465.5 214L532.5 221L549 214L477 206L465.5 214ZM1280 173.5L972 207L979 0H1280V173.5ZM606 181.5L689 193.5L711.5 187L631.5 173.5L606 181.5ZM763 148.5L864 167.5L865 123.5L763 148.5ZM503 108L639.5 135.5L690 117L550.5 86.5L503 108ZM1004.5 95L1093 125L1182 109L1100 74L1004.5 95ZM1256.5 71.5L1279.5 85V67L1256.5 71.5ZM1255 50.5L1276 62.5L1279.5 58.5V45L1255 50.5ZM1255.5 9C1253.5 4.2 1239 5 1232 6C1222 7.6 1214.17 11.6667 1211.5 13.5L1210.5 15L1211.5 17L1214 19.5L1217 22L1220.5 24.5L1224 25L1225.5 27H1229.5L1235 28L1238 27L1242 23.5C1253.2 19.5001 1255.67 12.1668 1255.5 9Z" fill="#4400FF"/>
</svg>
