<svg width="1280" height="720" viewBox="0 0 1280 720" fill="none" xmlns="http://www.w3.org/2000/svg">
<path d="M859 337.5L853.5 512L780.5 524.5L757.5 517.5L754.5 515L751 512.5L746 510L741.5 508L737 507L734 504L729.5 501L731.5 493.5L734.5 495L739.5 496.5L745.5 497L751 497.5L759.5 501L768.5 505.5L773 510L776 515L775.5 507.5L774 496.5L775 494.5V488.5L774 484.5L772 481.5L775 478.5L777.5 472L779 466.5V461.5L777.5 458L788.5 459L801 461L813 464.5L823 468.5L826.5 470.5L824 467.5L821 464.5L818.5 460L816 456.5L811.5 452.5L808 451.5H806L808 448L809 445.5L808 443L807 442L806 439.5L805 437.5L801 434.5L797.5 432L794.5 430.5L791 429.5L797 425.5V422.5L796 418L795.5 415.5L800.5 416.5L811.5 422.5L816 425L819 429L819.5 431.5V434.5L821 433V430.5L819.5 428V425L817 420.5L814 415.5L810 411L808 409L807 406L805 403.5L802.5 401.5L800.5 398.5L797 396.5L793 395.5L788.5 394.5L781.5 393.5H775.5L772.5 394.5L769 395.5L764.5 397.5L761 399.5L756.5 403L752.5 402H746.5L750 398.5L755 394.5L760.5 392.5H762.5L765.5 393.5L764.5 392V390.5L763 389L761.5 388.5L759.5 389L757.5 390L756 391L754 393L752.5 392.5L747 392L743 392.5H738.5L737 393.5L735 399.5V402L732 401.5L731.5 397.5L731 396L729.5 395.5L726 394.5L718.5 393.5L719 391L724.5 383L732 373.5L734 370.5L736.5 364.5V360L734.5 354.5H732L727 356.5H725.5L722 358L720 360.5L717 366.5L715.5 368L714 369L712 370.5L711.5 372V375L709 380L708.5 382L709 385L711 392.5L617 381V379L618 376L617 374L619.5 371V369L620 367L621.5 369L624 370L622.5 366.5L621.5 365.5L620.5 362.5L621.5 360.5L620.5 356.5L622 355L621 351.5L621.5 350.5L624 349L626.5 355.5V351L629 357L629.5 355L627.5 349.5L624.5 346.5V345L623.5 344H623L619 338.5L617 337L614 336H612.5L613.5 333.5L613 331.5L610.5 332L609 330.5L607 330L605 330.5V328.5L859 337.5ZM784 432C785 432 789 432.9 797 436.5C805 440.1 806.333 446.667 806 449.5L805.5 451L796.5 449.5C794.5 449.5 790.1 448.5 788.5 444.5C786.9 440.5 784.833 437.5 784 436.5L784.5 434L784 432ZM756 413L757 414.5L757.5 416V418L752.5 420L750.5 421L748 419L748.5 417.5L750.5 414.5L752 412.5H753.5L756 413ZM746 417.5L743 415.5L739 420.5L738.5 420V417.5L739.5 414.5L748.5 413.5L746 417.5ZM737.5 417L737 419.5V420L736.5 419L737 415H738L737.5 417ZM735.5 418.5L735 415.5L735.5 415V418.5ZM764 417L765.5 418.5H761.5V416H762.5L764 417ZM605.5 328L596 329H591L589.5 330H583L577.5 331.5L574.5 332L570 331L567.5 332L565.5 332.5L562.5 331.5L559 330H555V331.5L552.5 330L551.5 332.5L550 331.5V330L546.5 328L543.5 329L541 330V331.5L538.5 330L536 331.5L532 335.5L528.5 334.5L526.5 333V331.975L526 332L527 330L525 328.5H522.5L520.5 329L518 330L519.5 332.5L515.359 332.14L519 332.5L520 335.5L522 337L521 339.5L519 341L516.5 339.5L515 341V344L517.5 348L518 349.5L517.5 351.5L518 353L519 355L518 357L520 359L519 361.5L521 363V366.5L522 368.5L468.5 369.5L473.5 328L473.661 328.016L474.5 325.5L605.5 328Z" fill="#FF00E1"/>
</svg>
