<svg width="1280" height="720" viewBox="0 0 1280 720" fill="none" xmlns="http://www.w3.org/2000/svg">
<path d="M479.5 389.5L623 415.5L618 417.5L614.5 419.5L610.5 422L606 425L598 432L592 438L589.5 441.5L589 443L587.5 445.5L585 451.5L583 455V457L584 458L578.5 460L572.5 463.5L567 467.5L561.5 472.5V471.5L561 470.5L559 469.5H557.5V482L557 483L556 484.5L554 486.5L553 486L552.5 482.5L551.5 482V475L551 474L548.5 472.5L547.5 480V482.5L547 492V497L546 498.5V495.5L545.5 495L545 494L544 493.5L542.5 494.5V501L541 502H542.5L542 503.5L541.5 503L540.5 503.5L539.5 504.5L541.5 509L541 509.5L541.5 511L543.5 514.5V517L542.5 517.5L542 518.5V530.5L512.5 518L525 493L523 490L522 489L528.5 476L526 471.5L468.5 465L464.5 470H464L460 458.5L457.5 457L453 456L448 455.5H442.5L438.5 459.5L429.5 469.5L420 482.5L410.5 499L404.5 514L342.5 522.5V519.5L341 519L217.5 521.5L216 523V524L205.5 540.5L126 551L97.5 548C83.8333 545.167 53.4 539.8 41 541C25.5 542.5 24 554.5 24 557C24 559 24.6667 560.833 25 561.5C17.8 559.9 12.3333 564.167 10.5 566.5L0 568V559.5C1.16667 559 5 557.3 11 554.5C17 551.7 20.5 545.667 21.5 543V540L22 537.5L22.5 535.5L23 534.5L21 532.5L18.5 533.5H16.5L10.5 534L5 534.5L0 535.5V410.5L476.5 389L479.5 389.5ZM591.5 551L578.5 546L579 519V518L577.5 517L581.5 507.5V505.5L581 505L582.5 501.5L581.5 500.5H579.5L578 503.5L576.5 505L573 515.5L571.5 515V510.5L575.5 500L577 496.5L578.5 495.5L581.5 494L584 492L586 489.5L589 485.5L591.5 482.5V551ZM693.5 495L694 497L695 500.5L696 505L690 505.5L692.5 493L693.5 495ZM698 493L699.5 496V505H698.5L697 496.5L696 495L695.5 496L693 491L694 485.5L698 493ZM720.5 483.5L722.5 486.5L725 489L727 490.5L725 499.5L720.5 498.5H718L715.5 499.5H714L713 500.5L712.5 500L711.5 501V502L709.5 505H708L710.5 498.5L711.5 495L715.5 486.5L718.5 479.5L720.5 483.5ZM728 450.5L729.5 457L729 459L729.5 462L727.5 466L725.5 468.5L721 473L719.5 472.5L717 471.5V474.5L716 475.5L715 478L714.5 480L708.5 492.5V486L709.5 481.5L711 474V471.5L713.5 469L716 465.5L719 460.5L720.5 456L719.5 451H720L722.5 449.5H723.5L728 450.5ZM707.5 476.5L706 479.5V476L707.5 474.5V476.5ZM689.5 451.5L690.5 454L692 458V461L688.5 462.5L683.5 466L680.5 466.5L684 462L686 458.5L687.5 454V451L688.5 450L689.5 451.5ZM613 438.5L605 444.5L602 447.5L600 451.5L591.5 452.5V456.5L586 457.5L585 455.5L586 452L588.5 449L591.5 446.5L594.477 444.268C604.577 436.877 614.964 435 619 435L613 438.5ZM690.5 444.5L693 447L695.5 450V451L694 452L692 450L691.5 451.5L689.5 448L688.5 444L690.5 444.5ZM612.5 449.5L612 450.5L600.5 451.5L601 450.5L604 449L608 448L611.5 447.5H614.5L612.5 449.5ZM645 442.5L640.5 444L636 446.5L633 449L618 450L621.5 447L624.5 446.5L627.5 445.5L630 446.5L632.5 446L635 444L636.5 443.5L638.5 443L641 442.5L644.5 442L645 442.5ZM695 446L696 447V449L693.5 445.5L695 446ZM725.5 436L723.5 438L721 441L719 444L717.5 447.5L716 446.5L714 445.5L712 445L712.5 441.5V439.5H714.5L718.5 438L722 435.5L725 432L725.5 436ZM660.5 445.5L659.5 446L658.5 440.5L660.5 445.5ZM663.5 443.5L661.5 445L660.5 441L663.5 443.5ZM653.5 442.5L655.5 444.5L653 443.5L649.5 442.5L648 441.5L647.5 440.5H652L653.5 442.5ZM691 441V442.5L691.5 444L687.5 442L683.5 438.5L691 441ZM711 439.5L710.5 442.5L709.5 441.5L708.5 442L709.5 439L711 439.5ZM703.5 431.5L703 433L702.5 437L702 432V425.5L703 416L703.5 431.5ZM709.5 428.5L710 430.5L708 437V432L709.5 425.5V428.5ZM699.5 427L701 431V436L699.5 435L698.5 434L696 427.5L693.5 422L691.5 417.5L690 414.5L689 413L691.5 412.5L695.5 411.5H701L699.5 427ZM709.5 417.5L706 434L705.5 435L705 433L704.5 411.5H710.5L709.5 417.5ZM723 423L721.5 426.5L718 430.5L715 434L710.5 435V433.5L712.5 428L719 422.5L722 420.5L723 423ZM733.5 430.5L731 432L728 434L727.5 432L726.5 431V430.5L730 430L733.5 430.5ZM688.5 415L690 417.5L693 423.5L697 433L695 431.5L693 430.5L689.5 429.5L686 429L679 428.5L678.5 428L680 423.5V419L681.5 418.5L684 417L686 415L687.5 413L688.5 415ZM710.5 418L711.5 411H714L710.5 418ZM733.5 418L729.5 417L731.5 416H733.5V418Z" fill="#00BFFF"/>
</svg>
