<svg width="1280" height="720" viewBox="0 0 1280 720" fill="none" xmlns="http://www.w3.org/2000/svg">
<path d="M741.5 508L746 510L751 512.5L754.5 515L757.5 517.5C758.667 518.5 761 521.8 761 527C761 532.2 758.667 536.5 757.5 538L755.5 540C757.333 541.5 761 546.1 761 552.5C761 560.5 756 564.5 755.5 565C757.333 566.5 761 571.1 761 577.5C761 585.5 755.5 592 749 594.5L748.5 605C748.5 606.416 747.2 609.998 742 613C735.5 616.753 720 618.5 713.5 618.5C707 618.5 691.5 617.5 681 613C670.5 608.5 670 602.5 670 600V591.5C666.333 589.5 659 583.4 659 575C659 566.6 662.667 562.833 664.5 562C662.833 560.833 659.5 556.9 659.5 550.5C659.5 544.1 663.167 539.167 665 537.5L663 534.5L661.5 532L665 529L670 526.5L673.5 522.5L675 520.5L675.5 518L678.5 521.5L681 526L684 532L686 524L686.5 521H687.5L692.5 522L702.5 523.5L714.5 524L715 525L717.5 536L720.5 545L722.5 549L724.5 552L728.5 556L731.5 559.5L735 564.5L735.5 563L736 560.5L737 557L738 554L739.5 550L740.5 544.5V540L741.5 537.5L743.5 531.5L744.5 524.5L744 520L745.5 519L746.5 518.5L743.5 517C742.667 514.833 740.2 509.8 737 507L741.5 508ZM697 511.5L692.5 512L688.5 512.5V511.5L690 505.5L696 505L697 511.5ZM699.5 511.5L698.5 505H699.5V511.5ZM712.5 511.5H709L712 505.5H712.5V511.5Z" fill="#EEFF00"/>
</svg>
