<svg width="1280" height="720" viewBox="0 0 1280 720" fill="none" xmlns="http://www.w3.org/2000/svg">
<path d="M1055 303.5L978 306V209.5L977.5 207H976L906.5 217.5L904.5 214.5L905 210L906 208.5L906.5 207.5L910.5 203H914.5C914.833 204.167 916 206.5 918 206.5C920 206.5 921.167 203.5 921.5 202C921.333 200.667 920.4 198 918 198C915.6 198 914.667 199.667 914.5 200.5H910L908.5 201L907.5 202L902 208L897.5 210C895 209.333 890 208.8 890 212C890 215.2 893.667 218 895.5 219L867.5 223L867 149L1055 108.5V303.5ZM1280 296.5L1224.5 298.5L1225 82.5L1280 71V296.5Z" fill="#04FF00"/>
</svg>
