<svg width="1280" height="720" viewBox="0 0 1280 720" fill="none" xmlns="http://www.w3.org/2000/svg">
<path d="M1084 330L803 333.5V120L804 118.5L1083.5 51.5H1084.5L1084 330ZM1280 37.5L1225 50L1224.5 298.5L1280 296.5V329L1197.5 330L1194.5 329L1194 327.5L1193 27.5L1280 5.5V37.5ZM820 137V311.5L1055 303.5V84.5L820 137ZM470.5 156L472.5 156.5L473.5 158L475 252.5L473 253.5L157 239L155.5 122.5L470.5 156ZM710.5 96.5V222L708 222.5L524.5 249L511 250L510 154.5L706.5 96L710.5 96.5ZM166 153.5L161.5 153V221L447 235.5V186H449L450 185V181.5L449 180L446 179V177.5L169 153L166 153.5ZM536.5 174.5V233L700 207L699.5 131.5L536.5 174.5Z" fill="#00D9FF"/>
</svg>
