<svg width="1280" height="720" viewBox="0 0 1280 720" fill="none" xmlns="http://www.w3.org/2000/svg">
<path d="M92 30L179.5 41L281 55L387.5 70.5L495.5 85.5L500 429.5L160.5 457L157 239L473 253.5L475 252.5L473.5 158L472.5 156.5L470.5 156L155.5 122.5V113L151 112.5H147V121H143.5L144.5 237.5L145 239H148.5L152 457.5L127.5 459L124 458.5L123 456.5L117.5 153L25 145.5C27 145.5 27.1667 143.833 27 143L120 133.5H129L129.5 137H132L135.5 134V130L134.5 127L133 126L131 128H129.5L123.5 127H121.5L120 128L27 138.5L24 138C18.8 141.2 21.8333 144.333 24 145.5L0 143V16.5L92 30ZM867 149L867.5 223L865.5 222.5V194.5L863 193.83L860 194.5V222.5L819.5 218.5V142L867 149Z" fill="#FF0000"/>
</svg>
