<svg width="1280" height="720" viewBox="0 0 1280 720" fill="none" xmlns="http://www.w3.org/2000/svg">
<path d="M909.688 3.5C905.837 3.1 903.625 5 903 6L900.5 7V10L861.5 22.5V22C861.5 21.3333 860.8 20 858 20C855.2 20 853.167 21.3333 852.5 22V30.5L844.5 33L843.5 35V39.5L840.5 44C845 39.5 851.5 38 859 38C865 38 869.5 39 871 39.5V33.5L870 32L867.5 30.5L861.5 29.5V27.5L870 24L873.5 22L885 17.5L902.5 13.5L900 15.5L893 19V25L891 28C893.667 26.6667 901.3 24 910.5 24C919.7 24 924 25.6667 925 26.5L927.5 24.5V23L940.5 17.5L945 20V16.5L943.5 17.5L940.5 14.5V3.5L925 8H922L921 7.5L942 0H950L948.5 1L947.5 3.5V9L945.5 11.5L950 9.5L954 8H958.5V0H965V7.5C973 5.5 978.667 7.66667 980.5 9V7L978.5 5.5V0H1280V5.5L1193 27.5L1194 327.5L1194.5 329L1197.5 330L1280 329V366L1170.5 365L1163 366.5V384.5L1161.5 386L1159 388L1157.5 390.5V392L1154.5 394L1153.5 396.5L1153 399.5L1153.5 401.5L1118.5 404L1119 366V365L1117.5 364L1116 363.5L1065.5 363L1066.5 359L1066 358.5H1048.5L1047.5 358C1048.33 357.833 1050 357 1050 355C1050 352.5 1047.5 351 1046 351C1044.5 351 1042 352 1042 354.5C1042 356.5 1043.33 357.667 1044 358L1030.5 357.5L1027 358L1026 358.5V359.5L1026.5 362.5L912 361L911.5 359L910.5 356L909.5 353.5L906.5 349L904.5 347L901.5 345.5L898 345L894.5 345.5L891 347L887.5 349.5L879 357V357.5C879.8 359.5 881.667 360.333 882.5 360.5H888C889.167 356.667 892.8 349.1 898 349.5C903.2 349.9 905.167 357.667 905.5 361.5L828 359.5L809 360.5V356.5H782V384.5L782.5 386H756L669.5 390.5V397L671.5 398H676V400.844C675 400.896 673 400.969 673 400.844V446.5H676V448.5H673V454L664.5 452.5L651.5 451L631.5 448.5L622 447L579 441L509.5 431.5L500 429.5L495.5 85.5L705 0H920L909.688 3.5ZM804 118.5L803 120V333.75L1084 330L1084.5 51.5H1083.5L804 118.5ZM510 154.5L511 250L524 249L708.5 222.5L710.5 222V96.5L706.5 96L510 154.5Z" fill="black"/>
</svg>
