<svg width="1280" height="720" viewBox="0 0 1280 720" fill="none" xmlns="http://www.w3.org/2000/svg">
<path d="M905.5 361.5C905.9 363.5 906 368 906 370V381C905.6 386.2 903.167 389.167 902 390V390.5L904.5 391H917L920.688 390.5V390L930 390.5L929 391.5L932.5 392H942.5L946 391.5L945 390.5L944 389L942.5 388H943.5V384L942 380.5L940.25 375.5L940 373.5L940.25 372.5L942 371.5L943.5 371L947.5 370L949.5 370.5L952.5 371L955 372L956.5 373L958 372.5L960 369.5L959.5 368.5L958 368L956 367L953.5 366H951.5L948 366.5L945.5 367.5L939.5 370L937.5 370.5L935.5 370L934 369L933.5 370L934 371.5L935 373V375.5L933.5 378L932 382L931 385.5V388L932 388.5L931 389L930 390L920 389.5L917 383.5L916 379.5L917 379L917.5 377.5L918.5 376L919 374.5L918 374L916 373.5L915 374L914.5 371L913 364.5L912 361L1026.5 362.5V383.5L1025.5 384L1026.5 385V390L1028 390.5L1027 392.5L1025 394.5V397L1027 397.5L1035 398L1042.5 398.5H1061.5L1065 398L1066 397.5L1063.5 391.5L1065.5 390.5V385.5L1066.5 384.5L1065.5 384V363L1116 363.5L1117.5 364L1119 365V365.5L1118.5 404L1153.5 401L1156 404.5L1158.5 407H1161.5L1163.5 409L1172 412H1174L1176.5 413L1182 413.5H1198.5L1201.5 413L1202.5 411.5V408.5L1201 407V405L1201.5 401L1203 397V392L1201.5 389.5L1199 386.5L1194.5 382.5L1189.5 380.5L1188 380L1184.5 379H1180L1170.5 380.5L1163 384.5V366.5L1170.5 365L1280 366V436.5L1044.5 422L1042 420.5V413.5L991.5 417L676 398H671.5L669.5 397V390.5L756.5 386H782.5L785 386.5H808L809 386L809.5 384.5L809 360.5L828 359.5L905.5 361.5ZM872 365.5L870.5 366L869 367L868 368V369L868.5 370L870 371L871 371.5L872 371L873.5 370L875 369.5L878 369L880 369.5L883.5 371.5V372.5L880 382L879.5 384V386L881 386.5L879.5 387L879 387.5L878.5 389L878 389.5L886 390.5L893 390V389.5L891.5 387H890.5V386.5L891.5 386V383.5L890.5 380.5L889 377L887.5 372.5L889 369.5L888.5 368.5H887L886 369.5H884.5L883.5 369L880.5 367L877.5 365.5L875 365L872 365.5Z" fill="#E1FF00"/>
</svg>
